<svg xmlns="http://www.w3.org/2000/svg" viewBox="242 332 128 128"><path fill="#263238" d="M309.6 412.7l.6 1.3s0 .4-.3.4h-14.6c-.3 0-.3-.4-.3-.4l.6-1.3h14zm0-2.8h-13.9v2.4h13.9v-2.4zm-27.7-6.3v-22.8h40.4v2.6h2.7v-4.5c0-.7-.6-1.3-1.3-1.3h-43.1c-.7 0-1.3.6-1.3 1.3v29c0 .8.6 1.4 1.3 1.4h34.1v-5.7h-32.8z"/><path fill="#F44336" d="M329.6 384.9h-10.4c-1.7 0-3.1 1.4-3.1 3.1v23.3c0 1.7 1.4 3.1 3.1 3.1h10.4c1.7 0 3.1-1.4 3.1-3.1V388c0-1.7-1.4-3.1-3.1-3.1zm-7 .9c0-.1.2-.2.4-.2h3c.2 0 .4.1.4.2v.1c0 .1-.2.2-.4.2h-3c-.3 0-.4-.1-.4-.3zm2.2 1.1c0 .2-.2.4-.4.4s-.4-.2-.4-.4.2-.4.4-.4c.2.1.4.2.4.4zm1.5 25.9c0 .2-.2.4-.4.4h-3c-.2 0-.4-.2-.4-.4v-.2c0-.2.2-.4.4-.4h3c.2 0 .4.2.4.4v.2zm5.1-1.5h-13.7V388h13.7v23.3z"/></svg>