<svg xmlns="http://www.w3.org/2000/svg" viewBox="-9 -9 128 128"><path fill="#1D1D1B" d="M27 83V25c0-1.1-.9-2-2-2s-2 .9-2 2v62h62c1.1 0 2-.9 2-2s-.9-2-2-2H27z"/><path fill="#0484AB" d="M33 67h12v16H33zm18-11h12v27H51zm18-22h12v49H69z"/><path fill="#9CE5F4" d="M70.3 44.7c.4-9.1-6.7-16.8-15.8-17.2s-16.8 6.7-17.2 15.8c-.1 2.8.5 5.5 1.6 7.9L24.6 65.5c1.1 3.4 3.4 5.7 6.9 6.9l14.1-14.1c2.2 1.3 4.8 2.1 7.5 2.2 9.1.3 16.8-6.7 17.2-15.8z"/><path fill="#C9F2F8" d="M54.5 27.4c-9.1-.4-16.8 6.7-17.2 15.8-.1 2.8.5 5.5 1.6 7.9L24.6 65.5c.6 1.9 1.6 3.5 3 4.7l37.8-37.8c-2.8-2.9-6.6-4.8-10.9-5z"/><circle fill="#40C9E7" cx="53.8" cy="43.9" r="11.8"/><path fill="#6FDAF1" d="M54.3 32.2c-6.5-.3-12 4.8-12.3 11.3-.2 3.4 1.2 6.6 3.5 8.9l16.7-16.7c-2.1-2.1-4.8-3.4-7.9-3.5z"/><path fill="#84462D" d="M38.9 51.1L24.6 65.5c1.1 3.4 3.4 5.7 6.9 6.9l14.1-14.1c-2.9-1.7-5.2-4.2-6.7-7.2z"/><path fill="#9C6144" d="M38.9 51.1L24.6 65.5c.6 1.9 1.6 3.5 3 4.7l14.5-14.5c-1.3-1.4-2.4-2.9-3.2-4.6z"/><path fill="#F3B607" d="M42.5 61.3l3-3c-2.9-1.7-5.2-4.1-6.6-7.1l-3.3 3.3 6.9 6.8z"/><path fill="#FBE158" d="M38.9 51.1l-3.3 3.3 3.8 3.8 2.6-2.6c-1.2-1.3-2.3-2.8-3.1-4.5z"/></svg>