<svg xmlns="http://www.w3.org/2000/svg" viewBox="90.6 281.2 319 319.7"><path fill="#58656A" d="M395.3 352.5c-2.8-.5-5.6.5-7.9 2.3l-66 67.4c-6.5 6.5-29.3 1.9-44.2-4.2-6-14.9-10.7-37.7-4.2-44.2l67.9-66c1.9-1.9 2.8-5.1 2.3-7.9s-2.3-5.1-5.1-6c-42.3-16.7-90.2-7-122.3 25.1-28.4 28.4-39.1 67.9-30.7 105.1-.9 18.1-17.7 40-26.5 48.4l-66 66.5c16.7 24.6 38.6 45.6 63.2 61.9l63.2-62.8c8.8-8.8 32.6-25.1 50.7-27 2.8 0 8.4.5 9.8.9 35.3 5.1 71.2-6.5 96.7-32.1 32.1-32.1 41.9-80 25.1-122.3-.9-2.7-3.3-4.6-6-5.1z"/><path fill="#D2D2D1" d="M395.3 347.9c-2.8-.5-5.6.5-7.9 2.3l-66 67.4c-6.5 6.5-29.3 1.9-44.2-4.2-6-14.9-10.7-37.7-4.2-44.2l67.9-66c1.9-1.9 2.8-5.1 2.3-7.9s-2.3-5.1-5.1-6c-42.3-16.7-90.2-7-122.3 25.1-28.4 28.4-39.1 67.9-30.7 105.1-.9 18.1-17.7 40-26.5 48.4l-67.9 68.4c16.7 24.6 37.7 46 62.3 62.8l66-65.6c8.8-8.8 32.6-25.1 50.7-27 2.8 0 8.4.5 9.8.9 35.3 5.1 71.2-6.5 96.7-32.1 32.1-32.1 41.9-80 25.1-122.3-.9-2.8-3.3-4.7-6-5.1z"/><path fill="#A5A59B" d="M408.7 381.8c.5 5.1.9 10.2.9 15.3-.5-13-2.8-26.5-7.9-39.1-.9-2.8-3.3-4.7-6-5.1-2.8-.5-5.6.5-7.9 2.3l-66.5 67c-6.5 6.5-29.3 1.9-44.2-4.2-.5-1.4-.9-2.8-1.4-4.2L118.5 570.6c10.2 10.7 21.9 20 34.4 28.4l66-65.6c8.8-8.8 32.6-25.1 50.7-27 2.8 0 8.4.5 9.8.9 35.3 5.1 71.2-6.5 96.7-32.1 25.2-25 36.4-59.4 32.6-93.4zm-4.1-19.5l-.5-2.3.5 2.3zm3.7 17.2c0-1.4-.5-2.8-.5-4.2 0 1.4.5 2.8.5 4.2zm-1.4-8.4l-.9-3.7.9 3.7zm-191.6-51.6c32.1-32.1 80-41.9 122.3-25.1 2.3.9 4.2 3.3 5.1 5.6.5-1.4.5-2.8 0-4.2-.5-2.8-2.3-5.1-5.1-6-42.3-16.7-90.2-7-122.3 25.1-22.3 22.3-33.5 52.1-33.5 81.4 1.4-28 12.5-55.9 33.5-76.8zm-56.8 148.8l-67.9 67.9 1.9 2.8 66-66c8.8-8.8 25.1-30.2 26.5-48.4l-.5-1.9c-2.2 17.7-17.6 37.3-26 45.6z"/><path fill="#CCD0D2" d="M184.6 489.3l-73.5 73.5c5.1 5.6 10.7 11.2 16.3 16.3l73.5-73.5c4.7-4.7 4.7-12.1 0-16.3-4.7-4.2-11.7-4.7-16.3 0z"/><path fill="#B8BCBE" d="M184.6 489.3l-73.5 73.5 2.3 2.3 71.2-71.2c4.7-4.7 12.1-4.7 16.3 0 1.9 1.9 2.8 3.7 3.3 6 .9-3.7-.5-7.9-3.3-10.7-4.2-4.6-11.7-4.6-16.3.1z"/></svg>