<svg xmlns="http://www.w3.org/2000/svg" viewBox="53.631 109.006 684.737 383.74" enable-background="new 53.631 109.006 684.737 383.74"><path fill="#B2B2B2" d="M105.279 465.449a19.25 19.25 0 0 1-1.672-7.88V128.636c0-10.8 8.844-19.616 19.616-19.616H662.4c10.8 0 19.616 8.816 19.616 19.616v328.932a19.25 19.25 0 0 1-1.672 7.88H738c-.198 14.825-12.416 26.929-27.298 26.929H81.298c-14.882 0-27.099-12.104-27.298-26.929h51.279z"/><path fill="#B2B2B2" d="M105.279 465.449a19.25 19.25 0 0 1-1.672-7.88V128.636c0-10.8 8.844-19.616 19.616-19.616H662.4c10.8 0 19.616 8.816 19.616 19.616v328.932a19.25 19.25 0 0 1-1.672 7.88H738c-.198 14.825-12.416 26.929-27.298 26.929H81.298c-14.882 0-27.099-12.104-27.298-26.929h51.279z"/><path fill="#211915" d="M123.222 109.02h539.15c10.833 0 19.616 8.782 19.616 19.616V457.54c0 10.833-8.782 19.616-19.616 19.616h-539.15c-10.833 0-19.616-8.782-19.616-19.616V128.636c0-10.833 8.783-19.616 19.616-19.616z"/><path opacity=".4" fill="#FFF" d="M125.518 114.038h534.614c9.331 0 16.895 7.564 16.895 16.894V455.3c0 9.331-7.564 16.895-16.895 16.895H125.518c-9.331 0-16.894-7.564-16.894-16.895V130.932c0-9.33 7.564-16.894 16.894-16.894z"/><path fill="#211915" d="M125.32 115.257h534.983c8.548 0 15.477 6.929 15.477 15.477v324.737c0 8.548-6.929 15.477-15.477 15.477H125.32c-8.548 0-15.477-6.929-15.477-15.477V130.734c0-8.548 6.929-15.477 15.477-15.477z"/><defs><filter id="a" filterUnits="userSpaceOnUse" x="132.25" y="137.679" width="521.093" height="310.847"><feColorMatrix values="1 0 0 0 0 0 1 0 0 0 0 0 1 0 0 0 0 0 1 0"/></filter></defs><mask maskUnits="userSpaceOnUse" x="132.25" y="137.679" width="521.093" height="310.847" id="b"><path fill="#1A1A1A" filter="url(#a)" d="M392.811 293.102L306.95 584.107l3.6 1.02 82.261-292.025"/><path d="M392.811 293.102L478.644 2.098l-3.6-1.049-82.233 292.053"/><path fill="#1A1A1A" d="M392.811 293.102L310.55 585.128l3.6.992 78.661-293.018"/><path d="M392.811 293.102L475.044 1.049l-3.6-.992-78.633 293.045"/><path fill="#1A1A1A" d="M392.811 293.102L314.15 586.12l3.628.964 75.033-293.982"/><path d="M392.811 293.102L471.444.057l-3.6-.935-75.033 293.98"/><path fill="#1A1A1A" d="M392.811 293.102l-75.033 293.981 3.628.907 71.405-294.888"/><path d="M392.811 293.102L467.844-.879l-3.628-.907-71.405 294.888"/><path fill="#1A1A1A" d="M392.811 293.102L321.406 587.99l3.628.85 67.777-295.738"/><path d="M392.811 293.102L464.216-1.786l-3.657-.85-67.748 295.738"/><path fill="#191919" d="M392.811 293.102l-67.776 295.739 3.657.822 64.119-296.561"/><path fill="#010101" d="M392.811 293.102L460.559-2.636l-3.628-.822-64.12 296.56"/><path fill="#191919" d="M392.811 293.102l-64.12 296.561 3.657.765 60.463-297.326"/><path fill="#010101" d="M392.811 293.102l64.12-296.561-3.657-.765-60.463 297.326"/><path fill="#191919" d="M392.811 293.102l-60.463 297.326 3.657.709 56.806-298.035"/><path fill="#010101" d="M392.811 293.102L453.274-4.224l-3.685-.709-56.778 298.035"/><path fill="#191919" d="M392.811 293.102l-56.806 298.035 3.685.68 53.121-298.715"/><path fill="#010101" d="M392.811 293.102L449.589-4.932l-3.657-.68-53.121 298.714"/><path fill="#191919" d="M392.811 293.102L339.69 591.817l3.685.624 49.436-299.339"/><path fill="#010101" d="M392.811 293.102L445.932-5.613l-3.685-.624-49.436 299.339"/><path fill="#191919" d="M392.811 293.102l-49.436 299.339 3.685.595 45.751-299.934"/><path fill="#010101" d="M392.811 293.102L442.247-6.236l-3.713-.595-45.723 299.933"/><path fill="#191919" d="M392.811 293.102L347.06 593.036l3.685.539 42.066-300.473"/><path fill="#010101" d="M392.811 293.102L438.534-6.831l-3.685-.539-42.038 300.472"/><path fill="#191919" d="M392.811 293.102l-42.066 300.472 3.713.51 38.353-300.982"/><path fill="#010101" d="M392.811 293.102L434.849-7.37l-3.713-.51-38.325 300.982"/><path fill="#191919" d="M392.811 293.102l-38.353 300.983 3.713.425 34.64-301.408"/><path fill="#010101" d="M392.811 293.102L431.135-7.88l-3.713-.425-34.611 301.407"/><path fill="#191919" d="M392.811 293.102L358.172 594.51l3.713.425 30.926-301.833"/><path fill="#010101" d="M392.811 293.102L427.422-8.306l-3.713-.425-30.898 301.833"/><path fill="#181818" d="M392.811 293.102l-30.926 301.833 3.713.34 27.213-302.173"/><path fill="#020202" d="M392.811 293.102L423.709-8.731l-3.713-.34-27.185 302.173"/><path fill="#181818" d="M392.811 293.102l-27.213 302.173 3.742.312 23.471-302.485"/><path fill="#020202" d="M392.811 293.102L419.995-9.071l-3.742-.312-23.442 302.485"/><path fill="#181818" d="M392.811 293.102L369.34 595.587l3.713.283 19.758-302.768"/><path fill="#020202" d="M392.811 293.102L416.254-9.383l-3.713-.283-19.73 302.768"/><path fill="#181818" d="M392.811 293.102L373.053 595.87l3.742.198 16.016-302.966"/><path fill="#020202" d="M392.811 293.102L412.54-9.666l-3.742-.227-15.987 302.995"/><path fill="#181818" d="M392.811 293.102l-16.016 302.967 3.742.198 12.274-303.165"/><path fill="#020202" d="M392.811 293.102L408.798-9.893l-3.713-.17-12.274 303.165"/><path fill="#181818" d="M392.811 293.102l-12.274 303.165 3.713.113 8.561-303.278"/><path fill="#020202" d="M392.811 293.102l12.274-303.165-3.742-.113-8.532 303.278"/><path fill="#181818" d="M392.811 293.102l-8.561 303.279 3.742.085 4.819-303.364"/><path fill="#020202" d="M392.811 293.102l8.532-303.279-3.742-.085-4.79 303.364"/><path fill="#181818" d="M392.811 293.102l-4.819 303.364 3.742.028 1.077-303.392"/><path fill="#020202" d="M392.811 293.102l4.791-303.364-3.742-.028-1.049 303.392"/><path fill="#181818" d="M392.811 293.102l-1.077 303.392h3.742l-2.665-303.392"/><path fill="#020202" d="M392.811 293.102L393.86-10.29h-3.742l2.693 303.392"/><path fill="#181818" d="M392.811 293.102l2.665 303.392 3.742-.057-6.407-303.335"/><path fill="#020202" d="M392.811 293.102L390.118-10.29l-3.742.057 6.435 303.335"/><path fill="#171717" d="M392.811 293.102l6.406 303.335 3.742-.113-10.148-303.222"/><path fill="#030303" d="M392.811 293.102l-6.435-303.335-3.713.113 10.148 303.222"/><path fill="#171717" d="M392.811 293.102l10.148 303.222 3.713-.142-13.861-303.08"/><path fill="#030303" d="M392.811 293.102L382.663-10.12l-3.742.142 13.89 303.08"/><path fill="#171717" d="M392.811 293.102l13.861 303.08 3.742-.198-17.603-302.882"/><path fill="#030303" d="M392.811 293.102l-13.89-303.08-3.741.198 17.631 302.882"/><path fill="#171717" d="M392.811 293.102l17.603 302.882 3.742-.227-21.345-302.655"/><path fill="#030303" d="M392.811 293.102L375.18-9.78l-3.713.227 21.344 302.655"/><path fill="#171717" d="M392.811 293.102l21.345 302.655 3.713-.284-25.058-302.371"/><path fill="#030303" d="M392.811 293.102L371.466-9.553l-3.742.283 25.087 302.372"/><path fill="#171717" d="M392.811 293.102l25.058 302.372 3.742-.34-28.8-302.032"/><path fill="#030303" d="M392.811 293.102L367.724-9.269l-3.713.34 28.8 302.031"/><path fill="#171717" d="M392.811 293.102l28.8 302.031 3.713-.368-32.513-301.663"/><path fill="#030303" d="M392.811 293.102l-28.8-302.031-3.713.369 32.513 301.662"/><path fill="#171717" d="M392.811 293.102l32.513 301.663 3.713-.425-36.226-301.238"/><path fill="#030303" d="M392.811 293.102L360.298-8.561l-3.713.425 36.226 301.238"/><path fill="#171717" d="M392.811 293.102l36.227 301.238 3.713-.482-39.94-300.756"/><path fill="#030303" d="M392.811 293.102L356.584-8.135l-3.713.482 39.94 300.755"/><path fill="#171717" d="M392.811 293.102l39.94 300.756 3.685-.51-43.625-300.246"/><path fill="#030303" d="M392.811 293.102L352.871-7.654l-3.713.51 43.653 300.246"/><path fill="#161616" d="M392.811 293.102l43.625 300.246 3.713-.567-47.338-299.679"/><path fill="#040404" d="M392.811 293.102L349.157-7.143l-3.685.567 47.339 299.678"/><path fill="#161616" d="M392.811 293.102l47.339 299.679 3.685-.595-51.024-299.084"/><path fill="#040404" d="M392.811 293.102L345.472-6.576l-3.685.595 51.024 299.083"/><path fill="#161616" d="M392.811 293.102l51.024 299.083 3.657-.652-54.681-298.431"/><path fill="#040404" d="M392.811 293.102L341.787-5.981l-3.685.652 54.709 298.431"/><path fill="#161616" d="M392.811 293.102l54.68 298.432 3.685-.709-58.365-297.723"/><path fill="#040404" d="M392.811 293.102L338.102-5.329l-3.685.709 58.394 297.722"/><path fill="#161616" d="M392.811 293.102l58.365 297.723 3.657-.737-62.022-296.986"/><path fill="#040404" d="M392.811 293.102L334.417-4.62l-3.657.737 62.051 296.985"/><path fill="#161616" d="M392.811 293.102l62.022 296.986 3.657-.794-65.679-296.192"/><path fill="#040404" d="M392.811 293.102L330.761-3.883l-3.657.765 65.707 296.22"/><path fill="#161616" d="M392.811 293.102l65.679 296.192 3.657-.822-69.336-295.37"/><path fill="#040404" d="M392.811 293.102L327.104-3.118l-3.628.85 69.335 295.37"/><path fill="#161616" d="M392.811 293.102l69.335 295.37 3.628-.879-72.963-294.491"/><path fill="#040404" d="M392.811 293.102L323.476-2.268l-3.657.879 72.992 294.491"/><path fill="#161616" d="M392.811 293.102l72.964 294.491 3.628-.907-76.592-293.584"/><path fill="#040404" d="M392.811 293.102L319.819-1.389l-3.6.907 76.592 293.584"/><path fill="#161616" d="M392.811 293.102l76.592 293.584 3.6-.964-80.192-292.62"/><path fill="#040404" d="M392.811 293.102L316.219-.482l-3.628.964 80.22 292.62"/><path fill="#151515" d="M392.811 293.102l80.192 292.62 3.6-1.02-83.792-291.6"/><path fill="#050505" d="M392.811 293.102L312.591.482l-3.6 1.02 83.82 291.6"/><path fill="#151515" d="M392.811 293.102l83.792 291.6 3.6-1.049-87.392-290.551"/><path fill="#050505" d="M392.811 293.102l-83.82-291.6-3.572 1.049 87.392 290.551"/><path fill="#151515" d="M392.811 293.102l87.392 290.551 3.572-1.106-90.964-289.445"/><path fill="#050505" d="M392.811 293.102L305.419 2.551l-3.572 1.106 90.964 289.445"/><path fill="#151515" d="M392.811 293.102l90.964 289.446 3.543-1.134-94.507-288.312"/><path fill="#050505" d="M392.811 293.102L301.847 3.657l-3.572 1.134 94.536 288.311"/><path fill="#151515" d="M392.811 293.102l94.507 288.312 3.543-1.191-98.05-287.121"/><path fill="#050505" d="M392.811 293.102L298.276 4.791l-3.543 1.191 98.078 287.12"/><path fill="#151515" d="M392.811 293.102l98.05 287.121 3.543-1.247-101.593-285.874"/><path fill="#050505" d="M392.811 293.102L294.732 5.981l-3.515 1.247 101.594 285.874"/><path fill="#151515" d="M392.811 293.102l101.594 285.874 3.515-1.276-105.109-284.598"/><path fill="#050505" d="M392.811 293.102L291.217 7.228l-3.515 1.247 105.109 284.627"/><path fill="#151515" d="M392.811 293.102L497.92 577.701l3.487-1.304-108.596-283.295"/><path fill="#050505" d="M392.811 293.102L287.702 8.476l-3.515 1.332 108.624 283.294"/><path fill="#151515" d="M392.811 293.102l108.595 283.294 3.487-1.361-112.082-281.933"/><path fill="#050505" d="M392.811 293.102L284.187 9.808l-3.487 1.361 112.111 281.933"/><path fill="#141414" d="M392.811 293.102l112.082 281.934 3.458-1.389-115.54-280.545"/><path fill="#060606" d="M392.811 293.102L280.701 11.169l-3.458 1.389 115.568 280.544"/><path fill="#141414" d="M392.811 293.102l115.54 280.545 3.458-1.446-118.998-279.099"/><path fill="#060606" d="M392.811 293.102L277.243 12.557l-3.458 1.446 119.026 279.099"/><path fill="#141414" d="M392.811 293.102l118.998 279.099 3.43-1.502-122.428-277.597"/><path fill="#060606" d="M392.811 293.102L273.784 14.003l-3.43 1.502 122.457 277.597"/><path fill="#141414" d="M392.811 293.102l122.428 277.597 3.402-1.531-125.83-276.066"/><path fill="#060606" d="M392.811 293.102L270.354 15.506l-3.402 1.531 125.859 276.065"/><path fill="#141414" d="M392.811 293.102l125.83 276.066 3.402-1.559-129.232-274.507"/><path fill="#060606" d="M392.811 293.102L266.953 17.036l-3.373 1.559 129.231 274.507"/><path fill="#141414" d="M392.811 293.102l129.232 274.507 3.373-1.616-132.605-272.891"/><path fill="#060606" d="M392.811 293.102L263.58 18.595l-3.373 1.616 132.604 272.891"/><path fill="#141414" d="M392.811 293.102l132.605 272.891 3.345-1.672-135.95-271.219"/><path fill="#060606" d="M392.811 293.102L260.206 20.211l-3.373 1.644 135.978 271.247"/><path fill="#141414" d="M392.811 293.102l135.95 271.219 3.317-1.672-139.267-269.547"/><path fill="#060606" d="M392.811 293.102L256.833 21.855l-3.317 1.701 139.295 269.546"/><path fill="#141414" d="M392.811 293.102l139.266 269.546 3.317-1.757-142.583-267.789"/><path fill="#060606" d="M392.811 293.102L253.517 23.556l-3.317 1.729 142.611 267.817"/><path fill="#141414" d="M392.811 293.102l142.583 267.789 3.288-1.758-145.871-266.031"/><path fill="#060606" d="M392.811 293.102L250.2 25.285l-3.288 1.786 145.899 266.031"/><path fill="#131313" d="M392.811 293.102l145.871 266.031 3.26-1.814-149.131-264.217"/><path fill="#070707" d="M392.811 293.102L246.912 27.071l-3.26 1.814 149.159 264.217"/><path fill="#131313" d="M392.811 293.102L541.942 557.32l3.26-1.871-152.391-262.347"/><path fill="#070707" d="M392.811 293.102L243.652 28.885l-3.26 1.871 152.419 262.346"/><path fill="#131313" d="M392.811 293.102l152.391 262.346 3.231-1.899-155.622-260.447"/><path fill="#070707" d="M392.811 293.102L240.392 30.756l-3.203 1.899 155.622 260.447"/><path fill="#131313" d="M392.811 293.102L548.433 553.55l3.175-1.928-158.797-258.52"/><path fill="#070707" d="M392.811 293.102L237.189 32.655l-3.203 1.928 158.825 258.519"/><path fill="#131313" d="M392.811 293.102l158.797 258.52 3.175-1.984-161.972-256.536"/><path fill="#070707" d="M392.811 293.102L233.986 34.583l-3.175 1.984 162 256.535"/><path fill="#131313" d="M392.811 293.102l161.972 256.535 3.146-2.013-165.118-254.522"/><path fill="#070707" d="M392.811 293.102l-162-256.535-3.146 2.013 165.146 254.522"/><path fill="#131313" d="M392.811 293.102l165.118 254.523 3.118-2.041-168.236-252.482"/><path fill="#070707" d="M392.811 293.102L227.665 38.58l-3.118 2.041 168.264 252.481"/><path fill="#131313" d="M392.811 293.102l168.236 252.482 3.118-2.098-171.354-250.384"/><path fill="#070707" d="M392.811 293.102L224.546 40.62l-3.09 2.098 171.355 250.384"/><path fill="#131313" d="M392.811 293.102l171.354 250.384 3.061-2.126-174.415-248.258"/><path fill="#070707" d="M392.811 293.102L221.457 42.718l-3.09 2.126 174.444 248.258"/><path fill="#131313" d="M392.811 293.102L567.227 541.36l3.061-2.183-177.477-246.075"/><path fill="#070707" d="M392.811 293.102L218.367 44.844l-3.033 2.183 177.477 246.075"/><path fill="#121212" d="M392.811 293.102l177.477 246.076 3.005-2.211-180.482-243.865"/><path fill="#080808" d="M392.811 293.102L215.334 47.027l-3.033 2.211 180.51 243.864"/><path fill="#121212" d="M392.811 293.102l180.482 243.865 3.005-2.239-183.487-241.626"/><path fill="#080808" d="M392.811 293.102L212.301 49.238l-2.976 2.239 183.486 241.625"/><path fill="#121212" d="M392.811 293.102l183.487 241.625 2.948-2.268-186.435-239.357"/><path fill="#080808" d="M392.811 293.102L209.324 51.477l-2.976 2.268 186.463 239.357"/><path fill="#121212" d="M392.811 293.102L579.246 532.46l2.948-2.324-189.383-237.034"/><path fill="#080808" d="M392.811 293.102L206.348 53.745l-2.92 2.324 189.383 237.033"/><path fill="#121212" d="M392.811 293.102l189.383 237.033 2.891-2.353-192.274-234.68"/><path fill="#080808" d="M392.811 293.102L203.428 56.069l-2.92 2.353 192.303 234.68"/><path fill="#121212" d="M392.811 293.102l192.274 234.68 2.891-2.381-195.165-232.299"/><path fill="#080808" d="M392.811 293.102L200.509 58.422l-2.863 2.381 195.165 232.299"/><path fill="#121212" d="M392.811 293.102l195.165 232.299 2.835-2.409-198-229.89"/><path fill="#080808" d="M392.811 293.102L197.646 60.803l-2.863 2.409 198.028 229.89"/><path fill="#121212" d="M392.811 293.102l198 229.89 2.806-2.466-200.806-227.424"/><path fill="#080808" d="M392.811 293.102L194.783 63.213l-2.806 2.466 200.834 227.423"/><path fill="#121212" d="M392.811 293.102l200.806 227.424 2.806-2.495-203.612-224.929"/><path fill="#080808" d="M392.811 293.102L191.976 65.679l-2.778 2.494 203.613 224.929"/><path fill="#121212" d="M392.811 293.102l203.613 224.929 2.75-2.523-206.363-222.406"/><path fill="#080808" d="M392.811 293.102L189.198 68.173l-2.778 2.523 206.391 222.406"/><path fill="#111" d="M392.811 293.102l206.362 222.406 2.721-2.551-209.083-219.855"/><path fill="#090909" d="M392.811 293.102L186.42 70.696l-2.721 2.551 209.112 219.855"/><path fill="#111" d="M392.811 293.102l209.083 219.855 2.693-2.608-211.776-217.247"/><path fill="#090909" d="M392.811 293.102L183.699 73.247l-2.693 2.608 211.805 217.247"/><path fill="#111" d="M392.811 293.102L604.587 510.35l2.665-2.608-214.441-214.64"/><path fill="#090909" d="M392.811 293.102L181.006 75.855l-2.665 2.608 214.47 214.639"/><path fill="#111" d="M392.811 293.102l214.441 214.639 2.636-2.665-217.077-211.974"/><path fill="#090909" d="M392.811 293.102L178.342 78.463l-2.608 2.665 217.077 211.974"/><path fill="#111" d="M392.811 293.102l217.077 211.975 2.58-2.693-219.657-209.282"/><path fill="#090909" d="M392.811 293.102L175.734 81.128l-2.608 2.693 219.685 209.281"/><path fill="#111" d="M392.811 293.102l219.657 209.282 2.551-2.721-222.208-206.561"/><path fill="#090909" d="M392.811 293.102L173.126 83.82l-2.551 2.721 222.236 206.561"/><path fill="#111" d="M392.811 293.102l222.208 206.561 2.551-2.75-224.759-203.811"/><path fill="#090909" d="M392.811 293.102L170.575 86.542l-2.523 2.75 224.759 203.81"/><path fill="#111" d="M392.811 293.102L617.57 496.913l2.495-2.806-227.254-201.005"/><path fill="#090909" d="M392.811 293.102L168.052 89.291l-2.494 2.778 227.253 201.033"/><path fill="#111" d="M392.811 293.102l227.254 201.005 2.438-2.806-229.692-198.199"/><path fill="#090909" d="M392.811 293.102L165.557 92.069l-2.466 2.835 229.72 198.198"/><path fill="#111" d="M392.811 293.102L622.502 491.3l2.438-2.835-232.129-195.363"/><path fill="#090909" d="M392.811 293.102L163.091 94.904l-2.438 2.835 232.158 195.363"/><path fill="#101010" d="M392.811 293.102L624.94 488.466l2.381-2.891-234.51-192.473"/><path fill="#0A0A0A" d="M392.811 293.102L160.654 97.739l-2.381 2.863 234.538 192.5"/><path fill="#101010" d="M392.811 293.102l234.51 192.472 2.353-2.891-236.863-189.581"/><path fill="#0A0A0A" d="M392.811 293.102l-234.539-192.5-2.353 2.92 236.892 189.58"/><path fill="#101010" d="M392.811 293.102l236.863 189.581 2.324-2.92-239.187-186.661"/><path fill="#0A0A0A" d="M392.811 293.102L155.92 103.521l-2.324 2.92 239.215 186.661"/><path fill="#101010" d="M392.811 293.102l239.187 186.661 2.268-2.976-241.455-183.685"/><path fill="#0A0A0A" d="M392.811 293.102L153.595 106.441l-2.268 2.976 241.484 183.685"/><path fill="#101010" d="M392.811 293.102l241.455 183.685 2.268-2.976-243.723-180.709"/><path fill="#0A0A0A" d="M392.811 293.102L151.328 109.417l-2.239 2.976 243.722 180.709"/><path fill="#101010" d="M392.811 293.102l243.723 180.709 2.211-3.033-245.934-177.676"/><path fill="#0A0A0A" d="M392.811 293.102L149.088 112.394l-2.211 3.033 245.934 177.675"/><path fill="#101010" d="M392.811 293.102l245.934 177.676 2.154-3.033-248.088-174.643"/><path fill="#0A0A0A" d="M392.811 293.102L146.877 115.427l-2.183 3.033 248.117 174.642"/><path fill="#101010" d="M392.811 293.102l248.088 174.643 2.126-3.061-250.214-171.582"/><path fill="#0A0A0A" d="M392.811 293.102L144.694 118.46l-2.126 3.061 250.243 171.581"/><path fill="#101010" d="M392.811 293.102l250.214 171.581 2.098-3.118-252.312-168.463"/><path fill="#0A0A0A" d="M392.811 293.102L142.568 121.521l-2.098 3.118 252.341 168.463"/><path fill="#0F0F0F" d="M392.811 293.102l252.312 168.463 2.069-3.118-254.381-165.345"/><path fill="#0B0B0B" d="M392.811 293.102l-252.34-168.463-2.041 3.118 254.381 165.345"/><path fill="#0F0F0F" d="M392.811 293.102l254.381 165.345 2.013-3.146-256.394-162.199"/><path fill="#0B0B0B" d="M392.811 293.102L138.43 127.757l-2.041 3.146 256.422 162.199"/><path fill="#0F0F0F" d="M392.811 293.102L649.205 455.3l1.984-3.175-258.378-159.023"/><path fill="#0B0B0B" d="M392.811 293.102L136.389 130.904l-1.956 3.175 258.378 159.023"/><path fill="#0F0F0F" d="M392.811 293.102l258.378 159.024 1.928-3.175-260.306-155.849"/><path fill="#0B0B0B" d="M392.811 293.102L134.433 134.079l-1.956 3.175 260.334 155.848"/><path fill="#0F0F0F" d="M392.811 293.102l260.305 155.849 1.899-3.231-262.204-152.618"/><path fill="#0B0B0B" d="M392.811 293.102L132.477 137.254l-1.899 3.232 262.233 152.616"/><path fill="#0F0F0F" d="M392.811 293.102L655.016 445.72l1.871-3.232-264.076-149.386"/><path fill="#0B0B0B" d="M392.811 293.102L130.578 140.485l-1.871 3.231 264.104 149.386"/><path fill="#0F0F0F" d="M392.811 293.102l264.076 149.386 1.814-3.26-265.89-146.126"/><path fill="#0B0B0B" d="M392.811 293.102L128.707 143.717l-1.814 3.26 265.918 146.125"/><path fill="#0F0F0F" d="M392.811 293.102l265.89 146.126 1.786-3.288-267.676-142.838"/><path fill="#0B0B0B" d="M392.811 293.102L126.893 146.976l-1.786 3.288 267.704 142.838"/><path fill="#0F0F0F" d="M392.811 293.102L660.487 435.94l1.729-3.317-269.405-139.521"/><path fill="#0B0B0B" d="M392.811 293.102L125.107 150.265l-1.729 3.317 269.433 139.52"/><path fill="#0F0F0F" d="M392.811 293.102l269.405 139.521 1.701-3.345-271.106-136.176"/><path fill="#0B0B0B" d="M392.811 293.102L123.378 153.581l-1.701 3.345 271.134 136.176"/><path fill="#0E0E0E" d="M392.811 293.102l271.105 136.176 1.672-3.345-272.777-132.831"/><path fill="#0C0C0C" d="M392.811 293.102L121.677 156.926l-1.644 3.345 272.778 132.831"/><path fill="#0E0E0E" d="M392.811 293.102l272.778 132.832 1.616-3.373-274.394-129.459"/><path fill="#0C0C0C" d="M392.811 293.102L120.033 160.271l-1.616 3.373 274.394 129.458"/><path fill="#0E0E0E" d="M392.811 293.102L667.205 422.56l1.559-3.373-275.953-126.085"/><path fill="#0C0C0C" d="M392.811 293.102L118.417 163.644l-1.587 3.373 275.981 126.085"/><path fill="#0E0E0E" d="M392.811 293.102l275.953 126.085 1.531-3.43-277.484-122.655"/><path fill="#0C0C0C" d="M392.811 293.102L116.83 167.017l-1.531 3.402 277.512 122.683"/><path fill="#0E0E0E" d="M392.811 293.102l277.483 122.655 1.502-3.43-278.985-119.225"/><path fill="#0C0C0C" d="M392.811 293.102L115.299 170.419l-1.474 3.43 278.986 119.253"/><path fill="#0E0E0E" d="M392.811 293.102l278.986 119.225 1.446-3.43-280.432-115.795"/><path fill="#0C0C0C" d="M392.811 293.102L113.825 173.849l-1.474 3.458 280.46 115.795"/><path fill="#0E0E0E" d="M392.811 293.102l280.431 115.795 1.389-3.458-281.82-112.337"/><path fill="#0C0C0C" d="M392.811 293.102l-280.46-115.795-1.389 3.458 281.849 112.337"/><path fill="#0E0E0E" d="M392.811 293.102l281.82 112.337 1.361-3.487-283.181-108.85"/><path fill="#0C0C0C" d="M392.811 293.102L110.962 180.765l-1.361 3.487 283.21 108.85"/><path fill="#0E0E0E" d="M392.811 293.102l283.181 108.85 1.332-3.487-284.513-105.363"/><path fill="#0C0C0C" d="M392.811 293.102l-283.209-108.85-1.332 3.487 284.541 105.363"/><path fill="#0E0E0E" d="M392.811 293.102l284.513 105.364 1.276-3.515-285.789-101.849"/><path fill="#0C0C0C" d="M392.811 293.102L108.269 187.739l-1.276 3.515 285.818 101.848"/><path fill="#0D0D0D" d="M392.811 293.102L678.6 394.951l1.247-3.543-287.036-98.306M392.811 293.102L106.994 191.254l-1.219 3.543 287.036 98.305"/><path fill="#0D0D0D" d="M392.811 293.102l287.036 98.306 1.162-3.543-288.198-94.763M392.811 293.102l-287.036-98.305-1.191 3.543 288.227 94.762M392.811 293.102l288.198 94.762 1.162-3.543-289.36-91.219"/><path fill="#0D0D0D" d="M392.811 293.102L104.584 198.34l-1.162 3.543 289.389 91.219M392.811 293.102l289.361 91.219 1.106-3.572-290.467-87.647"/><path fill="#0D0D0D" d="M392.811 293.102l-289.389-91.219-1.106 3.572 290.495 87.647M392.811 293.102l290.466 87.647 1.049-3.6-291.515-84.047"/><path fill="#0D0D0D" d="M392.811 293.102l-290.495-87.647-1.049 3.6 291.544 84.047M392.811 293.102l291.515 84.047 1.02-3.6-292.535-80.447"/><path fill="#0D0D0D" d="M392.811 293.102l-291.543-84.047-1.02 3.6 292.563 80.447M392.811 293.102l292.535 80.447.964-3.6-293.499-76.847M392.811 293.102l-292.564-80.447-.964 3.6 293.528 76.847"/><path fill="#0D0D0D" d="M392.811 293.102L686.31 369.95l.935-3.628-294.434-73.22M392.811 293.102L99.283 216.255l-.907 3.628 294.435 73.219M392.811 293.102l294.435 73.219.879-3.628-295.314-69.591"/><path fill="#0D0D0D" d="M392.811 293.102L98.376 219.883l-.879 3.628 295.314 69.591M392.811 293.102l295.313 69.591.822-3.657-296.135-65.934"/><path fill="#0D0D0D" d="M392.811 293.102l-295.313-69.59-.85 3.657 296.163 65.933"/><path fill="#0C0C0C" d="M392.811 293.102l296.135 65.934.794-3.657-296.929-62.277"/><path fill="#0E0E0E" d="M392.811 293.102L96.647 227.169l-.794 3.628 296.958 62.305"/><path fill="#0C0C0C" d="M392.811 293.102L689.74 355.38l.737-3.657-297.666-58.621"/><path fill="#0E0E0E" d="M392.811 293.102L95.854 230.797l-.737 3.685 297.694 58.62"/><path fill="#0C0C0C" d="M392.811 293.102l297.666 58.62.709-3.657-298.375-54.963"/><path fill="#0E0E0E" d="M392.811 293.102l-297.695-58.62-.709 3.657 298.404 54.963"/><path fill="#0C0C0C" d="M392.811 293.102l298.375 54.964.652-3.685-299.027-51.279"/><path fill="#0E0E0E" d="M392.811 293.102L94.408 238.139l-.652 3.685 299.055 51.278"/><path fill="#0C0C0C" d="M392.811 293.102l299.027 51.279.624-3.685-299.651-47.594"/><path fill="#0E0E0E" d="M392.811 293.102L93.756 241.824l-.595 3.685 299.65 47.593"/><path fill="#0C0C0C" d="M392.811 293.102l299.65 47.594.539-3.713-300.189-43.881"/><path fill="#0E0E0E" d="M392.811 293.102l-299.65-47.594-.567 3.685 300.217 43.909"/><path fill="#0C0C0C" d="M392.811 293.102L693 336.983l.539-3.685-300.728-40.196"/><path fill="#0E0E0E" d="M392.811 293.102L92.594 249.194l-.51 3.713 300.727 40.195"/><path fill="#0C0C0C" d="M392.811 293.102l300.728 40.195.454-3.713-301.182-36.482"/><path fill="#0E0E0E" d="M392.811 293.102L92.083 252.907l-.482 3.713 301.21 36.482"/><path fill="#0C0C0C" d="M392.811 293.102l301.181 36.482.425-3.713-301.606-32.769"/><path fill="#0E0E0E" d="M392.811 293.102L91.602 256.62l-.425 3.713 301.634 32.769"/><path fill="#0C0C0C" d="M392.811 293.102l301.606 32.769.397-3.713-302.003-29.056"/><path fill="#0E0E0E" d="M392.811 293.102L91.176 260.334l-.397 3.713 302.032 29.055"/><path fill="#0B0B0B" d="M392.811 293.102l302.003 29.055.34-3.713-302.343-25.342"/><path fill="#0F0F0F" d="M392.811 293.102L90.78 264.047l-.312 3.713 302.343 25.342"/><path fill="#0B0B0B" d="M392.811 293.102l302.343 25.342.284-3.742-302.627-21.6"/><path fill="#0F0F0F" d="M392.811 293.102L90.468 267.761l-.312 3.742 302.655 21.599"/><path fill="#0B0B0B" d="M392.811 293.102l302.627 21.6.227-3.742-302.854-17.858"/><path fill="#0F0F0F" d="M392.811 293.102l-302.655-21.6-.227 3.713 302.882 17.887"/><path fill="#0B0B0B" d="M392.811 293.102l302.854 17.858.198-3.713-303.052-14.145"/><path fill="#0F0F0F" d="M392.811 293.102L89.929 275.216l-.198 3.742 303.08 14.144"/><path fill="#0B0B0B" d="M392.811 293.102l303.052 14.145.17-3.742-303.222-10.403"/><path fill="#0F0F0F" d="M392.811 293.102l-303.08-14.145-.142 3.742 303.222 10.403"/><path fill="#0B0B0B" d="M392.811 293.102l303.222 10.403.085-3.742-303.307-6.661"/><path fill="#0F0F0F" d="M392.811 293.102L89.589 282.699l-.113 3.742 303.335 6.661"/><path fill="#0B0B0B" d="M392.811 293.102l303.307 6.661.085-3.742-303.392-2.919"/><path fill="#0F0F0F" d="M392.811 293.102l-303.335-6.661-.057 3.742 303.392 2.919"/><path fill="#0B0B0B" d="M392.811 293.102l303.392 2.92v-3.713l-303.392.793"/><path fill="#0F0F0F" d="M392.811 293.102l-303.392-2.92-.028 3.713 303.42-.793"/><path fill="#0B0B0B" d="M392.811 293.102l303.392-.794-.028-3.742-303.364 4.536"/><path fill="#0F0F0F" d="M392.811 293.102l-303.42.794.028 3.742 303.392-4.536"/><path fill="#0B0B0B" d="M392.811 293.102l303.364-4.535-.085-3.742-303.279 8.277"/><path fill="#0F0F0F" d="M392.811 293.102l-303.392 4.535.085 3.742 303.307-8.277"/><path fill="#0A0A0A" d="M392.811 293.102l303.279-8.277-.113-3.742-303.166 12.019"/><path fill="#101010" d="M392.811 293.102L89.504 301.38l.142 3.742 303.165-12.02"/><path fill="#0A0A0A" d="M392.811 293.102l303.165-12.019-.17-3.742-302.995 15.761"/><path fill="#101010" d="M392.811 293.102L89.646 305.121l.17 3.742 302.995-15.761"/><path fill="#0A0A0A" d="M392.811 293.102l302.995-15.761-.227-3.713-302.768 19.474"/><path fill="#101010" d="M392.811 293.102L89.816 308.863l.198 3.713 302.797-19.474"/><path fill="#0A0A0A" d="M392.811 293.102l302.768-19.474-.255-3.742-302.513 23.216"/><path fill="#101010" d="M392.811 293.102L90.014 312.576l.283 3.742 302.514-23.216"/><path fill="#0A0A0A" d="M392.811 293.102l302.513-23.216-.312-3.713-302.201 26.929"/><path fill="#101010" d="M392.811 293.102L90.298 316.318l.312 3.713 302.201-26.929"/><path fill="#0A0A0A" d="M392.811 293.102l302.202-26.929-.368-3.742-301.834 30.671"/><path fill="#101010" d="M392.811 293.102L90.609 320.031l.34 3.713 301.862-30.642"/><path fill="#0A0A0A" d="M392.811 293.102l301.833-30.671-.397-3.713-301.436 34.384"/><path fill="#101010" d="M392.811 293.102L90.95 323.745l.397 3.742 301.464-34.385"/><path fill="#0A0A0A" d="M392.811 293.102l301.436-34.384-.454-3.713-300.982 38.097"/><path fill="#101010" d="M392.811 293.102L91.346 327.487l.454 3.685 301.011-38.07"/><path fill="#0A0A0A" d="M392.811 293.102l300.983-38.098-.482-3.685-300.501 41.783"/><path fill="#101010" d="M392.811 293.102L91.8 331.172l.482 3.713 300.529-41.783"/><path fill="#090909" d="M392.811 293.102l300.501-41.783-.539-3.713-299.962 45.496"/><path fill="#111" d="M392.811 293.102L92.282 334.885l.539 3.713 299.99-45.496"/><path fill="#090909" d="M392.811 293.102l299.962-45.496-.595-3.685-299.367 49.181"/><path fill="#111" d="M392.811 293.102L92.82 338.598l.595 3.685 299.396-49.181"/><path fill="#090909" d="M392.811 293.102l299.367-49.181-.624-3.685-298.743 52.866"/><path fill="#111" d="M392.811 293.102L93.416 342.283l.624 3.685 298.771-52.866"/><path fill="#090909" d="M392.811 293.102l298.743-52.866-.68-3.685-298.063 56.551"/><path fill="#111" d="M392.811 293.102L94.039 345.969l.68 3.685 298.092-56.552"/><path fill="#090909" d="M392.811 293.102l298.063-56.551-.709-3.657-297.354 60.208"/><path fill="#111" d="M392.811 293.102L94.72 349.654l.709 3.657 297.382-60.209"/><path fill="#090909" d="M392.811 293.102l297.354-60.208-.765-3.657-296.589 63.865"/><path fill="#111" d="M392.811 293.102L95.428 353.31l.765 3.657 296.618-63.865"/><path fill="#090909" d="M392.811 293.102L689.4 229.238l-.794-3.657-295.795 67.521"/><path fill="#111" d="M392.811 293.102L96.194 356.967l.822 3.657 295.795-67.522"/><path fill="#090909" d="M392.811 293.102l295.795-67.521-.879-3.628-294.916 71.149"/><path fill="#111" d="M392.811 293.102L97.016 360.624l.85 3.628 294.945-71.15"/><path fill="#090909" d="M392.811 293.102l294.917-71.15-.879-3.628-294.038 74.778"/><path fill="#111" d="M392.811 293.102l-294.945 71.15.907 3.628 294.038-74.778"/><path fill="#090909" d="M392.811 293.102l294.038-74.778-.964-3.628-293.074 78.406"/><path fill="#111" d="M392.811 293.102L98.773 367.88l.935 3.628 293.103-78.406"/><path fill="#080808" d="M392.811 293.102l293.074-78.406-.964-3.6-292.11 82.006"/><path fill="#121212" d="M392.811 293.102L99.709 371.509l.992 3.6 292.11-82.007"/><path fill="#080808" d="M392.811 293.102l292.11-82.006-1.049-3.6-291.061 85.606"/><path fill="#121212" d="M392.811 293.102l-292.11 82.006 1.02 3.6 291.09-85.606"/><path fill="#080808" d="M392.811 293.102l291.061-85.606-1.077-3.572-289.984 89.178"/><path fill="#121212" d="M392.811 293.102l-291.09 85.606 1.077 3.572 290.013-89.178"/><path fill="#080808" d="M392.811 293.102l289.984-89.178-1.106-3.572-288.878 92.75"/><path fill="#121212" d="M392.811 293.102L102.798 382.28l1.134 3.572 288.879-92.75"/><path fill="#080808" d="M392.811 293.102l288.879-92.75-1.162-3.543-287.717 96.293"/><path fill="#121212" d="M392.811 293.102l-288.879 92.75 1.162 3.543 287.717-96.293"/><path fill="#080808" d="M392.811 293.102l287.716-96.293-1.219-3.543-286.497 99.836"/><path fill="#121212" d="M392.811 293.102l-287.717 96.293 1.191 3.543 286.526-99.836"/><path fill="#080808" d="M392.811 293.102l286.498-99.836-1.247-3.515-285.251 103.351"/><path fill="#121212" d="M392.811 293.102l-286.526 99.836 1.247 3.515 285.279-103.351"/><path fill="#080808" d="M392.811 293.102l285.25-103.351-1.304-3.515-283.946 106.866"/><path fill="#121212" d="M392.811 293.102L107.532 396.454l1.304 3.515 283.975-106.867"/><path fill="#080808" d="M392.811 293.102l283.946-106.866-1.332-3.487-282.614 110.353"/><path fill="#121212" d="M392.811 293.102L108.836 399.969l1.332 3.487 282.643-110.354"/><path fill="#080808" d="M392.811 293.102L675.425 182.75l-1.389-3.487-281.225 113.839"/><path fill="#121212" d="M392.811 293.102L110.169 403.455l1.389 3.458 281.253-113.811"/><path fill="#070707" d="M392.811 293.102l281.225-113.839-1.417-3.458-279.808 117.297"/><path fill="#131313" d="M392.811 293.102L111.557 406.913l1.417 3.458 279.837-117.269"/><path fill="#070707" d="M392.811 293.102l279.808-117.298-1.474-3.43-278.334 120.728"/><path fill="#131313" d="M392.811 293.102l-279.836 117.27 1.474 3.458 278.362-120.728"/><path fill="#070707" d="M392.811 293.102l278.334-120.728-1.502-3.402-276.832 124.13"/><path fill="#131313" d="M392.811 293.102L114.449 413.83l1.502 3.402 276.86-124.13"/><path fill="#070707" d="M392.811 293.102l276.831-124.129-1.559-3.402-275.272 127.531"/><path fill="#131313" d="M392.811 293.102l-276.86 124.129 1.559 3.402 275.301-127.531"/><path fill="#070707" d="M392.811 293.102l275.272-127.531-1.587-3.402-273.685 130.933"/><path fill="#131313" d="M392.811 293.102L117.51 420.633l1.587 3.402 273.714-130.933"/><path fill="#070707" d="M392.811 293.102L666.496 162.17l-1.616-3.345-272.069 134.277"/><path fill="#131313" d="M392.811 293.102L119.098 424.035l1.644 3.345 272.069-134.278"/><path fill="#070707" d="M392.811 293.102L664.88 158.825l-1.701-3.345-270.368 137.622"/><path fill="#131313" d="M392.811 293.102L120.742 427.38l1.672 3.345 270.397-137.623"/><path fill="#070707" d="M392.811 293.102L663.18 155.48l-1.701-3.317-268.668 140.939"/><path fill="#131313" d="M392.811 293.102L122.414 430.724l1.701 3.317 268.696-140.939"/><path fill="#070707" d="M392.811 293.102l268.668-140.939-1.758-3.317-266.91 144.256"/><path fill="#131313" d="M392.811 293.102L124.115 434.041l1.757 3.317 266.939-144.256"/><path fill="#070707" d="M392.811 293.102l266.91-144.255-1.786-3.26-265.124 147.515"/><path fill="#131313" d="M392.811 293.102L125.872 437.357l1.814 3.26 265.125-147.515"/><path fill="#060606" d="M392.811 293.102l265.124-147.515-1.843-3.26-263.281 150.775"/><path fill="#141414" d="M392.811 293.102L127.687 440.617l1.843 3.26 263.281-150.775"/><path fill="#060606" d="M392.811 293.102l263.282-150.775-1.899-3.231-261.383 154.006"/><path fill="#141414" d="M392.811 293.102L129.529 443.877l1.871 3.232 261.411-154.007"/><path fill="#060606" d="M392.811 293.102l261.383-154.006-1.899-3.203-259.484 157.209"/><path fill="#141414" d="M392.811 293.102L131.4 447.109l1.899 3.203 259.512-157.21"/><path fill="#060606" d="M392.811 293.102l259.483-157.209-1.956-3.203-257.527 160.412"/><path fill="#141414" d="M392.811 293.102l-259.512 157.21 1.956 3.203 257.556-160.413"/><path fill="#060606" d="M392.811 293.102L650.339 132.69l-2.013-3.146-255.515 163.558"/><path fill="#141414" d="M392.811 293.102L135.255 453.515l2.013 3.146 255.543-163.559"/><path fill="#060606" d="M392.811 293.102l255.515-163.559-2.013-3.146-253.502 166.705"/><path fill="#141414" d="M392.811 293.102L137.268 456.661l2.041 3.146 253.502-166.705"/><path fill="#060606" d="M392.811 293.102l253.502-166.706-2.069-3.118-251.433 169.824"/><path fill="#141414" d="M392.811 293.102L139.309 459.808l2.069 3.118 251.433-169.824"/><path fill="#060606" d="M392.811 293.102l251.433-169.824-2.126-3.061-249.307 172.885"/><path fill="#141414" d="M392.811 293.102L141.378 462.926l2.098 3.061 249.335-172.885"/><path fill="#060606" d="M392.811 293.102l249.307-172.885-2.154-3.061-247.153 175.946"/><path fill="#141414" d="M392.811 293.102L143.476 465.987l2.154 3.061 247.181-175.946"/><path fill="#060606" d="M392.811 293.102l247.153-175.946-2.183-3.033-244.97 178.979"/><path fill="#141414" d="M392.811 293.102L145.63 469.049l2.183 3.033 244.998-178.98"/><path fill="#050505" d="M392.811 293.102l244.97-178.98-2.211-3.005-242.759 181.985"/><path fill="#151515" d="M392.811 293.102l-244.998 178.98 2.239 3.005 242.759-181.985"/><path fill="#050505" d="M392.811 293.102L635.57 111.118l-2.268-2.976-240.491 184.96"/><path fill="#151515" d="M392.811 293.102L150.052 475.087l2.239 2.976 240.52-184.961"/><path fill="#050505" d="M392.811 293.102l240.491-184.961-2.296-2.948-238.195 187.909"/><path fill="#151515" d="M392.811 293.102l-240.52 184.961 2.296 2.948 238.224-187.909"/><path fill="#050505" d="M392.811 293.102l238.195-187.909-2.324-2.92-235.871 190.829"/><path fill="#151515" d="M392.811 293.102L154.587 481.011l2.353 2.92 235.871-190.829"/><path fill="#050505" d="M392.811 293.102l235.871-190.828-2.381-2.891-233.49 193.719"/><path fill="#151515" d="M392.811 293.102L156.94 483.931l2.353 2.891 233.518-193.72"/><path fill="#050505" d="M392.811 293.102l233.49-193.72-2.409-2.863-231.081 196.583"/><path fill="#151515" d="M392.811 293.102l-233.518 193.72 2.409 2.863 231.109-196.583"/><path fill="#050505" d="M392.811 293.102L623.891 96.52l-2.438-2.835-228.642 199.417"/><path fill="#151515" d="M392.811 293.102L161.702 489.685l2.438 2.835 228.671-199.418"/><path fill="#050505" d="M392.811 293.102L621.454 93.685l-2.466-2.806-226.177 202.223"/><path fill="#151515" d="M392.811 293.102L164.14 492.52l2.466 2.806 226.205-202.224"/><path fill="#050505" d="M392.811 293.102L618.987 90.879l-2.523-2.778-223.653 205.001"/><path fill="#151515" d="M392.811 293.102L166.606 495.326l2.523 2.778 223.682-205.002"/><path fill="#040404" d="M392.811 293.102L616.465 88.101l-2.523-2.75-221.131 207.751"/><path fill="#161616" d="M392.811 293.102L169.129 498.104l2.551 2.721 221.131-207.723"/><path fill="#040404" d="M392.811 293.102L613.942 85.351l-2.58-2.693-218.551 210.444"/><path fill="#161616" d="M392.811 293.102L171.68 500.825l2.551 2.721 218.58-210.444"/><path fill="#040404" d="M392.811 293.102L611.362 82.658l-2.608-2.665-215.943 213.109"/><path fill="#161616" d="M392.811 293.102l-218.58 210.444 2.636 2.665 215.944-213.109"/><path fill="#040404" d="M392.811 293.102L608.754 79.994l-2.636-2.665-213.307 215.773"/><path fill="#161616" d="M392.811 293.102L176.868 506.211l2.636 2.665 213.307-215.774"/><path fill="#040404" d="M392.811 293.102L606.118 77.329l-2.693-2.608-210.614 218.381"/><path fill="#161616" d="M392.811 293.102L179.504 508.876l2.665 2.608 210.642-218.382"/><path fill="#040404" d="M392.811 293.102L603.425 74.721l-2.693-2.58-207.921 220.961"/><path fill="#161616" d="M392.811 293.102L182.169 511.483l2.721 2.58 207.921-220.961"/><path fill="#040404" d="M392.811 293.102l207.921-220.96-2.75-2.551-205.171 223.511"/><path fill="#161616" d="M392.811 293.102L184.89 514.063l2.721 2.551 205.2-223.512"/><path fill="#040404" d="M392.811 293.102L597.983 69.591l-2.778-2.494-202.394 226.005"/><path fill="#161616" d="M392.811 293.102l-205.2 223.512 2.778 2.494 202.422-226.006"/><path fill="#040404" d="M392.811 293.102L595.205 67.096l-2.778-2.494-199.616 228.5"/><path fill="#161616" d="M392.811 293.102L190.389 519.109l2.806 2.466 199.616-228.473"/><path fill="#040404" d="M392.811 293.102l199.616-228.5-2.835-2.438-196.781 230.938"/><path fill="#161616" d="M392.811 293.102L193.195 521.575l2.806 2.466 196.81-230.939"/><path fill="#030303" d="M392.811 293.102L589.592 62.164l-2.863-2.409-193.918 233.347"/><path fill="#171717" d="M392.811 293.102L196.002 524.041l2.863 2.409 193.946-233.348"/><path fill="#030303" d="M392.811 293.102L586.729 59.754l-2.891-2.353-191.027 235.701"/><path fill="#171717" d="M392.811 293.102L198.865 526.45l2.891 2.353 191.055-235.701"/><path fill="#030303" d="M392.811 293.102l191.027-235.7-2.92-2.353-188.107 238.053"/><path fill="#171717" d="M392.811 293.102L201.756 528.803l2.92 2.353 188.135-238.054"/><path fill="#030303" d="M392.811 293.102L580.918 55.049l-2.948-2.296-185.159 240.349"/><path fill="#171717" d="M392.811 293.102L204.676 531.156l2.948 2.296 185.187-240.35"/><path fill="#030303" d="M392.811 293.102L577.97 52.753l-2.976-2.268-182.183 242.617"/><path fill="#171717" d="M392.811 293.102l-185.187 240.35 2.976 2.268 182.211-242.618"/><path fill="#030303" d="M392.811 293.102L574.994 50.485l-3.005-2.211-179.178 244.828"/><path fill="#171717" d="M392.811 293.102L210.6 535.72l3.005 2.211 179.206-244.829"/><path fill="#030303" d="M392.811 293.102L571.989 48.274l-3.033-2.183-176.145 247.011"/><path fill="#171717" d="M392.811 293.102L213.605 537.931l3.033 2.183 176.173-247.012"/><path fill="#030303" d="M392.811 293.102L568.956 46.091l-3.033-2.154-173.112 249.165"/><path fill="#171717" d="M392.811 293.102L216.638 540.113l3.061 2.154 173.112-249.165"/><path fill="#030303" d="M392.811 293.102L565.923 43.937l-3.09-2.126-170.022 251.291"/><path fill="#171717" d="M392.811 293.102L219.699 542.268l3.09 2.126 170.022-251.292"/><path fill="#030303" d="M392.811 293.102L562.833 41.811l-3.118-2.069-166.904 253.36"/><path fill="#171717" d="M392.811 293.102L222.789 544.394l3.09 2.069 166.932-253.361"/><path fill="#020202" d="M392.811 293.102l166.904-253.36-3.118-2.041-163.786 255.401"/><path fill="#181818" d="M392.811 293.102L225.879 546.463l3.146 2.041 163.786-255.402"/><path fill="#020202" d="M392.811 293.102L556.597 37.701l-3.175-1.984-160.611 257.385"/><path fill="#181818" d="M392.811 293.102L229.025 548.504l3.146 1.984 160.64-257.386"/><path fill="#020202" d="M392.811 293.102L553.422 35.717l-3.175-1.984-157.436 259.369"/><path fill="#181818" d="M392.811 293.102L232.172 550.488l3.175 1.956 157.464-259.342"/><path fill="#020202" d="M392.811 293.102l157.436-259.37-3.203-1.899-154.233 261.269"/><path fill="#181818" d="M392.811 293.102L235.346 552.444l3.232 1.928 154.233-261.27"/><path fill="#020202" d="M392.811 293.102L547.044 31.833l-3.231-1.899-151.002 263.168"/><path fill="#181818" d="M392.811 293.102l-154.233 261.27 3.231 1.899 151.002-263.169"/><path fill="#020202" d="M392.811 293.102L543.813 29.934l-3.26-1.843-147.742 265.011"/><path fill="#181818" d="M392.811 293.102L241.809 556.271l3.231 1.814 147.771-264.983"/><path fill="#020202" d="M392.811 293.102L540.553 28.091l-3.288-1.786-144.454 266.797"/><path fill="#181818" d="M392.811 293.102l-147.77 264.983 3.288 1.814 144.482-266.797"/><path fill="#020202" d="M392.811 293.102L537.265 26.306l-3.288-1.757-141.166 268.553"/><path fill="#181818" d="M392.811 293.102L248.329 559.899l3.288 1.757 141.194-268.554"/><path fill="#020202" d="M392.811 293.102L533.976 24.548l-3.317-1.729-137.848 270.283"/><path fill="#181818" d="M392.811 293.102L251.617 561.657l3.317 1.729 137.877-270.284"/><path fill="#020202" d="M392.811 293.102L530.66 22.819l-3.345-1.672-134.504 271.955"/><path fill="#181818" d="M392.811 293.102L254.934 563.386l3.345 1.672 134.532-271.956"/><path fill="#010101" d="M392.811 293.102L527.315 21.146l-3.345-1.644-131.159 273.6"/><path fill="#191919" d="M392.811 293.102L258.279 565.058l3.373 1.644 131.159-273.6"/><path fill="#010101" d="M392.811 293.102l131.159-273.6-3.402-1.587-127.757 275.187"/><path fill="#191919" d="M392.811 293.102l-131.159 273.6 3.373 1.587 127.786-275.187"/><path fill="#010101" d="M392.811 293.102L520.568 17.915l-3.402-1.559-124.355 276.746"/><path fill="#191919" d="M392.811 293.102L265.025 568.29l3.402 1.559 124.384-276.747"/><path fill="#010101" d="M392.811 293.102L517.167 16.356l-3.402-1.502-120.954 278.248"/><path fill="#191919" d="M392.811 293.102L268.427 569.849l3.43 1.502 120.954-278.249"/><path fill="#010101" d="M392.811 293.102L513.765 14.854l-3.458-1.474-117.496 279.722"/><path fill="#191919" d="M392.811 293.102L271.857 571.351l3.43 1.474 117.524-279.723"/><path fill="#010101" d="M392.811 293.102L510.307 13.38l-3.43-1.417-114.066 281.139"/><path fill="#191919" d="M392.811 293.102L275.287 572.825l3.458 1.417 114.066-281.14"/><path fill="#010101" d="M392.811 293.102l114.066-281.14-3.487-1.389-110.579 282.529"/><path fill="#191919" d="M392.811 293.102l-114.066 281.14 3.458 1.389 110.608-282.529"/><path fill="#010101" d="M392.811 293.102l110.58-282.529-3.487-1.332-107.093 283.861"/><path fill="#191919" d="M392.811 293.102L282.203 575.631l3.487 1.332 107.121-283.861"/><path fill="#010101" d="M392.811 293.102L499.904 9.241l-3.515-1.304-103.578 285.165"/><path fill="#191919" d="M392.811 293.102L285.69 576.964l3.515 1.304 103.606-285.166"/><path fill="#010101" d="M392.811 293.102L496.389 7.937l-3.515-1.247-100.063 286.412"/><path fill="#191919" d="M392.811 293.102L289.205 578.268l3.515 1.247 100.091-286.413"/><path d="M392.811 293.102L492.874 6.69l-3.543-1.219-96.52 287.631"/><path fill="#1A1A1A" d="M392.811 293.102L292.72 579.515l3.543 1.219 96.548-287.632"/><path d="M392.811 293.102L489.331 5.47l-3.543-1.162-92.977 288.794"/><path fill="#1A1A1A" d="M392.811 293.102l-96.548 287.632 3.543 1.162 93.005-288.794"/><path d="M392.811 293.102L485.787 4.309l-3.572-1.134-89.404 289.927"/><path fill="#1A1A1A" d="M392.811 293.102l-93.005 288.794 3.572 1.134 89.433-289.928"/><path d="M392.811 293.102L482.216 3.175l-3.572-1.077-85.833 291.004"/><path fill="#1A1A1A" d="M392.811 293.102L303.378 583.03l3.572 1.077 85.861-291.005"/></mask><path mask="url(#b)" fill="#369" d="M132.25 137.679h521.093v310.847H132.25z"/><path fill="#FFF" d="M654.945 136.091v314.022H130.677l2.665-1.587h520.015V137.679h-1.077z"/><path fill="#B2B2B2" d="M53.631 465.08h684.737c0 15.194-12.444 27.666-27.666 27.666H81.298c-15.222 0-27.667-12.472-27.667-27.666z"/><path fill="#CCC" d="M54 465.449c.198 14.825 12.416 26.929 27.298 26.929h629.405c14.882 0 27.099-12.104 27.298-26.929H54z"/><linearGradient id="c" gradientUnits="userSpaceOnUse" x1="396" y1="492.747" x2="396" y2="475.2"><stop offset="0" stop-color="#666"/><stop offset="1" stop-color="#666" stop-opacity=".25"/></linearGradient><path opacity=".74" fill="url(#c)" d="M736.441 475.2c-4.054 10.233-14.088 17.546-25.739 17.546H81.298c-11.65 0-21.685-7.313-25.739-17.546h680.882z"/><g><path fill="#F5F5F5" d="M130.691 136.106h524.268v314.022H130.691V136.106zm1.588 1.587h521.093V448.54H132.279V137.693z"/><path fill="#4CAF50" d="M130.677 136.091h524.268V186H130.677z"/><path fill="#E0E0E0" d="M244.333 201.333h389.278v248.78H244.333z"/><path opacity=".2" d="M145 149.712h158v22.667H145z"/><path fill="#FFF" d="M247.667 204.667h381.945v245.447H247.667z"/><path opacity=".2" d="M258 216.667h158v22.667H258zM258 248h356.667v14H258z"/><path fill="#F5F5F5" d="M614.667 426.667H258V269.333h356.667z"/><path fill="none" stroke="#F44336" stroke-width="3" stroke-miterlimit="10" d="M258 410l89.667-82.295 45.158 37.424 40.842-61.699L499 352.666l38.667-57.496L597 269.333"/><path fill="#A5D6A7" d="M137.344 201.333h99.601v25.53h-99.601zM137.344 239.333h99.601v25.53h-99.601zM137.344 274.235h99.601v25.53h-99.601zM137.344 312.235h99.601v25.53h-99.601z"/><path opacity=".4" fill="#FFF" d="M405.992 131.833h-26.333a5.833 5.833 0 1 1 0-11.666h26.333a5.833 5.833 0 0 1 5.833 5.833 5.832 5.832 0 0 1-5.833 5.833z"/><circle cx="405.667" cy="126" r="4.833"/></g><g><path opacity=".15" fill="#FFF" d="M409 109.02h253.372c10.833 0 19.616 8.782 19.616 19.616V348"/></g></svg>