<svg xmlns="http://www.w3.org/2000/svg" width="663.6" height="380" viewBox="0 0 663.6 380"><path fill="#221A16" d="M67.2 0h523.1c10.5 0 19 8.7 19 19.4v325.7c0 10.7-8.5 19.4-19 19.4H67.2c-10.5 0-19-8.7-19-19.4V19.4C48.2 8.7 56.7 0 67.2 0z"/><path opacity=".4" fill="#FFF" enable-background="new" d="M69.5 5h518.7c9.1 0 16.4 7.5 16.4 16.7v321.2c0 9.2-7.3 16.7-16.4 16.7H69.5c-9.1 0-16.4-7.5-16.4-16.7V21.7C53.1 12.5 60.4 5 69.5 5z"/><path fill="#221A16" d="M69.3 6.2h519c8.3 0 15 6.9 15 15.3v321.6c0 8.5-6.7 15.3-15 15.3h-519c-8.3 0-15-6.9-15-15.3V21.5C54.2 13 61 6.2 69.3 6.2z"/><defs><filter id="a" filterUnits="userSpaceOnUse" x="76" y="28.4" width="505.5" height="307.8"><feColorMatrix values="1 0 0 0 0 0 1 0 0 0 0 0 1 0 0 0 0 0 1 0"/></filter></defs><mask maskUnits="userSpaceOnUse" x="76" y="28.4" width="505.5" height="307.8" id="b"><path fill="#1B1B1B" filter="url(#a)" d="M328.8 182.3l-83.3 288.2 3.5 1 79.8-289.2"/><path fill="#010202" d="M328.8 182.3L412-105.9l-3.5-1-79.7 289.2"/><path fill="#1B1B1B" d="M328.8 182.3L249 471.4l3.5 1 76.3-290.1"/><path fill="#010202" d="M328.8 182.3l79.8-289.2-3.5-1-76.3 290.2"/><path fill="#1B1B1B" d="M328.8 182.3l-76.3 290.1 3.5 1 72.8-291.1"/><path fill="#010202" d="M328.8 182.3l76.3-290.2-3.5-.9-72.8 291.1"/><path fill="#1B1B1B" d="M328.8 182.3L256 473.4l3.5.9 69.3-292"/><path fill="#010202" d="M328.8 182.3l72.8-291.1-3.5-.9-69.3 292"/><path fill="#1B1B1B" d="M328.8 182.3l-69.3 292 3.5.8 65.8-292.8"/><path fill="#010202" d="M328.8 182.3l69.3-292-3.5-.8-65.8 292.8"/><path fill="#1A1A1A" d="M328.8 182.3L263 475.1l3.5.8 62.3-293.6"/><path fill="#020303" d="M328.8 182.3l65.7-292.8-3.5-.8-62.2 293.6"/><path fill="#1A1A1A" d="M328.8 182.3L266.6 476l3.5.8 58.7-294.5"/><path fill="#020303" d="M328.8 182.3L391-111.4l-3.5-.8-58.7 294.5"/><path fill="#1A1A1A" d="M328.8 182.3l-58.7 294.4 3.5.7 55.2-295.1"/><path fill="#020303" d="M328.8 182.3l58.7-294.4-3.6-.7-55.1 295.1"/><path fill="#1A1A1A" d="M328.8 182.3l-55.1 295.1 3.6.7 51.5-295.8"/><path fill="#020303" d="M328.8 182.3l55.1-295.1-3.5-.7-51.6 295.8"/><path fill="#1A1A1A" d="M328.8 182.3l-51.5 295.8 3.6.6 47.9-296.4"/><path fill="#020303" d="M328.8 182.3l51.5-295.8-3.6-.6-47.9 296.4"/><path fill="#1A1A1A" d="M328.8 182.3l-48 296.4 3.6.6 44.4-297"/><path fill="#020303" d="M328.8 182.3l48-296.4-3.6-.6-44.4 297"/><path fill="#1A1A1A" d="M328.8 182.3l-44.4 297 3.6.5 40.8-297.5"/><path fill="#020303" d="M328.8 182.3l44.4-297-3.6-.5-40.8 297.5"/><path fill="#1A1A1A" d="M328.8 182.3L288 479.8l3.6.5 37.2-298"/><path fill="#020303" d="M328.8 182.3l40.8-297.5-3.6-.5-37.2 298"/><path fill="#1A1A1A" d="M328.8 182.3l-37.2 298 3.6.4 33.6-298.4"/><path fill="#020303" d="M328.8 182.3l37.2-298-3.6-.4-33.6 298.4"/><path fill="#1A1A1A" d="M328.8 182.3l-33.6 298.5 3.6.4 30-298.9"/><path fill="#020303" d="M328.8 182.3l33.6-298.5-3.6-.4-30 298.9"/><path fill="#181819" d="M328.8 182.3l-30 298.9 3.6.3 26.4-299.2"/><path fill="#020304" d="M328.8 182.3l30-298.9-3.6-.3-26.4 299.2"/><path fill="#181819" d="M328.8 182.3l-26.4 299.2 3.6.3 22.8-299.5"/><path fill="#020304" d="M328.8 182.3l26.4-299.2-3.6-.3-22.8 299.5"/><path fill="#181819" d="M328.8 182.3L306 481.8l3.6.3 19.2-299.8"/><path fill="#020304" d="M328.8 182.3l22.7-299.5-3.6-.3-19.1 299.8"/><path fill="#181819" d="M328.8 182.3l-19.2 299.8 3.6.2 15.6-300"/><path fill="#020304" d="M328.8 182.3l19.1-299.8-3.6-.2-15.5 300"/><path fill="#181819" d="M328.8 182.3l-15.5 300 3.6.2 11.9-300.2"/><path fill="#020304" d="M328.8 182.3l15.5-300-3.6-.2-11.9 300.2"/><path fill="#181819" d="M328.8 182.3l-11.9 300.2 3.6.1 8.3-300.3"/><path fill="#020304" d="M328.8 182.3l11.9-300.2-3.7-.1-8.2 300.3"/><path fill="#181819" d="M328.8 182.3l-8.3 300.3 3.6.1 4.7-300.4"/><path fill="#020304" d="M328.8 182.3L337-118l-3.6-.1-4.6 300.4"/><path fill="#181819" d="M328.8 182.3l-4.7 300.4h3.6l1.1-300.4"/><path fill="#020304" d="M328.8 182.3l4.6-300.4h-3.6l-1 300.4"/><path fill="#181819" d="M328.8 182.3l-1 300.4h3.6l-2.6-300.4"/><path fill="#020304" d="M328.8 182.3l1-300.4h-3.6l2.6 300.4"/><path fill="#181819" d="M328.8 182.3l2.6 300.4 3.6-.1-6.2-300.3"/><path fill="#020304" d="M328.8 182.3l-2.6-300.4-3.6.1 6.2 300.3"/><path fill="#171717" d="M328.8 182.3l6.2 300.4 3.6-.1-9.8-300.3"/><path fill="#030405" d="M328.8 182.3l-6.2-300.4-3.6.1 9.8 300.3"/><path fill="#171717" d="M328.8 182.3l9.8 300.2 3.6-.1-13.4-300.1"/><path fill="#030405" d="M328.8 182.3L318.9-118l-3.6.1 13.5 300.2"/><path fill="#171717" d="M328.8 182.3l13.4 300.1 3.6-.2-17-299.9"/><path fill="#030405" d="M328.8 182.3l-13.5-300.1-3.6.2 17.1 299.9"/><path fill="#171717" d="M328.8 182.3l17.1 299.9 3.6-.2-20.7-299.7"/><path fill="#030405" d="M328.8 182.3l-17.1-299.9-3.6.2 20.7 299.7"/><path fill="#171717" d="M328.8 182.3L349.5 482l3.6-.3-24.3-299.4"/><path fill="#030405" d="M328.8 182.3l-20.7-299.7-3.6.3 24.3 299.4"/><path fill="#171717" d="M328.8 182.3l24.3 299.4 3.6-.3-27.9-299.1"/><path fill="#030405" d="M328.8 182.3l-24.3-299.4-3.6.3 27.9 299.1"/><path fill="#171717" d="M328.8 182.3l27.9 299.1 3.6-.4-31.5-298.7"/><path fill="#030405" d="M328.8 182.3l-27.9-299.1-3.6.4 31.5 298.7"/><path fill="#171717" d="M328.8 182.3L360.3 481l3.6-.4-35.1-298.3"/><path fill="#030405" d="M328.8 182.3l-31.5-298.7-3.6.4 35.1 298.3"/><path fill="#171717" d="M328.8 182.3l35.1 298.3 3.6-.5-38.7-297.8"/><path fill="#030405" d="M328.8 182.3L293.6-116l-3.6.5 38.8 297.8"/><path fill="#171717" d="M328.8 182.3l38.7 297.8 3.6-.5-42.3-297.3"/><path fill="#030405" d="M328.8 182.3L290-115.5l-3.6.5 42.4 297.3"/><path fill="#161617" d="M328.8 182.3l42.3 297.3 3.6-.6-45.9-296.7"/><path fill="#040505" d="M328.8 182.3L286.4-115l-3.6.6 46 296.7"/><path fill="#161617" d="M328.8 182.3L374.7 479l3.6-.6-49.5-296.1"/><path fill="#040505" d="M328.8 182.3l-45.9-296.7-3.6.6 49.5 296.1"/><path fill="#161617" d="M328.8 182.3l49.5 296.2 3.5-.6-53-295.6"/><path fill="#040505" d="M328.8 182.3l-49.5-296.2-3.6.6 53.1 295.6"/><path fill="#161617" d="M328.8 182.3l53 295.5 3.6-.7-56.6-294.8"/><path fill="#040505" d="M328.8 182.3l-53.1-295.5-3.6.7 56.7 294.8"/><path fill="#161617" d="M328.8 182.3l56.6 294.8 3.5-.7-60.1-294.1"/><path fill="#040505" d="M328.8 182.3l-56.7-294.8-3.5.7 60.2 294.1"/><path fill="#161617" d="M328.8 182.3L389 476.4l3.5-.8-63.7-293.3"/><path fill="#040505" d="M328.8 182.3l-60.2-294.1-3.6.8 63.8 293.3"/><path fill="#161617" d="M328.8 182.3l63.7 293.3 3.5-.8-67.2-292.5"/><path fill="#040505" d="M328.8 182.3L265-111l-3.5.8 67.3 292.5"/><path fill="#161617" d="M328.8 182.3L396 474.8l3.5-.9-70.7-291.6"/><path fill="#040505" d="M328.8 182.3l-67.3-292.5-3.5.9 70.8 291.6"/><path fill="#161617" d="M328.8 182.3l70.8 291.6 3.5-.9-74.3-290.7"/><path fill="#040505" d="M328.8 182.3L258-109.3l-3.5.9 74.3 290.7"/><path fill="#161617" d="M328.8 182.3L403.1 473l3.5-1-77.8-289.7"/><path fill="#040505" d="M328.8 182.3l-74.3-290.7-3.5 1 77.8 289.7"/><path fill="#151515" d="M328.8 182.3L406.6 472l3.5-1-81.3-288.7"/><path fill="#050606" d="M328.8 182.3L251-107.5l-3.5 1 81.3 288.8"/><path fill="#151515" d="M328.8 182.3L410.1 471l3.5-1-84.8-287.7"/><path fill="#050606" d="M328.8 182.3l-81.3-288.7-3.5 1 84.8 287.7"/><path fill="#151515" d="M328.8 182.3L413.6 470l3.5-1.1-88.3-286.6"/><path fill="#050606" d="M328.8 182.3L244-105.4l-3.5 1.1 88.3 286.6"/><path fill="#151515" d="M328.8 182.3L417 468.9l3.4-1.1-91.6-285.5"/><path fill="#050606" d="M328.8 182.3l-88.2-286.6-3.5 1.1 91.7 285.5"/><path fill="#151515" d="M328.8 182.3l91.7 285.5 3.4-1.2-95.1-284.3"/><path fill="#050606" d="M328.8 182.3l-91.7-285.5-3.4 1.2 95.1 284.3"/><path fill="#151515" d="M328.8 182.3l95.1 284.3 3.4-1.2-98.5-283.1"/><path fill="#050606" d="M328.8 182.3L233.6-102l-3.4 1.2 98.6 283.1"/><path fill="#151515" d="M328.8 182.3l98.6 283.1 3.4-1.3-102-281.8"/><path fill="#050606" d="M328.8 182.3l-98.6-283.1-3.4 1.2 102 281.9"/><path fill="#151515" d="M328.8 182.3l102 281.8 3.4-1.3-105.4-280.5"/><path fill="#050606" d="M328.8 182.3l-102-281.8-3.4 1.3 105.4 280.5"/><path fill="#151515" d="M328.8 182.3l105.4 280.5 3.4-1.3-108.8-279.2"/><path fill="#050606" d="M328.8 182.3L223.4-98.2l-3.4 1.3 108.8 279.2"/><path fill="#141414" d="M328.8 182.3l108.7 279.2 3.4-1.4-112.1-277.8"/><path fill="#060607" d="M328.8 182.3L220-96.9l-3.4 1.4 112.2 277.8"/><path fill="#141414" d="M328.8 182.3l112.1 277.8 3.4-1.4-115.5-276.4"/><path fill="#060607" d="M328.8 182.3L216.7-95.5l-3.4 1.4 115.5 276.4"/><path fill="#141414" d="M328.8 182.3l115.4 276.4 3.3-1.5-118.7-274.9"/><path fill="#060607" d="M328.8 182.3L213.3-94.1l-3.3 1.5 118.8 274.9"/><path fill="#141414" d="M328.8 182.3l118.8 274.9 3.3-1.5-122.1-273.4"/><path fill="#060607" d="M328.8 182.3L210-92.6l-3.3 1.5 122.1 273.4"/><path fill="#141414" d="M328.8 182.3l122.1 273.4 3.3-1.5-125.4-271.9"/><path fill="#060607" d="M328.8 182.3L206.7-91.1l-3.3 1.5 125.4 271.9"/><path fill="#141414" d="M328.8 182.3l125.4 271.8 3.3-1.6-128.7-270.2"/><path fill="#060607" d="M328.8 182.3L203.4-89.5l-3.3 1.6 128.7 270.2"/><path fill="#141414" d="M328.8 182.3l128.6 270.2 3.2-1.7-131.8-268.5"/><path fill="#060607" d="M328.8 182.3L200.1-87.9l-3.3 1.6 132 268.6"/><path fill="#141414" d="M328.8 182.3l131.9 268.6 3.2-1.7-135.1-266.9"/><path fill="#060607" d="M328.8 182.3L196.9-86.3l-3.2 1.7 135.1 266.9"/><path fill="#141414" d="M328.8 182.3l135.1 266.9 3.2-1.7-138.3-265.2"/><path fill="#060607" d="M328.8 182.3L193.6-84.6l-3.2 1.7 138.4 265.2"/><path fill="#141414" d="M328.8 182.3l138.3 265.2 3.2-1.7-141.5-263.5"/><path fill="#060607" d="M328.8 182.3L190.4-82.9l-3.2 1.8 141.6 263.4"/><path fill="#131313" d="M328.8 182.3l141.5 263.4 3.2-1.8-144.7-261.6"/><path fill="#070708" d="M328.8 182.3L187.2-81.1l-3.2 1.8 144.8 261.6"/><path fill="#131313" d="M328.8 182.3l144.7 261.6 3.2-1.9-147.9-259.7"/><path fill="#070708" d="M328.8 182.3L184.1-79.3l-3.2 1.9 147.9 259.7"/><path fill="#131313" d="M328.8 182.3l147.8 259.8 3.1-1.9-150.9-257.9"/><path fill="#070708" d="M328.8 182.3L180.9-77.5l-3.1 1.9 151 257.9"/><path fill="#131313" d="M328.8 182.3l151 257.9 3.1-1.9-154.1-256"/><path fill="#070708" d="M328.8 182.3l-151-257.9-3.1 1.9 154.1 256"/><path fill="#131313" d="M328.8 182.3l154.1 256 3.1-2-157.2-254"/><path fill="#070708" d="M328.8 182.3l-154.1-256-3.1 2 157.2 254"/><path fill="#131313" d="M328.8 182.3l157.1 254 3.1-2-160.2-252"/><path fill="#070708" d="M328.8 182.3l-157.2-254-3.1 2 160.3 252"/><path fill="#131313" d="M328.8 182.3l160.2 252 3-2-163.2-250"/><path fill="#070708" d="M328.8 182.3l-160.2-252-3 2 163.2 250"/><path fill="#131313" d="M328.8 182.3l163.2 250 3-2.1-166.2-247.9"/><path fill="#070708" d="M328.8 182.3l-163.2-250-3 2.1 166.2 247.9"/><path fill="#131313" d="M328.8 182.3L495 430.2l3-2.1-169.2-245.8"/><path fill="#070708" d="M328.8 182.3l-166.3-248-3 2.1 169.3 245.9"/><path fill="#131313" d="M328.8 182.3L498 428.1l3-2.2-172.2-243.6"/><path fill="#070708" d="M328.8 182.3L159.5-63.5l-2.9 2.2 172.2 243.6"/><path fill="#121212" d="M328.8 182.3L501 425.9l2.9-2.2-175.1-241.4"/><path fill="#080809" d="M328.8 182.3L156.6-61.4l-2.9 2.2 175.1 241.5"/><path fill="#121212" d="M328.8 182.3l175.1 241.5 2.9-2.2-178-239.3"/><path fill="#080809" d="M328.8 182.3L153.6-59.2l-2.9 2.2 178.1 239.3"/><path fill="#121212" d="M328.8 182.3l178 239.3 2.9-2.2-180.9-237.1"/><path fill="#080809" d="M328.8 182.3L150.8-57l-2.9 2.2 180.9 237.1"/><path fill="#121212" d="M328.8 182.3l180.9 237 2.9-2.3-183.8-234.7"/><path fill="#080809" d="M328.8 182.3l-180.9-237-2.8 2.3 183.7 234.7"/><path fill="#121212" d="M328.8 182.3L512.5 417l2.8-2.3-186.5-232.4"/><path fill="#080809" d="M328.8 182.3L145-52.4l-2.8 2.3 186.6 232.4"/><path fill="#121212" d="M328.8 182.3l186.5 232.4 2.8-2.4-189.3-230"/><path fill="#080809" d="M328.8 182.3L142.2-50.1l-2.8 2.4 189.4 230"/><path fill="#121212" d="M328.8 182.3l189.3 230 2.8-2.4-192.1-227.6"/><path fill="#080809" d="M328.8 182.3l-189.3-230-2.8 2.4 192.1 227.6"/><path fill="#121212" d="M328.8 182.3l192.1 227.6 2.7-2.4-194.8-225.2"/><path fill="#080809" d="M328.8 182.3L136.7-45.4 134-43l194.8 225.3"/><path fill="#121212" d="M328.8 182.3l194.8 225.2 2.7-2.5-197.5-222.7"/><path fill="#080809" d="M328.8 182.3L133.9-42.9l-2.7 2.5 197.6 222.7"/><path fill="#121212" d="M328.8 182.3L526.3 405l2.7-2.5-200.2-220.2"/><path fill="#080809" d="M328.8 182.3L131.2-40.4l-2.7 2.5 200.3 220.2"/><path fill="#111" d="M328.8 182.3L529 402.5l2.6-2.5-202.8-217.7"/><path fill="#08090A" d="M328.8 182.3L128.5-37.9l-2.6 2.5 202.9 217.7"/><path fill="#111" d="M328.8 182.3L531.6 400l2.6-2.6-205.4-215.1"/><path fill="#08090A" d="M328.8 182.3L125.9-35.4l-2.6 2.6 205.5 215.1"/><path fill="#111" d="M328.8 182.3l205.5 215.1 2.6-2.6-208.1-212.5"/><path fill="#08090A" d="M328.8 182.3L123.3-32.8l-2.6 2.6 208.1 212.5"/><path fill="#111" d="M328.8 182.3l208 212.5 2.6-2.6-210.6-209.9"/><path fill="#08090A" d="M328.8 182.3L120.7-30.3l-2.5 2.6 210.6 210"/><path fill="#111" d="M328.8 182.3l210.6 209.9 2.5-2.7-213.1-207.2"/><path fill="#08090A" d="M328.8 182.3L118.2-27.6l-2.5 2.7 213.1 207.2"/><path fill="#111" d="M328.8 182.3l213.1 207.2 2.5-2.7-215.6-204.5"/><path fill="#08090A" d="M328.8 182.3L115.6-25l-2.5 2.7 215.7 204.6"/><path fill="#111" d="M328.8 182.3l215.6 204.5 2.5-2.7-218.1-201.8"/><path fill="#08090A" d="M328.8 182.3L113.2-22.3l-2.4 2.7 218 201.9"/><path fill="#111" d="M328.8 182.3l218.1 201.8 2.4-2.8-220.5-199"/><path fill="#08090A" d="M328.8 182.3L110.7-19.5l-2.4 2.8 220.5 199"/><path fill="#111" d="M328.8 182.3l220.5 199 2.4-2.8-222.9-196.2"/><path fill="#08090A" d="M328.8 182.3L108.3-16.8l-2.4 2.8 222.9 196.3"/><path fill="#111" d="M328.8 182.3l222.8 196.3 2.4-2.8-225.2-193.5"/><path fill="#08090A" d="M328.8 182.3L105.9-14l-2.4 2.8 225.3 193.5"/><path fill="#101010" d="M328.8 182.3L554 375.7l2.3-2.9-227.5-190.5"/><path fill="#090A0B" d="M328.8 182.3L103.5-11.2l-2.3 2.8 227.6 190.7"/><path fill="#101010" d="M328.8 182.3l227.5 190.6 2.3-2.9-229.8-187.7"/><path fill="#090A0B" d="M328.8 182.3L101.2-8.3l-2.3 2.9 229.9 187.7"/><path fill="#101010" d="M328.8 182.3L558.6 370l2.3-2.9-232.1-184.8"/><path fill="#090A0B" d="M328.8 182.3L98.9-5.4l-2.3 2.9 232.2 184.8"/><path fill="#101010" d="M328.8 182.3l232 184.8 2.2-2.9-234.2-181.9"/><path fill="#090A0B" d="M328.8 182.3L96.7-2.6 94.5.3l234.3 182"/><path fill="#101010" d="M328.8 182.3L563 364.2l2.2-2.9-236.4-179"/><path fill="#090A0B" d="M328.8 182.3L94.5.4l-2.2 2.9 236.5 179"/><path fill="#101010" d="M328.8 182.3l236.4 178.9 2.1-3-238.5-175.9"/><path fill="#090A0B" d="M328.8 182.3L92.3 3.3l-2.1 3 238.6 176"/><path fill="#101010" d="M328.8 182.3l238.6 175.9 2.1-3-240.7-172.9"/><path fill="#090A0B" d="M328.8 182.3L90.2 6.3l-2.1 3 240.7 173"/><path fill="#101010" d="M328.8 182.3l240.7 172.9 2.1-3-242.8-169.9"/><path fill="#090A0B" d="M328.8 182.3L88.1 9.3l-2.1 3 242.8 170"/><path fill="#101010" d="M328.8 182.3l242.7 169.9 2-3.1-244.7-166.8"/><path fill="#090A0B" d="M328.8 182.3L86 12.4l-2 3.1 244.8 166.8"/><path fill="#0F0F0F" d="M328.8 182.3l244.8 166.8 2-3.1-246.8-163.7"/><path fill="#0B0C0C" d="M328.8 182.3L84 15.5l-2 3.1 246.8 163.7"/><path fill="#0F0F0F" d="M328.8 182.3L575.6 346l2-3.1-248.8-160.6"/><path fill="#0B0C0C" d="M328.8 182.3L82 18.6l-2 3.1 248.8 160.6"/><path fill="#0F0F0F" d="M328.8 182.3l248.7 160.6 1.9-3.1-250.6-157.5"/><path fill="#0B0C0C" d="M328.8 182.3L80 21.7l-1.9 3.1 250.7 157.5"/><path fill="#0F0F0F" d="M328.8 182.3l250.7 157.5 1.9-3.1-252.6-154.4"/><path fill="#0B0C0C" d="M328.8 182.3L78.1 24.8 76.2 28l252.6 154.3"/><path fill="#0F0F0F" d="M328.8 182.3l252.5 154.3 1.8-3.2-254.3-151.1"/><path fill="#0B0C0C" d="M328.8 182.3L76.2 28l-1.8 3.2 254.4 151.1"/><path fill="#0F0F0F" d="M328.8 182.3l254.4 151.1 1.8-3.2-256.2-147.9"/><path fill="#0B0C0C" d="M328.8 182.3L74.4 31.2l-1.8 3.2 256.2 147.9"/><path fill="#0F0F0F" d="M328.8 182.3L585 330.2l1.8-3.2-258-144.7"/><path fill="#0B0C0C" d="M328.8 182.3L72.5 34.4l-1.8 3.2 258.1 144.7"/><path fill="#0F0F0F" d="M328.8 182.3l258 144.7 1.7-3.3-259.7-141.4"/><path fill="#0B0C0C" d="M328.8 182.3L70.8 37.6l-1.7 3.3 259.7 141.4"/><path fill="#0F0F0F" d="M328.8 182.3l259.7 141.4 1.7-3.3-261.4-138.1"/><path fill="#0B0C0C" d="M328.8 182.3L69.1 40.8l-1.7 3.3 261.4 138.2"/><path fill="#0F0F0F" d="M328.8 182.3l261.4 138.2 1.7-3.3-263.1-134.9"/><path fill="#0B0C0C" d="M328.8 182.3L67.4 44.1l-1.7 3.3 263.1 134.9"/><path fill="#0D0E0E" d="M328.8 182.3l263 134.8 1.6-3.3-264.6-131.5"/><path fill="#0B0C0C" d="M328.8 182.3L65.7 47.4l-1.6 3.3 264.7 131.6"/><path fill="#0D0E0E" d="M328.8 182.3l264.6 131.5 1.6-3.3-266.2-128.2"/><path fill="#0B0C0C" d="M328.8 182.3L64.1 50.7 62.5 54l266.3 128.3"/><path fill="#0D0E0E" d="M328.8 182.3L595 310.5l1.5-3.3-267.7-124.9"/><path fill="#0B0C0C" d="M328.8 182.3L62.6 54.1 61 57.4l267.8 124.9"/><path fill="#0D0E0E" d="M328.8 182.3l267.7 124.8 1.5-3.4-269.2-121.4"/><path fill="#0B0C0C" d="M328.8 182.3L61 57.4l-1.5 3.4 269.3 121.5"/><path fill="#0D0E0E" d="M328.8 182.3L598 303.7l1.5-3.4-270.7-118"/><path fill="#0B0C0C" d="M328.8 182.3L59.5 60.8l-1.4 3.4 270.7 118.1"/><path fill="#0D0E0E" d="M328.8 182.3l270.7 118.1 1.4-3.4-272.1-114.7"/><path fill="#0B0C0C" d="M328.8 182.3L58.1 64.2l-1.4 3.4 272.1 114.7"/><path fill="#0D0E0E" d="M328.8 182.3L600.9 297l1.3-3.4-273.4-111.3"/><path fill="#0B0C0C" d="M328.8 182.3L56.7 67.6 55.3 71l273.5 111.3"/><path fill="#0D0E0E" d="M328.8 182.3l273.4 111.2 1.3-3.5-274.7-107.7"/><path fill="#0B0C0C" d="M328.8 182.3L55.3 71 54 74.5l274.8 107.8"/><path fill="#0D0E0E" d="M328.8 182.3l274.7 107.8 1.3-3.5-276-104.3"/><path fill="#0B0C0C" d="M328.8 182.3L54 74.5 52.7 78l276.1 104.3"/><path fill="#0D0E0E" d="M328.8 182.3l276 104.3 1.2-3.5-277.2-100.8"/><path fill="#0B0C0C" d="M328.8 182.3L52.7 77.9l-1.2 3.5 277.3 100.9"/><path fill="#0C0D0D" d="M328.8 182.3L606 283.1l1.2-3.5-278.4-97.3M328.8 182.3L51.5 81.4l-1.2 3.5 278.5 97.4"/><path fill="#0C0D0D" d="M328.8 182.3l278.5 97.3 1.1-3.5-279.6-93.8M328.8 182.3L50.3 84.9l-1.2 3.5 279.7 93.9M328.8 182.3l279.6 93.8 1.1-3.5-280.7-90.3"/><path fill="#0C0D0D" d="M328.8 182.3L49.1 88.4 48 92l280.8 90.3M328.8 182.3l280.7 90.3 1.1-3.5-281.8-86.8"/><path fill="#0C0D0D" d="M328.8 182.3L48 92l-1.1 3.5 281.9 86.8M328.8 182.3l281.8 86.8 1-3.6-282.8-83.2"/><path fill="#0C0D0D" d="M328.8 182.3L46.9 95.5l-1 3.6 282.9 83.2M328.8 182.3l282.8 83.2 1-3.6-283.8-79.6"/><path fill="#0C0D0D" d="M328.8 182.3L45.9 99.1l-1 3.6 283.9 79.6M328.8 182.3L612.6 262l.9-3.6-284.7-76.1"/><path fill="#0C0D0D" d="M328.8 182.3L44.9 102.6l-.9 3.6 284.8 76.1"/><path fill="#0C0D0D" d="M328.8 182.3l284.7 76.1.9-3.6-285.6-72.5M328.8 182.3L44 106.2l-.9 3.6 285.7 72.5"/><path fill="#0C0D0D" d="M328.8 182.3l285.6 72.5.9-3.6-286.5-68.9M328.8 182.3L43.1 109.8l-.9 3.6 286.6 68.9"/><path fill="#0C0D0D" d="M328.8 182.3l286.5 68.9.8-3.6-287.3-65.3M328.8 182.3L42.3 113.4l-.8 3.6 287.3 65.3"/><path fill="#0B0C0C" d="M328.8 182.3l287.3 65.3.8-3.6-288.1-61.7"/><path fill="#0D0E0E" d="M328.8 182.3L41.4 117l-.8 3.6 288.2 61.7"/><path fill="#0B0C0C" d="M328.8 182.3L616.9 244l.7-3.6-288.8-58.1"/><path fill="#0D0E0E" d="M328.8 182.3L40.7 120.6l-.7 3.6 288.8 58.1"/><path fill="#0B0C0C" d="M328.8 182.3l288.8 58 .7-3.6-289.5-54.4"/><path fill="#0D0E0E" d="M328.8 182.3L40 124.2l-.7 3.6 289.5 54.5"/><path fill="#0B0C0C" d="M328.8 182.3l289.5 54.4.6-3.6-290.1-50.8"/><path fill="#0D0E0E" d="M328.8 182.3L39.3 127.9l-.6 3.6 290.1 50.8"/><path fill="#0B0C0C" d="M328.8 182.3l290.1 50.8.6-3.6-290.7-47.2"/><path fill="#0D0E0E" d="M328.8 182.3L38.6 131.5l-.6 3.6 290.8 47.2"/><path fill="#0B0C0C" d="M328.8 182.3l290.7 47.1.5-3.7-291.2-43.4"/><path fill="#0D0E0E" d="M328.8 182.3L38.1 135.1l-.6 3.6 291.3 43.6"/><path fill="#0B0C0C" d="M328.8 182.3L620 225.7l.5-3.6-291.7-39.8"/><path fill="#0D0E0E" d="M328.8 182.3L37.5 138.8l-.5 3.7 291.8 39.8"/><path fill="#0B0C0C" d="M328.8 182.3l291.8 39.8.4-3.7-292.2-36.1"/><path fill="#0D0E0E" d="M328.8 182.3L37 142.5l-.5 3.7 292.3 36.1"/><path fill="#0B0C0C" d="M328.8 182.3L621 218.4l.4-3.7-292.6-32.4"/><path fill="#0D0E0E" d="M328.8 182.3L36.6 146.2l-.4 3.7 292.6 32.4"/><path fill="#0B0C0C" d="M328.8 182.3l292.6 32.4.4-3.7-293-28.7"/><path fill="#0D0E0E" d="M328.8 182.3L36.1 149.8l-.4 3.7 293.1 28.8"/><path fill="#0B0C0C" d="M328.8 182.3l293 28.8.3-3.7-293.3-25.1"/><path fill="#0F0F0F" d="M328.8 182.3l-293-28.8-.3 3.7 293.3 25.1"/><path fill="#0B0C0C" d="M328.8 182.3l293.3 25.1.3-3.7-293.6-21.4"/><path fill="#0F0F0F" d="M328.8 182.3L35.5 157.2l-.3 3.7 293.6 21.4"/><path fill="#0B0C0C" d="M328.8 182.3l293.6 21.4.2-3.7-293.8-17.7"/><path fill="#0F0F0F" d="M328.8 182.3L35.1 160.9l-.2 3.7 293.9 17.7"/><path fill="#0B0C0C" d="M328.8 182.3L622.6 200l.2-3.7-294-14"/><path fill="#0F0F0F" d="M328.8 182.3L34.9 164.6l-.2 3.7 294.1 14"/><path fill="#0B0C0C" d="M328.8 182.3l294 14 .2-3.7-294.2-10.3"/><path fill="#0F0F0F" d="M328.8 182.3l-294-14-.1 3.7 294.1 10.3"/><path fill="#0B0C0C" d="M328.8 182.3L623 192.6l.1-3.7-294.3-6.6"/><path fill="#0F0F0F" d="M328.8 182.3L34.6 172l-.1 3.7 294.3 6.6"/><path fill="#0B0C0C" d="M328.8 182.3l294.3 6.6.1-3.7-294.4-2.9"/><path fill="#0F0F0F" d="M328.8 182.3l-294.3-6.6-.1 3.7 294.4 2.9"/><path fill="#0B0C0C" d="M328.8 182.3l294.3 2.9v-3.7l-294.3.8"/><path fill="#0F0F0F" d="M328.8 182.3l-294.3-2.9v3.7l294.3-.8"/><path fill="#0B0C0C" d="M328.8 182.3l294.3-.8v-3.7l-294.3 4.5"/><path fill="#0F0F0F" d="M328.8 182.3l-294.4.8v3.7l294.4-4.5"/><path fill="#0B0C0C" d="M328.8 182.3l294.3-4.5-.1-3.7-294.2 8.2"/><path fill="#0F0F0F" d="M328.8 182.3l-294.3 4.5.1 3.7 294.2-8.2"/><path fill="#090A0B" d="M328.8 182.3l294.2-8.2-.1-3.7-294.1 11.9"/><path fill="#101010" d="M328.8 182.3l-294.3 8.2.1 3.7 294.2-11.9"/><path fill="#090A0B" d="M328.8 182.3l294.1-11.9-.2-3.7-293.9 15.6"/><path fill="#101010" d="M328.8 182.3L34.7 194.2l.2 3.7 293.9-15.6"/><path fill="#090A0B" d="M328.8 182.3l294-15.6-.2-3.7-293.8 19.3"/><path fill="#101010" d="M328.8 182.3l-294 15.6.2 3.7 293.8-19.3"/><path fill="#090A0B" d="M328.8 182.3L622.5 163l-.2-3.7-293.5 23"/><path fill="#101010" d="M328.8 182.3L35 201.6l.3 3.7 293.5-23"/><path fill="#090A0B" d="M328.8 182.3l293.5-23-.3-3.7-293.2 26.7"/><path fill="#101010" d="M328.8 182.3l-293.5 23 .3 3.7 293.2-26.7"/><path fill="#090A0B" d="M328.8 182.3L622 155.6l-.4-3.7-292.8 30.4"/><path fill="#101010" d="M328.8 182.3L35.6 208.9l.3 3.7 292.9-30.3"/><path fill="#090A0B" d="M328.8 182.3l292.8-30.4-.4-3.7-292.4 34.1"/><path fill="#101010" d="M328.8 182.3L35.9 212.6l.4 3.7 292.5-34"/><path fill="#090A0B" d="M328.8 182.3l292.4-34-.4-3.7-292 37.7"/><path fill="#101010" d="M328.8 182.3l-292.5 34 .4 3.6 292.1-37.6"/><path fill="#090A0B" d="M328.8 182.3l292-37.7-.5-3.6-291.5 41.3"/><path fill="#101010" d="M328.8 182.3L36.7 220l.5 3.7 291.6-41.4"/><path fill="#08090A" d="M328.8 182.3l291.5-41.4-.5-3.7-291 45.1"/><path fill="#111" d="M328.8 182.3L37.2 223.7l.5 3.7 291.1-45.1"/><path fill="#08090A" d="M328.8 182.3l291-45-.6-3.6-290.4 48.6"/><path fill="#111" d="M328.8 182.3l-291 45.1.6 3.6 290.4-48.7"/><path fill="#08090A" d="M328.8 182.3l290.4-48.7-.6-3.6-289.8 52.3"/><path fill="#111" d="M328.8 182.3L38.3 231l.6 3.6 289.9-52.3"/><path fill="#08090A" d="M328.8 182.3L618.6 130l-.7-3.6-289.1 55.9"/><path fill="#111" d="M328.8 182.3L38.9 234.6l.7 3.6 289.2-55.9"/><path fill="#08090A" d="M328.8 182.3l289.2-56-.7-3.6-288.5 59.6"/><path fill="#111" d="M328.8 182.3l-289.2 56 .7 3.6 288.5-59.6"/><path fill="#08090A" d="M328.8 182.3l288.5-59.6-.7-3.6-287.8 63.2"/><path fill="#111" d="M328.8 182.3L40.3 241.9l.7 3.6 287.8-63.2"/><path fill="#08090A" d="M328.8 182.3L616.5 119l-.8-3.6-286.9 66.9"/><path fill="#111" d="M328.8 182.3L41 245.5l.8 3.6 287-66.8"/><path fill="#08090A" d="M328.8 182.3l287-66.9-.9-3.6-286.1 70.5"/><path fill="#111" d="M328.8 182.3l-287 66.9.8 3.6 286.2-70.5"/><path fill="#08090A" d="M328.8 182.3l286.1-70.5-.9-3.6-285.2 74.1"/><path fill="#111" d="M328.8 182.3L42.6 252.7l.9 3.6 285.3-74"/><path fill="#08090A" d="M328.8 182.3l285.3-74-.9-3.6-284.4 77.6"/><path fill="#111" d="M328.8 182.3l-285.3 74 .9 3.6 284.4-77.6"/><path fill="#080809" d="M328.8 182.3l284.3-77.6-.9-3.6-283.4 81.2"/><path fill="#121212" d="M328.8 182.3L44.4 259.9l1 3.6 283.4-81.2"/><path fill="#080809" d="M328.8 182.3l283.4-81.2-1-3.6-282.4 84.8"/><path fill="#121212" d="M328.8 182.3L45.4 263.5l1 3.6 282.4-84.8"/><path fill="#080809" d="M328.8 182.3l282.4-84.8-1-3.5-281.4 88.3"/><path fill="#121212" d="M328.8 182.3L46.4 267l1 3.5 281.4-88.2"/><path fill="#080809" d="M328.8 182.3L610.1 94l-1.1-3.5-280.2 91.8"/><path fill="#121212" d="M328.8 182.3L47.4 270.6l1.1 3.5 280.3-91.8"/><path fill="#080809" d="M328.8 182.3L609 90.4l-1.1-3.5-279.1 95.4"/><path fill="#121212" d="M328.8 182.3L48.5 274.1l1.1 3.5 279.2-95.3"/><path fill="#080809" d="M328.8 182.3L607.9 87l-1.2-3.5-277.9 98.8"/><path fill="#121212" d="M328.8 182.3L49.6 277.6l1.2 3.5 278-98.8"/><path fill="#080809" d="M328.8 182.3l277.9-98.9-1.2-3.5-276.7 102.4"/><path fill="#121212" d="M328.8 182.3l-278 98.9 1.2 3.5 276.8-102.4"/><path fill="#080809" d="M328.8 182.3L605.5 79.9l-1.3-3.5-275.4 105.9"/><path fill="#121212" d="M328.8 182.3L52 284.6l1.3 3.5 275.5-105.8"/><path fill="#080809" d="M328.8 182.3L604.2 76.5 603 73 328.8 182.3"/><path fill="#121212" d="M328.8 182.3L53.3 288.1l1.3 3.5 274.2-109.3"/><path fill="#080809" d="M328.8 182.3L603 73l-1.3-3.5-272.9 112.8"/><path fill="#121212" d="M328.8 182.3L54.6 291.5l1.3 3.4 272.9-112.6"/><path fill="#070708" d="M328.8 182.3L601.6 69.6l-1.4-3.4-271.4 116.1"/><path fill="#131313" d="M328.8 182.3L55.9 295l1.4 3.4 271.5-116.1"/><path fill="#070708" d="M328.8 182.3L600.2 66.1l-1.4-3.4-270 119.6"/><path fill="#131313" d="M328.8 182.3L57.3 298.4l1.4 3.4 270.1-119.5"/><path fill="#070708" d="M328.8 182.3l270-119.5-1.5-3.4-268.5 122.9"/><path fill="#131313" d="M328.8 182.3L58.7 301.8l1.5 3.4 268.6-122.9"/><path fill="#070708" d="M328.8 182.3L597.3 59.4l-1.5-3.4-267 126.3"/><path fill="#131313" d="M328.8 182.3L60.2 305.2l1.5 3.4 267.1-126.3"/><path fill="#070708" d="M328.8 182.3L595.8 56l-1.5-3.4-265.5 129.7"/><path fill="#131313" d="M328.8 182.3L61.7 308.6l1.5 3.4 265.6-129.7"/><path fill="#070708" d="M328.8 182.3L594.3 52.6l-1.6-3.3-263.9 133"/><path fill="#131313" d="M328.8 182.3L63.2 311.9l1.6 3.3 264-132.9"/><path fill="#070708" d="M328.8 182.3l263.9-133L591 46 328.8 182.3"/><path fill="#131313" d="M328.8 182.3l-263.9 133 1.6 3.3 262.3-136.3"/><path fill="#070708" d="M328.8 182.3L591.1 46l-1.7-3.3-260.6 139.6"/><path fill="#131313" d="M328.8 182.3L66.4 318.6l1.7 3.3 260.7-139.6"/><path fill="#070708" d="M328.8 182.3L589.4 42.7l-1.7-3.3-258.9 142.9"/><path fill="#131313" d="M328.8 182.3L68.1 321.8l1.7 3.3 259-142.8"/><path fill="#070708" d="M328.8 182.3L587.7 39.4l-1.7-3.2-257.2 146.1"/><path fill="#131313" d="M328.8 182.3l-259 142.8 1.8 3.2 257.2-146"/><path fill="#060607" d="M328.8 182.3L586 36.2l-1.8-3.2-255.4 149.3"/><path fill="#141414" d="M328.8 182.3l-257.2 146 1.8 3.2 255.4-149.2"/><path fill="#060607" d="M328.8 182.3L584.2 33l-1.8-3.2-253.6 152.5"/><path fill="#141414" d="M328.8 182.3L73.3 331.6l1.8 3.2 253.7-152.5"/><path fill="#060607" d="M328.8 182.3L582.4 29.8l-1.8-3.2-251.8 155.7"/><path fill="#141414" d="M328.8 182.3L75.2 334.8 77 338l251.8-155.7"/><path fill="#060607" d="M328.8 182.3L580.5 26.6l-1.9-3.2-249.8 158.9"/><path fill="#141414" d="M328.8 182.3L77 337.9l1.9 3.2 249.9-158.8"/><path fill="#060607" d="M328.8 182.3L578.6 23.4l-2-3.1-247.8 162"/><path fill="#141414" d="M328.8 182.3L78.9 341.1l2 3.1 247.9-161.9"/><path fill="#060607" d="M328.8 182.3l247.9-162-2-3.1-245.9 165.1"/><path fill="#141414" d="M328.8 182.3l-247.9 162 2 3.1 245.9-165.1"/><path fill="#060607" d="M328.8 182.3L574.7 17.2l-2-3.1-243.9 168.2"/><path fill="#141414" d="M328.8 182.3l-246 165 2 3.1 244-168.1"/><path fill="#060607" d="M328.8 182.3L572.7 14.1l-2.1-3-241.8 171.2"/><path fill="#141414" d="M328.8 182.3l-244 168.1 2 3 242-171.1"/><path fill="#060607" d="M328.8 182.3L570.6 11.1l-2.1-3-239.7 174.2"/><path fill="#141414" d="M328.8 182.3L86.9 353.5l2.1 3 239.8-174.2"/><path fill="#060607" d="M328.8 182.3L568.5 8.1l-2.1-3-237.6 177.2"/><path fill="#141414" d="M328.8 182.3L89 356.5l2.1 3 237.7-177.2"/><path fill="#050606" d="M328.8 182.3L566.4 5.1l-2.1-3-235.5 180.2"/><path fill="#151515" d="M328.8 182.3L91.1 359.5l2.2 3 235.5-180.2"/><path fill="#050606" d="M328.8 182.3L564.3 2.1l-2.2-2.9-233.3 183.1"/><path fill="#151515" d="M328.8 182.3L93.3 362.5l2.2 2.9 233.3-183.1"/><path fill="#050606" d="M328.8 182.3L562.1-.9l-2.2-2.9-231.1 186.1"/><path fill="#151515" d="M328.8 182.3L95.4 365.4l2.2 2.9 231.2-186"/><path fill="#050606" d="M328.8 182.3L559.9-3.8l-2.3-2.9-228.8 189"/><path fill="#151515" d="M328.8 182.3l-231.1 186 2.3 2.9 228.8-188.9"/><path fill="#050606" d="M328.8 182.3l228.8-189-2.3-2.9-226.5 191.9"/><path fill="#151515" d="M328.8 182.3L100 371.3l2.3 2.9 226.5-191.9"/><path fill="#050606" d="M328.8 182.3L555.3-9.5l-2.3-2.8-224.2 194.6"/><path fill="#151515" d="M328.8 182.3L102.2 374.1l2.3 2.8 224.3-194.6"/><path fill="#050606" d="M328.8 182.3L553-12.4l-2.4-2.8-221.8 197.5"/><path fill="#151515" d="M328.8 182.3L104.6 376.9l2.4 2.8 221.8-197.4"/><path fill="#050606" d="M328.8 182.3L550.6-15.2l-2.4-2.8-219.4 200.3"/><path fill="#151515" d="M328.8 182.3L106.9 379.7l2.4 2.8 219.5-200.2"/><path fill="#050606" d="M328.8 182.3L548.2-18l-2.4-2.8-217 203.1"/><path fill="#151515" d="M328.8 182.3L109.3 382.5l2.4 2.8 217.1-203"/><path fill="#040505" d="M328.8 182.3l217-203-2.4-2.7-214.6 205.7"/><path fill="#161617" d="M328.8 182.3l-217 203 2.5 2.7 214.5-205.7"/><path fill="#040505" d="M328.8 182.3L543.3-23.4l-2.5-2.7-212 208.4"/><path fill="#161617" d="M328.8 182.3L114.2 388l2.5 2.7 212.1-208.4"/><path fill="#040505" d="M328.8 182.3l212-208.4-2.5-2.6-209.5 211"/><path fill="#161617" d="M328.8 182.3L116.7 390.7l2.6 2.6 209.5-211"/><path fill="#040505" d="M328.8 182.3l209.5-211-2.6-2.6-206.9 213.6"/><path fill="#161617" d="M328.8 182.3l-209.5 211 2.6 2.6 206.9-213.6"/><path fill="#040505" d="M328.8 182.3L535.7-31.4l-2.6-2.6-204.3 216.3"/><path fill="#161617" d="M328.8 182.3l-207 213.6 2.6 2.6 204.4-216.2"/><path fill="#040505" d="M328.8 182.3L533.1-34l-2.6-2.6-201.7 218.9"/><path fill="#161617" d="M328.8 182.3L124.4 398.5l2.6 2.6 201.8-218.8"/><path fill="#040505" d="M328.8 182.3L530.5-36.5l-2.7-2.5-199 221.3"/><path fill="#161617" d="M328.8 182.3L127.1 401.1l2.6 2.5 199.1-221.3"/><path fill="#040505" d="M328.8 182.3L527.8-39l-2.7-2.5-196.3 223.8"/><path fill="#161617" d="M328.8 182.3L129.7 403.6l2.7 2.5 196.4-223.8"/><path fill="#040505" d="M328.8 182.3L525.1-41.5l-2.7-2.5-193.6 226.3"/><path fill="#161617" d="M328.8 182.3L132.4 406.1l2.7 2.4 193.7-226.2"/><path fill="#040505" d="M328.8 182.3L522.4-44l-2.8-2.4-190.8 228.7"/><path fill="#161617" d="M328.8 182.3L135.1 408.5l2.7 2.4 191-228.6"/><path fill="#030405" d="M328.8 182.3L519.7-46.4l-2.8-2.4-188.1 231.1"/><path fill="#171717" d="M328.8 182.3L137.8 411l2.8 2.4 188.2-231.1"/><path fill="#030405" d="M328.8 182.3L516.9-48.8l-2.8-2.3-185.3 233.4"/><path fill="#171717" d="M328.8 182.3l-188.2 231 2.8 2.3 185.4-233.3"/><path fill="#030405" d="M328.8 182.3L514.1-51.1l-2.8-2.3-182.5 235.7"/><path fill="#171717" d="M328.8 182.3L143.4 415.7l2.8 2.3 182.6-235.7"/><path fill="#030405" d="M328.8 182.3L511.3-53.4l-2.9-2.3-179.6 238"/><path fill="#171717" d="M328.8 182.3L146.3 418l2.9 2.3 179.6-238"/><path fill="#030405" d="M328.8 182.3l179.6-238-2.9-2.2-176.7 240.2"/><path fill="#171717" d="M328.8 182.3l-179.7 238 2.9 2.2 176.8-240.2"/><path fill="#030405" d="M328.8 182.3L505.5-58l-2.9-2.2-173.8 242.5"/><path fill="#171717" d="M328.8 182.3L152 422.5l2.9 2.2 173.9-242.4"/><path fill="#030405" d="M328.8 182.3L502.6-60.2l-2.9-2.2-170.9 244.7"/><path fill="#171717" d="M328.8 182.3L154.9 424.7l2.9 2.2 171-244.6"/><path fill="#030405" d="M328.8 182.3L499.7-62.3l-2.9-2.1-168 246.7"/><path fill="#171717" d="M328.8 182.3L157.9 426.9l3 2.1 167.9-246.7"/><path fill="#030405" d="M328.8 182.3L496.7-64.4l-3-2.1-164.9 248.8"/><path fill="#171717" d="M328.8 182.3L160.8 429l3 2.1 165-248.8"/><path fill="#030405" d="M328.8 182.3L493.7-66.6l-3-2-161.9 250.9"/><path fill="#171717" d="M328.8 182.3l-165 248.8 3 2 162-250.8"/><path fill="#020304" d="M328.8 182.3L490.7-68.6l-3-2-158.9 252.9"/><path fill="#181819" d="M328.8 182.3l-162 250.9 3.1 2 158.9-252.9"/><path fill="#020304" d="M328.8 182.3L487.7-70.6l-3.1-2-155.8 254.9"/><path fill="#181819" d="M328.8 182.3L169.9 435.2l3.1 2 155.8-254.9"/><path fill="#020304" d="M328.8 182.3L484.6-72.6l-3.1-2-152.7 256.9"/><path fill="#181819" d="M328.8 182.3L172.9 437.1l3.1 1.9 152.8-256.7"/><path fill="#020304" d="M328.8 182.3L481.5-74.5l-3.1-1.9-149.6 258.7"/><path fill="#181819" d="M328.8 182.3L176 439.1l3.1 1.9 149.7-258.7"/><path fill="#020304" d="M328.8 182.3L478.4-76.4l-3.1-1.9-146.5 260.6"/><path fill="#181819" d="M328.8 182.3L179.1 441l3.1 1.9 146.6-260.6"/><path fill="#020304" d="M328.8 182.3L475.3-78.3l-3.2-1.8-143.3 262.4"/><path fill="#181819" d="M328.8 182.3L182.3 442.9l3.1 1.8 143.4-262.4"/><path fill="#020304" d="M328.8 182.3L472.1-80.1l-3.2-1.8-140.1 264.2"/><path fill="#181819" d="M328.8 182.3L185.4 444.7l3.2 1.8 140.2-264.2"/><path fill="#020304" d="M328.8 182.3L468.9-81.9l-3.2-1.7-136.9 265.9"/><path fill="#181819" d="M328.8 182.3L188.6 446.5l3.2 1.7 137-265.9"/><path fill="#020304" d="M328.8 182.3l137-265.9-3.2-1.7-133.8 267.6"/><path fill="#181819" d="M328.8 182.3l-137 265.9 3.2 1.7 133.8-267.6"/><path fill="#020304" d="M328.8 182.3L462.5-85.4l-3.2-1.7-130.5 269.4"/><path fill="#181819" d="M328.8 182.3L195 449.9l3.2 1.7 130.6-269.3"/><path fill="#020303" d="M328.8 182.3L459.3-87l-3.2-1.6-127.3 270.9"/><path fill="#1A1A1A" d="M328.8 182.3L198.3 451.6l3.3 1.6 127.2-270.9"/><path fill="#020303" d="M328.8 182.3L456-88.6l-3.3-1.6-123.9 272.5"/><path fill="#1A1A1A" d="M328.8 182.3L201.5 453.2l3.3 1.6 124-272.5"/><path fill="#020303" d="M328.8 182.3L452.7-90.2l-3.3-1.5-120.6 274"/><path fill="#1A1A1A" d="M328.8 182.3l-124 272.5 3.3 1.5 120.7-274"/><path fill="#020303" d="M328.8 182.3l120.6-274-3.3-1.5-117.3 275.5"/><path fill="#1A1A1A" d="M328.8 182.3l-120.7 274 3.3 1.5 117.4-275.5"/><path fill="#020303" d="M328.8 182.3L446.1-93.2l-3.4-1.5-113.9 277"/><path fill="#1A1A1A" d="M328.8 182.3L211.4 457.8l3.3 1.5 114.1-277"/><path fill="#020303" d="M328.8 182.3l114-277-3.3-1.4-110.7 278.4"/><path fill="#1A1A1A" d="M328.8 182.3l-114 277 3.4 1.4 110.6-278.4"/><path fill="#020303" d="M328.8 182.3L439.4-96.1l-3.4-1.4-107.2 279.8"/><path fill="#1A1A1A" d="M328.8 182.3L218.1 460.7l3.4 1.4 107.3-279.8"/><path fill="#020303" d="M328.8 182.3L436.1-97.5l-3.4-1.3-103.9 281.1"/><path fill="#1A1A1A" d="M328.8 182.3L221.5 462l3.4 1.3 103.9-281"/><path fill="#020303" d="M328.8 182.3L432.7-98.8l-3.4-1.3-100.5 282.4"/><path fill="#1A1A1A" d="M328.8 182.3l-104 281.1 3.4 1.3 100.6-282.4"/><path fill="#020303" d="M328.8 182.3l100.5-282.4-3.4-1.2-97.1 283.6"/><path fill="#1A1A1A" d="M328.8 182.3L228.3 464.6l3.4 1.2 97.1-283.5"/><path fill="#010202" d="M328.8 182.3l97.1-283.6-3.4-1.2-93.7 284.8"/><path fill="#1B1B1B" d="M328.8 182.3l-97.1 283.6 3.4 1.2 93.7-284.8"/><path fill="#010202" d="M328.8 182.3l93.6-284.8-3.4-1.2-90.2 286"/><path fill="#1B1B1B" d="M328.8 182.3l-93.7 284.8 3.4 1.2 90.3-286"/><path fill="#010202" d="M328.8 182.3l90.2-286-3.5-1.1-86.7 287.1"/><path fill="#1B1B1B" d="M328.8 182.3l-90.2 286 3.5 1.1 86.7-287.1"/><path fill="#010202" d="M328.8 182.3l86.7-287.1-3.5-1.1-83.2 288.2"/><path fill="#1B1B1B" d="M328.8 182.3L242 469.4l3.5 1.1 83.3-288.2"/></mask><path mask="url(#b)" fill="#35679A" d="M76 28.4h505.5v307.8H76z"/><path fill="#FFF" d="M583.1 26.8v310.9H74.5l2.5-1.5h504.5V28.4h-1z"/><path fill="#CDCCCC" d="M0 353.3C.2 368 12 380 26.5 380h610.6c14.4 0 26.3-12 26.5-26.7H0z"/><linearGradient id="c" gradientUnits="userSpaceOnUse" x1="361.758" y1="196.663" x2="361.758" y2="216.101" gradientTransform="matrix(.8938 0 0 -.8938 8.535 555.736)"><stop offset="0" stop-color="#676767"/><stop offset="1" stop-color="#676767" stop-opacity=".25"/></linearGradient><path opacity=".74" fill="url(#c)" enable-background="new" d="M662.1 362.6c-3.9 10.1-13.7 17.4-25 17.4H26.6c-11.3 0-21-7.2-25-17.4h660.5z"/><path fill="#F5F5F5" d="M74.5 26.8h508.6v310.9H74.5V26.8zm1.5 1.6h505.5v307.8H76V28.4z"/><path fill="#4FB050" d="M74.5 26.8h508.6v49.4H74.5z"/><path fill="#E0E0E0" d="M184.7 91.4h377.7v246.3H184.7z"/><path opacity=".2" fill="#010202" enable-background="new" d="M88.4 40.3h153.3v22.4H88.4z"/><path fill="#FFF" d="M188 94.7h370.5v243H188z"/><path opacity=".1" fill="#010202" enable-background="new" d="M198 106.6h153.3V129H198z"/><path fill="#A6D2A7" d="M80.9 91.4h96.6v25.3H80.9zM80.9 129h96.6v25.3H80.9zM80.9 163.6h96.6v25.3H80.9zM80.9 201.2h96.6v25.3H80.9z"/><path opacity=".4" fill="#FFF" enable-background="new" d="M341.6 22.6H316c-3.1 0-5.7-2.6-5.7-5.8 0-3.2 2.5-5.8 5.7-5.8h25.5c3.1 0 5.7 2.6 5.7 5.8 0 3.2-2.5 5.8-5.6 5.8z"/><ellipse fill="#010202" cx="341.2" cy="16.8" rx="4.7" ry="4.8"/><path opacity=".15" fill="#FFF" enable-background="new" d="M344.5 0h245.8c10.5 0 19 8.7 19 19.4v217.2"/><path d="M93.3 45.5h-5v-1.8h12.1v1.8h-5v14.6h-2.1V45.5zM104.4 43.7v9.7c0 3.7 1.6 5.2 3.8 5.2 2.4 0 4-1.6 4-5.2v-9.7h2.1v9.5c0 5-2.6 7.1-6.2 7.1-3.4 0-5.9-1.9-5.9-7v-9.6h2.2zM131.6 52.4h-6.4v5.9h7.1v1.8h-9.2V43.7h8.8v1.8h-6.7v5.2h6.4v1.7zM148.9 52.9c-.1-2.3-.3-5-.2-7.1h-.1c-.6 1.9-1.2 4-2.1 6.2l-2.9 7.9H142l-2.6-7.8c-.8-2.3-1.4-4.4-1.9-6.4 0 2-.2 4.8-.3 7.2l-.4 7h-2l1.1-16.4h2.7l2.8 7.9c.7 2 1.2 3.8 1.7 5.5h.1c.4-1.7 1-3.4 1.7-5.5l2.9-7.9h2.7l1 16.4h-2.1l-.5-7zM154.6 43.9c1-.2 2.4-.3 4.1-.3 2.1 0 3.6.5 4.6 1.4.9.8 1.4 2 1.4 3.4 0 1.5-.4 2.6-1.3 3.5-1.1 1.2-2.9 1.8-5 1.8-.6 0-1.2 0-1.7-.1v6.6h-2.1V43.9zm2.1 7.9c.5.1 1 .2 1.7.2 2.5 0 4.1-1.2 4.1-3.5 0-2.2-1.5-3.2-3.9-3.2-.9 0-1.6.1-2 .2v6.3zM167.5 43.9c1.1-.2 2.6-.3 4.1-.3 2.3 0 3.7.4 4.7 1.3.8.7 1.3 1.8 1.3 3.1 0 2.2-1.4 3.6-3.1 4.2v.1c1.3.4 2 1.6 2.4 3.3.5 2.3.9 3.9 1.3 4.5H176c-.3-.5-.6-1.9-1.1-3.9-.5-2.3-1.4-3.1-3.3-3.2h-2v7.1h-2.1V43.9zm2.1 7.5h2.2c2.3 0 3.7-1.2 3.7-3.1 0-2.1-1.5-3-3.8-3.1-1 0-1.7.1-2.1.2v6zM189 52.4h-6.4v5.9h7.1v1.8h-9.2V43.7h8.8v1.8h-6.7v5.2h6.4v1.7zM192.2 57.5c.9.6 2.3 1.1 3.8 1.1 2.2 0 3.4-1.1 3.4-2.8 0-1.5-.9-2.4-3.1-3.3-2.7-.9-4.3-2.3-4.3-4.6 0-2.5 2.1-4.4 5.3-4.4 1.7 0 2.9.4 3.6.8l-.6 1.7c-.5-.3-1.6-.8-3.1-.8-2.2 0-3.1 1.3-3.1 2.5 0 1.5 1 2.3 3.3 3.2 2.8 1.1 4.2 2.4 4.2 4.8 0 2.5-1.9 4.7-5.7 4.7-1.6 0-3.3-.5-4.2-1l.5-1.9zM207.1 54.9l-1.7 5.1h-2.2l5.6-16.4h2.5l5.6 16.4h-2.3l-1.7-5.1h-5.8zm5.4-1.6l-1.6-4.7c-.4-1.1-.6-2-.8-3-.2 1-.5 2-.8 3l-1.6 4.7h4.8zM199.8 110.3c.9-.2 2.4-.3 3.9-.3 2.1 0 3.5.4 4.5 1.2.8.6 1.4 1.6 1.4 2.9 0 1.6-1 3-2.8 3.6 1.6.4 3.4 1.7 3.4 4.1 0 1.4-.6 2.5-1.4 3.3-1.1 1-3 1.5-5.7 1.5-1.5 0-2.6-.1-3.3-.2v-16.1zm2.1 6.7h1.9c2.2 0 3.5-1.2 3.5-2.7 0-1.9-1.5-2.7-3.6-2.7-1 0-1.5.1-1.9.1v5.3zm0 7.8c.4.1 1 .1 1.8.1 2.2 0 4.2-.8 4.2-3.2 0-2.2-1.9-3.2-4.2-3.2H202v6.3zM219.4 126.4l-.2-1.5h-.1c-.7.9-1.9 1.7-3.6 1.7-2.4 0-3.6-1.7-3.6-3.4 0-2.8 2.5-4.4 7.1-4.4v-.2c0-1-.3-2.7-2.7-2.7-1.1 0-2.2.3-3.1.9l-.5-1.4c1-.6 2.4-1 3.9-1 3.6 0 4.5 2.5 4.5 4.8v4.4c0 1 0 2 .2 2.8h-1.9zm-.3-6c-2.3 0-5 .4-5 2.6 0 1.4.9 2 2 2 1.5 0 2.5-1 2.8-2 .1-.2.1-.5.1-.7v-1.9zM224.6 109.2h2.1v17.2h-2.1v-17.2zM236.9 126.4l-.2-1.5h-.1c-.7.9-1.9 1.7-3.6 1.7-2.4 0-3.6-1.7-3.6-3.4 0-2.8 2.5-4.4 7.1-4.4v-.2c0-1-.3-2.7-2.7-2.7-1.1 0-2.2.3-3.1.9l-.5-1.4c1-.6 2.4-1 3.9-1 3.6 0 4.5 2.5 4.5 4.8v4.4c0 1 0 2 .2 2.8h-1.9zm-.4-6c-2.3 0-5 .4-5 2.6 0 1.4.9 2 2 2 1.5 0 2.5-1 2.8-2 .1-.2.1-.5.1-.7v-1.9zM242.1 117.8c0-1.2 0-2.2-.1-3.2h1.9l.1 1.9c.6-1.1 1.9-2.2 3.9-2.2 1.6 0 4.2 1 4.2 5v7H250v-6.8c0-1.9-.7-3.5-2.7-3.5-1.4 0-2.5 1-2.9 2.2-.1.3-.1.6-.1 1v7.1h-2.1v-8.5zM263.9 126c-.6.3-1.8.7-3.4.7-3.5 0-5.9-2.4-5.9-6s2.5-6.2 6.3-6.2c1.3 0 2.4.3 3 .6l-.5 1.7c-.5-.3-1.3-.6-2.5-.6-2.7 0-4.2 2-4.2 4.4 0 2.7 1.7 4.4 4.1 4.4 1.2 0 2-.3 2.6-.6l.5 1.6zM267.4 120.9c0 2.9 1.9 4.1 4 4.1 1.5 0 2.5-.3 3.3-.6l.4 1.5c-.8.3-2 .7-3.9.7-3.6 0-5.8-2.4-5.8-5.9s2.1-6.3 5.5-6.3c3.8 0 4.9 3.4 4.9 5.5 0 .4 0 .8-.1 1h-8.3zm6.3-1.5c0-1.4-.6-3.5-3-3.5-2.2 0-3.1 2-3.3 3.5h6.3zM277.9 116.6c0-.9.6-1.5 1.5-1.5s1.4.6 1.4 1.5c0 .8-.6 1.5-1.5 1.5-.8 0-1.4-.7-1.4-1.5zm0 8.6c0-.9.6-1.5 1.5-1.5s1.4.6 1.4 1.5-.6 1.5-1.5 1.5c-.8 0-1.4-.7-1.4-1.5z"/><path fill="#A6D2A7" d="M198 139h352.1v24.6H198z"/><path opacity=".1" fill="#010202" enable-background="new" d="M197.2 188.9h352.1v24.6H197.2zM197.2 238.8h352.1v24.6H197.2zM198 291.2h352.1v24.6H198zM197.2 333.8h352.1v14.6H197.2z"/><path fill="#A6D2A7" d="M297 139.3h6.1v198.6H297z"/><g><path d="M207 178.1l-1.4 4.2h-1.8l4.6-13.5h2.1l4.6 13.5h-1.9l-1.4-4.2H207zm4.4-1.4l-1.3-3.9c-.3-.9-.5-1.7-.7-2.5-.2.8-.4 1.6-.7 2.4l-1.3 3.9h4zM223.7 181.9c-.5.2-1.5.6-2.8.6-2.9 0-4.8-2-4.8-4.9 0-3 2-5.1 5.2-5.1 1 0 2 .3 2.4.5l-.4 1.4c-.4-.2-1.1-.5-2-.5-2.2 0-3.4 1.6-3.4 3.7 0 2.2 1.4 3.6 3.4 3.6 1 0 1.7-.3 2.2-.5l.2 1.2zM228.1 169.8v2.8h2.5v1.3h-2.5v5.2c0 1.2.3 1.9 1.3 1.9.5 0 .8-.1 1-.1l.1 1.3c-.3.1-.9.2-1.6.2-.8 0-1.5-.3-1.9-.7-.5-.5-.7-1.4-.7-2.5V174h-1.5v-1.3h1.5v-2.3l1.8-.6zM234.6 169.9c0 .6-.4 1.1-1.1 1.1-.6 0-1.1-.5-1.1-1.1 0-.6.5-1.1 1.1-1.1.7 0 1.1.5 1.1 1.1zm-2 12.4v-9.7h1.8v9.7h-1.8zM238 172.6l1.9 5.4c.3.9.6 1.7.8 2.5h.1c.2-.8.5-1.6.8-2.5l1.9-5.4h1.8l-3.8 9.7h-1.7l-3.7-9.7h1.9zM255.5 177.4c0 3.6-2.5 5.1-4.8 5.1-2.6 0-4.6-1.9-4.6-5 0-3.2 2.1-5.1 4.8-5.1 2.7 0 4.6 2 4.6 5zm-7.7.1c0 2.1 1.2 3.7 2.9 3.7s2.9-1.6 2.9-3.8c0-1.6-.8-3.7-2.9-3.7-2 0-2.9 1.9-2.9 3.8zM257.5 180.5c.5.3 1.4.7 2.3.7 1.3 0 1.9-.6 1.9-1.4 0-.8-.5-1.3-1.8-1.8-1.7-.6-2.6-1.6-2.6-2.7 0-1.6 1.3-2.8 3.3-2.8 1 0 1.8.3 2.4.6l-.4 1.3c-.4-.2-1.1-.6-2-.6-1 0-1.6.6-1.6 1.3 0 .8.6 1.2 1.8 1.6 1.7.6 2.5 1.5 2.5 2.9 0 1.7-1.3 2.9-3.6 2.9-1.1 0-2-.3-2.7-.7l.5-1.3z"/></g><g opacity=".6"><path d="M204.8 196c.8-.2 2-.3 3.2-.3 1.7 0 2.9.3 3.7 1 .7.5 1.1 1.3 1.1 2.4 0 1.3-.9 2.4-2.3 3 1.3.3 2.8 1.4 2.8 3.4 0 1.2-.5 2-1.1 2.7-.9.9-2.5 1.3-4.7 1.3-1.2 0-2.1-.1-2.7-.2V196zm1.8 5.5h1.6c1.8 0 2.9-1 2.9-2.3 0-1.6-1.2-2.2-3-2.2-.8 0-1.3.1-1.5.1v4.4zm0 6.5c.3.1.8.1 1.5.1 1.8 0 3.5-.7 3.5-2.6 0-1.8-1.6-2.6-3.5-2.6h-1.4v5.1zM221 209.3l-.1-1.2h-.1c-.5.8-1.6 1.4-3 1.4-2 0-3-1.4-3-2.8 0-2.3 2.1-3.6 5.8-3.6v-.2c0-.8-.2-2.2-2.2-2.2-.9 0-1.8.3-2.5.7l-.4-1.2c.8-.5 2-.9 3.2-.9 3 0 3.7 2 3.7 4v3.6c0 .8 0 1.7.2 2.3H221zm-.3-4.9c-1.9 0-4.1.3-4.1 2.2 0 1.1.8 1.7 1.7 1.7 1.3 0 2.1-.8 2.3-1.6.1-.2.1-.4.1-.6v-1.7zM225.3 202.2c0-1 0-1.8-.1-2.6h1.6l.1 1.6c.5-.9 1.6-1.8 3.2-1.8 1.3 0 3.4.8 3.4 4.1v5.8h-1.8v-5.6c0-1.6-.6-2.9-2.2-2.9-1.2 0-2.1.8-2.4 1.8-.1.2-.1.5-.1.8v5.8h-1.8v-7zM243.3 208.9c-.5.2-1.5.6-2.8.6-2.9 0-4.8-2-4.8-4.9 0-3 2-5.1 5.2-5.1 1 0 2 .3 2.4.5l-.4 1.4c-.4-.2-1.1-.5-2-.5-2.2 0-3.4 1.6-3.4 3.7 0 2.2 1.4 3.6 3.4 3.6 1 0 1.7-.3 2.2-.5l.2 1.2zM254 204.4c0 3.6-2.5 5.1-4.8 5.1-2.6 0-4.6-1.9-4.6-5 0-3.2 2.1-5.1 4.8-5.1 2.7 0 4.6 2 4.6 5zm-7.7.1c0 2.1 1.2 3.7 2.9 3.7s2.9-1.6 2.9-3.8c0-1.6-.8-3.7-2.9-3.7-2 0-2.9 1.9-2.9 3.8zM255.9 207.5c.5.3 1.4.7 2.3.7 1.3 0 1.9-.6 1.9-1.4 0-.8-.5-1.3-1.8-1.8-1.7-.6-2.6-1.6-2.6-2.7 0-1.6 1.3-2.8 3.3-2.8 1 0 1.8.3 2.4.6l-.4 1.3c-.4-.2-1.1-.6-2-.6-1 0-1.6.6-1.6 1.3 0 .8.6 1.2 1.8 1.6 1.7.6 2.5 1.5 2.5 2.9 0 1.7-1.3 2.9-3.6 2.9-1.1 0-2-.3-2.7-.7l.5-1.3z"/></g><g opacity=".6"><path d="M214.3 232.9c-.6.3-1.9.6-3.6.6-3.8 0-6.7-2.4-6.7-6.8 0-4.2 2.9-7.1 7-7.1 1.7 0 2.7.4 3.2.6l-.4 1.4c-.7-.3-1.6-.6-2.7-.6-3.2 0-5.3 2-5.3 5.6 0 3.3 1.9 5.4 5.2 5.4 1.1 0 2.1-.2 2.8-.6l.5 1.5zM218.5 220.8v2.8h2.5v1.3h-2.5v5.2c0 1.2.3 1.9 1.3 1.9.5 0 .8-.1 1-.1l.1 1.3c-.3.1-.9.2-1.6.2-.8 0-1.5-.3-1.9-.7-.5-.5-.7-1.4-.7-2.5V225h-1.5v-1.3h1.5v-2.3l1.8-.6zM228.4 233.3l-.1-1.2h-.1c-.5.8-1.6 1.4-3 1.4-2 0-3-1.4-3-2.8 0-2.3 2.1-3.6 5.8-3.6v-.2c0-.8-.2-2.2-2.2-2.2-.9 0-1.8.3-2.5.7l-.4-1.2c.8-.5 2-.9 3.2-.9 3 0 3.7 2 3.7 4v3.6c0 .8 0 1.7.2 2.3h-1.6zm-.3-4.9c-1.9 0-4.1.3-4.1 2.2 0 1.1.8 1.7 1.7 1.7 1.3 0 2.1-.8 2.3-1.6.1-.2.1-.4.1-.6v-1.7zM232.4 231.5c.5.3 1.4.7 2.3.7 1.3 0 1.9-.6 1.9-1.4 0-.8-.5-1.3-1.8-1.8-1.7-.6-2.6-1.6-2.6-2.7 0-1.6 1.3-2.8 3.3-2.8 1 0 1.8.3 2.4.6l-.4 1.3c-.4-.2-1.1-.6-2-.6-1 0-1.6.6-1.6 1.3 0 .8.6 1.2 1.8 1.6 1.7.6 2.5 1.5 2.5 2.9 0 1.7-1.3 2.9-3.6 2.9-1.1 0-2-.3-2.7-.7l.5-1.3zM245.6 223.6l1.4 2.1c.4.5.7 1 1 1.6h.1c.3-.6.6-1.1 1-1.6l1.4-2.1h1.9l-3.3 4.7 3.4 5h-2l-1.4-2.2c-.4-.6-.7-1.1-1-1.7-.3.6-.7 1.1-1 1.7l-1.4 2.2h-1.9l3.4-4.9-3.3-4.7h1.7zM267.8 232.9c-.6.3-1.9.6-3.6.6-3.8 0-6.7-2.4-6.7-6.8 0-4.2 2.9-7.1 7-7.1 1.7 0 2.7.4 3.2.6l-.4 1.4c-.7-.3-1.6-.6-2.7-.6-3.2 0-5.3 2-5.3 5.6 0 3.3 1.9 5.4 5.2 5.4 1.1 0 2.1-.2 2.8-.6l.5 1.5zM269.8 233.3c0-.7.1-1.6.1-2.5v-11.7h1.7v6.1c.6-1.1 1.7-1.8 3.3-1.8 2.4 0 4.1 2 4.1 4.9 0 3.5-2.2 5.2-4.3 5.2-1.4 0-2.5-.5-3.2-1.8h-.1l-.1 1.6h-1.5zm1.8-3.9c0 .2 0 .4.1.6.3 1.2 1.4 2.1 2.6 2.1 1.8 0 2.9-1.5 2.9-3.7 0-1.9-1-3.6-2.9-3.6-1.2 0-2.3.8-2.7 2.2 0 .2-.1.4-.1.7v1.7zM281.3 226.6c0-1.1 0-2.1-.1-3h1.5l.1 1.9h.1c.4-1.3 1.5-2.1 2.7-2.1.2 0 .3 0 .5.1v1.7c-.2 0-.4-.1-.6-.1-1.2 0-2.1.9-2.4 2.3 0 .2-.1.5-.1.8v5.2h-1.7v-6.8z"/></g><g opacity=".6"><path d="M206.6 244.9v13.5h-1.7v-13.5h1.7zM209.8 251.3c0-1 0-1.8-.1-2.6h1.6l.1 1.6c.5-.9 1.6-1.8 3.2-1.8 1.3 0 3.4.8 3.4 4.1v5.8h-1.8v-5.6c0-1.6-.6-2.9-2.2-2.9-1.2 0-2.1.8-2.4 1.8-.1.2-.1.5-.1.8v5.8h-1.8v-7zM221.3 248.7l1.9 5.4c.3.9.6 1.7.8 2.5h.1c.2-.8.5-1.6.8-2.5l1.9-5.4h1.8l-3.8 9.7h-1.7l-3.7-9.7h1.9zM231 253.9c0 2.4 1.6 3.4 3.3 3.4 1.3 0 2-.2 2.7-.5l.3 1.3c-.6.3-1.7.6-3.2.6-3 0-4.8-2-4.8-4.9s1.7-5.2 4.5-5.2c3.2 0 4 2.8 4 4.6 0 .4 0 .6-.1.8H231zm5.2-1.3c0-1.1-.5-2.9-2.4-2.9-1.8 0-2.6 1.6-2.7 2.9h5.1zM240 251.3c0-1 0-1.8-.1-2.6h1.6l.1 1.6c.5-.9 1.6-1.8 3.2-1.8 1.3 0 3.4.8 3.4 4.1v5.8h-1.8v-5.6c0-1.6-.6-2.9-2.2-2.9-1.2 0-2.1.8-2.4 1.8-.1.2-.1.5-.1.8v5.8H240v-7zM253.2 245.9v2.8h2.5v1.3h-2.5v5.2c0 1.2.3 1.9 1.3 1.9.5 0 .8-.1 1-.1l.1 1.3c-.3.1-.9.2-1.6.2-.8 0-1.5-.3-1.9-.7-.5-.5-.7-1.4-.7-2.5V250H250v-1.3h1.5v-2.3l1.7-.5zM263 258.4l-.1-1.2h-.1c-.5.8-1.6 1.4-3 1.4-2 0-3-1.4-3-2.8 0-2.3 2.1-3.6 5.8-3.6v-.2c0-.8-.2-2.2-2.2-2.2-.9 0-1.8.3-2.5.7l-.4-1.2c.8-.5 2-.9 3.2-.9 3 0 3.7 2 3.7 4v3.6c0 .8 0 1.7.2 2.3H263zm-.2-4.9c-1.9 0-4.1.3-4.1 2.2 0 1.1.8 1.7 1.7 1.7 1.3 0 2.1-.8 2.3-1.6.1-.2.1-.4.1-.6v-1.7zM267.3 251.7c0-1.1 0-2.1-.1-3h1.5l.1 1.9h.1c.4-1.3 1.5-2.1 2.7-2.1.2 0 .3 0 .5.1v1.7c-.2 0-.4-.1-.6-.1-1.2 0-2.1.9-2.4 2.3 0 .2-.1.5-.1.8v5.2h-1.7v-6.8zM275.9 246c0 .6-.4 1.1-1.1 1.1-.6 0-1.1-.5-1.1-1.1 0-.6.5-1.1 1.1-1.1.7 0 1.1.5 1.1 1.1zm-2 12.4v-9.7h1.8v9.7h-1.8zM287.4 253.5c0 3.6-2.5 5.1-4.8 5.1-2.6 0-4.6-1.9-4.6-5 0-3.2 2.1-5.1 4.8-5.1 2.7 0 4.6 2 4.6 5zm-7.7.1c0 2.1 1.2 3.7 2.9 3.7s2.9-1.6 2.9-3.8c0-1.6-.8-3.7-2.9-3.7-2 0-2.9 1.9-2.9 3.8zM289.4 256.6c.5.3 1.4.7 2.3.7 1.3 0 1.9-.6 1.9-1.4 0-.8-.5-1.3-1.8-1.8-1.7-.6-2.6-1.6-2.6-2.7 0-1.6 1.3-2.8 3.3-2.8 1 0 1.8.3 2.4.6l-.4 1.3c-.4-.2-1.1-.6-2-.6-1 0-1.6.6-1.6 1.3 0 .8.6 1.2 1.8 1.6 1.7.6 2.5 1.5 2.5 2.9 0 1.7-1.3 2.9-3.6 2.9-1.1 0-2-.3-2.7-.7l.5-1.3z"/></g><g opacity=".6"><path d="M204.8 285.4v-13.5h1.9l4.3 6.8c1 1.6 1.8 3 2.4 4.4-.2-1.8-.2-3.4-.2-5.5V272h1.6v13.5H213l-4.3-6.8c-.9-1.5-1.8-3-2.5-4.5h-.1c.1 1.7.1 3.3.1 5.6v5.8h-1.4zM226.7 280.5c0 3.6-2.5 5.1-4.8 5.1-2.6 0-4.6-1.9-4.6-5 0-3.2 2.1-5.1 4.8-5.1 2.7 0 4.6 2 4.6 5zm-7.7.1c0 2.1 1.2 3.7 2.9 3.7s2.9-1.6 2.9-3.8c0-1.6-.8-3.7-2.9-3.7-2 0-2.9 1.9-2.9 3.8zM240.1 285c-.5.2-1.5.6-2.8.6-2.9 0-4.8-2-4.8-4.9 0-3 2-5.1 5.2-5.1 1 0 2 .3 2.4.5l-.4 1.4c-.4-.2-1.1-.5-2-.5-2.2 0-3.4 1.6-3.4 3.7 0 2.2 1.4 3.6 3.4 3.6 1 0 1.7-.3 2.2-.5l.2 1.2zM250.8 280.5c0 3.6-2.5 5.1-4.8 5.1-2.6 0-4.6-1.9-4.6-5 0-3.2 2.1-5.1 4.8-5.1 2.7 0 4.6 2 4.6 5zm-7.7.1c0 2.1 1.2 3.7 2.9 3.7s2.9-1.6 2.9-3.8c0-1.6-.8-3.7-2.9-3.7-2 0-2.9 1.9-2.9 3.8zM253 278.7c0-1.1 0-2.1-.1-3h1.5l.1 1.9h.1c.4-1.3 1.5-2.1 2.7-2.1.2 0 .3 0 .5.1v1.7c-.2 0-.4-.1-.6-.1-1.2 0-2.1.9-2.4 2.3 0 .2-.1.5-.1.8v5.2H253v-6.8zM259.6 278.7c0-1.1 0-2.1-.1-3h1.5l.1 1.9h.1c.4-1.3 1.5-2.1 2.7-2.1.2 0 .3 0 .5.1v1.7c-.2 0-.4-.1-.6-.1-1.2 0-2.1.9-2.4 2.3 0 .2-.1.5-.1.8v5.2h-1.7v-6.8zM266.2 278.3c0-1 0-1.8-.1-2.6h1.6l.1 1.6c.5-.9 1.6-1.8 3.2-1.8 1.3 0 3.4.8 3.4 4.1v5.8h-1.8v-5.6c0-1.6-.6-2.9-2.2-2.9-1.2 0-2.1.8-2.4 1.8-.1.2-.1.5-.1.8v5.8h-1.8v-7zM279.4 272.9v2.8h2.5v1.3h-2.5v5.2c0 1.2.3 1.9 1.3 1.9.5 0 .8-.1 1-.1l.1 1.3c-.3.1-.9.2-1.6.2-.8 0-1.5-.3-1.9-.7-.5-.5-.7-1.4-.7-2.5V277h-1.5v-1.3h1.5v-2.3l1.8-.5zM283.6 283.6c.5.3 1.4.7 2.3.7 1.3 0 1.9-.6 1.9-1.4 0-.8-.5-1.3-1.8-1.8-1.7-.6-2.6-1.6-2.6-2.7 0-1.6 1.3-2.8 3.3-2.8 1 0 1.8.3 2.4.6l-.4 1.3c-.4-.2-1.1-.6-2-.6-1 0-1.6.6-1.6 1.3 0 .8.6 1.2 1.8 1.6 1.7.6 2.5 1.5 2.5 2.9 0 1.7-1.3 2.9-3.6 2.9-1.1 0-2-.3-2.7-.7l.5-1.3z"/></g><g><path opacity=".6" d="M211.8 303.1h-5.2v4.9h5.8v1.5h-7.6V296h7.3v1.5h-5.5v4.3h5.2v1.3zM222.9 295.2v11.7c0 .9 0 1.8.1 2.5h-1.6l-.1-1.7c-.5 1.1-1.7 1.9-3.3 1.9-2.3 0-4.1-2-4.1-4.9 0-3.2 2-5.2 4.3-5.2 1.5 0 2.5.7 2.9 1.5v-5.8h1.8zm-1.8 8.5c0-.2 0-.5-.1-.7-.3-1.1-1.2-2-2.5-2-1.8 0-2.9 1.6-2.9 3.7 0 2 1 3.6 2.9 3.6 1.2 0 2.3-.8 2.6-2.1.1-.2.1-.5.1-.8v-1.7zM227.8 297c0 .6-.4 1.1-1.1 1.1-.6 0-1.1-.5-1.1-1.1 0-.6.5-1.1 1.1-1.1.7 0 1.1.5 1.1 1.1zm-2 12.4v-9.7h1.8v9.7h-1.8zM230.7 309.4v-8.3h-1.4v-1.3h1.4v-.5c0-2.6 1.5-4.2 4.2-4.2.9 0 2 .3 2.5.6l-.5 1.3c-.4-.3-1.2-.6-2-.6-1.9 0-2.4 1.3-2.4 2.8v.5h5.6v9.7h-1.7v-8.3h-3.9v8.3h-1.8zM247.9 309c-.5.2-1.5.6-2.8.6-2.9 0-4.8-2-4.8-4.9 0-3 2-5.1 5.2-5.1 1 0 2 .3 2.4.5l-.4 1.4c-.4-.2-1.1-.5-2-.5-2.2 0-3.4 1.6-3.4 3.7 0 2.2 1.4 3.6 3.4 3.6 1 0 1.7-.3 2.2-.5l.2 1.2zM251.9 297c0 .6-.4 1.1-1.1 1.1-.6 0-1.1-.5-1.1-1.1 0-.6.5-1.1 1.1-1.1.7 0 1.1.5 1.1 1.1zm-2 12.4v-9.7h1.8v9.7h-1.8zM263.4 304.5c0 3.6-2.5 5.1-4.8 5.1-2.6 0-4.6-1.9-4.6-5 0-3.2 2.1-5.1 4.8-5.1 2.7 0 4.6 2 4.6 5zm-7.7.1c0 2.1 1.2 3.7 2.9 3.7s2.9-1.6 2.9-3.8c0-1.6-.8-3.7-2.9-3.7-2 0-2.9 1.9-2.9 3.8zM265.3 307.6c.5.3 1.4.7 2.3.7 1.3 0 1.9-.6 1.9-1.4 0-.8-.5-1.3-1.8-1.8-1.7-.6-2.6-1.6-2.6-2.7 0-1.6 1.3-2.8 3.3-2.8 1 0 1.8.3 2.4.6l-.4 1.3c-.4-.2-1.1-.6-2-.6-1 0-1.6.6-1.6 1.3 0 .8.6 1.2 1.8 1.6 1.7.6 2.5 1.5 2.5 2.9 0 1.7-1.3 2.9-3.6 2.9-1.1 0-2-.3-2.7-.7l.5-1.3z"/></g><path fill="#A6D2A7" d="M400 139.1h6.1v198.6H400z"/></svg>