<svg xmlns="http://www.w3.org/2000/svg" viewBox="36.9 189.7 911.3 219"><path fill="#01002A" d="M263.2 300.1c1.6 1.3 3.3 2.4 5.1 3.4 1.9.9 3.8 1.8 5.7 2.5 2 .7 3.9 1.3 5.9 1.6 2 .3 3.9.5 5.7.5 12.4 0 18.6-4.6 18.6-14 0-2.1-.4-4-1.3-5.5-.8-1.6-2.1-2.9-3.8-4.2-1.7-1.3-3.6-2.4-5.9-3.6-2.3-1.1-4.8-2.2-7.8-3.5-3.9-1.6-7.1-3.2-10-4.8-2.7-1.7-5-3.4-6.8-5.4-1.8-1.9-3.1-4.1-4-6.4-.8-2.3-1.3-4.9-1.3-7.9 0-3.7.8-7 2.4-9.9s3.8-5.4 6.5-7.4 5.9-3.6 9.4-4.6c3.6-1 7.4-1.6 11.2-1.6 7.2 0 13.5 1.4 18.9 4.1v11c-6.3-4-13-6-20.3-6-2.6 0-5 .3-7.1.9s-4 1.6-5.5 2.7c-1.6 1.2-2.7 2.6-3.6 4.3-.8 1.7-1.3 3.5-1.3 5.5 0 2.1.3 3.9.9 5.5.6 1.6 1.7 2.9 3 4.2 1.4 1.3 3.1 2.4 5.4 3.6 2.2 1.2 4.8 2.4 8.1 3.7 4 1.7 7.5 3.3 10.4 4.8 2.9 1.6 5.4 3.4 7.2 5.3 1.9 1.9 3.4 4 4.2 6.3.9 2.3 1.4 5 1.4 8.1 0 3.8-.7 7.1-2.3 10.1-1.6 2.9-3.7 5.5-6.4 7.5s-6 3.6-9.7 4.5c-3.7 1-7.8 1.6-12.1 1.6-8.4 0-15.5-1.8-21.3-5.3v-11.8h.5zM340.9 210.4c-2 0-3.8-.7-5.3-2.1s-2.2-3.3-2.2-5.4c0-2.1.7-3.9 2.2-5.3s3.3-2.1 5.3-2.1c1 0 2 .2 2.9.5.9.3 1.7.8 2.4 1.5.6.6 1.3 1.5 1.7 2.3.4.9.6 1.9.6 2.9s-.2 2-.5 2.9c-.4.9-.9 1.7-1.7 2.4-.7.6-1.5 1.3-2.4 1.6-.9.7-1.8.8-3 .8zm-5.1 104.7v-83.5h10.4v83.5h-10.4zM478.2 315.1V266c0-5-.4-9.2-1.2-12.7s-2-6.3-3.6-8.4c-1.6-2.2-3.7-3.8-6.1-4.7-2.5-.9-5.5-1.5-8.8-1.5-3 0-5.9.7-8.6 2.2-2.7 1.5-5.1 3.5-7.1 6s-3.7 5.5-4.8 8.9-1.8 7.1-1.8 11.1v48.3h-10.4V265c0-17.5-6.7-26.3-20.2-26.3-3.1 0-6 .7-8.6 2.1s-5 3.4-6.9 5.9c-2 2.5-3.6 5.5-4.6 9-1.2 3.5-1.7 7.3-1.7 11.7v47.9h-10.4v-83.5h10.4V245h.3c5.9-10.3 14.4-15.5 25.7-15.5 2.9 0 5.7.4 8.3 1.4s4.9 2.1 7 3.8c2.1 1.6 3.9 3.6 5.4 5.8 1.5 2.2 2.6 4.7 3.4 7.4 2.9-5.9 6.7-10.4 11.4-13.5 4.7-3.1 10-4.6 16-4.6 18.3 0 27.5 11.3 27.5 33.9v51.6h-10.6zM568.4 315.1V301h-.4c-5.7 10.8-14.4 16.2-26.4 16.2-19.8 0-29.7-12.1-29.7-36.3v-49.1h10.4v47c0 10 1.8 17.4 5.4 22.2 3.6 4.8 9 7.1 16.4 7.1 3.6 0 6.8-.7 9.9-2.1 2.9-1.4 5.6-3.4 7.7-5.9 2.1-2.5 3.8-5.6 5-9.1 1.2-3.6 1.8-7.5 1.8-11.8v-47.7h10.4V315h-10.5v.1zM605.6 315.1V191.4H616V315h-10.4v.1zM691.1 315.1v-14.8h-.3c-2.7 5.4-6.4 9.5-11.1 12.4-4.7 2.9-10 4.4-16 4.4-4 0-7.7-.5-10.9-1.7s-6-2.7-8.2-4.8c-2.2-2.1-4-4.6-5.3-7.6s-1.8-6.2-1.8-9.7c0-7.6 2.3-13.5 7-18.1 4.7-4.5 11.8-7.5 21.2-8.7l25.4-3.7c0-16.1-6.2-24-18.7-24-9.8 0-18.8 3.6-27.1 10.7v-11.4c1.8-1.3 3.7-2.4 5.9-3.4 2.2-1.1 4.5-1.9 6.9-2.6 2.4-.7 4.9-1.3 7.6-1.7 2.6-.4 5.1-.6 7.6-.6 9.3 0 16.3 2.6 21.1 7.9 4.7 5.3 7.1 13 7.1 23.3v54.3H691v-.2zm-21.5-40.5c-3.8.5-6.9 1.3-9.7 2-2.7.7-4.8 1.9-6.6 3.3-1.8 1.4-3 3.2-3.9 5.1-.8 2-1.3 4.5-1.3 7.6 0 2.2.4 4.3 1.2 6.2.8 1.9 1.9 3.6 3.5 4.9 1.5 1.4 3.4 2.4 5.5 3.3 2.1.7 4.6 1.2 7.4 1.2 3.7 0 7.1-.7 10.2-2.1 3.2-1.4 5.8-3.4 8.1-5.9 2.2-2.5 4-5.5 5.3-8.9s1.9-7.2 1.9-11.3v-8.2l-21.6 2.8z"/><path fill="#3F5FFF" d="M739.3 269.6V315h-10.8V198.2h30.1c6.2 0 11.5.7 16.3 2.3 4.7 1.6 8.7 3.7 12 6.6 3.3 2.8 5.8 6.4 7.5 10.6 1.7 4.2 2.5 8.9 2.5 14.4s-.9 10.5-2.8 15c-1.9 4.6-4.6 8.6-8.2 11.9-3.6 3.4-7.9 6-13 7.9-5.1 1.9-10.9 2.8-17.3 2.8h-16.2v-.1zm0-61.5v51.6h15.5c10.1 0 17.7-2.3 22.9-7 5.1-4.7 7.9-11.2 7.9-19.8 0-16.5-9.7-24.7-28.9-24.7h-17.4zM860.3 242.3c-2.4-1.8-5.6-2.7-9.4-2.7-2.7 0-5.3.5-7.4 1.6-2.1 1.1-4 2.5-5.6 4.3-1.6 1.8-2.9 3.9-4.1 6.2-1.2 2.4-2 4.8-2.7 7.4-.7 2.5-1.2 5.1-1.5 7.8-.3 2.6-.4 5-.4 7.5V315h-10.4v-83.5h10.4v17.9h.3c.9-3 2.2-5.8 3.7-8.2 1.5-2.4 3.3-4.4 5.1-6.1 2-1.7 4.1-2.9 6.4-3.8 2.3-.8 4.7-1.3 7.4-1.3 1.7 0 3.1.1 4.5.3 1.4.2 2.5.5 3.7.9v11.1zM907.4 317c-6.2 0-11.8-1.1-16.7-3.1-4.9-2.1-9.1-5-12.6-8.8-3.5-3.8-6.2-8.3-8-13.5-1.9-5.3-2.7-11.1-2.7-17.5 0-6.9.9-13.2 2.9-18.7s4.7-10.2 8.4-14c3.6-3.9 8-6.7 13.1-8.7 5.1-2 10.8-3 17.1-3 6 0 11.4.9 16.3 2.9 4.8 2 8.9 4.8 12.3 8.6 3.4 3.8 6 8.3 7.8 13.6 1.8 5.4 2.7 11.6 2.7 18.4 0 6.5-.9 12.5-2.8 17.8-1.9 5.4-4.5 10-8.1 13.9-3.5 3.9-7.8 6.8-12.7 8.9-4.9 2.1-10.7 3.2-17 3.2zm.9-78.3c-4.5 0-8.7.8-12.4 2.4s-6.8 3.9-9.5 6.9c-2.6 3-4.6 6.7-6.1 11.1-1.4 4.4-2.1 9.3-2.1 14.9 0 5.3.7 10 2.1 14.1 1.4 4.2 3.4 7.8 6 10.8 2.6 2.9 5.7 5.3 9.4 6.9 3.7 1.6 7.9 2.4 12.4 2.4 4.7 0 8.8-.7 12.4-2.3 3.6-1.6 6.6-3.8 9.1-6.7 2.5-2.9 4.4-6.6 5.7-10.9 1.3-4.3 1.9-9.2 1.9-14.7 0-11.2-2.5-19.8-7.5-25.8-5-6.2-12.2-9.1-21.4-9.1z"/><g fill="#01002A"><path d="M299.5 389.7l-6.4-17.1h-24.8l-6.2 17.1h-6l22.1-57.9h5.4l21.9 57.9h-6zM281.9 342c-.2-.5-.4-1.1-.6-1.8-.2-.6-.4-1.5-.5-2.3h-.2c-.2.8-.3 1.6-.5 2.3-.2.6-.4 1.3-.6 1.8l-9.3 25.7h21.2l-9.5-25.7zM318.9 383.1v25.6h-5.1v-60.3h5.1v7.9h.2c1.6-2.8 3.6-5 6.2-6.6 2.5-1.5 5.5-2.3 8.7-2.3 2.6 0 5 .5 7 1.5 2.1.9 3.9 2.3 5.3 4.1 1.5 1.8 2.5 3.9 3.4 6.4.7 2.5 1.2 5.4 1.2 8.4 0 3.5-.4 6.5-1.3 9.3-.8 2.8-2.1 5.3-3.7 7.2-1.6 2-3.6 3.6-5.9 4.7-2.3 1.2-4.9 1.7-7.8 1.7-5.8 0-10.2-2.5-13-7.7h-.3zm0-10.5c0 1.9.3 3.7.9 5.4.6 1.7 1.5 3.1 2.6 4.4s2.5 2.2 4.1 2.9c1.6.7 3.4 1 5.4 1 2.1 0 4-.4 5.6-1.3 1.7-.8 3-2.1 4.3-3.8 1.2-1.6 2.1-3.6 2.7-5.9.6-2.3.9-4.8.9-7.7 0-2.4-.3-4.6-.8-6.5-.6-2-1.5-3.6-2.5-4.9-1-1.4-2.4-2.4-4-3.1-1.6-.7-3.3-1.1-5.1-1.1-2.1 0-4.1.4-5.8 1.2-1.7.8-3.1 1.9-4.4 3.3s-2.1 2.9-2.8 4.8c-.6 1.9-.9 3.8-.9 5.9v5.4h-.2zM381.7 353.7c-1.3-.8-2.7-1.4-4.7-1.4-1.4 0-2.6.3-3.7.8s-2 1.3-2.7 2.1c-.8.8-1.5 1.9-2 3s-.9 2.4-1.4 3.7c-.3 1.3-.6 2.5-.7 3.9-.1 1.3-.2 2.5-.2 3.7v20.2h-5.1v-41.3h5.1v8.8h.2c.5-1.5 1-2.8 1.8-4.1.7-1.2 1.6-2.2 2.5-3 .9-.8 2-1.5 3.2-1.9 1.2-.4 2.3-.6 3.6-.6.8 0 1.6.1 2.2.2s1.3.3 1.8.5v5.4h.1zM390.5 369.9c0 2.5.3 4.8 1.1 6.8s1.6 3.7 2.8 5.1c1.3 1.4 2.7 2.4 4.4 3.3 1.8.7 3.7 1.2 5.9 1.2 4.6 0 9-1.6 13.2-4.8v5c-4 2.8-8.7 4.2-14.4 4.2-2.7 0-5.3-.5-7.6-1.5-2.3-.9-4.2-2.4-5.8-4.2-1.6-1.9-2.8-4.1-3.7-6.8-.8-2.7-1.3-5.8-1.3-9.2 0-3 .4-6 1.4-8.6.9-2.6 2.2-4.9 3.9-6.8 1.7-1.9 3.7-3.5 5.9-4.5 2.3-1.1 4.8-1.7 7.5-1.7s5 .4 7 1.4c2 .9 3.8 2.2 5.1 4 1.4 1.7 2.4 3.8 3.2 6.3.7 2.5 1 5.3 1 8.3v2.6l-29.6-.1zm24.6-4.5c-.1-4.3-1.2-7.7-3-10-2-2.4-4.7-3.6-8.2-3.6-1.8 0-3.4.3-4.8.9-1.5.6-2.8 1.5-3.9 2.7-1 1.3-2.1 2.6-2.8 4.3-.7 1.7-1.3 3.6-1.6 5.7h24.4zM458.3 389.7v-23.8c0-9.3-3.4-14-10.2-14-1.8 0-3.5.3-5 1s-2.8 1.7-4 2.9c-1.2 1.3-2 2.7-2.6 4.5s-.9 3.6-.9 5.7v23.6h-5v-41.3h5.1v7.1h.2c3-5.5 7.7-8.2 13.9-8.2 4.5 0 8 1.5 10.3 4.4 2.4 2.9 3.6 7.1 3.6 12.7v25.2h-5.4zM504.9 389.7v-7.2h-.2c-1.4 2.6-3.4 4.6-5.9 6.1-2.5 1.5-5.5 2.2-8.6 2.2-2.6 0-4.9-.5-7-1.5-2.1-.9-3.9-2.3-5.5-4.1-1.6-1.8-2.6-4-3.5-6.5-.8-2.5-1.3-5.5-1.3-8.7 0-3.4.4-6.4 1.4-9.1.9-2.7 2.2-5.1 3.8-7.1 1.7-2 3.7-3.5 6-4.6 2.3-1.2 4.9-1.7 7.8-1.7 6 0 10.2 2.4 12.8 7.1h.2v-26h5.1v61.1h-5.1zm0-24.9c0-1.8-.3-3.5-.9-5-.6-1.6-1.5-2.9-2.6-4.1s-2.4-2.1-4-2.7c-1.6-.6-3.3-1-5.1-1-2 0-3.9.4-5.7 1.3-1.7.8-3.1 2-4.4 3.5-1.3 1.5-2.2 3.4-2.8 5.6-.7 2.2-1.1 4.6-1.1 7.5 0 2.6.3 4.9.9 7s1.5 3.8 2.6 5.3 2.5 2.5 4.1 3.3c1.6.7 3.4 1.2 5.3 1.2 2.1 0 4-.4 5.7-1.2 1.7-.7 3.1-1.8 4.3-3.1 1.2-1.4 2.1-2.8 2.7-4.6.6-1.8.9-3.7.9-5.7v-6.9h.1zM525.8 369.9c0 2.5.3 4.8 1.1 6.8.6 2 1.6 3.7 2.8 5.1 1.3 1.4 2.7 2.4 4.4 3.3 1.8.7 3.7 1.2 5.9 1.2 4.6 0 9-1.6 13.2-4.8v5c-4 2.8-8.7 4.2-14.4 4.2-2.7 0-5.3-.5-7.6-1.5-2.3-.9-4.2-2.4-5.8-4.2-1.6-1.9-2.8-4.1-3.7-6.8-.8-2.7-1.3-5.8-1.3-9.2 0-3 .4-6 1.4-8.6.9-2.6 2.2-4.9 3.9-6.8 1.7-1.9 3.7-3.5 5.9-4.5 2.3-1.1 4.8-1.7 7.5-1.7s5 .4 7 1.4c2 .9 3.8 2.2 5.1 4 1.4 1.7 2.4 3.8 3.2 6.3.7 2.5 1 5.3 1 8.3v2.6l-29.6-.1zm24.6-4.5c-.1-4.3-1.2-7.7-3-10-2-2.4-4.7-3.6-8.2-3.6-1.8 0-3.4.3-4.8.9-1.5.6-2.8 1.5-3.9 2.7-1.2 1.2-2.1 2.6-2.8 4.3-.7 1.7-1.3 3.6-1.6 5.7h24.4zM586.3 353.7c-1.3-.8-2.7-1.4-4.7-1.4-1.4 0-2.6.3-3.7.8-1 .5-2 1.3-2.7 2.1-.8.8-1.5 1.9-2 3-.5 1.2-.9 2.4-1.4 3.7-.3 1.3-.6 2.5-.7 3.9-.1 1.3-.2 2.5-.2 3.7v20.2h-5.1v-41.3h5.1v8.8h.2c.5-1.5 1-2.8 1.8-4.1.7-1.2 1.6-2.2 2.5-3 .9-.8 2-1.5 3.1-1.9 1.2-.4 2.3-.6 3.6-.6.8 0 1.6.1 2.2.2.6.1 1.3.3 1.8.5v5.4h.2zM644.4 389.7v-24.3c0-4.6-.8-8.1-2.5-10.2-1.7-2.2-4.3-3.3-7.8-3.3-1.7 0-3.3.3-4.7 1.1-1.5.6-2.8 1.7-4 2.9-1.2 1.3-2 2.8-2.7 4.6-.6 1.8-1.1 3.9-1.1 6.2v23.1h-5.1v-61.1h5.1v27h.2c3.3-5.4 7.9-8.1 13.9-8.1 4.6 0 8.1 1.4 10.4 4.2 2.3 2.8 3.5 7 3.5 12.5v25.5h-5.1v-.1zM685.8 389.7v-7.4h-.2c-1.4 2.6-3.2 4.7-5.5 6.1-2.3 1.5-4.9 2.2-7.9 2.2-2 0-3.8-.3-5.4-.8s-2.9-1.4-4.1-2.4c-1.2-1-2-2.3-2.6-3.8-.6-1.5-.9-3-.9-4.8 0-3.8 1.2-6.7 3.5-8.9s5.8-3.7 10.5-4.3l12.5-1.8c0-8-3-11.9-9.2-11.9-4.8 0-9.2 1.8-13.4 5.3v-5.7c.8-.6 1.8-1.2 2.9-1.7 1.2-.5 2.2-.9 3.5-1.3s2.4-.6 3.8-.8c1.3-.2 2.5-.3 3.8-.3 4.6 0 8.1 1.3 10.4 3.9s3.6 6.4 3.6 11.5v26.9h-5.3zM675 369.6c-1.9.3-3.5.6-4.7 1-1.4.4-2.4.9-3.3 1.7-.8.7-1.5 1.6-1.9 2.5-.4 1.1-.6 2.2-.6 3.8 0 1.2.2 2.1.6 3 .4.9.9 1.8 1.7 2.4.7.7 1.7 1.3 2.7 1.6 1 .4 2.3.5 3.6.5 1.8 0 3.5-.3 5-1s2.8-1.7 4-2.9c1.2-1.3 2-2.7 2.6-4.4.6-1.7.9-3.6.9-5.6v-4.1l-10.6 1.5zM730.8 387.9c-3 1.9-6.8 2.8-11.1 2.8-2.9 0-5.7-.5-8-1.6-2.4-1.1-4.4-2.5-6.1-4.4-1.7-1.9-2.9-4.1-3.8-6.6-.8-2.5-1.4-5.4-1.4-8.3 0-3 .4-6 1.4-8.7.9-2.7 2.3-5.1 4.1-7.1 1.8-2 4-3.7 6.6-4.8s5.6-1.8 8.9-1.8c3.5 0 6.5.6 9.3 2v5.5c-3-2-6.3-2.9-9.8-2.9-2.4 0-4.6.4-6.5 1.4-1.9.9-3.5 2.2-4.8 3.8-1.3 1.6-2.3 3.5-2.9 5.6-.6 2.1-1.1 4.4-1.1 6.8 0 2.2.3 4.3.8 6.3s1.5 3.8 2.6 5.4 2.7 2.7 4.5 3.7c1.8.9 4 1.4 6.4 1.4 3.9 0 7.4-1.2 10.5-3.5v5.2h.4zM743.3 337.9c-.9 0-1.9-.3-2.6-1.1-.7-.7-1.1-1.6-1.1-2.6s.3-1.9 1.1-2.6c.7-.7 1.6-1 2.6-1 .5 0 .9.1 1.5.2.4.2.8.4 1.2.7.3.3.6.7.8 1.2s.3.9.3 1.5c0 .5-.1.9-.3 1.5-.2.4-.4.8-.8 1.2-.3.3-.7.6-1.2.8-.5.1-1 .2-1.5.2zm-2.5 51.8v-41.3h5.1v41.3h-5.1zM761.7 369.9c0 2.5.3 4.8 1 6.8.6 2 1.6 3.7 2.8 5.1 1.3 1.4 2.7 2.4 4.4 3.3 1.8.7 3.7 1.2 5.9 1.2 4.6 0 9-1.6 13.2-4.8v5c-4 2.8-8.7 4.2-14.4 4.2-2.7 0-5.3-.5-7.6-1.5-2.3-.9-4.2-2.4-5.8-4.2-1.6-1.9-2.8-4.1-3.7-6.8-.8-2.7-1.3-5.8-1.3-9.2 0-3 .4-6 1.4-8.6s2.2-4.9 3.9-6.8c1.7-1.9 3.7-3.5 5.9-4.5 2.3-1.1 4.8-1.7 7.5-1.7s5 .4 7 1.4c2 .9 3.8 2.2 5.1 4 1.4 1.7 2.4 3.8 3.2 6.3.7 2.5 1 5.3 1 8.3v2.6l-29.5-.1zm24.5-4.5c-.1-4.3-1.2-7.7-3-10-2-2.4-4.7-3.6-8.2-3.6-1.8 0-3.4.3-4.8.9-1.5.6-2.8 1.5-3.9 2.7-1.2 1.2-2.1 2.6-2.8 4.3-.7 1.7-1.3 3.6-1.6 5.7h24.4zM829.5 389.7v-23.8c0-9.3-3.4-14-10.2-14-1.8 0-3.5.3-5 1-1.6.7-2.8 1.7-4 2.9-1.2 1.3-2 2.7-2.6 4.5-.6 1.8-.9 3.6-.9 5.7v23.6h-5.1v-41.3h5.1v7.1h.2c3-5.5 7.7-8.2 13.9-8.2 4.5 0 8 1.5 10.3 4.4 2.3 2.9 3.6 7.1 3.6 12.7v25.2h-5.3zM876.1 389.7v-7.2h-.2c-1.4 2.6-3.4 4.6-5.9 6.1-2.5 1.5-5.5 2.2-8.6 2.2-2.6 0-4.9-.5-7-1.5-2.1-.9-3.9-2.3-5.5-4.1s-2.6-4-3.5-6.5c-.8-2.5-1.3-5.5-1.3-8.7 0-3.4.4-6.4 1.4-9.1s2.2-5.1 3.8-7.1c1.7-2 3.7-3.5 6-4.6s4.9-1.7 7.8-1.7c6 0 10.2 2.4 12.8 7.1h.2v-26h5.1v61.1h-5.1zm0-24.9c0-1.8-.3-3.5-.9-5-.6-1.6-1.5-2.9-2.6-4.1s-2.4-2.1-4-2.7-3.3-1-5.1-1c-2 0-3.9.4-5.7 1.3-1.7.8-3.1 2-4.4 3.5-1.3 1.5-2.2 3.4-2.8 5.6-.7 2.2-1 4.6-1 7.5 0 2.6.3 4.9.9 7 .6 2.1 1.5 3.8 2.6 5.3s2.5 2.5 4.1 3.3 3.4 1.2 5.3 1.2c2.1 0 4-.4 5.7-1.2s3.2-1.8 4.3-3.1 2.1-2.8 2.7-4.6c.6-1.8.9-3.7.9-5.7v-6.9zM911.4 390.6c-3 0-5.8-.5-8.3-1.6-2.4-1.1-4.5-2.4-6.2-4.3-1.7-1.9-3-4.1-4-6.7s-1.4-5.5-1.4-8.7c0-3.5.5-6.5 1.5-9.2.9-2.7 2.3-5 4.1-6.9 1.8-1.9 4-3.4 6.5-4.3 2.5-.9 5.4-1.5 8.5-1.5 2.9 0 5.7.5 8.1 1.5 2.4.9 4.4 2.4 6.1 4.3 1.7 1.9 2.9 4.1 3.8 6.8.8 2.6 1.4 5.7 1.4 9s-.4 6.2-1.4 8.8c-.9 2.6-2.2 4.9-4 6.8-1.7 1.9-3.8 3.4-6.3 4.4-2.4 1.1-5.3 1.6-8.4 1.6zm.4-38.7c-2.3 0-4.3.4-6.1 1.2-1.8.7-3.4 1.9-4.7 3.4s-2.3 3.4-3 5.5c-.7 2.1-1.1 4.6-1.1 7.4 0 2.6.3 4.9 1.1 6.9.7 2.1 1.7 3.9 2.9 5.4 1.3 1.5 2.8 2.6 4.6 3.4 1.8.8 3.9 1.2 6.1 1.2 2.3 0 4.3-.4 6.1-1.2 1.8-.7 3.3-1.9 4.5-3.4 1.3-1.5 2.2-3.3 2.8-5.4.6-2.1.9-4.5.9-7.2 0-5.6-1.3-9.9-3.7-12.8-2.2-2.9-5.8-4.4-10.4-4.4zM944.3 390.5c-1 0-2-.4-2.7-1.2s-1.2-1.7-1.2-2.7c0-1.1.4-2 1.2-2.8.7-.7 1.7-1.2 2.7-1.2.5 0 1.1.1 1.5.3.4.2.8.4 1.3.8.4.4.6.7.8 1.3.2.5.3 1 .3 1.6 0 .5-.1 1.1-.3 1.5-.2.4-.5.8-.8 1.3-.3.3-.7.6-1.3.8-.6.2-1 .3-1.5.3z"/></g><g><circle fill="#3F5FFF" cx="136.6" cy="289.2" r="99.5"/><linearGradient id="a" gradientUnits="userSpaceOnUse" x1="32.649" y1="348.627" x2="189.687" y2="348.627" gradientTransform="scale(1.05 -1.05) rotate(-14.1 -2393.577 26.203)"><stop offset="0" stop-color="#fff" stop-opacity="0"/><stop offset="1" stop-color="#7fdbff"/></linearGradient><path fill="url(#a)" d="M40 264.7C27.6 314.1 53.3 363 97.5 374.1s90-19.8 102.4-69.2-13.3-98.3-57.5-109.4-90 19.9-102.4 69.2z"/><linearGradient id="b" gradientUnits="userSpaceOnUse" x1="66.117" y1="349.294" x2="223.131" y2="349.294" gradientTransform="scale(1.05 -1.05) rotate(-14.1 -2393.577 26.203)"><stop offset="0" stop-color="#5558ff"/><stop offset="1" stop-color="#fff" stop-opacity="0"/></linearGradient><path fill="url(#b)" d="M176.5 204c44.2 11.1 70 59.7 57.6 108.8-12.3 48.9-58.1 79.7-102.3 68.6-44.1-11-69.9-59.7-57.6-108.7S132.3 193 176.5 204z"/><ellipse transform="rotate(104.099 136.583 289.128)" fill="#FFF" cx="136.6" cy="289.1" rx="63" ry="64.2"/></g></svg>