<svg xmlns="http://www.w3.org/2000/svg" viewBox="0 0 960 560"><path fill="#01002A" d="M250.7 274.4c1.5 1.2 3.1 2.3 4.9 3.2 1.8.9 3.6 1.7 5.4 2.4 1.9.7 3.7 1.2 5.6 1.5 1.9.3 3.7.5 5.4.5 11.8 0 17.7-4.4 17.7-13.3 0-2-.4-3.8-1.2-5.2-.8-1.5-2-2.8-3.6-4-1.6-1.2-3.4-2.3-5.6-3.4-2.2-1-4.6-2.1-7.4-3.3-3.7-1.5-6.8-3-9.5-4.6-2.6-1.6-4.8-3.2-6.5-5.1-1.7-1.8-3-3.9-3.8-6.1-.8-2.2-1.2-4.7-1.2-7.5 0-3.5.8-6.7 2.3-9.4 1.5-2.7 3.6-5.1 6.2-7 2.6-1.9 5.6-3.4 9-4.4 3.4-1 7-1.5 10.7-1.5 6.9 0 12.9 1.3 18 3.9v10.5c-6-3.8-12.4-5.7-19.3-5.7-2.5 0-4.8.3-6.8.9-2 .6-3.8 1.5-5.2 2.6-1.5 1.1-2.6 2.5-3.4 4.1-.8 1.6-1.2 3.3-1.2 5.2 0 2 .3 3.7.9 5.2.6 1.5 1.6 2.8 2.9 4 1.3 1.2 3 2.3 5.1 3.4 2.1 1.1 4.6 2.3 7.7 3.5 3.8 1.6 7.1 3.1 9.9 4.6 2.8 1.5 5.1 3.2 6.9 5 1.8 1.8 3.2 3.8 4 6 .9 2.2 1.3 4.8 1.3 7.7 0 3.6-.7 6.8-2.2 9.6-1.5 2.8-3.5 5.2-6.1 7.1-2.6 1.9-5.7 3.4-9.2 4.3-3.5 1-7.4 1.5-11.5 1.5-8 0-14.8-1.7-20.3-5v-11.2zM324.7 189c-1.9 0-3.6-.7-5-2s-2.1-3.1-2.1-5.1c0-2 .7-3.7 2.1-5 1.4-1.3 3.1-2 5-2 1 0 1.9.2 2.8.5.9.3 1.6.8 2.3 1.4.6.6 1.2 1.4 1.6 2.2.4.9.6 1.8.6 2.8 0 1-.2 1.9-.5 2.8-.4.9-.9 1.6-1.6 2.3-.7.6-1.4 1.2-2.3 1.5-.9.5-1.8.6-2.9.6zm-4.9 99.7v-79.5h9.9v79.5h-9.9zM455.4 288.7v-46.8c0-4.8-.4-8.8-1.1-12.1-.7-3.3-1.9-6-3.4-8-1.5-2.1-3.5-3.6-5.8-4.5-2.4-.9-5.2-1.4-8.4-1.4-2.9 0-5.6.7-8.2 2.1-2.6 1.4-4.9 3.3-6.8 5.7-1.9 2.4-3.5 5.2-4.6 8.5-1.1 3.3-1.7 6.8-1.7 10.6v46h-9.9V241c0-16.7-6.4-25-19.2-25-3 0-5.7.7-8.2 2-2.5 1.3-4.8 3.2-6.6 5.6-1.9 2.4-3.4 5.2-4.4 8.6-1.1 3.3-1.6 7-1.6 11.1v45.6h-9.9v-79.5h9.9V222h.3c5.6-9.8 13.7-14.8 24.5-14.8 2.8 0 5.4.4 7.9 1.3s4.7 2 6.7 3.6c2 1.5 3.7 3.4 5.1 5.5 1.4 2.1 2.5 4.5 3.2 7 2.8-5.6 6.4-9.9 10.9-12.9s9.5-4.4 15.2-4.4c17.4 0 26.2 10.8 26.2 32.3v49.1h-10.1zM541.3 288.7v-13.5h-.3c-5.4 10.3-13.7 15.4-25.1 15.4-18.9 0-28.3-11.5-28.3-34.6v-46.8h9.9V254c0 9.5 1.7 16.6 5.1 21.1 3.4 4.6 8.6 6.8 15.6 6.8 3.4 0 6.5-.7 9.4-2 2.8-1.3 5.3-3.2 7.3-5.6 2-2.4 3.6-5.3 4.8-8.7 1.1-3.4 1.7-7.1 1.7-11.2V209h9.9v79.5h-10zM576.8 288.7V170.9h9.9v117.7h-9.9zM658.2 288.7v-14.1h-.3c-2.6 5.1-6.1 9-10.6 11.8s-9.5 4.2-15.2 4.2c-3.8 0-7.3-.5-10.4-1.6-3.1-1.1-5.7-2.6-7.8-4.6-2.1-2-3.8-4.4-5-7.2s-1.7-5.9-1.7-9.2c0-7.2 2.2-12.9 6.7-17.2 4.5-4.3 11.2-7.1 20.2-8.3l24.2-3.5c0-15.3-5.9-22.9-17.8-22.9-9.3 0-17.9 3.4-25.8 10.2v-10.9c1.7-1.2 3.5-2.3 5.6-3.2 2.1-1 4.3-1.8 6.6-2.5s4.7-1.2 7.2-1.6c2.5-.4 4.9-.6 7.2-.6 8.9 0 15.5 2.5 20.1 7.5 4.5 5 6.8 12.4 6.8 22.2v51.7h-10zm-20.5-38.6c-3.6.5-6.6 1.2-9.2 1.9s-4.6 1.8-6.3 3.1-2.9 3-3.7 4.9c-.8 1.9-1.2 4.3-1.2 7.2 0 2.1.4 4.1 1.1 5.9.8 1.8 1.8 3.4 3.3 4.7 1.4 1.3 3.2 2.3 5.2 3.1 2 .7 4.4 1.1 7 1.1 3.5 0 6.8-.7 9.7-2 3-1.3 5.5-3.2 7.7-5.6 2.1-2.4 3.8-5.2 5-8.5 1.2-3.3 1.8-6.9 1.8-10.8v-7.8l-20.4 2.8z"/><path fill="#3F5FFF" d="M704.1 245.3v43.3h-10.3V177.3h28.7c5.9 0 11 .7 15.5 2.2 4.5 1.5 8.3 3.5 11.4 6.3 3.1 2.7 5.5 6.1 7.1 10.1 1.6 4 2.4 8.5 2.4 13.7 0 5.2-.9 10-2.7 14.3-1.8 4.4-4.4 8.2-7.8 11.3-3.4 3.2-7.5 5.7-12.4 7.5-4.9 1.8-10.4 2.7-16.5 2.7h-15.4zm0-58.5v49.1h14.8c9.6 0 16.9-2.2 21.8-6.7s7.5-10.7 7.5-18.9c0-15.7-9.2-23.5-27.5-23.5h-16.6zM819.3 219.3c-2.3-1.7-5.3-2.6-9-2.6-2.6 0-5 .5-7 1.5s-3.8 2.4-5.3 4.1c-1.5 1.7-2.8 3.7-3.9 5.9-1.1 2.3-1.9 4.6-2.6 7s-1.1 4.9-1.4 7.4c-.3 2.5-.4 4.8-.4 7.1v38.9h-9.9v-79.5h9.9v17h.3c.9-2.9 2.1-5.5 3.5-7.8s3.1-4.2 4.9-5.8c1.9-1.6 3.9-2.8 6.1-3.6 2.2-.8 4.5-1.2 7-1.2 1.6 0 3 .1 4.3.3 1.3.2 2.4.5 3.5.9v10.4zM864.2 290.5c-5.9 0-11.2-1-15.9-3-4.7-2-8.7-4.8-12-8.4-3.3-3.6-5.9-7.9-7.6-12.9-1.8-5-2.6-10.6-2.6-16.7 0-6.6.9-12.6 2.8-17.8 1.9-5.2 4.5-9.7 8-13.3 3.4-3.7 7.6-6.4 12.5-8.3 4.9-1.9 10.3-2.9 16.3-2.9 5.7 0 10.9.9 15.5 2.8s8.5 4.6 11.7 8.2c3.2 3.6 5.7 7.9 7.4 13 1.7 5.1 2.6 11 2.6 17.5 0 6.2-.9 11.9-2.7 17-1.8 5.1-4.3 9.5-7.7 13.2-3.3 3.7-7.4 6.5-12.1 8.5s-10.2 3.1-16.2 3.1zm.8-74.6c-4.3 0-8.3.8-11.8 2.3-3.5 1.5-6.5 3.7-9 6.6-2.5 2.9-4.4 6.4-5.8 10.6-1.3 4.2-2 8.9-2 14.2 0 5 .7 9.5 2 13.4 1.3 4 3.2 7.4 5.7 10.3 2.5 2.8 5.4 5 9 6.6 3.5 1.5 7.5 2.3 11.8 2.3 4.5 0 8.4-.7 11.8-2.2 3.4-1.5 6.3-3.6 8.7-6.4 2.4-2.8 4.2-6.3 5.4-10.4 1.2-4.1 1.8-8.8 1.8-14 0-10.7-2.4-18.9-7.1-24.6-4.8-5.9-11.7-8.7-20.5-8.7z"/><g fill="#01002A"><path d="M285.2 359.7l-6.1-16.3h-23.6l-5.9 16.3h-5.7l21-55.1h5.1l20.9 55.1h-5.7zm-16.7-45.4c-.2-.5-.4-1-.6-1.7-.2-.6-.4-1.4-.5-2.2h-.2c-.2.8-.3 1.5-.5 2.2-.2.6-.4 1.2-.6 1.7l-8.9 24.5h20.2l-8.9-24.5zM303.7 353.4v24.4h-4.9v-57.4h4.9v7.5h.2c1.5-2.7 3.4-4.8 5.9-6.3 2.4-1.4 5.2-2.2 8.3-2.2 2.5 0 4.8.5 6.7 1.4 2 .9 3.7 2.2 5 3.9 1.4 1.7 2.4 3.7 3.2 6.1.7 2.4 1.1 5.1 1.1 8 0 3.3-.4 6.2-1.2 8.9-.8 2.7-2 5-3.5 6.9-1.5 1.9-3.4 3.4-5.6 4.5-2.2 1.1-4.7 1.6-7.4 1.6-5.5 0-9.7-2.4-12.4-7.3h-.3zm0-10c0 1.8.3 3.5.9 5.1.6 1.6 1.4 3 2.5 4.2 1.1 1.2 2.4 2.1 3.9 2.8 1.5.7 3.2 1 5.1 1 2 0 3.8-.4 5.3-1.2 1.6-.8 2.9-2 4.1-3.6 1.1-1.5 2-3.4 2.6-5.6.6-2.2.9-4.6.9-7.3 0-2.3-.3-4.4-.8-6.2-.6-1.9-1.4-3.4-2.4-4.7-1-1.3-2.3-2.3-3.8-3-1.5-.7-3.1-1-4.9-1-2 0-3.9.4-5.5 1.1-1.6.8-3 1.8-4.2 3.1-1.2 1.3-2 2.8-2.7 4.6-.6 1.8-.9 3.6-.9 5.6v5.1zM363.5 325.4c-1.2-.8-2.6-1.3-4.5-1.3-1.3 0-2.5.3-3.5.8s-1.9 1.2-2.6 2c-.8.8-1.4 1.8-1.9 2.9-.5 1.1-.9 2.3-1.3 3.5-.3 1.2-.6 2.4-.7 3.7-.1 1.2-.2 2.4-.2 3.5v19.2h-4.9v-39.3h4.9v8.4h.2c.5-1.4 1-2.7 1.7-3.9.7-1.1 1.5-2.1 2.4-2.9.9-.8 1.9-1.4 3-1.8 1.1-.4 2.2-.6 3.4-.6.8 0 1.5.1 2.1.2.6.1 1.2.3 1.7.5v5.1zM371.9 340.9c0 2.4.3 4.6 1 6.5s1.5 3.5 2.7 4.9c1.2 1.3 2.6 2.3 4.2 3.1 1.7.7 3.5 1.1 5.6 1.1 4.4 0 8.6-1.5 12.6-4.6v4.8c-3.8 2.7-8.3 4-13.7 4-2.6 0-5-.5-7.2-1.4-2.2-.9-4-2.3-5.5-4-1.5-1.8-2.7-3.9-3.5-6.5-.8-2.6-1.2-5.5-1.2-8.8 0-2.9.4-5.7 1.3-8.2.9-2.5 2.1-4.7 3.7-6.5 1.6-1.8 3.5-3.3 5.6-4.3 2.2-1 4.6-1.6 7.1-1.6s4.8.4 6.7 1.3c1.9.9 3.6 2.1 4.9 3.8 1.3 1.6 2.3 3.6 3 6s1 5 1 7.9v2.5h-28.3zm23.4-4.3c-.1-4.1-1.1-7.3-2.9-9.5-1.9-2.3-4.5-3.4-7.8-3.4-1.7 0-3.2.3-4.6.9-1.4.6-2.7 1.4-3.7 2.6s-2 2.5-2.7 4.1c-.7 1.6-1.2 3.4-1.5 5.4h23.2zM436.5 359.7V337c0-8.9-3.2-13.3-9.7-13.3-1.7 0-3.3.3-4.8 1s-2.7 1.6-3.8 2.8c-1.1 1.2-1.9 2.6-2.5 4.3-.6 1.7-.9 3.4-.9 5.4v22.5H410v-39.3h4.9v6.8h.2c2.9-5.2 7.3-7.8 13.2-7.8 4.3 0 7.6 1.4 9.8 4.2 2.3 2.8 3.4 6.8 3.4 12.1v24h-5zM480.9 359.7v-6.9h-.2c-1.3 2.5-3.2 4.4-5.6 5.8-2.4 1.4-5.2 2.1-8.2 2.1-2.5 0-4.7-.5-6.7-1.4-2-.9-3.7-2.2-5.2-3.9s-2.5-3.8-3.3-6.2c-.8-2.4-1.2-5.2-1.2-8.3 0-3.2.4-6.1 1.3-8.7.9-2.6 2.1-4.9 3.6-6.8 1.6-1.9 3.5-3.3 5.7-4.4s4.7-1.6 7.4-1.6c5.7 0 9.7 2.3 12.2 6.8h.2v-24.8h4.9v58.2h-4.9zm0-23.7c0-1.7-.3-3.3-.9-4.8-.6-1.5-1.4-2.8-2.5-3.9s-2.3-2-3.8-2.6c-1.5-.6-3.1-1-4.9-1-1.9 0-3.7.4-5.4 1.2-1.6.8-3 1.9-4.2 3.3-1.2 1.4-2.1 3.2-2.7 5.3-.7 2.1-1 4.4-1 7.1 0 2.5.3 4.7.9 6.7.6 2 1.4 3.6 2.5 5s2.4 2.4 3.9 3.1c1.5.7 3.2 1.1 5 1.1 2 0 3.8-.4 5.4-1.1 1.6-.7 3-1.7 4.1-3 1.1-1.3 2-2.7 2.6-4.4s.9-3.5.9-5.4V336zM500.8 340.9c0 2.4.3 4.6 1 6.5.6 1.9 1.5 3.5 2.7 4.9 1.2 1.3 2.6 2.3 4.2 3.1 1.7.7 3.5 1.1 5.6 1.1 4.4 0 8.6-1.5 12.6-4.6v4.8c-3.8 2.7-8.3 4-13.7 4-2.6 0-5-.5-7.2-1.4s-4-2.3-5.5-4c-1.5-1.8-2.7-3.9-3.5-6.5-.8-2.6-1.2-5.5-1.2-8.8 0-2.9.4-5.7 1.3-8.2.9-2.5 2.1-4.7 3.7-6.5 1.6-1.8 3.5-3.3 5.6-4.3 2.2-1 4.6-1.6 7.1-1.6s4.8.4 6.7 1.3 3.6 2.1 4.9 3.8c1.3 1.6 2.3 3.6 3 6s1 5 1 7.9v2.5h-28.3zm23.4-4.3c-.1-4.1-1.1-7.3-2.9-9.5-1.9-2.3-4.5-3.4-7.8-3.4-1.7 0-3.2.3-4.6.9-1.4.6-2.7 1.4-3.7 2.6-1.1 1.1-2 2.5-2.7 4.1-.7 1.6-1.2 3.4-1.5 5.4h23.2zM558.4 325.4c-1.2-.8-2.6-1.3-4.5-1.3-1.3 0-2.5.3-3.5.8s-1.9 1.2-2.6 2c-.8.8-1.4 1.8-1.9 2.9-.5 1.1-.9 2.3-1.3 3.5-.3 1.2-.6 2.4-.7 3.7-.1 1.2-.2 2.4-.2 3.5v19.2h-4.9v-39.3h4.9v8.4h.2c.5-1.4 1-2.7 1.7-3.9.7-1.1 1.5-2.1 2.4-2.9.9-.8 1.9-1.4 3-1.8 1.1-.4 2.2-.6 3.4-.6.8 0 1.5.1 2.1.2.6.1 1.2.3 1.7.5v5.1zM613.7 359.7v-23.1c0-4.4-.8-7.7-2.4-9.7-1.6-2.1-4.1-3.1-7.4-3.1-1.6 0-3.1.3-4.5 1-1.4.6-2.7 1.6-3.8 2.8s-1.9 2.7-2.6 4.4c-.6 1.7-1 3.7-1 5.9v22h-4.9v-58.2h4.9v25.7h.2c3.1-5.1 7.5-7.7 13.2-7.7 4.4 0 7.7 1.3 9.9 4s3.3 6.7 3.3 11.9v24.3h-4.9zM653.1 359.7v-7h-.2c-1.3 2.5-3 4.5-5.2 5.8-2.2 1.4-4.7 2.1-7.5 2.1-1.9 0-3.6-.3-5.1-.8-1.5-.5-2.8-1.3-3.9-2.3-1.1-1-1.9-2.2-2.5-3.6s-.9-2.9-.9-4.6c0-3.6 1.1-6.4 3.3-8.5 2.2-2.1 5.5-3.5 10-4.1L653 335c0-7.6-2.9-11.3-8.8-11.3-4.6 0-8.8 1.7-12.8 5v-5.4c.8-.6 1.7-1.1 2.8-1.6s2.1-.9 3.3-1.2c1.2-.3 2.3-.6 3.6-.8 1.2-.2 2.4-.3 3.6-.3 4.4 0 7.7 1.2 9.9 3.7s3.4 6.1 3.4 11v25.6h-4.9zm-10.2-19.1c-1.8.3-3.3.6-4.5 1-1.3.4-2.3.9-3.1 1.6-.8.7-1.4 1.5-1.8 2.4-.4 1-.6 2.1-.6 3.6 0 1.1.2 2 .6 2.9.4.9.9 1.7 1.6 2.3.7.7 1.6 1.2 2.6 1.5 1 .4 2.2.5 3.4.5 1.7 0 3.3-.3 4.8-1s2.7-1.6 3.8-2.8c1.1-1.2 1.9-2.6 2.5-4.2.6-1.6.9-3.4.9-5.3v-3.9l-10.2 1.4zM696 358c-2.9 1.8-6.5 2.7-10.6 2.7-2.8 0-5.4-.5-7.6-1.5-2.3-1-4.2-2.4-5.8-4.2s-2.8-3.9-3.6-6.3c-.8-2.4-1.3-5.1-1.3-7.9 0-2.9.4-5.7 1.3-8.3s2.2-4.9 3.9-6.8c1.7-1.9 3.8-3.5 6.3-4.6s5.3-1.7 8.5-1.7c3.3 0 6.2.6 8.9 1.9v5.2c-2.9-1.9-6-2.8-9.3-2.8-2.3 0-4.4.4-6.2 1.3-1.8.9-3.3 2.1-4.6 3.6-1.2 1.5-2.2 3.3-2.8 5.3s-1 4.2-1 6.5c0 2.1.3 4.1.8 6s1.4 3.6 2.5 5.1c1.1 1.5 2.6 2.6 4.3 3.5 1.7.9 3.8 1.3 6.1 1.3 3.7 0 7-1.1 10-3.3v5zM707.9 310.4c-.9 0-1.8-.3-2.5-1s-1-1.5-1-2.5.3-1.8 1-2.5 1.5-1 2.5-1c.5 0 .9.1 1.4.2.4.2.8.4 1.1.7s.6.7.8 1.1c.2.4.3.9.3 1.4 0 .5-.1.9-.3 1.4-.2.4-.4.8-.8 1.1-.3.3-.7.6-1.1.8-.4.2-.9.3-1.4.3zm-2.4 49.3v-39.3h4.9v39.3h-4.9zM725.4 340.9c0 2.4.3 4.6 1 6.5.6 1.9 1.5 3.5 2.7 4.9 1.2 1.3 2.6 2.3 4.2 3.1 1.7.7 3.5 1.1 5.6 1.1 4.4 0 8.6-1.5 12.6-4.6v4.8c-3.8 2.7-8.3 4-13.7 4-2.6 0-5-.5-7.2-1.4s-4-2.3-5.5-4c-1.5-1.8-2.7-3.9-3.5-6.5-.8-2.6-1.2-5.5-1.2-8.8 0-2.9.4-5.7 1.3-8.2.9-2.5 2.1-4.7 3.7-6.5 1.6-1.8 3.5-3.3 5.6-4.3 2.2-1 4.6-1.6 7.1-1.6s4.8.4 6.7 1.3 3.6 2.1 4.9 3.8c1.3 1.6 2.3 3.6 3 6s1 5 1 7.9v2.5h-28.3zm23.4-4.3c-.1-4.1-1.1-7.3-2.9-9.5-1.9-2.3-4.5-3.4-7.8-3.4-1.7 0-3.2.3-4.6.9-1.4.6-2.7 1.4-3.7 2.6-1.1 1.1-2 2.5-2.7 4.1-.7 1.6-1.2 3.4-1.5 5.4h23.2zM790 359.7V337c0-8.9-3.2-13.3-9.7-13.3-1.7 0-3.3.3-4.8 1s-2.7 1.6-3.8 2.8-1.9 2.6-2.5 4.3c-.6 1.7-.9 3.4-.9 5.4v22.5h-4.9v-39.3h4.9v6.8h.2c2.9-5.2 7.3-7.8 13.2-7.8 4.3 0 7.6 1.4 9.8 4.2s3.4 6.8 3.4 12.1v24H790zM834.4 359.7v-6.9h-.2c-1.3 2.5-3.2 4.4-5.6 5.8-2.4 1.4-5.2 2.1-8.2 2.1-2.5 0-4.7-.5-6.7-1.4-2-.9-3.7-2.2-5.2-3.9s-2.5-3.8-3.3-6.2c-.8-2.4-1.2-5.2-1.2-8.3 0-3.2.4-6.1 1.3-8.7.9-2.6 2.1-4.9 3.6-6.8 1.6-1.9 3.5-3.3 5.7-4.4s4.7-1.6 7.4-1.6c5.7 0 9.7 2.3 12.2 6.8h.2v-24.8h4.9v58.2h-4.9zm0-23.7c0-1.7-.3-3.3-.9-4.8-.6-1.5-1.4-2.8-2.5-3.9s-2.3-2-3.8-2.6c-1.5-.6-3.1-1-4.9-1-1.9 0-3.7.4-5.4 1.2-1.6.8-3 1.9-4.2 3.3-1.2 1.4-2.1 3.2-2.7 5.3-.7 2.1-1 4.4-1 7.1 0 2.5.3 4.7.9 6.7.6 2 1.4 3.6 2.5 5s2.4 2.4 3.9 3.1c1.5.7 3.2 1.1 5 1.1 2 0 3.8-.4 5.4-1.1 1.6-.7 3-1.7 4.1-3 1.1-1.3 2-2.7 2.6-4.4s.9-3.5.9-5.4V336zM868 360.6c-2.9 0-5.5-.5-7.9-1.5-2.3-1-4.3-2.3-5.9-4.1-1.6-1.8-2.9-3.9-3.8-6.4-.9-2.5-1.3-5.2-1.3-8.3 0-3.3.5-6.2 1.4-8.8s2.2-4.8 3.9-6.6c1.7-1.8 3.8-3.2 6.2-4.1 2.4-.9 5.1-1.4 8.1-1.4 2.8 0 5.4.5 7.7 1.4 2.3.9 4.2 2.3 5.8 4.1 1.6 1.8 2.8 3.9 3.6 6.5.8 2.5 1.3 5.4 1.3 8.6 0 3.1-.4 5.9-1.3 8.4s-2.1 4.7-3.8 6.5c-1.6 1.8-3.6 3.2-6 4.2-2.3 1-5 1.5-8 1.5zm.4-36.9c-2.2 0-4.1.4-5.8 1.1-1.7.7-3.2 1.8-4.5 3.2s-2.2 3.2-2.9 5.2-1 4.4-1 7c0 2.5.3 4.7 1 6.6.7 2 1.6 3.7 2.8 5.1 1.2 1.4 2.7 2.5 4.4 3.2 1.7.8 3.7 1.1 5.8 1.1 2.2 0 4.1-.4 5.8-1.1 1.7-.7 3.1-1.8 4.3-3.2 1.2-1.4 2.1-3.1 2.7-5.1.6-2 .9-4.3.9-6.9 0-5.3-1.2-9.4-3.5-12.2-2.2-2.6-5.6-4-10-4zM899.3 360.5c-1 0-1.9-.4-2.6-1.1-.7-.7-1.1-1.6-1.1-2.6s.4-1.9 1.1-2.7c.7-.7 1.6-1.1 2.6-1.1.5 0 1 .1 1.4.3.4.2.8.4 1.2.8s.6.7.8 1.2c.2.5.3 1 .3 1.5s-.1 1-.3 1.4c-.2.4-.5.8-.8 1.2-.3.3-.7.6-1.2.8s-.9.3-1.4.3z"/></g><circle fill="#3F5FFF" cx="130.1" cy="264" r="94.8"/><linearGradient id="a" gradientUnits="userSpaceOnUse" x1="32.698" y1="263.35" x2="189.757" y2="263.35" gradientTransform="rotate(14.093 126.952 274.075)"><stop offset="0" stop-color="#fff" stop-opacity="0"/><stop offset="1" stop-color="#7fdbff"/></linearGradient><path fill="url(#a)" d="M38.1 240.7c-11.8 47 12.7 93.6 54.8 104.2 42.1 10.6 85.7-18.9 97.5-65.9 11.8-47-12.7-93.6-54.8-104.2s-85.7 18.9-97.5 65.9z"/><linearGradient id="b" gradientUnits="userSpaceOnUse" x1="66.104" y1="262.754" x2="223.163" y2="262.754" gradientTransform="rotate(14.093 126.952 274.075)"><stop offset="0" stop-color="#5558ff"/><stop offset="1" stop-color="#fff" stop-opacity="0"/></linearGradient><path fill="url(#b)" d="M168.1 182.9c42.1 10.6 66.7 56.9 54.9 103.6-11.7 46.6-55.3 75.9-97.4 65.3-42-10.5-66.6-56.9-54.9-103.5s55.3-75.9 97.4-65.4z"/><ellipse transform="rotate(-165.907 130.087 263.968)" fill="#FFF" cx="130.1" cy="264" rx="61.1" ry="60"/></svg>