<svg height="128" viewBox="0 0 128 128" width="128" xmlns="http://www.w3.org/2000/svg"><circle cx="64" cy="64" fill="#F0553A" r="64"/><path d="M41.674 93H64.17V36H41.674c1.864 8 10.044 19.299 15.711 25.49 1.637 1.791 1.631 3.712-.009 5.5C51.699 73.169 43.538 85 41.674 93zM64.17 93H39.999c-.914 0-1.329.678-1.329 1.592v1.654c0 .916.415 1.754 1.329 1.754H64.17v-5zM64.17 31H40.325c-.914 0-1.655.74-1.655 1.654v1.691c0 .914.741 1.654 1.655 1.654H64.17V31z" fill="#FFF"/><path d="M70.62 61.346C76.288 55.168 84.448 44 86.312 36H64.003v57h22.308c-1.863-8-10.043-19.623-15.703-25.816-1.634-1.796-1.629-4.051.012-5.838zM87.987 93H64.003v5h23.984c.913 0 1.683-.838 1.683-1.754v-1.654c0-.915-.77-1.592-1.683-1.592zM88.015 31H64.003v5h24.011c.914 0 1.655-.74 1.655-1.654v-1.691A1.653 1.653 0 0 0 88.015 31z" fill="#E4E8DC"/><path d="M64.402 76.347a1.202 1.202 0 0 0-.374-.09c-1.884 0-12.207 8.531-16.764 16.664h17.138V76.347z" fill="#EAD57D"/><path d="M64.014 92.921h16.708c-4.641-8.133-15.061-16.664-16.693-16.664l-.014.002v16.662z" fill="#D6C169"/><path d="M73.235 50H54.75c2.416 4.235 7.919 8.661 8.919 9.157v-.103c0 .029.251-.055.303-.055h-.303v.102c1.001-.017 7.053-4.616 9.566-9.101z" fill="#EAD57D"/><path d="M63.971 50v9.012c1.543-.586 6.924-4.837 9.264-9.012h-9.264z" fill="#D6C169"/></svg>