<?xml version="1.0" encoding="utf-8"?>
<!-- Generator: Adobe Illustrator 18.0.0, SVG Export Plug-In . SVG Version: 6.00 Build 0)  -->
<!DOCTYPE svg PUBLIC "-//W3C//DTD SVG 1.1//EN" "http://www.w3.org/Graphics/SVG/1.1/DTD/svg11.dtd">
<svg version="1.1" id="Capa_1" xmlns="http://www.w3.org/2000/svg" xmlns:xlink="http://www.w3.org/1999/xlink" x="0px" y="0px"
	 viewBox="242 332 128 128" enable-background="new 242 332 128 128" xml:space="preserve">
<path fill="#263238" d="M309.6,412.7l0.6,1.3c0,0,0,0.4-0.3,0.4c-0.3,0-14.3,0-14.6,0c-0.3,0-0.3-0.4-0.3-0.4l0.6-1.3H309.6z
	 M309.6,409.9h-13.9v2.4h13.9V409.9z M281.9,403.6v-22.8h40.4v2.6h2.7v-4.5c0-0.7-0.6-1.3-1.3-1.3h-43.1c-0.7,0-1.3,0.6-1.3,1.3
	v25.4v0.6v3c0,0.8,0.6,1.4,1.3,1.4h34.1v-5.7L281.9,403.6L281.9,403.6z"/>
<path fill="#F44336" d="M329.6,384.9h-10.4c-1.7,0-3.1,1.4-3.1,3.1v23.3c0,1.7,1.4,3.1,3.1,3.1h10.4c1.7,0,3.1-1.4,3.1-3.1V388
	C332.7,386.3,331.3,384.9,329.6,384.9z M322.6,385.8c0-0.1,0.2-0.2,0.4-0.2h3c0.2,0,0.4,0.1,0.4,0.2v0.1c0,0.1-0.2,0.2-0.4,0.2h-3
	C322.7,386.1,322.6,386,322.6,385.8L322.6,385.8z M324.8,386.9c0,0.2-0.2,0.4-0.4,0.4c-0.2,0-0.4-0.2-0.4-0.4c0-0.2,0.2-0.4,0.4-0.4
	C324.6,386.6,324.8,386.7,324.8,386.9z M326.3,412.8c0,0.2-0.2,0.4-0.4,0.4h-3c-0.2,0-0.4-0.2-0.4-0.4v-0.2c0-0.2,0.2-0.4,0.4-0.4h3
	c0.2,0,0.4,0.2,0.4,0.4V412.8z M331.4,411.3h-13.7V388h13.7V411.3z"/>
</svg>
