<?xml version="1.0" encoding="utf-8"?>
<!-- Generator: Adobe Illustrator 18.0.0, SVG Export Plug-In . SVG Version: 6.00 Build 0)  -->
<!DOCTYPE svg PUBLIC "-//W3C//DTD SVG 1.1//EN" "http://www.w3.org/Graphics/SVG/1.1/DTD/svg11.dtd">
<svg version="1.1" id="Capa_1" xmlns="http://www.w3.org/2000/svg" xmlns:xlink="http://www.w3.org/1999/xlink" x="0px" y="0px"
	 viewBox="0 0 127.4 127.3" enable-background="new 0 0 127.4 127.3" xml:space="preserve">
<path fill="#F07F1D" d="M44.7,75.6V57.9c0-3.3,1.7-6.3,4.5-7.9l0,0c1.4-0.9,3.1-1.3,4.8-1.3h19.4c1.7,0,3.3,0.5,4.8,1.3l0.7,0.4
	c2.8,1.7,4.5,4.7,4.5,8v17.4"/>
<path fill="#FBC02E" d="M63.6,66.6c-8.1,0.1-8.7,0.2-10.4-8.1c-0.5-2.5-1.4-5-2.1-7.5c-0.5-1.6-0.3-2.7,1.6-3.1
	c2.4-0.4,4.5-1.2,4.9-4.1c0.1-0.9,1.2-1.2,1.9-1.2c2.6-0.1,5.2-0.1,7.8,0c0.7,0,1.8,0.3,1.9,1.3c0.4,3,2.7,3.5,5,3.9
	c2.2,0.4,2.6,1.5,1.9,3.6c-1.1,3.2-1.9,6.5-2.7,9.8c-1.1,4.6-2,5.3-6.5,5.3C65.8,66.6,64.7,66.6,63.6,66.6z"/>
<path fill="#FBC02E" d="M63.7,75.6l34.9,3.2c-0.7-1-1-2.4-1.2-3.9c-1.4-8.7-5.7-15.7-12.7-21.2c-1.6-1.3-2.3-1.3-2.9,0.9
	c-1.3,4.7-2.7,9.4-4.2,14.1c-1.3,4.3-4.4,6.7-8.8,6.9c-2.7,0.1-5.4,0-8.2,0c-6.9,0-9.6-2.1-11.5-8.6c-1.4-4.8-2.5-9.8-4.5-14.5
	C36.1,58.2,31,66.3,29.8,76.4c-0.1,0.9-0.2,1.7-0.6,2.3L63.7,75.6z"/>
<path fill="#FBC02E" d="M101.1,80l-37.2-2.8c-0.1,0-0.1,0-0.2,0L26.3,80c-0.8,0.1-1.3,0.7-1.3,1.4v1.9c0,0.8,0.6,1.4,1.4,1.4h74.5
	c0.8,0,1.4-0.6,1.4-1.4v-1.9C102.4,80.7,101.8,80.1,101.1,80z"/>
<path fill="none" d="M25,83.3v1.4h1.4C25.6,84.8,25,84.1,25,83.3z"/>
<path fill="#F7A827" d="M59.6,42.6c-0.8,0-1.8,0.4-1.9,1.2c-0.4,2.9-2.5,3.6-4.9,4.1c-1.9,0.3-2.1,1.5-1.6,3.1
	c0.7,2.5,1.6,5,2.1,7.5c1.6,8.3,2.3,8.3,10.4,8.1c0,0,0,0,0.1,0V42.5C62.3,42.5,60.9,42.5,59.6,42.6z"/>
<path fill="#F7A827" d="M49.2,67c-1.4-4.8-2.5-9.8-4.5-14.5C36,58.2,31,66.3,29.8,76.4c-0.1,0.9-0.2,1.7-0.6,2.3l34.5-3.1v0
	c-1,0-2,0-3,0C53.8,75.6,51.1,73.5,49.2,67z"/>
<path fill="#F7A827" d="M63.6,77.2L26.3,80c-0.7,0.1-1.3,0.7-1.3,1.4v1.9c0,0.8,0.7,1.4,1.4,1.4h37.2v-7.6
	C63.7,77.2,63.6,77.2,63.6,77.2z"/>
</svg>
