<?xml version="1.0" encoding="utf-8"?>
<!-- Generator: Adobe Illustrator 18.0.0, SVG Export Plug-In . SVG Version: 6.00 Build 0)  -->
<!DOCTYPE svg PUBLIC "-//W3C//DTD SVG 1.1//EN" "http://www.w3.org/Graphics/SVG/1.1/DTD/svg11.dtd">
<svg version="1.1" id="Capa_1" xmlns="http://www.w3.org/2000/svg" xmlns:xlink="http://www.w3.org/1999/xlink" x="0px" y="0px"
	 viewBox="0 0 77.4 58.8" enable-background="new 0 0 77.4 58.8" xml:space="preserve">
<path fill="#F07F1D" d="M19.7,33.1V15.4c0-3.3,1.7-6.3,4.5-7.9l0,0c1.4-0.9,3.1-1.3,4.8-1.3h19.4c1.7,0,3.3,0.5,4.8,1.3l0.7,0.4
	c2.8,1.7,4.5,4.7,4.5,8v17.4"/>
<path fill="#FBC02E" d="M38.6,24.1c-8.1,0.1-8.7,0.2-10.4-8.1c-0.5-2.5-1.4-5-2.1-7.5c-0.5-1.6-0.3-2.7,1.6-3.1
	c2.4-0.4,4.5-1.2,4.9-4.1c0.1-0.9,1.2-1.2,1.9-1.2c2.6-0.1,5.2-0.1,7.8,0c0.7,0,1.8,0.3,1.9,1.3c0.4,3,2.7,3.5,5,3.9
	c2.2,0.4,2.6,1.5,1.9,3.6c-1.1,3.2-1.9,6.5-2.7,9.8c-1.1,4.6-2,5.3-6.5,5.3C40.9,24.1,39.7,24.1,38.6,24.1z"/>
<path fill="#FBC02E" d="M38.7,33.1l34.9,3.2c-0.7-1-1-2.4-1.2-3.9c-1.4-8.7-5.7-15.7-12.7-21.2c-1.6-1.3-2.3-1.3-2.9,0.9
	c-1.3,4.7-2.7,9.4-4.2,14.1c-1.3,4.3-4.4,6.7-8.8,6.9c-2.7,0.1-5.4,0-8.2,0c-6.9,0-9.6-2.1-11.5-8.6c-1.4-4.8-2.5-9.8-4.5-14.5
	C11.1,15.7,6,23.8,4.8,33.9c-0.1,0.9-0.2,1.7-0.6,2.3L38.7,33.1z"/>
<path fill="#FBC02E" d="M76.1,37.5l-37.2-2.8c-0.1,0-0.1,0-0.2,0L1.3,37.5C0.6,37.6,0,38.2,0,38.9v1.9c0,0.8,0.6,1.4,1.4,1.4h74.5
	c0.8,0,1.4-0.6,1.4-1.4v-1.9C77.4,38.2,76.8,37.6,76.1,37.5z"/>
<path fill="none" d="M0,40.8v1.4h1.4C0.7,42.3,0,41.6,0,40.8z"/>
<path fill="#F7A827" d="M34.6,0.1c-0.8,0-1.8,0.4-1.9,1.2c-0.4,2.9-2.5,3.6-4.9,4.1c-1.9,0.3-2.1,1.5-1.6,3.1c0.7,2.5,1.6,5,2.1,7.5
	c1.6,8.3,2.3,8.3,10.4,8.1c0,0,0,0,0.1,0V0C37.3,0,35.9,0,34.6,0.1z"/>
<path fill="#F7A827" d="M24.2,24.5c-1.4-4.8-2.5-9.8-4.5-14.5C11.1,15.7,6,23.8,4.8,33.9c-0.1,0.9-0.2,1.7-0.6,2.3l34.5-3.1v0
	c-1,0-2,0-3,0C28.8,33.1,26.1,31,24.2,24.5z"/>
<path fill="#F7A827" d="M38.6,34.7L1.3,37.5C0.6,37.6,0,38.2,0,38.9v1.9c0,0.8,0.7,1.4,1.4,1.4h37.2v-7.6
	C38.7,34.7,38.6,34.7,38.6,34.7z"/>
</svg>
