<?xml version="1.0" encoding="utf-8"?>
<!-- Generator: Adobe Illustrator 18.0.0, SVG Export Plug-In . SVG Version: 6.00 Build 0)  -->
<!DOCTYPE svg PUBLIC "-//W3C//DTD SVG 1.1//EN" "http://www.w3.org/Graphics/SVG/1.1/DTD/svg11.dtd">
<svg version="1.1" id="Layer_1" xmlns="http://www.w3.org/2000/svg" xmlns:xlink="http://www.w3.org/1999/xlink" x="0px" y="0px"
	 viewBox="13 11.2 39.8 39.8" enable-background="new 13 11.2 39.8 39.8" xml:space="preserve">
<g>
	
		<path fill="#546E7A" stroke="#FFFFFF" stroke-width="3" stroke-linecap="round" stroke-linejoin="round" stroke-miterlimit="10" d="
		M31.3,24.2L16.2,41.7c-0.7,0.7-0.7,1.8,0,2.4l0.8,0.8l-2,2c-0.6,0.6-0.6,1.5,0,2.1c0.3,0.3,0.7,0.4,1.1,0.4s0.8-0.1,1.1-0.4l2-2
		l0.6,0.6c0.7,0.7,1.8,0.7,2.4,0l17.7-14.9c-2.1-0.5-4-1.5-5.5-3C32.7,28.2,31.7,26.2,31.3,24.2z"/>
	
		<path fill="#546E7A" stroke="#FFFFFF" stroke-width="3" stroke-linecap="round" stroke-linejoin="round" stroke-miterlimit="10" d="
		M50.2,26.3c0-0.1,0.1-0.2,0.1-0.3c0.1-0.2,0.2-0.3,0.2-0.5c0-0.1,0.1-0.2,0.1-0.2c0.1-0.2,0.2-0.4,0.2-0.6c0,0,0-0.1,0.1-0.1
		c1-3.1,0.2-6.7-2.3-9.2c-1.8-1.8-4.1-2.7-6.5-2.7c-0.6,0-1.2,0.1-1.8,0.2c0,0-0.1,0-0.1,0c-0.2,0-0.5,0.1-0.7,0.2
		c-0.1,0-0.2,0.1-0.3,0.1c-0.2,0.1-0.4,0.1-0.6,0.2c-0.1,0.1-0.2,0.1-0.4,0.2c-0.1,0.1-0.2,0.1-0.4,0.2c0,0,0,0,0,0
		c-0.9,0.5-1.8,1.1-2.5,1.8c0,0,0,0,0,0c-0.1,0.1-0.1,0.1-0.2,0.2c-0.1,0.1-0.3,0.3-0.4,0.5c-0.1,0.1-0.1,0.2-0.2,0.2
		c-0.1,0.2-0.2,0.3-0.3,0.5c-0.1,0.1-0.1,0.2-0.2,0.3c-0.1,0.2-0.2,0.3-0.3,0.5c0,0.1-0.1,0.2-0.1,0.2c-0.1,0.2-0.2,0.4-0.3,0.6
		c0,0.1-0.1,0.1-0.1,0.2c-0.1,0.2-0.1,0.4-0.2,0.6c0,0.1,0,0.1,0,0.2c-0.1,0.2-0.1,0.4-0.2,0.7c0,0.1,0,0.1,0,0.2
		c0,0.2-0.1,0.5-0.1,0.7c0,0.1,0,0.1,0,0.2c0,0.2,0,0.4,0,0.6c0,1.2,0.2,2.4,0.7,3.5c0,0,0,0,0,0c0.1,0.2,0.2,0.5,0.3,0.7
		c0,0,0,0.1,0.1,0.1c0.1,0.2,0.3,0.5,0.4,0.7c0,0,0,0.1,0,0.1c0.5,0.8,1.1,1.5,1.9,2c0,0,0,0,0,0c0.2,0.2,0.5,0.4,0.7,0.5
		c0.1,0,0.1,0.1,0.2,0.1c0.2,0.1,0.4,0.2,0.6,0.3C38,30,38,30,38.1,30c0.2,0.1,0.4,0.2,0.6,0.3c0.1,0,0.2,0.1,0.3,0.1
		c0.2,0.1,0.4,0.1,0.6,0.2c0.1,0,0.2,0,0.3,0.1c0.2,0.1,0.4,0.1,0.6,0.1c0.1,0,0.2,0,0.3,0.1c0.2,0,0.4,0.1,0.5,0.1
		c0.3,0,0.5,0,0.8,0c0,0,0.1,0,0.1,0c0,0,0,0,0,0c0,0,0,0,0,0c0.3,0,0.6,0,0.9,0c0.1,0,0.2,0,0.3,0c0.2,0,0.4-0.1,0.6-0.1
		c0.1,0,0.2,0,0.3-0.1c0.2,0,0.3-0.1,0.5-0.1c0.1,0,0.2-0.1,0.3-0.1c0.2-0.1,0.3-0.1,0.5-0.2c0.1,0,0.2-0.1,0.3-0.1
		c0.2-0.1,0.3-0.2,0.5-0.2c0.1,0,0.2-0.1,0.3-0.1c0.2-0.1,0.4-0.2,0.5-0.3c0.1,0,0.1-0.1,0.2-0.1c0.2-0.1,0.4-0.3,0.6-0.5
		c0,0,0,0,0.1,0c0,0,0,0,0,0c0,0,0,0,0,0c0.8-0.7,1.5-1.5,2-2.4c0,0,0,0,0,0C50.1,26.4,50.1,26.4,50.2,26.3z"/>
</g>
<circle fill="#F44336" cx="42.2" cy="21.8" r="9.2"/>
<g>
	<path fill="#546E7A" d="M31.3,24.2L16.2,41.7c-0.7,0.7-0.7,1.8,0,2.4l0.8,0.8l-2,2c-0.6,0.6-0.6,1.5,0,2.1c0.3,0.3,0.7,0.4,1.1,0.4
		s0.8-0.1,1.1-0.4l2-2l0.6,0.6c0.7,0.7,1.8,0.7,2.4,0l17.7-14.9c-2.1-0.5-4-1.5-5.5-3C32.7,28.2,31.7,26.2,31.3,24.2z"/>
	<path fill="#546E7A" d="M35.6,15.5c-3.4,3.6-3.4,9.3,0.1,12.8c1.8,1.8,4.1,2.7,6.5,2.7c2.1,0,4.2-0.7,5.9-2.1
		c-2.8-0.9-5.4-2.5-7.6-4.6C38,21.7,36.4,18.7,35.6,15.5z"/>
	<path fill="#546E7A" d="M48.7,15.3c-1.8-1.8-4.1-2.7-6.5-2.7c-1.4,0-2.8,0.3-4.1,1c0.6,3.2,2,6.2,4.5,8.6c2.2,2.2,4.8,3.6,7.6,4.2
		C52.1,23,51.7,18.4,48.7,15.3z"/>
</g>
</svg>
