<?xml version="1.0" encoding="utf-8"?>
<!-- Generator: Adobe Illustrator 18.0.0, SVG Export Plug-In . SVG Version: 6.00 Build 0)  -->
<!DOCTYPE svg PUBLIC "-//W3C//DTD SVG 1.1//EN" "http://www.w3.org/Graphics/SVG/1.1/DTD/svg11.dtd">
<svg version="1.1" id="Capa_1" xmlns="http://www.w3.org/2000/svg" xmlns:xlink="http://www.w3.org/1999/xlink" x="0px" y="0px"
	 viewBox="-9 -9 128 128" enable-background="new -9 -9 128 128" xml:space="preserve">
<g id="Artboard">
</g>
<g>
	<path fill="#0484AB" d="M87,29v52c0,3.3-2.7,6-6,6H29c-3.3,0-6-2.7-6-6V29c0-3.3,2.7-6,6-6h52C84.3,23,87,25.7,87,29z"/>
	<path fill="#059BBF" d="M87,31.9v49c0,3.3-2.7,6-6,6H29c-3.3,0-6-2.7-6-6V67.2L34.2,60l17,3l15.5-10.3l9-15.9L87,31.9z"/>
	<path fill="#21B2D1" d="M87,40v-2h-7v-4h-2v4h-5v2h5v6h-6v-3h-2v3h-1v2h1v6h-6l0,0h-2l0,0l0,0v2l0,0v6h-6v-2h-2v2h-6v-1h-2v1h-6v-2
		h-2v2h-6v-1h-2v1h-2.2v2H30v6h-7v2h7v6h-7v2h7v7h2v-7h6v7h2v-7h6v7h2v-7h6v7h2v-7h6v7h2v-7h6v7h2v-7h6v7h2v-7h7v-2h-7v-6h7v-2h-7
		v-6h7v-2h-7v-6h7v-2h-7v-6h7v-2h-7v-6C80,40,87,40,87,40z M64,56h6v6h-6V56z M70,64v6h-6v-6C64,64,70,64,70,64z M62,64v6h-6v-6
		C56,64,62,64,62,64z M54,64v6h-6v-6C48,64,54,64,54,64z M46,64v6h-6v-6C40,64,46,64,46,64z M32,64h6v6h-6V64z M32,78v-6h6v6H32z
		 M40,78v-6h6v6H40z M48,78v-6h6v6H48z M56,78v-6h6v6H56z M64,78v-6h6v6H64z M78,78h-6v-6h6V78z M78,70h-6v-6h6V70z M78,62h-6v-6h6
		V62z M78,54h-6v-6h6V54z"/>
	<path fill="#FFFFFF" d="M87,29.8l-10.7,4.6c-2.7-1.3-5.4,1.6-3.9,4.2L66.5,49c-2.1-0.4-3.9,1.6-3.4,3.7l-10.3,6.9
		C52.3,59.2,51.7,59,51,59c-1.1,0-2.1,0.6-2.6,1.5l-11.5-2c-0.7-4.1-6.8-2.8-5.9,1.2L23,64.9v2.4l9.2-5.9c1.5,1.2,3.5,0.7,4.4-0.9
		l11.5,2c0.2,1.4,1.5,2.5,3,2.5c1.9,0,3.4-1.8,2.9-3.7l10.3-6.9c2.9,2.1,6.4-1.7,4-4.4L74,39.8c2.5,0.9,4.7-1.6,3.8-3.9l9.2-4V29.8z
		"/>
	<polygon fill="#FFFFFF" points="59,48 51,54 43,48 43,30 59,30 	"/>
	<g>
		<path fill="#F37A10" d="M51,34.1c0.4,0,0.8,0.3,0.8,0.8v0.2c0.8,0.1,1.5,0.4,2.2,0.7c0.3,0.2,0.5,0.5,0.5,0.9c0,0.6-0.5,1-1,1
			c-0.2,0-0.4,0-0.5-0.1c-0.4-0.2-0.8-0.4-1.3-0.5v2.3c2.3,0.6,3.3,1.6,3.3,3.3s-1.3,2.8-3.2,3v0.8c0,0.4-0.3,0.8-0.8,0.8
			c-0.4,0-0.8-0.3-0.8-0.8v-0.8c-1.1-0.1-2.1-0.5-3-1.1c-0.3-0.2-0.5-0.5-0.5-0.9c0-0.6,0.5-1,1-1c0.2,0,0.4,0.1,0.6,0.2
			c0.6,0.4,1.2,0.7,1.9,0.8v-2.4c-2.2-0.6-3.3-1.4-3.3-3.2c0-1.7,1.3-2.8,3.2-3v-0.2C50.2,34.5,50.6,34.1,51,34.1z M50.3,39v-2
			c-0.7,0.1-1,0.5-1,1C49.3,38.4,49.5,38.7,50.3,39z M51.7,41.7v2.1c0.7-0.1,1.1-0.4,1.1-1C52.8,42.3,52.6,42,51.7,41.7z"/>
	</g>
</g>
</svg>
