<?xml version="1.0" encoding="utf-8"?>
<!-- Generator: Adobe Illustrator 18.0.0, SVG Export Plug-In . SVG Version: 6.00 Build 0)  -->
<!DOCTYPE svg PUBLIC "-//W3C//DTD SVG 1.1//EN" "http://www.w3.org/Graphics/SVG/1.1/DTD/svg11.dtd">
<svg version="1.1" id="Capa_1" xmlns="http://www.w3.org/2000/svg" xmlns:xlink="http://www.w3.org/1999/xlink" x="0px" y="0px"
	 viewBox="-9 -9 128 128" enable-background="new -9 -9 128 128" xml:space="preserve">
<g id="Artboard">
</g>
<path fill="#1D1D1B" d="M27,83V25c0-1.1-0.9-2-2-2s-2,0.9-2,2v62h62c1.1,0,2-0.9,2-2s-0.9-2-2-2H27z"/>
<rect x="33" y="67" fill="#0484AB" width="12" height="16"/>
<rect x="51" y="56" fill="#0484AB" width="12" height="27"/>
<rect x="69" y="34" fill="#0484AB" width="12" height="49"/>
<path fill="#9CE5F4" d="M70.3,44.7c0.4-9.1-6.7-16.8-15.8-17.2s-16.8,6.7-17.2,15.8c-0.1,2.8,0.5,5.5,1.6,7.9L24.6,65.5
	c1.1,3.4,3.4,5.7,6.9,6.9l14.1-14.1c2.2,1.3,4.8,2.1,7.5,2.2C62.2,60.8,69.9,53.8,70.3,44.7z"/>
<path fill="#C9F2F8" d="M54.5,27.4c-9.1-0.4-16.8,6.7-17.2,15.8c-0.1,2.8,0.5,5.5,1.6,7.9L24.6,65.5c0.6,1.9,1.6,3.5,3,4.7
	l37.8-37.8C62.6,29.5,58.8,27.6,54.5,27.4z"/>
<circle fill="#40C9E7" cx="53.8" cy="43.9" r="11.8"/>
<path fill="#6FDAF1" d="M54.3,32.2c-6.5-0.3-12,4.8-12.3,11.3c-0.2,3.4,1.2,6.6,3.5,8.9l16.7-16.7C60.1,33.6,57.4,32.3,54.3,32.2z"
	/>
<path fill="#84462D" d="M38.9,51.1L24.6,65.5c1.1,3.4,3.4,5.7,6.9,6.9l14.1-14.1C42.7,56.6,40.4,54.1,38.9,51.1z"/>
<path fill="#9C6144" d="M38.9,51.1L24.6,65.5c0.6,1.9,1.6,3.5,3,4.7l14.5-14.5C40.8,54.3,39.7,52.8,38.9,51.1z"/>
<path fill="#F3B607" d="M42.5,61.3l3-3c-2.9-1.7-5.2-4.1-6.6-7.1l-3.3,3.3L42.5,61.3z"/>
<path fill="#FBE158" d="M38.9,51.1l-3.3,3.3l3.8,3.8l2.6-2.6C40.8,54.3,39.7,52.8,38.9,51.1z"/>
</svg>
