<?xml version="1.0" encoding="utf-8"?>
<!-- Generator: Adobe Illustrator 18.0.0, SVG Export Plug-In . SVG Version: 6.00 Build 0)  -->
<!DOCTYPE svg PUBLIC "-//W3C//DTD SVG 1.1//EN" "http://www.w3.org/Graphics/SVG/1.1/DTD/svg11.dtd">
<svg version="1.1" id="Capa_1" xmlns="http://www.w3.org/2000/svg" xmlns:xlink="http://www.w3.org/1999/xlink" x="0px" y="0px"
	 width="128.7px" height="128.7px" viewBox="-9.3 -9.3 128.7 128.7" enable-background="new -9.3 -9.3 128.7 128.7"
	 xml:space="preserve">
<g id="Artboard">
</g>
<g>
	<g>
		<polygon fill="#E2E4E5" points="67,68 65,67 45,67 43,68 55,87 		"/>
	</g>
	<path fill="#F8E1C2" d="M70,45c-1,0-1,1.1-1,1.1V45c0-1.1,0-2.1-0.1-3.1C64.9,38,55,38,55,38s-9.9,0-13.9,3.9c0,1-0.1,2-0.1,3.1v8
		l4,10l5.1,4c0.6,0.6,1.4,1,2.2,1H55h2.7c0.9,0,1.7-0.4,2.2-1l5.1-4l3.2-8c2.8-0.2,3.8-4.5,3.8-7.8C72,46.1,71,45,70,45z"/>
	<path fill="#FCF1E2" d="M41,45v1.1c0,0,0-1.1-1-1.1s-2,1.1-2,2.2c0,3.3,1,7.6,3.8,7.8l3.2,8l5.1,4c0.6,0.6,1.4,1,2.2,1H55V38
		c0,0-9.9,0-13.9,3.9C41,42.9,41,43.9,41,45z"/>
	<g>
		<path fill="#F79392" d="M50,57h10c0,0,0,3-5,3S50,57,50,57z"/>
	</g>
	<g>
		<path fill="#3E3E3F" d="M61,47.3c1.2,0,2.2,0.3,3,0.7c0.1-0.6-0.2-1.2-0.7-1.6c-1-0.8-2.7-0.8-3.7,0c-0.5,0.4-0.7,0.8-0.8,1.3
			C59.4,47.5,60.2,47.3,61,47.3z"/>
	</g>
	<g>
		<path fill="#3E3E3F" d="M49,47.3c-1.2,0-2.2,0.3-3,0.7c-0.1-0.6,0.2-1.2,0.7-1.6c1-0.8,2.7-0.8,3.7,0c0.5,0.4,0.7,0.8,0.8,1.3
			C50.6,47.5,49.8,47.3,49,47.3z"/>
	</g>
	<path fill="#F4D0A1" d="M57.7,68H55h-2.7c-0.9,0-1.7-0.4-2.2-1L45,63v4.5c0,0,0,7.5,10,7.5s10-7.5,10-7.5V63l-5.1,4
		C59.3,67.6,58.5,68,57.7,68z"/>
	<g>
		<path fill="#3E3E3F" d="M55,38c0,0-0.8,0-1.9,0.1c0,1.3,0,4.2,0,5.6c3.7,0,6-2.7,7.3-5.2C57.4,38,55,38,55,38z"/>
		<path fill="#3E3E3F" d="M45.9,39.3C44,39.9,42.2,40.8,41,42c0,3.5,2.3,5.3,2.3,5.3C43,44.3,43,42.4,45.9,39.3z"/>
		<path fill="#3E3E3F" d="M46.9,39.1c0,1,0,2.8,0,4.6c2.9,0,5.1-4.1,5.9-5.6C51.2,38.2,49,38.5,46.9,39.1z"/>
		<path fill="#3E3E3F" d="M66.3,40.2c0,0.4,0,4.5,0,7c2.5,0,2.6-4.7,2.7-5.3C68.3,41.3,67.4,40.7,66.3,40.2z"/>
		<path fill="#3E3E3F" d="M61.9,38.8c0,1.7,0,3.5,0,4.9c3.4,0,4.3-3.2,4.4-3.5C65,39.6,63.4,39.1,61.9,38.8z"/>
	</g>
	<path fill="#F8E1C2" d="M50.1,67L45,63v4.5c0,0,0,7.5,10,7.5v-7h-2.7C51.5,68,50.7,67.6,50.1,67z"/>
	<g>
		<path fill="#FA5655" d="M34.5,53.4V33.8c-0.7-0.2-1.4-0.5-2-0.7v20.3c-2.6,1.7-1,6.8-1,9.6c1,0,1.5,0,1.8,0c0.1,0,0.1,0,0.2,0
			c0.1,0,0.2,0,0.2,0c0.3,0,0.8,0,1.8,0C35.5,60.3,37.1,55.2,34.5,53.4z"/>
		<path fill="#3E3E3F" d="M82,31c0-1-25-8-27-8s-27,7-27,8c0,0.6,7.4,3.2,13,5.1c0,1.7,0,3.8,0,5.9c4-4,14-4,14-4s10,0,14,4
			c0-2.2,0-4.2,0-5.9C74.6,34.2,82,31.6,82,31z"/>
	</g>
	<g>
		<polygon fill="#FFFFFF" points="67,68.1 67,68 65,67 55,72 60.8,77.8 		"/>
	</g>
	<g>
		<polygon fill="#DF2C2C" points="59,87 56.2,76.8 58,75 55,72 52,75 53.8,76.8 51,87 		"/>
	</g>
	<g>
		<polygon fill="#FA5655" points="55,87 55,72 55,72 52,75 53.8,76.8 51,87 		"/>
	</g>
	<g>
		<polygon fill="#FFFFFF" points="43,68.1 43,68 45,67 55,72 49.2,77.8 		"/>
	</g>
	<g>
		<path fill="#3E3E3F" d="M23,87l4-11c0.6-1.3,1.7-2.4,3-3l13-5l12,19H23z"/>
	</g>
	<g>
		<path fill="#3E3E3F" d="M87,87l-4-11c-0.6-1.3-1.7-2.4-3-3l-13-5L55,87H87z"/>
	</g>
	<g>
		<polygon fill="#9E9FA0" points="55,87 43,68 34,71 51,87 		"/>
	</g>
	<g>
		<polygon fill="#9E9FA0" points="55,87 67,68 76,71 59,87 		"/>
	</g>
</g>
</svg>
