<?xml version="1.0" encoding="utf-8"?>
<!-- Generator: Adobe Illustrator 18.0.0, SVG Export Plug-In . SVG Version: 6.00 Build 0)  -->
<!DOCTYPE svg PUBLIC "-//W3C//DTD SVG 1.1//EN" "http://www.w3.org/Graphics/SVG/1.1/DTD/svg11.dtd">
<svg version="1.1" id="Layer_1" xmlns="http://www.w3.org/2000/svg" xmlns:xlink="http://www.w3.org/1999/xlink" x="0px" y="0px"
	 width="128px" height="128px" viewBox="0 0 128 128" enable-background="new 0 0 128 128" xml:space="preserve">
<g>
	<g>
		<path fill="#3F5FFF" d="M41.7,93h22.5V36H41.7c1.9,8,10,19.3,15.7,25.5c1.6,1.8,1.6,3.7,0,5.5C51.7,73.2,43.5,85,41.7,93z"/>
	</g>
	<path fill="#3F5FFF" d="M64.2,93H40c-0.9,0-1.3,0.7-1.3,1.6v1.7c0,0.9,0.4,1.8,1.3,1.8h24.2V93z"/>
	<path fill="#3F5FFF" d="M64.2,31H40.3c-0.9,0-1.7,0.7-1.7,1.7v1.7c0,0.9,0.7,1.7,1.7,1.7h23.8V31z"/>
	<g>
		<path fill="#3F5FFF" d="M70.6,61.3C76.3,55.2,84.4,44,86.3,36H64v57h22.3c-1.9-8-10-19.6-15.7-25.8C69,65.4,69,63.1,70.6,61.3z"/>
	</g>
	<path fill="#3F5FFF" d="M88,93H64v5h24c0.9,0,1.7-0.8,1.7-1.8v-1.7C89.7,93.7,88.9,93,88,93z"/>
	<path fill="#3F5FFF" d="M88,31H64v5h24c0.9,0,1.7-0.7,1.7-1.7v-1.7C89.7,31.7,88.9,31,88,31z"/>
</g>
<g>
	<path fill="#EAD57D" d="M64.4,76.3c-0.1-0.1-0.3-0.1-0.4-0.1c-1.9,0-12.2,8.5-16.8,16.7h17.1V76.3z"/>
</g>
<g>
	<path fill="#D6C169" d="M64,92.9h16.7C76.1,84.8,65.7,76.3,64,76.3c0,0,0,0,0,0L64,92.9L64,92.9z"/>
</g>
<path fill="#EAD57D" d="M73.2,50H64h-0.2h-9c2.4,4.2,7.9,8.7,8.9,9.2v-0.1c0,0,0.3-0.1,0.3-0.1c0,0-0.3,0-0.3,0v0.1
	C64.7,59.1,70.7,54.5,73.2,50z"/>
<path fill="#D6C169" d="M64,50v9c1.5-0.6,6.9-4.8,9.3-9H64z"/>
</svg>
