<?xml version="1.0" encoding="utf-8"?>
<!-- Generator: Adobe Illustrator 18.0.0, SVG Export Plug-In . SVG Version: 6.00 Build 0)  -->
<!DOCTYPE svg PUBLIC "-//W3C//DTD SVG 1.1//EN" "http://www.w3.org/Graphics/SVG/1.1/DTD/svg11.dtd">
<svg version="1.1" id="Capa_1" xmlns="http://www.w3.org/2000/svg" xmlns:xlink="http://www.w3.org/1999/xlink" x="0px" y="0px"
	 viewBox="90.6 281.2 319 319.7" enable-background="new 90.6 281.2 319 319.7" xml:space="preserve">
<path fill="#58656A" d="M395.3,352.5c-2.8-0.5-5.6,0.5-7.9,2.3l-66,67.4c-6.5,6.5-29.3,1.9-44.2-4.2c-6-14.9-10.7-37.7-4.2-44.2
	l67.9-66c1.9-1.9,2.8-5.1,2.3-7.9s-2.3-5.1-5.1-6c-42.3-16.7-90.2-7-122.3,25.1c-28.4,28.4-39.1,67.9-30.7,105.1
	c-0.9,18.1-17.7,40-26.5,48.4l-66,66.5c16.7,24.6,38.6,45.6,63.2,61.9l63.2-62.8c8.8-8.8,32.6-25.1,50.7-27c2.8,0,8.4,0.5,9.8,0.9
	l0,0c35.3,5.1,71.2-6.5,96.7-32.1c32.1-32.1,41.9-80,25.1-122.3C400.4,354.9,398,353,395.3,352.5z"/>
<path fill="#D2D2D1" d="M395.3,347.9c-2.8-0.5-5.6,0.5-7.9,2.3l-66,67.4c-6.5,6.5-29.3,1.9-44.2-4.2c-6-14.9-10.7-37.7-4.2-44.2
	l67.9-66c1.9-1.9,2.8-5.1,2.3-7.9s-2.3-5.1-5.1-6c-42.3-16.7-90.2-7-122.3,25.1c-28.4,28.4-39.1,67.9-30.7,105.1
	c-0.9,18.1-17.7,40-26.5,48.4l-67.9,68.4c16.7,24.6,37.7,46,62.3,62.8l66-65.6c8.8-8.8,32.6-25.1,50.7-27c2.8,0,8.4,0.5,9.8,0.9l0,0
	c35.3,5.1,71.2-6.5,96.7-32.1c32.1-32.1,41.9-80,25.1-122.3C400.4,350.2,398,348.3,395.3,347.9z"/>
<g>
	<path fill="#A5A59B" d="M408.7,381.8c0.5,5.1,0.9,10.2,0.9,15.3c-0.5-13-2.8-26.5-7.9-39.1c-0.9-2.8-3.3-4.7-6-5.1
		c-2.8-0.5-5.6,0.5-7.9,2.3l-66.5,67c-6.5,6.5-29.3,1.9-44.2-4.2c-0.5-1.4-0.9-2.8-1.4-4.2L118.5,570.6c10.2,10.7,21.9,20,34.4,28.4
		l66-65.6c8.8-8.8,32.6-25.1,50.7-27c2.8,0,8.4,0.5,9.8,0.9l0,0c35.3,5.1,71.2-6.5,96.7-32.1C401.3,450.2,412.5,415.8,408.7,381.8z
		 M404.6,362.3l-0.5-2.3L404.6,362.3z M408.3,379.5c0-1.4-0.5-2.8-0.5-4.2C407.8,376.7,408.3,378.1,408.3,379.5z M406.9,371.1
		l-0.9-3.7L406.9,371.1z"/>
</g>
<path fill="#A5A59B" d="M215.3,319.5c32.1-32.1,80-41.9,122.3-25.1c2.3,0.9,4.2,3.3,5.1,5.6c0.5-1.4,0.5-2.8,0-4.2
	c-0.5-2.8-2.3-5.1-5.1-6c-42.3-16.7-90.2-7-122.3,25.1c-22.3,22.3-33.5,52.1-33.5,81.4C183.2,368.3,194.3,340.4,215.3,319.5z
	 M158.5,468.3l-67.9,67.9l1.9,2.8l66-66c8.8-8.8,25.1-30.2,26.5-48.4l-0.5-1.9C182.3,440.4,166.9,460,158.5,468.3z"/>
<path fill="#CCD0D2" d="M184.6,489.3l-73.5,73.5c5.1,5.6,10.7,11.2,16.3,16.3l73.5-73.5c4.7-4.7,4.7-12.1,0-16.3
	C196.2,485.1,189.2,484.6,184.6,489.3z"/>
<path fill="#B8BCBE" d="M184.6,489.3l-73.5,73.5l2.3,2.3l71.2-71.2c4.7-4.7,12.1-4.7,16.3,0c1.9,1.9,2.8,3.7,3.3,6
	c0.9-3.7-0.5-7.9-3.3-10.7C196.7,484.6,189.2,484.6,184.6,489.3z"/>
</svg>
