<svg xmlns="http://www.w3.org/2000/svg" xmlns:xlink="http://www.w3.org/1999/xlink" viewBox="53.6 363 595.3 333.8" enable-background="new 53.6 363 595.3 333.8"><path fill="#B2B2B2" d="M98.5 673c-.9-2.1-1.5-4.4-1.5-6.9v-286c0-9.4 7.7-17.1 17.1-17.1h468.7c9.4 0 17.1 7.7 17.1 17.1v286c0 2.4-.5 4.8-1.5 6.9h50.1c-.2 12.9-10.8 23.4-23.7 23.4H77.7c-12.9 0-23.6-10.5-23.7-23.4h44.5z"/><path fill="#B2B2B2" d="M98.5 673c-.9-2.1-1.5-4.4-1.5-6.9v-286c0-9.4 7.7-17.1 17.1-17.1h468.7c9.4 0 17.1 7.7 17.1 17.1v286c0 2.4-.5 4.8-1.5 6.9h50.1c-.2 12.9-10.8 23.4-23.7 23.4H77.7c-12.9 0-23.6-10.5-23.7-23.4h44.5z"/><path fill="#211915" d="M114.1 363.2h468.7c9.4 0 17.1 7.6 17.1 17.1v285.9c0 9.4-7.6 17.1-17.1 17.1H114.1c-9.4 0-17.1-7.6-17.1-17.1v-286c.1-9.4 7.7-17 17.1-17z"/><path opacity=".4" fill="#FFF" enable-background="new" d="M116.1 367.5h464.8c8.1 0 14.7 6.6 14.7 14.7v282c0 8.1-6.6 14.7-14.7 14.7H116.1c-8.1 0-14.7-6.6-14.7-14.7v-282c0-8.1 6.6-14.7 14.7-14.7z"/><path fill="#211915" d="M116 368.6h465c7.4 0 13.5 6 13.5 13.5v282.3c0 7.4-6 13.5-13.5 13.5H116c-7.4 0-13.5-6-13.5-13.5V382c0-7.4 6-13.4 13.5-13.4z"/><defs><filter id="a" filterUnits="userSpaceOnUse" x="122" y="388.1" width="453" height="270.2"><feColorMatrix values="1 0 0 0 0 0 1 0 0 0 0 0 1 0 0 0 0 0 1 0"/></filter></defs><mask maskUnits="userSpaceOnUse" x="122" y="388.1" width="453" height="270.2" id="b"><path fill="#1A1A1A" filter="url(#a)" d="M348.5 523.2l-74.6 253 3.1.9 71.5-253.9"/><path d="M348.5 523.2l74.6-253-3.1-.9-71.5 253.9"/><path fill="#1A1A1A" d="M348.5 523.2L277 777.1l3.1.9 68.4-254.8"/><path d="M348.5 523.2L420 269.3l-3.1-.9-68.4 254.8"/><path fill="#1A1A1A" d="M348.5 523.2l-68.4 254.7 3.2.8 65.2-255.5"/><path d="M348.5 523.2l68.4-254.8-3.1-.8-65.3 255.6"/><path fill="#1A1A1A" d="M348.5 523.2l-65.2 255.6 3.2.8 62-256.4"/><path d="M348.5 523.2l65.2-255.6-3.2-.8-62 256.4"/><path fill="#1A1A1A" d="M348.5 523.2l-62.1 256.4 3.2.7 58.9-257.1"/><path d="M348.5 523.2l62.1-256.4-3.2-.7-58.9 257.1"/><path fill="#191919" d="M348.5 523.2l-58.9 257.1 3.2.7 55.7-257.8"/><path fill="#010101" d="M348.5 523.2l58.9-257.1-3.2-.7-55.7 257.8"/><path fill="#191919" d="M348.5 523.2L292.8 781l3.2.7 52.5-258.5"/><path fill="#010101" d="M348.5 523.2l55.7-257.8-3.2-.7-52.5 258.5"/><path fill="#191919" d="M348.5 523.2l-52.6 258.5 3.2.6 49.4-259.1"/><path fill="#010101" d="M348.5 523.2l52.6-258.5-3.2-.6-49.4 259.1"/><path fill="#191919" d="M348.5 523.2l-49.4 259.1 3.2.6 46.2-259.7"/><path fill="#010101" d="M348.5 523.2l49.4-259.1-3.2-.6-46.2 259.7"/><path fill="#191919" d="M348.5 523.2l-46.2 259.7 3.2.5 43-260.2"/><path fill="#010101" d="M348.5 523.2l46.2-259.7-3.2-.5-43 260.2"/><path fill="#191919" d="M348.5 523.2l-43 260.2 3.2.5 39.8-260.7"/><path fill="#010101" d="M348.5 523.2l43-260.2-3.2-.5-39.8 260.7"/><path fill="#191919" d="M348.5 523.2l-39.8 260.7 3.2.5 36.6-261.2"/><path fill="#010101" d="M348.5 523.2l39.7-260.7-3.2-.5-36.5 261.2"/><path fill="#191919" d="M348.5 523.2l-36.6 261.2 3.2.4 33.4-261.6"/><path fill="#010101" d="M348.5 523.2L385 262l-3.2-.4-33.3 261.6"/><path fill="#191919" d="M348.5 523.2l-33.3 261.7 3.2.4 30.1-262.1"/><path fill="#010101" d="M348.5 523.2l33.3-261.7-3.2-.4-30.1 262.1"/><path fill="#191919" d="M348.5 523.2l-30.1 262 3.2.4 26.9-262.4"/><path fill="#010101" d="M348.5 523.2l30.1-262-3.2-.4-26.9 262.4"/><path fill="#181818" d="M348.5 523.2l-26.9 262.4 3.2.3 23.7-262.7"/><path fill="#020202" d="M348.5 523.2l26.9-262.4-3.2-.3-23.7 262.7"/><path fill="#181818" d="M348.5 523.2l-23.7 262.7 3.3.3 20.4-263"/><path fill="#020202" d="M348.5 523.2l23.6-262.7-3.3-.3-20.3 263"/><path fill="#181818" d="M348.5 523.2l-20.4 263 3.2.2 17.2-263.2"/><path fill="#020202" d="M348.5 523.2l20.4-263-3.2-.2-17.2 263.2"/><path fill="#181818" d="M348.5 523.2l-17.2 263.2 3.3.2 13.9-263.4"/><path fill="#020202" d="M348.5 523.2L365.7 260l-3.3-.2-13.9 263.4"/><path fill="#181818" d="M348.5 523.2l-13.9 263.4 3.3.2 10.6-263.6"/><path fill="#020202" d="M348.5 523.2l13.9-263.4-3.2-.1-10.7 263.5"/><path fill="#181818" d="M348.5 523.2l-10.7 263.6 3.2.1 7.5-263.7"/><path fill="#020202" d="M348.5 523.2l10.7-263.6-3.3-.1-7.4 263.7"/><path fill="#181818" d="M348.5 523.2l-7.4 263.7 3.3.1 4.1-263.8"/><path fill="#020202" d="M348.5 523.2l7.4-263.7-3.3-.1-4.1 263.8"/><path fill="#181818" d="M348.5 523.2l-4.2 263.7h3.3l.9-263.7"/><path fill="#020202" d="M348.5 523.2l4.2-263.7h-3.3l-.9 263.7"/><path fill="#181818" d="M348.5 523.2l-.9 263.8h3.3l-2.4-263.8"/><path fill="#020202" d="M348.5 523.2l.9-263.8h-3.3l2.4 263.8"/><path fill="#181818" d="M348.5 523.2l2.3 263.8h3.3l-5.6-263.8"/><path fill="#020202" d="M348.5 523.2l-2.3-263.8h-3.3l5.6 263.8"/><path fill="#171717" d="M348.5 523.2l5.6 263.7 3.3-.1-8.9-263.6"/><path fill="#030303" d="M348.5 523.2l-5.6-263.7-3.2.1 8.8 263.6"/><path fill="#171717" d="M348.5 523.2l8.8 263.6 3.2-.1-12-263.5"/><path fill="#030303" d="M348.5 523.2l-8.8-263.6-3.3.1 12.1 263.5"/><path fill="#171717" d="M348.5 523.2l12.1 263.5 3.3-.2-15.4-263.3"/><path fill="#030303" d="M348.5 523.2l-12.1-263.5-3.3.2 15.4 263.3"/><path fill="#171717" d="M348.5 523.2l15.3 263.3 3.3-.2-18.6-263.1"/><path fill="#030303" d="M348.5 523.2l-15.3-263.3-3.2.2 18.5 263.1"/><path fill="#171717" d="M348.5 523.2l18.6 263.1 3.2-.2-21.8-262.9"/><path fill="#030303" d="M348.5 523.2l-18.6-263.1-3.3.2 21.9 262.9"/><path fill="#171717" d="M348.5 523.2l21.8 262.9 3.3-.3-25.1-262.6"/><path fill="#030303" d="M348.5 523.2l-21.8-262.9-3.2.3 25 262.6"/><path fill="#171717" d="M348.5 523.2l25 262.6 3.2-.3-28.2-262.3"/><path fill="#030303" d="M348.5 523.2l-25-262.6-3.2.3 28.2 262.3"/><path fill="#171717" d="M348.5 523.2l28.3 262.3 3.2-.4-31.5-261.9"/><path fill="#030303" d="M348.5 523.2l-28.3-262.3-3.2.4 31.5 261.9"/><path fill="#171717" d="M348.5 523.2L380 785.1l3.2-.4-34.7-261.5"/><path fill="#030303" d="M348.5 523.2L317 261.3l-3.2.4 34.7 261.5"/><path fill="#171717" d="M348.5 523.2l34.7 261.5 3.2-.4-37.9-261.1"/><path fill="#030303" d="M348.5 523.2l-34.7-261.5-3.2.4 37.9 261.1"/><path fill="#161616" d="M348.5 523.2l37.9 261 3.2-.5-41.1-260.5"/><path fill="#040404" d="M348.5 523.2l-38-261-3.2.5 41.2 260.5"/><path fill="#161616" d="M348.5 523.2l41.2 260.5 3.2-.5-44.4-260"/><path fill="#040404" d="M348.5 523.2l-41.2-260.5-3.2.5 44.4 260"/><path fill="#161616" d="M348.5 523.2l44.4 260 3.2-.6-47.6-259.4"/><path fill="#040404" d="M348.5 523.2l-44.4-260-3.2.6 47.6 259.4"/><path fill="#161616" d="M348.5 523.2L396 782.6l3.2-.6-50.7-258.8"/><path fill="#040404" d="M348.5 523.2l-47.6-259.4-3.2.6 50.8 258.8"/><path fill="#161616" d="M348.5 523.2L399.2 782l3.2-.6-53.9-258.2"/><path fill="#040404" d="M348.5 523.2l-50.8-258.8-3.2.6 54 258.2"/><path fill="#161616" d="M348.5 523.2l53.9 258.2 3.2-.7-57.1-257.5"/><path fill="#040404" d="M348.5 523.2L294.6 265l-3.2.7 57.1 257.5"/><path fill="#161616" d="M348.5 523.2l57.1 257.5 3.2-.7-60.3-256.8"/><path fill="#040404" d="M348.5 523.2l-57.1-257.5-3.2.7 60.3 256.8"/><path fill="#161616" d="M348.5 523.2L408.8 780l3.2-.8-63.5-256"/><path fill="#040404" d="M348.5 523.2l-60.3-256.8-3.2.8 63.5 256"/><path fill="#161616" d="M348.5 523.2l63.4 256 3.2-.8-66.6-255.2"/><path fill="#040404" d="M348.5 523.2l-63.5-256-3.1.8 66.6 255.2"/><path fill="#161616" d="M348.5 523.2l66.6 255.2 3.1-.8-69.7-254.4"/><path fill="#040404" d="M348.5 523.2L281.9 268l-3.2.8 69.8 254.4"/><path fill="#151515" d="M348.5 523.2l69.7 254.4 3.1-.9-72.8-253.5"/><path fill="#050505" d="M348.5 523.2l-69.7-254.4-3.1.9 72.8 253.5"/><path fill="#151515" d="M348.5 523.2l72.8 253.5 3.1-.9-75.9-252.6"/><path fill="#050505" d="M348.5 523.2l-72.9-253.5-3.1.9 76 252.6"/><path fill="#151515" d="M348.5 523.2l76 252.6 3.1-1-79.1-251.6"/><path fill="#050505" d="M348.5 523.2l-76-252.6-3.1 1 79.1 251.6"/><path fill="#151515" d="M348.5 523.2l79.1 251.6 3.1-1-82.2-250.6"/><path fill="#050505" d="M348.5 523.2l-79.1-251.6-3.1 1 82.2 250.6"/><path fill="#151515" d="M348.5 523.2l82.2 250.6 3.1-1-85.3-249.6"/><path fill="#050505" d="M348.5 523.2l-82.2-250.6-3.1 1 85.3 249.6"/><path fill="#151515" d="M348.5 523.2l85.2 249.6 3.1-1.1-88.3-248.5"/><path fill="#050505" d="M348.5 523.2l-85.3-249.6-3.1 1.1 88.4 248.5"/><path fill="#151515" d="M348.5 523.2l88.3 248.5 3.1-1.1-91.4-247.4"/><path fill="#050505" d="M348.5 523.2l-88.3-248.5-3.1 1.1 91.4 247.4"/><path fill="#151515" d="M348.5 523.2l91.4 247.4 3-1.1-94.4-246.3"/><path fill="#050505" d="M348.5 523.2l-91.4-247.4-3.1 1.2 94.5 246.2"/><path fill="#151515" d="M348.5 523.2l94.4 246.3 3-1.2-97.4-245.1"/><path fill="#050505" d="M348.5 523.2l-94.4-246.3-3 1.2 97.4 245.1"/><path fill="#141414" d="M348.5 523.2l97.4 245.1 3-1.2-100.4-243.9"/><path fill="#060606" d="M348.5 523.2L251 278.1l-3 1.2 100.5 243.9"/><path fill="#141414" d="M348.5 523.2l100.4 243.9 3-1.3-103.4-242.6"/><path fill="#060606" d="M348.5 523.2L248 279.3l-3 1.3 103.5 242.6"/><path fill="#141414" d="M348.5 523.2L452 765.8l3-1.3-106.5-241.3"/><path fill="#060606" d="M348.5 523.2L245 280.6l-3 1.3 106.5 241.3"/><path fill="#141414" d="M348.5 523.2l106.4 241.3 3-1.3-109.4-240"/><path fill="#060606" d="M348.5 523.2L242 281.9l-3 1.3 109.5 240"/><path fill="#141414" d="M348.5 523.2l109.4 240 3-1.4-112.4-238.6"/><path fill="#060606" d="M348.5 523.2l-109.4-240-2.9 1.4 112.3 238.6"/><path fill="#141414" d="M348.5 523.2l112.3 238.6 2.9-1.4-115.2-237.2"/><path fill="#060606" d="M348.5 523.2L236.2 284.5l-2.9 1.4 115.2 237.3"/><path fill="#141414" d="M348.5 523.2l115.3 237.2 2.9-1.5-118.2-235.7"/><path fill="#060606" d="M348.5 523.2L233.2 286l-2.9 1.4 118.2 235.8"/><path fill="#141414" d="M348.5 523.2L466.7 759l2.9-1.5-121.1-234.3"/><path fill="#060606" d="M348.5 523.2L230.3 287.4l-2.9 1.5 121.1 234.3"/><path fill="#141414" d="M348.5 523.2l121.1 234.3 2.9-1.5-124-232.8"/><path fill="#060606" d="M348.5 523.2L227.4 288.9l-2.9 1.5 124 232.8"/><path fill="#141414" d="M348.5 523.2l124 232.8 2.9-1.5-126.9-231.3"/><path fill="#060606" d="M348.5 523.2l-124-232.8-2.9 1.6 126.9 231.2"/><path fill="#131313" d="M348.5 523.2l126.8 231.3 2.8-1.6-129.6-229.7"/><path fill="#070707" d="M348.5 523.2L221.7 291.9l-2.8 1.6 129.6 229.7"/><path fill="#131313" d="M348.5 523.2l129.6 229.7 2.8-1.6-132.4-228.1"/><path fill="#070707" d="M348.5 523.2L218.8 293.5l-2.8 1.6 132.5 228.1"/><path fill="#131313" d="M348.5 523.2L481 751.3l2.8-1.7-135.3-226.4"/><path fill="#070707" d="M348.5 523.2L216 295.1l-2.8 1.7 135.3 226.4"/><path fill="#131313" d="M348.5 523.2l135.3 226.4 2.8-1.7-138.1-224.7"/><path fill="#070707" d="M348.5 523.2L213.2 296.8l-2.8 1.7 138.1 224.7"/><path fill="#131313" d="M348.5 523.2l138.1 224.7 2.8-1.7-140.9-223"/><path fill="#070707" d="M348.5 523.2L210.4 298.4l-2.8 1.7 140.9 223.1"/><path fill="#131313" d="M348.5 523.2l140.8 223 2.7-1.8-143.5-221.2"/><path fill="#070707" d="M348.5 523.2l-140.8-223-2.7 1.8 143.5 221.2"/><path fill="#131313" d="M348.5 523.2L492 744.5l2.7-1.8-146.2-219.5"/><path fill="#070707" d="M348.5 523.2L204.9 301.9l-2.7 1.8 146.3 219.5"/><path fill="#131313" d="M348.5 523.2l146.3 219.5 2.7-1.8-149-217.7"/><path fill="#070707" d="M348.5 523.2L202.2 303.7l-2.7 1.8 149 217.7"/><path fill="#131313" d="M348.5 523.2l149 217.7 2.7-1.8-151.7-215.9"/><path fill="#070707" d="M348.5 523.2l-149-217.7-2.7 1.8 151.7 215.9"/><path fill="#131313" d="M348.5 523.2L500.1 739l2.7-1.9-154.3-213.9"/><path fill="#070707" d="M348.5 523.2L196.8 307.4l-2.6 1.9 154.3 213.9"/><path fill="#121212" d="M348.5 523.2l154.3 213.9 2.6-1.9-156.9-212"/><path fill="#080808" d="M348.5 523.2L194.2 309.3l-2.6 1.9 156.9 212"/><path fill="#121212" d="M348.5 523.2l156.9 212 2.6-1.9-159.5-210.1"/><path fill="#080808" d="M348.5 523.2l-156.9-212-2.6 1.9 159.5 210.1"/><path fill="#121212" d="M348.5 523.2L508 733.3l2.6-2-162.1-208.1"/><path fill="#080808" d="M348.5 523.2L189 313.1l-2.6 2 162.1 208.1"/><path fill="#121212" d="M348.5 523.2l162.1 208.1 2.6-2-164.7-206.1"/><path fill="#080808" d="M348.5 523.2L186.4 315.1l-2.5 2 164.6 206.1"/><path fill="#121212" d="M348.5 523.2l164.6 206.1 2.5-2-167.1-204.1"/><path fill="#080808" d="M348.5 523.2L183.9 317.1l-2.5 2 167.1 204.1"/><path fill="#121212" d="M348.5 523.2l167.2 204 2.5-2.1-169.7-201.9"/><path fill="#080808" d="M348.5 523.2l-167.2-204-2.5 2.1 169.7 201.9"/><path fill="#121212" d="M348.5 523.2l169.7 202 2.5-2.1-172.2-199.9"/><path fill="#080808" d="M348.5 523.2l-169.7-202-2.5 2.1 172.2 199.9"/><path fill="#121212" d="M348.5 523.2L520.6 723l2.4-2.1-174.5-197.7"/><path fill="#080808" d="M348.5 523.2L176.3 323.3l-2.4 2.1 174.6 197.8"/><path fill="#121212" d="M348.5 523.2l174.6 197.7 2.4-2.2-177-195.5"/><path fill="#080808" d="M348.5 523.2L173.9 325.5l-2.4 2.2 177 195.5"/><path fill="#121212" d="M348.5 523.2l177 195.5 2.4-2.2-179.4-193.3"/><path fill="#080808" d="M348.5 523.2l-177-195.5-2.4 2.2 179.4 193.3"/><path fill="#111" d="M348.5 523.2l179.4 193.3 2.4-2.2-181.8-191.1"/><path fill="#090909" d="M348.5 523.2L169.1 329.8l-2.4 2.2 181.8 191.2"/><path fill="#111" d="M348.5 523.2l181.8 191.1 2.3-2.3-184.1-188.8"/><path fill="#090909" d="M348.5 523.2L166.7 332.1l-2.3 2.3 184.1 188.8"/><path fill="#111" d="M348.5 523.2l184.1 188.9 2.3-2.3-186.4-186.6"/><path fill="#090909" d="M348.5 523.2L164.4 334.3l-2.3 2.3 186.4 186.6"/><path fill="#111" d="M348.5 523.2l186.4 186.6 2.3-2.3-188.7-184.3"/><path fill="#090909" d="M348.5 523.2L162 336.6l-2.3 2.3 188.8 184.3"/><path fill="#111" d="M348.5 523.2l188.7 184.3 2.2-2.3-190.9-182"/><path fill="#090909" d="M348.5 523.2L159.8 338.9l-2.3 2.3 191 182"/><path fill="#111" d="M348.5 523.2l191 181.9 2.2-2.4-193.2-179.5"/><path fill="#090909" d="M348.5 523.2l-191-181.9-2.2 2.4 193.2 179.5"/><path fill="#111" d="M348.5 523.2l193.2 179.6 2.2-2.4-195.4-177.2"/><path fill="#090909" d="M348.5 523.2L155.3 343.6l-2.2 2.4 195.4 177.2"/><path fill="#111" d="M348.5 523.2l195.4 177.2 2.2-2.4-197.6-174.8"/><path fill="#090909" d="M348.5 523.2L153.1 346l-2.2 2.4 197.6 174.8"/><path fill="#111" d="M348.5 523.2l197.6 174.7 2.1-2.4-199.7-172.3"/><path fill="#090909" d="M348.5 523.2L150.9 348.4l-2.1 2.5 199.7 172.3"/><path fill="#111" d="M348.5 523.2l199.7 172.3 2.1-2.5-201.8-169.8"/><path fill="#090909" d="M348.5 523.2L148.8 350.9l-2.1 2.5 201.8 169.8"/><path fill="#101010" d="M348.5 523.2L550.3 693l2.1-2.5-203.9-167.3"/><path fill="#0A0A0A" d="M348.5 523.2L146.7 353.4l-2.1 2.5 203.9 167.3"/><path fill="#101010" d="M348.5 523.2l203.9 167.3 2-2.5-205.9-164.8"/><path fill="#0A0A0A" d="M348.5 523.2L144.6 355.8l-2 2.5 205.9 164.9"/><path fill="#101010" d="M348.5 523.2L554.4 688l2-2.5-207.9-162.3"/><path fill="#0A0A0A" d="M348.5 523.2L142.6 358.4l-2 2.5 207.9 162.3"/><path fill="#101010" d="M348.5 523.2l207.9 162.3 2-2.6-209.9-159.7"/><path fill="#0A0A0A" d="M348.5 523.2l-208-162.3-2 2.6 210 159.7"/><path fill="#101010" d="M348.5 523.2l209.9 159.7 2-2.6-211.9-157.1"/><path fill="#0A0A0A" d="M348.5 523.2L138.6 363.5l-1.9 2.6 211.8 157.1"/><path fill="#101010" d="M348.5 523.2l211.9 157.1 1.9-2.6-213.8-154.5"/><path fill="#0A0A0A" d="M348.5 523.2L136.6 366.1l-1.9 2.6 213.8 154.5"/><path fill="#101010" d="M348.5 523.2l213.8 154.5 1.9-2.6-215.7-151.9"/><path fill="#0A0A0A" d="M348.5 523.2L134.7 368.7l-1.9 2.6 215.7 151.9"/><path fill="#101010" d="M348.5 523.2L564.2 675l1.8-2.7-217.5-149.1"/><path fill="#0A0A0A" d="M348.5 523.2L132.8 371.4l-1.8 2.7 217.5 149.1"/><path fill="#101010" d="M348.5 523.2L566 672.4l1.8-2.7-219.3-146.5"/><path fill="#0A0A0A" d="M348.5 523.2L130.9 374l-1.8 2.7 219.4 146.5"/><path fill="#0F0F0F" d="M348.5 523.2l219.3 146.5 1.8-2.7-221.1-143.8"/><path fill="#0B0B0B" d="M348.5 523.2L129.1 376.7l-1.8 2.7 221.2 143.8"/><path fill="#0F0F0F" d="M348.5 523.2l221.1 143.7 1.8-2.7-222.9-141"/><path fill="#0B0B0B" d="M348.5 523.2L127.4 379.4l-1.8 2.7 222.9 141.1"/><path fill="#0F0F0F" d="M348.5 523.2l222.9 141 1.7-2.8-224.6-138.2"/><path fill="#0B0B0B" d="M348.5 523.2l-222.9-141-1.7 2.8 224.6 138.2"/><path fill="#0F0F0F" d="M348.5 523.2l224.6 138.2 1.7-2.8-226.3-135.4"/><path fill="#0B0B0B" d="M348.5 523.2L123.9 384.9l-1.7 2.8 226.3 135.5"/><path fill="#0F0F0F" d="M348.5 523.2l226.3 135.5 1.7-2.8-228-132.7"/><path fill="#0B0B0B" d="M348.5 523.2L122.2 387.7l-1.7 2.8 228 132.7"/><path fill="#0F0F0F" d="M348.5 523.2l227.9 132.7 1.6-2.8-229.5-129.9"/><path fill="#0B0B0B" d="M348.5 523.2l-228-132.7-1.6 2.8 229.6 129.9"/><path fill="#0F0F0F" d="M348.5 523.2l229.6 129.9 1.6-2.8-231.2-127.1"/><path fill="#0B0B0B" d="M348.5 523.2L118.9 393.3l-1.6 2.8 231.2 127.1"/><path fill="#0F0F0F" d="M348.5 523.2l231.2 127 1.6-2.9-232.8-124.1"/><path fill="#0B0B0B" d="M348.5 523.2l-231.2-127-1.6 2.9 232.8 124.1"/><path fill="#0F0F0F" d="M348.5 523.2l232.7 124.2 1.5-2.9-234.2-121.3"/><path fill="#0B0B0B" d="M348.5 523.2L115.8 399l-1.5 2.9 234.2 121.3"/><path fill="#0F0F0F" d="M348.5 523.2l234.2 121.3 1.5-2.9-235.7-118.4"/><path fill="#0B0B0B" d="M348.5 523.2L114.3 401.9l-1.5 2.9 235.7 118.4"/><path fill="#0E0E0E" d="M348.5 523.2l235.7 118.4 1.5-2.9-237.2-115.5"/><path fill="#0C0C0C" d="M348.5 523.2L112.8 404.8l-1.4 2.9 237.1 115.5"/><path fill="#0E0E0E" d="M348.5 523.2l237.1 115.5 1.4-2.9-238.5-112.6"/><path fill="#0C0C0C" d="M348.5 523.2L111.4 407.7l-1.4 2.9 238.5 112.6"/><path fill="#0E0E0E" d="M348.5 523.2L587 635.7l1.4-2.9-239.9-109.6"/><path fill="#0C0C0C" d="M348.5 523.2L110 410.6l-1.4 2.9 239.9 109.7"/><path fill="#0E0E0E" d="M348.5 523.2l239.9 109.6 1.3-3-241.2-106.6"/><path fill="#0C0C0C" d="M348.5 523.2L108.6 413.6l-1.3 3 241.2 106.6"/><path fill="#0E0E0E" d="M348.5 523.2l241.2 106.6 1.3-3-242.5-103.6"/><path fill="#0C0C0C" d="M348.5 523.2L107.2 416.5l-1.3 3 242.6 103.7"/><path fill="#0E0E0E" d="M348.5 523.2L591 626.8l1.3-3-243.8-100.6"/><path fill="#0C0C0C" d="M348.5 523.2L106 419.5l-1.3 3 243.8 100.7"/><path fill="#0E0E0E" d="M348.5 523.2l243.8 100.7 1.2-3-245-97.7"/><path fill="#0C0C0C" d="M348.5 523.2L104.7 422.5l-1.2 3 245 97.7"/><path fill="#0E0E0E" d="M348.5 523.2l245 97.7 1.2-3-246.2-94.7"/><path fill="#0C0C0C" d="M348.5 523.2l-245-97.7-1.2 3 246.2 94.7"/><path fill="#0E0E0E" d="M348.5 523.2l246.2 94.6 1.2-3-247.4-91.6"/><path fill="#0C0C0C" d="M348.5 523.2l-246.2-94.6-1.2 3 247.4 91.6"/><path fill="#0E0E0E" d="M348.5 523.2l247.3 91.6 1.1-3.1-248.4-88.5"/><path fill="#0C0C0C" d="M348.5 523.2l-247.4-91.6-1.1 3.1 248.5 88.5"/><path fill="#0D0D0D" d="M348.5 523.2L597 611.7l1.1-3.1-249.6-85.4m0 0L100 434.7l-1.1 3.1 249.6 85.4"/><path fill="#0D0D0D" d="M348.5 523.2L598 608.7l1-3.1-250.5-82.4m0 0L99 437.7l-1 3.1 250.5 82.4"/><path fill="#0D0D0D" d="M348.5 523.2L599 605.6l1-3.1-251.5-79.3m0 0L97.9 440.8l-1 3.1 251.6 79.3m0 0l251.6 79.3 1-3.1-252.6-76.2"/><path fill="#0D0D0D" d="M348.5 523.2L96.9 443.9l-1 3.1 252.6 76.2m0 0L601 599.4l.9-3.1-253.4-73.1"/><path fill="#0D0D0D" d="M348.5 523.2L96 447l-.9 3.1 253.4 73.1m0 0l253.4 73.1.9-3.1-254.3-70m0 0L95 450.1l-.9 3.1 254.4 70"/><path fill="#0D0D0D" d="M348.5 523.2l254.3 69.9.8-3.1-255.1-66.8m0 0L94.2 453.3l-.8 3.1 255.1 66.8m0 0L603.7 590l.8-3.2-256-63.6"/><path fill="#0D0D0D" d="M348.5 523.2L93.3 456.4l-.8 3.2 256 63.6m0 0l256 63.7.8-3.2-256.8-60.5"/><path fill="#0D0D0D" d="M348.5 523.2l-256-63.7-.8 3.2 256.8 60.5m0 0l256.7 60.5.7-3.2-257.4-57.3"/><path fill="#0D0D0D" d="M348.5 523.2L91.8 462.7l-.7 3.2 257.4 57.3"/><path fill="#0C0C0C" d="M348.5 523.2l257.4 57.3.7-3.2-258.1-54.1"/><path fill="#0E0E0E" d="M348.5 523.2L91 465.9l-.7 3.2 258.2 54.1"/><path fill="#0C0C0C" d="M348.5 523.2l258.1 54.1.6-3.2-258.7-50.9"/><path fill="#0E0E0E" d="M348.5 523.2L90.3 469l-.6 3.2 258.8 51"/><path fill="#0C0C0C" d="M348.5 523.2l258.8 51 .6-3.2-259.4-47.8"/><path fill="#0E0E0E" d="M348.5 523.2l-258.8-51-.6 3.2 259.4 47.8"/><path fill="#0C0C0C" d="M348.5 523.2L607.9 571l.6-3.2-260-44.6"/><path fill="#0E0E0E" d="M348.5 523.2L89.1 475.4l-.6 3.2 260 44.6"/><path fill="#0C0C0C" d="M348.5 523.2l260 44.6.5-3.2-260.5-41.4"/><path fill="#0E0E0E" d="M348.5 523.2l-260-44.6-.5 3.2 260.5 41.4"/><path fill="#0C0C0C" d="M348.5 523.2L609 564.6l.5-3.2-261-38.2"/><path fill="#0E0E0E" d="M348.5 523.2L88 481.8l-.5 3.2 261 38.2"/><path fill="#0C0C0C" d="M348.5 523.2l261 38.1.5-3.2-261.5-34.9"/><path fill="#0E0E0E" d="M348.5 523.2L87.5 485l-.4 3.2 261.4 35"/><path fill="#0C0C0C" d="M348.5 523.2l261.4 34.9.4-3.2-261.8-31.7"/><path fill="#0E0E0E" d="M348.5 523.2l-261.4-35-.4 3.2 261.8 31.8"/><path fill="#0C0C0C" d="M348.5 523.2l261.8 31.7.4-3.2-262.2-28.5"/><path fill="#0E0E0E" d="M348.5 523.2L86.6 491.5l-.4 3.2 262.3 28.5"/><path fill="#0C0C0C" d="M348.5 523.2l262.2 28.5.3-3.2-262.5-25.3"/><path fill="#0E0E0E" d="M348.5 523.2L86.3 494.7l-.3 3.2 262.5 25.3"/><path fill="#0B0B0B" d="M348.5 523.2L611 548.5l.3-3.2-262.8-22.1"/><path fill="#0F0F0F" d="M348.5 523.2L85.9 497.9l-.3 3.2 262.9 22.1"/><path fill="#0B0B0B" d="M348.5 523.2l262.8 22 .2-3.3-263-18.7"/><path fill="#0F0F0F" d="M348.5 523.2l-262.8-22-.3 3.3 263.1 18.7"/><path fill="#0B0B0B" d="M348.5 523.2L611.6 542l.2-3.3-263.3-15.5"/><path fill="#0F0F0F" d="M348.5 523.2L85.4 504.4l-.2 3.2 263.3 15.6"/><path fill="#0B0B0B" d="M348.5 523.2l263.3 15.5.2-3.2-263.5-12.3"/><path fill="#0F0F0F" d="M348.5 523.2L85.2 507.6l-.2 3.3 263.5 12.3"/><path fill="#0B0B0B" d="M348.5 523.2L612 535.5l.1-3.3-263.6-9"/><path fill="#0F0F0F" d="M348.5 523.2L85 510.9l-.1 3.3 263.6 9"/><path fill="#0B0B0B" d="M348.5 523.2l263.6 9 .1-3.3-263.7-5.7"/><path fill="#0F0F0F" d="M348.5 523.2l-263.6-9-.1 3.3 263.7 5.7"/><path fill="#0B0B0B" d="M348.5 523.2l263.7 5.8.1-3.3-263.8-2.5"/><path fill="#0F0F0F" d="M348.5 523.2l-263.7-5.8v3.3l263.7 2.5"/><path fill="#0B0B0B" d="M348.5 523.2l263.8 2.5v-3.2l-263.8.7"/><path fill="#0F0F0F" d="M348.5 523.2l-263.8-2.5v3.2l263.8-.7"/><path fill="#0B0B0B" d="M348.5 523.2l263.8-.7v-3.3l-263.8 4"/><path fill="#0F0F0F" d="M348.5 523.2l-263.8.7v3.3l263.8-4"/><path fill="#0B0B0B" d="M348.5 523.2l263.7-3.9-.1-3.3-263.6 7.2"/><path fill="#0F0F0F" d="M348.5 523.2l-263.8 3.9.1 3.3 263.7-7.2"/><path fill="#0A0A0A" d="M348.5 523.2l263.7-7.2-.1-3.3-263.6 10.5"/><path fill="#101010" d="M348.5 523.2l-263.7 7.2.1 3.3 263.6-10.5"/><path fill="#0A0A0A" d="M348.5 523.2l263.6-10.4-.1-3.3-263.5 13.7"/><path fill="#101010" d="M348.5 523.2L84.9 533.6l.1 3.3 263.5-13.7"/><path fill="#0A0A0A" d="M348.5 523.2l263.4-13.7-.2-3.2-263.2 16.9"/><path fill="#101010" d="M348.5 523.2L85.1 536.9l.2 3.2 263.2-16.9"/><path fill="#0A0A0A" d="M348.5 523.2l263.2-16.9-.2-3.3-263 20.2"/><path fill="#101010" d="M348.5 523.2L85.3 540.1l.2 3.3 263-20.2"/><path fill="#0A0A0A" d="M348.5 523.2l263-20.2-.3-3.2-262.7 23.4"/><path fill="#101010" d="M348.5 523.2l-263 20.2.3 3.2 262.7-23.4"/><path fill="#0A0A0A" d="M348.5 523.2l262.7-23.4-.3-3.3-262.4 26.7"/><path fill="#101010" d="M348.5 523.2L85.8 546.6l.3 3.2 262.4-26.6"/><path fill="#0A0A0A" d="M348.5 523.2l262.4-26.7-.3-3.2-262.1 29.9"/><path fill="#101010" d="M348.5 523.2L86.1 549.8l.3 3.3 262.1-29.9"/><path fill="#0A0A0A" d="M348.5 523.2l262.1-29.9-.4-3.2-261.7 33.1"/><path fill="#101010" d="M348.5 523.2L86.4 553.1l.4 3.2 261.7-33.1"/><path fill="#0A0A0A" d="M348.5 523.2l261.7-33.1-.4-3.2-261.3 36.3"/><path fill="#101010" d="M348.5 523.2L86.8 556.3l.4 3.2 261.3-36.3"/><path fill="#090909" d="M348.5 523.2l261.2-36.3-.5-3.2-260.7 39.5"/><path fill="#111" d="M348.5 523.2L87.2 559.5l.5 3.2 260.8-39.5"/><path fill="#090909" d="M348.5 523.2l260.8-39.6-.5-3.2-260.3 42.8"/><path fill="#111" d="M348.5 523.2L87.7 562.7l.5 3.2 260.3-42.7"/><path fill="#090909" d="M348.5 523.2l260.3-42.8-.5-3.2-259.8 46"/><path fill="#111" d="M348.5 523.2L88.2 565.9l.5 3.2 259.8-45.9"/><path fill="#090909" d="M348.5 523.2l259.7-46-.6-3.2-259.1 49.2"/><path fill="#111" d="M348.5 523.2l-259.7 46 .6 3.2 259.1-49.2"/><path fill="#090909" d="M348.5 523.2L607.6 474l-.6-3.2-258.5 52.4"/><path fill="#111" d="M348.5 523.2L89.4 572.4l.6 3.2 258.5-52.4"/><path fill="#090909" d="M348.5 523.2L607 470.9l-.7-3.2-257.8 55.5"/><path fill="#111" d="M348.5 523.2L90 575.5l.7 3.2 257.8-55.5"/><path fill="#090909" d="M348.5 523.2l257.8-55.5-.7-3.2-257.1 58.7"/><path fill="#111" d="M348.5 523.2L90.6 578.7l.7 3.2 257.2-58.7"/><path fill="#090909" d="M348.5 523.2l257.2-58.7-.8-3.2-256.4 61.9"/><path fill="#111" d="M348.5 523.2L91.3 581.9l.7 3.2 256.5-61.9"/><path fill="#090909" d="M348.5 523.2l256.4-61.9-.8-3.2-255.6 65.1"/><path fill="#111" d="M348.5 523.2L92.1 585l.8 3.2 255.6-65"/><path fill="#090909" d="M348.5 523.2l255.6-65-.8-3.2-254.8 68.2"/><path fill="#111" d="M348.5 523.2l-255.6 65 .8 3.2 254.8-68.2"/><path fill="#080808" d="M348.5 523.2L603.3 455l-.8-3.1-254 71.3"/><path fill="#121212" d="M348.5 523.2L93.7 591.4l.9 3.1 253.9-71.3"/><path fill="#080808" d="M348.5 523.2l253.9-71.3-.9-3.1-253 74.4"/><path fill="#121212" d="M348.5 523.2L94.6 594.5l.9 3.1 253-74.4"/><path fill="#080808" d="M348.5 523.2l253-74.4-.9-3.1-252.1 77.5"/><path fill="#121212" d="M348.5 523.2L95.4 597.6l.9 3.1 252.2-77.5"/><path fill="#080808" d="M348.5 523.2l252.1-77.5-1-3.1-251.1 80.6"/><path fill="#121212" d="M348.5 523.2L96.4 600.7l1 3.1 251.1-80.6"/><path fill="#080808" d="M348.5 523.2l251.1-80.6-1-3.1-250.1 83.7"/><path fill="#121212" d="M348.5 523.2L97.4 603.8l1 3.1 250.1-83.7"/><path fill="#080808" d="M348.5 523.2l250.1-83.7-1.1-3.1-249 86.8"/><path fill="#121212" d="M348.5 523.2L98.4 606.9l1 3.1 249.1-86.8"/><path fill="#080808" d="M348.5 523.2l249.1-86.8-1.1-3.1-248 89.9"/><path fill="#121212" d="M348.5 523.2L99.4 610l1.1 3.1 248-89.9"/><path fill="#080808" d="M348.5 523.2l248-89.8-1.1-3.1-246.9 92.9"/><path fill="#121212" d="M348.5 523.2l-248 89.8 1.1 3.1 246.9-92.9"/><path fill="#080808" d="M348.5 523.2l246.9-92.9-1.2-3-245.7 95.9"/><path fill="#121212" d="M348.5 523.2l-246.9 92.9 1.2 3 245.7-95.9"/><path fill="#080808" d="M348.5 523.2l245.7-95.9-1.2-3-244.5 98.9"/><path fill="#121212" d="M348.5 523.2l-245.7 95.9 1.2 3 244.5-98.9"/><path fill="#070707" d="M348.5 523.2l244.5-99-1.2-3-243.3 102"/><path fill="#131313" d="M348.5 523.2L104 622.1l1.2 3 243.3-101.9"/><path fill="#070707" d="M348.5 523.2l243.3-102-1.3-3-242 105"/><path fill="#131313" d="M348.5 523.2L105.2 625.1l1.3 3 242-104.9"/><path fill="#070707" d="M348.5 523.2l242-105-1.3-3-240.7 108"/><path fill="#131313" d="M348.5 523.2l-242 105 1.3 3 240.7-108"/><path fill="#070707" d="M348.5 523.2l240.7-107.9-1.4-3-239.3 110.9"/><path fill="#131313" d="M348.5 523.2L107.8 631.1l1.4 3 239.3-110.9"/><path fill="#070707" d="M348.5 523.2l239.3-110.9-1.4-3-237.9 113.9"/><path fill="#131313" d="M348.5 523.2L109.2 634.1l1.4 3 237.9-113.9"/><path fill="#070707" d="M348.5 523.2l237.9-113.8-1.4-2.9-236.5 116.7"/><path fill="#131313" d="M348.5 523.2L110.5 637l1.4 2.9 236.6-116.7"/><path fill="#070707" d="M348.5 523.2L585 406.5l-1.5-2.9-235 119.6"/><path fill="#131313" d="M348.5 523.2L112 639.9l1.5 2.9 235-119.6"/><path fill="#070707" d="M348.5 523.2l235-119.6-1.5-2.9-233.5 122.5"/><path fill="#131313" d="M348.5 523.2L113.4 642.8l1.5 2.9 233.6-122.5"/><path fill="#070707" d="M348.5 523.2l233.6-122.5-1.5-2.9-232.1 125.4"/><path fill="#131313" d="M348.5 523.2L114.9 645.7l1.5 2.9 232.1-125.4"/><path fill="#070707" d="M348.5 523.2l232-125.4-1.6-2.8-230.4 128.2"/><path fill="#131313" d="M348.5 523.2L116.4 648.6l1.6 2.8 230.5-128.2"/><path fill="#060606" d="M348.5 523.2L579 394.9l-1.6-2.8-228.9 131.1"/><path fill="#141414" d="M348.5 523.2L118 651.4l1.6 2.8 228.9-131"/><path fill="#060606" d="M348.5 523.2l228.9-131.1-1.7-2.8-227.2 133.9"/><path fill="#141414" d="M348.5 523.2L119.6 654.3l1.6 2.8 227.3-133.9"/><path fill="#060606" d="M348.5 523.2l227.2-133.9-1.7-2.8-225.5 136.7"/><path fill="#141414" d="M348.5 523.2L121.2 657.1l1.7 2.8 225.6-136.7"/><path fill="#060606" d="M348.5 523.2l225.6-136.7-1.7-2.8-223.9 139.5"/><path fill="#141414" d="M348.5 523.2L122.9 659.9l1.7 2.8 223.9-139.5"/><path fill="#060606" d="M348.5 523.2l223.9-139.5-1.8-2.7-222.1 142.2"/><path fill="#141414" d="M348.5 523.2L124.6 662.6l1.8 2.7 222.1-142.1"/><path fill="#060606" d="M348.5 523.2L570.6 381l-1.8-2.7-220.3 144.9"/><path fill="#141414" d="M348.5 523.2L126.3 665.4l1.8 2.7 220.4-144.9"/><path fill="#060606" d="M348.5 523.2l220.4-144.9-1.8-2.7-218.6 147.6"/><path fill="#141414" d="M348.5 523.2L128.1 668.1l1.8 2.7 218.6-147.6"/><path fill="#060606" d="M348.5 523.2l218.6-147.6-1.8-2.7-216.8 150.3"/><path fill="#141414" d="M348.5 523.2L129.9 670.8l1.8 2.7 216.8-150.3"/><path fill="#060606" d="M348.5 523.2l216.7-150.3-1.9-2.7-214.8 153"/><path fill="#141414" d="M348.5 523.2L131.7 673.5l1.9 2.7 214.9-153"/><path fill="#060606" d="M348.5 523.2l214.9-153-1.9-2.6-213 155.6"/><path fill="#141414" d="M348.5 523.2l-214.9 153 1.9 2.6 213-155.6"/><path fill="#050505" d="M348.5 523.2l213-155.6-1.9-2.6-211.1 158.2"/><path fill="#151515" d="M348.5 523.2l-213 155.6 1.9 2.6 211.1-158.2"/><path fill="#050505" d="M348.5 523.2l211-158.2-2-2.6-209 160.8"/><path fill="#151515" d="M348.5 523.2l-211 158.2 1.9 2.6 209.1-160.8"/><path fill="#050505" d="M348.5 523.2l209.1-160.8-2-2.6-207.1 163.4"/><path fill="#151515" d="M348.5 523.2L139.4 684l2 2.6 207.1-163.4"/><path fill="#050505" d="M348.5 523.2l207.1-163.4-2-2.5-205.1 165.9"/><path fill="#151515" d="M348.5 523.2L141.4 686.6l2 2.5 205.1-165.9"/><path fill="#050505" d="M348.5 523.2l205.1-165.9-2.1-2.5-203 168.4"/><path fill="#151515" d="M348.5 523.2L143.4 689.1l2 2.5 203.1-168.4"/><path fill="#050505" d="M348.5 523.2l203-168.4-2.1-2.5-200.9 170.9"/><path fill="#151515" d="M348.5 523.2l-203 168.4 2.1 2.5 200.9-170.9"/><path fill="#050505" d="M348.5 523.2l200.9-170.9-2.1-2.5-198.8 173.4"/><path fill="#151515" d="M348.5 523.2L147.6 694.1l2.1 2.5 198.8-173.4"/><path fill="#050505" d="M348.5 523.2l198.8-173.4-2.1-2.4-196.7 175.8"/><path fill="#151515" d="M348.5 523.2L149.7 696.6l2.1 2.4 196.7-175.8"/><path fill="#050505" d="M348.5 523.2l196.6-175.8-2.2-2.4-194.4 178.2"/><path fill="#151515" d="M348.5 523.2L151.8 699l2.2 2.4 194.5-178.2"/><path fill="#040404" d="M348.5 523.2L542.9 345l-2.2-2.4-192.2 180.6"/><path fill="#161616" d="M348.5 523.2L154 701.4l2.2 2.4 192.3-180.6"/><path fill="#040404" d="M348.5 523.2l192.2-180.6-2.2-2.3-190 182.9"/><path fill="#161616" d="M348.5 523.2L156.3 703.8l2.2 2.4 190-183"/><path fill="#040404" d="M348.5 523.2l190-183-2.3-2.3-187.7 185.3"/><path fill="#161616" d="M348.5 523.2l-190 183 2.3 2.3 187.7-185.3"/><path fill="#040404" d="M348.5 523.2l187.7-185.3-2.3-2.3-185.4 187.6"/><path fill="#161616" d="M348.5 523.2L160.8 708.5l2.3 2.3 185.4-187.6"/><path fill="#040404" d="M348.5 523.2l185.4-187.6-2.3-2.3-183.1 189.9"/><path fill="#161616" d="M348.5 523.2L163.1 710.8l2.3 2.3 183.1-189.9"/><path fill="#040404" d="M348.5 523.2l183.1-189.9-2.3-2.2-180.8 192.1"/><path fill="#161616" d="M348.5 523.2L165.4 713l2.4 2.2 180.7-192"/><path fill="#040404" d="M348.5 523.2l180.8-192.1-2.4-2.2-178.4 194.3"/><path fill="#161616" d="M348.5 523.2L167.7 715.3l2.4 2.2 178.4-194.3"/><path fill="#040404" d="M348.5 523.2l178.4-194.3-2.4-2.2-176 196.5"/><path fill="#161616" d="M348.5 523.2L170.1 717.5l2.4 2.2 176-196.5"/><path fill="#040404" d="M348.5 523.2l176-196.5-2.4-2.2-173.6 198.7"/><path fill="#161616" d="M348.5 523.2l-176 196.5 2.4 2.1 173.6-198.6"/><path fill="#040404" d="M348.5 523.2L522 324.5l-2.5-2.1-171 200.8"/><path fill="#161616" d="M348.5 523.2L175 721.8l2.4 2.1 171.1-200.7"/><path fill="#030303" d="M348.5 523.2l171.1-200.8-2.5-2.1-168.6 202.9"/><path fill="#171717" d="M348.5 523.2L177.4 724l2.5 2.1 168.6-202.9"/><path fill="#030303" d="M348.5 523.2l168.6-202.9-2.5-2-166.1 204.9"/><path fill="#171717" d="M348.5 523.2L179.9 726.1l2.5 2 166.1-204.9"/><path fill="#030303" d="M348.5 523.2l166.1-204.9-2.5-2-163.6 206.9"/><path fill="#171717" d="M348.5 523.2L182.4 728.1l2.5 2 163.6-206.9"/><path fill="#030303" d="M348.5 523.2l163.5-207-2.6-2-160.9 209"/><path fill="#171717" d="M348.5 523.2l-163.6 207 2.6 2 161-209"/><path fill="#030303" d="M348.5 523.2l161-208.9-2.6-2-158.4 210.9"/><path fill="#171717" d="M348.5 523.2l-161 208.9 2.6 2 158.4-210.9"/><path fill="#030303" d="M348.5 523.2l158.4-210.9-2.6-1.9-155.8 212.8"/><path fill="#171717" d="M348.5 523.2L190.1 734.1l2.6 1.9 155.8-212.8"/><path fill="#030303" d="M348.5 523.2l155.8-212.8-2.6-1.9-153.2 214.7"/><path fill="#171717" d="M348.5 523.2L192.7 736l2.6 1.9 153.2-214.7"/><path fill="#030303" d="M348.5 523.2l153.1-214.7-2.6-1.9-150.5 216.6"/><path fill="#171717" d="M348.5 523.2L195.3 737.9l2.7 1.9 150.5-216.6"/><path fill="#030303" d="M348.5 523.2L499 306.6l-2.7-1.8-147.8 218.4"/><path fill="#171717" d="M348.5 523.2L198 739.8l2.7 1.8 147.8-218.4"/><path fill="#030303" d="M348.5 523.2l147.8-218.5-2.7-1.8-145.1 220.3"/><path fill="#171717" d="M348.5 523.2L200.7 741.7l2.7 1.8 145.1-220.3"/><path fill="#020202" d="M348.5 523.2l145.1-220.3-2.7-1.8-142.4 222.1"/><path fill="#181818" d="M348.5 523.2L203.4 743.5l2.7 1.8 142.4-222.1"/><path fill="#020202" d="M348.5 523.2l142.4-222-2.8-1.7-139.6 223.7"/><path fill="#181818" d="M348.5 523.2l-142.4 222 2.7 1.7 139.7-223.7"/><path fill="#020202" d="M348.5 523.2l139.6-223.8-2.8-1.7-136.8 225.5"/><path fill="#181818" d="M348.5 523.2L208.8 747l2.8 1.7 136.9-225.5"/><path fill="#020202" d="M348.5 523.2l136.9-225.5-2.8-1.7-134.1 227.2"/><path fill="#181818" d="M348.5 523.2L211.6 748.7l2.8 1.7 134.1-227.2"/><path fill="#020202" d="M348.5 523.2l134.1-227.1-2.8-1.7-131.3 228.8"/><path fill="#181818" d="M348.5 523.2L214.4 750.3l2.8 1.7 131.3-228.8"/><path fill="#020202" d="M348.5 523.2l131.3-228.8-2.8-1.6-128.5 230.4"/><path fill="#181818" d="M348.5 523.2L217.2 752l2.8 1.6 128.5-230.4"/><path fill="#020202" d="M348.5 523.2l128.4-230.4-2.9-1.6-125.5 232"/><path fill="#181818" d="M348.5 523.2L220 753.6l2.9 1.6 125.6-232"/><path fill="#020202" d="M348.5 523.2l125.6-231.9-2.9-1.5-122.7 233.4"/><path fill="#181818" d="M348.5 523.2L222.9 755.1l2.9 1.5 122.7-233.4"/><path fill="#020202" d="M348.5 523.2l122.7-233.5-2.9-1.5-119.8 235"/><path fill="#181818" d="M348.5 523.2L225.8 756.7l2.9 1.5 119.8-235"/><path fill="#020202" d="M348.5 523.2l119.8-235-2.9-1.5-116.9 236.5"/><path fill="#181818" d="M348.5 523.2l-119.9 235 2.9 1.5 117-236.5"/><path fill="#010101" d="M348.5 523.2l116.9-236.4-2.9-1.4-114 237.8"/><path fill="#191919" d="M348.5 523.2l-117 236.4 2.9 1.4 114.1-237.8"/><path fill="#010101" d="M348.5 523.2l114-237.9-3-1.4-111 239.3"/><path fill="#191919" d="M348.5 523.2L234.5 761l2.9 1.4 111.1-239.2"/><path fill="#010101" d="M348.5 523.2L459.6 284l-3-1.4-108.1 240.6"/><path fill="#191919" d="M348.5 523.2L237.4 762.4l3 1.4 108.1-240.6"/><path fill="#010101" d="M348.5 523.2l108.1-240.6-3-1.3-105.1 241.9"/><path fill="#191919" d="M348.5 523.2L240.4 763.8l3 1.3 105.1-241.9"/><path fill="#010101" d="M348.5 523.2l105.2-241.9-3-1.3-102.2 243.2"/><path fill="#191919" d="M348.5 523.2L243.3 765.1l3 1.3 102.2-243.2"/><path fill="#010101" d="M348.5 523.2L450.6 280l-3-1.2-99.1 244.4"/><path fill="#191919" d="M348.5 523.2L246.3 766.4l3 1.2 99.2-244.4"/><path fill="#010101" d="M348.5 523.2l99.2-244.4-3-1.2-96.2 245.6"/><path fill="#191919" d="M348.5 523.2l-99.2 244.4 3 1.2 96.2-245.6"/><path fill="#010101" d="M348.5 523.2l96.1-245.6-3-1.2-93.1 246.8"/><path fill="#191919" d="M348.5 523.2l-96.2 245.6 3 1.2 93.2-246.8"/><path fill="#010101" d="M348.5 523.2l93.1-246.8-3.1-1.1-90 247.9"/><path fill="#191919" d="M348.5 523.2L255.4 770l3.1 1.1 90-247.9"/><path fill="#010101" d="M348.5 523.2l90-247.9-3.1-1.1-86.9 249"/><path fill="#191919" d="M348.5 523.2l-90.1 247.9 3.1 1.1 87-249"/><path d="M348.5 523.2l87-249-3.1-1.1-83.9 250.1"/><path fill="#1A1A1A" d="M348.5 523.2l-87 249 3.1 1.1 83.9-250.1"/><path d="M348.5 523.2l83.9-250.1-3.1-1-80.8 251.1"/><path fill="#1A1A1A" d="M348.5 523.2l-83.9 250.1 3.1 1 80.8-251.1"/><path d="M348.5 523.2l80.8-251.1-3.1-1-77.7 252.1"/><path fill="#1A1A1A" d="M348.5 523.2l-80.9 251.1 3.1 1 77.8-252.1"/><path d="M348.5 523.2l77.7-252-3.1-.9-74.6 252.9"/><path fill="#1A1A1A" d="M348.5 523.2l-77.7 252.1 3.1.9 74.6-253"/></mask><path mask="url(#b)" fill="#369" d="M122 388.1h453v270.2H122z"/><path fill="#FFF" d="M576.4 386.7v273H120.6l2.3-1.4H575V388.1h-.9z"/><path fill="#B2B2B2" d="M53.6 672.7h595.3c0 13.2-10.8 24.1-24.1 24.1H77.7c-13.2 0-24.1-10.9-24.1-24.1z"/><path fill="#CCC" d="M54 673c.2 12.9 10.8 23.4 23.7 23.4h547.2c12.9 0 23.6-10.5 23.7-23.4H54z"/><linearGradient id="c" gradientUnits="userSpaceOnUse" x1="397.007" y1="477.106" x2="397.007" y2="459.56" gradientTransform="translate(6.092 281.943) scale(.8694)"><stop offset="0" stop-color="#666"/><stop offset="1" stop-color="#666" stop-opacity=".25"/></linearGradient><path opacity=".74" fill="url(#c)" enable-background="new" d="M647.2 681.5c-3.5 8.9-12.2 15.3-22.4 15.3H77.7c-10.1 0-18.9-6.4-22.4-15.3h591.9z"/><path fill="#F5F5F5" d="M120.6 386.7h455.8v273H120.6v-273zm1.4 1.4h453v270.2H122V388.1z"/><path opacity=".4" fill="#FFF" enable-background="new" d="M360 383h-22.9c-2.8 0-5.1-2.3-5.1-5.1s2.3-5.1 5.1-5.1H360c2.8 0 5.1 2.3 5.1 5.1-.1 2.8-2.3 5.1-5.1 5.1z"/><circle cx="359.7" cy="377.9" r="4.2"/><path opacity=".15" fill="#FFF" enable-background="new" d="M362.6 363.2h220.3c9.4 0 17.1 7.6 17.1 17.1V571"/><image overflow="visible" width="600" height="354" xlink:href="../../../../../../Desktop/Animation.gif" transform="matrix(.762 0 0 .7713 119.2 386.675)"/></svg>