<?xml version="1.0" encoding="UTF-8" standalone="no"?>
<!-- Generator: Adobe Illustrator 18.0.0, SVG Export Plug-In . SVG Version: 6.00 Build 0)  -->

<svg
   xmlns:dc="http://purl.org/dc/elements/1.1/"
   xmlns:cc="http://creativecommons.org/ns#"
   xmlns:rdf="http://www.w3.org/1999/02/22-rdf-syntax-ns#"
   xmlns:svg="http://www.w3.org/2000/svg"
   xmlns="http://www.w3.org/2000/svg"
   xmlns:sodipodi="http://sodipodi.sourceforge.net/DTD/sodipodi-0.dtd"
   xmlns:inkscape="http://www.inkscape.org/namespaces/inkscape"
   version="1.1"
   id="Capa_1"
   x="0px"
   y="0px"
   viewBox="36.9 512.2 848.82696 146.9777"
   enable-background="new 36.9 512.2 612 147.1"
   xml:space="preserve"
   inkscape:version="0.91 r13725"
   sodipodi:docname="espractica.svg"
   width="848.82697"
   height="146.97771"
   inkscape:export-filename="C:\Users\Fabian Gutierrez\Documents\GitHub\simulapro.github.io\src\img\espractica.png"
   inkscape:export-xdpi="90"
   inkscape:export-ydpi="90"><metadata
   id="metadata79"><rdf:RDF><cc:Work
       rdf:about=""><dc:format>image/svg+xml</dc:format><dc:type
         rdf:resource="http://purl.org/dc/dcmitype/StillImage" /><dc:title /></cc:Work></rdf:RDF></metadata><defs
   id="defs77" /><sodipodi:namedview
   pagecolor="#ffffff"
   bordercolor="#666666"
   borderopacity="1"
   objecttolerance="10"
   gridtolerance="10"
   guidetolerance="10"
   inkscape:pageopacity="0"
   inkscape:pageshadow="2"
   inkscape:window-width="1280"
   inkscape:window-height="971"
   id="namedview75"
   showgrid="false"
   fit-margin-top="0"
   fit-margin-left="0"
   fit-margin-right="0"
   fit-margin-bottom="0"
   inkscape:zoom="0.86424162"
   inkscape:cx="123.1341"
   inkscape:cy="172.5924"
   inkscape:window-x="-8"
   inkscape:window-y="-8"
   inkscape:window-maximized="1"
   inkscape:current-layer="Capa_1" />
<path
   d="m 110.60888,512.2 c -40.594886,0 -73.598858,32.89396 -73.598858,73.48885 0,40.59489 32.893959,73.48885 73.488858,73.48885 40.59488,0 73.48885,-32.89396 73.48885,-73.48885 0,-40.59489 -32.78395,-73.48885 -73.37885,-73.48885 z m 45.98554,85.04024 c -6.27075,24.97301 -31.90384,39.93481 -57.316902,33.55404 -25.41306,-6.38076 -40.924929,-31.79382 -34.654174,-56.65682 6.270756,-24.97301 31.903843,-39.93481 57.316906,-33.55404 25.41306,6.38077 40.92493,31.68381 34.65417,56.65682 z"
   id="path3"
   inkscape:connector-curvature="0"
   style="fill:#3f5fff" />


<linearGradient
   id="SVGID_1_"
   gradientUnits="userSpaceOnUse"
   x1="36.8545"
   y1="576.28442"
   x2="148.2791"
   y2="576.28442"
   gradientTransform="matrix(1.1001325,0,0,1.1001325,-3.694889,-51.287868)">
	<stop
   offset="0"
   style="stop-color:#FFFFFF;stop-opacity:0"
   id="stop62" />
	<stop
   offset="1"
   style="stop-color:#7FDBFF"
   id="stop64" />
</linearGradient>
<path
   d="m 114.67938,516.71054 c -13.20159,-3.30039 -26.513199,-1.54018 -38.394631,4.07049 -23.432822,12.32149 -39.384747,36.85444 -39.384747,65.12784 0,12.65153 3.19039,24.53296 8.80106,34.87421 0.11002,0.22002 0.22003,0.33004 0.33004,0.55006 0,0.11001 0.11002,0.22003 0.11002,0.22003 7.810937,13.20159 20.132421,23.21279 35.424263,27.06326 32.673935,8.25099 66.448005,-14.63177 75.689115,-51.15616 9.24111,-36.5244 -9.90119,-72.49874 -42.57512,-80.74973 z m 41.91504,80.41969 c -6.27075,24.973 -31.90384,39.93481 -57.316902,33.55404 -25.41306,-6.38077 -40.924929,-31.79383 -34.654174,-56.65683 6.270756,-24.973 31.903843,-39.9348 57.316906,-33.55404 25.41306,6.38077 40.92493,31.68382 34.65417,56.65683 z"
   id="path66"
   style="fill:url(#SVGID_1_)"
   inkscape:connector-curvature="0" />
<linearGradient
   id="SVGID_2_"
   gradientUnits="userSpaceOnUse"
   x1="59.889702"
   y1="581.34521"
   x2="170.67641"
   y2="581.34521"
   gradientTransform="matrix(1.1001325,0,0,1.1001325,-3.694889,-51.287868)">
	<stop
   offset="0"
   style="stop-color:#5558FF"
   id="stop69" />
	<stop
   offset="1"
   style="stop-color:#FFFFFF;stop-opacity:0"
   id="stop71" />
</linearGradient>
<path
   d="m 166.27559,537.83308 c -7.15086,-7.15086 -16.06193,-12.54151 -26.29317,-15.0718 -32.67393,-8.14099 -66.448002,14.52174 -75.579101,50.7161 -9.131101,36.19436 10.011205,72.16869 42.575131,80.30967 17.82215,4.51054 36.08435,-0.33004 50.38607,-11.44137 16.28195,-13.53163 26.73321,-33.88409 26.73321,-56.65683 0,-18.2622 -6.7108,-34.98421 -17.82214,-47.85577 z m -9.68117,59.40716 c -6.27075,24.97301 -31.90384,39.93481 -57.316902,33.55404 -25.41306,-6.38076 -40.924929,-31.79382 -34.654174,-56.65682 6.270756,-24.97301 31.903843,-39.93481 57.316906,-33.55404 25.41306,6.38077 40.92493,31.68381 34.65417,56.65682 z"
   id="path73"
   style="fill:url(#SVGID_2_)"
   inkscape:connector-curvature="0" />
<g
   transform="scale(0.9884439,1.0116912)"
   style="font-style:normal;font-variant:normal;font-weight:normal;font-stretch:normal;font-size:93.30105591px;line-height:125%;font-family:'Small Fonts';-inkscape-font-specification:'Small Fonts';letter-spacing:0px;word-spacing:0px;fill:#3f5fff;fill-opacity:1;stroke:none;stroke-width:1px;stroke-linecap:butt;stroke-linejoin:miter;stroke-opacity:1"
   id="text3407"><path
     d="m 237.05231,574.40293 5.37575,2.82454 q -2.64232,5.19352 -6.10466,8.38252 -3.46234,3.189 -7.79027,4.87461 -4.32793,1.64006 -9.79479,1.64006 -12.11821,0 -18.95178,-7.92694 -6.83357,-7.97251 -6.83357,-17.99508 0,-9.43033 5.78576,-16.81059 7.3347,-9.38478 19.63513,-9.38478 12.66489,0 20.22738,9.61256 5.37574,6.78802 5.46686,16.94727 l -44.5549,0 q 0.18223,8.65586 5.51241,14.21383 5.33019,5.51241 13.16602,5.51241 3.78124,0 7.3347,-1.32115 3.59902,-1.32116 6.10466,-3.5079 2.50565,-2.18675 5.4213,-7.06136 z m 0,-13.34825 q -1.2756,-5.1024 -3.73568,-8.15473 -2.41453,-3.05233 -6.42356,-4.92017 -4.00903,-1.86785 -8.42808,-1.86785 -7.28914,0 -12.52821,4.69239 -3.82681,3.41679 -5.78576,10.25036 l 36.90129,0 z"
     style="fill:#000000"
     id="path3348" /><path
     d="m 280.92386,546.70418 -4.10015,4.23681 q -5.1024,-4.96573 -9.97702,-4.96573 -3.09788,0 -5.33018,2.05007 -2.18675,2.05008 -2.18675,4.7835 0,2.41453 1.82229,4.60128 1.82229,2.2323 7.6536,5.23907 7.10692,3.69013 9.65812,7.10692 2.50564,3.46234 2.50564,7.79027 0,6.10466 -4.28237,10.34147 -4.28237,4.23682 -10.70593,4.23682 -4.28237,0 -8.20029,-1.86784 -3.87236,-1.86785 -6.42356,-5.14796 l 4.00903,-4.55572 q 4.87462,5.51242 10.34148,5.51242 3.8268,0 6.51467,-2.46009 2.68787,-2.46008 2.68787,-5.78576 0,-2.73343 -1.77673,-4.87461 -1.77673,-2.09563 -8.01806,-5.28463 -6.6969,-3.46235 -9.11143,-6.83358 -2.41453,-3.37123 -2.41453,-7.69916 0,-5.64908 3.8268,-9.38477 3.87236,-3.73569 9.74923,-3.73569 6.83358,0 13.75827,6.69691 z"
     style="fill:#000000"
     id="path3350" /><path
     d="m 293.26985,523.83448 13.34825,0 q 11.4804,0 15.48943,1.00226 5.7402,1.41227 9.38477,5.83132 3.64458,4.37348 3.64458,11.02483 0,6.6969 -3.55346,11.07039 -3.55346,4.32793 -9.79479,5.83131 -4.55572,1.09338 -17.03838,1.09338 l -4.7835,0 0,31.16109 -6.6969,0 0,-67.01458 z m 6.6969,6.51468 0,22.77857 11.34373,0.13668 q 6.87913,0 10.06813,-1.23005 3.18901,-1.2756 5.01129,-4.05458 1.82229,-2.82455 1.82229,-6.28689 0,-3.37123 -1.82229,-6.15022 -1.82228,-2.82454 -4.82906,-4.00903 -2.96121,-1.18448 -9.74923,-1.18448 l -11.84486,0 z"
     style="fill:#000000"
     id="path3352" /><path
     d="m 345.06833,541.28287 6.51468,0 0,7.24359 q 2.91565,-4.28237 6.15021,-6.378 3.23456,-2.14119 6.74246,-2.14119 2.64232,0 5.64909,1.68562 l -3.32567,5.37574 q -2.00452,-0.86558 -3.37123,-0.86558 -3.189,0 -6.15022,2.64231 -2.96121,2.59676 -4.51016,8.10918 -1.18448,4.23681 -1.18448,17.12949 l 0,16.76503 -6.51468,0 0,-49.56619 z"
     style="fill:#000000"
     id="path3354" /><path
     d="m 424.93002,541.28287 0,49.56619 -6.28689,0 0,-8.51919 q -4.00903,4.87462 -9.02031,7.3347 -4.96573,2.46009 -10.88816,2.46009 -10.52371,0 -17.99508,-7.60804 -7.42582,-7.65361 -7.42582,-18.58732 0,-10.70594 7.51693,-18.31398 7.51694,-7.60805 18.0862,-7.60805 6.10465,0 11.02483,2.59676 4.96573,2.59676 8.70141,7.79028 l 0,-9.11144 6.28689,0 z m -25.51201,4.87462 q -5.33018,0 -9.84034,2.64231 -4.51016,2.59676 -7.19803,7.33471 -2.64232,4.73794 -2.64232,10.02257 0,5.23907 2.68787,10.02258 2.68788,4.7835 7.19804,7.47137 4.55571,2.64231 9.74923,2.64231 5.23907,0 9.93146,-2.64231 4.69238,-2.64232 7.19803,-7.15247 2.5512,-4.51016 2.5512,-10.15925 0,-8.6103 -5.69465,-14.39606 -5.64908,-5.78576 -13.94049,-5.78576 z"
     style="fill:#000000"
     id="path3356" /><path
     d="m 487.43445,551.57879 -5.05684,3.14345 q -6.56023,-8.70142 -17.90397,-8.70142 -9.06587,0 -15.07941,5.83131 -5.96799,5.83132 -5.96799,14.16828 0,5.4213 2.73343,10.2048 2.77898,4.7835 7.56248,7.42582 4.82906,2.64231 10.79705,2.64231 10.93372,0 17.85841,-8.70141 l 5.05684,3.32567 q -3.55346,5.33019 -9.567,8.2914 -5.96799,2.91566 -13.62159,2.91566 -11.75375,0 -19.49846,-7.47137 -7.74472,-7.47138 -7.74472,-18.17731 0,-7.19803 3.59901,-13.34825 3.64458,-6.19577 9.97702,-9.65811 6.33245,-3.46235 14.16828,-3.46235 4.92017,0 9.47589,1.50339 4.60127,1.50339 7.79027,3.91792 3.189,2.41452 5.4213,6.15021 z"
     style="fill:#000000"
     id="path3358" /><path
     d="m 505.20174,522.87778 6.42356,0 0,18.40509 10.11369,0 0,5.46686 -10.11369,0 0,44.09933 -6.42356,0 0,-44.09933 -8.70142,0 0,-5.46686 8.70142,0 0,-18.40509 z"
     style="fill:#000000"
     id="path3360" /><path
     d="m 533.76608,520.87327 q 2.18675,0 3.73569,1.54894 1.54894,1.54894 1.54894,3.73569 0,2.14118 -1.54894,3.69013 -1.54894,1.54894 -3.73569,1.54894 -2.14118,0 -3.69013,-1.54894 -1.54894,-1.54895 -1.54894,-3.69013 0,-2.18675 1.54894,-3.73569 1.54895,-1.54894 3.69013,-1.54894 z m -3.189,20.4096 6.42356,0 0,49.56619 -6.42356,0 0,-49.56619 z"
     style="fill:#000000"
     id="path3362" /><path
     d="m 598.59392,551.57879 -5.05684,3.14345 q -6.56023,-8.70142 -17.90397,-8.70142 -9.06587,0 -15.07942,5.83131 -5.96798,5.83132 -5.96798,14.16828 0,5.4213 2.73343,10.2048 2.77898,4.7835 7.56248,7.42582 4.82906,2.64231 10.79705,2.64231 10.93372,0 17.85841,-8.70141 l 5.05684,3.32567 q -3.55346,5.33019 -9.567,8.2914 -5.96799,2.91566 -13.62159,2.91566 -11.75375,0 -19.49847,-7.47137 -7.74471,-7.47138 -7.74471,-18.17731 0,-7.19803 3.59901,-13.34825 3.64458,-6.19577 9.97702,-9.65811 6.33245,-3.46235 14.16828,-3.46235 4.92017,0 9.47588,1.50339 4.60128,1.50339 7.79028,3.91792 3.189,2.41452 5.4213,6.15021 z"
     style="fill:#000000"
     id="path3364" /><path
     d="m 660.18718,541.28287 0,49.56619 -6.28689,0 0,-8.51919 q -4.00903,4.87462 -9.02032,7.3347 -4.96573,2.46009 -10.88816,2.46009 -10.5237,0 -17.99507,-7.60804 -7.42582,-7.65361 -7.42582,-18.58732 0,-10.70594 7.51693,-18.31398 7.51693,-7.60805 18.08619,-7.60805 6.10466,0 11.02483,2.59676 4.96573,2.59676 8.70142,7.79028 l 0,-9.11144 6.28689,0 z m -25.51201,4.87462 q -5.33019,0 -9.84035,2.64231 -4.51015,2.59676 -7.19803,7.33471 -2.64231,4.73794 -2.64231,10.02257 0,5.23907 2.68787,10.02258 2.68787,4.7835 7.19803,7.47137 4.55572,2.64231 9.74923,2.64231 5.23908,0 9.93146,-2.64231 4.69239,-2.64232 7.19803,-7.15247 2.5512,-4.51016 2.5512,-10.15925 0,-8.6103 -5.69464,-14.39606 -5.64909,-5.78576 -13.94049,-5.78576 z"
     style="fill:#000000"
     id="path3366" /><path
     d="m 681.59905,580.82649 q 2.32342,0 3.96347,1.64005 1.64006,1.64006 1.64006,4.00903 0,2.32342 -1.64006,4.00903 -1.64005,1.64006 -3.96347,1.64006 -2.32341,0 -3.96347,-1.64006 -1.64006,-1.68561 -1.64006,-4.00903 0,-2.36897 1.64006,-4.00903 1.64006,-1.64005 3.96347,-1.64005 z"
     style="fill:#3f5fff;fill-opacity:1"
     id="path3368" /><path
     d="m 748.75029,551.57879 -5.05684,3.14345 q -6.56023,-8.70142 -17.90396,-8.70142 -9.06588,0 -15.07942,5.83131 -5.96799,5.83132 -5.96799,14.16828 0,5.4213 2.73343,10.2048 2.77899,4.7835 7.56249,7.42582 4.82906,2.64231 10.79704,2.64231 10.93372,0 17.85841,-8.70141 l 5.05684,3.32567 q -3.55346,5.33019 -9.567,8.2914 -5.96799,2.91566 -13.62159,2.91566 -11.75375,0 -19.49846,-7.47137 -7.74472,-7.47138 -7.74472,-18.17731 0,-7.19803 3.59902,-13.34825 3.64457,-6.19577 9.97701,-9.65811 6.33245,-3.46235 14.16828,-3.46235 4.92017,0 9.47589,1.50339 4.60127,1.50339 7.79027,3.91792 3.189,2.41452 5.4213,6.15021 z"
     style="font-style:normal;font-variant:normal;font-weight:normal;font-stretch:normal;font-family:'Century Gothic';-inkscape-font-specification:'Century Gothic';fill:#3f5fff;fill-opacity:1"
     id="path3370" /><path
     d="m 784.42153,540.00727 q 11.43484,0 18.95178,8.29141 6.83357,7.56248 6.83357,17.90396 0,10.38703 -7.24359,18.1773 -7.19803,7.74472 -18.54176,7.74472 -11.38929,0 -18.63288,-7.74472 -7.19803,-7.79027 -7.19803,-18.1773 0,-10.29592 6.83357,-17.85841 7.51693,-8.33696 18.99734,-8.33696 z m 0,6.24133 q -7.92695,0 -13.62159,5.87688 -5.69465,5.87687 -5.69465,14.21383 0,5.37574 2.59676,10.02257 2.59676,4.64683 7.0158,7.19804 4.41905,2.50564 9.70368,2.50564 5.28463,0 9.70367,-2.50564 4.41905,-2.55121 7.0158,-7.19804 2.59676,-4.64683 2.59676,-10.02257 0,-8.33696 -5.7402,-14.21383 -5.69464,-5.87688 -13.57603,-5.87688 z"
     style="font-style:normal;font-variant:normal;font-weight:normal;font-stretch:normal;font-family:'Century Gothic';-inkscape-font-specification:'Century Gothic';fill:#3f5fff;fill-opacity:1"
     id="path3372" /><path
     d="m 821.96067,541.28287 6.33244,0 0,8.56475 q 3.32567,-4.73794 6.83357,-6.92469 4.82906,-2.91566 10.15925,-2.91566 3.59902,0 6.83357,1.41228 3.23456,1.41227 5.28463,3.78124 2.05008,2.32341 3.55346,6.6969 3.189,-5.83131 7.9725,-8.83809 4.78351,-3.05233 10.29592,-3.05233 5.14796,0 9.06588,2.59676 3.96347,2.59676 5.87687,7.24359 1.9134,4.64683 1.9134,13.94049 l 0,27.06095 -6.51467,0 0,-27.06095 q 0,-7.9725 -1.13893,-10.93372 -1.13893,-3.00677 -3.91792,-4.82906 -2.73343,-1.82228 -6.56023,-1.82228 -4.64683,0 -8.51919,2.73343 -3.8268,2.73343 -5.60353,7.28914 -1.77673,4.55572 -1.77673,15.21609 l 0,19.40735 -6.33244,0 0,-25.37534 q 0,-8.97476 -1.13893,-12.16376 -1.09337,-3.23455 -3.87236,-5.14796 -2.77898,-1.95895 -6.60579,-1.95895 -4.41904,0 -8.2914,2.68787 -3.8268,2.64231 -5.69464,7.15247 -1.82229,4.51016 -1.82229,13.80382 l 0,21.00185 -6.33244,0 0,-49.56619 z"
     style="font-style:normal;font-variant:normal;font-weight:normal;font-stretch:normal;font-family:'Century Gothic';-inkscape-font-specification:'Century Gothic';fill:#3f5fff;fill-opacity:1"
     id="path3374" /></g>
<g
   transform="scale(0.9884439,1.0116912)"
   style="font-style:normal;font-variant:normal;font-weight:normal;font-stretch:normal;font-size:39.78330231px;line-height:125%;font-family:'Small Fonts';-inkscape-font-specification:'Small Fonts';letter-spacing:0px;word-spacing:0px;fill:#000000;fill-opacity:1;stroke:none;stroke-width:1px;stroke-linecap:butt;stroke-linejoin:miter;stroke-opacity:1"
   id="text3407-7"><path
     d="m 197.26652,609.98786 2.70013,0 0,3.88509 q 1.61231,-2.2145 3.71026,-3.32175 2.09795,-1.10725 4.68153,-1.10725 4.5067,0 7.7119,3.24405 3.2052,3.24405 3.2052,7.80903 0,4.6621 -3.18577,7.92558 -3.16635,3.24404 -7.65363,3.24404 -2.5253,0 -4.64268,-1.04897 -2.11737,-1.04897 -3.82681,-3.1275 l 0,11.36389 -2.70013,0 0,-28.86621 z m 10.87824,2.07852 q -3.53543,0 -5.96361,2.46704 -2.40875,2.46703 -2.40875,6.13843 0,2.40876 1.0684,4.33188 1.08782,1.92312 3.08864,3.04979 2.02025,1.12668 4.25417,1.12668 2.19508,0 4.1182,-1.12668 1.94254,-1.1461 3.08864,-3.18577 1.1461,-2.03967 1.1461,-4.2736 0,-2.25335 -1.1461,-4.27359 -1.12667,-2.02025 -3.04979,-3.1275 -1.92312,-1.12668 -4.1959,-1.12668 z"
     style="font-style:normal;font-variant:normal;font-weight:normal;font-stretch:normal;font-family:'Century Gothic';-inkscape-font-specification:'Century Gothic'"
     id="path3377" /><path
     d="m 234.34968,609.44395 q 4.87579,0 8.08098,3.53543 2.91382,3.22462 2.91382,7.6342 0,4.429 -3.08864,7.75075 -3.06922,3.30232 -7.90616,3.30232 -4.85636,0 -7.945,-3.30232 -3.06922,-3.32175 -3.06922,-7.75075 0,-4.39015 2.91381,-7.61477 3.2052,-3.55486 8.10041,-3.55486 z m 0,2.66129 q -3.38003,0 -5.80821,2.50588 -2.42818,2.50588 -2.42818,6.06073 0,2.29221 1.10725,4.2736 1.10725,1.9814 2.99152,3.06922 1.88427,1.0684 4.13762,1.0684 2.25335,0 4.13762,-1.0684 1.88427,-1.08782 2.99152,-3.06922 1.10725,-1.98139 1.10725,-4.2736 0,-3.55485 -2.44761,-6.06073 -2.42818,-2.50588 -5.78878,-2.50588 z"
     style="font-style:normal;font-variant:normal;font-weight:normal;font-stretch:normal;font-family:'Century Gothic';-inkscape-font-specification:'Century Gothic'"
     id="path3379" /><path
     d="m 249.34612,609.98786 2.77784,0 0,3.08865 q 1.24323,-1.82599 2.62243,-2.71956 1.37921,-0.913 2.87497,-0.913 1.12667,0 2.40875,0.71874 l -1.41806,2.2922 q -0.85472,-0.36908 -1.43748,-0.36908 -1.35978,0 -2.62243,1.12668 -1.26266,1.10725 -1.92312,3.45772 -0.50506,1.80657 -0.50506,7.30397 l 0,7.14856 -2.77784,0 0,-21.13488 z"
     style="font-style:normal;font-variant:normal;font-weight:normal;font-stretch:normal;font-family:'Century Gothic';-inkscape-font-specification:'Century Gothic'"
     id="path3381" /><path
     d="m 264.71164,602.13998 2.73899,0 0,7.84788 4.31245,0 0,2.33106 -4.31245,0 0,18.80382 -2.73899,0 0,-18.80382 -3.71026,0 0,-2.33106 3.71026,0 0,-7.84788 z"
     style="font-style:normal;font-variant:normal;font-weight:normal;font-stretch:normal;font-family:'Century Gothic';-inkscape-font-specification:'Century Gothic'"
     id="path3383" /><path
     d="m 296.99673,609.98786 0,21.13488 -2.68071,0 0,-3.63256 q -1.70944,2.07853 -3.84624,3.1275 -2.11738,1.04897 -4.64268,1.04897 -4.48728,0 -7.67305,-3.24404 -3.16635,-3.26348 -3.16635,-7.92558 0,-4.56498 3.2052,-7.80903 3.2052,-3.24405 7.7119,-3.24405 2.60301,0 4.70096,1.10725 2.11737,1.10725 3.71026,3.32175 l 0,-3.88509 2.68071,0 z m -10.87825,2.07852 q -2.27278,0 -4.1959,1.12668 -1.92311,1.10725 -3.06922,3.1275 -1.12667,2.02024 -1.12667,4.27359 0,2.23393 1.1461,4.2736 1.1461,2.03967 3.06922,3.18577 1.94254,1.12668 4.15704,1.12668 2.23393,0 4.23475,-1.12668 2.00082,-1.12667 3.06922,-3.04979 1.08782,-1.92312 1.08782,-4.33188 0,-3.6714 -2.42818,-6.13843 -2.40875,-2.46704 -5.94418,-2.46704 z"
     style="font-style:normal;font-variant:normal;font-weight:normal;font-stretch:normal;font-family:'Century Gothic';-inkscape-font-specification:'Century Gothic'"
     id="path3385" /><path
     d="m 302.72723,601.82918 2.71956,0 0,29.29356 -2.71956,0 0,-29.29356 z"
     style="font-style:normal;font-variant:normal;font-weight:normal;font-stretch:normal;font-family:'Century Gothic';-inkscape-font-specification:'Century Gothic'"
     id="path3387" /><path
     d="m 343.26813,601.82918 0,29.29356 -2.68071,0 0,-3.63256 q -1.70944,2.07853 -3.84624,3.1275 -2.11737,1.04897 -4.64268,1.04897 -4.48728,0 -7.67305,-3.24404 -3.16635,-3.26348 -3.16635,-7.92558 0,-4.56498 3.2052,-7.80903 3.2052,-3.24405 7.7119,-3.24405 2.60301,0 4.70096,1.10725 2.11737,1.10725 3.71026,3.32175 l 0,-12.04377 2.68071,0 z m -10.87825,10.2372 q -2.27277,0 -4.19589,1.12668 -1.92312,1.10725 -3.06922,3.1275 -1.12668,2.02024 -1.12668,4.27359 0,2.23393 1.1461,4.2736 1.1461,2.03967 3.06922,3.18577 1.94255,1.12668 4.15705,1.12668 2.23392,0 4.23474,-1.12668 2.00082,-1.12667 3.06922,-3.04979 1.08783,-1.92312 1.08783,-4.33188 0,-3.6714 -2.42818,-6.13843 -2.40876,-2.46704 -5.94419,-2.46704 z"
     style="font-style:normal;font-variant:normal;font-weight:normal;font-stretch:normal;font-family:'Century Gothic';-inkscape-font-specification:'Century Gothic'"
     id="path3389" /><path
     d="m 367.23913,624.11016 2.2922,1.20437 q -1.12668,2.21451 -2.60301,3.57429 -1.47633,1.35978 -3.32175,2.07852 -1.84542,0.69931 -4.17647,0.69931 -5.16717,0 -8.08098,-3.38002 -2.91382,-3.39945 -2.91382,-7.67305 0,-4.02107 2.46703,-7.16799 3.1275,-4.00164 8.37237,-4.00164 5.40027,0 8.62489,4.09877 2.2922,2.89439 2.33105,7.22626 l -18.99808,0 q 0.0777,3.69084 2.35048,6.06074 2.27278,2.35048 5.61395,2.35048 1.61232,0 3.1275,-0.56334 1.53461,-0.56334 2.60301,-1.49576 1.0684,-0.93242 2.31163,-3.01094 z m 0,-5.69166 q -0.54392,-2.17565 -1.59289,-3.47715 -1.02955,-1.3015 -2.73899,-2.09795 -1.70944,-0.79644 -3.5937,-0.79644 -3.10807,0 -5.342,2.00082 -1.63174,1.45691 -2.46703,4.37072 l 15.73461,0 z"
     style="font-style:normal;font-variant:normal;font-weight:normal;font-stretch:normal;font-family:'Century Gothic';-inkscape-font-specification:'Century Gothic'"
     id="path3391" /><path
     d="m 385.32422,609.98786 2.77783,0 0,3.08865 q 1.24323,-1.82599 2.62244,-2.71956 1.3792,-0.913 2.87496,-0.913 1.12668,0 2.40876,0.71874 l -1.41806,2.2922 q -0.85472,-0.36908 -1.43748,-0.36908 -1.35978,0 -2.62244,1.12668 -1.26265,1.10725 -1.92312,3.45772 -0.50506,1.80657 -0.50506,7.30397 l 0,7.14856 -2.77783,0 0,-21.13488 z"
     style="font-style:normal;font-variant:normal;font-weight:normal;font-stretch:normal;font-family:'Century Gothic';-inkscape-font-specification:'Century Gothic'"
     id="path3393" /><path
     d="m 416.11353,624.11016 2.2922,1.20437 q -1.12667,2.21451 -2.60301,3.57429 -1.47633,1.35978 -3.32175,2.07852 -1.84541,0.69931 -4.17647,0.69931 -5.16716,0 -8.08098,-3.38002 -2.91381,-3.39945 -2.91381,-7.67305 0,-4.02107 2.46703,-7.16799 3.12749,-4.00164 8.37236,-4.00164 5.40027,0 8.6249,4.09877 2.2922,2.89439 2.33105,7.22626 l -18.99808,0 q 0.0777,3.69084 2.35048,6.06074 2.27277,2.35048 5.61395,2.35048 1.61231,0 3.1275,-0.56334 1.5346,-0.56334 2.603,-1.49576 1.0684,-0.93242 2.31163,-3.01094 z m 0,-5.69166 q -0.54391,-2.17565 -1.59288,-3.47715 -1.02955,-1.3015 -2.73899,-2.09795 -1.70944,-0.79644 -3.59371,-0.79644 -3.10807,0 -5.34199,2.00082 -1.63174,1.45691 -2.46704,4.37072 l 15.73461,0 z"
     style="font-style:normal;font-variant:normal;font-weight:normal;font-stretch:normal;font-family:'Century Gothic';-inkscape-font-specification:'Century Gothic'"
     id="path3395" /><path
     d="m 444.70777,614.37801 -2.15622,1.34036 q -2.79726,-3.71026 -7.6342,-3.71026 -3.86566,0 -6.42982,2.48645 -2.54473,2.48646 -2.54473,6.04132 0,2.31162 1.16552,4.3513 1.18496,2.03967 3.22463,3.16634 2.05909,1.12668 4.60383,1.12668 4.6621,0 7.61477,-3.71026 l 2.15622,1.41806 q -1.51518,2.27277 -4.07934,3.53543 -2.54473,1.24322 -5.80821,1.24322 -5.01176,0 -8.31409,-3.18577 -3.30232,-3.18577 -3.30232,-7.75075 0,-3.06922 1.53461,-5.69165 1.55404,-2.64186 4.25417,-4.1182 2.70014,-1.47633 6.04131,-1.47633 2.09795,0 4.0405,0.64104 1.96196,0.64104 3.32175,1.67059 1.35978,1.02955 2.31162,2.62243 z"
     style="font-style:normal;font-variant:normal;font-weight:normal;font-stretch:normal;font-family:'Century Gothic';-inkscape-font-specification:'Century Gothic'"
     id="path3397" /><path
     d="m 449.56413,609.98786 2.73899,0 0,9.86813 q 0,3.61313 0.38851,4.97291 0.58276,1.94254 2.2145,3.06922 1.65116,1.12667 3.92394,1.12667 2.27278,0 3.84624,-1.08782 1.59288,-1.10725 2.19507,-2.89439 0.40794,-1.2238 0.40794,-5.18659 l 0,-9.86813 2.77783,0 0,10.37319 q 0,4.37072 -1.02955,6.58522 -1.01012,2.2145 -3.06921,3.47716 -2.03968,1.24322 -5.12832,1.24322 -3.08865,0 -5.16717,-1.24322 -2.0591,-1.26266 -3.08864,-3.49658 -1.01013,-2.25335 -1.01013,-6.76006 l 0,-10.17893 z"
     style="font-style:normal;font-variant:normal;font-weight:normal;font-stretch:normal;font-family:'Century Gothic';-inkscape-font-specification:'Century Gothic'"
     id="path3399" /><path
     d="m 473.0495,609.98786 2.77783,0 0,3.08865 q 1.24323,-1.82599 2.62244,-2.71956 1.3792,-0.913 2.87496,-0.913 1.12668,0 2.40876,0.71874 l -1.41806,2.2922 q -0.85472,-0.36908 -1.43748,-0.36908 -1.35978,0 -2.62244,1.12668 -1.26265,1.10725 -1.92311,3.45772 -0.50507,1.80657 -0.50507,7.30397 l 0,7.14856 -2.77783,0 0,-21.13488 z"
     style="font-style:normal;font-variant:normal;font-weight:normal;font-stretch:normal;font-family:'Century Gothic';-inkscape-font-specification:'Century Gothic'"
     id="path3401" /><path
     d="m 496.67082,612.29949 -1.74828,1.80657 q -2.17565,-2.11738 -4.25418,-2.11738 -1.32093,0 -2.27277,0.87415 -0.93242,0.87414 -0.93242,2.03967 0,1.02955 0.77701,1.96197 0.77702,0.95184 3.26348,2.23392 3.03037,1.57346 4.11819,3.03037 1.0684,1.47634 1.0684,3.32175 0,2.60301 -1.82599,4.40958 -1.82599,1.80656 -4.56498,1.80656 -1.82599,0 -3.49658,-0.79644 -1.65116,-0.79644 -2.73899,-2.19507 l 1.70944,-1.94255 q 2.07852,2.35048 4.40958,2.35048 1.63173,0 2.77784,-1.04897 1.1461,-1.04898 1.1461,-2.46703 0,-1.16553 -0.7576,-2.07853 -0.75759,-0.89357 -3.41887,-2.25335 -2.85554,-1.47633 -3.88509,-2.91381 -1.02955,-1.43749 -1.02955,-3.2829 0,-2.40876 1.63174,-4.00164 1.65116,-1.59289 4.15704,-1.59289 2.91382,0 5.86648,2.85554 z"
     style="font-style:normal;font-variant:normal;font-weight:normal;font-stretch:normal;font-family:'Century Gothic';-inkscape-font-specification:'Century Gothic'"
     id="path3403" /><path
     d="m 511.51186,609.44395 q 4.87578,0 8.08098,3.53543 2.91382,3.22462 2.91382,7.6342 0,4.429 -3.08865,7.75075 -3.06922,3.30232 -7.90615,3.30232 -4.85636,0 -7.94501,-3.30232 -3.06922,-3.32175 -3.06922,-7.75075 0,-4.39015 2.91382,-7.61477 3.2052,-3.55486 8.10041,-3.55486 z m 0,2.66129 q -3.38003,0 -5.80821,2.50588 -2.42818,2.50588 -2.42818,6.06073 0,2.29221 1.10725,4.2736 1.10725,1.9814 2.99152,3.06922 1.88427,1.0684 4.13762,1.0684 2.25335,0 4.13762,-1.0684 1.88426,-1.08782 2.99151,-3.06922 1.10725,-1.98139 1.10725,-4.2736 0,-3.55485 -2.4476,-6.06073 -2.42818,-2.50588 -5.78878,-2.50588 z"
     style="font-style:normal;font-variant:normal;font-weight:normal;font-stretch:normal;font-family:'Century Gothic';-inkscape-font-specification:'Century Gothic'"
     id="path3405" /><path
     d="m 538.16356,612.29949 -1.74829,1.80657 q -2.17565,-2.11738 -4.25417,-2.11738 -1.32093,0 -2.27278,0.87415 -0.93242,0.87414 -0.93242,2.03967 0,1.02955 0.77702,1.96197 0.77702,0.95184 3.26347,2.23392 3.03037,1.57346 4.1182,3.03037 1.0684,1.47634 1.0684,3.32175 0,2.60301 -1.82599,4.40958 -1.826,1.80656 -4.56498,1.80656 -1.82599,0 -3.49658,-0.79644 -1.65116,-0.79644 -2.73899,-2.19507 l 1.70944,-1.94255 q 2.07852,2.35048 4.40957,2.35048 1.63174,0 2.77784,-1.04897 1.1461,-1.04898 1.1461,-2.46703 0,-1.16553 -0.75759,-2.07853 -0.75759,-0.89357 -3.41888,-2.25335 -2.85554,-1.47633 -3.88508,-2.91381 -1.02955,-1.43749 -1.02955,-3.2829 0,-2.40876 1.63173,-4.00164 1.65117,-1.59289 4.15705,-1.59289 2.91381,0 5.86648,2.85554 z"
     style="font-style:normal;font-variant:normal;font-weight:normal;font-stretch:normal;font-family:'Century Gothic';-inkscape-font-specification:'Century Gothic'"
     id="path3407" /><path
     d="m 554.073,609.98786 2.70014,0 0,3.88509 q 1.61231,-2.2145 3.71026,-3.32175 2.09795,-1.10725 4.68153,-1.10725 4.5067,0 7.7119,3.24405 3.2052,3.24405 3.2052,7.80903 0,4.6621 -3.18577,7.92558 -3.16635,3.24404 -7.65363,3.24404 -2.52531,0 -4.64268,-1.04897 -2.11737,-1.04897 -3.82681,-3.1275 l 0,11.36389 -2.70014,0 0,-28.86621 z m 10.87825,2.07852 q -3.53543,0 -5.96361,2.46704 -2.40875,2.46703 -2.40875,6.13843 0,2.40876 1.06839,4.33188 1.08783,1.92312 3.08865,3.04979 2.02025,1.12668 4.25417,1.12668 2.19508,0 4.11819,-1.12668 1.94255,-1.1461 3.08865,-3.18577 1.1461,-2.03967 1.1461,-4.2736 0,-2.25335 -1.1461,-4.27359 -1.12668,-2.02025 -3.04979,-3.1275 -1.92312,-1.12668 -4.1959,-1.12668 z"
     style="font-style:normal;font-variant:normal;font-weight:normal;font-stretch:normal;font-family:'Century Gothic';-inkscape-font-specification:'Century Gothic'"
     id="path3409" /><path
     d="m 602.20925,609.98786 0,21.13488 -2.68071,0 0,-3.63256 q -1.70944,2.07853 -3.84624,3.1275 -2.11737,1.04897 -4.64268,1.04897 -4.48727,0 -7.67305,-3.24404 -3.16634,-3.26348 -3.16634,-7.92558 0,-4.56498 3.20519,-7.80903 3.2052,-3.24405 7.7119,-3.24405 2.60301,0 4.70096,1.10725 2.11737,1.10725 3.71026,3.32175 l 0,-3.88509 2.68071,0 z m -10.87825,2.07852 q -2.27277,0 -4.19589,1.12668 -1.92312,1.10725 -3.06922,3.1275 -1.12668,2.02024 -1.12668,4.27359 0,2.23393 1.1461,4.2736 1.14611,2.03967 3.06922,3.18577 1.94255,1.12668 4.15705,1.12668 2.23392,0 4.23474,-1.12668 2.00082,-1.12667 3.06922,-3.04979 1.08783,-1.92312 1.08783,-4.33188 0,-3.6714 -2.42818,-6.13843 -2.40876,-2.46704 -5.94419,-2.46704 z"
     style="font-style:normal;font-variant:normal;font-weight:normal;font-stretch:normal;font-family:'Century Gothic';-inkscape-font-specification:'Century Gothic'"
     id="path3411" /><path
     d="m 607.31814,609.98786 2.77784,0 0,3.08865 q 1.24323,-1.82599 2.62243,-2.71956 1.37921,-0.913 2.87497,-0.913 1.12668,0 2.40875,0.71874 l -1.41805,2.2922 q -0.85472,-0.36908 -1.43749,-0.36908 -1.35978,0 -2.62243,1.12668 -1.26265,1.10725 -1.92312,3.45772 -0.50506,1.80657 -0.50506,7.30397 l 0,7.14856 -2.77784,0 0,-21.13488 z"
     style="font-style:normal;font-variant:normal;font-weight:normal;font-stretch:normal;font-family:'Century Gothic';-inkscape-font-specification:'Century Gothic'"
     id="path3413" /><path
     d="m 641.37093,609.98786 0,21.13488 -2.68071,0 0,-3.63256 q -1.70944,2.07853 -3.84624,3.1275 -2.11737,1.04897 -4.64268,1.04897 -4.48727,0 -7.67304,-3.24404 -3.16635,-3.26348 -3.16635,-7.92558 0,-4.56498 3.2052,-7.80903 3.20519,-3.24405 7.7119,-3.24405 2.60301,0 4.70095,1.10725 2.11738,1.10725 3.71026,3.32175 l 0,-3.88509 2.68071,0 z m -10.87824,2.07852 q -2.27278,0 -4.1959,1.12668 -1.92312,1.10725 -3.06922,3.1275 -1.12667,2.02024 -1.12667,4.27359 0,2.23393 1.1461,4.2736 1.1461,2.03967 3.06922,3.18577 1.94254,1.12668 4.15704,1.12668 2.23393,0 4.23475,-1.12668 2.00082,-1.12667 3.06922,-3.04979 1.08782,-1.92312 1.08782,-4.33188 0,-3.6714 -2.42818,-6.13843 -2.40875,-2.46704 -5.94418,-2.46704 z"
     style="font-style:normal;font-variant:normal;font-weight:normal;font-stretch:normal;font-family:'Century Gothic';-inkscape-font-specification:'Century Gothic'"
     id="path3415" /><path
     d="m 658.19338,609.98786 2.73898,0 0,9.86813 q 0,3.61313 0.38851,4.97291 0.58276,1.94254 2.2145,3.06922 1.65116,1.12667 3.92394,1.12667 2.27278,0 3.84624,-1.08782 1.59288,-1.10725 2.19507,-2.89439 0.40794,-1.2238 0.40794,-5.18659 l 0,-9.86813 2.77784,0 0,10.37319 q 0,4.37072 -1.02955,6.58522 -1.01013,2.2145 -3.06922,3.47716 -2.03967,1.24322 -5.12832,1.24322 -3.08864,0 -5.16717,-1.24322 -2.05909,-1.26266 -3.08864,-3.49658 -1.01012,-2.25335 -1.01012,-6.76006 l 0,-10.17893 z"
     style="font-style:normal;font-variant:normal;font-weight:normal;font-stretch:normal;font-family:'Century Gothic';-inkscape-font-specification:'Century Gothic'"
     id="path3417" /><path
     d="m 682.70829,609.98786 2.71956,0 0,3.78796 q 1.63173,-2.17565 3.61313,-3.24405 1.98139,-1.08782 4.31245,-1.08782 2.3699,0 4.19589,1.20438 1.84542,1.20437 2.71956,3.24405 0.87415,2.03967 0.87415,6.35211 l 0,10.87825 -2.70014,0 0,-10.0818 q 0,-3.65198 -0.3108,-4.87579 -0.48564,-2.09795 -1.826,-3.14692 -1.34035,-1.0684 -3.49657,-1.0684 -2.46704,0 -4.42901,1.63174 -1.94254,1.63174 -2.56415,4.04049 -0.38851,1.57346 -0.38851,5.74993 l 0,7.75075 -2.71956,0 0,-21.13488 z"
     style="font-style:normal;font-variant:normal;font-weight:normal;font-stretch:normal;font-family:'Century Gothic';-inkscape-font-specification:'Century Gothic'"
     id="path3419" /><path
     d="m 707.90308,601.28526 q 0.93242,0 1.59289,0.66047 0.66046,0.66046 0.66046,1.59289 0,0.91299 -0.66046,1.57346 -0.66047,0.66046 -1.59289,0.66046 -0.91299,0 -1.57346,-0.66046 -0.66046,-0.66047 -0.66046,-1.57346 0,-0.93243 0.66046,-1.59289 0.66047,-0.66047 1.57346,-0.66047 z m -1.35978,8.7026 2.73899,0 0,21.13488 -2.73899,0 0,-21.13488 z"
     style="font-style:normal;font-variant:normal;font-weight:normal;font-stretch:normal;font-family:'Century Gothic';-inkscape-font-specification:'Century Gothic'"
     id="path3421" /><path
     d="m 713.03141,609.98786 2.89439,0 7.07086,15.38495 7.01258,-15.38495 2.91382,0 -9.67387,21.13488 -0.48563,0 -9.73215,-21.13488 z"
     style="font-style:normal;font-variant:normal;font-weight:normal;font-stretch:normal;font-family:'Century Gothic';-inkscape-font-specification:'Century Gothic'"
     id="path3423" /><path
     d="m 754.97089,624.11016 2.2922,1.20437 q -1.12667,2.21451 -2.603,3.57429 -1.47634,1.35978 -3.32176,2.07852 -1.84541,0.69931 -4.17646,0.69931 -5.16717,0 -8.08099,-3.38002 -2.91381,-3.39945 -2.91381,-7.67305 0,-4.02107 2.46703,-7.16799 3.12749,-4.00164 8.37236,-4.00164 5.40027,0 8.6249,4.09877 2.2922,2.89439 2.33105,7.22626 l -18.99808,0 q 0.0777,3.69084 2.35048,6.06074 2.27277,2.35048 5.61395,2.35048 1.61231,0 3.1275,-0.56334 1.53461,-0.56334 2.603,-1.49576 1.0684,-0.93242 2.31163,-3.01094 z m 0,-5.69166 q -0.54391,-2.17565 -1.59288,-3.47715 -1.02955,-1.3015 -2.73899,-2.09795 -1.70944,-0.79644 -3.59371,-0.79644 -3.10807,0 -5.34199,2.00082 -1.63174,1.45691 -2.46703,4.37072 l 15.7346,0 z"
     style="font-style:normal;font-variant:normal;font-weight:normal;font-stretch:normal;font-family:'Century Gothic';-inkscape-font-specification:'Century Gothic'"
     id="path3425" /><path
     d="m 762.02234,609.98786 2.77783,0 0,3.08865 q 1.24323,-1.82599 2.62244,-2.71956 1.3792,-0.913 2.87496,-0.913 1.12668,0 2.40876,0.71874 l -1.41806,2.2922 q -0.85472,-0.36908 -1.43748,-0.36908 -1.35978,0 -2.62244,1.12668 -1.26265,1.10725 -1.92312,3.45772 -0.50506,1.80657 -0.50506,7.30397 l 0,7.14856 -2.77783,0 0,-21.13488 z"
     style="font-style:normal;font-variant:normal;font-weight:normal;font-stretch:normal;font-family:'Century Gothic';-inkscape-font-specification:'Century Gothic'"
     id="path3427" /><path
     d="m 785.64366,612.29949 -1.74829,1.80657 q -2.17564,-2.11738 -4.25417,-2.11738 -1.32093,0 -2.27277,0.87415 -0.93242,0.87414 -0.93242,2.03967 0,1.02955 0.77701,1.96197 0.77702,0.95184 3.26348,2.23392 3.03037,1.57346 4.11819,3.03037 1.0684,1.47634 1.0684,3.32175 0,2.60301 -1.82599,4.40958 -1.82599,1.80656 -4.56498,1.80656 -1.82599,0 -3.49658,-0.79644 -1.65116,-0.79644 -2.73899,-2.19507 l 1.70944,-1.94255 q 2.07852,2.35048 4.40958,2.35048 1.63173,0 2.77783,-1.04897 1.14611,-1.04898 1.14611,-2.46703 0,-1.16553 -0.7576,-2.07853 -0.75759,-0.89357 -3.41887,-2.25335 -2.85554,-1.47633 -3.88509,-2.91381 -1.02955,-1.43749 -1.02955,-3.2829 0,-2.40876 1.63174,-4.00164 1.65116,-1.59289 4.15704,-1.59289 2.91382,0 5.86648,2.85554 z"
     style="font-style:normal;font-variant:normal;font-weight:normal;font-stretch:normal;font-family:'Century Gothic';-inkscape-font-specification:'Century Gothic'"
     id="path3429" /><path
     d="m 791.43244,601.28526 q 0.93242,0 1.59289,0.66047 0.66046,0.66046 0.66046,1.59289 0,0.91299 -0.66046,1.57346 -0.66047,0.66046 -1.59289,0.66046 -0.91299,0 -1.57346,-0.66046 -0.66046,-0.66047 -0.66046,-1.57346 0,-0.93243 0.66046,-1.59289 0.66047,-0.66047 1.57346,-0.66047 z m -1.35978,8.7026 2.73899,0 0,21.13488 -2.73899,0 0,-21.13488 z"
     style="font-style:normal;font-variant:normal;font-weight:normal;font-stretch:normal;font-family:'Century Gothic';-inkscape-font-specification:'Century Gothic'"
     id="path3431" /><path
     d="m 800.93149,602.13998 2.73899,0 0,7.84788 4.31245,0 0,2.33106 -4.31245,0 0,18.80382 -2.73899,0 0,-18.80382 -3.71026,0 0,-2.33106 3.71026,0 0,-7.84788 z"
     style="font-style:normal;font-variant:normal;font-weight:normal;font-stretch:normal;font-family:'Century Gothic';-inkscape-font-specification:'Century Gothic'"
     id="path3433" /><path
     d="m 833.21661,609.98786 0,21.13488 -2.68072,0 0,-3.63256 q -1.70943,2.07853 -3.84623,3.1275 -2.11738,1.04897 -4.64268,1.04897 -4.48728,0 -7.67305,-3.24404 -3.16635,-3.26348 -3.16635,-7.92558 0,-4.56498 3.2052,-7.80903 3.2052,-3.24405 7.7119,-3.24405 2.60301,0 4.70096,1.10725 2.11737,1.10725 3.71025,3.32175 l 0,-3.88509 2.68072,0 z m -10.87825,2.07852 q -2.27278,0 -4.1959,1.12668 -1.92312,1.10725 -3.06922,3.1275 -1.12667,2.02024 -1.12667,4.27359 0,2.23393 1.1461,4.2736 1.1461,2.03967 3.06922,3.18577 1.94254,1.12668 4.15704,1.12668 2.23393,0 4.23475,-1.12668 2.00082,-1.12667 3.06922,-3.04979 1.08782,-1.92312 1.08782,-4.33188 0,-3.6714 -2.42818,-6.13843 -2.40875,-2.46704 -5.94418,-2.46704 z"
     style="font-style:normal;font-variant:normal;font-weight:normal;font-stretch:normal;font-family:'Century Gothic';-inkscape-font-specification:'Century Gothic'"
     id="path3435" /><path
     d="m 838.3255,609.98786 2.77783,0 0,3.08865 q 1.24323,-1.82599 2.62244,-2.71956 1.37921,-0.913 2.87496,-0.913 1.12668,0 2.40876,0.71874 l -1.41806,2.2922 q -0.85472,-0.36908 -1.43748,-0.36908 -1.35978,0 -2.62244,1.12668 -1.26265,1.10725 -1.92311,3.45772 -0.50507,1.80657 -0.50507,7.30397 l 0,7.14856 -2.77783,0 0,-21.13488 z"
     style="font-style:normal;font-variant:normal;font-weight:normal;font-stretch:normal;font-family:'Century Gothic';-inkscape-font-specification:'Century Gothic'"
     id="path3437" /><path
     d="m 852.27296,601.28526 q 0.93242,0 1.59288,0.66047 0.66047,0.66046 0.66047,1.59289 0,0.91299 -0.66047,1.57346 -0.66046,0.66046 -1.59288,0.66046 -0.913,0 -1.57346,-0.66046 -0.66047,-0.66047 -0.66047,-1.57346 0,-0.93243 0.66047,-1.59289 0.66046,-0.66047 1.57346,-0.66047 z m -1.35978,8.7026 2.73898,0 0,21.13488 -2.73898,0 0,-21.13488 z"
     style="font-style:normal;font-variant:normal;font-weight:normal;font-stretch:normal;font-family:'Century Gothic';-inkscape-font-specification:'Century Gothic'"
     id="path3439" /><path
     d="m 869.40621,609.44395 q 4.87578,0 8.08098,3.53543 2.91381,3.22462 2.91381,7.6342 0,4.429 -3.08864,7.75075 -3.06922,3.30232 -7.90615,3.30232 -4.85636,0 -7.94501,-3.30232 -3.06922,-3.32175 -3.06922,-7.75075 0,-4.39015 2.91382,-7.61477 3.20519,-3.55486 8.10041,-3.55486 z m 0,2.66129 q -3.38003,0 -5.80821,2.50588 -2.42818,2.50588 -2.42818,6.06073 0,2.29221 1.10725,4.2736 1.10725,1.9814 2.99152,3.06922 1.88426,1.0684 4.13762,1.0684 2.25335,0 4.13761,-1.0684 1.88427,-1.08782 2.99152,-3.06922 1.10725,-1.98139 1.10725,-4.2736 0,-3.55485 -2.4476,-6.06073 -2.42818,-2.50588 -5.78878,-2.50588 z"
     style="font-style:normal;font-variant:normal;font-weight:normal;font-stretch:normal;font-family:'Century Gothic';-inkscape-font-specification:'Century Gothic'"
     id="path3441" /><path
     d="m 896.05791,612.29949 -1.74829,1.80657 q -2.17565,-2.11738 -4.25417,-2.11738 -1.32093,0 -2.27278,0.87415 -0.93242,0.87414 -0.93242,2.03967 0,1.02955 0.77702,1.96197 0.77702,0.95184 3.26347,2.23392 3.03037,1.57346 4.1182,3.03037 1.0684,1.47634 1.0684,3.32175 0,2.60301 -1.826,4.40958 -1.82599,1.80656 -4.56497,1.80656 -1.826,0 -3.49658,-0.79644 -1.65117,-0.79644 -2.73899,-2.19507 l 1.70944,-1.94255 q 2.07852,2.35048 4.40957,2.35048 1.63174,0 2.77784,-1.04897 1.1461,-1.04898 1.1461,-2.46703 0,-1.16553 -0.75759,-2.07853 -0.75759,-0.89357 -3.41888,-2.25335 -2.85554,-1.47633 -3.88509,-2.91381 -1.02954,-1.43749 -1.02954,-3.2829 0,-2.40876 1.63173,-4.00164 1.65116,-1.59289 4.15705,-1.59289 2.91381,0 5.86648,2.85554 z"
     style="font-style:normal;font-variant:normal;font-weight:normal;font-stretch:normal;font-family:'Century Gothic';-inkscape-font-specification:'Century Gothic'"
     id="path3443" /></g>
</svg>