<?xml version="1.0" encoding="utf-8"?>
<!-- Generator: Adobe Illustrator 18.0.0, SVG Export Plug-In . SVG Version: 6.00 Build 0)  -->
<!DOCTYPE svg PUBLIC "-//W3C//DTD SVG 1.1//EN" "http://www.w3.org/Graphics/SVG/1.1/DTD/svg11.dtd">
<svg version="1.1" id="Capa_1" xmlns="http://www.w3.org/2000/svg" xmlns:xlink="http://www.w3.org/1999/xlink" x="0px" y="0px"
	 width="595.3px" height="333.6px" viewBox="53.6 363.1 595.3 333.6" enable-background="new 53.6 363.1 595.3 333.6"
	 xml:space="preserve">
<g id="Capa_1_1_">
	<path fill="#B2B2B2" d="M98.5,673c-0.9-2.1-1.5-4.4-1.5-6.9v-286c0-9.4,7.7-17.1,17.1-17.1h468.7c9.4,0,17.1,7.7,17.1,17.1v286
		c0,2.4-0.5,4.8-1.5,6.9h50.1c-0.2,12.9-10.8,23.4-23.7,23.4H77.7c-12.9,0-23.6-10.5-23.7-23.4L98.5,673L98.5,673z"/>
	<path fill="#B2B2B2" d="M98.5,673c-0.9-2.1-1.5-4.4-1.5-6.9v-286c0-9.4,7.7-17.1,17.1-17.1h468.7c9.4,0,17.1,7.7,17.1,17.1v286
		c0,2.4-0.5,4.8-1.5,6.9h50.1c-0.2,12.9-10.8,23.4-23.7,23.4H77.7c-12.9,0-23.6-10.5-23.7-23.4L98.5,673L98.5,673z"/>
	<path fill="#211915" d="M114.1,363.2h468.7c9.4,0,17.1,7.6,17.1,17.1v285.9c0,9.4-7.6,17.1-17.1,17.1H114.1
		c-9.4,0-17.1-7.6-17.1-17.1V380.2C97.1,370.8,104.7,363.2,114.1,363.2z"/>
	<path opacity="0.4" fill="#FFFFFF" enable-background="new    " d="M116.1,367.5h464.8c8.1,0,14.7,6.6,14.7,14.7v282
		c0,8.1-6.6,14.7-14.7,14.7H116.1c-8.1,0-14.7-6.6-14.7-14.7v-282C101.4,374.1,108,367.5,116.1,367.5z"/>
	<path fill="#211915" d="M116,368.6H581c7.4,0,13.5,6,13.5,13.5v282.3c0,7.4-6,13.5-13.5,13.5H116c-7.4,0-13.5-6-13.5-13.5V382
		C102.5,374.6,108.5,368.6,116,368.6z"/>
	<defs>
		<filter id="Adobe_OpacityMaskFilter" filterUnits="userSpaceOnUse" x="122" y="388.1" width="453" height="270.2">
			<feColorMatrix  type="matrix" values="1 0 0 0 0  0 1 0 0 0  0 0 1 0 0  0 0 0 1 0"/>
		</filter>
	</defs>
	<mask maskUnits="userSpaceOnUse" x="122" y="388.1" width="453" height="270.2" id="id6">
		<path fill="#1A1A1A" filter="url(#Adobe_OpacityMaskFilter)" d="M348.5,523.2l-74.6,253l3.1,0.9L348.5,523.2"/>
		<path d="M348.5,523.2l74.6-253l-3.1-0.9L348.5,523.2"/>
		<path fill="#1A1A1A" d="M348.5,523.2L277,777.1l3.1,0.9L348.5,523.2"/>
		<path d="M348.5,523.2L420,269.3l-3.1-0.9L348.5,523.2"/>
		<path fill="#1A1A1A" d="M348.5,523.2l-68.4,254.7l3.2,0.8L348.5,523.2"/>
		<path d="M348.5,523.2l68.4-254.8l-3.1-0.8L348.5,523.2"/>
		<path fill="#1A1A1A" d="M348.5,523.2l-65.2,255.6l3.2,0.8L348.5,523.2"/>
		<path d="M348.5,523.2l65.2-255.6l-3.2-0.8L348.5,523.2"/>
		<path fill="#1A1A1A" d="M348.5,523.2l-62.1,256.4l3.2,0.7L348.5,523.2"/>
		<path d="M348.5,523.2l62.1-256.4l-3.2-0.7L348.5,523.2"/>
		<path fill="#191919" d="M348.5,523.2l-58.9,257.1l3.2,0.7L348.5,523.2"/>
		<path fill="#010101" d="M348.5,523.2l58.9-257.1l-3.2-0.7L348.5,523.2"/>
		<path fill="#191919" d="M348.5,523.2L292.8,781l3.2,0.7L348.5,523.2"/>
		<path fill="#010101" d="M348.5,523.2l55.7-257.8l-3.2-0.7L348.5,523.2"/>
		<path fill="#191919" d="M348.5,523.2l-52.6,258.5l3.2,0.6L348.5,523.2"/>
		<path fill="#010101" d="M348.5,523.2l52.6-258.5l-3.2-0.6L348.5,523.2"/>
		<path fill="#191919" d="M348.5,523.2l-49.4,259.1l3.2,0.6L348.5,523.2"/>
		<path fill="#010101" d="M348.5,523.2l49.4-259.1l-3.2-0.6L348.5,523.2"/>
		<path fill="#191919" d="M348.5,523.2l-46.2,259.7l3.2,0.5L348.5,523.2"/>
		<path fill="#010101" d="M348.5,523.2l46.2-259.7l-3.2-0.5L348.5,523.2"/>
		<path fill="#191919" d="M348.5,523.2l-43,260.2l3.2,0.5L348.5,523.2"/>
		<path fill="#010101" d="M348.5,523.2l43-260.2l-3.2-0.5L348.5,523.2"/>
		<path fill="#191919" d="M348.5,523.2l-39.8,260.7l3.2,0.5L348.5,523.2"/>
		<path fill="#010101" d="M348.5,523.2l39.7-260.7L385,262L348.5,523.2"/>
		<path fill="#191919" d="M348.5,523.2l-36.6,261.2l3.2,0.4L348.5,523.2"/>
		<path fill="#010101" d="M348.5,523.2L385,262l-3.2-0.4L348.5,523.2"/>
		<path fill="#191919" d="M348.5,523.2l-33.3,261.7l3.2,0.4L348.5,523.2"/>
		<path fill="#010101" d="M348.5,523.2l33.3-261.7l-3.2-0.4L348.5,523.2"/>
		<path fill="#191919" d="M348.5,523.2l-30.1,262l3.2,0.4L348.5,523.2"/>
		<path fill="#010101" d="M348.5,523.2l30.1-262l-3.2-0.4L348.5,523.2"/>
		<path fill="#181818" d="M348.5,523.2l-26.9,262.4l3.2,0.3L348.5,523.2"/>
		<path fill="#020202" d="M348.5,523.2l26.9-262.4l-3.2-0.3L348.5,523.2"/>
		<path fill="#181818" d="M348.5,523.2l-23.7,262.7l3.3,0.3L348.5,523.2"/>
		<path fill="#020202" d="M348.5,523.2l23.6-262.7l-3.3-0.3L348.5,523.2"/>
		<path fill="#181818" d="M348.5,523.2l-20.4,263l3.2,0.2L348.5,523.2"/>
		<path fill="#020202" d="M348.5,523.2l20.4-263l-3.2-0.2L348.5,523.2"/>
		<path fill="#181818" d="M348.5,523.2l-17.2,263.2l3.3,0.2L348.5,523.2"/>
		<path fill="#020202" d="M348.5,523.2L365.7,260l-3.3-0.2L348.5,523.2"/>
		<path fill="#181818" d="M348.5,523.2l-13.9,263.4l3.3,0.2L348.5,523.2"/>
		<path fill="#020202" d="M348.5,523.2l13.9-263.4l-3.2-0.1L348.5,523.2"/>
		<path fill="#181818" d="M348.5,523.2l-10.7,263.6l3.2,0.1L348.5,523.2"/>
		<path fill="#020202" d="M348.5,523.2l10.7-263.6l-3.3-0.1L348.5,523.2"/>
		<path fill="#181818" d="M348.5,523.2l-7.4,263.7l3.3,0.1L348.5,523.2"/>
		<path fill="#020202" d="M348.5,523.2l7.4-263.7l-3.3-0.1L348.5,523.2"/>
		<path fill="#181818" d="M348.5,523.2l-4.2,263.7l3.3,0L348.5,523.2"/>
		<path fill="#020202" d="M348.5,523.2l4.2-263.7l-3.3,0L348.5,523.2"/>
		<path fill="#181818" d="M348.5,523.2l-0.9,263.8h3.3L348.5,523.2"/>
		<path fill="#020202" d="M348.5,523.2l0.9-263.8h-3.3L348.5,523.2"/>
		<path fill="#181818" d="M348.5,523.2l2.3,263.8l3.3,0L348.5,523.2"/>
		<path fill="#020202" d="M348.5,523.2l-2.3-263.8l-3.3,0L348.5,523.2"/>
		<path fill="#171717" d="M348.5,523.2l5.6,263.7l3.3-0.1L348.5,523.2"/>
		<path fill="#030303" d="M348.5,523.2l-5.6-263.7l-3.2,0.1L348.5,523.2"/>
		<path fill="#171717" d="M348.5,523.2l8.8,263.6l3.2-0.1L348.5,523.2"/>
		<path fill="#030303" d="M348.5,523.2l-8.8-263.6l-3.3,0.1L348.5,523.2"/>
		<path fill="#171717" d="M348.5,523.2l12.1,263.5l3.3-0.2L348.5,523.2"/>
		<path fill="#030303" d="M348.5,523.2l-12.1-263.5l-3.3,0.2L348.5,523.2"/>
		<path fill="#171717" d="M348.5,523.2l15.3,263.3l3.3-0.2L348.5,523.2"/>
		<path fill="#030303" d="M348.5,523.2l-15.3-263.3l-3.2,0.2L348.5,523.2"/>
		<path fill="#171717" d="M348.5,523.2l18.6,263.1l3.2-0.2L348.5,523.2"/>
		<path fill="#030303" d="M348.5,523.2l-18.6-263.1l-3.3,0.2L348.5,523.2"/>
		<path fill="#171717" d="M348.5,523.2l21.8,262.9l3.3-0.3L348.5,523.2"/>
		<path fill="#030303" d="M348.5,523.2l-21.8-262.9l-3.2,0.3L348.5,523.2"/>
		<path fill="#171717" d="M348.5,523.2l25,262.6l3.2-0.3L348.5,523.2"/>
		<path fill="#030303" d="M348.5,523.2l-25-262.6l-3.2,0.3L348.5,523.2"/>
		<path fill="#171717" d="M348.5,523.2l28.3,262.3l3.2-0.4L348.5,523.2"/>
		<path fill="#030303" d="M348.5,523.2l-28.3-262.3l-3.2,0.4L348.5,523.2"/>
		<path fill="#171717" d="M348.5,523.2L380,785.1l3.2-0.4L348.5,523.2"/>
		<path fill="#030303" d="M348.5,523.2L317,261.3l-3.2,0.4L348.5,523.2"/>
		<path fill="#171717" d="M348.5,523.2l34.7,261.5l3.2-0.4L348.5,523.2"/>
		<path fill="#030303" d="M348.5,523.2l-34.7-261.5l-3.2,0.4L348.5,523.2"/>
		<path fill="#161616" d="M348.5,523.2l37.9,261l3.2-0.5L348.5,523.2"/>
		<path fill="#040404" d="M348.5,523.2l-38-261l-3.2,0.5L348.5,523.2"/>
		<path fill="#161616" d="M348.5,523.2l41.2,260.5l3.2-0.5L348.5,523.2"/>
		<path fill="#040404" d="M348.5,523.2l-41.2-260.5l-3.2,0.5L348.5,523.2"/>
		<path fill="#161616" d="M348.5,523.2l44.4,260l3.2-0.6L348.5,523.2"/>
		<path fill="#040404" d="M348.5,523.2l-44.4-260l-3.2,0.6L348.5,523.2"/>
		<path fill="#161616" d="M348.5,523.2L396,782.6l3.2-0.6L348.5,523.2"/>
		<path fill="#040404" d="M348.5,523.2l-47.6-259.4l-3.2,0.6L348.5,523.2"/>
		<path fill="#161616" d="M348.5,523.2L399.2,782l3.2-0.6L348.5,523.2"/>
		<path fill="#040404" d="M348.5,523.2l-50.8-258.8l-3.2,0.6L348.5,523.2"/>
		<path fill="#161616" d="M348.5,523.2l53.9,258.2l3.2-0.7L348.5,523.2"/>
		<path fill="#040404" d="M348.5,523.2L294.6,265l-3.2,0.7L348.5,523.2"/>
		<path fill="#161616" d="M348.5,523.2l57.1,257.5l3.2-0.7L348.5,523.2"/>
		<path fill="#040404" d="M348.5,523.2l-57.1-257.5l-3.2,0.7L348.5,523.2"/>
		<path fill="#161616" d="M348.5,523.2L408.8,780l3.2-0.8L348.5,523.2"/>
		<path fill="#040404" d="M348.5,523.2l-60.3-256.8l-3.2,0.8L348.5,523.2"/>
		<path fill="#161616" d="M348.5,523.2l63.4,256l3.2-0.8L348.5,523.2"/>
		<path fill="#040404" d="M348.5,523.2l-63.5-256l-3.1,0.8L348.5,523.2"/>
		<path fill="#161616" d="M348.5,523.2l66.6,255.2l3.1-0.8L348.5,523.2"/>
		<path fill="#040404" d="M348.5,523.2L281.9,268l-3.2,0.8L348.5,523.2"/>
		<path fill="#151515" d="M348.5,523.2l69.7,254.4l3.1-0.9L348.5,523.2"/>
		<path fill="#050505" d="M348.5,523.2l-69.7-254.4l-3.1,0.9L348.5,523.2"/>
		<path fill="#151515" d="M348.5,523.2l72.8,253.5l3.1-0.9L348.5,523.2"/>
		<path fill="#050505" d="M348.5,523.2l-72.9-253.5l-3.1,0.9L348.5,523.2"/>
		<path fill="#151515" d="M348.5,523.2l76,252.6l3.1-1L348.5,523.2"/>
		<path fill="#050505" d="M348.5,523.2l-76-252.6l-3.1,1L348.5,523.2"/>
		<path fill="#151515" d="M348.5,523.2l79.1,251.6l3.1-1L348.5,523.2"/>
		<path fill="#050505" d="M348.5,523.2l-79.1-251.6l-3.1,1L348.5,523.2"/>
		<path fill="#151515" d="M348.5,523.2l82.2,250.6l3.1-1L348.5,523.2"/>
		<path fill="#050505" d="M348.5,523.2l-82.2-250.6l-3.1,1L348.5,523.2"/>
		<path fill="#151515" d="M348.5,523.2l85.2,249.6l3.1-1.1L348.5,523.2"/>
		<path fill="#050505" d="M348.5,523.2l-85.3-249.6l-3.1,1.1L348.5,523.2"/>
		<path fill="#151515" d="M348.5,523.2l88.3,248.5l3.1-1.1L348.5,523.2"/>
		<path fill="#050505" d="M348.5,523.2l-88.3-248.5l-3.1,1.1L348.5,523.2"/>
		<path fill="#151515" d="M348.5,523.2l91.4,247.4l3-1.1L348.5,523.2"/>
		<path fill="#050505" d="M348.5,523.2l-91.4-247.4l-3.1,1.2L348.5,523.2"/>
		<path fill="#151515" d="M348.5,523.2l94.4,246.3l3-1.2L348.5,523.2"/>
		<path fill="#050505" d="M348.5,523.2l-94.4-246.3l-3,1.2L348.5,523.2"/>
		<path fill="#141414" d="M348.5,523.2l97.4,245.1l3-1.2L348.5,523.2"/>
		<path fill="#060606" d="M348.5,523.2L251,278.1l-3,1.2L348.5,523.2"/>
		<path fill="#141414" d="M348.5,523.2l100.4,243.9l3-1.3L348.5,523.2"/>
		<path fill="#060606" d="M348.5,523.2L248,279.3l-3,1.3L348.5,523.2"/>
		<path fill="#141414" d="M348.5,523.2L452,765.8l3-1.3L348.5,523.2"/>
		<path fill="#060606" d="M348.5,523.2L245,280.6l-3,1.3L348.5,523.2"/>
		<path fill="#141414" d="M348.5,523.2l106.4,241.3l3-1.3L348.5,523.2"/>
		<path fill="#060606" d="M348.5,523.2L242,281.9l-3,1.3L348.5,523.2"/>
		<path fill="#141414" d="M348.5,523.2l109.4,240l3-1.4L348.5,523.2"/>
		<path fill="#060606" d="M348.5,523.2l-109.4-240l-2.9,1.4L348.5,523.2"/>
		<path fill="#141414" d="M348.5,523.2l112.3,238.6l2.9-1.4L348.5,523.2"/>
		<path fill="#060606" d="M348.5,523.2L236.2,284.5l-2.9,1.4L348.5,523.2"/>
		<path fill="#141414" d="M348.5,523.2l115.3,237.2l2.9-1.5L348.5,523.2"/>
		<path fill="#060606" d="M348.5,523.2L233.2,286l-2.9,1.4L348.5,523.2"/>
		<path fill="#141414" d="M348.5,523.2L466.7,759l2.9-1.5L348.5,523.2"/>
		<path fill="#060606" d="M348.5,523.2L230.3,287.4l-2.9,1.5L348.5,523.2"/>
		<path fill="#141414" d="M348.5,523.2l121.1,234.3l2.9-1.5L348.5,523.2"/>
		<path fill="#060606" d="M348.5,523.2L227.4,288.9l-2.9,1.5L348.5,523.2"/>
		<path fill="#141414" d="M348.5,523.2l124,232.8l2.9-1.5L348.5,523.2"/>
		<path fill="#060606" d="M348.5,523.2l-124-232.8l-2.9,1.6L348.5,523.2"/>
		<path fill="#131313" d="M348.5,523.2l126.8,231.3l2.8-1.6L348.5,523.2"/>
		<path fill="#070707" d="M348.5,523.2L221.7,291.9l-2.8,1.6L348.5,523.2"/>
		<path fill="#131313" d="M348.5,523.2l129.6,229.7l2.8-1.6L348.5,523.2"/>
		<path fill="#070707" d="M348.5,523.2L218.8,293.5l-2.8,1.6L348.5,523.2"/>
		<path fill="#131313" d="M348.5,523.2L481,751.3l2.8-1.7L348.5,523.2"/>
		<path fill="#070707" d="M348.5,523.2L216,295.1l-2.8,1.7L348.5,523.2"/>
		<path fill="#131313" d="M348.5,523.2l135.3,226.4l2.8-1.7L348.5,523.2"/>
		<path fill="#070707" d="M348.5,523.2L213.2,296.8l-2.8,1.7L348.5,523.2"/>
		<path fill="#131313" d="M348.5,523.2l138.1,224.7l2.8-1.7L348.5,523.2"/>
		<path fill="#070707" d="M348.5,523.2L210.4,298.4l-2.8,1.7L348.5,523.2"/>
		<path fill="#131313" d="M348.5,523.2l140.8,223l2.7-1.8L348.5,523.2"/>
		<path fill="#070707" d="M348.5,523.2l-140.8-223l-2.7,1.8L348.5,523.2"/>
		<path fill="#131313" d="M348.5,523.2L492,744.5l2.7-1.8L348.5,523.2"/>
		<path fill="#070707" d="M348.5,523.2L204.9,301.9l-2.7,1.8L348.5,523.2"/>
		<path fill="#131313" d="M348.5,523.2l146.3,219.5l2.7-1.8L348.5,523.2"/>
		<path fill="#070707" d="M348.5,523.2L202.2,303.7l-2.7,1.8L348.5,523.2"/>
		<path fill="#131313" d="M348.5,523.2l149,217.7l2.7-1.8L348.5,523.2"/>
		<path fill="#070707" d="M348.5,523.2l-149-217.7l-2.7,1.8L348.5,523.2"/>
		<path fill="#131313" d="M348.5,523.2L500.1,739l2.7-1.9L348.5,523.2"/>
		<path fill="#070707" d="M348.5,523.2L196.8,307.4l-2.6,1.9L348.5,523.2"/>
		<path fill="#121212" d="M348.5,523.2l154.3,213.9l2.6-1.9L348.5,523.2"/>
		<path fill="#080808" d="M348.5,523.2L194.2,309.3l-2.6,1.9L348.5,523.2"/>
		<path fill="#121212" d="M348.5,523.2l156.9,212l2.6-1.9L348.5,523.2"/>
		<path fill="#080808" d="M348.5,523.2l-156.9-212l-2.6,1.9L348.5,523.2"/>
		<path fill="#121212" d="M348.5,523.2L508,733.3l2.6-2L348.5,523.2"/>
		<path fill="#080808" d="M348.5,523.2L189,313.1l-2.6,2L348.5,523.2"/>
		<path fill="#121212" d="M348.5,523.2l162.1,208.1l2.6-2L348.5,523.2"/>
		<path fill="#080808" d="M348.5,523.2L186.4,315.1l-2.5,2L348.5,523.2"/>
		<path fill="#121212" d="M348.5,523.2l164.6,206.1l2.5-2L348.5,523.2"/>
		<path fill="#080808" d="M348.5,523.2L183.9,317.1l-2.5,2L348.5,523.2"/>
		<path fill="#121212" d="M348.5,523.2l167.2,204l2.5-2.1L348.5,523.2"/>
		<path fill="#080808" d="M348.5,523.2l-167.2-204l-2.5,2.1L348.5,523.2"/>
		<path fill="#121212" d="M348.5,523.2l169.7,202l2.5-2.1L348.5,523.2"/>
		<path fill="#080808" d="M348.5,523.2l-169.7-202l-2.5,2.1L348.5,523.2"/>
		<path fill="#121212" d="M348.5,523.2L520.6,723l2.4-2.1L348.5,523.2"/>
		<path fill="#080808" d="M348.5,523.2L176.3,323.3l-2.4,2.1L348.5,523.2"/>
		<path fill="#121212" d="M348.5,523.2l174.6,197.7l2.4-2.2L348.5,523.2"/>
		<path fill="#080808" d="M348.5,523.2L173.9,325.5l-2.4,2.2L348.5,523.2"/>
		<path fill="#121212" d="M348.5,523.2l177,195.5l2.4-2.2L348.5,523.2"/>
		<path fill="#080808" d="M348.5,523.2l-177-195.5l-2.4,2.2L348.5,523.2"/>
		<path fill="#111111" d="M348.5,523.2l179.4,193.3l2.4-2.2L348.5,523.2"/>
		<path fill="#090909" d="M348.5,523.2L169.1,329.8l-2.4,2.2L348.5,523.2"/>
		<path fill="#111111" d="M348.5,523.2l181.8,191.1l2.3-2.3L348.5,523.2"/>
		<path fill="#090909" d="M348.5,523.2L166.7,332.1l-2.3,2.3L348.5,523.2"/>
		<path fill="#111111" d="M348.5,523.2l184.1,188.9l2.3-2.3L348.5,523.2"/>
		<path fill="#090909" d="M348.5,523.2L164.4,334.3l-2.3,2.3L348.5,523.2"/>
		<path fill="#111111" d="M348.5,523.2l186.4,186.6l2.3-2.3L348.5,523.2"/>
		<path fill="#090909" d="M348.5,523.2L162,336.6l-2.3,2.3L348.5,523.2"/>
		<path fill="#111111" d="M348.5,523.2l188.7,184.3l2.2-2.3L348.5,523.2"/>
		<path fill="#090909" d="M348.5,523.2L159.8,338.9l-2.3,2.3L348.5,523.2"/>
		<path fill="#111111" d="M348.5,523.2l191,181.9l2.2-2.4L348.5,523.2"/>
		<path fill="#090909" d="M348.5,523.2l-191-181.9l-2.2,2.4L348.5,523.2"/>
		<path fill="#111111" d="M348.5,523.2l193.2,179.6l2.2-2.4L348.5,523.2"/>
		<path fill="#090909" d="M348.5,523.2L155.3,343.6l-2.2,2.4L348.5,523.2"/>
		<path fill="#111111" d="M348.5,523.2l195.4,177.2l2.2-2.4L348.5,523.2"/>
		<path fill="#090909" d="M348.5,523.2L153.1,346l-2.2,2.4L348.5,523.2"/>
		<path fill="#111111" d="M348.5,523.2l197.6,174.7l2.1-2.4L348.5,523.2"/>
		<path fill="#090909" d="M348.5,523.2L150.9,348.4l-2.1,2.5L348.5,523.2"/>
		<path fill="#111111" d="M348.5,523.2l199.7,172.3l2.1-2.5L348.5,523.2"/>
		<path fill="#090909" d="M348.5,523.2L148.8,350.9l-2.1,2.5L348.5,523.2"/>
		<path fill="#101010" d="M348.5,523.2L550.3,693l2.1-2.5L348.5,523.2"/>
		<path fill="#0A0A0A" d="M348.5,523.2L146.7,353.4l-2.1,2.5L348.5,523.2"/>
		<path fill="#101010" d="M348.5,523.2l203.9,167.3l2-2.5L348.5,523.2"/>
		<path fill="#0A0A0A" d="M348.5,523.2L144.6,355.8l-2,2.5L348.5,523.2"/>
		<path fill="#101010" d="M348.5,523.2L554.4,688l2-2.5L348.5,523.2"/>
		<path fill="#0A0A0A" d="M348.5,523.2L142.6,358.4l-2,2.5L348.5,523.2"/>
		<path fill="#101010" d="M348.5,523.2l207.9,162.3l2-2.6L348.5,523.2"/>
		<path fill="#0A0A0A" d="M348.5,523.2l-208-162.3l-2,2.6L348.5,523.2"/>
		<path fill="#101010" d="M348.5,523.2l209.9,159.7l2-2.6L348.5,523.2"/>
		<path fill="#0A0A0A" d="M348.5,523.2L138.6,363.5l-1.9,2.6L348.5,523.2"/>
		<path fill="#101010" d="M348.5,523.2l211.9,157.1l1.9-2.6L348.5,523.2"/>
		<path fill="#0A0A0A" d="M348.5,523.2L136.6,366.1l-1.9,2.6L348.5,523.2"/>
		<path fill="#101010" d="M348.5,523.2l213.8,154.5l1.9-2.6L348.5,523.2"/>
		<path fill="#0A0A0A" d="M348.5,523.2L134.7,368.7l-1.9,2.6L348.5,523.2"/>
		<path fill="#101010" d="M348.5,523.2L564.2,675l1.8-2.7L348.5,523.2"/>
		<path fill="#0A0A0A" d="M348.5,523.2L132.8,371.4l-1.8,2.7L348.5,523.2"/>
		<path fill="#101010" d="M348.5,523.2L566,672.4l1.8-2.7L348.5,523.2"/>
		<path fill="#0A0A0A" d="M348.5,523.2L130.9,374l-1.8,2.7L348.5,523.2"/>
		<path fill="#0F0F0F" d="M348.5,523.2l219.3,146.5l1.8-2.7L348.5,523.2"/>
		<path fill="#0B0B0B" d="M348.5,523.2L129.1,376.7l-1.8,2.7L348.5,523.2"/>
		<path fill="#0F0F0F" d="M348.5,523.2l221.1,143.7l1.8-2.7L348.5,523.2"/>
		<path fill="#0B0B0B" d="M348.5,523.2L127.4,379.4l-1.8,2.7L348.5,523.2"/>
		<path fill="#0F0F0F" d="M348.5,523.2l222.9,141l1.7-2.8L348.5,523.2"/>
		<path fill="#0B0B0B" d="M348.5,523.2l-222.9-141l-1.7,2.8L348.5,523.2"/>
		<path fill="#0F0F0F" d="M348.5,523.2l224.6,138.2l1.7-2.8L348.5,523.2"/>
		<path fill="#0B0B0B" d="M348.5,523.2L123.9,384.9l-1.7,2.8L348.5,523.2"/>
		<path fill="#0F0F0F" d="M348.5,523.2l226.3,135.5l1.7-2.8L348.5,523.2"/>
		<path fill="#0B0B0B" d="M348.5,523.2L122.2,387.7l-1.7,2.8L348.5,523.2"/>
		<path fill="#0F0F0F" d="M348.5,523.2l227.9,132.7l1.6-2.8L348.5,523.2"/>
		<path fill="#0B0B0B" d="M348.5,523.2l-228-132.7l-1.6,2.8L348.5,523.2"/>
		<path fill="#0F0F0F" d="M348.5,523.2l229.6,129.9l1.6-2.8L348.5,523.2"/>
		<path fill="#0B0B0B" d="M348.5,523.2L118.9,393.3l-1.6,2.8L348.5,523.2"/>
		<path fill="#0F0F0F" d="M348.5,523.2l231.2,127l1.6-2.9L348.5,523.2"/>
		<path fill="#0B0B0B" d="M348.5,523.2l-231.2-127l-1.6,2.9L348.5,523.2"/>
		<path fill="#0F0F0F" d="M348.5,523.2l232.7,124.2l1.5-2.9L348.5,523.2"/>
		<path fill="#0B0B0B" d="M348.5,523.2L115.8,399l-1.5,2.9L348.5,523.2"/>
		<path fill="#0F0F0F" d="M348.5,523.2l234.2,121.3l1.5-2.9L348.5,523.2"/>
		<path fill="#0B0B0B" d="M348.5,523.2L114.3,401.9l-1.5,2.9L348.5,523.2"/>
		<path fill="#0E0E0E" d="M348.5,523.2l235.7,118.4l1.5-2.9L348.5,523.2"/>
		<path fill="#0C0C0C" d="M348.5,523.2L112.8,404.8l-1.4,2.9L348.5,523.2"/>
		<path fill="#0E0E0E" d="M348.5,523.2l237.1,115.5l1.4-2.9L348.5,523.2"/>
		<path fill="#0C0C0C" d="M348.5,523.2L111.4,407.7l-1.4,2.9L348.5,523.2"/>
		<path fill="#0E0E0E" d="M348.5,523.2L587,635.7l1.4-2.9L348.5,523.2"/>
		<path fill="#0C0C0C" d="M348.5,523.2L110,410.6l-1.4,2.9L348.5,523.2"/>
		<path fill="#0E0E0E" d="M348.5,523.2l239.9,109.6l1.3-3L348.5,523.2"/>
		<path fill="#0C0C0C" d="M348.5,523.2L108.6,413.6l-1.3,3L348.5,523.2"/>
		<path fill="#0E0E0E" d="M348.5,523.2l241.2,106.6l1.3-3L348.5,523.2"/>
		<path fill="#0C0C0C" d="M348.5,523.2L107.2,416.5l-1.3,3L348.5,523.2"/>
		<path fill="#0E0E0E" d="M348.5,523.2L591,626.8l1.3-3L348.5,523.2"/>
		<path fill="#0C0C0C" d="M348.5,523.2L106,419.5l-1.3,3L348.5,523.2"/>
		<path fill="#0E0E0E" d="M348.5,523.2l243.8,100.7l1.2-3L348.5,523.2"/>
		<path fill="#0C0C0C" d="M348.5,523.2L104.7,422.5l-1.2,3L348.5,523.2"/>
		<path fill="#0E0E0E" d="M348.5,523.2l245,97.7l1.2-3L348.5,523.2"/>
		<path fill="#0C0C0C" d="M348.5,523.2l-245-97.7l-1.2,3L348.5,523.2"/>
		<path fill="#0E0E0E" d="M348.5,523.2l246.2,94.6l1.2-3L348.5,523.2"/>
		<path fill="#0C0C0C" d="M348.5,523.2l-246.2-94.6l-1.2,3L348.5,523.2"/>
		<path fill="#0E0E0E" d="M348.5,523.2l247.3,91.6l1.1-3.1L348.5,523.2"/>
		<path fill="#0C0C0C" d="M348.5,523.2l-247.4-91.6l-1.1,3.1L348.5,523.2"/>
		<path fill="#0D0D0D" d="M348.5,523.2L597,611.7l1.1-3.1L348.5,523.2"/>
		<path fill="#0D0D0D" d="M348.5,523.2L100,434.7l-1.1,3.1L348.5,523.2"/>
		<path fill="#0D0D0D" d="M348.5,523.2L598,608.7l1-3.1L348.5,523.2"/>
		<path fill="#0D0D0D" d="M348.5,523.2L99,437.7l-1,3.1L348.5,523.2"/>
		<path fill="#0D0D0D" d="M348.5,523.2L599,605.6l1-3.1L348.5,523.2"/>
		<path fill="#0D0D0D" d="M348.5,523.2L97.9,440.8l-1,3.1L348.5,523.2"/>
		<path fill="#0D0D0D" d="M348.5,523.2l251.6,79.3l1-3.1L348.5,523.2"/>
		<path fill="#0D0D0D" d="M348.5,523.2L96.9,443.9l-1,3.1L348.5,523.2"/>
		<path fill="#0D0D0D" d="M348.5,523.2L601,599.4l0.9-3.1L348.5,523.2"/>
		<path fill="#0D0D0D" d="M348.5,523.2L96,447l-0.9,3.1L348.5,523.2"/>
		<path fill="#0D0D0D" d="M348.5,523.2l253.4,73.1l0.9-3.1L348.5,523.2"/>
		<path fill="#0D0D0D" d="M348.5,523.2L95,450.1l-0.9,3.1L348.5,523.2"/>
		<path fill="#0D0D0D" d="M348.5,523.2l254.3,69.9l0.8-3.1L348.5,523.2"/>
		<path fill="#0D0D0D" d="M348.5,523.2L94.2,453.3l-0.8,3.1L348.5,523.2"/>
		<path fill="#0D0D0D" d="M348.5,523.2L603.7,590l0.8-3.2L348.5,523.2"/>
		<path fill="#0D0D0D" d="M348.5,523.2L93.3,456.4l-0.8,3.2L348.5,523.2"/>
		<path fill="#0D0D0D" d="M348.5,523.2l256,63.7l0.8-3.2L348.5,523.2"/>
		<path fill="#0D0D0D" d="M348.5,523.2l-256-63.7l-0.8,3.2L348.5,523.2"/>
		<path fill="#0D0D0D" d="M348.5,523.2l256.7,60.5l0.7-3.2L348.5,523.2"/>
		<path fill="#0D0D0D" d="M348.5,523.2L91.8,462.7l-0.7,3.2L348.5,523.2"/>
		<path fill="#0C0C0C" d="M348.5,523.2l257.4,57.3l0.7-3.2L348.5,523.2"/>
		<path fill="#0E0E0E" d="M348.5,523.2L91,465.9l-0.7,3.2L348.5,523.2"/>
		<path fill="#0C0C0C" d="M348.5,523.2l258.1,54.1l0.6-3.2L348.5,523.2"/>
		<path fill="#0E0E0E" d="M348.5,523.2L90.3,469l-0.6,3.2L348.5,523.2"/>
		<path fill="#0C0C0C" d="M348.5,523.2l258.8,51l0.6-3.2L348.5,523.2"/>
		<path fill="#0E0E0E" d="M348.5,523.2l-258.8-51l-0.6,3.2L348.5,523.2"/>
		<path fill="#0C0C0C" d="M348.5,523.2L607.9,571l0.6-3.2L348.5,523.2"/>
		<path fill="#0E0E0E" d="M348.5,523.2L89.1,475.4l-0.6,3.2L348.5,523.2"/>
		<path fill="#0C0C0C" d="M348.5,523.2l260,44.6l0.5-3.2L348.5,523.2"/>
		<path fill="#0E0E0E" d="M348.5,523.2l-260-44.6l-0.5,3.2L348.5,523.2"/>
		<path fill="#0C0C0C" d="M348.5,523.2L609,564.6l0.5-3.2L348.5,523.2"/>
		<path fill="#0E0E0E" d="M348.5,523.2L88,481.8l-0.5,3.2L348.5,523.2"/>
		<path fill="#0C0C0C" d="M348.5,523.2l261,38.1l0.5-3.2L348.5,523.2"/>
		<path fill="#0E0E0E" d="M348.5,523.2L87.5,485l-0.4,3.2L348.5,523.2"/>
		<path fill="#0C0C0C" d="M348.5,523.2l261.4,34.9l0.4-3.2L348.5,523.2"/>
		<path fill="#0E0E0E" d="M348.5,523.2L87.1,488.2l-0.4,3.2L348.5,523.2"/>
		<path fill="#0C0C0C" d="M348.5,523.2l261.8,31.7l0.4-3.2L348.5,523.2"/>
		<path fill="#0E0E0E" d="M348.5,523.2L86.6,491.5l-0.4,3.2L348.5,523.2"/>
		<path fill="#0C0C0C" d="M348.5,523.2l262.2,28.5l0.3-3.2L348.5,523.2"/>
		<path fill="#0E0E0E" d="M348.5,523.2L86.3,494.7l-0.3,3.2L348.5,523.2"/>
		<path fill="#0B0B0B" d="M348.5,523.2L611,548.5l0.3-3.2L348.5,523.2"/>
		<path fill="#0F0F0F" d="M348.5,523.2L85.9,497.9l-0.3,3.2L348.5,523.2"/>
		<path fill="#0B0B0B" d="M348.5,523.2l262.8,22l0.2-3.3L348.5,523.2"/>
		<path fill="#0F0F0F" d="M348.5,523.2l-262.8-22l-0.3,3.3L348.5,523.2"/>
		<path fill="#0B0B0B" d="M348.5,523.2L611.6,542l0.2-3.3L348.5,523.2"/>
		<path fill="#0F0F0F" d="M348.5,523.2L85.4,504.4l-0.2,3.2L348.5,523.2"/>
		<path fill="#0B0B0B" d="M348.5,523.2l263.3,15.5l0.2-3.2L348.5,523.2"/>
		<path fill="#0F0F0F" d="M348.5,523.2L85.2,507.6l-0.2,3.3L348.5,523.2"/>
		<path fill="#0B0B0B" d="M348.5,523.2L612,535.5l0.1-3.3L348.5,523.2"/>
		<path fill="#0F0F0F" d="M348.5,523.2L85,510.9l-0.1,3.3L348.5,523.2"/>
		<path fill="#0B0B0B" d="M348.5,523.2l263.6,9l0.1-3.3L348.5,523.2"/>
		<path fill="#0F0F0F" d="M348.5,523.2l-263.6-9l-0.1,3.3L348.5,523.2"/>
		<path fill="#0B0B0B" d="M348.5,523.2l263.7,5.8l0.1-3.3L348.5,523.2"/>
		<path fill="#0F0F0F" d="M348.5,523.2l-263.7-5.8l0,3.3L348.5,523.2"/>
		<path fill="#0B0B0B" d="M348.5,523.2l263.8,2.5v-3.2L348.5,523.2"/>
		<path fill="#0F0F0F" d="M348.5,523.2l-263.8-2.5l0,3.2L348.5,523.2"/>
		<path fill="#0B0B0B" d="M348.5,523.2l263.8-0.7l0-3.3L348.5,523.2"/>
		<path fill="#0F0F0F" d="M348.5,523.2l-263.8,0.7l0,3.3L348.5,523.2"/>
		<path fill="#0B0B0B" d="M348.5,523.2l263.7-3.9l-0.1-3.3L348.5,523.2"/>
		<path fill="#0F0F0F" d="M348.5,523.2l-263.8,3.9l0.1,3.3L348.5,523.2"/>
		<path fill="#0A0A0A" d="M348.5,523.2l263.7-7.2l-0.1-3.3L348.5,523.2"/>
		<path fill="#101010" d="M348.5,523.2l-263.7,7.2l0.1,3.3L348.5,523.2"/>
		<path fill="#0A0A0A" d="M348.5,523.2l263.6-10.4l-0.1-3.3L348.5,523.2"/>
		<path fill="#101010" d="M348.5,523.2L84.9,533.6l0.1,3.3L348.5,523.2"/>
		<path fill="#0A0A0A" d="M348.5,523.2l263.4-13.7l-0.2-3.2L348.5,523.2"/>
		<path fill="#101010" d="M348.5,523.2L85.1,536.9l0.2,3.2L348.5,523.2"/>
		<path fill="#0A0A0A" d="M348.5,523.2l263.2-16.9l-0.2-3.3L348.5,523.2"/>
		<path fill="#101010" d="M348.5,523.2L85.3,540.1l0.2,3.3L348.5,523.2"/>
		<path fill="#0A0A0A" d="M348.5,523.2l263-20.2l-0.3-3.2L348.5,523.2"/>
		<path fill="#101010" d="M348.5,523.2l-263,20.2l0.3,3.2L348.5,523.2"/>
		<path fill="#0A0A0A" d="M348.5,523.2l262.7-23.4l-0.3-3.3L348.5,523.2"/>
		<path fill="#101010" d="M348.5,523.2L85.8,546.6l0.3,3.2L348.5,523.2"/>
		<path fill="#0A0A0A" d="M348.5,523.2l262.4-26.7l-0.3-3.2L348.5,523.2"/>
		<path fill="#101010" d="M348.5,523.2L86.1,549.8l0.3,3.3L348.5,523.2"/>
		<path fill="#0A0A0A" d="M348.5,523.2l262.1-29.9l-0.4-3.2L348.5,523.2"/>
		<path fill="#101010" d="M348.5,523.2L86.4,553.1l0.4,3.2L348.5,523.2"/>
		<path fill="#0A0A0A" d="M348.5,523.2l261.7-33.1l-0.4-3.2L348.5,523.2"/>
		<path fill="#101010" d="M348.5,523.2L86.8,556.3l0.4,3.2L348.5,523.2"/>
		<path fill="#090909" d="M348.5,523.2l261.2-36.3l-0.5-3.2L348.5,523.2"/>
		<path fill="#111111" d="M348.5,523.2L87.2,559.5l0.5,3.2L348.5,523.2"/>
		<path fill="#090909" d="M348.5,523.2l260.8-39.6l-0.5-3.2L348.5,523.2"/>
		<path fill="#111111" d="M348.5,523.2L87.7,562.7l0.5,3.2L348.5,523.2"/>
		<path fill="#090909" d="M348.5,523.2l260.3-42.8l-0.5-3.2L348.5,523.2"/>
		<path fill="#111111" d="M348.5,523.2L88.2,565.9l0.5,3.2L348.5,523.2"/>
		<path fill="#090909" d="M348.5,523.2l259.7-46l-0.6-3.2L348.5,523.2"/>
		<path fill="#111111" d="M348.5,523.2l-259.7,46l0.6,3.2L348.5,523.2"/>
		<path fill="#090909" d="M348.5,523.2L607.6,474l-0.6-3.2L348.5,523.2"/>
		<path fill="#111111" d="M348.5,523.2L89.4,572.4l0.6,3.2L348.5,523.2"/>
		<path fill="#090909" d="M348.5,523.2L607,470.9l-0.7-3.2L348.5,523.2"/>
		<path fill="#111111" d="M348.5,523.2L90,575.5l0.7,3.2L348.5,523.2"/>
		<path fill="#090909" d="M348.5,523.2l257.8-55.5l-0.7-3.2L348.5,523.2"/>
		<path fill="#111111" d="M348.5,523.2L90.6,578.7l0.7,3.2L348.5,523.2"/>
		<path fill="#090909" d="M348.5,523.2l257.2-58.7l-0.8-3.2L348.5,523.2"/>
		<path fill="#111111" d="M348.5,523.2L91.3,581.9l0.7,3.2L348.5,523.2"/>
		<path fill="#090909" d="M348.5,523.2l256.4-61.9l-0.8-3.2L348.5,523.2"/>
		<path fill="#111111" d="M348.5,523.2L92.1,585l0.8,3.2L348.5,523.2"/>
		<path fill="#090909" d="M348.5,523.2l255.6-65l-0.8-3.2L348.5,523.2"/>
		<path fill="#111111" d="M348.5,523.2l-255.6,65l0.8,3.2L348.5,523.2"/>
		<path fill="#080808" d="M348.5,523.2L603.3,455l-0.8-3.1L348.5,523.2"/>
		<path fill="#121212" d="M348.5,523.2L93.7,591.4l0.9,3.1L348.5,523.2"/>
		<path fill="#080808" d="M348.5,523.2l253.9-71.3l-0.9-3.1L348.5,523.2"/>
		<path fill="#121212" d="M348.5,523.2L94.6,594.5l0.9,3.1L348.5,523.2"/>
		<path fill="#080808" d="M348.5,523.2l253-74.4l-0.9-3.1L348.5,523.2"/>
		<path fill="#121212" d="M348.5,523.2L95.4,597.6l0.9,3.1L348.5,523.2"/>
		<path fill="#080808" d="M348.5,523.2l252.1-77.5l-1-3.1L348.5,523.2"/>
		<path fill="#121212" d="M348.5,523.2L96.4,600.7l1,3.1L348.5,523.2"/>
		<path fill="#080808" d="M348.5,523.2l251.1-80.6l-1-3.1L348.5,523.2"/>
		<path fill="#121212" d="M348.5,523.2L97.4,603.8l1,3.1L348.5,523.2"/>
		<path fill="#080808" d="M348.5,523.2l250.1-83.7l-1.1-3.1L348.5,523.2"/>
		<path fill="#121212" d="M348.5,523.2L98.4,606.9l1,3.1L348.5,523.2"/>
		<path fill="#080808" d="M348.5,523.2l249.1-86.8l-1.1-3.1L348.5,523.2"/>
		<path fill="#121212" d="M348.5,523.2L99.4,610l1.1,3.1L348.5,523.2"/>
		<path fill="#080808" d="M348.5,523.2l248-89.8l-1.1-3.1L348.5,523.2"/>
		<path fill="#121212" d="M348.5,523.2l-248,89.8l1.1,3.1L348.5,523.2"/>
		<path fill="#080808" d="M348.5,523.2l246.9-92.9l-1.2-3L348.5,523.2"/>
		<path fill="#121212" d="M348.5,523.2l-246.9,92.9l1.2,3L348.5,523.2"/>
		<path fill="#080808" d="M348.5,523.2l245.7-95.9l-1.2-3L348.5,523.2"/>
		<path fill="#121212" d="M348.5,523.2l-245.7,95.9l1.2,3L348.5,523.2"/>
		<path fill="#070707" d="M348.5,523.2l244.5-99l-1.2-3L348.5,523.2"/>
		<path fill="#131313" d="M348.5,523.2L104,622.1l1.2,3L348.5,523.2"/>
		<path fill="#070707" d="M348.5,523.2l243.3-102l-1.3-3L348.5,523.2"/>
		<path fill="#131313" d="M348.5,523.2L105.2,625.1l1.3,3L348.5,523.2"/>
		<path fill="#070707" d="M348.5,523.2l242-105l-1.3-3L348.5,523.2"/>
		<path fill="#131313" d="M348.5,523.2l-242,105l1.3,3L348.5,523.2"/>
		<path fill="#070707" d="M348.5,523.2l240.7-107.9l-1.4-3L348.5,523.2"/>
		<path fill="#131313" d="M348.5,523.2L107.8,631.1l1.4,3L348.5,523.2"/>
		<path fill="#070707" d="M348.5,523.2l239.3-110.9l-1.4-3L348.5,523.2"/>
		<path fill="#131313" d="M348.5,523.2L109.2,634.1l1.4,3L348.5,523.2"/>
		<path fill="#070707" d="M348.5,523.2l237.9-113.8l-1.4-2.9L348.5,523.2"/>
		<path fill="#131313" d="M348.5,523.2L110.5,637l1.4,2.9L348.5,523.2"/>
		<path fill="#070707" d="M348.5,523.2L585,406.5l-1.5-2.9L348.5,523.2"/>
		<path fill="#131313" d="M348.5,523.2L112,639.9l1.5,2.9L348.5,523.2"/>
		<path fill="#070707" d="M348.5,523.2l235-119.6l-1.5-2.9L348.5,523.2"/>
		<path fill="#131313" d="M348.5,523.2L113.4,642.8l1.5,2.9L348.5,523.2"/>
		<path fill="#070707" d="M348.5,523.2l233.6-122.5l-1.5-2.9L348.5,523.2"/>
		<path fill="#131313" d="M348.5,523.2L114.9,645.7l1.5,2.9L348.5,523.2"/>
		<path fill="#070707" d="M348.5,523.2l232-125.4l-1.6-2.8L348.5,523.2"/>
		<path fill="#131313" d="M348.5,523.2L116.4,648.6l1.6,2.8L348.5,523.2"/>
		<path fill="#060606" d="M348.5,523.2L579,394.9l-1.6-2.8L348.5,523.2"/>
		<path fill="#141414" d="M348.5,523.2L118,651.4l1.6,2.8L348.5,523.2"/>
		<path fill="#060606" d="M348.5,523.2l228.9-131.1l-1.7-2.8L348.5,523.2"/>
		<path fill="#141414" d="M348.5,523.2L119.6,654.3l1.6,2.8L348.5,523.2"/>
		<path fill="#060606" d="M348.5,523.2l227.2-133.9l-1.7-2.8L348.5,523.2"/>
		<path fill="#141414" d="M348.5,523.2L121.2,657.1l1.7,2.8L348.5,523.2"/>
		<path fill="#060606" d="M348.5,523.2l225.6-136.7l-1.7-2.8L348.5,523.2"/>
		<path fill="#141414" d="M348.5,523.2L122.9,659.9l1.7,2.8L348.5,523.2"/>
		<path fill="#060606" d="M348.5,523.2l223.9-139.5l-1.8-2.7L348.5,523.2"/>
		<path fill="#141414" d="M348.5,523.2L124.6,662.6l1.8,2.7L348.5,523.2"/>
		<path fill="#060606" d="M348.5,523.2L570.6,381l-1.8-2.7L348.5,523.2"/>
		<path fill="#141414" d="M348.5,523.2L126.3,665.4l1.8,2.7L348.5,523.2"/>
		<path fill="#060606" d="M348.5,523.2l220.4-144.9l-1.8-2.7L348.5,523.2"/>
		<path fill="#141414" d="M348.5,523.2L128.1,668.1l1.8,2.7L348.5,523.2"/>
		<path fill="#060606" d="M348.5,523.2l218.6-147.6l-1.8-2.7L348.5,523.2"/>
		<path fill="#141414" d="M348.5,523.2L129.9,670.8l1.8,2.7L348.5,523.2"/>
		<path fill="#060606" d="M348.5,523.2l216.7-150.3l-1.9-2.7L348.5,523.2"/>
		<path fill="#141414" d="M348.5,523.2L131.7,673.5l1.9,2.7L348.5,523.2"/>
		<path fill="#060606" d="M348.5,523.2l214.9-153l-1.9-2.6L348.5,523.2"/>
		<path fill="#141414" d="M348.5,523.2l-214.9,153l1.9,2.6L348.5,523.2"/>
		<path fill="#050505" d="M348.5,523.2l213-155.6l-1.9-2.6L348.5,523.2"/>
		<path fill="#151515" d="M348.5,523.2l-213,155.6l1.9,2.6L348.5,523.2"/>
		<path fill="#050505" d="M348.5,523.2l211-158.2l-2-2.6L348.5,523.2"/>
		<path fill="#151515" d="M348.5,523.2l-211,158.2l1.9,2.6L348.5,523.2"/>
		<path fill="#050505" d="M348.5,523.2l209.1-160.8l-2-2.6L348.5,523.2"/>
		<path fill="#151515" d="M348.5,523.2L139.4,684l2,2.6L348.5,523.2"/>
		<path fill="#050505" d="M348.5,523.2l207.1-163.4l-2-2.5L348.5,523.2"/>
		<path fill="#151515" d="M348.5,523.2L141.4,686.6l2,2.5L348.5,523.2"/>
		<path fill="#050505" d="M348.5,523.2l205.1-165.9l-2.1-2.5L348.5,523.2"/>
		<path fill="#151515" d="M348.5,523.2L143.4,689.1l2,2.5L348.5,523.2"/>
		<path fill="#050505" d="M348.5,523.2l203-168.4l-2.1-2.5L348.5,523.2"/>
		<path fill="#151515" d="M348.5,523.2l-203,168.4l2.1,2.5L348.5,523.2"/>
		<path fill="#050505" d="M348.5,523.2l200.9-170.9l-2.1-2.5L348.5,523.2"/>
		<path fill="#151515" d="M348.5,523.2L147.6,694.1l2.1,2.5L348.5,523.2"/>
		<path fill="#050505" d="M348.5,523.2l198.8-173.4l-2.1-2.4L348.5,523.2"/>
		<path fill="#151515" d="M348.5,523.2L149.7,696.6l2.1,2.4L348.5,523.2"/>
		<path fill="#050505" d="M348.5,523.2l196.6-175.8l-2.2-2.4L348.5,523.2"/>
		<path fill="#151515" d="M348.5,523.2L151.8,699l2.2,2.4L348.5,523.2"/>
		<path fill="#040404" d="M348.5,523.2L542.9,345l-2.2-2.4L348.5,523.2"/>
		<path fill="#161616" d="M348.5,523.2L154,701.4l2.2,2.4L348.5,523.2"/>
		<path fill="#040404" d="M348.5,523.2l192.2-180.6l-2.2-2.3L348.5,523.2"/>
		<path fill="#161616" d="M348.5,523.2L156.3,703.8l2.2,2.4L348.5,523.2"/>
		<path fill="#040404" d="M348.5,523.2l190-183l-2.3-2.3L348.5,523.2"/>
		<path fill="#161616" d="M348.5,523.2l-190,183l2.3,2.3L348.5,523.2"/>
		<path fill="#040404" d="M348.5,523.2l187.7-185.3l-2.3-2.3L348.5,523.2"/>
		<path fill="#161616" d="M348.5,523.2L160.8,708.5l2.3,2.3L348.5,523.2"/>
		<path fill="#040404" d="M348.5,523.2l185.4-187.6l-2.3-2.3L348.5,523.2"/>
		<path fill="#161616" d="M348.5,523.2L163.1,710.8l2.3,2.3L348.5,523.2"/>
		<path fill="#040404" d="M348.5,523.2l183.1-189.9l-2.3-2.2L348.5,523.2"/>
		<path fill="#161616" d="M348.5,523.2L165.4,713l2.4,2.2L348.5,523.2"/>
		<path fill="#040404" d="M348.5,523.2l180.8-192.1l-2.4-2.2L348.5,523.2"/>
		<path fill="#161616" d="M348.5,523.2L167.7,715.3l2.4,2.2L348.5,523.2"/>
		<path fill="#040404" d="M348.5,523.2l178.4-194.3l-2.4-2.2L348.5,523.2"/>
		<path fill="#161616" d="M348.5,523.2L170.1,717.5l2.4,2.2L348.5,523.2"/>
		<path fill="#040404" d="M348.5,523.2l176-196.5l-2.4-2.2L348.5,523.2"/>
		<path fill="#161616" d="M348.5,523.2l-176,196.5l2.4,2.1L348.5,523.2"/>
		<path fill="#040404" d="M348.5,523.2L522,324.5l-2.5-2.1L348.5,523.2"/>
		<path fill="#161616" d="M348.5,523.2L175,721.8l2.4,2.1L348.5,523.2"/>
		<path fill="#030303" d="M348.5,523.2l171.1-200.8l-2.5-2.1L348.5,523.2"/>
		<path fill="#171717" d="M348.5,523.2L177.4,724l2.5,2.1L348.5,523.2"/>
		<path fill="#030303" d="M348.5,523.2l168.6-202.9l-2.5-2L348.5,523.2"/>
		<path fill="#171717" d="M348.5,523.2L179.9,726.1l2.5,2L348.5,523.2"/>
		<path fill="#030303" d="M348.5,523.2l166.1-204.9l-2.5-2L348.5,523.2"/>
		<path fill="#171717" d="M348.5,523.2L182.4,728.1l2.5,2L348.5,523.2"/>
		<path fill="#030303" d="M348.5,523.2l163.5-207l-2.6-2L348.5,523.2"/>
		<path fill="#171717" d="M348.5,523.2l-163.6,207l2.6,2L348.5,523.2"/>
		<path fill="#030303" d="M348.5,523.2l161-208.9l-2.6-2L348.5,523.2"/>
		<path fill="#171717" d="M348.5,523.2l-161,208.9l2.6,2L348.5,523.2"/>
		<path fill="#030303" d="M348.5,523.2l158.4-210.9l-2.6-1.9L348.5,523.2"/>
		<path fill="#171717" d="M348.5,523.2L190.1,734.1l2.6,1.9L348.5,523.2"/>
		<path fill="#030303" d="M348.5,523.2l155.8-212.8l-2.6-1.9L348.5,523.2"/>
		<path fill="#171717" d="M348.5,523.2L192.7,736l2.6,1.9L348.5,523.2"/>
		<path fill="#030303" d="M348.5,523.2l153.1-214.7l-2.6-1.9L348.5,523.2"/>
		<path fill="#171717" d="M348.5,523.2L195.3,737.9l2.7,1.9L348.5,523.2"/>
		<path fill="#030303" d="M348.5,523.2L499,306.6l-2.7-1.8L348.5,523.2"/>
		<path fill="#171717" d="M348.5,523.2L198,739.8l2.7,1.8L348.5,523.2"/>
		<path fill="#030303" d="M348.5,523.2l147.8-218.5l-2.7-1.8L348.5,523.2"/>
		<path fill="#171717" d="M348.5,523.2L200.7,741.7l2.7,1.8L348.5,523.2"/>
		<path fill="#020202" d="M348.5,523.2l145.1-220.3l-2.7-1.8L348.5,523.2"/>
		<path fill="#181818" d="M348.5,523.2L203.4,743.5l2.7,1.8L348.5,523.2"/>
		<path fill="#020202" d="M348.5,523.2l142.4-222l-2.8-1.7L348.5,523.2"/>
		<path fill="#181818" d="M348.5,523.2l-142.4,222l2.7,1.7L348.5,523.2"/>
		<path fill="#020202" d="M348.5,523.2l139.6-223.8l-2.8-1.7L348.5,523.2"/>
		<path fill="#181818" d="M348.5,523.2L208.8,747l2.8,1.7L348.5,523.2"/>
		<path fill="#020202" d="M348.5,523.2l136.9-225.5l-2.8-1.7L348.5,523.2"/>
		<path fill="#181818" d="M348.5,523.2L211.6,748.7l2.8,1.7L348.5,523.2"/>
		<path fill="#020202" d="M348.5,523.2l134.1-227.1l-2.8-1.7L348.5,523.2"/>
		<path fill="#181818" d="M348.5,523.2L214.4,750.3l2.8,1.7L348.5,523.2"/>
		<path fill="#020202" d="M348.5,523.2l131.3-228.8l-2.8-1.6L348.5,523.2"/>
		<path fill="#181818" d="M348.5,523.2L217.2,752l2.8,1.6L348.5,523.2"/>
		<path fill="#020202" d="M348.5,523.2l128.4-230.4l-2.9-1.6L348.5,523.2"/>
		<path fill="#181818" d="M348.5,523.2L220,753.6l2.9,1.6L348.5,523.2"/>
		<path fill="#020202" d="M348.5,523.2l125.6-231.9l-2.9-1.5L348.5,523.2"/>
		<path fill="#181818" d="M348.5,523.2L222.9,755.1l2.9,1.5L348.5,523.2"/>
		<path fill="#020202" d="M348.5,523.2l122.7-233.5l-2.9-1.5L348.5,523.2"/>
		<path fill="#181818" d="M348.5,523.2L225.8,756.7l2.9,1.5L348.5,523.2"/>
		<path fill="#020202" d="M348.5,523.2l119.8-235l-2.9-1.5L348.5,523.2"/>
		<path fill="#181818" d="M348.5,523.2l-119.9,235l2.9,1.5L348.5,523.2"/>
		<path fill="#010101" d="M348.5,523.2l116.9-236.4l-2.9-1.4L348.5,523.2"/>
		<path fill="#191919" d="M348.5,523.2l-117,236.4l2.9,1.4L348.5,523.2"/>
		<path fill="#010101" d="M348.5,523.2l114-237.9l-3-1.4L348.5,523.2"/>
		<path fill="#191919" d="M348.5,523.2L234.5,761l2.9,1.4L348.5,523.2"/>
		<path fill="#010101" d="M348.5,523.2L459.6,284l-3-1.4L348.5,523.2"/>
		<path fill="#191919" d="M348.5,523.2L237.4,762.4l3,1.4L348.5,523.2"/>
		<path fill="#010101" d="M348.5,523.2l108.1-240.6l-3-1.3L348.5,523.2"/>
		<path fill="#191919" d="M348.5,523.2L240.4,763.8l3,1.3L348.5,523.2"/>
		<path fill="#010101" d="M348.5,523.2l105.2-241.9l-3-1.3L348.5,523.2"/>
		<path fill="#191919" d="M348.5,523.2L243.3,765.1l3,1.3L348.5,523.2"/>
		<path fill="#010101" d="M348.5,523.2L450.6,280l-3-1.2L348.5,523.2"/>
		<path fill="#191919" d="M348.5,523.2L246.3,766.4l3,1.2L348.5,523.2"/>
		<path fill="#010101" d="M348.5,523.2l99.2-244.4l-3-1.2L348.5,523.2"/>
		<path fill="#191919" d="M348.5,523.2l-99.2,244.4l3,1.2L348.5,523.2"/>
		<path fill="#010101" d="M348.5,523.2l96.1-245.6l-3-1.2L348.5,523.2"/>
		<path fill="#191919" d="M348.5,523.2l-96.2,245.6l3,1.2L348.5,523.2"/>
		<path fill="#010101" d="M348.5,523.2l93.1-246.8l-3.1-1.1L348.5,523.2"/>
		<path fill="#191919" d="M348.5,523.2L255.4,770l3.1,1.1L348.5,523.2"/>
		<path fill="#010101" d="M348.5,523.2l90-247.9l-3.1-1.1L348.5,523.2"/>
		<path fill="#191919" d="M348.5,523.2l-90.1,247.9l3.1,1.1L348.5,523.2"/>
		<path d="M348.5,523.2l87-249l-3.1-1.1L348.5,523.2"/>
		<path fill="#1A1A1A" d="M348.5,523.2l-87,249l3.1,1.1L348.5,523.2"/>
		<path d="M348.5,523.2l83.9-250.1l-3.1-1L348.5,523.2"/>
		<path fill="#1A1A1A" d="M348.5,523.2l-83.9,250.1l3.1,1L348.5,523.2"/>
		<path d="M348.5,523.2l80.8-251.1l-3.1-1L348.5,523.2"/>
		<path fill="#1A1A1A" d="M348.5,523.2l-80.9,251.1l3.1,1L348.5,523.2"/>
		<path d="M348.5,523.2l77.7-252l-3.1-0.9L348.5,523.2"/>
		<path fill="#1A1A1A" d="M348.5,523.2l-77.7,252.1l3.1,0.9L348.5,523.2"/>
	</mask>
	<polygon mask="url(#id6)" fill="#336699" points="122,388.1 575,388.1 575,658.3 122,658.3 	"/>
	<polygon fill="#FFFFFF" points="576.4,386.7 576.4,659.7 120.6,659.7 122.9,658.3 575,658.3 575,388.1 574.1,388.1 	"/>
	<path fill="#B2B2B2" d="M53.6,672.7h595.3l0,0c0,13.2-10.8,24.1-24.1,24.1H77.7C64.5,696.8,53.6,685.9,53.6,672.7L53.6,672.7z"/>
	<path fill="#CCCCCC" d="M54,673c0.2,12.9,10.8,23.4,23.7,23.4h547.2c12.9,0,23.6-10.5,23.7-23.4L54,673L54,673z"/>
	
		<linearGradient id="SVGID_1_" gradientUnits="userSpaceOnUse" x1="396" y1="349.144" x2="396" y2="366.69" gradientTransform="matrix(0.8694 0 0 -0.8694 7.0066 1000.2846)">
		<stop  offset="0" style="stop-color:#666666"/>
		<stop  offset="1" style="stop-color:#666666;stop-opacity:0.25"/>
	</linearGradient>
	<path opacity="0.74" fill="url(#SVGID_1_)" enable-background="new    " d="M647.2,681.5c-3.5,8.9-12.2,15.3-22.4,15.3H77.7
		c-10.1,0-18.9-6.4-22.4-15.3H647.2z"/>
</g>
<g id="Brillos" display="none">
	<defs>
		<filter id="Adobe_OpacityMaskFilter_1_" filterUnits="userSpaceOnUse" x="97.1" y="363.1" width="502.8" height="320.1">
			<feColorMatrix  type="matrix" values="1 0 0 0 0  0 1 0 0 0  0 0 1 0 0  0 0 0 1 0"/>
		</filter>
	</defs>
	<mask maskUnits="userSpaceOnUse" x="97.1" y="363.1" width="502.8" height="320.1" id="id3_1_" display="inline">
		
			<linearGradient id="SVGID_2_" gradientUnits="userSpaceOnUse" x1="26711.9238" y1="16059.7461" x2="8272.7646" y2="5037.4541" gradientTransform="matrix(2.460277e-002 0 0 2.460277e-002 -83.3776 262.7515)">
			<stop  offset="0" style="stop-color:#FFFFFF;stop-opacity:0.302"/>
			<stop  offset="0.6392" style="stop-color:#FFFFFF;stop-opacity:0.851"/>
			<stop  offset="1" style="stop-color:#FFFFFF;stop-opacity:0"/>
		</linearGradient>
		<rect x="96.8" y="362.9" fill="url(#SVGID_2_)" filter="url(#Adobe_OpacityMaskFilter_1_)" width="503.3" height="320.5"/>
	</mask>
	
		<linearGradient id="SVGID_3_" gradientUnits="userSpaceOnUse" x1="103.592" y1="548.802" x2="682.002" y2="548.802" gradientTransform="matrix(0.8694 0 0 -0.8694 7.0066 1000.2846)">
		<stop  offset="0" style="stop-color:#FFFFFF"/>
		<stop  offset="1" style="stop-color:#000000"/>
	</linearGradient>
	<path display="inline" mask="url(#id3_1_)" fill="url(#SVGID_3_)" d="M582.9,683.2H114.1c-9.4,0-17.1-7.7-17.1-17.1v-286
		c0-9.4,7.7-17.1,17.1-17.1h468.7c9.4,0,17.1,7.7,17.1,17.1v286C599.9,675.5,592.2,683.2,582.9,683.2z"/>
	<defs>
		<filter id="Adobe_OpacityMaskFilter_2_" filterUnits="userSpaceOnUse" x="54" y="673" width="594.6" height="23.4">
			<feColorMatrix  type="matrix" values="1 0 0 0 0  0 1 0 0 0  0 0 1 0 0  0 0 0 1 0"/>
		</filter>
	</defs>
	<mask maskUnits="userSpaceOnUse" x="54" y="673" width="594.6" height="23.4" id="id7" display="inline">
		
			<linearGradient id="SVGID_4_" gradientUnits="userSpaceOnUse" x1="26708.0137" y1="22216.2949" x2="5352.0537" y2="10253.3037" gradientTransform="matrix(2.460277e-002 0 0 2.460277e-002 -83.3776 262.7515)">
			<stop  offset="0" style="stop-color:#FFFFFF;stop-opacity:0.502"/>
			<stop  offset="1" style="stop-color:#FFFFFF;stop-opacity:0"/>
		</linearGradient>
		<rect x="53.7" y="672.8" fill="url(#SVGID_4_)" filter="url(#Adobe_OpacityMaskFilter_2_)" width="595.1" height="23.9"/>
	</mask>
	<path display="inline" mask="url(#id7)" fill="#E5E5E5" d="M54,673c0.2,12.9,10.8,23.4,23.7,23.4h547.2c12.9,0,23.6-10.5,23.7-23.4
		L54,673L54,673z"/>
</g>
<g id="Software">
	<path fill="#F5F5F5" d="M120.6,386.7h455.8v273H120.6V386.7z M122,388.1h453v270.2H122V388.1z"/>
	<rect x="120.6" y="386.7" fill="#4CAF50" width="455.8" height="43.4"/>
	<rect x="219.4" y="443.4" fill="#E0E0E0" width="338.4" height="216.3"/>
	<rect x="133.1" y="398.5" opacity="0.2" enable-background="new    " width="137.4" height="19.7"/>
	<rect x="222.3" y="446.3" fill="#FFFFFF" width="332" height="213.4"/>
	<rect x="231.3" y="456.7" opacity="0.2" enable-background="new    " width="137.4" height="19.7"/>
	<rect x="231.3" y="484" opacity="0.2" enable-background="new    " width="310.1" height="12.2"/>
	<polygon fill="#F5F5F5" points="541.4,639.3 231.3,639.3 231.3,575.6 231.3,502.5 541.4,502.5 	"/>
	<polyline fill="none" stroke="#F44336" stroke-width="3" stroke-miterlimit="10" points="231.3,624.8 309.3,553.3 348.5,585.8 
		384,532.2 440.8,575 474.4,525 526,502.5 	"/>
	<rect x="126.4" y="443.4" fill="#A5D6A7" width="86.6" height="22.2"/>
	<rect x="126.4" y="476.4" fill="#A5D6A7" width="86.6" height="22.2"/>
	<rect x="126.4" y="506.8" fill="#A5D6A7" width="86.6" height="22.2"/>
	<rect x="126.4" y="539.8" fill="#A5D6A7" width="86.6" height="22.2"/>
	<path opacity="0.4" fill="#FFFFFF" enable-background="new    " d="M360,383h-22.9c-2.8,0-5.1-2.3-5.1-5.1l0,0
		c0-2.8,2.3-5.1,5.1-5.1H360c2.8,0,5.1,2.3,5.1,5.1l0,0C365,380.7,362.8,383,360,383z"/>
	<circle cx="359.7" cy="377.9" r="4.2"/>
</g>
<g id="Brillo1">
	<path opacity="0.15" fill="#FFFFFF" enable-background="new    " d="M362.6,363.2h220.3c9.4,0,17.1,7.6,17.1,17.1v190.7"/>
</g>
</svg>
