<?xml version="1.0" encoding="utf-8"?>
<!-- Generator: Adobe Illustrator 18.0.0, SVG Export Plug-In . SVG Version: 6.00 Build 0)  -->
<!DOCTYPE svg PUBLIC "-//W3C//DTD SVG 1.1//EN" "http://www.w3.org/Graphics/SVG/1.1/DTD/svg11.dtd">
<svg version="1.1" id="Capa_1" xmlns="http://www.w3.org/2000/svg" xmlns:xlink="http://www.w3.org/1999/xlink" x="0px" y="0px"
	 width="595.3px" height="333.8px" viewBox="34 23 595.3 333.8" enable-background="new 34 23 595.3 333.8" xml:space="preserve">
<rect x="199.8" y="101.4" fill="#E0E0E0" width="338.4" height="216.3"/>
<rect x="202.7" y="104.3" fill="#FFFFFF" width="332" height="213.4"/>
<g>
	<path d="M230.6,129.8h-5.2v4.8h5.8v1.5h-7.5v-13.3h7.2v1.5h-5.5v4.2h5.2L230.6,129.8L230.6,129.8z"/>
	<path d="M233.1,134.3c0.5,0.3,1.4,0.7,2.3,0.7c1.3,0,1.9-0.7,1.9-1.4c0-0.8-0.5-1.3-1.8-1.8c-1.7-0.7-2.5-1.5-2.5-2.7
		c0-1.5,1.2-2.8,3.3-2.8c1,0,1.8,0.2,2.4,0.6l-0.4,1.3c-0.4-0.2-1.1-0.6-2-0.6c-1.1,0-1.6,0.6-1.6,1.3c0,0.8,0.6,1.1,1.8,1.6
		c1.6,0.7,2.5,1.5,2.5,2.8c0,1.7-1.3,2.8-3.6,2.8c-1.1,0-2-0.2-2.7-0.7L233.1,134.3z"/>
	<path d="M243.3,123.8v2.8h2.5v1.3h-2.5v5.1c0,1.2,0.3,1.9,1.3,1.9c0.5,0,0.8-0.1,1-0.1l0.1,1.3c-0.3,0.2-0.9,0.2-1.5,0.2
		c-0.8,0-1.5-0.2-1.9-0.7c-0.5-0.5-0.7-1.4-0.7-2.5v-5.2h-1.5v-1.3h1.5v-2.3L243.3,123.8z"/>
	<path d="M253.1,136.1l-0.2-1.2h-0.1c-0.6,0.7-1.5,1.4-2.9,1.4c-2,0-2.9-1.4-2.9-2.8c0-2.3,2-3.6,5.8-3.6v-0.2
		c0-0.8-0.2-2.2-2.2-2.2c-0.9,0-1.8,0.2-2.5,0.7l-0.4-1.1c0.8-0.5,2-0.8,3.2-0.8c2.9,0,3.7,2,3.7,3.9v3.6c0,0.8,0,1.6,0.2,2.3
		C254.6,136.1,253.1,136.1,253.1,136.1z M252.8,131.2c-1.9,0-4.1,0.3-4.1,2.1c0,1.1,0.7,1.6,1.6,1.6c1.2,0,2-0.8,2.3-1.6
		c0.1-0.2,0.1-0.4,0.1-0.6L252.8,131.2L252.8,131.2z"/>
	<path d="M265.5,122.1v11.6c0,0.8,0,1.8,0.1,2.4h-1.5l-0.1-1.6l0,0c-0.6,1.1-1.7,1.9-3.3,1.9c-2.3,0-4.1-2-4.1-4.9
		c0-3.2,2-5.1,4.3-5.1c1.5,0,2.4,0.7,2.8,1.5l0,0v-5.7H265.5z M263.8,130.4c0-0.2,0-0.5-0.1-0.7c-0.2-1.1-1.2-2-2.5-2
		c-1.8,0-2.8,1.5-2.8,3.7c0,2,1,3.5,2.8,3.5c1.1,0,2.2-0.7,2.5-2c0.1-0.2,0.1-0.5,0.1-0.7V130.4z"/>
	<path d="M270.3,123.9c0,0.6-0.4,1.1-1.1,1.1c-0.7,0-1.1-0.5-1.1-1.1c0-0.7,0.5-1.1,1.1-1.1C269.9,122.8,270.3,123.2,270.3,123.9z
		 M268.5,136.1v-9.6h1.7v9.6H268.5z"/>
	<path d="M272.8,134.3c0.5,0.3,1.4,0.7,2.3,0.7c1.3,0,1.9-0.7,1.9-1.4c0-0.8-0.5-1.3-1.8-1.8c-1.7-0.7-2.5-1.5-2.5-2.7
		c0-1.5,1.2-2.8,3.3-2.8c1,0,1.8,0.2,2.4,0.6l-0.4,1.3c-0.4-0.2-1.1-0.6-2-0.6c-1.1,0-1.6,0.6-1.6,1.3c0,0.8,0.6,1.1,1.8,1.6
		c1.6,0.7,2.5,1.5,2.5,2.8c0,1.7-1.3,2.8-3.6,2.8c-1.1,0-2-0.2-2.7-0.7L272.8,134.3z"/>
	<path d="M282.9,123.8v2.8h2.5v1.3h-2.5v5.1c0,1.2,0.3,1.9,1.3,1.9c0.5,0,0.8-0.1,1-0.1l0.1,1.3c-0.3,0.2-0.9,0.2-1.5,0.2
		c-0.8,0-1.5-0.2-1.9-0.7c-0.5-0.5-0.7-1.4-0.7-2.5v-5.2h-1.5v-1.3h1.5v-2.3L282.9,123.8z"/>
	<path d="M289.4,123.9c0,0.6-0.4,1.1-1.1,1.1c-0.7,0-1.1-0.5-1.1-1.1c0-0.7,0.5-1.1,1.1-1.1C289,122.8,289.4,123.2,289.4,123.9z
		 M287.4,136.1v-9.6h1.7v9.6H287.4z"/>
	<path d="M298.8,135.8c-0.5,0.2-1.5,0.6-2.8,0.6c-2.8,0-4.8-2-4.8-4.9c0-2.9,2-5,5.1-5c1.1,0,2,0.2,2.4,0.5l-0.4,1.4
		c-0.4-0.2-1.1-0.5-2-0.5c-2.2,0-3.4,1.6-3.4,3.6c0,2.2,1.4,3.6,3.3,3.6c1,0,1.6-0.2,2.1-0.5L298.8,135.8z"/>
	<path d="M306.1,136.1l-0.2-1.2h-0.1c-0.6,0.7-1.5,1.4-2.9,1.4c-2,0-2.9-1.4-2.9-2.8c0-2.3,2-3.6,5.8-3.6v-0.2
		c0-0.8-0.2-2.2-2.2-2.2c-0.9,0-1.8,0.2-2.5,0.7l-0.4-1.1c0.8-0.5,2-0.8,3.2-0.8c2.9,0,3.7,2,3.7,3.9v3.6c0,0.8,0,1.6,0.2,2.3
		C307.7,136.1,306.1,136.1,306.1,136.1z M305.9,131.2c-1.9,0-4.1,0.3-4.1,2.1c0,1.1,0.7,1.6,1.6,1.6c1.2,0,2-0.8,2.3-1.6
		c0.1-0.2,0.1-0.4,0.1-0.6L305.9,131.2L305.9,131.2z"/>
	<path d="M310.2,134.3c0.5,0.3,1.4,0.7,2.3,0.7c1.3,0,1.9-0.7,1.9-1.4c0-0.8-0.5-1.3-1.8-1.8c-1.7-0.7-2.5-1.5-2.5-2.7
		c0-1.5,1.2-2.8,3.3-2.8c1,0,1.8,0.2,2.4,0.6l-0.4,1.3c-0.4-0.2-1.1-0.6-2-0.6c-1.1,0-1.6,0.6-1.6,1.3c0,0.8,0.6,1.1,1.8,1.6
		c1.6,0.7,2.5,1.5,2.5,2.8c0,1.7-1.3,2.8-3.6,2.8c-1.1,0-2-0.2-2.7-0.7L310.2,134.3z"/>
	<path d="M317.9,128.1c0-0.7,0.5-1.2,1.2-1.2c0.7,0,1.1,0.5,1.1,1.2c0,0.7-0.5,1.2-1.2,1.2C318.3,129.3,317.9,128.8,317.9,128.1z
		 M317.9,135.1c0-0.7,0.5-1.2,1.2-1.2c0.7,0,1.1,0.5,1.1,1.2c0,0.7-0.5,1.2-1.2,1.2C318.3,136.3,317.9,135.8,317.9,135.1z"/>
</g>
<g>
	<g>
		<path d="M342.3,172l-2.5-7.6h1.1l1.2,3.8c0.3,1.1,0.7,2,0.8,2.8l0,0c0.2-0.9,0.6-1.9,0.9-2.8l1.3-3.8h1.1l-2.8,7.6H342.3z"/>
		<path d="M349.7,172l-0.1-0.7l0,0c-0.3,0.4-0.9,0.8-1.7,0.8c-1.1,0-1.7-0.8-1.7-1.5c0-1.3,1.2-2,3.3-2v-0.1c0-0.5-0.2-1.3-1.2-1.3
			c-0.5,0-1.1,0.2-1.5,0.4l-0.2-0.7c0.5-0.3,1.1-0.5,1.8-0.5c1.7,0,2.1,1.1,2.1,2.3v2c0,0.5,0,1,0.1,1.3H349.7z M349.5,169.2
			c-1.1,0-2.4,0.2-2.4,1.2c0,0.7,0.4,1,1,1c0.7,0,1.1-0.5,1.3-0.9c0-0.1,0.1-0.2,0.1-0.3L349.5,169.2L349.5,169.2z"/>
		<path d="M352.1,163.9h1v8.1h-1V163.9z"/>
		<path d="M359.8,169.2c0,2-1.4,2.9-2.8,2.9c-1.5,0-2.7-1.1-2.7-2.8c0-1.9,1.2-2.9,2.8-2.9S359.8,167.5,359.8,169.2z M355.4,169.3
			c0,1.2,0.7,2.1,1.7,2.1s1.7-0.9,1.7-2.1c0-0.9-0.5-2.1-1.6-2.1C355.9,167.1,355.4,168.2,355.4,169.3z"/>
		<path d="M361.1,168.2c0-0.7,0-1.2-0.1-1.7h0.9v1.1h0.1c0.2-0.7,0.9-1.2,1.5-1.2c0.1,0,0.2,0,0.2,0v1c-0.1,0-0.2,0-0.3,0
			c-0.7,0-1.2,0.6-1.4,1.3c0,0.2-0.1,0.3-0.1,0.5v2.9h-1L361.1,168.2L361.1,168.2z"/>
	</g>
	<g>
		<path d="M324.4,269.1c0.5-0.1,1.1-0.2,1.9-0.2c1,0,1.7,0.2,2.1,0.7c0.4,0.3,0.7,0.9,0.7,1.6c0,0.7-0.2,1.2-0.6,1.6
			c-0.5,0.6-1.4,0.8-2.4,0.8c-0.3,0-0.6,0-0.8-0.1v3.1h-1L324.4,269.1L324.4,269.1z M325.3,272.8c0.2,0.1,0.5,0.1,0.8,0.1
			c1.2,0,2-0.6,2-1.6c0-1-0.7-1.5-1.8-1.5c-0.4,0-0.7,0-0.9,0.1L325.3,272.8L325.3,272.8z"/>
		<path d="M330.6,274.1c0,1.4,0.9,2,1.9,2c0.7,0,1.1-0.2,1.5-0.2l0.2,0.7c-0.3,0.2-1,0.3-1.9,0.3c-1.7,0-2.7-1.1-2.7-2.8s1-3,2.6-3
			c1.8,0,2.3,1.5,2.3,2.6c0,0.2,0,0.3,0,0.5L330.6,274.1L330.6,274.1z M333.6,273.4c0-0.7-0.2-1.6-1.4-1.6c-1,0-1.5,0.9-1.5,1.6
			H333.6z"/>
		<path d="M335.8,272.9c0-0.7,0-1.2-0.1-1.7h0.9v1.1h0.1c0.2-0.7,0.9-1.2,1.5-1.2c0.1,0,0.2,0,0.3,0v1c-0.1,0-0.2,0-0.3,0
			c-0.7,0-1.2,0.6-1.4,1.3c0,0.2-0.1,0.3-0.1,0.5v2.9h-1L335.8,272.9L335.8,272.9z"/>
		<path d="M339.4,275.6c0.3,0.2,0.8,0.4,1.3,0.4c0.7,0,1.1-0.3,1.1-0.8s-0.3-0.7-1.1-1c-1-0.3-1.5-0.9-1.5-1.5
			c0-0.9,0.7-1.6,1.9-1.6c0.6,0,1.1,0.2,1.4,0.3l-0.2,0.7c-0.2-0.2-0.7-0.3-1.1-0.3c-0.6,0-0.9,0.3-0.9,0.7c0,0.5,0.3,0.7,1.1,0.9
			c1,0.3,1.5,0.8,1.5,1.6c0,1-0.7,1.6-2,1.6c-0.6,0-1.1-0.2-1.5-0.4L339.4,275.6z"/>
		<path d="M349,273.9c0,2-1.4,2.9-2.8,2.9c-1.5,0-2.7-1.1-2.7-2.8c0-1.9,1.2-2.9,2.8-2.9C348,271.1,349,272.2,349,273.9z
			 M344.6,273.9c0,1.2,0.7,2.1,1.7,2.1s1.7-0.9,1.7-2.1c0-0.9-0.5-2.1-1.6-2.1C345.2,271.8,344.6,272.9,344.6,273.9z"/>
		<path d="M350.3,272.7c0-0.6,0-1.1-0.1-1.5h0.9l0.1,0.9l0,0c0.2-0.5,0.9-1.1,1.8-1.1c0.7,0,2,0.5,2,2.4v3.3h-1v-3.2
			c0-0.9-0.3-1.6-1.3-1.6c-0.7,0-1.1,0.5-1.4,1.1c-0.1,0.2-0.1,0.3-0.1,0.5v3.3h-1L350.3,272.7L350.3,272.7z"/>
		<path d="M359.7,276.7l-0.1-0.7l0,0c-0.3,0.4-0.9,0.8-1.7,0.8c-1.1,0-1.7-0.8-1.7-1.5c0-1.3,1.2-2,3.3-2v-0.1
			c0-0.5-0.2-1.3-1.2-1.3c-0.5,0-1.1,0.2-1.5,0.4l-0.2-0.7c0.5-0.3,1.1-0.5,1.8-0.5c1.7,0,2.1,1.1,2.1,2.3v2c0,0.5,0,1,0.1,1.3
			H359.7z M359.5,273.9c-1.1,0-2.4,0.2-2.4,1.2c0,0.7,0.4,1,1,1c0.7,0,1.1-0.5,1.3-0.9c0-0.1,0.1-0.2,0.1-0.3L359.5,273.9
			L359.5,273.9z"/>
		<path d="M362.1,268.6h1v8.1h-1V268.6z"/>
	</g>
	<g>
		<path d="M314.7,217.5h-2.4v-0.8h5.7v0.8h-2.4v6.8h-1V217.5z"/>
		<path d="M318.6,221.8c0,1.4,0.9,2,1.9,2c0.7,0,1.1-0.2,1.5-0.3l0.2,0.7c-0.3,0.2-1,0.3-1.9,0.3c-1.7,0-2.7-1.1-2.7-2.8
			c0-1.6,1-3,2.6-3c1.8,0,2.3,1.5,2.3,2.6c0,0.2,0,0.3,0,0.5H318.6z M321.5,221c0-0.7-0.2-1.6-1.4-1.6c-1,0-1.5,0.9-1.5,1.6H321.5z"
			/>
		<path d="M327.6,224.1c-0.2,0.2-0.8,0.3-1.5,0.3c-1.6,0-2.8-1.1-2.8-2.8c0-1.7,1.1-2.9,2.9-2.9c0.6,0,1.1,0.2,1.4,0.3l-0.2,0.8
			c-0.2-0.2-0.7-0.2-1.1-0.2c-1.3,0-2,0.9-2,2.1c0,1.3,0.8,2,2,2c0.6,0,1-0.2,1.2-0.2L327.6,224.1z"/>
		<path d="M328.8,220.3c0-0.6,0-1.1-0.1-1.5h0.9l0.1,0.9l0,0c0.2-0.5,0.9-1.1,1.8-1.1c0.7,0,2,0.5,2,2.4v3.3h-1v-3.1
			c0-0.9-0.3-1.6-1.3-1.6c-0.7,0-1.1,0.5-1.4,1.1c-0.1,0.2-0.1,0.3-0.1,0.5v3.3h-0.9V220.3z"/>
		<path d="M340.1,221.5c0,2-1.4,2.9-2.8,2.9c-1.5,0-2.7-1.1-2.7-2.8c0-1.9,1.2-2.9,2.8-2.9C339.1,218.7,340.1,219.9,340.1,221.5z
			 M335.8,221.6c0,1.2,0.7,2.1,1.7,2.1s1.7-0.9,1.7-2.1c0-0.9-0.5-2.1-1.6-2.1C336.2,219.5,335.8,220.6,335.8,221.6z"/>
		<path d="M341.4,216.2h1v8.1h-1V216.2z"/>
		<path d="M349.1,221.5c0,2-1.4,2.9-2.8,2.9c-1.5,0-2.7-1.1-2.7-2.8c0-1.9,1.2-2.9,2.8-2.9C348,218.7,349.1,219.9,349.1,221.5z
			 M344.7,221.6c0,1.2,0.7,2.1,1.7,2.1c1,0,1.7-0.9,1.7-2.1c0-0.9-0.5-2.1-1.6-2.1C345.2,219.5,344.7,220.6,344.7,221.6z"/>
		<path d="M355.1,218.8c0,0.4-0.1,0.8-0.1,1.5v3.2c0,1.3-0.2,2-0.8,2.5c-0.6,0.5-1.3,0.7-2,0.7c-0.7,0-1.4-0.2-1.9-0.5l0.2-0.7
			c0.3,0.2,0.9,0.4,1.6,0.4c1.1,0,1.8-0.6,1.8-2v-0.7l0,0c-0.3,0.5-0.9,0.9-1.8,0.9c-1.4,0-2.4-1.1-2.4-2.7c0-1.9,1.2-2.9,2.5-2.9
			c1,0,1.5,0.5,1.7,1l0,0l0.1-0.8L355.1,218.8L355.1,218.8z M354.1,221c0-0.2,0-0.3-0.1-0.5c-0.2-0.6-0.7-1.1-1.4-1.1
			c-1,0-1.6,0.8-1.6,2.1c0,1.1,0.6,2,1.6,2c0.7,0,1.1-0.4,1.4-1.1c0.1-0.2,0.1-0.3,0.1-0.6V221z"/>
		<path d="M357.7,217.3c0,0.3-0.2,0.7-0.7,0.7c-0.3,0-0.6-0.2-0.6-0.7c0-0.3,0.2-0.7,0.7-0.7C357.5,216.7,357.7,217,357.7,217.3z
			 M356.7,224.4v-5.5h1v5.5H356.7z"/>
		<path d="M362.4,224.4l-0.1-0.7l0,0c-0.3,0.4-0.9,0.8-1.7,0.8c-1.1,0-1.7-0.8-1.7-1.5c0-1.3,1.2-2,3.3-2v-0.1
			c0-0.5-0.2-1.3-1.2-1.3c-0.5,0-1.1,0.2-1.5,0.4l-0.2-0.7c0.5-0.3,1.1-0.5,1.8-0.5c1.7,0,2.1,1.1,2.1,2.3v2c0,0.5,0,1,0.1,1.3
			H362.4z M362.2,221.5c-1.1,0-2.4,0.2-2.4,1.2c0,0.7,0.4,1,1,1c0.7,0,1.1-0.5,1.3-0.9c0-0.1,0.1-0.2,0.1-0.3L362.2,221.5
			L362.2,221.5z"/>
	</g>
	<g>
		<path d="M317.7,198.2l-2.5-7.6h1.1l1.2,3.8c0.3,1.1,0.7,2,0.8,2.8l0,0c0.2-0.9,0.6-1.9,0.9-2.8l1.3-3.8h1.1l-2.8,7.6H317.7z"/>
		<path d="M323.2,191.1c0,0.3-0.2,0.7-0.7,0.7c-0.3,0-0.6-0.2-0.6-0.7c0-0.3,0.2-0.7,0.7-0.7C323,190.5,323.2,190.8,323.2,191.1z
			 M322.1,198.2v-5.5h1v5.5H322.1z"/>
		<path d="M324.6,197.1c0.3,0.2,0.8,0.4,1.3,0.4c0.7,0,1.1-0.3,1.1-0.8s-0.3-0.7-1.1-1c-1-0.3-1.5-0.9-1.5-1.5
			c0-0.9,0.7-1.6,1.9-1.6c0.6,0,1.1,0.2,1.4,0.3l-0.2,0.7c-0.2-0.2-0.7-0.3-1.1-0.3c-0.6,0-0.9,0.3-0.9,0.7c0,0.5,0.3,0.7,1.1,0.9
			c1,0.3,1.5,0.8,1.5,1.6c0,1-0.7,1.6-2,1.6c-0.6,0-1.1-0.2-1.5-0.4L324.6,197.1z"/>
		<path d="M330.4,191.1c0,0.3-0.2,0.7-0.7,0.7c-0.3,0-0.6-0.2-0.6-0.7c0-0.3,0.2-0.7,0.7-0.7C330.1,190.5,330.4,190.8,330.4,191.1z
			 M329.3,198.2v-5.5h1v5.5H329.3z"/>
		<path d="M331.9,198.2c0-0.4,0.1-0.9,0.1-1.5V190h1v3.5l0,0c0.3-0.7,1-1,1.9-1c1.4,0,2.4,1.1,2.4,2.8c0,2-1.2,2.9-2.4,2.9
			c-0.8,0-1.5-0.3-1.9-1.1l0,0l-0.1,0.9L331.9,198.2L331.9,198.2z M333,196c0,0.2,0,0.2,0.1,0.3c0.2,0.7,0.8,1.1,1.5,1.1
			c1.1,0,1.7-0.8,1.7-2.1c0-1.1-0.6-2-1.6-2c-0.7,0-1.3,0.5-1.5,1.2c0,0.1-0.1,0.2-0.1,0.4V196z"/>
		<path d="M339.6,191.1c0,0.3-0.2,0.7-0.7,0.7c-0.3,0-0.6-0.2-0.6-0.7c0-0.3,0.2-0.7,0.7-0.7C339.3,190.5,339.6,190.8,339.6,191.1z
			 M338.4,198.2v-5.5h1v5.5H338.4z"/>
		<path d="M341.1,190.1h1v8.1h-1V190.1z"/>
		<path d="M345,191.1c0,0.3-0.2,0.7-0.7,0.7c-0.3,0-0.6-0.2-0.6-0.7c0-0.3,0.2-0.7,0.7-0.7C344.7,190.5,345,190.8,345,191.1z
			 M343.8,198.2v-5.5h1v5.5H343.8z"/>
		<path d="M351.2,190.1v6.7c0,0.5,0,1.1,0.1,1.5h-0.9l-0.1-1l0,0c-0.3,0.7-1,1.1-1.9,1.1c-1.3,0-2.4-1.1-2.4-2.8
			c0-1.9,1.1-2.9,2.4-2.9c0.8,0,1.4,0.4,1.6,0.8l0,0v-3.3L351.2,190.1L351.2,190.1z M350.2,194.9c0-0.2,0-0.3-0.1-0.4
			c-0.2-0.7-0.7-1.1-1.5-1.1c-1.1,0-1.6,0.9-1.6,2.1c0,1.1,0.6,2,1.6,2c0.7,0,1.3-0.4,1.5-1.2c0-0.2,0.1-0.2,0.1-0.4V194.9z"/>
		<path d="M355.9,198.2l-0.1-0.7l0,0c-0.3,0.4-0.9,0.8-1.7,0.8c-1.1,0-1.7-0.8-1.7-1.5c0-1.3,1.2-2,3.3-2v-0.1
			c0-0.5-0.2-1.3-1.2-1.3c-0.5,0-1.1,0.2-1.5,0.4l-0.2-0.7c0.5-0.3,1.1-0.5,1.8-0.5c1.7,0,2.1,1.1,2.1,2.3v2c0,0.5,0,1,0.1,1.3
			H355.9z M355.8,195.4c-1.1,0-2.4,0.2-2.4,1.2c0,0.7,0.4,1,1,1c0.7,0,1.1-0.5,1.3-0.9c0-0.1,0.1-0.2,0.1-0.3V195.4L355.8,195.4z"/>
		<path d="M363.2,190.1v6.7c0,0.5,0,1.1,0.1,1.5h-0.9l-0.1-1l0,0c-0.3,0.7-1,1.1-1.9,1.1c-1.3,0-2.4-1.1-2.4-2.8
			c0-1.9,1.1-2.9,2.4-2.9c0.8,0,1.4,0.4,1.6,0.8l0,0v-3.3L363.2,190.1L363.2,190.1z M362.1,194.9c0-0.2,0-0.3-0.1-0.4
			c-0.2-0.7-0.7-1.1-1.5-1.1c-1.1,0-1.6,0.9-1.6,2.1c0,1.1,0.6,2,1.6,2c0.7,0,1.3-0.4,1.5-1.2c0-0.2,0.1-0.2,0.1-0.4V194.9z"/>
	</g>
	<g>
		<path d="M334,250.2c-0.4,0.2-1.3,0.4-2.4,0.4c-1.1,0-2.1-0.3-2.8-1c-0.7-0.7-1.1-1.6-1.1-2.8c0-2.3,1.5-4,4.1-4
			c0.9,0,1.5,0.2,2,0.3l-0.2,0.8c-0.4-0.2-0.9-0.3-1.7-0.3c-1.9,0-3.1,1.1-3.1,3.1c0,2,1.1,3.1,2.9,3.1c0.7,0,1.1-0.1,1.3-0.2v-2.3
			h-1.5v-0.8h2.5L334,250.2L334,250.2z"/>
		<path d="M336.2,248c0,1.4,0.9,2,1.9,2c0.7,0,1.1-0.2,1.5-0.3l0.2,0.7c-0.3,0.2-1,0.3-1.9,0.3c-1.7,0-2.7-1.1-2.7-2.8
			c0-1.6,1-3,2.6-3c1.8,0,2.3,1.5,2.3,2.6c0,0.2,0,0.3,0,0.5H336.2z M339.1,247.2c0-0.7-0.2-1.6-1.4-1.6c-1,0-1.5,0.9-1.5,1.6H339.1
			z"/>
		<path d="M341.1,249.5c0.3,0.2,0.8,0.4,1.3,0.4c0.7,0,1.1-0.3,1.1-0.8c0-0.5-0.2-0.7-1.1-1c-1-0.3-1.5-0.9-1.5-1.5
			c0-0.9,0.7-1.6,1.9-1.6c0.6,0,1.1,0.2,1.4,0.3L344,246c-0.2-0.2-0.7-0.3-1.1-0.3c-0.6,0-0.9,0.3-0.9,0.7c0,0.5,0.3,0.7,1.1,0.9
			c1,0.3,1.5,0.8,1.5,1.6c0,1-0.7,1.6-2,1.6c-0.6,0-1.1-0.2-1.5-0.4L341.1,249.5z"/>
		<path d="M347,243.4v1.5h1.5v0.7H347v3c0,0.7,0.2,1.1,0.7,1.1c0.2,0,0.5,0,0.6-0.1l0.1,0.7c-0.2,0.1-0.5,0.2-0.9,0.2
			c-0.5,0-0.8-0.2-1.1-0.4c-0.3-0.3-0.4-0.8-0.4-1.5v-3h-0.9V245h0.9v-1.3L347,243.4z"/>
		<path d="M350.6,243.5c0,0.3-0.2,0.7-0.7,0.7c-0.3,0-0.6-0.2-0.6-0.7c0-0.3,0.2-0.7,0.7-0.7C350.4,242.9,350.6,243.1,350.6,243.5z
			 M349.6,250.5V245h1v5.5H349.6z"/>
		<path d="M357.2,247.7c0,2-1.4,2.9-2.8,2.9c-1.5,0-2.7-1.1-2.7-2.8c0-1.9,1.2-2.9,2.8-2.9C356.2,244.9,357.2,246,357.2,247.7z
			 M352.8,247.8c0,1.2,0.7,2.1,1.7,2.1s1.7-0.9,1.7-2.1c0-0.9-0.5-2.1-1.6-2.1C353.3,245.6,352.8,246.8,352.8,247.8z"/>
		<path d="M358.5,246.5c0-0.6,0-1.1-0.1-1.5h0.9l0.1,0.9l0,0c0.2-0.5,0.9-1.1,1.8-1.1c0.7,0,2,0.5,2,2.4v3.3h-0.9v-3.2
			c0-0.9-0.3-1.6-1.3-1.6c-0.7,0-1.1,0.5-1.4,1.1c-0.1,0.2-0.1,0.3-0.1,0.5v3.3h-1L358.5,246.5L358.5,246.5z"/>
	</g>
	<rect x="366.5" y="267.4" fill="#4FB050" width="52.5" height="12.3"/>
	<rect x="366.5" y="239.8" fill="#4FB050" width="86.1" height="12.3"/>
	<rect x="366.5" y="215.3" fill="#4FB050" width="130.6" height="12.3"/>
	<rect x="366.5" y="187.8" fill="#4FB050" width="60.6" height="12.3"/>
	<rect x="366.5" y="160.3" fill="#4FB050" width="111.6" height="12.3"/>
</g>
<g>
	<path fill="#FFFFFF" d="M214.7,159h89.5v121.6h-89.5v-25.7c1,1,1.9,2.3,3.3,2.7c0.3,0.8,0.7,1.6,1.4,2.3c0.9,0.8,1.6,1.9,2.7,2.4
		c1.1,0.6,2.2,1,3.2,1.7c0.7,0.6,1.5,1.1,2.3,1.5c1.1,0.6,2.1,1.5,3.3,1.7c1,0.2,1.9,0.5,2.7,1.1c1.2,0.9,2.8,0.7,4.1,1.5
		c1.1,0.6,2.4,1,3.6,1.1c2.6,0.4,5.1,1.2,7.6,1.8c2.9,0.7,5.8,1.4,8.7,2c1.5,0.2,3,0.8,4.6,1c2,0.2,3.8,0.7,5.8,1
		c1.1,0.2,2.3,0.1,3.4,0.5c0.6,0.2,1.1,0.5,1.7,0.4c0.8-0.2,1.6-0.4,2.5-0.4c1.1-0.1,2,0.1,3.1,0.1c0.7,0,1.2-0.4,1.8-0.7
		c0.9-0.5,1.6,0.4,2.4,0.7c0.6,0.3,1.1,0,1.6-0.3c1.1-0.7,2.4-1.3,3.4-2.2c0.1-0.1,0.3-0.2,0.5-0.3c0.1,0.1,0.2,0.2,0.2,0.2
		c0.2,0.2,0.4,0.3,0.7,0.5c0.1,0.1,0.2,0.2,0.3,0.2c0.2-0.1,0.5-0.1,0.7-0.2c1.4-0.8,2.8-1.5,4.1-2.4c0.7-0.3,0.4-1.1,0.4-1.7
		c1.1-0.7,2.4-1.4,3.5-2.1c0-1.1,0.1-2.1,0.1-3.2c0.9-0.5,2.4-0.8,2.3-2.1c-0.1-24.9,0-49.7,0-74.6c-1-0.7-2-1.3-3-1.9
		c-9.8-5.6-19.5-11.2-29.3-16.9c-0.8-0.4-1.5-1-2.4-1.3c-0.7-0.4-1.5,0.2-2.1,0.6c-1.1,0.6-2.1,1.5-3.4,1.8c-1.1-0.4-2-1.2-3.2-1.3
		c0-2.3,0-4.5,0.1-6.8c-0.3-0.2-0.6-0.4-0.9-0.6s-0.8-0.5-1.2-0.3c-0.5,0.2-1,0.6-1.4,0.9c-0.1,3.1,0,6.2,0,9.3
		c-0.8,0.3-1.6,0-2.3-0.5c-1.6,1.1-3.3,1.9-4.9,3c0,0.5,0,0.9,0,1.4c-0.2,0.2-0.6,0.3-0.9,0.5c-0.8,0.4-1.5,0.9-2.4,1.4
		c-0.2,0.1-0.3,0.2-0.5,0.3c-0.1,1-0.1,2,0,2.9c-0.8,0.4-1.6,0.8-2.3,1.5c0,0.1,0,0.3,0,0.4c0,1.2,0,2.4,0,3.6c0,0.7,0,1.2,0,1.9
		c0,1,0,1.9,0,2.8c0,0.1,0,0.3,0,0.4c0,0.7,0,1.2,0,1.9c0,1,0,1.9,0,2.8c0,0.1,0,0.3,0,0.4c0,0.7,0,1.2,0,1.9c0,1,0,1.9,0,2.8
		c0,0.1,0,0.3,0,0.4c0,0.7,0,1.3,0,1.9c0,1,0,1.9,0,2.8c0,0.1,0,0.3,0,0.4c0,0.7,0,1.3,0,1.9c0,1,0,1.9,0,2.8c0,0.1,0,0.3,0,0.4
		c0,0.7,0,1.2,0,1.9c0,1,0,1.9,0,2.8c0,0.1,0,0.3,0,0.4c0,0.7,0,1.2,0,1.9c0,1,0,1.9,0,2.8c0,0.1,0,0.3,0,0.4c0,0.7,0,1.2,0,1.9
		c0,1,0,1.9,0,2.8c0,0.1,0,0.3,0,0.4c0,0.7,0,1.3,0,1.9c0,0.3,0,0.7,0,1c-0.3,2.2,0.1,4.4-0.4,6.6c-0.1,0.7-0.9,1-1.5,1.1
		c-1,0.2-2-0.2-3-0.1c-1,0.2-1.9,0.7-2.8,0.6c-2.2-0.3-4.3,0.7-6.5,0.7c-1.1,0-2.3,0.4-3.4,0.5c-1.6,0.1-3.3,0.2-4.9,0.7
		c-1.1,0.4-2.2,1-3.3,1.3v-83H214.7z"/>
	<path fill="#E2E1E1" d="M255.4,162.1c0.4-0.2,0.8,0.1,1.2,0.3c0.2,0.7,0.5,1.3,0.6,2c-0.4-0.2-0.8-0.3-1.2-0.4
		c0.3,0.8,0.7,1.6,1.1,2.4c-0.3-0.2-0.7-0.2-1.1-0.4c0.2,0.2,0.6,0.6,0.8,0.8c-0.3,0.1-0.7,0.1-1,0.1c0-1.1,0-2.1-0.2-3.1
		c-0.1,0.6-0.2,1.1-0.3,1.7c-0.3-0.2-0.7-0.3-1-0.6c0.2-0.2,0.6-0.5,0.8-0.7c-0.4-0.4-0.8-0.8-1.1-1.2
		C254.4,162.6,254.8,162.3,255.4,162.1z"/>
	<path fill="#CBCBCB" d="M257.1,164.4c-0.1-0.7-0.3-1.4-0.6-2c0.3,0.2,0.6,0.4,0.9,0.6c-0.1,2.3-0.1,4.5-0.1,6.8
		c1.2,0.1,2.1,0.9,3.2,1.3c1.2-0.3,2.3-1.2,3.4-1.8c0.7-0.3,1.4-1,2.1-0.6c0.8,0.4,1.5,0.9,2.4,1.3c9.8,5.6,19.5,11.3,29.3,16.9
		c1.1,0.6,2.1,1.1,3,1.9c-1.6,0.9-3.3,1.8-4.8,2.8c0.8,0.6,1.7,1,2.4,1.7c-1.6,0.8-3.2,1.8-4.8,2.7c0.4,0.2,0.8,0.5,1.1,0.7
		c0,0.5,0,1,0.1,1.5c-0.5-0.7-1-1.4-1.5-2c-0.8,0.7-1.3,1.8-2,2.6c-0.2,0.3-0.6,0.6-0.7,0.9c-0.1,0.7-0.1,1.5-0.2,2.3
		c-0.1-0.8-0.2-1.6-0.4-2.4c-0.2-0.7-1-0.8-1.5-1.1c0.2,0.2,0.2,0.3,0.4,0.5c-0.1,0-0.2,0.1-0.3,0.1c-1.8,0.7-3.3,1.9-5.1,2.7
		c-0.4-0.2-0.7-0.5-1.1-0.7c0.4-0.2,0.9-0.3,1.3-0.6c1.5-0.8,2.9-1.7,4.4-2.6c0.8-0.5,1.6,0.4,2.4,0c0.7-0.2,1.3-0.7,2-1
		c-0.2-0.2-0.6-0.4-0.8-0.6c1.3-0.7,2.6-1.3,4-2c-0.2-0.2-0.4-0.3-0.6-0.5c0.3-0.2,0.7-0.4,1-0.6c-0.8-0.6-1.6-1.1-2.4-1.5
		c1.1-0.7,2.4-1.5,3.5-2.1c0.4-0.2,0.9-0.5,1.3-0.8c-10.3-5.9-20.6-11.9-30.9-17.8c-0.7-0.3-1.2-0.9-2-0.9c-1.8,0.7-3.2,2-5,2.6
		c-1.1-0.3-1.9-1.4-3.1-1.3c0,0.5,0,1,0,1.4c-0.1,2.6-0.1,5.3,0,7.9c0.5,0.3,1,0.7,1.5,1c-1.1,0.6-2.1,1.2-3,2
		c-0.1-0.1-0.2-0.2-0.3-0.2c-0.9-0.7-1.9-1.2-2.8-1.7c0.2-0.2,0.3-0.2,0.5-0.4c0.9,0.4,1.8,0.9,2.6,1.3c0-4.5-0.1-9,0-13.4
		c0.2,0,0.5,0,0.7,0c0.2,0.5,0.4,1,0.6,1.5c0.2-0.9,0.2-1.8,0.1-2.6c0-0.3-0.1-0.7-0.1-1c-0.4,0.2-0.8,0.3-1.2,0.4
		c0-0.2,0-0.4,0-0.6c0.3,0,0.7,0,1-0.1c0.1,0,0.3-0.1,0.4-0.2C257.2,165.9,257.2,165.1,257.1,164.4z"/>
	<path fill="#968D8F" d="M253.9,162.9c0.4,0.4,0.8,0.8,1.1,1.2c-0.2,0.2-0.6,0.5-0.8,0.7c0.3,0.2,0.7,0.3,1,0.6
		c0.2-0.6,0.2-1.1,0.3-1.7c0.2,1.1,0.2,2.1,0.2,3.1c0,0.2,0,0.4,0,0.6c0,0.6,0,1.1,0,1.6c-0.1,4.5,0,9,0,13.4
		c-0.9-0.5-1.7-1-2.6-1.3c0.4-0.3,0.8-0.7,1.2-0.9c-1.8-1-3.7-1.7-5.6-2.3c0.7-0.4,1.2-0.7,1.9-1.1c0-0.5,0.1-1.1,0.1-1.5
		c0.3-0.2,0.7-0.4,1-0.6c0.6,0.2,1.2,0.9,1.9,0.6c0.7-0.2,0.4-1.1,0.5-1.5c0-0.5,0-1,0-1.4C253.9,169.1,253.8,166,253.9,162.9z"/>
	<path fill="#797879" d="M255.9,163.9c0.4,0.2,0.8,0.3,1.2,0.4c0,0.7,0,1.5,0.1,2.2c-0.1,0-0.3,0.1-0.4,0.2
		c-0.2-0.2-0.6-0.5-0.8-0.8c0.3,0.1,0.7,0.2,1.1,0.4C256.5,165.6,256.2,164.8,255.9,163.9z"/>
	<path fill="#F4F4F4" d="M256.1,164.2c0.3,0.2,0.6,0.2,0.9,0.4c-0.1,0.2-0.2,0.4-0.3,0.6C256.5,165,256.3,164.7,256.1,164.2z"/>
	<path fill="#FFFFFF" d="M254.1,165.2c0.4,0.2,0.8,0.3,1.2,0.6c-0.2,0.2-0.4,0.3-0.7,0.5c0.2,0.1,0.5,0.2,0.7,0.3c0,0.2,0,0.4,0,0.5
		c-0.4-0.2-0.8-0.5-1.1-0.8C254.1,166,254.2,165.6,254.1,165.2z"/>
	<path fill="#FFFFFF" d="M255.8,167.4c0.4-0.2,0.8-0.3,1.2-0.4c0,0.3,0.1,0.7,0.1,1c-0.4-0.1-0.8-0.2-1.2-0.3
		c0.2,0.5,0.3,0.9,0.6,1.4c-0.2,0-0.5,0-0.7,0C255.8,168.6,255.8,168,255.8,167.4z"/>
	<path fill="#FFFFFF" d="M254.6,167.3c0.7,0.1,0.8,0.8,0.9,1.4c-0.4,0.2-0.9,0.2-1.3-0.1c0.2-0.3,0.5-0.5,0.8-0.7
		C255,167.7,254.8,167.5,254.6,167.3z"/>
	<path fill="#797879" d="M255.9,167.7c0.4,0.1,0.8,0.2,1.2,0.3c0.2,0.9,0.1,1.8-0.1,2.6c-0.2-0.6-0.3-1.1-0.6-1.5
		C256.2,168.6,256,168.2,255.9,167.7z"/>
	<path fill="#FFFFFF" d="M256.1,168c0.3,0.2,0.7,0.3,0.9,0.4c-0.1,0.2-0.2,0.4-0.3,0.6C256.5,168.6,256.3,168.3,256.1,168z"/>
	<path fill="#FFFFFF" d="M254.1,169c0.4,0.2,0.8,0.4,1.2,0.7c-0.2,0.2-0.4,0.3-0.7,0.5c0.2,0.1,0.5,0.2,0.7,0.3c0,0.2,0,0.4,0,0.5
		c-0.4-0.2-0.8-0.5-1.1-0.8C254.1,169.8,254.2,169.3,254.1,169z"/>
	<path fill="#635E5F" d="M260.5,172.5c1.8-0.6,3.2-2,5-2.6c0.7,0,1.3,0.6,2,0.9c10.3,5.9,20.6,11.9,30.9,17.8
		c-0.5,0.2-0.9,0.5-1.3,0.8c-0.9-0.7-1.8-1.2-2.8-1.7c-8.8-5-17.6-10.1-26.3-15.1c-0.7-0.4-1.4-0.9-2.1-1.1
		c-0.3-0.1-0.7,0.1-1.1,0.2c-1.1,0.7-2.2,1.4-3.3,2c-0.3,0.2-0.7,0.4-1.1,0.2c-0.9-0.4-1.7-1.1-2.8-1.2c0-0.5,0-1,0-1.4
		C258.6,171.2,259.4,172.1,260.5,172.5z"/>
	<path fill="#FCFCFC" d="M254.8,171.2c0.3-0.1,0.5,0,0.3,0.3C254.8,171.6,254.6,171.5,254.8,171.2z"/>
	<path fill="#888989" d="M255.9,171.3c0.4,0.2,0.9,0.4,1.3,0.6c-0.1,0.2-0.2,0.3-0.3,0.5c-0.3,0.2-0.7,0.4-1,0.6
		C255.9,172.4,255.9,171.8,255.9,171.3z"/>
	<path fill="#968D8F" d="M264.7,171.7c0.3-0.2,0.7-0.4,1.1-0.2c0.7,0.2,1.5,0.7,2.1,1.1c8.8,5,17.5,10.2,26.3,15.1
		c1,0.5,1.9,1.1,2.8,1.7c-1.2,0.7-2.4,1.4-3.5,2.1l-0.2,0.1v-0.2c0,0.5,0,1-0.1,1.5c-1.1-0.6-2.2-1.1-3.3-1.6
		c-0.1,0.7-0.1,1.4-0.2,2c0-2.1,0-4.1,0-6.3c-5-2.8-10-5.7-15.1-8.5c-0.9-0.6-1.8-1.1-2.7-1.5c-3.1,1.7-6.1,3.5-9.2,5.3
		c-0.8,0.5-1.7,0.9-2.4,1.5c0,2-0.1,4.1,0,6.1c1.5,0.9,3.2,1.8,4.7,2.7c0.7,0.3,1.3,0.7,2,0.9c0.3,0.2,0.7,0.2,1,0.4
		c0.5,0.7,1.1,1,1.9,1.2c0.2,0.1,0.5,0.2,0.7,0.3c0.6,0.5,1.1,1,1.8,1.3c1.8,1,3.6,2,5.4,3l0.2,0.1c0.2-2.1,0-4.1,0.2-6.3
		c0.1,2.1-0.2,4.2,0.2,6.3v0.2c-0.8,0.4-1.5,0.9-2.4,1.4c-10.4-6-20.9-12-31.3-18.1c0.9-0.7,2-1.2,3-1.9c0.6-0.3,0.7-1,0.9-1.5
		c1.1,0.7,2.4,1,3.4,1.9c1.1,0.9,2.4,1.6,3.7,2v-0.2c0-0.1,0-0.3-0.1-0.4c0.1,0.1,0.2,0.2,0.3,0.2c0.9-0.8,2-1.4,3-2
		c-0.5-0.3-1-0.7-1.5-1c0-2.6,0-5.3,0-7.9c1.1,0.1,1.9,0.7,2.8,1.2c0.4,0.2,0.8,0,1.1-0.2C262.4,173,263.6,172.2,264.7,171.7z"/>
	<path fill="#CDCDCD" d="M246.7,174.7c1.5-1.1,3.3-2,4.9-3c0.7,0.5,1.5,0.8,2.3,0.5c0,0.5,0,1,0,1.4c-0.3,0.1-0.7,0.2-1,0.2
		c-0.5-0.1-0.9-0.4-1.3-0.6c-0.8,0.4-1.6,0.9-2.4,1.5c0.4,0.2,0.8,0.5,1.2,0.7c-1.4,0.8-2.8,1.7-4.2,2.4c0.2-0.2,0.5-0.5,0.7-0.7
		c-0.3-0.2-0.7-0.3-1-0.4c0.3-0.2,0.6-0.3,0.9-0.5c0.4-0.2,0.8-0.5,1.2-0.7C247.6,175.2,247.1,174.9,246.7,174.7z"/>
	<path fill="#DDDDDD" d="M254.5,171.8c0.2,0.3,0.4,0.7,0.7,1C254.7,172.5,254.1,172.4,254.5,171.8z"/>
	<path fill="#8F8B8C" d="M255.9,173c0.3-0.2,0.7-0.3,1-0.6c0.2,0.5,0.2,1.1,0.3,1.5c-0.4,0.2-0.8,0.5-1.2,0.7
		C255.9,174.1,255.9,173.5,255.9,173z"/>
	<path fill="#323232" d="M254.1,173.8c0.2-0.5,0.7-0.7,1.1-0.8C255,173.4,254.5,173.6,254.1,173.8z"/>
	<path fill="#635D5E" d="M249.2,174.7c0.8-0.5,1.6-1,2.4-1.5c0.4,0.2,0.8,0.5,1.3,0.6c0.3,0,0.7-0.2,1-0.2c0,0.6,0.2,1.3-0.5,1.5
		c-0.7,0.3-1.3-0.3-1.9-0.6c-0.3,0.2-0.7,0.4-1,0.6c0,0.5-0.1,1.1-0.1,1.5c-0.7,0.4-1.2,0.7-1.9,1.1c-0.7,0.4-1.3,0.7-2,1.1
		c-0.3-0.2-0.7-0.4-1-0.6c0.1-0.2,0.2-0.5,0.4-0.7c1.5-0.7,2.8-1.5,4.2-2.4C250,175.2,249.6,174.9,249.2,174.7z"/>
	<path fill="#8E8889" d="M255.9,175c0.4-0.2,0.8-0.4,1.1-0.7c0,1.1,0,2.2,0,3.3c-0.4,0.2-0.8,0.5-1.1,0.7
		C255.9,177.3,255.9,176.1,255.9,175z"/>
	<path fill="#5B5B5B" d="M246.7,174.7c0.4,0.2,0.8,0.5,1.2,0.7c-0.4,0.2-0.8,0.5-1.2,0.7C246.7,175.6,246.7,175.2,246.7,174.7z"/>
	<path fill="#A3A3A2" d="M243.6,178c0.7-0.5,1.5-0.9,2.4-1.4c0.3,0.2,0.7,0.3,1,0.4c-0.2,0.2-0.5,0.5-0.7,0.7
		c-0.2,0.2-0.4,0.4-0.4,0.7c0.3,0.2,0.7,0.4,1,0.6c0.4,0.2,0.9,0.5,1.3,0.8l-0.2,0.1C246.4,179.3,244.9,178.9,243.6,178z"/>
	<path fill="#624F59" d="M262.8,182.2c3.1-1.8,6.1-3.6,9.2-5.3c0.9,0.5,1.8,1,2.7,1.5c5,2.8,10,5.7,15.1,8.5
		c-3.9,2.2-7.7,4.5-11.6,6.7c-0.2,2.1,0.1,4.1-0.2,6.3l-0.2-0.1c-0.1-2,0-4.1,0-6.1c-4.6-2.7-9.3-5.3-13.8-8c-1.2-0.7-2.4-1.4-3.6-2
		C261,183.1,261.9,182.7,262.8,182.2z"/>
	<path fill="#CDCCCC" d="M243.1,178.2c0.2-0.1,0.3-0.2,0.5-0.3c1.3,1,2.8,1.4,4.3,1.9c-1.5,1-3.2,1.8-4.6,2.8
		c0.5,0.2,0.9,0.5,1.4,0.8c10.4,6,20.9,12,31.3,18.1c0.8-0.4,1.6-0.9,2.4-1.4c0.1,0,0.2-0.1,0.3-0.2c0.5,0.1,1.1,0.2,1.5,0.3
		c-1.4,1-2.8,1.6-4.1,2.6c-1-0.5-1.9-1-2.8-1.6c-0.4-0.4-0.8-0.8-1.4-1.1c-2.2-1.2-4.3-2.6-6.5-3.7c-2.4-1.3-4.6-2.8-7-4.1
		c-1.1-0.7-2.2-1.5-3.5-1.8c-1.5-0.7-3-1.7-4.6-2.5c-0.2-0.1-0.4-0.2-0.7-0.3c-1.4-1-2.9-1.7-4.4-2.6c-1.5-0.8-3-1.8-4.6-2.5
		c0.7-0.7,1.5-1.1,2.3-1.5c0.9-0.4,1.7-0.9,2.5-1.5C244.7,179.3,243.9,178.7,243.1,178.2z"/>
	<path fill="#81797B" d="M246.7,179c0.7-0.3,1.3-0.7,2-1.1c2,0.7,3.8,1.4,5.6,2.3c-0.4,0.3-0.8,0.6-1.2,0.9
		c-0.2,0.2-0.3,0.2-0.5,0.4c-0.1,0.1-0.2,0.2-0.2,0.2c1.1,0.7,2.2,1.1,3.2,1.9v0.2c-1.4-0.3-2.7-1.1-3.7-2c-1-0.9-2.4-1.1-3.4-1.9
		c-0.2-0.1-0.2-0.2-0.4-0.2C247.6,179.5,247.1,179.2,246.7,179z"/>
	<path fill="#8E878A" d="M255.9,179.3c-0.2-0.7,0.7-1,1.2-1.3c0,1-0.1,2,0,3c0.2,0.7-0.7,0.7-1.1,1c0-0.3,0-0.7,0.1-1.1
		c0.3,0.1,0.7,0.2,1,0.3C256.7,180.7,256.1,180,255.9,179.3z"/>
	<path fill="#656565" d="M243.1,181.3c-0.1-1-0.1-2,0-2.9c0.8,0.5,1.6,1,2.4,1.5C244.7,180.3,243.9,180.8,243.1,181.3z"/>
	<path fill="#635D5E" d="M248,179.8c0.2,0.1,0.2,0.2,0.4,0.2c-0.2,0.6-0.3,1.2-0.9,1.5c-1,0.6-2,1.1-3,1.9c-0.5-0.2-0.9-0.5-1.4-0.8
		c1.5-1,3.2-1.8,4.6-2.8L248,179.8z"/>
	<path fill="#C2C1C1" d="M254.5,180.3c0.2,0.2,0.5,0.3,0.7,0.5c0.1,0.3,0.1,0.7,0.1,1.1c-0.4-0.2-0.8-0.6-1.2-0.9
		C254.3,180.8,254.5,180.5,254.5,180.3z"/>
	<path fill="#AAADAB" d="M269.8,184.7c2.4-1.4,4.8-2.8,7.2-4.1c0.1,0.1,0.3,0.2,0.5,0.3c-2.3,1.5-4.8,2.7-7.1,4.2
		C270.3,184.9,270.1,184.8,269.8,184.7z"/>
	<path fill="#858786" d="M277.6,180.8L277.6,180.8c0.2,0.5,0.2,1,0.2,1.5c-0.3,0.2-0.6,0.3-0.9,0.5c-0.4-0.2-0.9-0.4-1.3-0.2
		c-1.5,0.8-3,1.7-4.5,2.5c0,0.4,0.1,0.8,0.1,1.3c-0.2,0.2-0.3,0.2-0.5,0.4c-0.1,0-0.2-0.1-0.3-0.1c-0.1-0.6,0-1.2,0.1-1.8
		C272.8,183.5,275.3,182.5,277.6,180.8z"/>
	<path fill="#323232" d="M252.4,181.7c0.1-0.1,0.2-0.2,0.2-0.2c1,0.5,2,1.1,2.8,1.7c0,0.1,0,0.3,0.1,0.4
		C254.5,182.9,253.4,182.4,252.4,181.7z"/>
	<path fill="#ACB0AE" d="M277.8,182.4c0.4-0.2,0.7-0.4,1.1-0.7c0.2,0.2,0.6,0.2,0.5,0.5c-2.4,1.1-4.8,2.6-7.1,4
		c-0.2-0.1-0.4-0.2-0.7-0.2c1.6-1.2,3.6-2,5.3-3.1C277.3,182.7,277.6,182.6,277.8,182.4z"/>
	<path fill="#878788" d="M272.4,186.3c2.4-1.4,4.6-2.8,7.1-4c0.1,0.5,0.2,0.9,0.2,1.4c-0.3,0.2-0.7,0.3-1,0.6
		c-0.2-0.2-0.5-0.2-0.7-0.4c-1.6,0.8-3.3,1.7-4.9,2.8c-0.1,0.1-0.2,0.2-0.2,0.2c0.1,0.3,0.2,0.7,0.2,1.1c-0.1,0.1-0.2,0.2-0.2,0.2
		c-0.1,0.1-0.3,0.2-0.4,0.2c-0.1,0-0.2-0.1-0.2-0.2C272.2,187.4,272.3,186.9,272.4,186.3z"/>
	<path fill="#59444F" d="M275.6,182.8c0.4-0.3,0.9,0,1.3,0.2c-1.7,1.1-3.6,2-5.3,3.1c-0.2,0.7-0.2,1.5,0.2,2.2
		c-0.7-0.1-1.2-0.5-1.6-1c0.2-0.2,0.3-0.2,0.5-0.4s0.3-0.2,0.5-0.4c0-0.4-0.1-0.8-0.1-1.3C272.7,184.4,274.2,183.6,275.6,182.8z"/>
	<path fill="#1E1E1E" d="M240.7,182.7c1.5,0.8,3,1.7,4.6,2.5c1.5,0.8,2.9,1.6,4.4,2.6c-1.2-0.2-2.2-1-3.3-1.5
		c-1.9-1-3.7-2.1-5.6-3.2C240.7,183,240.7,182.8,240.7,182.7z"/>
	<path fill="#AAACAB" d="M279.8,183.7c0.5-0.3,1.2-0.8,1.7-0.2c-2.4,1.3-4.9,2.7-7.2,4.1c-0.2-0.1-0.4-0.2-0.6-0.3
		c1.5-1,3.2-1.8,4.7-2.8c0.1-0.1,0.3-0.2,0.5-0.2C279.1,184,279.4,183.9,279.8,183.7z"/>
	<path fill="#323232" d="M240.7,183.1c1.9,1.1,3.7,2.2,5.6,3.2c1.1,0.6,2,1.5,3.3,1.5c0.2,0.1,0.4,0.2,0.7,0.3
		c0.2,0.8,1.1,1,1.7,1.4c2.3,1.4,4.6,2.6,6.9,4c2.4,1.5,5,2.8,7.4,4.2c1.9,1.1,3.7,2.3,5.7,3.3c1.3,0.7,2.4,1.5,3.8,2.1
		c-0.1,1.2,0,2.4,0.1,3.7c-0.9-0.4-1.7-0.9-2.5-1.4c-10.9-6.3-21.8-12.5-32.7-18.9C240.7,185.5,240.7,184.3,240.7,183.1z"/>
	<path fill="#848785" d="M281.4,183.5L281.4,183.5c0.2,0.6,0.2,1.3,0.2,2c-0.7,0.2-1.3-0.2-2-0.2c-0.5,0-0.8,0.3-1.2,0.5
		c-1.2,0.7-2.5,1.4-3.7,2.2c0.1,0.2,0.2,0.5,0.2,0.7c0.1,0.5-0.6,0.7-0.9,0.8c0-0.7,0-1.3,0-1.9C276.6,186.1,279,184.8,281.4,183.5z
		"/>
	<path fill="#797879" d="M260.2,183.8c1.2,0.6,2.4,1.3,3.6,2c4.6,2.7,9.3,5.2,13.8,8c0,2-0.1,4.1,0,6.1c-1.8-1-3.6-2-5.4-3
		c-0.7-0.3-1.2-0.8-1.8-1.3c0.2-0.7,0.2-1.5,0.2-2.1c-0.4-0.2-0.8-0.3-1.1-0.5c0,0.8,0,1.5,0.2,2.4c-0.7-0.2-1.4-0.7-1.9-1.2
		c0-0.7,0.2-1.5-0.1-2.1c-0.3-0.3-0.7-0.5-1.1-0.7c0,0.8,0.1,1.6,0.2,2.4c-0.7-0.2-1.3-0.6-2-0.9c-1.5-0.9-3.2-1.8-4.7-2.7
		C260.2,187.8,260.2,185.8,260.2,183.8z"/>
	<path fill="#323232" d="M273.3,186.5c1.5-1.1,3.2-2,4.9-2.8c0.2,0.2,0.5,0.2,0.7,0.4c-0.1,0.1-0.3,0.2-0.5,0.2
		C276.4,184.4,275,186.1,273.3,186.5L273.3,186.5z"/>
	<path fill="#323232" d="M278.6,185.7c0.4-0.2,0.7-0.5,1.2-0.5c0.7,0.1,1.3,0.4,2,0.2c0.1,0,0.2,0,0.4-0.1c-0.2,0.2-0.6,0.6-0.9,0.6
		c-0.6-0.1-1.1-0.3-1.5-0.3c-0.7,0.2-1.4,0.7-2.1,1.1c-0.9,0.5-2,0.8-2.4,2c-0.1-0.2-0.2-0.5-0.2-0.7
		C276,187.1,277.3,186.5,278.6,185.7z"/>
	<path fill="#403239" d="M268.4,186c0.5-0.2,0.9-0.4,1.4-0.6c-0.1,0.3-0.2,0.6-0.2,0.9c0.2,0.2,0.3,0.4,0.5,0.7
		C269.4,186.8,268.8,186.5,268.4,186z"/>
	<path fill="#664F38" d="M240.7,186.7c10.9,6.3,21.8,12.5,32.7,18.9c0.8,0.5,1.6,1,2.5,1.4c0,0.7-0.1,1.3-0.1,2
		c-1.4-0.9-2.8-1.6-4.1-2.4c-0.1-0.1-0.3-0.2-0.4-0.2c-1.1-0.7-2.3-1.3-3.4-2c-0.2-0.1-0.3-0.2-0.5-0.3c-1.1-0.7-2.3-1.3-3.4-2
		c-0.2-0.1-0.3-0.2-0.5-0.3c-1.1-0.7-2.3-1.3-3.4-2c-0.2-0.1-0.3-0.2-0.5-0.3c-1.1-0.7-2.3-1.3-3.4-2c-0.2-0.1-0.3-0.2-0.5-0.3
		c-1.1-0.7-2.2-1.3-3.4-2c-0.1-0.1-0.3-0.2-0.4-0.2c-1.1-0.7-2.2-1.4-3.4-2c-0.2-0.1-0.3-0.2-0.6-0.3c-1.1-0.7-2.3-1.3-3.4-2
		c-0.2-0.1-0.3-0.2-0.5-0.3c-1.1-0.7-2.3-1.3-3.3-2C240.7,187.9,240.7,187.3,240.7,186.7z"/>
	<path fill="#CAC9C9" d="M278.1,193.7c3.9-2.2,7.7-4.5,11.6-6.7c0,2.1,0,4.1,0,6.3c-2.8,1.5-5.5,3.2-8.2,4.7c-1.1,0.7-2.2,1.1-3.2,2
		C277.8,197.9,278.1,195.7,278.1,193.7z"/>
	<path fill="#152335" d="M261.2,187.5c0.5,0.2,1.1,0.5,1.5,0.9c0.1,0.2,0.1,0.6,0.1,0.8c-0.5-0.2-1-0.4-1.5-0.7
		C261.3,188.2,261.2,187.8,261.2,187.5z"/>
	<path fill="#3F3138" d="M272.6,188.3c0.1-0.1,0.3-0.2,0.4-0.2c0.2,0,0.4-0.1,0.6-0.2c-0.2,0.7-0.1,1.2,0.4,1.6
		c-0.7-0.1-1.3-0.4-1.7-1C272.3,188.4,272.5,188.3,272.6,188.3z"/>
	<path fill="#1E1E1E" d="M252,189.6c-0.6-0.4-1.5-0.6-1.7-1.4c1.5,0.7,3,1.8,4.6,2.5c2,1.3,4.1,2.4,6.2,3.7c4.1,2.3,8.1,4.8,12.3,7
		c0.9,0.7,1.8,1.1,2.8,1.6c0,0.1-0.1,0.2-0.2,0.3c-1.3-0.6-2.5-1.4-3.8-2.1c-2-1.1-3.8-2.2-5.7-3.3c-2.5-1.4-5-2.8-7.4-4.2
		C256.7,192.2,254.3,191,252,189.6z"/>
	<path fill="#2C4258" d="M240.7,188.6c1.1,0.7,2.3,1.3,3.3,2c0,0.9,0,1.8-0.1,2.7c-1.1-0.7-2.2-1.3-3.3-1.9
		C240.7,190.5,240.7,189.5,240.7,188.6z"/>
	<path fill="#8C8C8C" d="M295.9,191.5c1.5-1,3.2-1.9,4.8-2.8c0.1,24.9,0,49.7,0,74.6c0.2,1.3-1.4,1.6-2.3,2.1
		c-0.2-2.3-0.1-4.6-0.1-6.8c0-21.1,0-42.1,0-63.2c0-0.7,0-1.5-0.1-2.2C297.7,192.4,296.7,192,295.9,191.5z"/>
	<path fill="#122135" d="M263.7,188.9c0.5,0.2,1.1,0.5,1.5,0.9c0,0.2,0,0.6,0,0.8c-0.5-0.2-1-0.5-1.5-0.8
		C263.8,189.6,263.8,189.2,263.7,188.9z"/>
	<path fill="#231E17" d="M244.1,190.5c0.2,0.1,0.3,0.2,0.5,0.3c0,0.8-0.2,1.6,0,2.4c0,0.3,0.3,0.5,0.6,0.7c0.9,0.6,1.8,1,2.7,1.5
		c0-0.9,0.1-1.8,0.1-2.6c0.2,0.1,0.3,0.2,0.6,0.3c0,0.9-0.2,1.7,0,2.6c0.9,0.9,2.2,1.4,3.3,2c0.1-0.9,0.1-1.8,0.1-2.6
		c0.1,0.1,0.3,0.2,0.4,0.2c0,0.9,0,1.9,0.1,2.8c1.1,0.7,2.2,1.3,3.3,1.9c0-0.9,0-1.8,0-2.7c0.2,0.1,0.3,0.2,0.5,0.3
		c0,0.9-0.2,1.9,0.1,2.8c1,0.8,2.2,1.3,3.3,1.9c0-0.9,0-1.8,0-2.7c0.2,0.1,0.3,0.2,0.5,0.3c-0.1,0.9-0.1,1.8-0.1,2.7
		c1.1,0.7,2.3,1.4,3.5,2c0-0.9,0-1.8,0-2.7c0.2,0.1,0.3,0.2,0.5,0.3c-0.1,0.9-0.1,1.8-0.1,2.7c1.1,0.7,2.3,1.4,3.4,2
		c0-0.9,0-1.8,0-2.7c0.2,0.1,0.3,0.2,0.5,0.3c-0.1,0.9-0.1,1.8-0.1,2.7c1.1,0.7,2.3,1.3,3.4,2c0-0.9,0-1.8,0-2.7
		c0.1,0.1,0.3,0.2,0.4,0.2c0,0.9,0,1.9,0.1,2.8c1.4,0.8,2.8,1.5,4.1,2.4c0,0.1,0,0.3,0,0.4c-0.6-0.3-1.2-0.7-1.8-1
		c-11.1-6.4-22.2-12.8-33.4-19.3c0-0.1,0-0.3,0-0.4c1.1,0.6,2.2,1.2,3.3,1.9C244.1,192.3,244.1,191.4,244.1,190.5z"/>
	<path fill="#FFFFFF" d="M254.9,190.7c1.3,0.2,2.4,1.1,3.5,1.8c2.4,1.3,4.7,2.7,7,4.1c2.2,1.1,4.3,2.5,6.5,3.7
		c0.5,0.2,1,0.7,1.4,1.1c-4.1-2.2-8.1-4.7-12.3-7C258.9,193.1,256.8,192,254.9,190.7z"/>
	<path fill="#2F4758" d="M244.6,190.9c1.1,0.7,2.3,1.2,3.4,2c0,0.9-0.1,1.7-0.1,2.6c-0.9-0.5-1.8-0.9-2.7-1.5
		c-0.2-0.2-0.6-0.3-0.6-0.7C244.5,192.5,244.6,191.7,244.6,190.9z"/>
	<path fill="#1E2238" d="M266.8,191.1c0.4,0.2,0.8,0.4,1.1,0.7c0.2,0.7,0.1,1.4,0.1,2.1c-0.3-0.2-0.7-0.2-1-0.4
		C266.8,192.7,266.8,191.9,266.8,191.1z"/>
	<path fill="#7B7375" d="M289.8,191.3c1.1,0.6,2.2,1.1,3.3,1.6c0-0.5,0.1-1,0.1-1.5v0.2c0.1,0.4,0.1,0.8,0.2,1.2
		c0.2,0.5,0.7,0.7,1.1,1.1c-1.1,0.7-2.4,1.4-3.5,2c0.2,0.1,0.2,0.2,0.4,0.3c0.2,0.2,0.6,0.4,0.8,0.6c-0.7,0.3-1.2,0.7-2,1
		c-0.8,0.4-1.7-0.6-2.4,0c-1.5,0.8-2.9,1.7-4.4,2.6c-0.9-0.5-1.6-1.3-2.7-1.5c-0.8,0.2-1.5,0.9-2.2,1.2c-0.1,0.1-0.2,0.1-0.3,0.2
		v-0.2c1-0.8,2.1-1.3,3.2-2c2.8-1.5,5.5-3.2,8.2-4.7C289.7,192.6,289.8,191.9,289.8,191.3z"/>
	<path fill="#21375C" d="M286.3,192.2c0.3-0.5,1-0.7,1.5-0.9c0,0.3,0,0.7-0.1,1c-0.5,0.2-0.9,0.5-1.4,0.7
		C286.3,192.8,286.3,192.6,286.3,192.2z"/>
	<path fill="#625C5D" d="M293.2,191.6l0.2-0.1c0.9,0.4,1.7,1,2.4,1.5c-0.3,0.2-0.7,0.4-1,0.6c-0.1,0.1-0.2,0.2-0.3,0.2
		c-0.4-0.3-0.9-0.6-1.1-1.1C293.3,192.4,293.3,192,293.2,191.6z"/>
	<path fill="#664F38" d="M240.8,191.8c11.1,6.4,22.2,12.9,33.4,19.3c0.6,0.3,1.1,0.7,1.8,1v0.2c0,0.6,0,1.2,0,1.8
		c-1.4-0.9-2.8-1.6-4.1-2.4c-0.1-0.1-0.3-0.2-0.4-0.2c-1.1-0.7-2.3-1.3-3.4-2c-0.2-0.1-0.3-0.2-0.5-0.3c-1.1-0.7-2.3-1.3-3.4-2
		c-0.2-0.1-0.3-0.2-0.5-0.3c-1.1-0.7-2.3-1.3-3.4-2c-0.2-0.1-0.3-0.2-0.5-0.3c-1.1-0.7-2.3-1.3-3.4-2c-0.2-0.1-0.3-0.2-0.5-0.3
		c-1.1-0.7-2.3-1.3-3.4-2c-0.1-0.1-0.3-0.2-0.4-0.2c-1.1-0.7-2.2-1.4-3.4-2c-0.2-0.1-0.3-0.2-0.6-0.3c-1.1-0.7-2.2-1.3-3.3-2
		c-0.2-0.1-0.3-0.2-0.5-0.3c-1.1-0.7-2.3-1.3-3.3-2C240.7,193.1,240.8,192.4,240.8,191.8z"/>
	<path fill="#1E2238" d="M269.6,192.8c0.4,0.2,0.8,0.3,1.1,0.5c0.1,0.7,0,1.5-0.2,2.1c-0.2-0.1-0.5-0.2-0.7-0.3
		C269.6,194.4,269.6,193.6,269.6,192.8z"/>
	<path fill="#283D55" d="M248.5,193.1c1.1,0.7,2.3,1.3,3.4,2c0,0.9,0,1.8-0.1,2.6c-1.1-0.6-2.4-1.1-3.3-2
		C248.4,194.8,248.5,193.9,248.5,193.1z"/>
	<path fill="#223B59" d="M283.1,193.9c0.5-0.2,1.1-0.5,1.5-0.7c-0.1,0.3-0.1,0.7-0.2,1c-0.4,0.3-0.8,0.6-1.3,0.7
		C283.1,194.6,283.1,194.3,283.1,193.9z"/>
	<path fill="#A1A0A0" d="M293.5,195.8c1.5-0.9,3.2-1.9,4.8-2.7c0.1,0.7,0.1,1.5,0.1,2.2c0,21.1,0,42.1,0,63.2c0,2.3-0.1,4.6,0.1,6.8
		c0,1.1-0.1,2.1-0.1,3.2c-1.1,0.7-2.4,1.4-3.5,2.1c-0.2-1.8-0.2-3.6-0.2-5.4c0-3.2,0.1-6.3,0-9.4c0.1-2.5,0-5,0-7.6
		c0-15.5,0-31.1,0-46.6c0.1-1.2,0-2.4,0-3.7c0-0.5,0-1-0.1-1.5C294.3,196.4,293.9,196.1,293.5,195.8z"/>
	<path fill="#2C4258" d="M240.7,193.7c1.1,0.7,2.3,1.3,3.3,2c0,0.9,0,1.8-0.1,2.7c-1.1-0.7-2.2-1.3-3.3-1.9
		C240.7,195.6,240.7,194.6,240.7,193.7z"/>
	<path fill="#A8A9A9" d="M294.6,193.8c0.1-0.1,0.2-0.2,0.3-0.2c0.2,0.2,0.4,0.3,0.6,0.5c-1.3,0.7-2.6,1.3-4,2
		c-0.2-0.1-0.2-0.2-0.4-0.3C292.2,195.2,293.4,194.5,294.6,193.8z"/>
	<path fill="#142134" d="M272.4,194.1c0.6,0.2,1.1,0.5,1.6,0.8c0,0.3,0,0.6-0.1,0.9c-0.5-0.2-1.1-0.5-1.5-0.7
		C272.4,194.8,272.4,194.4,272.4,194.1z"/>
	<path fill="#1C3559" d="M279.9,195.9c0.5-0.3,1.1-0.6,1.5-0.9c0,0.3-0.1,0.7-0.2,1c-0.4,0.3-0.9,0.5-1.3,0.7
		C279.9,196.5,279.9,196.2,279.9,195.9z"/>
	<path fill="#304660" d="M252.4,195.3c1.1,0.6,2.3,1.3,3.4,2c0,0.9,0,1.8,0,2.7c-1.1-0.6-2.3-1.2-3.3-1.9
		C252.4,197.1,252.4,196.2,252.4,195.3z"/>
	<path fill="#131F33" d="M275.1,195.5c0.5,0.2,1,0.4,1.4,0.7c0.1,0.3,0.1,0.7,0.1,1c-0.5-0.2-1.1-0.5-1.5-0.8
		C275,196.1,275,195.8,275.1,195.5z"/>
	<path fill="#231E17" d="M244.1,195.7c0.2,0.1,0.3,0.2,0.5,0.3c-0.1,0.8-0.2,1.6,0,2.4c0,0.3,0.3,0.5,0.6,0.7c0.9,0.6,1.8,1,2.7,1.5
		c0-0.9,0.1-1.7,0.1-2.6c0.2,0.1,0.3,0.2,0.6,0.3c0,0.9-0.2,1.7,0,2.6c0.9,0.9,2.2,1.4,3.3,2c0.1-0.9,0.1-1.8,0.1-2.6
		c0.1,0.1,0.3,0.2,0.4,0.2c0,0.8-0.1,1.7,0.1,2.5c0.1,0.3,0.3,0.5,0.6,0.7c0.9,0.6,1.8,1,2.7,1.5c0-0.9,0-1.8,0-2.7
		c0.2,0.1,0.3,0.2,0.5,0.3c0,0.8-0.2,1.6,0,2.5c0,0.2,0.3,0.4,0.5,0.6c0.9,0.7,2,1.1,2.9,1.6c0-0.9,0-1.8,0-2.7
		c0.2,0.1,0.3,0.2,0.5,0.3c-0.1,0.9-0.1,1.8-0.1,2.7c1.1,0.7,2.3,1.4,3.5,2c0-0.9,0-1.8,0-2.7c0.2,0.1,0.3,0.2,0.5,0.3
		c-0.1,0.9-0.1,1.8-0.1,2.7c1.1,0.7,2.3,1.3,3.4,2c0-0.9,0-1.8,0-2.7c0.2,0.1,0.3,0.2,0.5,0.3c-0.1,0.9-0.1,1.8-0.1,2.7
		c1.1,0.7,2.3,1.3,3.4,2c0-0.9,0-1.8,0.1-2.7c0.1,0.1,0.3,0.2,0.4,0.2c0,1,0,1.9,0,2.8c1.4,0.8,2.8,1.5,4.1,2.4c0,0.1,0,0.3,0,0.4
		c-1.1-0.6-2.2-1.2-3.3-1.9c-10.6-6.1-21.2-12.2-31.8-18.3c0-0.1,0-0.3,0-0.4c1.1,0.6,2.2,1.2,3.3,1.9
		C244.1,197.4,244.1,196.6,244.1,195.7z"/>
	<path fill="#2F4758" d="M244.6,196c1.1,0.7,2.3,1.2,3.3,2c0,0.9-0.1,1.7-0.1,2.6c-0.9-0.5-1.8-0.9-2.7-1.5
		c-0.2-0.2-0.6-0.3-0.6-0.7C244.5,197.6,244.6,196.8,244.6,196z"/>
	<path fill="#C8C7C7" d="M291.2,198.6c0.7-0.8,1.2-1.8,2-2.6c0.5,0.7,1,1.4,1.5,2c0.1,1.2,0.1,2.4,0,3.7c0,15.5,0,31.1,0,46.6
		c-0.1,2.5,0.1,5,0,7.6c0.1,3.2,0,6.3,0,9.4c0,1.8-0.1,3.6,0.2,5.4c0,0.6,0.2,1.4-0.4,1.7c-1.3,0.9-2.8,1.6-4.1,2.4
		c-0.2-0.9-0.2-1.8-0.2-2.7c0.1-1.6-0.1-3.3,0-4.9c0.1-1.1,0.1-2,0-3.1c-0.2-1.8,0.1-3.7,0-5.5c-0.1-1.1-0.1-2.3,0-3.3
		c0.1-1.7-0.2-3.4,0-5.1c0.1-2-0.1-4,0-5.9c0.2-2.2-0.2-4.4,0-6.6c0.1-1.9-0.1-3.7,0-5.5c0.1-1.5-0.1-3-0.1-4.6c0.1-1.5,0.1-3,0-4.5
		c-0.1-1.5,0.2-3.2,0-4.7c-0.2-2.2,0.2-4.4,0-6.6c-0.1-1.6,0.2-3.3,0-5c-0.1-1.7-0.1-3.5,0.1-5.3c0.1-0.7,0.1-1.5,0.2-2.3
		C290.7,199.2,291,198.9,291.2,198.6z"/>
	<path fill="#664F38" d="M240.8,197c10.6,6.1,21.2,12.2,31.8,18.3c1.1,0.7,2.2,1.3,3.3,1.9v0.2c0,0.6,0,1.1,0,1.7
		c-1.5-0.7-2.8-1.5-4.1-2.3c-0.1-0.1-0.3-0.2-0.4-0.2c-1.1-0.7-2.3-1.4-3.5-2c-0.1-0.1-0.3-0.2-0.4-0.2c-1.1-0.7-2.3-1.3-3.4-2
		c-0.2-0.1-0.3-0.2-0.5-0.3c-1.1-0.7-2.3-1.3-3.4-2c-0.2-0.1-0.3-0.2-0.5-0.3c-1.1-0.7-2.3-1.3-3.4-2c-0.2-0.1-0.3-0.2-0.5-0.3
		c-1.1-0.7-2.3-1.3-3.4-2c-0.1-0.1-0.3-0.2-0.4-0.2c-1.1-0.7-2.2-1.4-3.4-2c-0.2-0.1-0.3-0.2-0.5-0.3c-1.1-0.7-2.2-1.3-3.4-2
		c-0.2-0.1-0.3-0.2-0.5-0.3c-1.1-0.7-2.3-1.3-3.4-2C240.7,198.2,240.8,197.5,240.8,197z"/>
	<path fill="#0B0C0F" d="M296.5,197.1c0.1-0.1,0.3-0.2,0.4-0.2c0.1,1.1,0,2.2,0,3.3c-0.5,0.3-1.1,0.7-1.6,0.9c0-0.1,0.1-0.3,0.2-0.4
		c0.4-0.2,0.8-0.4,1.1-0.8C296.7,199,296.5,198,296.5,197.1z"/>
	<path fill="#4D6F85" d="M295.3,197.7c0.3-0.2,0.7-0.4,1.1-0.7c0.1,0.9,0.2,1.9,0,2.8c-0.2,0.4-0.7,0.6-1.1,0.8
		C295.3,199.7,295.2,198.8,295.3,197.7z"/>
	<path fill="#2B4158" d="M256.3,197.5c1.1,0.7,2.3,1.2,3.4,2c0,0.9,0,1.8,0,2.7c-1.1-0.6-2.3-1.1-3.3-1.9
		C256,199.4,256.3,198.4,256.3,197.5z"/>
	<path fill="#283D55" d="M248.5,198.2c1.1,0.6,2.3,1.3,3.4,2c0,0.9,0,1.8-0.1,2.6c-1.1-0.6-2.4-1.1-3.3-2
		C248.4,200,248.5,199.1,248.5,198.2z"/>
	<path fill="#D6D7D7" d="M288.4,198.3c0.6,0.2,1.4,0.3,1.5,1.1c0.2,0.8,0.3,1.6,0.4,2.4c-0.2,1.7-0.2,3.5-0.1,5.3
		c0.1,1.6-0.2,3.3,0,5c0.2,2.2-0.2,4.4,0,6.6c0.1,1.5-0.1,3.2,0,4.7c0.1,1.5,0,3,0,4.5c-0.1,1.5,0.2,3,0.1,4.6
		c-0.2,1.9,0.1,3.7,0,5.5c-0.2,2.2,0.2,4.4,0,6.6c-0.1,2,0.1,4,0,5.9c-0.1,1.7,0.2,3.4,0,5.1c-0.1,1.1,0,2.3,0,3.3
		c0.1,1.8-0.2,3.7,0,5.5c0.1,1.1,0.1,2,0,3.1c-0.1,1.6,0.1,3.3,0,4.9c-0.1,0.9,0,1.8,0.2,2.7c-0.2,0.1-0.5,0.2-0.7,0.2
		c0.1-1.1,0.1-2.3,0.1-3.4c0-24.1,0-48.2,0-72.2c-0.3-0.2-0.7-0.5-1-0.7C288.6,198.6,288.5,198.4,288.4,198.3z"/>
	<path fill="#A7A6A6" d="M280.8,198.8c1,0.2,1.8,1,2.7,1.5c-0.4,0.2-0.9,0.4-1.3,0.6c-0.5-0.3-1.1-0.7-1.6-0.6
		c-0.1,0-0.2,0.1-0.4,0.1c-0.5-0.1-1.1-0.2-1.5-0.3C279.4,199.6,280,199.1,280.8,198.8z"/>
	<path fill="#2C4258" d="M240.7,198.8c1.1,0.7,2.3,1.3,3.4,2c0,0.9,0,1.8-0.1,2.6c-1.1-0.6-2.2-1.2-3.3-1.8
		C240.7,200.7,240.7,199.7,240.7,198.8z"/>
	<path fill="#A2A1A1" d="M283.4,201.5c1.7-0.8,3.3-2,5.1-2.7c0,23.6,0,47.2,0,70.8c0,1.5-0.1,3.1,0,4.6c-0.1,0.1-0.3,0.2-0.5,0.3
		c-1.5,0.7-3,1.7-4.6,2.4c-0.1-4.6,0-9-0.1-13.6c0-19.4,0-38.9,0-58.3c0-1.1,0-2-0.1-3.1C283.4,201.9,283.4,201.8,283.4,201.5z"/>
	<path fill="#393838" d="M288.5,198.9c0.1,0,0.2-0.1,0.3-0.1c0.3,0.2,0.7,0.5,1,0.7c0.1,24.1,0,48.2,0,72.2c0,1.1,0,2.3-0.1,3.4
		c-0.1-0.1-0.2-0.2-0.3-0.2c-0.1-9.9,0-19.9,0-29.9c0-13.8,0-27.7,0-41.5c0-1.4,0.1-2.7-0.1-4.1c-0.4,0.8-0.2,1.7-0.3,2.6
		c0,1.1-0.2,2.4-0.1,3.5c0.2,3.3,0.2,6.7,0,9.9c0,2.3,0.1,4.6,0.1,6.9c0,2.1-0.2,4.2-0.1,6.3c0,2.9,0.2,5.9,0.1,8.8
		c-0.2,2,0.1,4.1,0,6c0,2,0.2,3.8,0,5.8c-0.2,3.7,0.2,7.6,0,11.3c-0.2,4.6,0.4,9.2-0.2,13.7c-0.1-0.1-0.2-0.2-0.2-0.2
		c-0.1-1.5,0-3.1,0-4.6C288.5,246,288.5,222.5,288.5,198.9z"/>
	<path fill="#464545" d="M289,202.1c0-0.9-0.1-1.8,0.3-2.6c0.2,1.3,0.1,2.7,0.1,4.1c0,13.8,0,27.7,0,41.5c0,9.9-0.1,19.9,0,29.9
		c-0.2-0.2-0.4-0.3-0.7-0.5c0.7-4.6-0.1-9.1,0.2-13.7c0.2-3.7-0.2-7.6,0-11.3c0.2-2,0-3.8,0-5.8c0.1-2-0.2-4.1,0-6
		c0.2-2.9,0-5.9-0.1-8.8c-0.1-2.1,0.2-4.2,0.1-6.3c0-2.3-0.2-4.6-0.1-6.9c0.2-3.3,0.1-6.7,0-9.9C288.8,204.4,288.9,203.3,289,202.1z
		"/>
	<path fill="#283D54" d="M260.2,199.7c1.1,0.7,2.3,1.3,3.4,2c0,0.9,0,1.8,0,2.7c-1.2-0.6-2.4-1.2-3.5-2
		C260.1,201.6,260.1,200.7,260.2,199.7z"/>
	<path fill="#323131" d="M280.6,200.3c0.7-0.1,1.1,0.3,1.6,0.6c0.4,0.2,0.7,0.5,1.1,0.7c0,0.2,0,0.3,0,0.5c-0.1,7,0,14-0.1,21
		c0,16.6,0,33.3,0,49.9c0,1.2,0.1,2.4-0.2,3.6c-0.2-1.2-0.2-2.4-0.1-3.6c0-22.6,0-45.3,0-67.9c0-1.1,0.2-2.1-0.2-3.2
		c-0.5-0.6-1.2-0.7-1.9-1C280.8,200.6,280.7,200.5,280.6,200.3z"/>
	<path fill="#646464" d="M280.2,200.4c0.1,0,0.2-0.1,0.4-0.1c0.2,0.2,0.3,0.3,0.4,0.6c-0.1,1.1-0.2,2.1-0.1,3.2
		c-1.5,1.1-3.3,2-5,2.9c0-1.2-0.2-2.4-0.1-3.7c0-0.1,0.1-0.2,0.2-0.3C277.3,202,278.9,201.3,280.2,200.4z"/>
	<path fill="#304660" d="M252.4,200.4c1.1,0.6,2.3,1.3,3.4,2c0,0.9,0,1.8,0,2.7c-0.9-0.5-1.8-0.9-2.7-1.5c-0.2-0.2-0.6-0.3-0.6-0.7
		C252.3,202.1,252.4,201.2,252.4,200.4z"/>
	<path fill="#231D17" d="M244.1,200.8c0.2,0.1,0.3,0.2,0.5,0.3c-0.1,0.9-0.1,1.9,0,2.8c1.1,0.6,2.1,1.2,3.3,1.8
		c0-0.9,0.1-1.7,0.1-2.6c0.2,0.1,0.3,0.2,0.5,0.3c-0.1,0.9-0.1,1.8-0.1,2.7c1.1,0.7,2.2,1.4,3.3,2c0.1-0.9,0.1-1.8,0.1-2.6
		c0.1,0.1,0.3,0.2,0.4,0.2c0,0.9-0.2,2,0.2,2.8c0.9,0.8,2.1,1.3,3.2,1.9c0-0.9,0-1.8,0-2.7c0.2,0.1,0.3,0.2,0.5,0.3
		c0,0.8-0.2,1.6,0,2.5c0,0.2,0.2,0.4,0.5,0.6c0.9,0.6,2,1.1,2.9,1.6c0-0.9,0-1.8,0-2.7c0.2,0.1,0.3,0.2,0.5,0.3
		c-0.1,0.9-0.1,1.8-0.1,2.7c1.1,0.7,2.3,1.4,3.5,2c0-0.9,0-1.8,0-2.7c0.2,0.1,0.3,0.2,0.5,0.3c-0.1,0.9-0.1,1.8-0.1,2.7
		c1.1,0.7,2.3,1.3,3.4,2c0-0.9,0-1.8,0-2.7c0.1,0.1,0.3,0.2,0.4,0.2c0,0.9,0,1.9,0.1,2.8c1.1,0.7,2.2,1.4,3.4,2c0-0.9,0-1.8,0.1-2.7
		c0.1,0.1,0.3,0.2,0.4,0.2c0,1,0,1.9,0,2.8c1.4,0.8,2.8,1.5,4.1,2.4c0,0.1,0,0.3,0,0.4c-4.8-2.7-9.6-5.5-14.4-8.2
		c-6.9-4-13.8-8-20.7-12c0-0.1,0-0.3,0-0.4c1.1,0.6,2.2,1.2,3.3,1.8C244.1,202.6,244.1,201.7,244.1,200.8z"/>
	<path fill="#474646" d="M281,200.8c0.7,0.2,1.5,0.4,1.9,1c0.3,1.1,0.1,2.1,0.2,3.2c0,22.6,0,45.3,0,67.9c0,1.2-0.1,2.4,0.1,3.6
		c0.2-1.2,0.2-2.4,0.2-3.6c0-16.6,0-33.3,0-49.9c0-7-0.1-14,0.1-21c0.1,1.1,0.1,2,0.1,3.1c0,19.4,0,38.9,0,58.3
		c0,4.6-0.1,9,0.1,13.6c-0.8-0.5-1.7-1-2.5-1.5c0-2.7,0-5.3-0.1-7.9c0-0.1,0.1-0.3,0.2-0.4c0.4-1.1,0.2-2.4,0.2-3.5
		c0-18.7,0-37.5,0-56.2c0-1.1,0.2-2.3-0.3-3.3l-0.1-0.2C280.9,202.9,280.9,201.8,281,200.8z"/>
	<path fill="#2F4758" d="M244.6,201.1c1.1,0.6,2.3,1.2,3.4,2c0,0.9-0.1,1.7-0.1,2.6c-1.1-0.5-2.2-1.1-3.3-1.8
		C244.5,203,244.5,202,244.6,201.1z"/>
	<path fill="#664F38" d="M240.8,202.1c6.9,4,13.8,8,20.7,12c4.8,2.8,9.5,5.5,14.4,8.2v0.2c0,0.6,0,1.1,0,1.7
		c-1.5-0.7-2.8-1.5-4.1-2.3c-0.1-0.1-0.3-0.2-0.4-0.2c-1.1-0.7-2.3-1.4-3.5-2c-0.1-0.1-0.3-0.2-0.4-0.2c-1.1-0.7-2.3-1.4-3.5-2
		c-0.1-0.1-0.3-0.2-0.4-0.2c-1.1-0.7-2.3-1.3-3.4-2c-0.2-0.1-0.3-0.2-0.5-0.3c-1.1-0.7-2.3-1.3-3.4-2c-0.2-0.1-0.3-0.2-0.5-0.3
		c-1.1-0.7-2.3-1.3-3.4-2c-0.2-0.1-0.3-0.2-0.5-0.3c-1.1-0.7-2.2-1.3-3.3-1.9c-0.2-0.1-0.3-0.2-0.6-0.3c-1.1-0.7-2.2-1.3-3.3-2
		c-0.2-0.1-0.3-0.2-0.5-0.3c-1.1-0.7-2.3-1.4-3.4-2C240.7,203.3,240.8,202.7,240.8,202.1z"/>
	<path fill="#2F4758" d="M264.1,202c1.1,0.7,2.3,1.2,3.4,2c0,0.9,0,1.8,0,2.7c-1.2-0.6-2.3-1.2-3.4-2C264,203.8,264,202.9,264.1,202
		z"/>
	<path fill="#0B0F13" d="M286.4,202.3c0.1-0.1,0.2-0.2,0.4-0.3c0,1.1,0.2,2.4-0.1,3.5c-0.5,0.4-1.1,0.7-1.6,0.8
		c0.1-0.1,0.2-0.2,0.2-0.2c0.3-0.3,0.8-0.6,1.1-1C286.4,204.2,286.3,203.3,286.4,202.3z"/>
	<path fill="#395566" d="M285.1,203c0.4-0.2,0.8-0.4,1.2-0.7c-0.1,0.9,0.1,1.9-0.1,2.8c-0.2,0.4-0.7,0.7-1.1,1
		C285.1,205,285.1,204,285.1,203z"/>
	<path fill="#2B4158" d="M256.3,202.7c1.1,0.7,2.3,1.2,3.4,2c0,0.9,0,1.8,0,2.7c-1-0.5-2-1-2.9-1.6c-0.2-0.2-0.5-0.2-0.5-0.6
		C256.1,204.3,256.2,203.5,256.3,202.7z"/>
	<path fill="#090B0D" d="M296.5,203.1c0.1-0.1,0.3-0.2,0.4-0.2c0,1.1,0.2,2.2,0,3.3c-0.4,0.5-1.1,0.7-1.6,1c0.1-0.1,0.2-0.3,0.2-0.4
		c0.4-0.2,0.8-0.4,1.1-0.8C296.7,204.9,296.5,204,296.5,203.1z"/>
	<path fill="#4C7085" d="M295.3,203.8c0.2-0.4,0.7-0.5,1.1-0.7c0.1,0.9,0.2,1.9,0,2.8c-0.2,0.3-0.7,0.6-1.1,0.8
		C295.3,205.7,295.2,204.8,295.3,203.8z"/>
	<path fill="#283D55" d="M248.5,203.3c1.1,0.6,2.3,1.3,3.4,2c0,0.9,0,1.8-0.1,2.6c-1.1-0.6-2.3-1.2-3.3-2
		C248.4,205.1,248.5,204.2,248.5,203.3z"/>
	<path fill="#2C4258" d="M240.7,204c1.1,0.7,2.3,1.3,3.4,2c0,0.9,0,1.8-0.1,2.6c-1.1-0.6-2.2-1.2-3.3-1.8
		C240.7,205.8,240.7,204.9,240.7,204z"/>
	<path fill="#C89B6D" d="M275.9,206.9c1.6-1,3.4-1.8,5-2.9l0.1,0.2c0,0.6,0,1.2,0,1.8c-1.7,1-3.3,2-5,2.9
		C275.9,208.2,275.9,207.5,275.9,206.9z"/>
	<path fill="#323232" d="M281,204.2c0.5,1.1,0.2,2.2,0.3,3.3c0,18.7,0,37.5,0,56.2c0,1.1,0.2,2.4-0.2,3.5c0-0.5-0.1-1-0.1-1.5
		c-0.1-1.1-0.1-2.2-0.1-3.3c0-0.7,0-1.3,0-2c0-1.1,0-2.1,0-3.2c0-0.7,0-1.3,0-2c0-1.1,0-2.1,0-3.2c0-0.7,0-1.3,0-2
		c0-1.1,0-2.1,0-3.3c0-0.7,0-1.3,0-2c0-1.1,0-2.1,0-3.2c0-0.7,0-1.3,0.1-1.9c0-1.1,0-2.2,0-3.3c0-0.7,0-1.2,0-1.9c0-1.1,0-2.2,0-3.3
		c0-0.7,0-1.2,0-1.9c0-1.1,0-2.2,0-3.3c0-0.7,0-1.2,0-1.9c0-1.1,0-2.2,0-3.3c0-0.7,0-1.2,0-1.9c0-1.1,0-2.2,0-3.3c0-0.7,0-1.2,0-1.9
		c0-1.1,0-2.2,0-3.3c0-0.7,0-1.2,0-1.9c0-1.1,0-2.2,0-3.3C280.9,205.3,281,204.8,281,204.2z"/>
	<path fill="#283D54" d="M267.9,204.3c1.1,0.7,2.3,1.3,3.4,2c0,0.9,0,1.8,0,2.7c-1.1-0.6-2.3-1.2-3.4-2
		C267.8,206.1,267.8,205.2,267.9,204.3z"/>
	<path fill="#283D54" d="M260.2,204.9c1.1,0.7,2.3,1.3,3.4,2c0,0.9,0,1.8,0,2.7c-1.2-0.6-2.4-1.3-3.5-2
		C260.1,206.7,260.1,205.8,260.2,204.9z"/>
	<path fill="#304660" d="M252.4,205.5c1.1,0.6,2.3,1.3,3.4,2c0,0.9,0,1.8,0,2.7c-1.1-0.6-2.3-1.1-3.2-1.9
		C252.2,207.5,252.4,206.5,252.4,205.5z"/>
	<path fill="#231D17" d="M244.1,205.9c0.2,0.1,0.3,0.2,0.5,0.3c-0.1,0.8-0.2,1.6,0,2.4c0,0.3,0.3,0.5,0.6,0.7c0.9,0.6,1.8,1,2.7,1.5
		c0-0.9,0.1-1.7,0.1-2.6c0.2,0.1,0.3,0.2,0.6,0.3c0,0.9-0.2,1.8,0,2.6c0.9,0.9,2.2,1.4,3.3,2c0.1-0.9,0.1-1.8,0-2.7
		c0.2,0.1,0.3,0.2,0.5,0.3c0,0.9-0.2,2,0.2,2.8c0.9,0.8,2.1,1.3,3.2,1.9c0-0.9,0-1.8,0-2.7c0.2,0.1,0.3,0.2,0.5,0.3
		c0,0.9-0.1,1.8-0.1,2.7c1.1,0.7,2.3,1.4,3.4,2c0-0.9,0-1.8,0-2.7c0.2,0.1,0.3,0.2,0.5,0.3c-0.1,0.9-0.1,1.8-0.1,2.7
		c1.1,0.7,2.3,1.4,3.5,2c0-0.9,0-1.8,0-2.7c0.1,0.1,0.3,0.2,0.4,0.2c0,0.9,0,1.9,0,2.8c1.1,0.7,2.3,1.3,3.4,2c0-0.9,0-1.8,0-2.7
		c0.1,0.1,0.3,0.2,0.4,0.2c0,0.9,0,1.9,0,2.8c1.1,0.7,2.3,1.3,3.4,2c0-0.9,0-1.8,0.1-2.7c0.1,0.1,0.3,0.2,0.4,0.2c0,0.9,0,1.9,0,2.8
		c1.4,0.8,2.8,1.5,4.1,2.4c0,0.1,0,0.3,0,0.4c-4.8-2.7-9.6-5.5-14.4-8.2c-6.9-4-13.8-8-20.7-12c0-0.1,0-0.3,0-0.4
		c1.1,0.6,2.2,1.2,3.3,1.8C244.1,207.7,244.1,206.8,244.1,205.9z"/>
	<path fill="#5685AF" d="M275.9,208.8c1.7-1,3.3-2,5-2.9c0,1.1,0,2.2,0,3.3c-1.7,1-3.4,1.9-5,2.9v-0.2c0-0.1,0-0.3,0-0.4
		C275.9,210.7,275.9,209.8,275.9,208.8z"/>
	<path fill="#304758" d="M244.6,206.2c1.1,0.6,2.3,1.2,3.3,2c0,0.9-0.1,1.7-0.1,2.6c-0.9-0.5-1.8-0.9-2.7-1.5
		c-0.2-0.2-0.6-0.3-0.6-0.7C244.5,207.9,244.6,207,244.6,206.2z"/>
	<path fill="#2A4057" d="M271.7,206.5c1.4,0.8,2.8,1.5,4.1,2.4c0,0.9,0,1.8,0,2.7c-1.3-0.8-2.8-1.5-4.1-2.4
		C271.7,208.3,271.7,207.4,271.7,206.5z"/>
	<path fill="#664F38" d="M240.8,207.2c6.9,4,13.8,8,20.7,12c4.8,2.8,9.5,5.5,14.4,8.2v0.2c0,0.6,0,1.1,0,1.7
		c-1.4-0.7-2.8-1.5-4.1-2.3c-0.1-0.1-0.3-0.2-0.4-0.2c-1.1-0.7-2.3-1.4-3.5-2c-0.1-0.1-0.3-0.2-0.4-0.2c-1.1-0.7-2.3-1.4-3.5-2
		c-0.1-0.1-0.3-0.2-0.4-0.2c-1.1-0.7-2.3-1.3-3.4-2c-0.2-0.1-0.3-0.2-0.5-0.3c-1.1-0.7-2.3-1.3-3.4-2c-0.2-0.1-0.3-0.2-0.5-0.3
		c-1.1-0.7-2.3-1.3-3.4-2c-0.2-0.1-0.3-0.2-0.5-0.3c-1.1-0.7-2.2-1.3-3.3-1.9c-0.2-0.1-0.3-0.2-0.5-0.3c-1.1-0.7-2.2-1.3-3.3-2
		c-0.2-0.1-0.3-0.2-0.5-0.3c-1.1-0.7-2.3-1.4-3.4-2C240.7,208.4,240.8,207.8,240.8,207.2z"/>
	<path fill="#2F4758" d="M264.1,207.1c1.1,0.7,2.3,1.2,3.4,2c0,0.9,0,1.8,0,2.7c-1.1-0.6-2.3-1.2-3.4-2
		C264,208.9,264,208,264.1,207.1z"/>
	<path fill="#2B4158" d="M256.3,207.8c1.1,0.7,2.3,1.3,3.4,2c0,0.9,0,1.8,0,2.7c-1-0.5-2-1-2.9-1.6c-0.2-0.2-0.4-0.2-0.5-0.6
		C256.1,209.4,256.2,208.6,256.3,207.8z"/>
	<path fill="#0B0E13" d="M286.3,208.3c0.1-0.1,0.3-0.2,0.4-0.2c0,1.1,0,2.4,0,3.5c-0.6,0.3-1.1,0.7-1.7,0.8c0.1-0.1,0.2-0.2,0.2-0.3
		c0.3-0.3,0.8-0.6,1.1-1C286.4,210.1,286.4,209.2,286.3,208.3z"/>
	<path fill="#3A5667" d="M285.1,208.9c0.4-0.2,0.7-0.4,1.1-0.7c0,0.9,0.2,1.9-0.1,2.8c-0.2,0.4-0.7,0.7-1.1,1
		C285.1,211,285.1,210,285.1,208.9z"/>
	<path fill="#283D55" d="M248.5,208.4c1.1,0.6,2.2,1.2,3.3,1.9c0.1,0.9,0.1,1.8,0,2.7c-1.1-0.7-2.4-1.1-3.3-2
		C248.4,210.2,248.5,209.3,248.5,208.4z"/>
	<path fill="#0A0C0F" d="M296.5,209c0.1-0.1,0.3-0.2,0.4-0.2c0,1.1,0.2,2.2,0,3.3c-0.4,0.5-1.1,0.7-1.6,0.9c0.1-0.1,0.2-0.3,0.2-0.4
		c0.4-0.2,0.8-0.4,1.1-0.8C296.6,211,296.5,210,296.5,209z"/>
	<path fill="#2C4258" d="M240.7,209.1c1.1,0.7,2.3,1.3,3.4,2c0,0.9,0,1.8-0.1,2.6c-1.1-0.6-2.2-1.2-3.3-1.8
		C240.7,211,240.7,210.1,240.7,209.1z"/>
	<path fill="#4B6F85" d="M295.3,209.7c0.3-0.3,0.7-0.5,1.1-0.7c0.1,0.9,0.2,1.9,0,2.8c-0.2,0.3-0.7,0.6-1.1,0.8
		C295.3,211.7,295.2,210.7,295.3,209.7z"/>
	<path fill="#C89B6B" d="M275.9,212.2c1.6-1.1,3.3-2,5-2.9c0,0.7,0,1.2,0,1.9c-1.7,1-3.3,2-5,2.9
		C275.9,213.4,275.9,212.8,275.9,212.2z"/>
	<path fill="#283D54" d="M267.9,209.4c1.1,0.7,2.3,1.2,3.4,2c0,0.9,0,1.8-0.1,2.7c-1.1-0.6-2.3-1.2-3.4-2
		C267.8,211.2,267.8,210.3,267.9,209.4z"/>
	<path fill="#283D54" d="M260.2,210.1c1.1,0.7,2.3,1.3,3.4,2c0,0.9,0,1.8,0,2.7c-1.2-0.6-2.4-1.3-3.5-2
		C260.1,211.9,260.1,211,260.2,210.1z"/>
	<path fill="#304660" d="M252.4,210.6c1.1,0.7,2.3,1.3,3.4,2c0,0.9,0,1.8,0,2.7c-1.1-0.6-2.2-1.1-3.2-1.9
		C252.2,212.6,252.4,211.6,252.4,210.6z"/>
	<path fill="#231D17" d="M244.1,211c0.2,0.1,0.3,0.2,0.5,0.3c-0.1,0.8-0.2,1.6,0,2.4c0,0.3,0.3,0.5,0.6,0.7c0.9,0.6,1.8,1,2.7,1.5
		c0-0.9,0.1-1.7,0.1-2.6c0.2,0.1,0.3,0.2,0.5,0.3c-0.1,0.9-0.1,1.8,0,2.7c1.1,0.7,2.2,1.4,3.3,2c0.1-0.9,0.1-1.8,0-2.7
		c0.2,0.1,0.3,0.2,0.5,0.3c0,0.9-0.2,2,0.2,2.8c0.9,0.8,2.1,1.3,3.2,1.9c0-0.9,0-1.8,0-2.7c0.2,0.1,0.3,0.2,0.5,0.3
		c0,0.9-0.1,1.8-0.1,2.7c1.1,0.7,2.3,1.4,3.4,2c0-0.9,0-1.8,0-2.7c0.2,0.1,0.3,0.2,0.5,0.3c-0.1,0.9-0.1,1.8-0.1,2.7
		c1.1,0.7,2.3,1.4,3.5,2c0-0.9,0-1.8,0-2.7c0.1,0.1,0.3,0.2,0.4,0.2c0,0.9,0,1.9,0,2.8c1.1,0.7,2.3,1.3,3.4,2c0-0.9,0-1.8,0-2.7
		c0.1,0.1,0.3,0.2,0.4,0.2c0,0.9,0,1.9,0,2.8c1.1,0.7,2.3,1.3,3.4,2c0-0.9,0-1.8,0.1-2.7c0.1,0.1,0.3,0.2,0.4,0.2c0,0.9,0,1.9,0,2.8
		c1.4,0.8,2.8,1.5,4.1,2.4c0,0.1,0,0.3,0,0.4c-3.9-2.1-7.6-4.4-11.6-6.6c-7.9-4.6-15.7-9-23.6-13.6c0-0.1,0-0.3,0-0.4
		c1.1,0.6,2.2,1.2,3.3,1.8C244.1,212.8,244.1,211.9,244.1,211z"/>
	<path fill="#5685AF" d="M275.9,214c1.7-1,3.3-2,5-2.9c0,1.1,0,2.2,0,3.3c-1.7,1-3.4,1.9-5,2.9v-0.2c0-0.1,0-0.3,0-0.4
		C275.9,215.8,275.9,214.9,275.9,214z"/>
	<path fill="#304758" d="M244.6,211.4c1.1,0.7,2.3,1.2,3.3,2c0,0.9-0.1,1.7-0.1,2.6c-0.9-0.5-1.8-0.9-2.7-1.5
		c-0.2-0.2-0.6-0.3-0.6-0.7C244.5,213,244.6,212.2,244.6,211.4z"/>
	<path fill="#2A4057" d="M271.7,211.6c1.4,0.8,2.8,1.5,4.1,2.4c0,0.9,0,1.8,0,2.8c-1.3-0.9-2.8-1.5-4.1-2.4
		C271.7,213.5,271.7,212.5,271.7,211.6z"/>
	<path fill="#664F38" d="M240.8,212.3c7.9,4.6,15.7,9,23.6,13.6c3.8,2.2,7.6,4.5,11.6,6.6v0.2c0,0.6,0,1.1,0,1.6
		c-1.4-0.7-2.8-1.5-4.1-2.3c-0.1-0.1-0.3-0.2-0.4-0.2c-1.1-0.7-2.3-1.4-3.5-2c-0.1-0.1-0.3-0.2-0.4-0.2c-1.1-0.7-2.3-1.4-3.5-2
		c-0.1-0.1-0.3-0.2-0.4-0.2c-1.1-0.7-2.3-1.3-3.4-2c-0.2-0.1-0.3-0.2-0.5-0.3c-1.1-0.7-2.3-1.3-3.4-2c-0.2-0.1-0.3-0.2-0.5-0.3
		c-1.1-0.7-2.3-1.3-3.4-2c-0.2-0.1-0.3-0.2-0.5-0.3c-1.1-0.7-2.2-1.3-3.3-1.9c-0.2-0.1-0.3-0.2-0.5-0.3c-1.1-0.7-2.2-1.3-3.3-2
		c-0.2-0.1-0.3-0.2-0.5-0.3c-1.1-0.7-2.2-1.4-3.4-2C240.7,213.6,240.8,212.9,240.8,212.3z"/>
	<path fill="#2F4758" d="M264.1,212.3c1.1,0.7,2.3,1.2,3.4,2c0,0.9,0,1.8,0,2.7c-1.1-0.6-2.3-1.2-3.4-2
		C264,214,264,213.2,264.1,212.3z"/>
	<path fill="#2B4158" d="M256.3,212.9c1.1,0.7,2.3,1.2,3.4,2c0,0.9,0,1.8,0,2.7c-1.1-0.6-2.3-1.2-3.4-2
		C256.2,214.7,256.2,213.8,256.3,212.9z"/>
	<path fill="#283D55" d="M248.5,213.6c1.1,0.6,2.2,1.2,3.3,1.9c0.1,0.9,0.1,1.8,0,2.7c-1.2-0.6-2.3-1.2-3.3-2
		C248.4,215.3,248.5,214.5,248.5,213.6z"/>
	<path fill="#080B0F" d="M286.3,214.2c0.1-0.1,0.3-0.2,0.4-0.2c0,1.1,0,2.4,0,3.5c-0.5,0.2-1,0.5-1.4,0.8c0-0.1,0.1-0.2,0.1-0.3
		c0.2-0.3,0.6-0.6,0.9-0.9C286.5,216.1,286.4,215.2,286.3,214.2z"/>
	<path fill="#2C4258" d="M240.7,214.2c1.1,0.7,2.3,1.3,3.4,2c0,0.9,0,1.8-0.1,2.6c-1.1-0.6-2.2-1.2-3.3-1.8
		C240.7,216.1,240.7,215.2,240.7,214.2z"/>
	<path fill="#395364" d="M285.1,214.9c0.4-0.2,0.7-0.4,1.1-0.7c0,0.9,0.2,1.9-0.1,2.8c-0.2,0.3-0.6,0.6-0.9,0.9
		c0,0.1-0.1,0.2-0.1,0.3l-0.1,0.2C285.1,217.2,285.2,216.1,285.1,214.9z"/>
	<path fill="#283D54" d="M267.8,214.5c1.1,0.7,2.4,1.3,3.5,2c0,0.9,0,1.8-0.1,2.7c-1.1-0.6-2.3-1.2-3.4-2
		C267.8,216.3,267.8,215.3,267.8,214.5z"/>
	<path fill="#C99A6A" d="M275.9,217.3c1.6-1.1,3.3-2,5-2.9c0,0.7,0,1.2,0,1.9c-1.7,1-3.4,1.9-5,2.9V219
		C275.9,218.4,275.9,217.9,275.9,217.3z"/>
	<path fill="#090B0D" d="M296.5,215c0.1-0.1,0.3-0.2,0.4-0.2c0,1.1,0.2,2.2,0,3.3c-0.3,0.6-1.1,0.7-1.6,0.9c0.1-0.1,0.2-0.3,0.2-0.4
		c0.4-0.2,0.8-0.4,1.1-0.8C296.7,216.9,296.5,215.9,296.5,215z"/>
	<path fill="#4A6D82" d="M295.3,215.8c0.2-0.4,0.7-0.5,1.1-0.7c0.1,0.9,0.2,1.9,0,2.8c-0.2,0.3-0.7,0.6-1.1,0.8
		C295.3,217.6,295.2,216.7,295.3,215.8z"/>
	<path fill="#283D54" d="M260.2,215.2c1.1,0.7,2.3,1.3,3.4,2c0,0.9,0,1.8,0,2.7c-1.2-0.6-2.4-1.3-3.5-2
		C260.1,217,260.1,216.1,260.2,215.2z"/>
	<path fill="#304660" d="M252.4,215.8c1.1,0.7,2.3,1.3,3.4,2c0,0.9,0,1.8,0,2.7c-1.1-0.6-2.3-1.1-3.2-1.9
		C252.1,217.7,252.4,216.7,252.4,215.8z"/>
	<path fill="#231E17" d="M244.1,216.2c0.2,0.1,0.3,0.2,0.5,0.3c0,0.9-0.2,1.8,0.1,2.6c0.9,0.9,2.1,1.3,3.3,2c0-0.9,0.1-1.7,0.1-2.6
		c0.2,0.1,0.3,0.2,0.5,0.3c-0.1,0.9-0.1,1.8-0.1,2.7c1.1,0.7,2.2,1.4,3.4,2c0.1-0.9,0-1.8,0-2.7c0.2,0.1,0.3,0.2,0.5,0.3
		c0,0.9-0.2,2,0.2,2.8c0.9,0.8,2.1,1.2,3.2,1.9c0-0.9,0-1.8,0-2.7c0.2,0.1,0.3,0.2,0.5,0.3c0,0.9-0.1,1.8,0,2.7
		c1.1,0.7,2.2,1.4,3.4,2c0-0.9,0-1.8,0-2.7c0.2,0.1,0.3,0.2,0.5,0.3c-0.1,0.9-0.1,1.8-0.1,2.7c1.1,0.7,2.3,1.4,3.4,2
		c0-0.9,0-1.8,0-2.8c0.1,0.1,0.3,0.2,0.4,0.2c0,0.9,0,1.9,0,2.8c1.1,0.7,2.3,1.3,3.4,2c0-0.9,0-1.8,0-2.7c0.1,0.1,0.3,0.2,0.4,0.2
		c0,0.9,0,1.9,0,2.8c1.1,0.7,2.2,1.3,3.4,2c0-0.9,0-1.8,0.1-2.7c0.1,0.1,0.3,0.2,0.4,0.2c0,1,0,1.9,0,2.8c1.4,0.8,2.8,1.5,4.1,2.4
		c0,0.1,0,0.3,0,0.4c-5-2.8-9.8-5.6-14.6-8.4c-6.8-3.9-13.7-7.9-20.4-11.8c0-0.1,0-0.3,0-0.4c1.1,0.6,2.2,1.2,3.3,1.8
		C244.1,218,244.1,217.1,244.1,216.2z"/>
	<path fill="#5685AF" d="M275.9,219.2c1.6-1.1,3.3-2,5-2.9c0,1.1,0,2.2,0,3.3c-1.7,0.9-3.4,1.9-5,2.9v-0.2c0-0.1,0-0.3,0-0.4
		C275.9,221,275.9,220.1,275.9,219.2z"/>
	<path fill="#304758" d="M244.6,216.5c1.1,0.6,2.3,1.2,3.3,2c0,0.9-0.1,1.7-0.1,2.6c-1.1-0.7-2.4-1.1-3.3-2
		C244.5,218.2,244.6,217.3,244.6,216.5z"/>
	<path fill="#2A4057" d="M271.7,216.7c1.4,0.7,2.7,1.6,4.1,2.3v0.2c0,0.9,0,1.8,0,2.7c-1.3-0.9-2.8-1.5-4.1-2.4
		C271.7,218.6,271.7,217.6,271.7,216.7z"/>
	<path fill="#2F4758" d="M264,217.3c1.1,0.7,2.4,1.3,3.5,2c0,0.9,0,1.8,0,2.7c-1.1-0.6-2.3-1.2-3.4-2C264,219.2,264,218.3,264,217.3
		z"/>
	<path fill="#664F38" d="M240.8,217.5c6.8,3.9,13.7,7.9,20.4,11.8c4.9,2.8,9.8,5.7,14.6,8.4v0.2c0,0.6,0,1.1,0,1.6
		c-1.4-0.7-2.8-1.5-4.1-2.3c-0.1-0.1-0.3-0.2-0.4-0.2c-1.1-0.7-2.3-1.4-3.5-2c-0.1-0.1-0.3-0.2-0.4-0.2c-1.1-0.7-2.3-1.4-3.5-2
		c-0.1-0.1-0.3-0.2-0.4-0.2c-1.1-0.7-2.3-1.3-3.4-2c-0.2-0.1-0.3-0.2-0.5-0.3c-1.1-0.7-2.3-1.3-3.4-2c-0.2-0.1-0.3-0.2-0.5-0.3
		c-1.1-0.7-2.3-1.3-3.4-2c-0.2-0.1-0.3-0.2-0.5-0.3c-1.1-0.7-2.2-1.3-3.3-1.9c-0.2-0.1-0.3-0.2-0.5-0.3c-1.1-0.7-2.2-1.3-3.4-2
		c-0.2-0.1-0.3-0.2-0.5-0.3c-1.1-0.7-2.2-1.4-3.4-2C240.7,218.7,240.8,218,240.8,217.5z"/>
	<path fill="#2B4158" d="M256.3,218c1.1,0.7,2.3,1.2,3.4,2c0,0.9,0,1.8,0,2.7c-1.1-0.6-2.3-1.2-3.4-2
		C256.2,219.8,256.2,218.9,256.3,218z"/>
	<path fill="#283D55" d="M248.5,218.8c1.1,0.6,2.2,1.2,3.3,1.9c0.1,0.9,0.1,1.8,0,2.7c-1.2-0.6-2.3-1.2-3.4-2
		C248.4,220.5,248.5,219.6,248.5,218.8z"/>
	<path fill="#2C4258" d="M240.7,219.3c1.1,0.7,2.3,1.3,3.4,2c0,0.9,0,1.8-0.1,2.6c-1.1-0.6-2.2-1.2-3.3-1.8
		C240.7,221.2,240.7,220.3,240.7,219.3z"/>
	<path fill="#283D54" d="M267.8,219.6c1.1,0.7,2.4,1.3,3.5,2c0,0.9,0,1.8-0.1,2.7c-1.1-0.6-2.3-1.2-3.4-2
		C267.8,221.5,267.8,220.5,267.8,219.6z"/>
	<path fill="#C89B6B" d="M275.9,222.4c1.6-1.1,3.3-2,5-2.9c0,0.7,0,1.2,0,1.9c-1.7,1-3.4,1.9-5,2.9v-0.2
		C275.9,223.6,275.9,223,275.9,222.4z"/>
	<path fill="#0B0E12" d="M286.3,220.2c0.1-0.1,0.3-0.2,0.4-0.2c0,1.1,0,2.4,0,3.5c-0.6,0.3-1.1,0.7-1.7,0.8c0.1-0.1,0.2-0.2,0.2-0.3
		c0.3-0.3,0.8-0.6,1.1-1C286.4,222,286.4,221.1,286.3,220.2z"/>
	<path fill="#395464" d="M285.1,220.8c0.4-0.2,0.7-0.4,1.1-0.7c0,0.9,0.2,1.9,0,2.8c-0.2,0.4-0.7,0.7-1.1,1
		C285.1,222.9,285.1,221.9,285.1,220.8z"/>
	<path fill="#283D54" d="M260.2,220.3c1.1,0.7,2.3,1.3,3.4,2c0,0.9,0,1.8,0,2.7c-1.2-0.6-2.4-1.3-3.5-2
		C260.1,222.1,260.1,221.2,260.2,220.3z"/>
	<path fill="#4B6F84" d="M295.3,221.6c0.4-0.2,0.9-0.6,1.4-0.7c-0.2,1,0,2-0.2,2.9c-0.2,0.3-0.7,0.6-1.1,0.8
		C295.2,223.6,295.3,222.6,295.3,221.6z"/>
	<path fill="#080A0C" d="M296.6,220.8l0.1-0.2c0.2,1.1,0.2,2.3,0.1,3.4c-0.4,0.5-1.1,0.7-1.6,1c0.1-0.1,0.2-0.3,0.2-0.4
		c0.4-0.2,0.8-0.4,1.1-0.8C296.6,222.8,296.5,221.8,296.6,220.8z"/>
	<path fill="#304660" d="M252.4,220.9c1.1,0.7,2.3,1.2,3.4,2c0,0.9,0,1.8,0,2.7c-1.1-0.6-2.2-1.1-3.2-1.9
		C252.1,222.8,252.4,221.9,252.4,220.9z"/>
	<path fill="#231D17" d="M244.1,221.3c0.2,0.1,0.3,0.2,0.5,0.3c-0.1,0.9-0.1,1.8,0,2.7c1.1,0.7,2.2,1.4,3.3,1.9
		c0-0.9,0.1-1.7,0.1-2.6c0.2,0.1,0.3,0.2,0.5,0.3c-0.1,0.9-0.1,1.8-0.1,2.7c1.1,0.7,2.2,1.4,3.4,2c0.1-0.9,0.1-1.8,0-2.7
		c0.2,0.1,0.3,0.2,0.5,0.3c0,0.9-0.2,2,0.2,2.8c0.9,0.8,2.1,1.2,3.2,1.9c0-0.9,0-1.8,0-2.7c0.2,0.1,0.3,0.2,0.5,0.3
		c0,0.8-0.2,1.6,0,2.5c0,0.2,0.3,0.4,0.5,0.5c0.9,0.7,2,1.1,2.9,1.6c0-0.9,0-1.8,0-2.7c0.2,0.1,0.3,0.2,0.5,0.3
		c-0.1,0.9-0.1,1.8-0.1,2.7c1.1,0.7,2.3,1.4,3.4,2c0-0.9,0-1.8,0-2.8c0.1,0.1,0.3,0.2,0.4,0.2c0,0.9,0,1.9,0.1,2.8
		c1.1,0.7,2.2,1.3,3.4,2c0-0.9,0-1.8,0-2.7c0.1,0.1,0.3,0.2,0.4,0.2c0,0.9,0,1.9,0,2.8c1.1,0.7,2.2,1.3,3.4,2c0-0.9,0-1.8,0.1-2.7
		c0.1,0.1,0.3,0.2,0.4,0.2c0,0.9,0,1.9,0,2.8c1.4,0.8,2.8,1.5,4.1,2.4c0,0.1,0,0.3,0,0.4c-4.6-2.5-9-5.2-13.6-7.8
		c-7.2-4.1-14.3-8.3-21.5-12.4c0-0.1,0-0.3,0-0.4c1.1,0.6,2.2,1.2,3.3,1.8C244.1,223.1,244.1,222.2,244.1,221.3z"/>
	<path fill="#5685AF" d="M275.9,224.3c1.6-1.1,3.3-2,5-2.9c0,1.1,0,2.2,0,3.3c-1.7,0.9-3.4,1.9-5,2.9v-0.2c0-0.1,0-0.3,0-0.4
		C275.9,226.1,275.9,225.2,275.9,224.3z"/>
	<path fill="#304758" d="M244.6,221.6c1.1,0.6,2.3,1.2,3.4,2c0,0.9-0.1,1.7-0.1,2.6c-1.1-0.6-2.3-1.2-3.3-1.9
		C244.5,223.4,244.6,222.5,244.6,221.6z"/>
	<path fill="#2A4057" d="M271.7,221.9c1.4,0.7,2.7,1.6,4.1,2.3v0.2c0,0.9,0,1.8,0,2.7c-1.3-0.9-2.8-1.5-4.1-2.4
		C271.7,223.7,271.7,222.8,271.7,221.9z"/>
	<path fill="#2F4758" d="M264,222.4c1.1,0.7,2.4,1.3,3.5,2c0,0.9,0,1.8,0,2.7c-1.1-0.6-2.3-1.2-3.4-2C264,224.3,264,223.4,264,222.4
		z"/>
	<path fill="#664F38" d="M240.8,222.6c7.2,4.1,14.3,8.3,21.5,12.4c4.6,2.6,9,5.3,13.6,7.8v0.2c0,0.6,0,1.1,0,1.7
		c-1.4-0.7-2.8-1.5-4.1-2.4c-0.1-0.1-0.3-0.2-0.4-0.2c-1.1-0.7-2.3-1.4-3.5-2c-0.1-0.1-0.3-0.2-0.4-0.2c-1.1-0.7-2.3-1.4-3.5-2
		c-0.1-0.1-0.3-0.2-0.4-0.2c-1.1-0.7-2.3-1.3-3.4-2c-0.2-0.1-0.3-0.2-0.5-0.3c-1.1-0.7-2.3-1.4-3.5-2c-0.1-0.1-0.3-0.2-0.4-0.2
		c-1.1-0.7-2.3-1.3-3.4-2c-0.2-0.1-0.3-0.2-0.5-0.3c-1.1-0.7-2.2-1.3-3.3-1.9c-0.2-0.1-0.3-0.2-0.5-0.3c-1.1-0.7-2.2-1.3-3.3-2
		c-0.2-0.1-0.4-0.2-0.6-0.3c-1.1-0.7-2.2-1.3-3.3-1.9C240.7,223.8,240.8,223.2,240.8,222.6z"/>
	<path fill="#2B4158" d="M256.3,223.2c1.1,0.7,2.3,1.2,3.4,2c0,0.9,0,1.8,0,2.7c-1.1-0.6-2.3-1.2-3.4-2
		C256.2,225,256.2,224.1,256.3,223.2z"/>
	<path fill="#283D55" d="M248.5,223.9c1.1,0.6,2.2,1.2,3.3,1.9c0.1,0.9,0.1,1.8,0,2.7c-1.1-0.6-2.3-1.2-3.4-2
		C248.4,225.6,248.4,224.7,248.5,223.9z"/>
	<path fill="#2C4258" d="M240.7,224.5c1.1,0.7,2.2,1.2,3.3,1.9c0.1,0.9,0.1,1.8,0,2.7c-1.1-0.6-2.2-1.2-3.3-1.8
		C240.7,226.3,240.7,225.4,240.7,224.5z"/>
	<path fill="#283D54" d="M267.8,224.7c1.1,0.7,2.4,1.3,3.5,2c0,0.9,0,1.8-0.1,2.7c-1.1-0.6-2.3-1.3-3.4-2
		C267.8,226.6,267.8,225.6,267.8,224.7z"/>
	<path fill="#C89A6A" d="M275.9,227.6c1.6-1.1,3.3-2,5-2.9c0,0.7,0,1.2,0,1.9c-1.7,0.9-3.4,1.9-5,2.9v-0.2
		C275.9,228.7,275.9,228.1,275.9,227.6z"/>
	<path fill="#283D54" d="M260.2,225.4c1.1,0.7,2.3,1.3,3.4,2c0,0.9,0,1.8,0,2.8c-1.2-0.6-2.3-1.3-3.4-2
		C260.1,227.2,260.1,226.3,260.2,225.4z"/>
	<path fill="#0B0E12" d="M286.3,226.2c0.1-0.1,0.3-0.2,0.4-0.2c0,1.1,0,2.4,0,3.5c-0.6,0.3-1.1,0.7-1.7,0.8c0.1-0.1,0.2-0.2,0.2-0.3
		c0.3-0.3,0.8-0.6,1.1-1C286.4,228,286.4,227.1,286.3,226.2z"/>
	<path fill="#304660" d="M252.4,226c1.1,0.7,2.3,1.2,3.4,2c0,0.9,0,1.8,0,2.7c-1.1-0.6-2.2-1.1-3.2-1.9
		C252.2,228,252.4,227,252.4,226z"/>
	<path fill="#395564" d="M285.1,226.8c0.4-0.2,0.7-0.4,1.1-0.7c0,0.9,0.2,1.9,0,2.8c-0.2,0.4-0.7,0.7-1.1,1
		C285.1,228.9,285.1,227.8,285.1,226.8z"/>
	<path fill="#231E17" d="M244.1,226.3c0.2,0.1,0.4,0.2,0.6,0.3c-0.1,0.9-0.1,1.8-0.1,2.7c1.1,0.7,2.2,1.3,3.3,1.9
		c0-0.9,0.1-1.7,0.1-2.6c0.2,0.1,0.3,0.2,0.5,0.3c-0.1,0.9-0.1,1.8,0,2.7c1.1,0.7,2.2,1.4,3.3,2c0.1-0.9,0.1-1.8,0-2.7
		c0.2,0.1,0.3,0.2,0.5,0.3c0,0.8-0.1,1.7,0.1,2.5c0.1,0.3,0.4,0.5,0.7,0.7c0.9,0.6,1.8,1,2.7,1.5c0-0.9,0-1.8,0-2.7
		c0.1,0.1,0.3,0.2,0.4,0.2c0,0.9,0.1,1.9,0.1,2.8c1.1,0.7,2.2,1.3,3.4,2c0-0.9,0-1.8,0-2.7c0.2,0.1,0.3,0.2,0.5,0.3
		c-0.1,0.9-0.1,1.8-0.1,2.7c1.1,0.7,2.3,1.4,3.4,2c0-0.9,0.1-1.8,0-2.8c0.1,0.1,0.3,0.2,0.4,0.2c0,0.9,0,1.9,0.1,2.8
		c1.1,0.7,2.2,1.3,3.4,2c0-0.9,0-1.8,0.1-2.7c0.1,0.1,0.3,0.2,0.4,0.2c0,0.9,0,1.9,0,2.8c1.1,0.7,2.2,1.3,3.4,2c0-0.9,0-1.8,0.1-2.7
		c0.1,0.1,0.3,0.2,0.4,0.2c0,0.9,0,1.9,0,2.8c1.4,0.8,2.8,1.5,4.1,2.4c0,0.1,0,0.3,0,0.4c-11.7-6.8-23.4-13.5-35.2-20.3
		c0-0.1,0-0.3,0-0.4c1.1,0.6,2.2,1.2,3.3,1.8C244.1,228.2,244.1,227.3,244.1,226.3z"/>
	<path fill="#5685AF" d="M275.9,229.4c1.6-1.1,3.3-2,5-2.9c0,1.1,0,2.2,0,3.3c-1.7,0.9-3.4,1.9-5,2.9v-0.2c0-0.1,0-0.3,0-0.4
		C275.9,231.2,275.9,230.3,275.9,229.4z"/>
	<path fill="#2F4758" d="M244.6,226.7c1.1,0.7,2.3,1.3,3.3,2c0,0.9-0.1,1.7-0.1,2.6c-1.1-0.6-2.3-1.2-3.3-1.9
		C244.5,228.5,244.6,227.6,244.6,226.7z"/>
	<path fill="#4C6E84" d="M295.2,227.6c0.5-0.3,0.9-0.6,1.4-0.8c-0.2,1,0,2-0.2,2.9c-0.2,0.4-0.7,0.6-1.1,0.8
		C295.3,229.5,295.2,228.6,295.2,227.6z"/>
	<path fill="#0B0C0F" d="M296.6,226.8l0.1-0.2c0.2,1.1,0.2,2.3,0.1,3.4c-0.3,0.6-1.1,0.7-1.6,1c0.1-0.1,0.2-0.3,0.2-0.4
		c0.3-0.2,0.8-0.4,1.1-0.8C296.6,228.8,296.5,227.7,296.6,226.8z"/>
	<path fill="#2A4057" d="M271.7,227c1.4,0.7,2.7,1.6,4.1,2.3v0.2c0,0.9,0,1.8,0,2.7c-1.3-0.9-2.8-1.5-4.1-2.4
		C271.7,228.9,271.7,227.9,271.7,227z"/>
	<path fill="#2F4758" d="M264,227.6c1.1,0.7,2.4,1.3,3.5,2c0,0.9,0,1.8,0,2.7c-1.1-0.6-2.3-1.2-3.4-2C264,229.4,264,228.5,264,227.6
		z"/>
	<path fill="#664F38" d="M240.8,227.7c11.7,6.8,23.4,13.5,35.2,20.3c0,0.7,0,1.2,0,1.9c-1.4-0.7-2.8-1.5-4.1-2.4
		c-0.1-0.1-0.3-0.2-0.4-0.2c-1.1-0.7-2.3-1.4-3.5-2c-0.1-0.1-0.3-0.2-0.4-0.2c-1.1-0.7-2.3-1.4-3.5-2c-0.1-0.1-0.3-0.2-0.4-0.2
		c-1.1-0.7-2.4-1.4-3.5-2c-0.1-0.1-0.3-0.2-0.4-0.2c-1.1-0.7-2.3-1.4-3.5-2c-0.1-0.1-0.3-0.2-0.4-0.2c-1.1-0.7-2.3-1.3-3.4-2
		c-0.2-0.1-0.3-0.2-0.5-0.3c-1.1-0.7-2.2-1.3-3.3-1.9c-0.2-0.1-0.4-0.2-0.6-0.3c-1.1-0.7-2.2-1.3-3.3-1.9c-0.2-0.1-0.4-0.2-0.6-0.3
		c-1.1-0.7-2.2-1.3-3.3-1.9C240.8,228.9,240.8,228.4,240.8,227.7z"/>
	<path fill="#2B4158" d="M256.3,228.3c1.1,0.7,2.3,1.2,3.4,2c0,0.9,0,1.8,0,2.7c-1-0.6-2-1-2.9-1.6c-0.2-0.2-0.4-0.2-0.5-0.5
		C256.1,230,256.2,229.1,256.3,228.3z"/>
	<path fill="#283D55" d="M248.5,229c1.1,0.6,2.2,1.2,3.3,1.9c0.1,0.9,0.1,1.8,0,2.7c-1.1-0.6-2.3-1.2-3.3-2
		C248.4,230.7,248.4,229.9,248.5,229z"/>
	<path fill="#2C4258" d="M240.7,229.6c1.1,0.6,2.2,1.2,3.3,1.9c0.1,0.9,0.1,1.8,0,2.7c-1.1-0.6-2.3-1.2-3.3-1.9c0-0.6,0-1.1-0.1-1.7
		C240.7,230.2,240.7,229.9,240.7,229.6z"/>
	<path fill="#283D54" d="M267.8,229.8c1.1,0.7,2.4,1.3,3.5,2c0,0.9,0,1.8-0.1,2.7c-1.1-0.6-2.3-1.3-3.4-2
		C267.8,231.7,267.8,230.7,267.8,229.8z"/>
	<path fill="#C99A6A" d="M275.9,232.7c1.6-1.1,3.3-2,5-2.9c0,0.7,0,1.2,0,1.9c-1.7,0.9-3.4,1.9-5,2.9v-0.2
		C275.9,233.8,275.9,233.3,275.9,232.7z"/>
	<path fill="#F4F4F4" d="M240.3,237.2c0.5-2.2,0.1-4.4,0.4-6.6c0,0.6,0,1.1,0.1,1.7c0,0.2,0,0.4,0,0.6c0,0.7,0,1.2,0,1.9
		c0,1,0,1.9,0,2.8c0,0.1,0,0.3,0,0.4c0,0.7,0,1.3,0,1.9c0,0.9,0,1.8,0,2.7c-0.2,0.6-0.4,1.1-0.7,1.7c-2.2,0.2-4.4,0.5-6.5,1
		c-2.4,0.2-4.6,1.1-6.8,1.8c-0.9,0.2-0.9,1.4-1.5,2c-0.4,0.4-1.1,0.5-1.2,1.1c-0.4,1.4,0.7,2.6,1.5,3.7c0.7,1.2,1.8,2.2,2.7,3.3
		c0.7,0.8,1.5,1.3,2.3,2c1.2,1.3,2.8,2.2,4.1,3.3c1.5,1.1,3.2,2,4.7,3.1c1.5,1,3.3,1.5,4.8,2.4c1.2,0.7,2.5,1.2,3.7,1.8
		c1.5,0.7,3.2,1,4.7,1.6c1.7,0.7,3.6,1.1,5.4,1.5c4.6,1.1,9.2,2.1,13.8,3c0.1,0.3,0.2,0.7,0.2,1.1c0.4,0,0.9,0,1.3,0
		c0.1-0.3,0.2-0.7,0.2-1.1c1.7-0.1,3.5,0,5,0.7c0.7-0.4,1.5-0.7,2.2-1.1c0.8,0.5,1.7,1,2.5,1.5c1.5-0.7,3-1.7,4.6-2.4
		c-1,0.9-2.3,1.5-3.4,2.2c-0.5,0.2-1.1,0.7-1.6,0.3c-0.8-0.2-1.5-1.1-2.4-0.7c-0.6,0.2-1.1,0.6-1.8,0.7c-1.1,0-2-0.2-3.1-0.1
		c-0.8,0-1.7,0.2-2.5,0.4c-0.6,0.1-1.1-0.2-1.7-0.4c-1.1-0.4-2.3-0.3-3.4-0.5c-2-0.2-3.8-0.7-5.8-1c-1.5-0.2-3-0.7-4.6-1
		c-2.9-0.5-5.9-1.3-8.7-2c-2.5-0.6-5-1.4-7.6-1.8c-1.2-0.2-2.4-0.6-3.6-1.1c-1.3-0.7-2.9-0.6-4.1-1.5c-0.8-0.6-1.7-0.9-2.7-1.1
		c-1.3-0.2-2.3-1.1-3.3-1.7c-0.8-0.4-1.5-0.9-2.3-1.5c-1-0.7-2.1-1.1-3.2-1.7c-1.1-0.6-1.8-1.6-2.7-2.4c-0.7-0.6-1.1-1.5-1.4-2.3
		c-1.4-0.4-2.3-1.7-3.3-2.7v-12.9c1.1-0.3,2.2-0.9,3.3-1.3c1.5-0.5,3.3-0.6,4.9-0.7c1.1-0.1,2.3-0.5,3.4-0.5c2.2,0,4.3-1,6.5-0.7
		c1,0.2,2-0.3,2.8-0.6c1-0.1,2,0.3,3,0.1C239.3,238.1,240.1,237.9,240.3,237.2z"/>
	<path fill="#283D54" d="M260.2,230.6c1.1,0.7,2.3,1.3,3.4,2c0,0.9,0,1.8,0,2.8c-1.2-0.6-2.3-1.3-3.4-2
		C260.1,232.4,260.1,231.5,260.2,230.6z"/>
	<path fill="#304660" d="M252.4,231.1c1.1,0.7,2.3,1.3,3.4,2c0,0.9,0,1.8,0,2.7c-0.9-0.5-1.8-0.9-2.7-1.5c-0.2-0.2-0.6-0.3-0.7-0.7
		C252.3,232.8,252.4,232,252.4,231.1z"/>
	<path fill="#231D17" d="M244.1,231.5c0.2,0.1,0.4,0.2,0.6,0.3c-0.1,0.9-0.1,1.8,0,2.7c1.1,0.7,2.2,1.4,3.3,1.9c0-0.9,0-1.8,0-2.7
		c0.2,0.1,0.4,0.2,0.6,0.3c-0.1,0.9-0.1,1.8,0,2.7c1.1,0.7,2.2,1.4,3.3,2c0.1-0.9,0.1-1.8,0-2.8c0.2,0.1,0.3,0.2,0.5,0.3
		c0,0.9-0.2,1.8,0.2,2.7c0.9,0.9,2.1,1.4,3.3,2c0-0.9,0-1.8,0-2.7c0.1,0.1,0.3,0.2,0.4,0.2c0,0.9,0,1.9,0.1,2.8
		c1.1,0.7,2.3,1.3,3.4,2c0-0.9,0-1.8,0-2.7c0.1,0.1,0.3,0.2,0.4,0.2c0,0.9,0,1.9,0,2.8c1.1,0.7,2.3,1.4,3.4,2c0-0.9,0.1-1.8,0-2.8
		c0.1,0.1,0.3,0.2,0.4,0.2c0,0.9,0,1.9,0,2.8c1.1,0.7,2.2,1.3,3.4,2c0-0.9,0-1.8,0.1-2.7c0.1,0.1,0.3,0.2,0.4,0.2c0,0.9,0,1.9,0,2.8
		c1.1,0.7,2.2,1.3,3.4,2c0-0.9,0-1.8,0.1-2.7c0.1,0.1,0.3,0.2,0.4,0.2c0,0.9,0,1.9,0,2.8c1.4,0.7,2.7,1.6,4.1,2.2c0,0.2,0,0.5,0,0.7
		c-7.5-4.4-15-8.6-22.5-12.9c-4.2-2.4-8.4-4.9-12.7-7.2c0-0.2,0-0.4,0-0.6c1.1,0.7,2.2,1.4,3.3,1.9
		C244.1,233.3,244.1,232.4,244.1,231.5z"/>
	<path fill="#5685AF" d="M275.9,234.6c1.6-1.1,3.3-2,5-2.9c0,1.1,0,2.2,0,3.3c-1.7,0.9-3.4,1.9-5,2.9v-0.2c0-0.1,0-0.3,0-0.4
		C275.9,236.3,275.9,235.4,275.9,234.6z"/>
	<path fill="#304758" d="M244.6,231.9c1.1,0.7,2.2,1.2,3.3,1.9c0,0.9,0,1.8,0,2.7c-1.1-0.6-2.3-1.2-3.3-1.9
		C244.5,233.7,244.6,232.8,244.6,231.9z"/>
	<path fill="#0A0E12" d="M286.4,232.1c0.1-0.1,0.3-0.2,0.4-0.2c0,1.1,0,2.4,0,3.5c-0.6,0.3-1.1,0.7-1.7,0.8c0.1-0.1,0.1-0.2,0.2-0.3
		c0.3-0.3,0.7-0.5,1.1-0.7C286.4,234.1,286.4,233.1,286.4,232.1z"/>
	<path fill="#2A4057" d="M271.7,232.1c1.4,0.7,2.7,1.6,4.1,2.3v0.2c0,0.9,0,1.8,0,2.7c-1.3-0.9-2.8-1.5-4.1-2.4
		C271.7,234,271.7,233,271.7,232.1z"/>
	<path fill="#395566" d="M285.1,232.8c0.4-0.2,0.7-0.4,1.1-0.7c0.1,1,0.1,2,0,2.9c-0.4,0.2-0.7,0.5-1.1,0.7
		C285.1,234.8,285.1,233.7,285.1,232.8z"/>
	<path fill="#2F4758" d="M264,232.7c1.1,0.7,2.4,1.3,3.5,2c0,0.9,0,1.8,0,2.7c-1.1-0.6-2.3-1.2-3.4-2C264,234.6,264,233.7,264,232.7
		z"/>
	<path fill="#0B0E10" d="M296.5,232.8c0.1-0.1,0.3-0.2,0.4-0.2c0,1.1,0.2,2.2,0,3.3c-0.3,0.6-1.1,0.7-1.6,1c0-0.1,0.1-0.3,0.2-0.5
		c0.4-0.2,0.7-0.4,1.1-0.6C296.5,234.9,296.5,233.8,296.5,232.8z"/>
	<path fill="#664F38" d="M240.8,232.8c4.2,2.4,8.5,4.9,12.7,7.2c7.5,4.3,15,8.6,22.5,12.9c0,0.7,0,1.2,0,1.9
		c-1.4-0.7-2.8-1.5-4.1-2.4c-0.1-0.1-0.3-0.2-0.4-0.2c-1.1-0.7-2.3-1.4-3.5-2c-0.1-0.1-0.3-0.2-0.4-0.2c-1.1-0.7-2.3-1.4-3.5-2
		c-0.1-0.1-0.3-0.2-0.4-0.2c-1.1-0.7-2.4-1.4-3.5-2c-0.1-0.1-0.3-0.2-0.4-0.2c-1.1-0.7-2.3-1.4-3.5-2c-0.1-0.1-0.3-0.2-0.4-0.2
		c-1.1-0.7-2.3-1.3-3.4-2c-0.2-0.1-0.3-0.2-0.5-0.3c-1.1-0.7-2.2-1.3-3.3-1.9c-0.2-0.1-0.4-0.2-0.6-0.3c-1.1-0.7-2.2-1.3-3.3-1.9
		c-0.2-0.1-0.4-0.2-0.6-0.3c-1.1-0.7-2.2-1.3-3.3-1.9C240.7,234.1,240.8,233.5,240.8,232.8z"/>
	<path fill="#4B6F84" d="M295.3,233.6c0.2-0.4,0.7-0.5,1.1-0.7c0.1,1,0.1,2,0,3c-0.4,0.2-0.7,0.4-1.1,0.6
		C295.3,235.4,295.2,234.6,295.3,233.6z"/>
	<path fill="#2B4158" d="M256.2,233.3c1.1,0.7,2.4,1.3,3.5,2c0,0.9,0,1.8,0,2.7c-1.1-0.6-2.3-1.2-3.4-2
		C256.2,235.2,256.2,234.3,256.2,233.3z"/>
	<path fill="#283D55" d="M248.5,234.1c1.1,0.7,2.2,1.2,3.3,1.9c0.1,0.9,0.1,1.8,0,2.8c-1.1-0.6-2.3-1.2-3.3-2
		C248.4,235.9,248.4,235,248.5,234.1z"/>
	<path fill="#2C4258" d="M240.7,234.7c1.1,0.7,2.2,1.2,3.3,1.9c0.1,0.9,0.1,1.8,0,2.7c-1.1-0.6-2.2-1.2-3.3-1.8
		C240.7,236.6,240.7,235.7,240.7,234.7z"/>
	<path fill="#283D54" d="M267.8,235c1.1,0.7,2.4,1.3,3.5,2c0,0.9,0,1.8-0.1,2.7c-1.1-0.6-2.3-1.3-3.4-2
		C267.8,236.8,267.8,235.9,267.8,235z"/>
	<path fill="#C89A6A" d="M275.9,237.8c1.6-1.1,3.3-2,5-2.9c0,0.7,0,1.2,0,1.9c-1.7,0.9-3.4,1.9-5,2.9v-0.2
		C275.9,238.9,275.9,238.4,275.9,237.8z"/>
	<path fill="#283D54" d="M260.2,235.7c1.1,0.7,2.3,1.3,3.4,2c0,0.9,0,1.8,0,2.8c-1.2-0.6-2.3-1.3-3.4-2
		C260.1,237.5,260.1,236.6,260.2,235.7z"/>
	<path fill="#304660" d="M252.4,236.3c1.1,0.7,2.3,1.3,3.4,2c0,0.9,0,1.8,0,2.7c-1.1-0.7-2.4-1.1-3.3-2
		C252.2,238.1,252.4,237.2,252.4,236.3z"/>
	<path fill="#231E17" d="M244.1,236.7c0.2,0.1,0.4,0.2,0.6,0.3c-0.1,0.9-0.1,1.8-0.1,2.7c1.1,0.7,2.2,1.4,3.3,1.9c0-0.9,0-1.8,0-2.7
		c0.2,0.1,0.4,0.2,0.6,0.3c-0.1,0.9-0.1,1.8,0,2.7c1.1,0.7,2.2,1.4,3.3,2c0.1-0.9,0-1.8,0-2.7c0.2,0.1,0.3,0.2,0.5,0.3
		c0,0.9-0.2,1.8,0.2,2.7c0.9,0.9,2.1,1.4,3.3,2c0-0.9,0-1.8,0-2.7c0.1,0.1,0.3,0.2,0.4,0.2c0,0.9,0.1,1.9,0.1,2.8
		c1.1,0.7,2.2,1.4,3.4,2c0-0.9,0-1.8,0-2.7c0.1,0.1,0.3,0.2,0.4,0.2c0,0.9,0,1.9,0,2.8c1.1,0.7,2.3,1.4,3.4,2c0-0.9,0.1-1.8,0-2.8
		c0.1,0.1,0.3,0.2,0.4,0.2c0,0.9,0,1.9,0,2.8c1.1,0.7,2.2,1.3,3.4,2c0-0.9,0-1.8,0.1-2.7c0.1,0.1,0.3,0.2,0.4,0.2c0,0.9,0,1.9,0,2.8
		c1.1,0.7,2.3,1.3,3.4,2c0-0.9,0-1.8,0.1-2.7c0.1,0.1,0.3,0.2,0.4,0.2c0,1,0,1.9,0,2.8c1.4,0.7,2.7,1.5,4.1,2.2c0,0.2,0,0.5,0,0.7
		c-11.7-6.8-23.4-13.5-35.1-20.3c0-0.1,0-0.3,0-0.4c1.1,0.6,2.2,1.2,3.3,1.8C244.1,238.5,244.1,237.6,244.1,236.7z"/>
	<path fill="#5685AF" d="M275.9,239.7c1.6-1.1,3.3-2,5-2.9c0,1.1,0,2.2,0,3.3c-1.7,1-3.4,1.9-5,2.9v-0.2c0-0.1,0-0.3,0-0.4
		C275.9,241.5,275.9,240.6,275.9,239.7z"/>
	<path fill="#304758" d="M244.6,237c1.1,0.7,2.2,1.2,3.3,1.9c0,0.9,0,1.8,0,2.7c-1.1-0.6-2.3-1.2-3.3-1.9
		C244.5,238.8,244.6,237.9,244.6,237z"/>
	<path fill="#2A4057" d="M271.7,237.2c1.4,0.7,2.7,1.6,4.1,2.3v0.2c0,0.9,0,1.8,0,2.7c-1.3-0.9-2.8-1.5-4.1-2.4
		C271.7,239.1,271.7,238.1,271.7,237.2z"/>
	<path fill="#2F4758" d="M264,237.9c1.1,0.7,2.3,1.3,3.5,2c0,0.9,0,1.8-0.1,2.7c-1.1-0.6-2.3-1.2-3.4-2
		C264,239.7,264,238.8,264,237.9z"/>
	<path fill="#080B0E" d="M286.3,238.1c0.1-0.1,0.3-0.2,0.4-0.2c0,1.1,0,2.4,0,3.5c-0.5,0.2-0.9,0.5-1.4,0.8c0-0.1,0.1-0.2,0.1-0.3
		c0.3-0.3,0.7-0.6,0.9-0.9C286.5,239.9,286.4,238.9,286.3,238.1z"/>
	<path fill="#664F38" d="M240.8,238c11.7,6.8,23.4,13.5,35.1,20.3c0,0.7,0,1.2,0,1.9c-1.4-0.7-2.8-1.5-4.1-2.4
		c-0.1-0.1-0.3-0.2-0.4-0.2c-1.1-0.7-2.3-1.4-3.5-2c-0.1-0.1-0.3-0.2-0.4-0.2c-1.1-0.7-2.3-1.4-3.5-2c-0.1-0.1-0.3-0.2-0.4-0.2
		c-1.1-0.7-2.4-1.4-3.5-2c-0.1-0.1-0.3-0.2-0.4-0.2c-1.1-0.7-2.3-1.4-3.5-2c-0.1-0.1-0.3-0.2-0.4-0.2c-1.1-0.7-2.3-1.3-3.4-2
		c-0.2-0.1-0.3-0.2-0.5-0.3c-1.1-0.7-2.2-1.3-3.3-1.9c-0.2-0.1-0.4-0.2-0.6-0.3c-1.1-0.7-2.2-1.3-3.3-1.9c-0.2-0.1-0.4-0.2-0.6-0.3
		c-1.1-0.7-2.2-1.3-3.3-1.9C240.7,239.2,240.8,238.6,240.8,238z"/>
	<path fill="#385464" d="M285.1,238.7c0.4-0.2,0.7-0.4,1.1-0.7c0,0.9,0.2,1.9,0,2.8c-0.2,0.3-0.6,0.7-0.9,0.9c0,0.1-0.1,0.2-0.1,0.3
		l-0.1,0.2C285.1,241.1,285.2,239.9,285.1,238.7z"/>
	<path fill="#2B4158" d="M256.2,238.5c1.1,0.7,2.4,1.3,3.5,2c0,0.9,0,1.8,0,2.7c-1.1-0.6-2.3-1.2-3.4-2
		C256.2,240.3,256.2,239.4,256.2,238.5z"/>
	<path fill="#0A0C0F" d="M296.5,238.9c0.1-0.1,0.2-0.2,0.4-0.2c0,1.1,0.2,2.2,0,3.3c-0.3,0.6-1.1,0.7-1.6,1c0.1-0.2,0.2-0.3,0.2-0.5
		c0.4-0.2,0.7-0.4,1.1-0.6C296.5,240.8,296.5,239.8,296.5,238.9z"/>
	<path fill="#4B6C80" d="M295.3,239.6c0.2-0.3,0.7-0.5,1.1-0.7c0.1,1,0.1,2,0,2.9c-0.4,0.2-0.7,0.4-1.1,0.6
		C295.3,241.5,295.2,240.5,295.3,239.6z"/>
	<path fill="#283D55" d="M248.5,239.2c1.1,0.7,2.2,1.2,3.3,1.9c0.1,0.9,0.1,1.8,0,2.7c-1.1-0.6-2.3-1.2-3.3-2
		C248.4,241.1,248.4,240.1,248.5,239.2z"/>
	<path fill="#2C4258" d="M240.7,239.8c1.1,0.6,2.2,1.2,3.3,1.9c0.1,0.9,0.1,1.8,0,2.7c-1.1-0.6-2.3-1.2-3.3-2
		C240.8,241.6,240.7,240.7,240.7,239.8z"/>
	<path fill="#283D54" d="M267.8,240.1c1.1,0.7,2.4,1.3,3.5,2c0,0.9,0,1.8-0.1,2.7c-1.1-0.6-2.3-1.3-3.4-2
		C267.8,242,267.8,241.1,267.8,240.1z"/>
	<path fill="#C99A6A" d="M275.9,242.9c1.6-1.1,3.3-2,5-2.9c0,0.7,0,1.3-0.1,1.9c-1.7,0.9-3.3,2-5,2.8
		C275.9,244.2,275.9,243.5,275.9,242.9z"/>
	<path fill="#283D54" d="M260.1,240.7c1.1,0.7,2.4,1.4,3.5,2c0,0.9,0,1.8,0,2.8c-1.1-0.6-2.3-1.3-3.4-2
		C260.1,242.6,260.1,241.6,260.1,240.7z"/>
	<path fill="#304660" d="M252.4,241.5c1.1,0.7,2.3,1.3,3.4,2c0,0.9,0,1.8,0,2.7c-1.1-0.7-2.4-1.1-3.3-2
		C252.2,243.3,252.4,242.3,252.4,241.5z"/>
	<path fill="#231E17" d="M244.1,241.8c0.2,0.1,0.4,0.2,0.6,0.3c-0.1,0.9-0.1,1.8-0.1,2.7c1.1,0.7,2.2,1.4,3.3,1.9c0-0.9,0-1.8,0-2.7
		c0.2,0.1,0.4,0.2,0.6,0.3c-0.1,0.9-0.1,1.8,0,2.7c1.1,0.7,2.2,1.4,3.3,2c0.1-0.9,0-1.8,0-2.7c0.2,0.1,0.3,0.2,0.5,0.3
		c0,0.9-0.1,1.8,0.2,2.7c0.9,0.9,2.1,1.4,3.3,2c0-0.9,0-1.8,0-2.7c0.1,0.1,0.3,0.2,0.4,0.2c0,0.9,0,1.9,0.1,2.8
		c1.1,0.7,2.2,1.3,3.4,2c0-0.9,0-1.8,0.1-2.7c0.1,0.1,0.3,0.2,0.4,0.2c0,0.9,0,1.9,0,2.8c1.1,0.7,2.3,1.3,3.4,2c0-0.9,0.1-1.8,0-2.8
		c0.1,0.1,0.3,0.2,0.4,0.2c0,0.9,0,1.9,0,2.8c1.1,0.7,2.2,1.3,3.4,2c0-0.9,0-1.8,0.1-2.7c0.1,0.1,0.3,0.2,0.4,0.2c0,0.9,0,1.9,0,2.8
		c1.1,0.7,2.3,1.3,3.4,2c0-0.9,0-1.8,0.1-2.7c0.1,0.1,0.3,0.2,0.4,0.2c0,0.8-0.1,1.6,0,2.4c0,0.4,0.4,0.6,0.7,0.7
		c1.1,0.7,2.3,1.2,3.4,1.8c0,0.2,0,0.5,0,0.7c-6.3-3.7-12.5-7.2-18.8-10.9c-5.5-3.1-10.8-6.3-16.4-9.4c0-0.2,0-0.5,0-0.6
		c1.1,0.7,2.2,1.4,3.3,2C244.1,243.6,244.1,242.7,244.1,241.8z"/>
	<path fill="#5784AF" d="M275.9,244.7c1.7-0.8,3.3-1.9,5-2.8c0,1.1,0,2.1,0,3.2c-1.6,1-3.3,2-5,2.8c0-0.1,0-0.3,0-0.4
		C275.9,246.6,275.9,245.6,275.9,244.7z"/>
	<path fill="#304758" d="M244.6,242.1c1.1,0.7,2.2,1.2,3.3,1.9c0,0.9,0,1.8,0,2.7c-1.1-0.6-2.3-1.2-3.3-1.9
		C244.5,243.9,244.6,243,244.6,242.1z"/>
	<path fill="#2A4057" d="M271.7,242.4c1.4,0.7,2.8,1.5,4.1,2.4c0,1,0,1.9,0,2.8c-1.3-0.9-2.8-1.5-4.1-2.4
		C271.7,244.2,271.7,243.3,271.7,242.4z"/>
	<path fill="#E6E6E6" d="M240.1,244.2c0.2-0.6,0.5-1.1,0.7-1.7c0,0.2,0,0.5,0,0.6c0,0.7,0,1.2,0,1.9v0.2c-0.3,0.6-0.7,1.4-1.5,1.5
		c-1.1,0.1-2.1,0.2-3.1,0.7c-1.5,0.8-3.3,0.8-4.7,1.6c-0.7,0.4-1.3,0.7-1.7,1.3c-0.3,0.8-0.3,1.6-0.5,2.5c0.7,1.3,1.1,2.8,2.1,4.1
		c0.8,1.1,2,1.8,3.1,2.7c1.2,1,2.5,1.9,3.6,2.9c3.3,2.8,7.1,5,11.1,6.5c1.7,0.7,3.4,1.4,5.1,2c2.5,1,5.2,1.5,7.7,2.3
		c1.7,0.6,3.6,0.8,5.3,1.2c1.5,0.4,3,0.6,4.6,1.1c0,0.1,0,0.2,0.1,0.4c-4.6-0.9-9.3-1.9-13.8-3c-1.8-0.6-3.7-0.8-5.4-1.5
		c-1.5-0.7-3.2-1-4.7-1.6c-1.3-0.6-2.5-1.1-3.7-1.8c-1.5-0.8-3.3-1.4-4.8-2.4c-1.5-1.1-3.3-2-4.7-3.1c-1.4-1.1-2.9-2-4.1-3.3
		c-0.7-0.7-1.6-1.2-2.3-2c-0.9-1.1-2-2-2.7-3.3c-0.7-1.1-1.8-2.3-1.5-3.7c0.1-0.7,0.8-0.8,1.2-1.1c0.6-0.7,0.5-1.8,1.5-2
		c2.2-0.7,4.4-1.6,6.8-1.8C235.7,244.7,237.9,244.4,240.1,244.2z"/>
	<path fill="#2F4758" d="M264,243c1.1,0.7,2.4,1.3,3.5,2c0,0.9,0,1.8-0.1,2.7c-1.1-0.6-2.3-1.2-3.4-2C264,244.8,264,243.9,264,243z"
		/>
	<path fill="#664F38" d="M240.7,243.1c5.5,3.1,10.9,6.3,16.4,9.4c6.3,3.7,12.5,7.2,18.8,10.9c0,0.7,0,1.2,0,1.9
		c-1.4-0.7-2.8-1.5-4.1-2.4c-0.1-0.1-0.3-0.2-0.4-0.2c-1.1-0.7-2.3-1.4-3.5-2c-0.1-0.1-0.3-0.2-0.4-0.2c-1.1-0.7-2.3-1.4-3.5-2
		c-0.1-0.1-0.3-0.2-0.4-0.2c-1.1-0.7-2.4-1.4-3.5-2c-0.1-0.1-0.3-0.2-0.4-0.2c-1.1-0.7-2.3-1.4-3.5-2c-0.1-0.1-0.3-0.2-0.4-0.2
		c-1.1-0.7-2.2-1.3-3.3-2c-0.2-0.1-0.4-0.2-0.6-0.3c-1.1-0.7-2.2-1.3-3.3-1.9c-0.2-0.1-0.4-0.2-0.6-0.3c-1.1-0.7-2.2-1.3-3.3-1.9
		c-0.2-0.1-0.4-0.2-0.6-0.3c-1.1-0.7-2.2-1.3-3.3-1.9C240.8,244.4,240.8,243.7,240.7,243.1z"/>
	<path fill="#2B4158" d="M256.2,243.6c1.1,0.7,2.4,1.3,3.5,2c0,0.9,0,1.8,0,2.7c-1.1-0.6-2.3-1.2-3.4-2
		C256.2,245.5,256.2,244.6,256.2,243.6z"/>
	<path fill="#070A0D" d="M286.3,244c0.1-0.1,0.3-0.2,0.5-0.2c0,1.1,0,2.4,0,3.5c-0.5,0.2-1,0.5-1.4,0.8c0-0.1,0.1-0.2,0.1-0.3
		c0.3-0.3,0.7-0.6,0.9-0.9c0.2-0.9,0.1-1.8,0-2.6L286.3,244z"/>
	<path fill="#3C5767" d="M285.1,244.6c0.4-0.2,0.7-0.3,1.1-0.5c0,0.9,0.2,1.8,0,2.6c-0.2,0.3-0.6,0.7-0.9,0.9c0,0.1-0.1,0.2-0.1,0.3
		l-0.1,0.2C285.1,247,285.2,245.9,285.1,244.6z"/>
	<path fill="#283D55" d="M248.5,244.4c1.1,0.7,2.2,1.2,3.3,1.9c0.1,0.9,0.1,1.8,0,2.7c-1.1-0.6-2.3-1.2-3.3-2
		C248.4,246.2,248.4,245.3,248.5,244.4z"/>
	<path fill="#0A0C0F" d="M296.5,244.8c0.1-0.1,0.2-0.2,0.4-0.2c0,1.1,0.2,2.2,0,3.3c-0.3,0.6-1.1,0.7-1.7,0.9
		c0.1-0.1,0.2-0.3,0.3-0.4c0.3-0.2,0.7-0.4,1.1-0.7C296.5,246.8,296.5,245.8,296.5,244.8z"/>
	<path fill="#4C6D83" d="M295.3,245.5c0.3-0.3,0.7-0.5,1.1-0.7c0.1,1,0.1,2,0,2.9c-0.3,0.2-0.7,0.4-1.1,0.7
		C295.3,247.4,295.2,246.4,295.3,245.5z"/>
	<path fill="#2C4258" d="M240.7,245c1.1,0.7,2.2,1.2,3.3,1.9c0.1,0.9,0.1,1.8,0,2.7c-1.1-0.6-2.3-1.2-3.3-1.9c0-0.8,0-1.7,0-2.5V245
		z"/>
	<path fill="#DDDDDD" d="M239.3,246.6c0.8,0,1.1-0.8,1.5-1.5c0,0.8,0,1.7,0,2.5c0,0.2,0,0.4,0,0.6s0,0.5,0,0.6
		c-0.2,0.6-0.4,1.1-0.7,1.7c-1.1,0.2-2.4,0.7-3.1,1.6c-0.7,0.8-1.4,1.9-1.1,3c0.2,1.5,1.4,2.7,2.3,3.9c0.8,1.3,2.4,1.9,3.3,3.1
		c1,1.1,2.3,1.6,3.4,2.5c1.7,1.3,3.7,2.1,5.5,3.1c3.6,2,7.4,3.5,11.4,4.6c3.3,1.1,6.8,1.9,10.2,2.6c0,0.2,0,0.5,0,0.6
		c-1.5-0.5-3-0.7-4.6-1.1c-1.8-0.5-3.6-0.7-5.3-1.2c-2.5-0.8-5.2-1.3-7.7-2.3c-1.7-0.7-3.4-1.4-5.1-2c-4.1-1.5-7.8-3.7-11.1-6.5
		c-1.1-1.1-2.4-2-3.6-2.9c-1.1-0.8-2.3-1.5-3.1-2.7c-1-1.1-1.4-2.7-2.1-4.1c0.1-0.8,0.1-1.7,0.5-2.5c0.4-0.6,1.1-1,1.7-1.3
		c1.5-0.9,3.3-0.8,4.7-1.6C237.2,246.8,238.3,246.8,239.3,246.6z"/>
	<path fill="#283D54" d="M267.8,245.2c1.1,0.7,2.4,1.3,3.5,2c0,0.9-0.1,1.8-0.1,2.7c-1.1-0.6-2.3-1.3-3.4-2
		C267.8,247.1,267.8,246.2,267.8,245.2z"/>
	<path fill="#C89A6A" d="M275.9,248c1.7-0.9,3.3-1.9,5-2.8c0,0.7,0,1.3,0,2c-1.6,0.9-3.3,2-5,2.8C275.9,249.2,275.9,248.5,275.9,248
		z"/>
	<path fill="#283D54" d="M260.1,245.9c1.1,0.7,2.4,1.3,3.5,2c0,0.9,0,1.8,0,2.8c-1.1-0.6-2.3-1.3-3.4-2
		C260.1,247.7,260.1,246.8,260.1,245.9z"/>
	<path fill="#304660" d="M252.4,246.6c1.1,0.7,2.3,1.3,3.4,2c0,0.9,0,1.8,0,2.7c-1.1-0.7-2.4-1.1-3.3-2
		C252.2,248.4,252.4,247.5,252.4,246.6z"/>
	<path fill="#231D17" d="M244.1,246.9c0.2,0.1,0.4,0.2,0.6,0.3c-0.1,0.9-0.1,1.8-0.1,2.7c1.1,0.7,2.2,1.3,3.3,1.9c0-0.9,0-1.8,0-2.7
		c0.2,0.1,0.4,0.2,0.6,0.3c-0.1,0.9-0.1,1.8,0,2.7c1.1,0.7,2.2,1.4,3.3,2c0.1-0.9,0.1-1.8,0-2.8c0.2,0.1,0.3,0.2,0.6,0.3
		c-0.1,0.9-0.2,1.8,0.1,2.7c0.9,0.9,2.1,1.3,3.3,2c0-0.9,0-1.8,0-2.7c0.1,0.1,0.3,0.2,0.4,0.2c0,0.9,0,1.9,0.1,2.8
		c1.1,0.7,2.3,1.3,3.4,2c0-0.9,0-1.8,0.1-2.7c0.1,0.1,0.3,0.2,0.4,0.2c0,0.9,0,1.9,0,2.8c1.1,0.7,2.3,1.4,3.4,2c0-0.9,0.1-1.8,0-2.8
		c0.1,0.1,0.3,0.2,0.4,0.2c0,0.9,0,1.9,0,2.8c1.1,0.7,2.3,1.3,3.4,2c0-0.9,0-1.8,0.1-2.7c0.1,0.1,0.3,0.2,0.4,0.2c0,0.9,0,1.9,0,2.8
		c1.1,0.7,2.3,1.3,3.4,2c0-0.9,0-1.8,0.1-2.7c0.1,0.1,0.3,0.2,0.4,0.2c0,1,0,1.9,0,2.8c1.4,0.7,2.7,1.5,4.1,2.2c0,0.2,0,0.5,0,0.7
		c-7.3-4.3-14.7-8.5-22.1-12.8c-4.4-2.4-8.7-5-13.1-7.5c0-0.2,0-0.4,0-0.6c1.1,0.7,2.2,1.4,3.3,1.9
		C244.1,248.7,244.1,247.8,244.1,246.9z"/>
	<path fill="#5784AF" d="M275.9,249.9c1.7-0.8,3.3-1.9,5-2.8c0,1.1,0,2.1,0,3.3c-1.6,1-3.3,2-5,2.8c0-0.2,0-0.5,0-0.7
		C275.9,251.6,275.9,250.7,275.9,249.9z"/>
	<path fill="#304758" d="M244.6,247.2c1.1,0.7,2.2,1.2,3.3,1.9c0,0.9,0,1.8,0,2.7c-1.1-0.6-2.3-1.2-3.3-1.9
		C244.5,249,244.6,248.1,244.6,247.2z"/>
	<path fill="#294057" d="M271.7,247.5c1.4,0.7,2.8,1.5,4.1,2.4c0,0.9,0,1.8,0,2.7c-1.5-0.6-2.8-1.5-4.1-2.2
		C271.7,249.4,271.7,248.4,271.7,247.5z"/>
	<path fill="#2F4758" d="M264,248.1c1.1,0.7,2.3,1.3,3.5,2c0,0.9,0,1.8-0.1,2.7c-1.1-0.6-2.3-1.2-3.4-2C264,250,264,249,264,248.1z"
		/>
	<path fill="#665038" d="M240.7,248.2c4.4,2.4,8.7,5,13.1,7.5c7.3,4.2,14.7,8.5,22.1,12.8c0,0.6,0,1.2,0,1.8
		c-11.7-6.7-23.4-13.5-35.2-20.2c0-0.4,0-0.8,0-1.2C240.7,248.7,240.7,248.4,240.7,248.2z"/>
	<path fill="#2B4158" d="M256.2,248.7c1.1,0.7,2.4,1.3,3.5,2c0,0.9,0,1.8-0.1,2.7c-1.1-0.6-2.3-1.2-3.4-2
		C256.2,250.6,256.2,249.7,256.2,248.7z"/>
	<path fill="#D0D0D0" d="M240.1,250.6c0.2-0.6,0.5-1.1,0.7-1.7c0,0.4,0,0.8,0,1.2c0,1.5,0,3.2,0,4.7c0.7,0.4,1.3,0.8,2,1.2
		c0,1.2-0.1,2.5,0.2,3.7c0.1,0.1,0.2,0.2,0.2,0.3c0.2,0.1,0.3,0.2,0.5,0.2c0.8,0.2,1.6,0.6,2.1,1.3c0.8,1,2,1.6,3,2.4
		c1.5,1.1,3,2.2,4.7,3.1c1.7,0.7,3.3,1.7,5,2.4c2.1,0.8,4,2.1,6.3,2.6c0,0.1,0.1,0.2,0.2,0.3c0.1,0.1,0.2,0.3,0.3,0.5
		c1,0.1,2-0.4,2.9-0.1c1.3,0.4,2.7,0.9,4.1,1.1c0,0.3,0,0.7,0,1.1c-3.4-0.7-6.8-1.5-10.2-2.6c-4-1.1-7.8-2.7-11.4-4.6
		c-1.9-1-3.8-1.9-5.5-3.1c-1.1-0.8-2.5-1.5-3.4-2.5c-1-1.1-2.4-1.8-3.3-3.1c-0.8-1.2-2-2.4-2.3-3.9c-0.2-1.1,0.5-2.2,1.1-3
		C237.7,251.2,238.9,250.8,240.1,250.6z"/>
	<path fill="#283D55" d="M248.5,249.5c1.1,0.7,2.2,1.2,3.3,1.9c0.1,0.9,0,1.8,0,2.8c-1.1-0.6-2.3-1.2-3.3-2
		C248.4,251.3,248.4,250.4,248.5,249.5z"/>
	<path fill="#090C10" d="M286.4,249.9c0.1-0.1,0.3-0.2,0.4-0.2c0,1.1,0,2.4,0,3.5c-0.6,0.3-1.1,0.7-1.7,0.8c0.1-0.1,0.2-0.2,0.2-0.3
		c0.3-0.3,0.7-0.5,1.1-0.7C286.4,252,286.4,251,286.4,249.9z"/>
	<path fill="#3A5465" d="M285.1,250.6c0.4-0.2,0.8-0.4,1.1-0.7c0.1,1,0.1,2,0,2.9c-0.4,0.2-0.7,0.5-1.1,0.7
		C285.1,252.7,285.1,251.6,285.1,250.6z"/>
	<path fill="#323232" d="M240.7,250.1c11.7,6.7,23.4,13.5,35.2,20.2c0,1.5,0.2,3.2-0.2,4.7c-0.6-0.3-1.2-0.7-1.7-1
		c-0.8-0.6-1.7-1.1-2.6-1.5c-1.5-0.7-2.9-1.5-4.3-2.4c-0.7-0.5-1.5-0.9-2.2-1.3c-1.9-1.1-3.7-2.2-5.6-3.3c-0.6-0.3-1.2-0.7-1.8-1
		c-1.9-1.1-3.7-2.2-5.6-3.3c-0.1,0.2-0.2,0.3-0.2,0.5c-0.2-0.8-0.8-1.2-1.5-1.5c-1.9-1-3.6-2.1-5.5-3.1c-0.6-0.3-1.1-0.7-1.7-1
		c0,1.2-0.2,2.4-0.1,3.7c-0.2-1.2-0.1-2.5-0.2-3.7c-0.7-0.4-1.3-0.8-2-1.2C240.7,253.3,240.8,251.7,240.7,250.1z"/>
	<path fill="#283D54" d="M267.8,250.3c1.2,0.7,2.4,1.3,3.5,2c0,0.9-0.1,1.8-0.1,2.7c-1.1-0.6-2.3-1.3-3.4-2
		C267.8,252.2,267.8,251.3,267.8,250.3z"/>
	<path fill="#C89A6A" d="M275.9,253.1c1.7-0.9,3.3-1.9,5-2.8c0,0.7,0,1.3,0,2c-1.6,0.9-3.3,2-5,2.8
		C275.9,254.3,275.9,253.8,275.9,253.1z"/>
	<path fill="#4A6E83" d="M295.3,251.4c0.4-0.2,0.9-0.6,1.4-0.7c-0.2,1,0,2-0.2,2.9c-0.2,0.4-0.7,0.6-1,0.8
		C295.2,253.3,295.2,252.4,295.3,251.4z"/>
	<path fill="#0A0C0E" d="M296.7,250.6l0.1-0.2c0.2,1,0.2,2,0.2,3c0,0.9-1.1,1.1-1.8,1.3c0.1-0.1,0.2-0.2,0.3-0.3
		c0.3-0.3,0.7-0.5,1-0.8C296.6,252.5,296.5,251.6,296.7,250.6z"/>
	<path fill="#283D54" d="M260.1,251c1.1,0.7,2.4,1.3,3.5,2c0,0.9,0,1.8,0,2.8c-1.1-0.7-2.3-1.3-3.4-2
		C260.1,252.9,260.1,251.9,260.1,251z"/>
	<path fill="#304660" d="M252.5,254.3c-0.3-0.8-0.2-1.8-0.1-2.7c1.1,0.7,2.2,1.3,3.3,2c0,0.9,0,1.8,0,2.7
		C254.6,255.7,253.4,255.3,252.5,254.3z"/>
	<path fill="#5784AF" d="M275.9,255c1.7-0.8,3.3-1.9,5-2.8c0,1.1,0,2.1,0,3.2c-1.6,1-3.3,2-5,2.8c0-0.2,0-0.5,0-0.7
		C275.9,256.7,275.9,255.9,275.9,255z"/>
	<path fill="#294057" d="M271.7,252.6c1.4,0.7,2.8,1.5,4.1,2.4c0,0.9,0,1.8,0,2.7c-1.5-0.7-2.8-1.5-4.1-2.2
		C271.7,254.5,271.7,253.5,271.7,252.6z"/>
	<path fill="#2F4758" d="M264,253.3c1.1,0.7,2.4,1.3,3.5,2c0,0.9,0,1.8-0.1,2.7c-1.1-0.6-2.3-1.2-3.4-2
		C264,255.1,264,254.2,264,253.3z"/>
	<path fill="#2B4158" d="M256.2,253.8c1.1,0.7,2.4,1.3,3.5,2c0,0.9,0,1.8-0.1,2.7c-1.1-0.7-2.3-1.2-3.4-2
		C256.2,255.7,256.2,254.8,256.2,253.8z"/>
	<path fill="#283D54" d="M267.9,255.5c1.2,0.7,2.4,1.3,3.5,2c0,0.9-0.1,1.8-0.1,2.7c-1.1-0.7-2.3-1.3-3.4-2
		C267.8,257.3,267.8,256.4,267.9,255.5z"/>
	<path fill="#C99A6A" d="M275.9,258.2c1.7-0.9,3.3-1.9,5-2.8c0,0.7,0,1.3,0,2c-1.7,0.9-3.3,2-5,2.8
		C275.9,259.5,275.9,258.9,275.9,258.2z"/>
	<path fill="#090D10" d="M286.4,256c0.1-0.1,0.3-0.2,0.4-0.2c0,1.1,0,2.4,0,3.5c-0.6,0.3-1.1,0.7-1.7,0.8c0.1-0.1,0.2-0.2,0.2-0.3
		c0.3-0.3,0.7-0.6,1.1-0.7C286.4,257.9,286.4,256.9,286.4,256z"/>
	<path fill="#3A5465" d="M285.1,256.6c0.4-0.2,0.7-0.4,1.1-0.7c0.1,1,0.1,2,0,2.9c-0.4,0.2-0.7,0.5-1.1,0.7
		C285.1,258.6,285.1,257.6,285.1,256.6z"/>
	<path fill="#727272" d="M242.9,256.1c0.6,0.3,1.1,0.7,1.7,1c-0.2,0.9-0.2,1.8-0.2,2.8c-0.1,0.1-0.3,0.2-0.4,0.2
		c-0.1-0.8-0.1-1.5-0.2-2.4c-0.2,0-0.4,0-0.5,0.1c0,0.8-0.1,1.6-0.3,2.4c-0.1-0.1-0.2-0.2-0.2-0.3
		C242.8,258.6,242.8,257.3,242.9,256.1z"/>
	<path fill="#283D54" d="M260.1,256.1c1.1,0.7,2.4,1.4,3.5,2c0,0.9,0,1.8,0,2.8c-1.1-0.6-2.3-1.3-3.4-2
		C260.1,258,260.1,257,260.1,256.1z"/>
	<path fill="#4A6E83" d="M295.3,257.3c0.4-0.2,0.9-0.6,1.4-0.7c-0.2,1-0.2,2-0.2,3.1c-0.4,0.2-0.7,0.4-1.1,0.7
		C295.2,259.3,295.2,258.3,295.3,257.3z"/>
	<path fill="#090B0D" d="M296.7,256.6l0.1-0.2c0.2,0.9,0.2,1.9,0.2,2.8c0.1,0.9-0.9,1.2-1.5,1.5c-0.2-0.1-0.2-0.3,0-0.5
		c0.3-0.2,0.7-0.4,1.1-0.7C296.5,258.6,296.5,257.6,296.7,256.6z"/>
	<path fill="#BFBFBF" d="M244.4,259.8c0-0.9,0.1-1.9,0.2-2.8c1.8,1.1,3.6,2.1,5.5,3.1c0,1.3,0,2.7,0.1,4c0.2,0,0.4,0.1,0.5,0.1
		c0-0.7,0-1.5,0.1-2.2c0.2,0,0.4,0,0.5,0c0,0.7,0,1.5,0.1,2.3c0.2,0,0.4-0.1,0.5-0.1c0-0.3,0-0.7,0-1c0.5,0,1-0.2,1.4,0.2
		c0.8,0.6,1.5,1.3,2.4,1.8c0.7,0.5,1.5,1.1,1.9,1.9c0.1,0.6,0.2,1.1,0.2,1.6c0.4,0.2,0.8,0.2,1.2-0.1l0.2-0.1
		c0.3-0.2,0.6-0.3,0.9-0.4c0.8,0.2,1.4,0.7,2.1,1.1c0.8,0.5,1.7,0.7,2.5,1.2c0.2,0.6,0.1,1.1,0.2,1.7c-2.2-0.5-4.1-1.8-6.3-2.6
		c-1.7-0.7-3.3-1.7-5-2.4c-1.6-0.9-3.3-2-4.7-3.1c-1.1-0.7-2.2-1.3-3-2.4c-0.6-0.7-1.3-1.1-2.1-1.3c0.2-0.1,0.3-0.2,0.6-0.3
		C244.1,260,244.3,259.9,244.4,259.8z"/>
	<path fill="#5784AF" d="M275.9,260.1c1.7-0.8,3.3-1.9,5-2.8c0,1.1,0,2.1,0,3.2c-1.6,1-3.3,2-5,2.8c0-0.2,0-0.5,0-0.7
		C275.9,261.8,275.9,261,275.9,260.1z"/>
	<path fill="#ABABAB" d="M243.3,257.8c0.2,0,0.4,0,0.5-0.1c0.1,0.8,0.1,1.5,0.2,2.4c-0.2,0.1-0.3,0.2-0.6,0.3
		c-0.2-0.1-0.3-0.2-0.5-0.2C243.2,259.4,243.3,258.6,243.3,257.8z"/>
	<path fill="#2A4057" d="M271.7,257.7c1.4,0.7,2.8,1.5,4.1,2.4c0,0.9,0,1.8,0,2.7c-1.1-0.6-2.3-1.1-3.4-1.8
		c-0.2-0.2-0.7-0.4-0.7-0.7C271.6,259.4,271.7,258.6,271.7,257.7z"/>
	<path fill="#2F4758" d="M264,258.4c1.1,0.7,2.4,1.3,3.5,2c0,0.9,0,1.8-0.1,2.7c-1.1-0.6-2.3-1.3-3.4-2
		C264,260.3,264,259.3,264,258.4z"/>
	<path fill="#666666" d="M250,260.2c0.7,0.3,1.4,0.7,1.5,1.5c0.1-0.2,0.2-0.3,0.2-0.5c0,0.7,0,1.3,0,2c0,0.3,0,0.7,0,1
		c-0.2,0-0.4,0.1-0.5,0.1c0-0.7,0-1.5-0.1-2.3c-0.2,0-0.4,0-0.5,0c0,0.7,0,1.5-0.1,2.2c-0.2,0-0.4-0.1-0.5-0.1
		C250.1,262.9,250,261.5,250,260.2z"/>
	<path fill="#283D54" d="M267.9,260.6c1.2,0.7,2.4,1.3,3.5,2c0,0.9-0.1,1.8-0.1,2.7c-1.1-0.7-2.3-1.3-3.4-2
		C267.8,262.5,267.8,261.6,267.9,260.6z"/>
	<path fill="#C89A6A" d="M275.9,263.4c1.7-0.9,3.3-1.9,5-2.8c0,0.7,0,1.3,0,2c-1.7,0.9-3.3,2-5,2.8
		C275.9,264.6,275.9,264,275.9,263.4z"/>
	<path fill="#B3B2B2" d="M251.8,261.2c1.9,1.1,3.7,2.2,5.6,3.3c0,0.8-0.1,1.7-0.1,2.5c-0.4-0.8-1.1-1.4-1.9-1.9
		c-0.8-0.5-1.5-1.2-2.4-1.8c-0.4-0.3-0.9-0.2-1.4-0.2C251.8,262.5,251.8,261.9,251.8,261.2z"/>
	<path fill="#090D10" d="M286.3,261.8c0.1-0.1,0.3-0.2,0.4-0.2c0,1.1,0,2.3,0,3.5c-0.6,0.3-1.1,0.7-1.7,0.8c0.1-0.1,0.2-0.2,0.2-0.3
		c0.3-0.3,0.7-0.6,1.1-0.8c0.1-1,0.1-1.9,0-2.8L286.3,261.8z"/>
	<path fill="#395466" d="M285.1,262.5c0.4-0.2,0.7-0.3,1.1-0.5c0.1,1,0.1,1.9,0,2.8c-0.4,0.2-0.7,0.5-1.1,0.8
		C285.1,264.6,285.1,263.5,285.1,262.5z"/>
	<path fill="#5784AF" d="M275.9,265.2c1.7-0.8,3.3-1.9,5-2.8c0,1.1,0,2.2,0.1,3.3c-1.7,0.8-3.3,1.9-5,2.8c0-0.2,0-0.5,0-0.7
		C275.9,267,275.9,266.1,275.9,265.2z"/>
	<path fill="#2A4057" d="M271.7,262.9c1.4,0.7,2.8,1.5,4.1,2.4c0,0.9,0,1.8,0,2.7c-1.4-0.7-2.8-1.5-4.1-2.2
		C271.7,264.7,271.7,263.8,271.7,262.9z"/>
	<path fill="#656565" d="M257.4,264.5c0.6,0.3,1.2,0.7,1.8,1c-0.2,1-0.2,2-0.2,2.9l-0.2,0.1c-0.1-0.8-0.2-1.5-0.2-2.4
		c-0.2,0-0.4,0.1-0.6,0.1c-0.1,0.8-0.2,1.5-0.3,2.4c-0.1-0.6-0.2-1.1-0.2-1.6C257.3,266.2,257.4,265.3,257.4,264.5z"/>
	<path fill="#B2B2B2" d="M258.9,268.5c0.1-1,0.1-2,0.2-2.9c1.9,1.1,3.7,2.1,5.6,3.3c-0.1,1.2-0.1,2.4-0.1,3.7c0-0.1-0.1-0.2-0.2-0.3
		c-0.1-0.6,0-1.1-0.2-1.7c-0.8-0.5-1.7-0.7-2.5-1.2c-0.7-0.4-1.3-0.9-2.1-1.1C259.5,268.2,259.3,268.3,258.9,268.5z"/>
	<path fill="#C89B6D" d="M275.9,268.5c1.7-0.9,3.3-2,5-2.8c0,0.5,0.1,1,0.1,1.5c0,0.1-0.1,0.3-0.2,0.4c-1.7,0.7-3.3,1.9-5,2.7
		C275.9,269.7,275.9,269.1,275.9,268.5z"/>
	<path fill="#A8A8A8" d="M258,266.3c0.2,0,0.4-0.1,0.6-0.1c0.1,0.8,0.2,1.5,0.2,2.4c-0.3,0.2-0.8,0.2-1.2,0.1
		C257.8,267.8,257.9,267,258,266.3z"/>
	<path fill="#656565" d="M275.9,270.4c1.7-0.8,3.3-2,5-2.7c0.1,2.6,0.1,5.3,0.1,7.9c-0.7,0.4-1.5,0.7-2.2,1.1v-0.2
		c0.2-1.1,0.2-2.2,0.1-3.3c-1,0.6-2,1.2-2.8,2c-0.2-0.1-0.2-0.2-0.4-0.2C276,273.4,275.9,271.9,275.9,270.4z"/>
	<path fill="#676767" d="M264.8,268.7c0.7,0.4,1.5,0.8,2.2,1.3c-0.2-0.1-0.3-0.2-0.6-0.2c0,0.9-0.1,1.9-0.2,2.8
		c-0.1,0-0.3,0.1-0.5,0.1c0-0.7,0-1.5-0.1-2.3c-0.2,0-0.4,0-0.6,0c0,0.8-0.1,1.6-0.2,2.4c-0.1-0.1-0.2-0.3-0.3-0.5
		C264.6,271.2,264.7,269.9,264.8,268.7z"/>
	<path fill="#B5B4B4" d="M266.5,269.9c0.2,0.1,0.3,0.2,0.6,0.2c1.4,0.9,2.8,1.7,4.3,2.4c0.5,0.3,0.7,0.9,0.7,1.5
		c-1.4-0.2-2.7-0.7-4.1-1.1c-1-0.3-2,0.2-2.9,0.1c0.2-0.8,0.2-1.5,0.2-2.4c0.2,0,0.4,0,0.6,0c0,0.7,0.1,1.5,0.1,2.3
		c0.1,0,0.3-0.1,0.5-0.1C266.4,271.7,266.4,270.8,266.5,269.9z"/>
	<path fill="#656565" d="M271.3,272.6c0.9,0.4,1.8,1,2.6,1.5c-0.1,0.7-0.2,1.3-0.2,2c-0.1,0.3-0.1,0.7-0.2,1.1
		c-0.3-0.9-0.2-1.9-0.7-2.7c-0.2,0.9-0.2,1.8-0.6,2.7c-0.1-0.3-0.2-0.7-0.2-1.1c0-0.1,0-0.2-0.1-0.4c0-0.2,0-0.5,0-0.6
		c0-0.3,0-0.7,0-1.1C272,273.4,271.8,272.9,271.3,272.6z"/>
	<path fill="#141414" d="M276.1,275.2c0.8-0.8,1.8-1.5,2.8-2c0.1,1.1,0,2.2-0.1,3.3C277.9,276.1,277,275.6,276.1,275.2z"/>
	<path fill="#D3D3D3" d="M273.8,276c0.1-0.7,0.2-1.3,0.2-2c0.6,0.3,1.1,0.7,1.7,1c0.2,0.1,0.2,0.2,0.4,0.2c0.9,0.4,1.8,0.8,2.7,1.3
		v0.2C277.2,276.1,275.5,275.9,273.8,276z"/>
	<path fill="#B0B0B0" d="M272.8,274.4c0.5,0.8,0.4,1.8,0.7,2.7c-0.4,0-0.9,0-1.3,0C272.5,276.2,272.6,275.3,272.8,274.4z"/>
</g>
</svg>
