<?xml version="1.0" encoding="utf-8"?>
<!-- Generator: Adobe Illustrator 18.0.0, SVG Export Plug-In . SVG Version: 6.00 Build 0)  -->
<!DOCTYPE svg PUBLIC "-//W3C//DTD SVG 1.1//EN" "http://www.w3.org/Graphics/SVG/1.1/DTD/svg11.dtd">
<svg version="1.1" id="Capa_1" xmlns="http://www.w3.org/2000/svg" xmlns:xlink="http://www.w3.org/1999/xlink" x="0px" y="0px"
	 width="595.3px" height="333.8px" viewBox="34 23 595.3 333.8" enable-background="new 34 23 595.3 333.8" xml:space="preserve">
<rect x="199.8" y="101.4" fill="#E0E0E0" width="338.4" height="216.3"/>
<rect x="202.7" y="104.3" fill="#FFFFFF" width="332" height="213.4"/>
<g>
	<rect x="221.7" y="119.5" opacity="0.1" fill="#010202" enable-background="new    " width="123.8" height="18"/>
	<g>
		<path d="M223.1,122.5c0.7-0.2,1.9-0.2,3.1-0.2c1.7,0,2.8,0.3,3.6,1c0.6,0.5,1.1,1.3,1.1,2.3c0,1.3-0.8,2.4-2.3,2.9l0,0
			c1.3,0.3,2.7,1.4,2.7,3.3c0,1.1-0.5,2-1.1,2.7c-0.9,0.8-2.4,1.2-4.6,1.2c-1.2,0-2.1-0.1-2.7-0.2V122.5L223.1,122.5z M224.8,127.9
			h1.5c1.8,0,2.8-1,2.8-2.2c0-1.5-1.2-2.2-2.9-2.2c-0.8,0-1.2,0.1-1.5,0.1L224.8,127.9L224.8,127.9z M224.8,134.2
			c0.3,0.1,0.8,0.1,1.5,0.1c1.8,0,3.4-0.6,3.4-2.6c0-1.8-1.5-2.6-3.4-2.6h-1.4L224.8,134.2L224.8,134.2z"/>
		<path d="M238.9,135.5l-0.2-1.2h-0.1c-0.6,0.7-1.5,1.4-2.9,1.4c-1.9,0-2.9-1.4-2.9-2.7c0-2.3,2-3.5,5.7-3.5v-0.2
			c0-0.8-0.2-2.2-2.2-2.2c-0.9,0-1.8,0.2-2.5,0.7l-0.4-1.1c0.8-0.5,1.9-0.8,3.1-0.8c2.9,0,3.6,2,3.6,3.9v3.5c0,0.8,0,1.6,0.2,2.3
			C240.5,135.5,238.9,135.5,238.9,135.5z M238.7,130.6c-1.9,0-4,0.3-4,2.1c0,1.1,0.7,1.6,1.6,1.6c1.2,0,2-0.8,2.3-1.6
			c0.1-0.2,0.1-0.4,0.1-0.6L238.7,130.6L238.7,130.6z"/>
		<path d="M243.1,121.6h1.7v13.8h-1.7V121.6z"/>
		<path d="M253.1,135.5l-0.2-1.2h-0.1c-0.6,0.7-1.5,1.4-2.9,1.4c-1.9,0-2.9-1.4-2.9-2.7c0-2.3,2-3.5,5.7-3.5v-0.2
			c0-0.8-0.2-2.2-2.2-2.2c-0.9,0-1.8,0.2-2.5,0.7l-0.4-1.1c0.8-0.5,1.9-0.8,3.1-0.8c2.9,0,3.6,2,3.6,3.9v3.5c0,0.8,0,1.6,0.2,2.3
			C254.6,135.5,253.1,135.5,253.1,135.5z M252.7,130.6c-1.9,0-4,0.3-4,2.1c0,1.1,0.7,1.6,1.6,1.6c1.2,0,2-0.8,2.3-1.6
			c0.1-0.2,0.1-0.4,0.1-0.6L252.7,130.6L252.7,130.6z"/>
		<path d="M257.3,128.6c0-1,0-1.8-0.1-2.6h1.5l0.1,1.5l0,0c0.5-0.9,1.5-1.8,3.1-1.8c1.3,0,3.4,0.8,3.4,4v5.6h-1.7v-5.5
			c0-1.5-0.6-2.8-2.2-2.8c-1.1,0-2,0.8-2.3,1.8c-0.1,0.2-0.1,0.5-0.1,0.8v5.7h-1.7L257.3,128.6L257.3,128.6z"/>
		<path d="M274.9,135.1c-0.5,0.2-1.5,0.6-2.7,0.6c-2.8,0-4.8-1.9-4.8-4.8s2-5,5.1-5c1,0,1.9,0.2,2.4,0.5l-0.4,1.4
			c-0.4-0.2-1-0.5-2-0.5c-2.2,0-3.4,1.6-3.4,3.5c0,2.2,1.4,3.5,3.3,3.5c1,0,1.6-0.2,2.1-0.5L274.9,135.1z"/>
		<path d="M277.7,131c0,2.3,1.5,3.3,3.2,3.3c1.2,0,2-0.2,2.7-0.5l0.3,1.2c-0.6,0.2-1.6,0.6-3.1,0.6c-2.9,0-4.7-1.9-4.7-4.7
			s1.7-5.1,4.4-5.1c3.1,0,4,2.7,4,4.4c0,0.3,0,0.6-0.1,0.8C284.4,131,277.7,131,277.7,131z M282.8,129.8c0-1.1-0.5-2.8-2.4-2.8
			c-1.8,0-2.5,1.6-2.7,2.8H282.8z"/>  
		<path d="M286.2,127.6c0-0.7,0.5-1.2,1.2-1.2c0.7,0,1.1,0.5,1.1,1.2c0,0.6-0.5,1.2-1.2,1.2C286.6,128.8,286.2,128.2,286.2,127.6z
			 M286.2,134.5c0-0.7,0.5-1.2,1.2-1.2c0.7,0,1.1,0.5,1.1,1.2s-0.5,1.2-1.2,1.2C286.6,135.7,286.2,135.1,286.2,134.5z"/>
	</g>
	<rect x="221.7" y="145.6" fill="#A6D2A7" width="284.3" height="19.8"/>
	<rect x="221" y="185.7" opacity="0.1" fill="#010202" enable-background="new    " width="284.3" height="19.8"/>
	<rect x="221" y="225.9" opacity="0.1" fill="#010202" enable-background="new    " width="284.3" height="19.8"/>
	<rect x="221.7" y="268" opacity="0.1" fill="#010202" enable-background="new    " width="284.3" height="19.8"/>
	<rect x="301.6" y="145.8" fill="#A6D2A7" width="4.9" height="159.8"/>
	<g>
		<path d="M228.9,177.1l-1.1,3.4h-1.5l3.7-10.9h1.7l3.7,10.9h-1.5l-1.1-3.4H228.9z M232.5,175.9l-1-3.1c-0.2-0.7-0.4-1.4-0.6-2l0,0
			c-0.2,0.6-0.3,1.3-0.6,1.9l-1,3.1L232.5,175.9L232.5,175.9z"/>
		<path d="M242.4,180.1c-0.4,0.2-1.2,0.5-2.3,0.5c-2.3,0-3.9-1.6-3.9-3.9c0-2.4,1.6-4.1,4.2-4.1c0.8,0,1.6,0.2,1.9,0.4l-0.3,1.1
			c-0.3-0.2-0.9-0.4-1.6-0.4c-1.8,0-2.7,1.3-2.7,3c0,1.8,1.1,2.9,2.7,2.9c0.8,0,1.4-0.2,1.8-0.4L242.4,180.1z"/>
		<path d="M246,170.4v2.3h2v1h-2v4.2c0,1,0.2,1.5,1,1.5c0.4,0,0.6-0.1,0.8-0.1l0.1,1c-0.2,0.1-0.7,0.2-1.3,0.2
			c-0.6,0-1.2-0.2-1.5-0.6c-0.4-0.4-0.6-1.1-0.6-2v-4.2h-1.2v-1h1.2v-1.9L246,170.4z"/>
		<path d="M251.2,170.5c0,0.5-0.3,0.9-0.9,0.9c-0.5,0-0.9-0.4-0.9-0.9s0.4-0.9,0.9-0.9C250.9,169.6,251.2,170,251.2,170.5z
			 M249.6,180.4v-7.8h1.5v7.8H249.6z"/>
		<path d="M253.9,172.6l1.5,4.3c0.2,0.7,0.5,1.4,0.6,2h0.1c0.2-0.6,0.4-1.3,0.6-2l1.5-4.3h1.5l-3.1,7.8h-1.4l-3-7.8H253.9z"/>
		<path d="M268.1,176.5c0,2.9-2,4.1-3.9,4.1c-2.1,0-3.7-1.5-3.7-4c0-2.6,1.7-4.1,3.9-4.1S268.1,174.1,268.1,176.5z M261.9,176.6
			c0,1.7,1,3,2.3,3c1.4,0,2.3-1.3,2.3-3.1c0-1.3-0.6-3-2.3-3C262.6,173.5,261.9,175,261.9,176.6z"/>
		<path d="M269.7,179c0.4,0.2,1.1,0.6,1.9,0.6c1,0,1.5-0.5,1.5-1.1s-0.4-1-1.5-1.4c-1.4-0.5-2.1-1.3-2.1-2.2c0-1.3,1-2.3,2.7-2.3
			c0.8,0,1.5,0.2,1.9,0.5l-0.3,1c-0.3-0.2-0.9-0.5-1.6-0.5c-0.8,0-1.3,0.5-1.3,1c0,0.6,0.5,1,1.5,1.3c1.4,0.5,2,1.2,2,2.3
			c0,1.4-1,2.3-2.9,2.3c-0.9,0-1.6-0.2-2.2-0.6L269.7,179z"/>
	</g>
	<g opacity="0.6">
		<path d="M227.1,191.5c0.6-0.2,1.6-0.2,2.6-0.2c1.4,0,2.3,0.2,3,0.8c0.6,0.4,0.9,1,0.9,1.9c0,1-0.7,1.9-1.9,2.4l0,0
			c1,0.2,2.3,1.1,2.3,2.7c0,1-0.4,1.6-0.9,2.2c-0.7,0.7-2,1-3.8,1c-1,0-1.7-0.1-2.2-0.2V191.5z M228.6,195.9h1.3
			c1.5,0,2.3-0.8,2.3-1.9c0-1.3-1-1.8-2.4-1.8c-0.6,0-1,0.1-1.2,0.1V195.9z M228.6,201.1c0.2,0.1,0.6,0.1,1.2,0.1
			c1.5,0,2.8-0.6,2.8-2.1c0-1.4-1.3-2.1-2.8-2.1h-1.1L228.6,201.1L228.6,201.1z"/>
		<path d="M240.2,202.2l-0.1-1h-0.1c-0.4,0.6-1.3,1.1-2.4,1.1c-1.6,0-2.4-1.1-2.4-2.3c0-1.9,1.7-2.9,4.7-2.9V197
			c0-0.6-0.2-1.8-1.8-1.8c-0.7,0-1.5,0.2-2,0.6l-0.3-1c0.6-0.4,1.6-0.7,2.6-0.7c2.4,0,3,1.6,3,3.2v2.9c0,0.6,0,1.4,0.2,1.9
			L240.2,202.2L240.2,202.2z M240,198.2c-1.5,0-3.3,0.2-3.3,1.8c0,0.9,0.6,1.4,1.4,1.4c1,0,1.7-0.6,1.9-1.3c0.1-0.2,0.1-0.3,0.1-0.5
			V198.2z"/>
		<path d="M243.7,196.4c0-0.8,0-1.4-0.1-2.1h1.3l0.1,1.3l0,0c0.4-0.7,1.3-1.4,2.6-1.4c1,0,2.7,0.6,2.7,3.3v4.7h-1.5v-4.5
			c0-1.3-0.5-2.3-1.8-2.3c-1,0-1.7,0.6-1.9,1.4c-0.1,0.2-0.1,0.4-0.1,0.6v4.7h-1.5L243.7,196.4L243.7,196.4z"/>
		<path d="M258.2,201.8c-0.4,0.2-1.2,0.5-2.3,0.5c-2.3,0-3.9-1.6-3.9-3.9c0-2.4,1.6-4.1,4.2-4.1c0.8,0,1.6,0.2,1.9,0.4l-0.3,1.1
			c-0.3-0.2-0.9-0.4-1.6-0.4c-1.8,0-2.7,1.3-2.7,3c0,1.8,1.1,2.9,2.7,2.9c0.8,0,1.4-0.2,1.8-0.4L258.2,201.8z"/>
		<path d="M266.9,198.2c0,2.9-2,4.1-3.9,4.1c-2.1,0-3.7-1.5-3.7-4c0-2.6,1.7-4.1,3.9-4.1S266.9,195.8,266.9,198.2z M260.6,198.3
			c0,1.7,1,3,2.3,3c1.4,0,2.3-1.3,2.3-3.1c0-1.3-0.6-3-2.3-3C261.4,195.2,260.6,196.8,260.6,198.3z"/>
		<path d="M268.4,200.7c0.4,0.2,1.1,0.6,1.9,0.6c1,0,1.5-0.5,1.5-1.1s-0.4-1-1.5-1.4c-1.4-0.5-2.1-1.3-2.1-2.2c0-1.3,1-2.3,2.7-2.3
			c0.8,0,1.5,0.2,1.9,0.5l-0.3,1c-0.3-0.2-0.9-0.5-1.6-0.5c-0.8,0-1.3,0.5-1.3,1c0,0.6,0.5,1,1.5,1.3c1.4,0.5,2,1.2,2,2.3
			c0,1.4-1,2.3-2.9,2.3c-0.9,0-1.6-0.2-2.2-0.6L268.4,200.7z"/>
	</g>
	<g opacity="0.6">
		<path d="M234.8,221.1c-0.5,0.2-1.5,0.5-2.9,0.5c-3.1,0-5.4-1.9-5.4-5.5c0-3.4,2.3-5.7,5.7-5.7c1.4,0,2.2,0.3,2.6,0.5l-0.3,1.1
			c-0.6-0.2-1.3-0.5-2.2-0.5c-2.6,0-4.3,1.6-4.3,4.5c0,2.7,1.5,4.3,4.2,4.3c0.9,0,1.7-0.2,2.3-0.5L234.8,221.1z"/>
		<path d="M238.2,211.4v2.3h2v1h-2v4.2c0,1,0.2,1.5,1,1.5c0.4,0,0.6-0.1,0.8-0.1l0.1,1c-0.2,0.1-0.7,0.2-1.3,0.2
			c-0.6,0-1.2-0.2-1.5-0.6c-0.4-0.4-0.6-1.1-0.6-2v-4.2h-1.2v-1h1.2v-1.9L238.2,211.4z"/>
		<path d="M246.2,221.5l-0.1-1H246c-0.4,0.6-1.3,1.1-2.4,1.1c-1.6,0-2.4-1.1-2.4-2.3c0-1.9,1.7-2.9,4.7-2.9v-0.2
			c0-0.6-0.2-1.8-1.8-1.8c-0.7,0-1.5,0.2-2,0.6l-0.3-1c0.6-0.4,1.6-0.7,2.6-0.7c2.4,0,3,1.6,3,3.2v2.9c0,0.6,0,1.4,0.2,1.9
			L246.2,221.5L246.2,221.5z M246,217.5c-1.5,0-3.3,0.2-3.3,1.8c0,0.9,0.6,1.4,1.4,1.4c1,0,1.7-0.6,1.9-1.3c0.1-0.2,0.1-0.3,0.1-0.5
			V217.5z"/>
		<path d="M249.4,220c0.4,0.2,1.1,0.6,1.9,0.6c1,0,1.5-0.5,1.5-1.1s-0.4-1-1.5-1.4c-1.4-0.5-2.1-1.3-2.1-2.2c0-1.3,1-2.3,2.7-2.3
			c0.8,0,1.5,0.2,1.9,0.5l-0.3,1c-0.3-0.2-0.9-0.5-1.6-0.5c-0.8,0-1.3,0.5-1.3,1c0,0.6,0.5,1,1.5,1.3c1.4,0.5,2,1.2,2,2.3
			c0,1.4-1,2.3-2.9,2.3c-0.9,0-1.6-0.2-2.2-0.6L249.4,220z"/>
		<path d="M260.1,213.7l1.1,1.7c0.3,0.4,0.6,0.8,0.8,1.3h0.1c0.2-0.5,0.5-0.9,0.8-1.3l1.1-1.7h1.5l-2.7,3.8l2.7,4H264l-1.1-1.8
			c-0.3-0.5-0.6-0.9-0.8-1.4l0,0c-0.2,0.5-0.6,0.9-0.8,1.4l-1.1,1.8h-1.5l2.7-3.9l-2.7-3.8L260.1,213.7L260.1,213.7z"/>
		<path d="M278,221.1c-0.5,0.2-1.5,0.5-2.9,0.5c-3.1,0-5.4-1.9-5.4-5.5c0-3.4,2.3-5.7,5.7-5.7c1.4,0,2.2,0.3,2.6,0.5l-0.3,1.1
			c-0.6-0.2-1.3-0.5-2.2-0.5c-2.6,0-4.3,1.6-4.3,4.5c0,2.7,1.5,4.3,4.2,4.3c0.9,0,1.7-0.2,2.3-0.5L278,221.1z"/>
		<path d="M279.6,221.5c0-0.6,0.1-1.3,0.1-2V210h1.4v4.9l0,0c0.5-0.9,1.4-1.4,2.7-1.4c1.9,0,3.3,1.6,3.3,3.9c0,2.8-1.8,4.2-3.5,4.2
			c-1.1,0-2-0.4-2.6-1.4h-0.1l-0.1,1.3H279.6z M281.1,218.3c0,0.2,0,0.3,0.1,0.5c0.2,1,1.1,1.7,2.1,1.7c1.5,0,2.3-1.2,2.3-3
			c0-1.5-0.8-2.9-2.3-2.9c-1,0-1.9,0.6-2.2,1.8c0,0.2-0.1,0.3-0.1,0.6L281.1,218.3L281.1,218.3z"/>
		<path d="M288.9,216.1c0-0.9,0-1.7-0.1-2.4h1.2l0.1,1.5h0.1c0.3-1,1.2-1.7,2.2-1.7c0.2,0,0.2,0,0.4,0.1v1.4c-0.2,0-0.3-0.1-0.5-0.1
			c-1,0-1.7,0.7-1.9,1.9c0,0.2-0.1,0.4-0.1,0.6v4.2h-1.4V216.1z"/>
	</g>
	<g opacity="0.6">
		<path d="M228.6,230.8v10.9h-1.4v-10.9H228.6z"/>
		<path d="M231.2,235.9c0-0.8,0-1.4-0.1-2.1h1.3l0.1,1.3l0,0c0.4-0.7,1.3-1.4,2.6-1.4c1,0,2.7,0.6,2.7,3.3v4.7h-1.5v-4.5
			c0-1.3-0.5-2.3-1.8-2.3c-1,0-1.7,0.6-1.9,1.4c-0.1,0.2-0.1,0.4-0.1,0.6v4.7h-1.5L231.2,235.9L231.2,235.9z"/>
		<path d="M240.5,233.9l1.5,4.3c0.2,0.7,0.5,1.4,0.6,2h0.1c0.2-0.6,0.4-1.3,0.6-2l1.5-4.3h1.5l-3.1,7.8h-1.4l-3-7.8H240.5z"/>
		<path d="M248.3,238c0,1.9,1.3,2.7,2.7,2.7c1,0,1.6-0.2,2.2-0.4l0.2,1c-0.5,0.2-1.4,0.5-2.6,0.5c-2.4,0-3.9-1.6-3.9-3.9
			s1.4-4.2,3.6-4.2c2.6,0,3.2,2.3,3.2,3.7c0,0.3,0,0.5-0.1,0.6L248.3,238L248.3,238z M252.5,237c0-0.9-0.4-2.3-1.9-2.3
			c-1.5,0-2.1,1.3-2.2,2.3H252.5z"/>
		<path d="M255.6,235.9c0-0.8,0-1.4-0.1-2.1h1.3l0.1,1.3l0,0c0.4-0.7,1.3-1.4,2.6-1.4c1,0,2.7,0.6,2.7,3.3v4.7h-1.5v-4.5
			c0-1.3-0.5-2.3-1.8-2.3c-1,0-1.7,0.6-1.9,1.4c-0.1,0.2-0.1,0.4-0.1,0.6v4.7h-1.4V235.9z"/>
		<path d="M266.2,231.6v2.3h2v1h-2v4.2c0,1,0.2,1.5,1,1.5c0.4,0,0.6-0.1,0.8-0.1l0.1,1c-0.2,0.1-0.7,0.2-1.3,0.2
			c-0.6,0-1.2-0.2-1.5-0.6c-0.4-0.4-0.6-1.1-0.6-2v-4.3h-1.1v-1h1.2V232L266.2,231.6z"/>
		<path d="M274.1,241.7l-0.1-1H274c-0.4,0.6-1.3,1.1-2.4,1.1c-1.6,0-2.4-1.1-2.4-2.3c0-1.9,1.7-2.9,4.7-2.9v-0.2
			c0-0.6-0.2-1.8-1.8-1.8c-0.7,0-1.5,0.2-2,0.6l-0.3-1c0.6-0.4,1.6-0.7,2.6-0.7c2.4,0,3,1.6,3,3.2v2.9c0,0.6,0,1.4,0.2,1.9
			L274.1,241.7L274.1,241.7z M274,237.7c-1.5,0-3.3,0.2-3.3,1.8c0,0.9,0.6,1.4,1.4,1.4c1,0,1.7-0.6,1.9-1.3c0.1-0.2,0.1-0.3,0.1-0.5
			V237.7z"/>
		<path d="M277.6,236.3c0-0.9,0-1.7-0.1-2.4h1.2l0.1,1.5h0.1c0.3-1,1.2-1.7,2.2-1.7c0.2,0,0.2,0,0.4,0.1v1.4c-0.2,0-0.3-0.1-0.5-0.1
			c-1,0-1.7,0.7-1.9,1.9c0,0.2-0.1,0.4-0.1,0.6v4.2h-1.4V236.3z"/>
		<path d="M284.5,231.7c0,0.5-0.3,0.9-0.9,0.9c-0.5,0-0.9-0.4-0.9-0.9s0.4-0.9,0.9-0.9C284.2,230.8,284.5,231.2,284.5,231.7z
			 M282.9,241.7v-7.8h1.5v7.8H282.9z"/>
		<path d="M293.8,237.7c0,2.9-2,4.1-3.9,4.1c-2.1,0-3.7-1.5-3.7-4c0-2.6,1.7-4.1,3.9-4.1C292.3,233.7,293.8,235.3,293.8,237.7z
			 M287.6,237.8c0,1.7,1,3,2.3,3c1.4,0,2.3-1.3,2.3-3.1c0-1.3-0.6-3-2.3-3C288.3,234.7,287.6,236.3,287.6,237.8z"/>
		<path d="M295.4,240.2c0.4,0.2,1.1,0.6,1.9,0.6c1,0,1.5-0.5,1.5-1.1s-0.4-1-1.5-1.4c-1.4-0.5-2.1-1.3-2.1-2.2c0-1.3,1-2.3,2.7-2.3
			c0.8,0,1.5,0.2,1.9,0.5l-0.3,1c-0.3-0.2-0.9-0.5-1.6-0.5c-0.8,0-1.3,0.5-1.3,1c0,0.6,0.5,1,1.5,1.3c1.4,0.5,2,1.2,2,2.3
			c0,1.4-1,2.3-2.9,2.3c-0.9,0-1.6-0.2-2.2-0.6L295.4,240.2z"/>
	</g>
	<g opacity="0.6">
		<path d="M227.1,263.4v-10.9h1.5l3.5,5.5c0.8,1.3,1.5,2.4,1.9,3.5l0,0c-0.2-1.4-0.2-2.7-0.2-4.4v-4.5h1.3v10.9h-1.5l-3.5-5.5
			c-0.7-1.2-1.5-2.4-2-3.6h-0.1c0.1,1.4,0.1,2.7,0.1,4.5v4.7h-1.1V263.4z"/>
		<path d="M244.8,259.4c0,2.9-2,4.1-3.9,4.1c-2.1,0-3.7-1.5-3.7-4c0-2.6,1.7-4.1,3.9-4.1C243.3,255.4,244.8,257,244.8,259.4z
			 M238.6,259.5c0,1.7,1,3,2.3,3s2.3-1.3,2.3-3.1c0-1.3-0.6-3-2.3-3C239.3,256.5,238.6,258,238.6,259.5z"/>
		<path d="M255.6,263.1c-0.4,0.2-1.2,0.5-2.3,0.5c-2.3,0-3.9-1.6-3.9-3.9c0-2.4,1.6-4.1,4.2-4.1c0.8,0,1.6,0.2,1.9,0.4l-0.3,1.1
			c-0.3-0.2-0.9-0.4-1.6-0.4c-1.8,0-2.7,1.3-2.7,3c0,1.8,1.1,2.9,2.7,2.9c0.8,0,1.4-0.2,1.8-0.4L255.6,263.1z"/>
		<path d="M264.3,259.4c0,2.9-2,4.1-3.9,4.1c-2.1,0-3.7-1.5-3.7-4c0-2.6,1.7-4.1,3.9-4.1C262.7,255.4,264.3,257,264.3,259.4z
			 M258.1,259.5c0,1.7,1,3,2.3,3c1.4,0,2.3-1.3,2.3-3.1c0-1.3-0.6-3-2.3-3C258.8,256.5,258.1,258,258.1,259.5z"/>
		<path d="M266.1,258c0-0.9,0-1.7-0.1-2.4h1.2l0.1,1.5h0.1c0.3-1,1.2-1.7,2.2-1.7c0.2,0,0.2,0,0.4,0.1v1.4c-0.2,0-0.3-0.1-0.5-0.1
			c-1,0-1.7,0.7-1.9,1.9c0,0.2-0.1,0.4-0.1,0.6v4.2h-1.4V258z"/>
		<path d="M271.4,258c0-0.9,0-1.7-0.1-2.4h1.2l0.1,1.5h0.1c0.3-1,1.2-1.7,2.2-1.7c0.2,0,0.2,0,0.4,0.1v1.4c-0.2,0-0.3-0.1-0.5-0.1
			c-1,0-1.7,0.7-1.9,1.9c0,0.2-0.1,0.4-0.1,0.6v4.2h-1.4V258z"/>
		<path d="M276.7,257.7c0-0.8,0-1.4-0.1-2.1h1.3l0.1,1.3l0,0c0.4-0.7,1.3-1.4,2.6-1.4c1,0,2.7,0.6,2.7,3.3v4.7h-1.5v-4.5
			c0-1.3-0.5-2.3-1.8-2.3c-1,0-1.7,0.6-1.9,1.4c-0.1,0.2-0.1,0.4-0.1,0.6v4.7h-1.5L276.7,257.7L276.7,257.7z"/>
		<path d="M287.4,253.3v2.3h2v1h-2v4.2c0,1,0.2,1.5,1,1.5c0.4,0,0.6-0.1,0.8-0.1l0.1,1c-0.2,0.1-0.7,0.2-1.3,0.2
			c-0.6,0-1.2-0.2-1.5-0.6c-0.4-0.4-0.6-1.1-0.6-2v-4.3h-1.2v-1h1.2v-1.9L287.4,253.3z"/>
		<path d="M290.8,261.9c0.4,0.2,1.1,0.6,1.9,0.6c1,0,1.5-0.5,1.5-1.1s-0.4-1-1.5-1.4c-1.4-0.5-2.1-1.3-2.1-2.2c0-1.3,1-2.3,2.7-2.3
			c0.8,0,1.5,0.2,1.9,0.5l-0.3,1c-0.3-0.2-0.9-0.5-1.6-0.5c-0.8,0-1.3,0.5-1.3,1c0,0.6,0.5,1,1.5,1.3c1.4,0.5,2,1.2,2,2.3
			c0,1.4-1,2.3-2.9,2.3c-0.9,0-1.6-0.2-2.2-0.6L290.8,261.9z"/>
	</g>
	<g>
		<path opacity="0.6" enable-background="new    " d="M232.8,277.6h-4.2v3.9h4.7v1.2h-6.1v-10.9h5.9v1.2h-4.4v3.5h4.2V277.6z"/>
		<path opacity="0.6" enable-background="new    " d="M241.8,271.3v9.4c0,0.7,0,1.4,0.1,2h-1.3l-0.1-1.4l0,0
			c-0.4,0.9-1.4,1.5-2.7,1.5c-1.9,0-3.3-1.6-3.3-3.9c0-2.6,1.6-4.2,3.5-4.2c1.2,0,2,0.6,2.3,1.2l0,0v-4.7H241.8z M240.3,278.1
			c0-0.2,0-0.4-0.1-0.6c-0.2-0.9-1-1.6-2-1.6c-1.5,0-2.3,1.3-2.3,3c0,1.6,0.8,2.9,2.3,2.9c1,0,1.9-0.6,2.1-1.7
			c0.1-0.2,0.1-0.4,0.1-0.6L240.3,278.1L240.3,278.1z"/>
		<path opacity="0.6" enable-background="new    " d="M245.7,272.7c0,0.5-0.3,0.9-0.9,0.9c-0.5,0-0.9-0.4-0.9-0.9
			c0-0.5,0.4-0.9,0.9-0.9C245.4,271.8,245.7,272.2,245.7,272.7z M244.1,282.7v-7.8h1.5v7.8H244.1z"/>
		<path opacity="0.6" enable-background="new    " d="M248.1,282.7V276h-1.1v-1h1.1v-0.4c0-2.1,1.2-3.4,3.4-3.4c0.7,0,1.6,0.2,2,0.5
			l-0.4,1c-0.3-0.2-1-0.5-1.6-0.5c-1.5,0-1.9,1-1.9,2.3v0.4h4.5v7.8h-1.4V276h-3.1v6.7H248.1z"/>
		<path opacity="0.6" enable-background="new    " d="M261.9,282.4c-0.4,0.2-1.2,0.5-2.3,0.5c-2.3,0-3.9-1.6-3.9-3.9
			c0-2.4,1.6-4.1,4.2-4.1c0.8,0,1.6,0.2,1.9,0.4l-0.3,1.1c-0.3-0.2-0.9-0.4-1.6-0.4c-1.8,0-2.7,1.3-2.7,3c0,1.8,1.1,2.9,2.7,2.9
			c0.8,0,1.4-0.2,1.8-0.4L261.9,282.4z"/>
		<path opacity="0.6" enable-background="new    " d="M265.2,272.7c0,0.5-0.3,0.9-0.9,0.9c-0.5,0-0.9-0.4-0.9-0.9
			c0-0.5,0.4-0.9,0.9-0.9C264.8,271.8,265.2,272.2,265.2,272.7z M263.6,282.7v-7.8h1.5v7.8H263.6z"/>
		<path opacity="0.6" enable-background="new    " d="M274.5,278.7c0,2.9-2,4.1-3.9,4.1c-2.1,0-3.7-1.5-3.7-4c0-2.6,1.7-4.1,3.9-4.1
			C272.9,274.7,274.5,276.3,274.5,278.7z M268.2,278.8c0,1.7,1,3,2.3,3s2.3-1.3,2.3-3.1c0-1.3-0.6-3-2.3-3
			C269,275.8,268.2,277.3,268.2,278.8z"/>
		<path opacity="0.6" enable-background="new    " d="M276,281.2c0.4,0.2,1.1,0.6,1.9,0.6c1,0,1.5-0.5,1.5-1.1c0-0.6-0.4-1-1.5-1.4
			c-1.4-0.5-2.1-1.3-2.1-2.2c0-1.3,1-2.3,2.7-2.3c0.8,0,1.5,0.2,1.9,0.5l-0.3,1c-0.3-0.2-0.9-0.5-1.6-0.5c-0.8,0-1.3,0.5-1.3,1
			c0,0.6,0.5,1,1.5,1.3c1.4,0.5,2,1.2,2,2.3c0,1.4-1,2.3-2.9,2.3c-0.9,0-1.6-0.2-2.2-0.6L276,281.2z"/>
	</g>
	<rect x="384.7" y="145.7" fill="#A6D2A7" width="4.9" height="159.8"/>
</g>
</svg>
