<?xml version="1.0" encoding="utf-8"?>
<!-- Generator: Adobe Illustrator 18.0.0, SVG Export Plug-In . SVG Version: 6.00 Build 0)  -->
<!DOCTYPE svg PUBLIC "-//W3C//DTD SVG 1.1//EN" "http://www.w3.org/Graphics/SVG/1.1/DTD/svg11.dtd">
<svg version="1.1" xmlns="http://www.w3.org/2000/svg" xmlns:xlink="http://www.w3.org/1999/xlink" x="0px" y="0px"
	 viewBox="53.631 109.006 684.737 383.74" enable-background="new 53.631 109.006 684.737 383.74" xml:space="preserve">
<g id="Capa_1">
	<path fill="#B2B2B2" d="M105.279,465.449c-1.077-2.409-1.672-5.074-1.672-7.88V128.636c0-10.8,8.844-19.616,19.616-19.616H662.4
		c10.8,0,19.616,8.816,19.616,19.616v328.932c0,2.806-0.595,5.471-1.672,7.88H738c-0.198,14.825-12.416,26.929-27.298,26.929H81.298
		c-14.882,0-27.099-12.104-27.298-26.929H105.279z"/>
	<path fill="#B2B2B2" d="M105.279,465.449c-1.077-2.409-1.672-5.074-1.672-7.88V128.636c0-10.8,8.844-19.616,19.616-19.616H662.4
		c10.8,0,19.616,8.816,19.616,19.616v328.932c0,2.806-0.595,5.471-1.672,7.88H738c-0.198,14.825-12.416,26.929-27.298,26.929H81.298
		c-14.882,0-27.099-12.104-27.298-26.929H105.279z"/>
	<path fill="#211915" d="M123.222,109.02h539.15c10.833,0,19.616,8.782,19.616,19.616V457.54c0,10.833-8.782,19.616-19.616,19.616
		h-539.15c-10.833,0-19.616-8.782-19.616-19.616V128.636C103.606,117.803,112.389,109.02,123.222,109.02z"/>
	<path opacity="0.4" fill="#FFFFFF" d="M125.518,114.038h534.614c9.331,0,16.895,7.564,16.895,16.894v324.368
		c0,9.331-7.564,16.895-16.895,16.895H125.518c-9.331,0-16.894-7.564-16.894-16.895V130.932
		C108.624,121.602,116.188,114.038,125.518,114.038z"/>
	<path fill="#211915" d="M125.32,115.257h534.983c8.548,0,15.477,6.929,15.477,15.477v324.737c0,8.548-6.929,15.477-15.477,15.477
		H125.32c-8.548,0-15.477-6.929-15.477-15.477V130.734C109.843,122.186,116.772,115.257,125.32,115.257z"/>
	<defs>
		<filter id="Adobe_OpacityMaskFilter" filterUnits="userSpaceOnUse" x="132.25" y="137.679" width="521.093" height="310.847">
			<feColorMatrix  type="matrix" values="1 0 0 0 0  0 1 0 0 0  0 0 1 0 0  0 0 0 1 0"/>
		</filter>
	</defs>
	<mask maskUnits="userSpaceOnUse" x="132.25" y="137.679" width="521.093" height="310.847" id="id6">
		<path fill="#1A1A1A" filter="url(#Adobe_OpacityMaskFilter)" d="M392.811,293.102L306.95,584.107l3.6,1.02L392.811,293.102"/>
		<path d="M392.811,293.102L478.644,2.098l-3.6-1.049L392.811,293.102"/>
		<path fill="#1A1A1A" d="M392.811,293.102L310.55,585.128l3.6,0.992L392.811,293.102"/>
		<path d="M392.811,293.102L475.044,1.049l-3.6-0.992L392.811,293.102"/>
		<path fill="#1A1A1A" d="M392.811,293.102L314.15,586.12l3.628,0.964L392.811,293.102"/>
		<path d="M392.811,293.102L471.444,0.057l-3.6-0.935L392.811,293.102"/>
		<path fill="#1A1A1A" d="M392.811,293.102l-75.033,293.981l3.628,0.907L392.811,293.102"/>
		<path d="M392.811,293.102L467.844-0.879l-3.628-0.907L392.811,293.102"/>
		<path fill="#1A1A1A" d="M392.811,293.102l-71.405,294.888l3.628,0.85L392.811,293.102"/>
		<path d="M392.811,293.102L464.216-1.786l-3.657-0.85L392.811,293.102"/>
		<path fill="#191919" d="M392.811,293.102l-67.776,295.739l3.657,0.822L392.811,293.102"/>
		<path fill="#010101" d="M392.811,293.102L460.559-2.636l-3.628-0.822L392.811,293.102"/>
		<path fill="#191919" d="M392.811,293.102l-64.12,296.561l3.657,0.765L392.811,293.102"/>
		<path fill="#010101" d="M392.811,293.102l64.12-296.561l-3.657-0.765L392.811,293.102"/>
		<path fill="#191919" d="M392.811,293.102l-60.463,297.326l3.657,0.709L392.811,293.102"/>
		<path fill="#010101" d="M392.811,293.102L453.274-4.224l-3.685-0.709L392.811,293.102"/>
		<path fill="#191919" d="M392.811,293.102l-56.806,298.035l3.685,0.68L392.811,293.102"/>
		<path fill="#010101" d="M392.811,293.102L449.589-4.932l-3.657-0.68L392.811,293.102"/>
		<path fill="#191919" d="M392.811,293.102L339.69,591.817l3.685,0.624L392.811,293.102"/>
		<path fill="#010101" d="M392.811,293.102L445.932-5.613l-3.685-0.624L392.811,293.102"/>
		<path fill="#191919" d="M392.811,293.102l-49.436,299.339l3.685,0.595L392.811,293.102"/>
		<path fill="#010101" d="M392.811,293.102L442.247-6.236l-3.713-0.595L392.811,293.102"/>
		<path fill="#191919" d="M392.811,293.102L347.06,593.036l3.685,0.539L392.811,293.102"/>
		<path fill="#010101" d="M392.811,293.102L438.534-6.831l-3.685-0.539L392.811,293.102"/>
		<path fill="#191919" d="M392.811,293.102l-42.066,300.472l3.713,0.51L392.811,293.102"/>
		<path fill="#010101" d="M392.811,293.102L434.849-7.37l-3.713-0.51L392.811,293.102"/>
		<path fill="#191919" d="M392.811,293.102l-38.353,300.983l3.713,0.425L392.811,293.102"/>
		<path fill="#010101" d="M392.811,293.102L431.135-7.88l-3.713-0.425L392.811,293.102"/>
		<path fill="#191919" d="M392.811,293.102L358.172,594.51l3.713,0.425L392.811,293.102"/>
		<path fill="#010101" d="M392.811,293.102L427.422-8.306l-3.713-0.425L392.811,293.102"/>
		<path fill="#181818" d="M392.811,293.102l-30.926,301.833l3.713,0.34L392.811,293.102"/>
		<path fill="#020202" d="M392.811,293.102L423.709-8.731l-3.713-0.34L392.811,293.102"/>
		<path fill="#181818" d="M392.811,293.102l-27.213,302.173l3.742,0.312L392.811,293.102"/>
		<path fill="#020202" d="M392.811,293.102L419.995-9.071l-3.742-0.312L392.811,293.102"/>
		<path fill="#181818" d="M392.811,293.102L369.34,595.587l3.713,0.283L392.811,293.102"/>
		<path fill="#020202" d="M392.811,293.102L416.254-9.383l-3.713-0.283L392.811,293.102"/>
		<path fill="#181818" d="M392.811,293.102l-19.758,302.768l3.742,0.198L392.811,293.102"/>
		<path fill="#020202" d="M392.811,293.102L412.54-9.666l-3.742-0.227L392.811,293.102"/>
		<path fill="#181818" d="M392.811,293.102l-16.016,302.967l3.742,0.198L392.811,293.102"/>
		<path fill="#020202" d="M392.811,293.102L408.798-9.893l-3.713-0.17L392.811,293.102"/>
		<path fill="#181818" d="M392.811,293.102l-12.274,303.165l3.713,0.113L392.811,293.102"/>
		<path fill="#020202" d="M392.811,293.102l12.274-303.165l-3.742-0.113L392.811,293.102"/>
		<path fill="#181818" d="M392.811,293.102l-8.561,303.279l3.742,0.085L392.811,293.102"/>
		<path fill="#020202" d="M392.811,293.102l8.532-303.279l-3.742-0.085L392.811,293.102"/>
		<path fill="#181818" d="M392.811,293.102l-4.819,303.364l3.742,0.028L392.811,293.102"/>
		<path fill="#020202" d="M392.811,293.102l4.791-303.364l-3.742-0.028L392.811,293.102"/>
		<path fill="#181818" d="M392.811,293.102l-1.077,303.392h3.742L392.811,293.102"/>
		<path fill="#020202" d="M392.811,293.102L393.86-10.29h-3.742L392.811,293.102"/>
		<path fill="#181818" d="M392.811,293.102l2.665,303.392l3.742-0.057L392.811,293.102"/>
		<path fill="#020202" d="M392.811,293.102L390.118-10.29l-3.742,0.057L392.811,293.102"/>
		<path fill="#171717" d="M392.811,293.102l6.406,303.335l3.742-0.113L392.811,293.102"/>
		<path fill="#030303" d="M392.811,293.102l-6.435-303.335l-3.713,0.113L392.811,293.102"/>
		<path fill="#171717" d="M392.811,293.102l10.148,303.222l3.713-0.142L392.811,293.102"/>
		<path fill="#030303" d="M392.811,293.102L382.663-10.12l-3.742,0.142L392.811,293.102"/>
		<path fill="#171717" d="M392.811,293.102l13.861,303.08l3.742-0.198L392.811,293.102"/>
		<path fill="#030303" d="M392.811,293.102l-13.89-303.08L375.18-9.78L392.811,293.102"/>
		<path fill="#171717" d="M392.811,293.102l17.603,302.882l3.742-0.227L392.811,293.102"/>
		<path fill="#030303" d="M392.811,293.102L375.18-9.78l-3.713,0.227L392.811,293.102"/>
		<path fill="#171717" d="M392.811,293.102l21.345,302.655l3.713-0.284L392.811,293.102"/>
		<path fill="#030303" d="M392.811,293.102L371.466-9.553l-3.742,0.283L392.811,293.102"/>
		<path fill="#171717" d="M392.811,293.102l25.058,302.372l3.742-0.34L392.811,293.102"/>
		<path fill="#030303" d="M392.811,293.102L367.724-9.269l-3.713,0.34L392.811,293.102"/>
		<path fill="#171717" d="M392.811,293.102l28.8,302.031l3.713-0.368L392.811,293.102"/>
		<path fill="#030303" d="M392.811,293.102l-28.8-302.031l-3.713,0.369L392.811,293.102"/>
		<path fill="#171717" d="M392.811,293.102l32.513,301.663l3.713-0.425L392.811,293.102"/>
		<path fill="#030303" d="M392.811,293.102L360.298-8.561l-3.713,0.425L392.811,293.102"/>
		<path fill="#171717" d="M392.811,293.102l36.227,301.238l3.713-0.482L392.811,293.102"/>
		<path fill="#030303" d="M392.811,293.102L356.584-8.135l-3.713,0.482L392.811,293.102"/>
		<path fill="#171717" d="M392.811,293.102l39.94,300.756l3.685-0.51L392.811,293.102"/>
		<path fill="#030303" d="M392.811,293.102L352.871-7.654l-3.713,0.51L392.811,293.102"/>
		<path fill="#161616" d="M392.811,293.102l43.625,300.246l3.713-0.567L392.811,293.102"/>
		<path fill="#040404" d="M392.811,293.102L349.157-7.143l-3.685,0.567L392.811,293.102"/>
		<path fill="#161616" d="M392.811,293.102l47.339,299.679l3.685-0.595L392.811,293.102"/>
		<path fill="#040404" d="M392.811,293.102L345.472-6.576l-3.685,0.595L392.811,293.102"/>
		<path fill="#161616" d="M392.811,293.102l51.024,299.083l3.657-0.652L392.811,293.102"/>
		<path fill="#040404" d="M392.811,293.102L341.787-5.981l-3.685,0.652L392.811,293.102"/>
		<path fill="#161616" d="M392.811,293.102l54.68,298.432l3.685-0.709L392.811,293.102"/>
		<path fill="#040404" d="M392.811,293.102L338.102-5.329l-3.685,0.709L392.811,293.102"/>
		<path fill="#161616" d="M392.811,293.102l58.365,297.723l3.657-0.737L392.811,293.102"/>
		<path fill="#040404" d="M392.811,293.102L334.417-4.62l-3.657,0.737L392.811,293.102"/>
		<path fill="#161616" d="M392.811,293.102l62.022,296.986l3.657-0.794L392.811,293.102"/>
		<path fill="#040404" d="M392.811,293.102L330.761-3.883l-3.657,0.765L392.811,293.102"/>
		<path fill="#161616" d="M392.811,293.102l65.679,296.192l3.657-0.822L392.811,293.102"/>
		<path fill="#040404" d="M392.811,293.102L327.104-3.118l-3.628,0.85L392.811,293.102"/>
		<path fill="#161616" d="M392.811,293.102l69.335,295.37l3.628-0.879L392.811,293.102"/>
		<path fill="#040404" d="M392.811,293.102L323.476-2.268l-3.657,0.879L392.811,293.102"/>
		<path fill="#161616" d="M392.811,293.102l72.964,294.491l3.628-0.907L392.811,293.102"/>
		<path fill="#040404" d="M392.811,293.102L319.819-1.389l-3.6,0.907L392.811,293.102"/>
		<path fill="#161616" d="M392.811,293.102l76.592,293.584l3.6-0.964L392.811,293.102"/>
		<path fill="#040404" d="M392.811,293.102L316.219-0.482l-3.628,0.964L392.811,293.102"/>
		<path fill="#151515" d="M392.811,293.102l80.192,292.62l3.6-1.02L392.811,293.102"/>
		<path fill="#050505" d="M392.811,293.102l-80.22-292.62l-3.6,1.02L392.811,293.102"/>
		<path fill="#151515" d="M392.811,293.102l83.792,291.6l3.6-1.049L392.811,293.102"/>
		<path fill="#050505" d="M392.811,293.102l-83.82-291.6l-3.572,1.049L392.811,293.102"/>
		<path fill="#151515" d="M392.811,293.102l87.392,290.551l3.572-1.106L392.811,293.102"/>
		<path fill="#050505" d="M392.811,293.102L305.419,2.551l-3.572,1.106L392.811,293.102"/>
		<path fill="#151515" d="M392.811,293.102l90.964,289.446l3.543-1.134L392.811,293.102"/>
		<path fill="#050505" d="M392.811,293.102L301.847,3.657l-3.572,1.134L392.811,293.102"/>
		<path fill="#151515" d="M392.811,293.102l94.507,288.312l3.543-1.191L392.811,293.102"/>
		<path fill="#050505" d="M392.811,293.102L298.276,4.791l-3.543,1.191L392.811,293.102"/>
		<path fill="#151515" d="M392.811,293.102l98.05,287.121l3.543-1.247L392.811,293.102"/>
		<path fill="#050505" d="M392.811,293.102L294.732,5.981l-3.515,1.247L392.811,293.102"/>
		<path fill="#151515" d="M392.811,293.102l101.594,285.874l3.515-1.276L392.811,293.102"/>
		<path fill="#050505" d="M392.811,293.102L291.217,7.228l-3.515,1.247L392.811,293.102"/>
		<path fill="#151515" d="M392.811,293.102L497.92,577.701l3.487-1.304L392.811,293.102"/>
		<path fill="#050505" d="M392.811,293.102L287.702,8.476l-3.515,1.332L392.811,293.102"/>
		<path fill="#151515" d="M392.811,293.102l108.595,283.294l3.487-1.361L392.811,293.102"/>
		<path fill="#050505" d="M392.811,293.102L284.187,9.808l-3.487,1.361L392.811,293.102"/>
		<path fill="#141414" d="M392.811,293.102l112.082,281.934l3.458-1.389L392.811,293.102"/>
		<path fill="#060606" d="M392.811,293.102L280.701,11.169l-3.458,1.389L392.811,293.102"/>
		<path fill="#141414" d="M392.811,293.102l115.54,280.545l3.458-1.446L392.811,293.102"/>
		<path fill="#060606" d="M392.811,293.102L277.243,12.557l-3.458,1.446L392.811,293.102"/>
		<path fill="#141414" d="M392.811,293.102l118.998,279.099l3.43-1.502L392.811,293.102"/>
		<path fill="#060606" d="M392.811,293.102L273.784,14.003l-3.43,1.502L392.811,293.102"/>
		<path fill="#141414" d="M392.811,293.102l122.428,277.597l3.402-1.531L392.811,293.102"/>
		<path fill="#060606" d="M392.811,293.102L270.354,15.506l-3.402,1.531L392.811,293.102"/>
		<path fill="#141414" d="M392.811,293.102l125.83,276.066l3.402-1.559L392.811,293.102"/>
		<path fill="#060606" d="M392.811,293.102L266.953,17.036l-3.373,1.559L392.811,293.102"/>
		<path fill="#141414" d="M392.811,293.102l129.232,274.507l3.373-1.616L392.811,293.102"/>
		<path fill="#060606" d="M392.811,293.102L263.58,18.595l-3.373,1.616L392.811,293.102"/>
		<path fill="#141414" d="M392.811,293.102l132.605,272.891l3.345-1.672L392.811,293.102"/>
		<path fill="#060606" d="M392.811,293.102L260.206,20.211l-3.373,1.644L392.811,293.102"/>
		<path fill="#141414" d="M392.811,293.102l135.95,271.219l3.317-1.672L392.811,293.102"/>
		<path fill="#060606" d="M392.811,293.102L256.833,21.855l-3.317,1.701L392.811,293.102"/>
		<path fill="#141414" d="M392.811,293.102l139.266,269.546l3.317-1.757L392.811,293.102"/>
		<path fill="#060606" d="M392.811,293.102L253.517,23.556l-3.317,1.729L392.811,293.102"/>
		<path fill="#141414" d="M392.811,293.102l142.583,267.789l3.288-1.758L392.811,293.102"/>
		<path fill="#060606" d="M392.811,293.102L250.2,25.285l-3.288,1.786L392.811,293.102"/>
		<path fill="#131313" d="M392.811,293.102l145.871,266.031l3.26-1.814L392.811,293.102"/>
		<path fill="#070707" d="M392.811,293.102L246.912,27.071l-3.26,1.814L392.811,293.102"/>
		<path fill="#131313" d="M392.811,293.102L541.942,557.32l3.26-1.871L392.811,293.102"/>
		<path fill="#070707" d="M392.811,293.102L243.652,28.885l-3.26,1.871L392.811,293.102"/>
		<path fill="#131313" d="M392.811,293.102l152.391,262.346l3.231-1.899L392.811,293.102"/>
		<path fill="#070707" d="M392.811,293.102L240.392,30.756l-3.203,1.899L392.811,293.102"/>
		<path fill="#131313" d="M392.811,293.102L548.433,553.55l3.175-1.928L392.811,293.102"/>
		<path fill="#070707" d="M392.811,293.102L237.189,32.655l-3.203,1.928L392.811,293.102"/>
		<path fill="#131313" d="M392.811,293.102l158.797,258.52l3.175-1.984L392.811,293.102"/>
		<path fill="#070707" d="M392.811,293.102L233.986,34.583l-3.175,1.984L392.811,293.102"/>
		<path fill="#131313" d="M392.811,293.102l161.972,256.535l3.146-2.013L392.811,293.102"/>
		<path fill="#070707" d="M392.811,293.102l-162-256.535l-3.146,2.013L392.811,293.102"/>
		<path fill="#131313" d="M392.811,293.102l165.118,254.523l3.118-2.041L392.811,293.102"/>
		<path fill="#070707" d="M392.811,293.102L227.665,38.58l-3.118,2.041L392.811,293.102"/>
		<path fill="#131313" d="M392.811,293.102l168.236,252.482l3.118-2.098L392.811,293.102"/>
		<path fill="#070707" d="M392.811,293.102L224.546,40.62l-3.09,2.098L392.811,293.102"/>
		<path fill="#131313" d="M392.811,293.102l171.354,250.384l3.061-2.126L392.811,293.102"/>
		<path fill="#070707" d="M392.811,293.102L221.457,42.718l-3.09,2.126L392.811,293.102"/>
		<path fill="#131313" d="M392.811,293.102l174.416,248.258l3.061-2.183L392.811,293.102"/>
		<path fill="#070707" d="M392.811,293.102L218.367,44.844l-3.033,2.183L392.811,293.102"/>
		<path fill="#121212" d="M392.811,293.102l177.477,246.076l3.005-2.211L392.811,293.102"/>
		<path fill="#080808" d="M392.811,293.102L215.334,47.027l-3.033,2.211L392.811,293.102"/>
		<path fill="#121212" d="M392.811,293.102l180.482,243.865l3.005-2.239L392.811,293.102"/>
		<path fill="#080808" d="M392.811,293.102L212.301,49.238l-2.976,2.239L392.811,293.102"/>
		<path fill="#121212" d="M392.811,293.102l183.487,241.625l2.948-2.268L392.811,293.102"/>
		<path fill="#080808" d="M392.811,293.102L209.324,51.477l-2.976,2.268L392.811,293.102"/>
		<path fill="#121212" d="M392.811,293.102L579.246,532.46l2.948-2.324L392.811,293.102"/>
		<path fill="#080808" d="M392.811,293.102L206.348,53.745l-2.92,2.324L392.811,293.102"/>
		<path fill="#121212" d="M392.811,293.102l189.383,237.033l2.891-2.353L392.811,293.102"/>
		<path fill="#080808" d="M392.811,293.102L203.428,56.069l-2.92,2.353L392.811,293.102"/>
		<path fill="#121212" d="M392.811,293.102l192.274,234.68l2.891-2.381L392.811,293.102"/>
		<path fill="#080808" d="M392.811,293.102L200.509,58.422l-2.863,2.381L392.811,293.102"/>
		<path fill="#121212" d="M392.811,293.102l195.165,232.299l2.835-2.409L392.811,293.102"/>
		<path fill="#080808" d="M392.811,293.102L197.646,60.803l-2.863,2.409L392.811,293.102"/>
		<path fill="#121212" d="M392.811,293.102l198,229.89l2.806-2.466L392.811,293.102"/>
		<path fill="#080808" d="M392.811,293.102L194.783,63.213l-2.806,2.466L392.811,293.102"/>
		<path fill="#121212" d="M392.811,293.102l200.806,227.424l2.806-2.495L392.811,293.102"/>
		<path fill="#080808" d="M392.811,293.102L191.976,65.679l-2.778,2.494L392.811,293.102"/>
		<path fill="#121212" d="M392.811,293.102l203.613,224.929l2.75-2.523L392.811,293.102"/>
		<path fill="#080808" d="M392.811,293.102L189.198,68.173l-2.778,2.523L392.811,293.102"/>
		<path fill="#111111" d="M392.811,293.102l206.362,222.406l2.721-2.551L392.811,293.102"/>
		<path fill="#090909" d="M392.811,293.102L186.42,70.696l-2.721,2.551L392.811,293.102"/>
		<path fill="#111111" d="M392.811,293.102l209.083,219.855l2.693-2.608L392.811,293.102"/>
		<path fill="#090909" d="M392.811,293.102L183.699,73.247l-2.693,2.608L392.811,293.102"/>
		<path fill="#111111" d="M392.811,293.102L604.587,510.35l2.665-2.608L392.811,293.102"/>
		<path fill="#090909" d="M392.811,293.102L181.006,75.855l-2.665,2.608L392.811,293.102"/>
		<path fill="#111111" d="M392.811,293.102l214.441,214.639l2.636-2.665L392.811,293.102"/>
		<path fill="#090909" d="M392.811,293.102L178.342,78.463l-2.608,2.665L392.811,293.102"/>
		<path fill="#111111" d="M392.811,293.102l217.077,211.975l2.58-2.693L392.811,293.102"/>
		<path fill="#090909" d="M392.811,293.102L175.734,81.128l-2.608,2.693L392.811,293.102"/>
		<path fill="#111111" d="M392.811,293.102l219.657,209.282l2.551-2.721L392.811,293.102"/>
		<path fill="#090909" d="M392.811,293.102L173.126,83.82l-2.551,2.721L392.811,293.102"/>
		<path fill="#111111" d="M392.811,293.102l222.208,206.561l2.551-2.75L392.811,293.102"/>
		<path fill="#090909" d="M392.811,293.102L170.575,86.542l-2.523,2.75L392.811,293.102"/>
		<path fill="#111111" d="M392.811,293.102L617.57,496.913l2.495-2.806L392.811,293.102"/>
		<path fill="#090909" d="M392.811,293.102L168.052,89.291l-2.494,2.778L392.811,293.102"/>
		<path fill="#111111" d="M392.811,293.102l227.254,201.005l2.438-2.806L392.811,293.102"/>
		<path fill="#090909" d="M392.811,293.102L165.557,92.069l-2.466,2.835L392.811,293.102"/>
		<path fill="#111111" d="M392.811,293.102l229.691,198.198l2.438-2.835L392.811,293.102"/>
		<path fill="#090909" d="M392.811,293.102L163.091,94.904l-2.438,2.835L392.811,293.102"/>
		<path fill="#101010" d="M392.811,293.102L624.94,488.466l2.381-2.891L392.811,293.102"/>
		<path fill="#0A0A0A" d="M392.811,293.102L160.654,97.739l-2.381,2.863L392.811,293.102"/>
		<path fill="#101010" d="M392.811,293.102l234.51,192.472l2.353-2.891L392.811,293.102"/>
		<path fill="#0A0A0A" d="M392.811,293.102L158.272,100.602l-2.353,2.92L392.811,293.102"/>
		<path fill="#101010" d="M392.811,293.102l236.863,189.581l2.324-2.92L392.811,293.102"/>
		<path fill="#0A0A0A" d="M392.811,293.102L155.92,103.521l-2.324,2.92L392.811,293.102"/>
		<path fill="#101010" d="M392.811,293.102l239.187,186.661l2.268-2.976L392.811,293.102"/>
		<path fill="#0A0A0A" d="M392.811,293.102L153.595,106.441l-2.268,2.976L392.811,293.102"/>
		<path fill="#101010" d="M392.811,293.102l241.455,183.685l2.268-2.976L392.811,293.102"/>
		<path fill="#0A0A0A" d="M392.811,293.102L151.328,109.417l-2.239,2.976L392.811,293.102"/>
		<path fill="#101010" d="M392.811,293.102l243.723,180.709l2.211-3.033L392.811,293.102"/>
		<path fill="#0A0A0A" d="M392.811,293.102L149.088,112.394l-2.211,3.033L392.811,293.102"/>
		<path fill="#101010" d="M392.811,293.102l245.934,177.676l2.154-3.033L392.811,293.102"/>
		<path fill="#0A0A0A" d="M392.811,293.102L146.877,115.427l-2.183,3.033L392.811,293.102"/>
		<path fill="#101010" d="M392.811,293.102l248.088,174.643l2.126-3.061L392.811,293.102"/>
		<path fill="#0A0A0A" d="M392.811,293.102L144.694,118.46l-2.126,3.061L392.811,293.102"/>
		<path fill="#101010" d="M392.811,293.102l250.214,171.581l2.098-3.118L392.811,293.102"/>
		<path fill="#0A0A0A" d="M392.811,293.102L142.568,121.521l-2.098,3.118L392.811,293.102"/>
		<path fill="#0F0F0F" d="M392.811,293.102l252.312,168.463l2.069-3.118L392.811,293.102"/>
		<path fill="#0B0B0B" d="M392.811,293.102l-252.34-168.463l-2.041,3.118L392.811,293.102"/>
		<path fill="#0F0F0F" d="M392.811,293.102l254.381,165.345l2.013-3.146L392.811,293.102"/>
		<path fill="#0B0B0B" d="M392.811,293.102L138.43,127.757l-2.041,3.146L392.811,293.102"/>
		<path fill="#0F0F0F" d="M392.811,293.102l256.394,162.198l1.984-3.175L392.811,293.102"/>
		<path fill="#0B0B0B" d="M392.811,293.102L136.389,130.904l-1.956,3.175L392.811,293.102"/>
		<path fill="#0F0F0F" d="M392.811,293.102l258.378,159.024l1.928-3.175L392.811,293.102"/>
		<path fill="#0B0B0B" d="M392.811,293.102L134.433,134.079l-1.956,3.175L392.811,293.102"/>
		<path fill="#0F0F0F" d="M392.811,293.102l260.305,155.849l1.899-3.231L392.811,293.102"/>
		<path fill="#0B0B0B" d="M392.811,293.102L132.477,137.254l-1.899,3.232L392.811,293.102"/>
		<path fill="#0F0F0F" d="M392.811,293.102L655.016,445.72l1.871-3.232L392.811,293.102"/>
		<path fill="#0B0B0B" d="M392.811,293.102L130.578,140.485l-1.871,3.231L392.811,293.102"/>
		<path fill="#0F0F0F" d="M392.811,293.102l264.076,149.386l1.814-3.26L392.811,293.102"/>
		<path fill="#0B0B0B" d="M392.811,293.102L128.707,143.717l-1.814,3.26L392.811,293.102"/>
		<path fill="#0F0F0F" d="M392.811,293.102l265.89,146.126l1.786-3.288L392.811,293.102"/>
		<path fill="#0B0B0B" d="M392.811,293.102L126.893,146.976l-1.786,3.288L392.811,293.102"/>
		<path fill="#0F0F0F" d="M392.811,293.102L660.487,435.94l1.729-3.317L392.811,293.102"/>
		<path fill="#0B0B0B" d="M392.811,293.102L125.107,150.265l-1.729,3.317L392.811,293.102"/>
		<path fill="#0F0F0F" d="M392.811,293.102l269.405,139.521l1.701-3.345L392.811,293.102"/>
		<path fill="#0B0B0B" d="M392.811,293.102L123.378,153.581l-1.701,3.345L392.811,293.102"/>
		<path fill="#0E0E0E" d="M392.811,293.102l271.105,136.176l1.672-3.345L392.811,293.102"/>
		<path fill="#0C0C0C" d="M392.811,293.102L121.677,156.926l-1.644,3.345L392.811,293.102"/>
		<path fill="#0E0E0E" d="M392.811,293.102l272.778,132.832l1.616-3.373L392.811,293.102"/>
		<path fill="#0C0C0C" d="M392.811,293.102L120.033,160.271l-1.616,3.373L392.811,293.102"/>
		<path fill="#0E0E0E" d="M392.811,293.102l274.394,129.458l1.559-3.373L392.811,293.102"/>
		<path fill="#0C0C0C" d="M392.811,293.102L118.417,163.644l-1.587,3.373L392.811,293.102"/>
		<path fill="#0E0E0E" d="M392.811,293.102l275.953,126.085l1.531-3.43L392.811,293.102"/>
		<path fill="#0C0C0C" d="M392.811,293.102L116.83,167.017l-1.531,3.402L392.811,293.102"/>
		<path fill="#0E0E0E" d="M392.811,293.102l277.483,122.655l1.502-3.43L392.811,293.102"/>
		<path fill="#0C0C0C" d="M392.811,293.102L115.299,170.419l-1.474,3.43L392.811,293.102"/>
		<path fill="#0E0E0E" d="M392.811,293.102l278.986,119.225l1.446-3.43L392.811,293.102"/>
		<path fill="#0C0C0C" d="M392.811,293.102L113.825,173.849l-1.474,3.458L392.811,293.102"/>
		<path fill="#0E0E0E" d="M392.811,293.102l280.431,115.795l1.389-3.458L392.811,293.102"/>
		<path fill="#0C0C0C" d="M392.811,293.102l-280.46-115.795l-1.389,3.458L392.811,293.102"/>
		<path fill="#0E0E0E" d="M392.811,293.102l281.82,112.337l1.361-3.487L392.811,293.102"/>
		<path fill="#0C0C0C" d="M392.811,293.102L110.962,180.765l-1.361,3.487L392.811,293.102"/>
		<path fill="#0E0E0E" d="M392.811,293.102l283.181,108.85l1.332-3.487L392.811,293.102"/>
		<path fill="#0C0C0C" d="M392.811,293.102l-283.209-108.85l-1.332,3.487L392.811,293.102"/>
		<path fill="#0E0E0E" d="M392.811,293.102l284.513,105.364l1.276-3.515L392.811,293.102"/>
		<path fill="#0C0C0C" d="M392.811,293.102L108.269,187.739l-1.276,3.515L392.811,293.102"/>
		<path fill="#0D0D0D" d="M392.811,293.102L678.6,394.951l1.247-3.543L392.811,293.102"/>
		<path fill="#0D0D0D" d="M392.811,293.102L106.994,191.254l-1.219,3.543L392.811,293.102"/>
		<path fill="#0D0D0D" d="M392.811,293.102l287.036,98.306l1.162-3.543L392.811,293.102"/>
		<path fill="#0D0D0D" d="M392.811,293.102l-287.036-98.305l-1.191,3.543L392.811,293.102"/>
		<path fill="#0D0D0D" d="M392.811,293.102l288.198,94.762l1.162-3.543L392.811,293.102"/>
		<path fill="#0D0D0D" d="M392.811,293.102L104.584,198.34l-1.162,3.543L392.811,293.102"/>
		<path fill="#0D0D0D" d="M392.811,293.102l289.361,91.219l1.106-3.572L392.811,293.102"/>
		<path fill="#0D0D0D" d="M392.811,293.102l-289.389-91.219l-1.106,3.572L392.811,293.102"/>
		<path fill="#0D0D0D" d="M392.811,293.102l290.466,87.647l1.049-3.6L392.811,293.102"/>
		<path fill="#0D0D0D" d="M392.811,293.102l-290.495-87.647l-1.049,3.6L392.811,293.102"/>
		<path fill="#0D0D0D" d="M392.811,293.102l291.515,84.047l1.02-3.6L392.811,293.102"/>
		<path fill="#0D0D0D" d="M392.811,293.102l-291.543-84.047l-1.02,3.6L392.811,293.102"/>
		<path fill="#0D0D0D" d="M392.811,293.102l292.535,80.447l0.964-3.6L392.811,293.102"/>
		<path fill="#0D0D0D" d="M392.811,293.102l-292.564-80.447l-0.964,3.6L392.811,293.102"/>
		<path fill="#0D0D0D" d="M392.811,293.102L686.31,369.95l0.935-3.628L392.811,293.102"/>
		<path fill="#0D0D0D" d="M392.811,293.102L99.283,216.255l-0.907,3.628L392.811,293.102"/>
		<path fill="#0D0D0D" d="M392.811,293.102l294.435,73.219l0.879-3.628L392.811,293.102"/>
		<path fill="#0D0D0D" d="M392.811,293.102L98.376,219.883l-0.879,3.628L392.811,293.102"/>
		<path fill="#0D0D0D" d="M392.811,293.102l295.313,69.591l0.822-3.657L392.811,293.102"/>
		<path fill="#0D0D0D" d="M392.811,293.102L97.498,223.512l-0.85,3.657L392.811,293.102"/>
		<path fill="#0C0C0C" d="M392.811,293.102l296.135,65.934l0.794-3.657L392.811,293.102"/>
		<path fill="#0E0E0E" d="M392.811,293.102L96.647,227.169l-0.794,3.628L392.811,293.102"/>
		<path fill="#0C0C0C" d="M392.811,293.102L689.74,355.38l0.737-3.657L392.811,293.102"/>
		<path fill="#0E0E0E" d="M392.811,293.102L95.854,230.797l-0.737,3.685L392.811,293.102"/>
		<path fill="#0C0C0C" d="M392.811,293.102l297.666,58.62l0.709-3.657L392.811,293.102"/>
		<path fill="#0E0E0E" d="M392.811,293.102l-297.695-58.62l-0.709,3.657L392.811,293.102"/>
		<path fill="#0C0C0C" d="M392.811,293.102l298.375,54.964l0.652-3.685L392.811,293.102"/>
		<path fill="#0E0E0E" d="M392.811,293.102L94.408,238.139l-0.652,3.685L392.811,293.102"/>
		<path fill="#0C0C0C" d="M392.811,293.102l299.027,51.279l0.624-3.685L392.811,293.102"/>
		<path fill="#0E0E0E" d="M392.811,293.102L93.756,241.824l-0.595,3.685L392.811,293.102"/>
		<path fill="#0C0C0C" d="M392.811,293.102l299.65,47.594l0.539-3.713L392.811,293.102"/>
		<path fill="#0E0E0E" d="M392.811,293.102l-299.65-47.594l-0.567,3.685L392.811,293.102"/>
		<path fill="#0C0C0C" d="M392.811,293.102L693,336.983l0.539-3.685L392.811,293.102"/>
		<path fill="#0E0E0E" d="M392.811,293.102L92.594,249.194l-0.51,3.713L392.811,293.102"/>
		<path fill="#0C0C0C" d="M392.811,293.102l300.728,40.195l0.454-3.713L392.811,293.102"/>
		<path fill="#0E0E0E" d="M392.811,293.102L92.083,252.907l-0.482,3.713L392.811,293.102"/>
		<path fill="#0C0C0C" d="M392.811,293.102l301.181,36.482l0.425-3.713L392.811,293.102"/>
		<path fill="#0E0E0E" d="M392.811,293.102L91.602,256.62l-0.425,3.713L392.811,293.102"/>
		<path fill="#0C0C0C" d="M392.811,293.102l301.606,32.769l0.397-3.713L392.811,293.102"/>
		<path fill="#0E0E0E" d="M392.811,293.102L91.176,260.334l-0.397,3.713L392.811,293.102"/>
		<path fill="#0B0B0B" d="M392.811,293.102l302.003,29.055l0.34-3.713L392.811,293.102"/>
		<path fill="#0F0F0F" d="M392.811,293.102L90.78,264.047l-0.312,3.713L392.811,293.102"/>
		<path fill="#0B0B0B" d="M392.811,293.102l302.343,25.342l0.284-3.742L392.811,293.102"/>
		<path fill="#0F0F0F" d="M392.811,293.102L90.468,267.761l-0.312,3.742L392.811,293.102"/>
		<path fill="#0B0B0B" d="M392.811,293.102l302.627,21.6l0.227-3.742L392.811,293.102"/>
		<path fill="#0F0F0F" d="M392.811,293.102l-302.655-21.6l-0.227,3.713L392.811,293.102"/>
		<path fill="#0B0B0B" d="M392.811,293.102l302.854,17.858l0.198-3.713L392.811,293.102"/>
		<path fill="#0F0F0F" d="M392.811,293.102L89.929,275.216l-0.198,3.742L392.811,293.102"/>
		<path fill="#0B0B0B" d="M392.811,293.102l303.052,14.145l0.17-3.742L392.811,293.102"/>
		<path fill="#0F0F0F" d="M392.811,293.102l-303.08-14.145l-0.142,3.742L392.811,293.102"/>
		<path fill="#0B0B0B" d="M392.811,293.102l303.222,10.403l0.085-3.742L392.811,293.102"/>
		<path fill="#0F0F0F" d="M392.811,293.102L89.589,282.699l-0.113,3.742L392.811,293.102"/>
		<path fill="#0B0B0B" d="M392.811,293.102l303.307,6.661l0.085-3.742L392.811,293.102"/>
		<path fill="#0F0F0F" d="M392.811,293.102l-303.335-6.661l-0.057,3.742L392.811,293.102"/>
		<path fill="#0B0B0B" d="M392.811,293.102l303.392,2.92v-3.713L392.811,293.102"/>
		<path fill="#0F0F0F" d="M392.811,293.102l-303.392-2.92l-0.028,3.713L392.811,293.102"/>
		<path fill="#0B0B0B" d="M392.811,293.102l303.392-0.794l-0.028-3.742L392.811,293.102"/>
		<path fill="#0F0F0F" d="M392.811,293.102l-303.42,0.794l0.028,3.742L392.811,293.102"/>
		<path fill="#0B0B0B" d="M392.811,293.102l303.364-4.535l-0.085-3.742L392.811,293.102"/>
		<path fill="#0F0F0F" d="M392.811,293.102l-303.392,4.535l0.085,3.742L392.811,293.102"/>
		<path fill="#0A0A0A" d="M392.811,293.102l303.279-8.277l-0.113-3.742L392.811,293.102"/>
		<path fill="#101010" d="M392.811,293.102L89.504,301.38l0.142,3.742L392.811,293.102"/>
		<path fill="#0A0A0A" d="M392.811,293.102l303.165-12.019l-0.17-3.742L392.811,293.102"/>
		<path fill="#101010" d="M392.811,293.102L89.646,305.121l0.17,3.742L392.811,293.102"/>
		<path fill="#0A0A0A" d="M392.811,293.102l302.995-15.761l-0.227-3.713L392.811,293.102"/>
		<path fill="#101010" d="M392.811,293.102L89.816,308.863l0.198,3.713L392.811,293.102"/>
		<path fill="#0A0A0A" d="M392.811,293.102l302.768-19.474l-0.255-3.742L392.811,293.102"/>
		<path fill="#101010" d="M392.811,293.102L90.014,312.576l0.283,3.742L392.811,293.102"/>
		<path fill="#0A0A0A" d="M392.811,293.102l302.513-23.216l-0.312-3.713L392.811,293.102"/>
		<path fill="#101010" d="M392.811,293.102L90.298,316.318l0.312,3.713L392.811,293.102"/>
		<path fill="#0A0A0A" d="M392.811,293.102l302.202-26.929l-0.368-3.742L392.811,293.102"/>
		<path fill="#101010" d="M392.811,293.102L90.609,320.031l0.34,3.713L392.811,293.102"/>
		<path fill="#0A0A0A" d="M392.811,293.102l301.833-30.671l-0.397-3.713L392.811,293.102"/>
		<path fill="#101010" d="M392.811,293.102L90.95,323.745l0.397,3.742L392.811,293.102"/>
		<path fill="#0A0A0A" d="M392.811,293.102l301.436-34.384l-0.454-3.713L392.811,293.102"/>
		<path fill="#101010" d="M392.811,293.102L91.346,327.487l0.454,3.685L392.811,293.102"/>
		<path fill="#0A0A0A" d="M392.811,293.102l300.983-38.098l-0.482-3.685L392.811,293.102"/>
		<path fill="#101010" d="M392.811,293.102L91.8,331.172l0.482,3.713L392.811,293.102"/>
		<path fill="#090909" d="M392.811,293.102l300.501-41.783l-0.539-3.713L392.811,293.102"/>
		<path fill="#111111" d="M392.811,293.102L92.282,334.885l0.539,3.713L392.811,293.102"/>
		<path fill="#090909" d="M392.811,293.102l299.962-45.496l-0.595-3.685L392.811,293.102"/>
		<path fill="#111111" d="M392.811,293.102L92.82,338.598l0.595,3.685L392.811,293.102"/>
		<path fill="#090909" d="M392.811,293.102l299.367-49.181l-0.624-3.685L392.811,293.102"/>
		<path fill="#111111" d="M392.811,293.102L93.416,342.283l0.624,3.685L392.811,293.102"/>
		<path fill="#090909" d="M392.811,293.102l298.743-52.866l-0.68-3.685L392.811,293.102"/>
		<path fill="#111111" d="M392.811,293.102L94.039,345.969l0.68,3.685L392.811,293.102"/>
		<path fill="#090909" d="M392.811,293.102l298.063-56.551l-0.709-3.657L392.811,293.102"/>
		<path fill="#111111" d="M392.811,293.102L94.72,349.654l0.709,3.657L392.811,293.102"/>
		<path fill="#090909" d="M392.811,293.102l297.354-60.208l-0.765-3.657L392.811,293.102"/>
		<path fill="#111111" d="M392.811,293.102L95.428,353.31l0.765,3.657L392.811,293.102"/>
		<path fill="#090909" d="M392.811,293.102L689.4,229.238l-0.794-3.657L392.811,293.102"/>
		<path fill="#111111" d="M392.811,293.102L96.194,356.967l0.822,3.657L392.811,293.102"/>
		<path fill="#090909" d="M392.811,293.102l295.795-67.521l-0.879-3.628L392.811,293.102"/>
		<path fill="#111111" d="M392.811,293.102L97.016,360.624l0.85,3.628L392.811,293.102"/>
		<path fill="#090909" d="M392.811,293.102l294.917-71.15l-0.879-3.628L392.811,293.102"/>
		<path fill="#111111" d="M392.811,293.102l-294.945,71.15l0.907,3.628L392.811,293.102"/>
		<path fill="#090909" d="M392.811,293.102l294.038-74.778l-0.964-3.628L392.811,293.102"/>
		<path fill="#111111" d="M392.811,293.102L98.773,367.88l0.935,3.628L392.811,293.102"/>
		<path fill="#080808" d="M392.811,293.102l293.074-78.406l-0.964-3.6L392.811,293.102"/>
		<path fill="#121212" d="M392.811,293.102L99.709,371.509l0.992,3.6L392.811,293.102"/>
		<path fill="#080808" d="M392.811,293.102l292.11-82.006l-1.049-3.6L392.811,293.102"/>
		<path fill="#121212" d="M392.811,293.102l-292.11,82.006l1.02,3.6L392.811,293.102"/>
		<path fill="#080808" d="M392.811,293.102l291.061-85.606l-1.077-3.572L392.811,293.102"/>
		<path fill="#121212" d="M392.811,293.102l-291.09,85.606l1.077,3.572L392.811,293.102"/>
		<path fill="#080808" d="M392.811,293.102l289.984-89.178l-1.106-3.572L392.811,293.102"/>
		<path fill="#121212" d="M392.811,293.102L102.798,382.28l1.134,3.572L392.811,293.102"/>
		<path fill="#080808" d="M392.811,293.102l288.879-92.75l-1.162-3.543L392.811,293.102"/>
		<path fill="#121212" d="M392.811,293.102l-288.879,92.75l1.162,3.543L392.811,293.102"/>
		<path fill="#080808" d="M392.811,293.102l287.716-96.293l-1.219-3.543L392.811,293.102"/>
		<path fill="#121212" d="M392.811,293.102l-287.717,96.293l1.191,3.543L392.811,293.102"/>
		<path fill="#080808" d="M392.811,293.102l286.498-99.836l-1.247-3.515L392.811,293.102"/>
		<path fill="#121212" d="M392.811,293.102l-286.526,99.836l1.247,3.515L392.811,293.102"/>
		<path fill="#080808" d="M392.811,293.102l285.25-103.351l-1.304-3.515L392.811,293.102"/>
		<path fill="#121212" d="M392.811,293.102L107.532,396.454l1.304,3.515L392.811,293.102"/>
		<path fill="#080808" d="M392.811,293.102l283.946-106.866l-1.332-3.487L392.811,293.102"/>
		<path fill="#121212" d="M392.811,293.102L108.836,399.969l1.332,3.487L392.811,293.102"/>
		<path fill="#080808" d="M392.811,293.102L675.425,182.75l-1.389-3.487L392.811,293.102"/>
		<path fill="#121212" d="M392.811,293.102L110.169,403.455l1.389,3.458L392.811,293.102"/>
		<path fill="#070707" d="M392.811,293.102l281.225-113.839l-1.417-3.458L392.811,293.102"/>
		<path fill="#131313" d="M392.811,293.102L111.557,406.913l1.417,3.458L392.811,293.102"/>
		<path fill="#070707" d="M392.811,293.102l279.808-117.298l-1.474-3.43L392.811,293.102"/>
		<path fill="#131313" d="M392.811,293.102L112.975,410.372l1.474,3.458L392.811,293.102"/>
		<path fill="#070707" d="M392.811,293.102l278.334-120.728l-1.502-3.402L392.811,293.102"/>
		<path fill="#131313" d="M392.811,293.102L114.449,413.83l1.502,3.402L392.811,293.102"/>
		<path fill="#070707" d="M392.811,293.102l276.831-124.129l-1.559-3.402L392.811,293.102"/>
		<path fill="#131313" d="M392.811,293.102l-276.86,124.129l1.559,3.402L392.811,293.102"/>
		<path fill="#070707" d="M392.811,293.102l275.272-127.531l-1.587-3.402L392.811,293.102"/>
		<path fill="#131313" d="M392.811,293.102L117.51,420.633l1.587,3.402L392.811,293.102"/>
		<path fill="#070707" d="M392.811,293.102L666.496,162.17l-1.616-3.345L392.811,293.102"/>
		<path fill="#131313" d="M392.811,293.102L119.098,424.035l1.644,3.345L392.811,293.102"/>
		<path fill="#070707" d="M392.811,293.102L664.88,158.825l-1.701-3.345L392.811,293.102"/>
		<path fill="#131313" d="M392.811,293.102L120.742,427.38l1.672,3.345L392.811,293.102"/>
		<path fill="#070707" d="M392.811,293.102L663.18,155.48l-1.701-3.317L392.811,293.102"/>
		<path fill="#131313" d="M392.811,293.102L122.414,430.724l1.701,3.317L392.811,293.102"/>
		<path fill="#070707" d="M392.811,293.102l268.668-140.939l-1.758-3.317L392.811,293.102"/>
		<path fill="#131313" d="M392.811,293.102L124.115,434.041l1.757,3.317L392.811,293.102"/>
		<path fill="#070707" d="M392.811,293.102l266.91-144.255l-1.786-3.26L392.811,293.102"/>
		<path fill="#131313" d="M392.811,293.102L125.872,437.357l1.814,3.26L392.811,293.102"/>
		<path fill="#060606" d="M392.811,293.102l265.124-147.515l-1.843-3.26L392.811,293.102"/>
		<path fill="#141414" d="M392.811,293.102L127.687,440.617l1.843,3.26L392.811,293.102"/>
		<path fill="#060606" d="M392.811,293.102l263.282-150.775l-1.899-3.231L392.811,293.102"/>
		<path fill="#141414" d="M392.811,293.102L129.529,443.877l1.871,3.232L392.811,293.102"/>
		<path fill="#060606" d="M392.811,293.102l261.383-154.006l-1.899-3.203L392.811,293.102"/>
		<path fill="#141414" d="M392.811,293.102L131.4,447.109l1.899,3.203L392.811,293.102"/>
		<path fill="#060606" d="M392.811,293.102l259.483-157.209l-1.956-3.203L392.811,293.102"/>
		<path fill="#141414" d="M392.811,293.102L133.299,450.312l1.956,3.203L392.811,293.102"/>
		<path fill="#060606" d="M392.811,293.102L650.339,132.69l-2.013-3.146L392.811,293.102"/>
		<path fill="#141414" d="M392.811,293.102L135.255,453.515l2.013,3.146L392.811,293.102"/>
		<path fill="#060606" d="M392.811,293.102l255.515-163.559l-2.013-3.146L392.811,293.102"/>
		<path fill="#141414" d="M392.811,293.102L137.268,456.661l2.041,3.146L392.811,293.102"/>
		<path fill="#060606" d="M392.811,293.102l253.502-166.706l-2.069-3.118L392.811,293.102"/>
		<path fill="#141414" d="M392.811,293.102L139.309,459.808l2.069,3.118L392.811,293.102"/>
		<path fill="#060606" d="M392.811,293.102l251.433-169.824l-2.126-3.061L392.811,293.102"/>
		<path fill="#141414" d="M392.811,293.102L141.378,462.926l2.098,3.061L392.811,293.102"/>
		<path fill="#060606" d="M392.811,293.102l249.307-172.885l-2.154-3.061L392.811,293.102"/>
		<path fill="#141414" d="M392.811,293.102L143.476,465.987l2.154,3.061L392.811,293.102"/>
		<path fill="#060606" d="M392.811,293.102l247.153-175.946l-2.183-3.033L392.811,293.102"/>
		<path fill="#141414" d="M392.811,293.102L145.63,469.049l2.183,3.033L392.811,293.102"/>
		<path fill="#050505" d="M392.811,293.102l244.97-178.98l-2.211-3.005L392.811,293.102"/>
		<path fill="#151515" d="M392.811,293.102l-244.998,178.98l2.239,3.005L392.811,293.102"/>
		<path fill="#050505" d="M392.811,293.102L635.57,111.118l-2.268-2.976L392.811,293.102"/>
		<path fill="#151515" d="M392.811,293.102L150.052,475.087l2.239,2.976L392.811,293.102"/>
		<path fill="#050505" d="M392.811,293.102l240.491-184.961l-2.296-2.948L392.811,293.102"/>
		<path fill="#151515" d="M392.811,293.102l-240.52,184.961l2.296,2.948L392.811,293.102"/>
		<path fill="#050505" d="M392.811,293.102l238.195-187.909l-2.324-2.92L392.811,293.102"/>
		<path fill="#151515" d="M392.811,293.102L154.587,481.011l2.353,2.92L392.811,293.102"/>
		<path fill="#050505" d="M392.811,293.102l235.871-190.828l-2.381-2.891L392.811,293.102"/>
		<path fill="#151515" d="M392.811,293.102L156.94,483.931l2.353,2.891L392.811,293.102"/>
		<path fill="#050505" d="M392.811,293.102l233.49-193.72l-2.409-2.863L392.811,293.102"/>
		<path fill="#151515" d="M392.811,293.102l-233.518,193.72l2.409,2.863L392.811,293.102"/>
		<path fill="#050505" d="M392.811,293.102L623.891,96.52l-2.438-2.835L392.811,293.102"/>
		<path fill="#151515" d="M392.811,293.102L161.702,489.685l2.438,2.835L392.811,293.102"/>
		<path fill="#050505" d="M392.811,293.102L621.454,93.685l-2.466-2.806L392.811,293.102"/>
		<path fill="#151515" d="M392.811,293.102L164.14,492.52l2.466,2.806L392.811,293.102"/>
		<path fill="#050505" d="M392.811,293.102L618.987,90.879l-2.523-2.778L392.811,293.102"/>
		<path fill="#151515" d="M392.811,293.102L166.606,495.326l2.523,2.778L392.811,293.102"/>
		<path fill="#040404" d="M392.811,293.102L616.465,88.101l-2.523-2.75L392.811,293.102"/>
		<path fill="#161616" d="M392.811,293.102L169.129,498.104l2.551,2.721L392.811,293.102"/>
		<path fill="#040404" d="M392.811,293.102L613.942,85.351l-2.58-2.693L392.811,293.102"/>
		<path fill="#161616" d="M392.811,293.102L171.68,500.825l2.551,2.721L392.811,293.102"/>
		<path fill="#040404" d="M392.811,293.102L611.362,82.658l-2.608-2.665L392.811,293.102"/>
		<path fill="#161616" d="M392.811,293.102l-218.58,210.444l2.636,2.665L392.811,293.102"/>
		<path fill="#040404" d="M392.811,293.102L608.754,79.994l-2.636-2.665L392.811,293.102"/>
		<path fill="#161616" d="M392.811,293.102L176.868,506.211l2.636,2.665L392.811,293.102"/>
		<path fill="#040404" d="M392.811,293.102L606.118,77.329l-2.693-2.608L392.811,293.102"/>
		<path fill="#161616" d="M392.811,293.102L179.504,508.876l2.665,2.608L392.811,293.102"/>
		<path fill="#040404" d="M392.811,293.102L603.425,74.721l-2.693-2.58L392.811,293.102"/>
		<path fill="#161616" d="M392.811,293.102L182.169,511.483l2.721,2.58L392.811,293.102"/>
		<path fill="#040404" d="M392.811,293.102L600.732,72.142l-2.75-2.551L392.811,293.102"/>
		<path fill="#161616" d="M392.811,293.102L184.89,514.063l2.721,2.551L392.811,293.102"/>
		<path fill="#040404" d="M392.811,293.102L597.983,69.591l-2.778-2.494L392.811,293.102"/>
		<path fill="#161616" d="M392.811,293.102l-205.2,223.512l2.778,2.494L392.811,293.102"/>
		<path fill="#040404" d="M392.811,293.102L595.205,67.096l-2.778-2.494L392.811,293.102"/>
		<path fill="#161616" d="M392.811,293.102L190.389,519.109l2.806,2.466L392.811,293.102"/>
		<path fill="#040404" d="M392.811,293.102L592.427,64.602l-2.835-2.438L392.811,293.102"/>
		<path fill="#161616" d="M392.811,293.102L193.195,521.575l2.806,2.466L392.811,293.102"/>
		<path fill="#030303" d="M392.811,293.102L589.592,62.164l-2.863-2.409L392.811,293.102"/>
		<path fill="#171717" d="M392.811,293.102L196.002,524.041l2.863,2.409L392.811,293.102"/>
		<path fill="#030303" d="M392.811,293.102L586.729,59.754l-2.891-2.353L392.811,293.102"/>
		<path fill="#171717" d="M392.811,293.102L198.865,526.45l2.891,2.353L392.811,293.102"/>
		<path fill="#030303" d="M392.811,293.102L583.838,57.402l-2.92-2.353L392.811,293.102"/>
		<path fill="#171717" d="M392.811,293.102L201.756,528.803l2.92,2.353L392.811,293.102"/>
		<path fill="#030303" d="M392.811,293.102L580.918,55.049l-2.948-2.296L392.811,293.102"/>
		<path fill="#171717" d="M392.811,293.102L204.676,531.156l2.948,2.296L392.811,293.102"/>
		<path fill="#030303" d="M392.811,293.102L577.97,52.753l-2.976-2.268L392.811,293.102"/>
		<path fill="#171717" d="M392.811,293.102l-185.187,240.35l2.976,2.268L392.811,293.102"/>
		<path fill="#030303" d="M392.811,293.102L574.994,50.485l-3.005-2.211L392.811,293.102"/>
		<path fill="#171717" d="M392.811,293.102L210.6,535.72l3.005,2.211L392.811,293.102"/>
		<path fill="#030303" d="M392.811,293.102L571.989,48.274l-3.033-2.183L392.811,293.102"/>
		<path fill="#171717" d="M392.811,293.102L213.605,537.931l3.033,2.183L392.811,293.102"/>
		<path fill="#030303" d="M392.811,293.102L568.956,46.091l-3.033-2.154L392.811,293.102"/>
		<path fill="#171717" d="M392.811,293.102L216.638,540.113l3.061,2.154L392.811,293.102"/>
		<path fill="#030303" d="M392.811,293.102L565.923,43.937l-3.09-2.126L392.811,293.102"/>
		<path fill="#171717" d="M392.811,293.102L219.699,542.268l3.09,2.126L392.811,293.102"/>
		<path fill="#030303" d="M392.811,293.102L562.833,41.811l-3.118-2.069L392.811,293.102"/>
		<path fill="#171717" d="M392.811,293.102L222.789,544.394l3.09,2.069L392.811,293.102"/>
		<path fill="#020202" d="M392.811,293.102L559.715,39.742l-3.118-2.041L392.811,293.102"/>
		<path fill="#181818" d="M392.811,293.102L225.879,546.463l3.146,2.041L392.811,293.102"/>
		<path fill="#020202" d="M392.811,293.102L556.597,37.701l-3.175-1.984L392.811,293.102"/>
		<path fill="#181818" d="M392.811,293.102L229.025,548.504l3.146,1.984L392.811,293.102"/>
		<path fill="#020202" d="M392.811,293.102L553.422,35.717l-3.175-1.984L392.811,293.102"/>
		<path fill="#181818" d="M392.811,293.102L232.172,550.488l3.175,1.956L392.811,293.102"/>
		<path fill="#020202" d="M392.811,293.102l157.436-259.37l-3.203-1.899L392.811,293.102"/>
		<path fill="#181818" d="M392.811,293.102L235.346,552.444l3.232,1.928L392.811,293.102"/>
		<path fill="#020202" d="M392.811,293.102L547.044,31.833l-3.231-1.899L392.811,293.102"/>
		<path fill="#181818" d="M392.811,293.102L238.578,554.372l3.231,1.899L392.811,293.102"/>
		<path fill="#020202" d="M392.811,293.102L543.813,29.934l-3.26-1.843L392.811,293.102"/>
		<path fill="#181818" d="M392.811,293.102L241.809,556.271l3.231,1.814L392.811,293.102"/>
		<path fill="#020202" d="M392.811,293.102L540.553,28.091l-3.288-1.786L392.811,293.102"/>
		<path fill="#181818" d="M392.811,293.102l-147.77,264.983l3.288,1.814L392.811,293.102"/>
		<path fill="#020202" d="M392.811,293.102L537.265,26.306l-3.288-1.757L392.811,293.102"/>
		<path fill="#181818" d="M392.811,293.102L248.329,559.899l3.288,1.757L392.811,293.102"/>
		<path fill="#020202" d="M392.811,293.102L533.976,24.548l-3.317-1.729L392.811,293.102"/>
		<path fill="#181818" d="M392.811,293.102L251.617,561.657l3.317,1.729L392.811,293.102"/>
		<path fill="#020202" d="M392.811,293.102L530.66,22.819l-3.345-1.672L392.811,293.102"/>
		<path fill="#181818" d="M392.811,293.102L254.934,563.386l3.345,1.672L392.811,293.102"/>
		<path fill="#010101" d="M392.811,293.102L527.315,21.146l-3.345-1.644L392.811,293.102"/>
		<path fill="#191919" d="M392.811,293.102L258.279,565.058l3.373,1.644L392.811,293.102"/>
		<path fill="#010101" d="M392.811,293.102l131.159-273.6l-3.402-1.587L392.811,293.102"/>
		<path fill="#191919" d="M392.811,293.102l-131.159,273.6l3.373,1.587L392.811,293.102"/>
		<path fill="#010101" d="M392.811,293.102L520.568,17.915l-3.402-1.559L392.811,293.102"/>
		<path fill="#191919" d="M392.811,293.102L265.025,568.29l3.402,1.559L392.811,293.102"/>
		<path fill="#010101" d="M392.811,293.102L517.167,16.356l-3.402-1.502L392.811,293.102"/>
		<path fill="#191919" d="M392.811,293.102L268.427,569.849l3.43,1.502L392.811,293.102"/>
		<path fill="#010101" d="M392.811,293.102L513.765,14.854l-3.458-1.474L392.811,293.102"/>
		<path fill="#191919" d="M392.811,293.102L271.857,571.351l3.43,1.474L392.811,293.102"/>
		<path fill="#010101" d="M392.811,293.102L510.307,13.38l-3.43-1.417L392.811,293.102"/>
		<path fill="#191919" d="M392.811,293.102L275.287,572.825l3.458,1.417L392.811,293.102"/>
		<path fill="#010101" d="M392.811,293.102l114.066-281.14l-3.487-1.389L392.811,293.102"/>
		<path fill="#191919" d="M392.811,293.102l-114.066,281.14l3.458,1.389L392.811,293.102"/>
		<path fill="#010101" d="M392.811,293.102L503.391,10.573l-3.487-1.332L392.811,293.102"/>
		<path fill="#191919" d="M392.811,293.102L282.203,575.631l3.487,1.332L392.811,293.102"/>
		<path fill="#010101" d="M392.811,293.102L499.904,9.241l-3.515-1.304L392.811,293.102"/>
		<path fill="#191919" d="M392.811,293.102L285.69,576.964l3.515,1.304L392.811,293.102"/>
		<path fill="#010101" d="M392.811,293.102L496.389,7.937l-3.515-1.247L392.811,293.102"/>
		<path fill="#191919" d="M392.811,293.102L289.205,578.268l3.515,1.247L392.811,293.102"/>
		<path d="M392.811,293.102L492.874,6.69l-3.543-1.219L392.811,293.102"/>
		<path fill="#1A1A1A" d="M392.811,293.102L292.72,579.515l3.543,1.219L392.811,293.102"/>
		<path d="M392.811,293.102l96.52-287.632l-3.543-1.162L392.811,293.102"/>
		<path fill="#1A1A1A" d="M392.811,293.102l-96.548,287.632l3.543,1.162L392.811,293.102"/>
		<path d="M392.811,293.102L485.787,4.309l-3.572-1.134L392.811,293.102"/>
		<path fill="#1A1A1A" d="M392.811,293.102l-93.005,288.794l3.572,1.134L392.811,293.102"/>
		<path d="M392.811,293.102L482.216,3.175l-3.572-1.077L392.811,293.102"/>
		<path fill="#1A1A1A" d="M392.811,293.102L303.378,583.03l3.572,1.077L392.811,293.102"/>
	</mask>
	<polygon mask="url(#id6)" fill="#336699" points="132.25,137.679 653.343,137.679 653.343,448.526 132.25,448.526 	"/>
	<polygon fill="#FFFFFF" points="654.945,136.091 654.945,450.113 130.677,450.113 133.342,448.526 653.357,448.526 
		653.357,137.679 652.28,137.679 	"/>
	<path fill="#B2B2B2" d="M53.631,465.08h684.737l0,0c0,15.194-12.444,27.666-27.666,27.666H81.298
		C66.076,492.746,53.631,480.274,53.631,465.08L53.631,465.08z"/>
	<path fill="#CCCCCC" d="M54,465.449c0.198,14.825,12.416,26.929,27.298,26.929h629.405c14.882,0,27.099-12.104,27.298-26.929H54z"
		/>
	<linearGradient id="SVGID_1_" gradientUnits="userSpaceOnUse" x1="396" y1="492.7465" x2="396" y2="475.2">
		<stop  offset="0" style="stop-color:#666666"/>
		<stop  offset="1" style="stop-color:#666666;stop-opacity:0.25"/>
	</linearGradient>
	<path opacity="0.74" fill="url(#SVGID_1_)" d="M736.441,475.2c-4.054,10.233-14.088,17.546-25.739,17.546H81.298
		c-11.65,0-21.685-7.313-25.739-17.546H736.441z"/>
</g>
<g id="Brillos" display="none">
	<defs>
		<filter id="Adobe_OpacityMaskFilter_1_" filterUnits="userSpaceOnUse" x="103.592" y="109.006" width="578.409" height="368.164">
			<feColorMatrix  type="matrix" values="1 0 0 0 0  0 1 0 0 0  0 0 1 0 0  0 0 0 1 0"/>
		</filter>
	</defs>
	<mask maskUnits="userSpaceOnUse" x="103.592" y="109.006" width="578.409" height="368.164" id="id3_1_" display="inline">
		
			<linearGradient id="SVGID_2_" gradientUnits="userSpaceOnUse" x1="26711.3809" y1="-15218.7656" x2="8272.2217" y2="-4196.4736" gradientTransform="matrix(0.0283 0 0 -0.0283 -103.9669 17.348)">
			<stop  offset="0" style="stop-color:#FFFFFF;stop-opacity:0.302"/>
			<stop  offset="0.6392" style="stop-color:#FFFFFF;stop-opacity:0.851"/>
			<stop  offset="1" style="stop-color:#FFFFFF;stop-opacity:0"/>
		</linearGradient>
		
			<rect x="103.309" y="108.723" fill="url(#SVGID_2_)" filter="url(#Adobe_OpacityMaskFilter_1_)" width="578.948" height="368.702"/>
	</mask>
	<linearGradient id="SVGID_3_" gradientUnits="userSpaceOnUse" x1="103.5921" y1="293.0882" x2="682.0016" y2="293.0882">
		<stop  offset="0" style="stop-color:#FFFFFF"/>
		<stop  offset="1" style="stop-color:#000000"/>
	</linearGradient>
	<path display="inline" mask="url(#id3_1_)" fill="url(#SVGID_3_)" d="M662.386,477.17H123.208
		c-10.772,0-19.616-8.844-19.616-19.616V128.622c0-10.8,8.844-19.616,19.616-19.616h539.178c10.8,0,19.616,8.816,19.616,19.616
		v328.932C682.002,468.326,673.186,477.17,662.386,477.17z"/>
	<defs>
		<filter id="Adobe_OpacityMaskFilter_2_" filterUnits="userSpaceOnUse" x="54" y="465.449" width="684" height="26.929">
			<feColorMatrix  type="matrix" values="1 0 0 0 0  0 1 0 0 0  0 0 1 0 0  0 0 0 1 0"/>
		</filter>
	</defs>
	<mask maskUnits="userSpaceOnUse" x="54" y="465.449" width="684" height="26.929" id="id7" display="inline">
		
			<linearGradient id="SVGID_4_" gradientUnits="userSpaceOnUse" x1="26712.4863" y1="-21366.4199" x2="5356.5269" y2="-9403.4297" gradientTransform="matrix(0.0283 0 0 -0.0283 -103.9669 17.348)">
			<stop  offset="0" style="stop-color:#FFFFFF;stop-opacity:0.502"/>
			<stop  offset="1" style="stop-color:#FFFFFF;stop-opacity:0"/>
		</linearGradient>
		<rect x="53.717" y="465.165" fill="url(#SVGID_4_)" filter="url(#Adobe_OpacityMaskFilter_2_)" width="684.567" height="27.496"/>
	</mask>
	<path display="inline" mask="url(#id7)" fill="#E5E5E5" d="M54,465.449c0.198,14.825,12.416,26.929,27.298,26.929h629.405
		c14.882,0,27.099-12.104,27.298-26.929H54z"/>
</g>
<g id="Software">
	<path fill="#F5F5F5" d="M130.691,136.106h524.268v314.022H130.691V136.106z M132.279,137.693h521.093V448.54H132.279V137.693z"/>
	<rect x="130.677" y="136.091" fill="#4CAF50" width="524.268" height="49.909"/>
	<rect x="244.333" y="201.333" fill="#E0E0E0" width="389.278" height="248.78"/>
	<rect x="145" y="149.712" opacity="0.2" width="158" height="22.667"/>
	<rect x="247.667" y="204.667" fill="#FFFFFF" width="381.945" height="245.447"/>
	<rect x="258" y="216.667" opacity="0.2" width="158" height="22.667"/>
	<rect x="258" y="248" opacity="0.2" width="356.667" height="14"/>
	<polygon fill="#F5F5F5" points="614.667,426.667 258,426.667 258,353.333 258,269.333 614.667,269.333 	"/>
	<polyline fill="none" stroke="#F44336" stroke-width="3" stroke-miterlimit="10" points="258,410 347.667,327.705 392.825,365.129 
		433.667,303.43 499,352.666 537.667,295.17 597,269.333 	"/>
	<rect x="137.344" y="201.333" fill="#A5D6A7" width="99.601" height="25.53"/>
	<rect x="137.344" y="239.333" fill="#A5D6A7" width="99.601" height="25.53"/>
	<rect x="137.344" y="274.235" fill="#A5D6A7" width="99.601" height="25.53"/>
	<rect x="137.344" y="312.235" fill="#A5D6A7" width="99.601" height="25.53"/>
	<path opacity="0.4" fill="#FFFFFF" d="M405.992,131.833h-26.333c-3.222,0-5.833-2.612-5.833-5.833v0
		c0-3.222,2.612-5.833,5.833-5.833h26.333c3.222,0,5.833,2.612,5.833,5.833v0C411.825,129.222,409.214,131.833,405.992,131.833z"/>
	<circle cx="405.667" cy="126" r="4.833"/>
</g>
<g id="Brillo1">
	<path opacity="0.15" fill="#FFFFFF" d="M409,109.02h253.372c10.833,0,19.616,8.782,19.616,19.616V348"/>
</g>
</svg>
