<?xml version="1.0" encoding="utf-8"?>
<!-- Generator: Adobe Illustrator 18.0.0, SVG Export Plug-In . SVG Version: 6.00 Build 0)  -->
<!DOCTYPE svg PUBLIC "-//W3C//DTD SVG 1.1//EN" "http://www.w3.org/Graphics/SVG/1.1/DTD/svg11.dtd">
<svg version="1.1" id="Capa_1" xmlns="http://www.w3.org/2000/svg" xmlns:xlink="http://www.w3.org/1999/xlink" x="0px" y="0px"
	 viewBox="0 0 960 560" enable-background="new 0 0 960 560" xml:space="preserve">
<g>
	<g>
		<path fill="#01002A" d="M250.7,274.4c1.5,1.2,3.1,2.3,4.9,3.2c1.8,0.9,3.6,1.7,5.4,2.4c1.9,0.7,3.7,1.2,5.6,1.5
			c1.9,0.3,3.7,0.5,5.4,0.5c11.8,0,17.7-4.4,17.7-13.3c0-2-0.4-3.8-1.2-5.2c-0.8-1.5-2-2.8-3.6-4c-1.6-1.2-3.4-2.3-5.6-3.4
			c-2.2-1-4.6-2.1-7.4-3.3c-3.7-1.5-6.8-3-9.5-4.6c-2.6-1.6-4.8-3.2-6.5-5.1c-1.7-1.8-3-3.9-3.8-6.1c-0.8-2.2-1.2-4.7-1.2-7.5
			c0-3.5,0.8-6.7,2.3-9.4c1.5-2.7,3.6-5.1,6.2-7c2.6-1.9,5.6-3.4,9-4.4c3.4-1,7-1.5,10.7-1.5c6.9,0,12.9,1.3,18,3.9v10.5
			c-6-3.8-12.4-5.7-19.3-5.7c-2.5,0-4.8,0.3-6.8,0.9c-2,0.6-3.8,1.5-5.2,2.6c-1.5,1.1-2.6,2.5-3.4,4.1c-0.8,1.6-1.2,3.3-1.2,5.2
			c0,2,0.3,3.7,0.9,5.2c0.6,1.5,1.6,2.8,2.9,4c1.3,1.2,3,2.3,5.1,3.4c2.1,1.1,4.6,2.3,7.7,3.5c3.8,1.6,7.1,3.1,9.9,4.6
			c2.8,1.5,5.1,3.2,6.9,5c1.8,1.8,3.2,3.8,4,6c0.9,2.2,1.3,4.8,1.3,7.7c0,3.6-0.7,6.8-2.2,9.6c-1.5,2.8-3.5,5.2-6.1,7.1
			c-2.6,1.9-5.7,3.4-9.2,4.3c-3.5,1-7.4,1.5-11.5,1.5c-8,0-14.8-1.7-20.3-5V274.4z"/>
		<path fill="#01002A" d="M324.7,189c-1.9,0-3.6-0.7-5-2c-1.4-1.3-2.1-3.1-2.1-5.1c0-2,0.7-3.7,2.1-5c1.4-1.3,3.1-2,5-2
			c1,0,1.9,0.2,2.8,0.5c0.9,0.3,1.6,0.8,2.3,1.4c0.6,0.6,1.2,1.4,1.6,2.2c0.4,0.9,0.6,1.8,0.6,2.8c0,1-0.2,1.9-0.5,2.8
			c-0.4,0.9-0.9,1.6-1.6,2.3c-0.7,0.6-1.4,1.2-2.3,1.5C326.7,188.9,325.8,189,324.7,189z M319.8,288.7v-79.5h9.9v79.5H319.8z"/>
		<path fill="#01002A" d="M455.4,288.7v-46.8c0-4.8-0.4-8.8-1.1-12.1c-0.7-3.3-1.9-6-3.4-8c-1.5-2.1-3.5-3.6-5.8-4.5
			c-2.4-0.9-5.2-1.4-8.4-1.4c-2.9,0-5.6,0.7-8.2,2.1c-2.6,1.4-4.9,3.3-6.8,5.7c-1.9,2.4-3.5,5.2-4.6,8.5c-1.1,3.3-1.7,6.8-1.7,10.6
			v46h-9.9v-47.8c0-16.7-6.4-25-19.2-25c-3,0-5.7,0.7-8.2,2c-2.5,1.3-4.8,3.2-6.6,5.6c-1.9,2.4-3.4,5.2-4.4,8.6
			c-1.1,3.3-1.6,7-1.6,11.1v45.6h-9.9v-79.5h9.9V222h0.3c5.6-9.8,13.7-14.8,24.5-14.8c2.8,0,5.4,0.4,7.9,1.3s4.7,2,6.7,3.6
			c2,1.5,3.7,3.4,5.1,5.5c1.4,2.1,2.5,4.5,3.2,7c2.8-5.6,6.4-9.9,10.9-12.9c4.5-3,9.5-4.4,15.2-4.4c17.4,0,26.2,10.8,26.2,32.3v49.1
			H455.4z"/>
		<path fill="#01002A" d="M541.3,288.7v-13.5H541c-5.4,10.3-13.7,15.4-25.1,15.4c-18.9,0-28.3-11.5-28.3-34.6v-46.8h9.9V254
			c0,9.5,1.7,16.6,5.1,21.1c3.4,4.6,8.6,6.8,15.6,6.8c3.4,0,6.5-0.7,9.4-2c2.8-1.3,5.3-3.2,7.3-5.6c2-2.4,3.6-5.3,4.8-8.7
			c1.1-3.4,1.7-7.1,1.7-11.2v-45.4h9.9v79.5H541.3z"/>
		<path fill="#01002A" d="M576.8,288.7V170.9h9.9v117.7H576.8z"/>
		<path fill="#01002A" d="M658.2,288.7v-14.1h-0.3c-2.6,5.1-6.1,9-10.6,11.8s-9.5,4.2-15.2,4.2c-3.8,0-7.3-0.5-10.4-1.6
			c-3.1-1.1-5.7-2.6-7.8-4.6c-2.1-2-3.8-4.4-5-7.2s-1.7-5.9-1.7-9.2c0-7.2,2.2-12.9,6.7-17.2c4.5-4.3,11.2-7.1,20.2-8.3l24.2-3.5
			c0-15.3-5.9-22.9-17.8-22.9c-9.3,0-17.9,3.4-25.8,10.2v-10.9c1.7-1.2,3.5-2.3,5.6-3.2c2.1-1,4.3-1.8,6.6-2.5s4.7-1.2,7.2-1.6
			c2.5-0.4,4.9-0.6,7.2-0.6c8.9,0,15.5,2.5,20.1,7.5c4.5,5,6.8,12.4,6.8,22.2v51.7H658.2z M637.7,250.1c-3.6,0.5-6.6,1.2-9.2,1.9
			s-4.6,1.8-6.3,3.1s-2.9,3-3.7,4.9c-0.8,1.9-1.2,4.3-1.2,7.2c0,2.1,0.4,4.1,1.1,5.9c0.8,1.8,1.8,3.4,3.3,4.7
			c1.4,1.3,3.2,2.3,5.2,3.1c2,0.7,4.4,1.1,7,1.1c3.5,0,6.8-0.7,9.7-2c3-1.3,5.5-3.2,7.7-5.6c2.1-2.4,3.8-5.2,5-8.5
			c1.2-3.3,1.8-6.9,1.8-10.8v-7.8L637.7,250.1z"/>
		<path fill="#3F5FFF" d="M704.1,245.3v43.3h-10.3V177.3h28.7c5.9,0,11,0.7,15.5,2.2c4.5,1.5,8.3,3.5,11.4,6.3
			c3.1,2.7,5.5,6.1,7.1,10.1c1.6,4,2.4,8.5,2.4,13.7c0,5.2-0.9,10-2.7,14.3c-1.8,4.4-4.4,8.2-7.8,11.3c-3.4,3.2-7.5,5.7-12.4,7.5
			c-4.9,1.8-10.4,2.7-16.5,2.7H704.1z M704.1,186.8v49.1h14.8c9.6,0,16.9-2.2,21.8-6.7s7.5-10.7,7.5-18.9c0-15.7-9.2-23.5-27.5-23.5
			H704.1z"/>
		<path fill="#3F5FFF" d="M819.3,219.3c-2.3-1.7-5.3-2.6-9-2.6c-2.6,0-5,0.5-7,1.5c-2,1-3.8,2.4-5.3,4.1c-1.5,1.7-2.8,3.7-3.9,5.9
			c-1.1,2.3-1.9,4.6-2.6,7s-1.1,4.9-1.4,7.4c-0.3,2.5-0.4,4.8-0.4,7.1v38.9h-9.9v-79.5h9.9v17h0.3c0.9-2.9,2.1-5.5,3.5-7.8
			c1.4-2.3,3.1-4.2,4.9-5.8c1.9-1.6,3.9-2.8,6.1-3.6c2.2-0.8,4.5-1.2,7-1.2c1.6,0,3,0.1,4.3,0.3c1.3,0.2,2.4,0.5,3.5,0.9V219.3z"/>
		<path fill="#3F5FFF" d="M864.2,290.5c-5.9,0-11.2-1-15.9-3c-4.7-2-8.7-4.8-12-8.4c-3.3-3.6-5.9-7.9-7.6-12.9
			c-1.8-5-2.6-10.6-2.6-16.7c0-6.6,0.9-12.6,2.8-17.8c1.9-5.2,4.5-9.7,8-13.3c3.4-3.7,7.6-6.4,12.5-8.3c4.9-1.9,10.3-2.9,16.3-2.9
			c5.7,0,10.9,0.9,15.5,2.8c4.6,1.9,8.5,4.6,11.7,8.2c3.2,3.6,5.7,7.9,7.4,13c1.7,5.1,2.6,11,2.6,17.5c0,6.2-0.9,11.9-2.7,17
			c-1.8,5.1-4.3,9.5-7.7,13.2c-3.3,3.7-7.4,6.5-12.1,8.5S870.2,290.5,864.2,290.5z M865,215.9c-4.3,0-8.3,0.8-11.8,2.3
			c-3.5,1.5-6.5,3.7-9,6.6c-2.5,2.9-4.4,6.4-5.8,10.6c-1.3,4.2-2,8.9-2,14.2c0,5,0.7,9.5,2,13.4c1.3,4,3.2,7.4,5.7,10.3
			c2.5,2.8,5.4,5,9,6.6c3.5,1.5,7.5,2.3,11.8,2.3c4.5,0,8.4-0.7,11.8-2.2c3.4-1.5,6.3-3.6,8.7-6.4c2.4-2.8,4.2-6.3,5.4-10.4
			c1.2-4.1,1.8-8.8,1.8-14c0-10.7-2.4-18.9-7.1-24.6C880.7,218.7,873.8,215.9,865,215.9z"/>
	</g>
	<g>
		<path fill="#01002A" d="M285.2,359.7l-6.1-16.3h-23.6l-5.9,16.3h-5.7l21-55.1h5.1l20.9,55.1H285.2z M268.5,314.3
			c-0.2-0.5-0.4-1-0.6-1.7c-0.2-0.6-0.4-1.4-0.5-2.2h-0.2c-0.2,0.8-0.3,1.5-0.5,2.2c-0.2,0.6-0.4,1.2-0.6,1.7l-8.9,24.5h20.2
			L268.5,314.3z"/>
		<path fill="#01002A" d="M303.7,353.4v24.4h-4.9v-57.4h4.9v7.5h0.2c1.5-2.7,3.4-4.8,5.9-6.3c2.4-1.4,5.2-2.2,8.3-2.2
			c2.5,0,4.8,0.5,6.7,1.4c2,0.9,3.7,2.2,5,3.9c1.4,1.7,2.4,3.7,3.2,6.1c0.7,2.4,1.1,5.1,1.1,8c0,3.3-0.4,6.2-1.2,8.9
			c-0.8,2.7-2,5-3.5,6.9c-1.5,1.9-3.4,3.4-5.6,4.5c-2.2,1.1-4.7,1.6-7.4,1.6c-5.5,0-9.7-2.4-12.4-7.3H303.7z M303.7,343.4
			c0,1.8,0.3,3.5,0.9,5.1c0.6,1.6,1.4,3,2.5,4.2c1.1,1.2,2.4,2.1,3.9,2.8c1.5,0.7,3.2,1,5.1,1c2,0,3.8-0.4,5.3-1.2
			c1.6-0.8,2.9-2,4.1-3.6c1.1-1.5,2-3.4,2.6-5.6c0.6-2.2,0.9-4.6,0.9-7.3c0-2.3-0.3-4.4-0.8-6.2c-0.6-1.9-1.4-3.4-2.4-4.7
			c-1-1.3-2.3-2.3-3.8-3c-1.5-0.7-3.1-1-4.9-1c-2,0-3.9,0.4-5.5,1.1c-1.6,0.8-3,1.8-4.2,3.1c-1.2,1.3-2,2.8-2.7,4.6
			c-0.6,1.8-0.9,3.6-0.9,5.6V343.4z"/>
		<path fill="#01002A" d="M363.5,325.4c-1.2-0.8-2.6-1.3-4.5-1.3c-1.3,0-2.5,0.3-3.5,0.8c-1,0.5-1.9,1.2-2.6,2
			c-0.8,0.8-1.4,1.8-1.9,2.9c-0.5,1.1-0.9,2.3-1.3,3.5c-0.3,1.2-0.6,2.4-0.7,3.7c-0.1,1.2-0.2,2.4-0.2,3.5v19.2h-4.9v-39.3h4.9v8.4
			h0.2c0.5-1.4,1-2.7,1.7-3.9c0.7-1.1,1.5-2.1,2.4-2.9c0.9-0.8,1.9-1.4,3-1.8c1.1-0.4,2.2-0.6,3.4-0.6c0.8,0,1.5,0.1,2.1,0.2
			c0.6,0.1,1.2,0.3,1.7,0.5V325.4z"/>
		<path fill="#01002A" d="M371.9,340.9c0,2.4,0.3,4.6,1,6.5s1.5,3.5,2.7,4.9c1.2,1.3,2.6,2.3,4.2,3.1c1.7,0.7,3.5,1.1,5.6,1.1
			c4.4,0,8.6-1.5,12.6-4.6v4.8c-3.8,2.7-8.3,4-13.7,4c-2.6,0-5-0.5-7.2-1.4c-2.2-0.9-4-2.3-5.5-4c-1.5-1.8-2.7-3.9-3.5-6.5
			c-0.8-2.6-1.2-5.5-1.2-8.8c0-2.9,0.4-5.7,1.3-8.2c0.9-2.5,2.1-4.7,3.7-6.5c1.6-1.8,3.5-3.3,5.6-4.3c2.2-1,4.6-1.6,7.1-1.6
			c2.5,0,4.8,0.4,6.7,1.3c1.9,0.9,3.6,2.1,4.9,3.8c1.3,1.6,2.3,3.6,3,6s1,5,1,7.9v2.5H371.9z M395.3,336.6c-0.1-4.1-1.1-7.3-2.9-9.5
			c-1.9-2.3-4.5-3.4-7.8-3.4c-1.7,0-3.2,0.3-4.6,0.9c-1.4,0.6-2.7,1.4-3.7,2.6s-2,2.5-2.7,4.1c-0.7,1.6-1.2,3.4-1.5,5.4H395.3z"/>
		<path fill="#01002A" d="M436.5,359.7v-22.7c0-8.9-3.2-13.3-9.7-13.3c-1.7,0-3.3,0.3-4.8,1c-1.5,0.7-2.7,1.6-3.8,2.8
			c-1.1,1.2-1.9,2.6-2.5,4.3c-0.6,1.7-0.9,3.4-0.9,5.4v22.5H410v-39.3h4.9v6.8h0.2c2.9-5.2,7.3-7.8,13.2-7.8c4.3,0,7.6,1.4,9.8,4.2
			c2.3,2.8,3.4,6.8,3.4,12.1v24H436.5z"/>
		<path fill="#01002A" d="M480.9,359.7v-6.9h-0.2c-1.3,2.5-3.2,4.4-5.6,5.8c-2.4,1.4-5.2,2.1-8.2,2.1c-2.5,0-4.7-0.5-6.7-1.4
			c-2-0.9-3.7-2.2-5.2-3.9s-2.5-3.8-3.3-6.2c-0.8-2.4-1.2-5.2-1.2-8.3c0-3.2,0.4-6.1,1.3-8.7c0.9-2.6,2.1-4.9,3.6-6.8
			c1.6-1.9,3.5-3.3,5.7-4.4s4.7-1.6,7.4-1.6c5.7,0,9.7,2.3,12.2,6.8h0.2v-24.8h4.9v58.2H480.9z M480.9,336c0-1.7-0.3-3.3-0.9-4.8
			c-0.6-1.5-1.4-2.8-2.5-3.9c-1.1-1.1-2.3-2-3.8-2.6c-1.5-0.6-3.1-1-4.9-1c-1.9,0-3.7,0.4-5.4,1.2c-1.6,0.8-3,1.9-4.2,3.3
			c-1.2,1.4-2.1,3.2-2.7,5.3c-0.7,2.1-1,4.4-1,7.1c0,2.5,0.3,4.7,0.9,6.7c0.6,2,1.4,3.6,2.5,5c1.1,1.4,2.4,2.4,3.9,3.1
			c1.5,0.7,3.2,1.1,5,1.1c2,0,3.8-0.4,5.4-1.1c1.6-0.7,3-1.7,4.1-3c1.1-1.3,2-2.7,2.6-4.4s0.9-3.5,0.9-5.4V336z"/>
		<path fill="#01002A" d="M500.8,340.9c0,2.4,0.3,4.6,1,6.5c0.6,1.9,1.5,3.5,2.7,4.9c1.2,1.3,2.6,2.3,4.2,3.1
			c1.7,0.7,3.5,1.1,5.6,1.1c4.4,0,8.6-1.5,12.6-4.6v4.8c-3.8,2.7-8.3,4-13.7,4c-2.6,0-5-0.5-7.2-1.4s-4-2.3-5.5-4
			c-1.5-1.8-2.7-3.9-3.5-6.5c-0.8-2.6-1.2-5.5-1.2-8.8c0-2.9,0.4-5.7,1.3-8.2c0.9-2.5,2.1-4.7,3.7-6.5c1.6-1.8,3.5-3.3,5.6-4.3
			c2.2-1,4.6-1.6,7.1-1.6c2.5,0,4.8,0.4,6.7,1.3s3.6,2.1,4.9,3.8c1.3,1.6,2.3,3.6,3,6s1,5,1,7.9v2.5H500.8z M524.2,336.6
			c-0.1-4.1-1.1-7.3-2.9-9.5c-1.9-2.3-4.5-3.4-7.8-3.4c-1.7,0-3.2,0.3-4.6,0.9c-1.4,0.6-2.7,1.4-3.7,2.6c-1.1,1.1-2,2.5-2.7,4.1
			c-0.7,1.6-1.2,3.4-1.5,5.4H524.2z"/>
		<path fill="#01002A" d="M558.4,325.4c-1.2-0.8-2.6-1.3-4.5-1.3c-1.3,0-2.5,0.3-3.5,0.8c-1,0.5-1.9,1.2-2.6,2
			c-0.8,0.8-1.4,1.8-1.9,2.9c-0.5,1.1-0.9,2.3-1.3,3.5c-0.3,1.2-0.6,2.4-0.7,3.7c-0.1,1.2-0.2,2.4-0.2,3.5v19.2h-4.9v-39.3h4.9v8.4
			h0.2c0.5-1.4,1-2.7,1.7-3.9c0.7-1.1,1.5-2.1,2.4-2.9c0.9-0.8,1.9-1.4,3-1.8c1.1-0.4,2.2-0.6,3.4-0.6c0.8,0,1.5,0.1,2.1,0.2
			c0.6,0.1,1.2,0.3,1.7,0.5V325.4z"/>
		<path fill="#01002A" d="M613.7,359.7v-23.1c0-4.4-0.8-7.7-2.4-9.7c-1.6-2.1-4.1-3.1-7.4-3.1c-1.6,0-3.1,0.3-4.5,1
			c-1.4,0.6-2.7,1.6-3.8,2.8s-1.9,2.7-2.6,4.4c-0.6,1.7-1,3.7-1,5.9v22h-4.9v-58.2h4.9v25.7h0.2c3.1-5.1,7.5-7.7,13.2-7.7
			c4.4,0,7.7,1.3,9.9,4c2.2,2.7,3.3,6.7,3.3,11.9v24.3H613.7z"/>
		<path fill="#01002A" d="M653.1,359.7v-7h-0.2c-1.3,2.5-3,4.5-5.2,5.8c-2.2,1.4-4.7,2.1-7.5,2.1c-1.9,0-3.6-0.3-5.1-0.8
			c-1.5-0.5-2.8-1.3-3.9-2.3c-1.1-1-1.9-2.2-2.5-3.6s-0.9-2.9-0.9-4.6c0-3.6,1.1-6.4,3.3-8.5c2.2-2.1,5.5-3.5,10-4.1l11.9-1.7
			c0-7.6-2.9-11.3-8.8-11.3c-4.6,0-8.8,1.7-12.8,5v-5.4c0.8-0.6,1.7-1.1,2.8-1.6s2.1-0.9,3.3-1.2c1.2-0.3,2.3-0.6,3.6-0.8
			c1.2-0.2,2.4-0.3,3.6-0.3c4.4,0,7.7,1.2,9.9,3.7c2.2,2.5,3.4,6.1,3.4,11v25.6H653.1z M642.9,340.6c-1.8,0.3-3.3,0.6-4.5,1
			c-1.3,0.4-2.3,0.9-3.1,1.6c-0.8,0.7-1.4,1.5-1.8,2.4c-0.4,1-0.6,2.1-0.6,3.6c0,1.1,0.2,2,0.6,2.9c0.4,0.9,0.9,1.7,1.6,2.3
			c0.7,0.7,1.6,1.2,2.6,1.5c1,0.4,2.2,0.5,3.4,0.5c1.7,0,3.3-0.3,4.8-1s2.7-1.6,3.8-2.8c1.1-1.2,1.9-2.6,2.5-4.2
			c0.6-1.6,0.9-3.4,0.9-5.3v-3.9L642.9,340.6z"/>
		<path fill="#01002A" d="M696,358c-2.9,1.8-6.5,2.7-10.6,2.7c-2.8,0-5.4-0.5-7.6-1.5c-2.3-1-4.2-2.4-5.8-4.2s-2.8-3.9-3.6-6.3
			c-0.8-2.4-1.3-5.1-1.3-7.9c0-2.9,0.4-5.7,1.3-8.3s2.2-4.9,3.9-6.8c1.7-1.9,3.8-3.5,6.3-4.6s5.3-1.7,8.5-1.7c3.3,0,6.2,0.6,8.9,1.9
			v5.2c-2.9-1.9-6-2.8-9.3-2.8c-2.3,0-4.4,0.4-6.2,1.3c-1.8,0.9-3.3,2.1-4.6,3.6c-1.2,1.5-2.2,3.3-2.8,5.3s-1,4.2-1,6.5
			c0,2.1,0.3,4.1,0.8,6s1.4,3.6,2.5,5.1c1.1,1.5,2.6,2.6,4.3,3.5c1.7,0.9,3.8,1.3,6.1,1.3c3.7,0,7-1.1,10-3.3V358z"/>
		<path fill="#01002A" d="M707.9,310.4c-0.9,0-1.8-0.3-2.5-1s-1-1.5-1-2.5c0-1,0.3-1.8,1-2.5s1.5-1,2.5-1c0.5,0,0.9,0.1,1.4,0.2
			c0.4,0.2,0.8,0.4,1.1,0.7s0.6,0.7,0.8,1.1c0.2,0.4,0.3,0.9,0.3,1.4c0,0.5-0.1,0.9-0.3,1.4c-0.2,0.4-0.4,0.8-0.8,1.1
			c-0.3,0.3-0.7,0.6-1.1,0.8C708.9,310.3,708.4,310.4,707.9,310.4z M705.5,359.7v-39.3h4.9v39.3H705.5z"/>
		<path fill="#01002A" d="M725.4,340.9c0,2.4,0.3,4.6,1,6.5c0.6,1.9,1.5,3.5,2.7,4.9c1.2,1.3,2.6,2.3,4.2,3.1
			c1.7,0.7,3.5,1.1,5.6,1.1c4.4,0,8.6-1.5,12.6-4.6v4.8c-3.8,2.7-8.3,4-13.7,4c-2.6,0-5-0.5-7.2-1.4s-4-2.3-5.5-4
			c-1.5-1.8-2.7-3.9-3.5-6.5c-0.8-2.6-1.2-5.5-1.2-8.8c0-2.9,0.4-5.7,1.3-8.2c0.9-2.5,2.1-4.7,3.7-6.5c1.6-1.8,3.5-3.3,5.6-4.3
			c2.2-1,4.6-1.6,7.1-1.6c2.5,0,4.8,0.4,6.7,1.3s3.6,2.1,4.9,3.8c1.3,1.6,2.3,3.6,3,6s1,5,1,7.9v2.5H725.4z M748.8,336.6
			c-0.1-4.1-1.1-7.3-2.9-9.5c-1.9-2.3-4.5-3.4-7.8-3.4c-1.7,0-3.2,0.3-4.6,0.9c-1.4,0.6-2.7,1.4-3.7,2.6c-1.1,1.1-2,2.5-2.7,4.1
			c-0.7,1.6-1.2,3.4-1.5,5.4H748.8z"/>
		<path fill="#01002A" d="M790,359.7v-22.7c0-8.9-3.2-13.3-9.7-13.3c-1.7,0-3.3,0.3-4.8,1c-1.5,0.7-2.7,1.6-3.8,2.8
			s-1.9,2.6-2.5,4.3c-0.6,1.7-0.9,3.4-0.9,5.4v22.5h-4.9v-39.3h4.9v6.8h0.2c2.9-5.2,7.3-7.8,13.2-7.8c4.3,0,7.6,1.4,9.8,4.2
			s3.4,6.8,3.4,12.1v24H790z"/>
		<path fill="#01002A" d="M834.4,359.7v-6.9h-0.2c-1.3,2.5-3.2,4.4-5.6,5.8c-2.4,1.4-5.2,2.1-8.2,2.1c-2.5,0-4.7-0.5-6.7-1.4
			c-2-0.9-3.7-2.2-5.2-3.9s-2.5-3.8-3.3-6.2c-0.8-2.4-1.2-5.2-1.2-8.3c0-3.2,0.4-6.1,1.3-8.7c0.9-2.6,2.1-4.9,3.6-6.8
			c1.6-1.9,3.5-3.3,5.7-4.4s4.7-1.6,7.4-1.6c5.7,0,9.7,2.3,12.2,6.8h0.2v-24.8h4.9v58.2H834.4z M834.4,336c0-1.7-0.3-3.3-0.9-4.8
			c-0.6-1.5-1.4-2.8-2.5-3.9c-1.1-1.1-2.3-2-3.8-2.6c-1.5-0.6-3.1-1-4.9-1c-1.9,0-3.7,0.4-5.4,1.2c-1.6,0.8-3,1.9-4.2,3.3
			c-1.2,1.4-2.1,3.2-2.7,5.3c-0.7,2.1-1,4.4-1,7.1c0,2.5,0.3,4.7,0.9,6.7c0.6,2,1.4,3.6,2.5,5c1.1,1.4,2.4,2.4,3.9,3.1
			c1.5,0.7,3.2,1.1,5,1.1c2,0,3.8-0.4,5.4-1.1c1.6-0.7,3-1.7,4.1-3c1.1-1.3,2-2.7,2.6-4.4s0.9-3.5,0.9-5.4V336z"/>
		<path fill="#01002A" d="M868,360.6c-2.9,0-5.5-0.5-7.9-1.5c-2.3-1-4.3-2.3-5.9-4.1c-1.6-1.8-2.9-3.9-3.8-6.4
			c-0.9-2.5-1.3-5.2-1.3-8.3c0-3.3,0.5-6.2,1.4-8.8s2.2-4.8,3.9-6.6c1.7-1.8,3.8-3.2,6.2-4.1c2.4-0.9,5.1-1.4,8.1-1.4
			c2.8,0,5.4,0.5,7.7,1.4c2.3,0.9,4.2,2.3,5.8,4.1c1.6,1.8,2.8,3.9,3.6,6.5c0.8,2.5,1.3,5.4,1.3,8.6c0,3.1-0.4,5.9-1.3,8.4
			c-0.9,2.5-2.1,4.7-3.8,6.5c-1.6,1.8-3.6,3.2-6,4.2C873.7,360.1,871,360.6,868,360.6z M868.4,323.7c-2.2,0-4.1,0.4-5.8,1.1
			c-1.7,0.7-3.2,1.8-4.5,3.2s-2.2,3.2-2.9,5.2s-1,4.4-1,7c0,2.5,0.3,4.7,1,6.6c0.7,2,1.6,3.7,2.8,5.1c1.2,1.4,2.7,2.5,4.4,3.2
			c1.7,0.8,3.7,1.1,5.8,1.1c2.2,0,4.1-0.4,5.8-1.1c1.7-0.7,3.1-1.8,4.3-3.2c1.2-1.4,2.1-3.1,2.7-5.1c0.6-2,0.9-4.3,0.9-6.9
			c0-5.3-1.2-9.4-3.5-12.2C876.2,325.1,872.8,323.7,868.4,323.7z"/>
		<path fill="#01002A" d="M899.3,360.5c-1,0-1.9-0.4-2.6-1.1c-0.7-0.7-1.1-1.6-1.1-2.6c0-1,0.4-1.9,1.1-2.7c0.7-0.7,1.6-1.1,2.6-1.1
			c0.5,0,1,0.1,1.4,0.3c0.4,0.2,0.8,0.4,1.2,0.8s0.6,0.7,0.8,1.2c0.2,0.5,0.3,1,0.3,1.5c0,0.5-0.1,1-0.3,1.4
			c-0.2,0.4-0.5,0.8-0.8,1.2c-0.3,0.3-0.7,0.6-1.2,0.8S899.8,360.5,899.3,360.5z"/>
	</g>
	<g>
		<circle fill="#3F5FFF" cx="130.1" cy="264" r="94.8"/>
		
			<linearGradient id="SVGID_1_" gradientUnits="userSpaceOnUse" x1="32.6978" y1="263.3503" x2="189.7567" y2="263.3503" gradientTransform="matrix(0.9699 0.2436 -0.2436 0.9699 70.5859 -22.6758)">
			<stop  offset="0" style="stop-color:#FFFFFF;stop-opacity:0"/>
			<stop  offset="1" style="stop-color:#7FDBFF"/>
		</linearGradient>
		<path fill="url(#SVGID_1_)" d="M38.1,240.7c-11.8,47,12.7,93.6,54.8,104.2c42.1,10.6,85.7-18.9,97.5-65.9
			c11.8-47-12.7-93.6-54.8-104.2S49.9,193.7,38.1,240.7z"/>
		
			<linearGradient id="SVGID_2_" gradientUnits="userSpaceOnUse" x1="66.104" y1="262.7538" x2="223.1629" y2="262.7538" gradientTransform="matrix(0.9699 0.2436 -0.2436 0.9699 70.5859 -22.6758)">
			<stop  offset="0" style="stop-color:#5558FF"/>
			<stop  offset="1" style="stop-color:#FFFFFF;stop-opacity:0"/>
		</linearGradient>
		<path fill="url(#SVGID_2_)" d="M168.1,182.9c42.1,10.6,66.7,56.9,54.9,103.6c-11.7,46.6-55.3,75.9-97.4,65.3
			C83.6,341.3,59,294.9,70.7,248.3S126,172.4,168.1,182.9z"/>
		
			<ellipse transform="matrix(-0.9699 -0.2436 0.2436 -0.9699 191.9564 551.6793)" fill="#FFFFFF" cx="130.1" cy="264" rx="61.1" ry="60"/>
	</g>
</g>
<g>
</g>
<g>
</g>
<g>
</g>
<g>
</g>
<g>
</g>
<g>
</g>
<g>
</g>
<g>
</g>
<g>
</g>
<g>
</g>
<g>
</g>
<g>
</g>
<g>
</g>
<g>
</g>
<g>
</g>
</svg>
