<?xml version="1.0" encoding="utf-8"?>
<!-- Generator: Adobe Illustrator 18.0.0, SVG Export Plug-In . SVG Version: 6.00 Build 0)  -->
<!DOCTYPE svg PUBLIC "-//W3C//DTD SVG 1.1//EN" "http://www.w3.org/Graphics/SVG/1.1/DTD/svg11.dtd">
<svg version="1.1" id="Capa_1" xmlns="http://www.w3.org/2000/svg" xmlns:xlink="http://www.w3.org/1999/xlink" x="0px" y="0px"
	 viewBox="36.9 189.7 911.3 219" enable-background="new 36.9 189.7 911.3 219" xml:space="preserve">
<g>
	<g>
		<path fill="#01002A" d="M263.2,300.1c1.6,1.3,3.3,2.4,5.1,3.4c1.9,0.9,3.8,1.8,5.7,2.5c2,0.7,3.9,1.3,5.9,1.6
			c2,0.3,3.9,0.5,5.7,0.5c12.4,0,18.6-4.6,18.6-14c0-2.1-0.4-4-1.3-5.5c-0.8-1.6-2.1-2.9-3.8-4.2c-1.7-1.3-3.6-2.4-5.9-3.6
			c-2.3-1.1-4.8-2.2-7.8-3.5c-3.9-1.6-7.1-3.2-10-4.8c-2.7-1.7-5-3.4-6.8-5.4c-1.8-1.9-3.1-4.1-4-6.4c-0.8-2.3-1.3-4.9-1.3-7.9
			c0-3.7,0.8-7,2.4-9.9s3.8-5.4,6.5-7.4c2.7-2,5.9-3.6,9.4-4.6c3.6-1,7.4-1.6,11.2-1.6c7.2,0,13.5,1.4,18.9,4.1v11
			c-6.3-4-13-6-20.3-6c-2.6,0-5,0.3-7.1,0.9s-4,1.6-5.5,2.7c-1.6,1.2-2.7,2.6-3.6,4.3c-0.8,1.7-1.3,3.5-1.3,5.5
			c0,2.1,0.3,3.9,0.9,5.5c0.6,1.6,1.7,2.9,3,4.2c1.4,1.3,3.1,2.4,5.4,3.6c2.2,1.2,4.8,2.4,8.1,3.7c4,1.7,7.5,3.3,10.4,4.8
			c2.9,1.6,5.4,3.4,7.2,5.3c1.9,1.9,3.4,4,4.2,6.3c0.9,2.3,1.4,5,1.4,8.1c0,3.8-0.7,7.1-2.3,10.1c-1.6,2.9-3.7,5.5-6.4,7.5
			s-6,3.6-9.7,4.5c-3.7,1-7.8,1.6-12.1,1.6c-8.4,0-15.5-1.8-21.3-5.3v-11.8H263.2z"/>
		<path fill="#01002A" d="M340.9,210.4c-2,0-3.8-0.7-5.3-2.1s-2.2-3.3-2.2-5.4c0-2.1,0.7-3.9,2.2-5.3s3.3-2.1,5.3-2.1
			c1,0,2,0.2,2.9,0.5c0.9,0.3,1.7,0.8,2.4,1.5c0.6,0.6,1.3,1.5,1.7,2.3c0.4,0.9,0.6,1.9,0.6,2.9c0,1-0.2,2-0.5,2.9
			c-0.4,0.9-0.9,1.7-1.7,2.4c-0.7,0.6-1.5,1.3-2.4,1.6C343,210.3,342.1,210.4,340.9,210.4z M335.8,315.1v-83.5h10.4v83.5H335.8z"/> 
		<path fill="#01002A" d="M478.2,315.1V266c0-5-0.4-9.2-1.2-12.7s-2-6.3-3.6-8.4c-1.6-2.2-3.7-3.8-6.1-4.7c-2.5-0.9-5.5-1.5-8.8-1.5
			c-3,0-5.9,0.7-8.6,2.2c-2.7,1.5-5.1,3.5-7.1,6c-2,2.5-3.7,5.5-4.8,8.9s-1.8,7.1-1.8,11.1v48.3h-10.4v-50.2
			c0-17.5-6.7-26.3-20.2-26.3c-3.1,0-6,0.7-8.6,2.1s-5,3.4-6.9,5.9c-2,2.5-3.6,5.5-4.6,9c-1.2,3.5-1.7,7.3-1.7,11.7v47.9h-10.4
			v-83.5h10.4v13.2h0.3c5.9-10.3,14.4-15.5,25.7-15.5c2.9,0,5.7,0.4,8.3,1.4s4.9,2.1,7,3.8c2.1,1.6,3.9,3.6,5.4,5.8
			c1.5,2.2,2.6,4.7,3.4,7.4c2.9-5.9,6.7-10.4,11.4-13.5c4.7-3.1,10-4.6,16-4.6c18.3,0,27.5,11.3,27.5,33.9v51.6H478.2z"/>
		<path fill="#01002A" d="M568.4,315.1V301H568c-5.7,10.8-14.4,16.2-26.4,16.2c-19.8,0-29.7-12.1-29.7-36.3v-49.1h10.4v47
			c0,10,1.8,17.4,5.4,22.2c3.6,4.8,9,7.1,16.4,7.1c3.6,0,6.8-0.7,9.9-2.1c2.9-1.4,5.6-3.4,7.7-5.9c2.1-2.5,3.8-5.6,5-9.1
			c1.2-3.6,1.8-7.5,1.8-11.8v-47.7h10.4v83.5h-10.5V315.1z"/>
		<path fill="#01002A" d="M605.6,315.1V191.4H616V315h-10.4V315.1z"/>
		<path fill="#01002A" d="M691.1,315.1v-14.8h-0.3c-2.7,5.4-6.4,9.5-11.1,12.4c-4.7,2.9-10,4.4-16,4.4c-4,0-7.7-0.5-10.9-1.7
			s-6-2.7-8.2-4.8c-2.2-2.1-4-4.6-5.3-7.6s-1.8-6.2-1.8-9.7c0-7.6,2.3-13.5,7-18.1c4.7-4.5,11.8-7.5,21.2-8.7l25.4-3.7
			c0-16.1-6.2-24-18.7-24c-9.8,0-18.8,3.6-27.1,10.7v-11.4c1.8-1.3,3.7-2.4,5.9-3.4c2.2-1.1,4.5-1.9,6.9-2.6
			c2.4-0.7,4.9-1.3,7.6-1.7c2.6-0.4,5.1-0.6,7.6-0.6c9.3,0,16.3,2.6,21.1,7.9c4.7,5.3,7.1,13,7.1,23.3v54.3h-10.5V315.1z
			 M669.6,274.6c-3.8,0.5-6.9,1.3-9.7,2c-2.7,0.7-4.8,1.9-6.6,3.3c-1.8,1.4-3,3.2-3.9,5.1c-0.8,2-1.3,4.5-1.3,7.6
			c0,2.2,0.4,4.3,1.2,6.2c0.8,1.9,1.9,3.6,3.5,4.9c1.5,1.4,3.4,2.4,5.5,3.3c2.1,0.7,4.6,1.2,7.4,1.2c3.7,0,7.1-0.7,10.2-2.1
			c3.2-1.4,5.8-3.4,8.1-5.9c2.2-2.5,4-5.5,5.3-8.9s1.9-7.2,1.9-11.3v-8.2L669.6,274.6z"/>
		<path fill="#3F5FFF" d="M739.3,269.6V315h-10.8V198.2h30.1c6.2,0,11.5,0.7,16.3,2.3c4.7,1.6,8.7,3.7,12,6.6
			c3.3,2.8,5.8,6.4,7.5,10.6c1.7,4.2,2.5,8.9,2.5,14.4c0,5.5-0.9,10.5-2.8,15c-1.9,4.6-4.6,8.6-8.2,11.9c-3.6,3.4-7.9,6-13,7.9
			c-5.1,1.9-10.9,2.8-17.3,2.8h-16.2V269.6z M739.3,208.1v51.6h15.5c10.1,0,17.7-2.3,22.9-7c5.1-4.7,7.9-11.2,7.9-19.8
			c0-16.5-9.7-24.7-28.9-24.7H739.3z"/>
		<path fill="#3F5FFF" d="M860.3,242.3c-2.4-1.8-5.6-2.7-9.4-2.7c-2.7,0-5.3,0.5-7.4,1.6c-2.1,1.1-4,2.5-5.6,4.3
			c-1.6,1.8-2.9,3.9-4.1,6.2c-1.2,2.4-2,4.8-2.7,7.4c-0.7,2.5-1.2,5.1-1.5,7.8c-0.3,2.6-0.4,5-0.4,7.5V315h-10.4v-83.5h10.4v17.9
			h0.3c0.9-3,2.2-5.8,3.7-8.2c1.5-2.4,3.3-4.4,5.1-6.1c2-1.7,4.1-2.9,6.4-3.8c2.3-0.8,4.7-1.3,7.4-1.3c1.7,0,3.1,0.1,4.5,0.3
			c1.4,0.2,2.5,0.5,3.7,0.9L860.3,242.3L860.3,242.3z"/>
		<path fill="#3F5FFF" d="M907.4,317c-6.2,0-11.8-1.1-16.7-3.1c-4.9-2.1-9.1-5-12.6-8.8c-3.5-3.8-6.2-8.3-8-13.5
			c-1.9-5.3-2.7-11.1-2.7-17.5c0-6.9,0.9-13.2,2.9-18.7s4.7-10.2,8.4-14c3.6-3.9,8-6.7,13.1-8.7c5.1-2,10.8-3,17.1-3
			c6,0,11.4,0.9,16.3,2.9c4.8,2,8.9,4.8,12.3,8.6c3.4,3.8,6,8.3,7.8,13.6c1.8,5.4,2.7,11.6,2.7,18.4c0,6.5-0.9,12.5-2.8,17.8
			c-1.9,5.4-4.5,10-8.1,13.9c-3.5,3.9-7.8,6.8-12.7,8.9C919.5,315.9,913.7,317,907.4,317z M908.3,238.7c-4.5,0-8.7,0.8-12.4,2.4
			s-6.8,3.9-9.5,6.9c-2.6,3-4.6,6.7-6.1,11.1c-1.4,4.4-2.1,9.3-2.1,14.9c0,5.3,0.7,10,2.1,14.1c1.4,4.2,3.4,7.8,6,10.8
			c2.6,2.9,5.7,5.3,9.4,6.9c3.7,1.6,7.9,2.4,12.4,2.4c4.7,0,8.8-0.7,12.4-2.3c3.6-1.6,6.6-3.8,9.1-6.7c2.5-2.9,4.4-6.6,5.7-10.9
			c1.3-4.3,1.9-9.2,1.9-14.7c0-11.2-2.5-19.8-7.5-25.8C924.7,241.6,917.5,238.7,908.3,238.7z"/>
	</g>
	<g>
		<path fill="#01002A" d="M299.5,389.7l-6.4-17.1h-24.8l-6.2,17.1h-6l22.1-57.9h5.4l21.9,57.9H299.5z M281.9,342
			c-0.2-0.5-0.4-1.1-0.6-1.8c-0.2-0.6-0.4-1.5-0.5-2.3h-0.2c-0.2,0.8-0.3,1.6-0.5,2.3c-0.2,0.6-0.4,1.3-0.6,1.8l-9.3,25.7h21.2
			L281.9,342z"/>
		<path fill="#01002A" d="M318.9,383.1v25.6h-5.1v-60.3h5.1v7.9h0.2c1.6-2.8,3.6-5,6.2-6.6c2.5-1.5,5.5-2.3,8.7-2.3
			c2.6,0,5,0.5,7,1.5c2.1,0.9,3.9,2.3,5.3,4.1c1.5,1.8,2.5,3.9,3.4,6.4c0.7,2.5,1.2,5.4,1.2,8.4c0,3.5-0.4,6.5-1.3,9.3
			c-0.8,2.8-2.1,5.3-3.7,7.2c-1.6,2-3.6,3.6-5.9,4.7c-2.3,1.2-4.9,1.7-7.8,1.7c-5.8,0-10.2-2.5-13-7.7H318.9z M318.9,372.6
			c0,1.9,0.3,3.7,0.9,5.4c0.6,1.7,1.5,3.1,2.6,4.4s2.5,2.2,4.1,2.9c1.6,0.7,3.4,1,5.4,1c2.1,0,4-0.4,5.6-1.3c1.7-0.8,3-2.1,4.3-3.8
			c1.2-1.6,2.1-3.6,2.7-5.9c0.6-2.3,0.9-4.8,0.9-7.7c0-2.4-0.3-4.6-0.8-6.5c-0.6-2-1.5-3.6-2.5-4.9c-1-1.4-2.4-2.4-4-3.1
			c-1.6-0.7-3.3-1.1-5.1-1.1c-2.1,0-4.1,0.4-5.8,1.2c-1.7,0.8-3.1,1.9-4.4,3.3s-2.1,2.9-2.8,4.8c-0.6,1.9-0.9,3.8-0.9,5.9v5.4H318.9
			z"/>
		<path fill="#01002A" d="M381.7,353.7c-1.3-0.8-2.7-1.4-4.7-1.4c-1.4,0-2.6,0.3-3.7,0.8c-1.1,0.5-2,1.3-2.7,2.1
			c-0.8,0.8-1.5,1.9-2,3s-0.9,2.4-1.4,3.7c-0.3,1.3-0.6,2.5-0.7,3.9c-0.1,1.3-0.2,2.5-0.2,3.7v20.2h-5.1v-41.3h5.1v8.8h0.2
			c0.5-1.5,1-2.8,1.8-4.1c0.7-1.2,1.6-2.2,2.5-3c0.9-0.8,2-1.5,3.2-1.9c1.2-0.4,2.3-0.6,3.6-0.6c0.8,0,1.6,0.1,2.2,0.2
			s1.3,0.3,1.8,0.5v5.4H381.7z"/>
		<path fill="#01002A" d="M390.5,369.9c0,2.5,0.3,4.8,1.1,6.8s1.6,3.7,2.8,5.1c1.3,1.4,2.7,2.4,4.4,3.3c1.8,0.7,3.7,1.2,5.9,1.2
			c4.6,0,9-1.6,13.2-4.8v5c-4,2.8-8.7,4.2-14.4,4.2c-2.7,0-5.3-0.5-7.6-1.5c-2.3-0.9-4.2-2.4-5.8-4.2c-1.6-1.9-2.8-4.1-3.7-6.8
			c-0.8-2.7-1.3-5.8-1.3-9.2c0-3,0.4-6,1.4-8.6c0.9-2.6,2.2-4.9,3.9-6.8c1.7-1.9,3.7-3.5,5.9-4.5c2.3-1.1,4.8-1.7,7.5-1.7
			s5,0.4,7,1.4c2,0.9,3.8,2.2,5.1,4c1.4,1.7,2.4,3.8,3.2,6.3c0.7,2.5,1,5.3,1,8.3v2.6L390.5,369.9L390.5,369.9z M415.1,365.4
			c-0.1-4.3-1.2-7.7-3-10c-2-2.4-4.7-3.6-8.2-3.6c-1.8,0-3.4,0.3-4.8,0.9c-1.5,0.6-2.8,1.5-3.9,2.7c-1,1.3-2.1,2.6-2.8,4.3
			c-0.7,1.7-1.3,3.6-1.6,5.7h24.4V365.4z"/>
		<path fill="#01002A" d="M458.3,389.7v-23.8c0-9.3-3.4-14-10.2-14c-1.8,0-3.5,0.3-5,1s-2.8,1.7-4,2.9c-1.2,1.3-2,2.7-2.6,4.5
			s-0.9,3.6-0.9,5.7v23.6h-5v-41.3h5.1v7.1h0.2c3-5.5,7.7-8.2,13.9-8.2c4.5,0,8,1.5,10.3,4.4c2.4,2.9,3.6,7.1,3.6,12.7v25.2H458.3z"
			/>
		<path fill="#01002A" d="M504.9,389.7v-7.2h-0.2c-1.4,2.6-3.4,4.6-5.9,6.1c-2.5,1.5-5.5,2.2-8.6,2.2c-2.6,0-4.9-0.5-7-1.5
			c-2.1-0.9-3.9-2.3-5.5-4.1c-1.6-1.8-2.6-4-3.5-6.5c-0.8-2.5-1.3-5.5-1.3-8.7c0-3.4,0.4-6.4,1.4-9.1c0.9-2.7,2.2-5.1,3.8-7.1
			c1.7-2,3.7-3.5,6-4.6c2.3-1.2,4.9-1.7,7.8-1.7c6,0,10.2,2.4,12.8,7.1h0.2v-26h5.1v61.1h-5.1V389.7z M504.9,364.8
			c0-1.8-0.3-3.5-0.9-5c-0.6-1.6-1.5-2.9-2.6-4.1s-2.4-2.1-4-2.7c-1.6-0.6-3.3-1-5.1-1c-2,0-3.9,0.4-5.7,1.3c-1.7,0.8-3.1,2-4.4,3.5
			c-1.3,1.5-2.2,3.4-2.8,5.6c-0.7,2.2-1.1,4.6-1.1,7.5c0,2.6,0.3,4.9,0.9,7s1.5,3.8,2.6,5.3s2.5,2.5,4.1,3.3
			c1.6,0.7,3.4,1.2,5.3,1.2c2.1,0,4-0.4,5.7-1.2c1.7-0.7,3.1-1.8,4.3-3.1c1.2-1.4,2.1-2.8,2.7-4.6c0.6-1.8,0.9-3.7,0.9-5.7v-6.9
			H504.9z"/>
		<path fill="#01002A" d="M525.8,369.9c0,2.5,0.3,4.8,1.1,6.8c0.6,2,1.6,3.7,2.8,5.1c1.3,1.4,2.7,2.4,4.4,3.3
			c1.8,0.7,3.7,1.2,5.9,1.2c4.6,0,9-1.6,13.2-4.8v5c-4,2.8-8.7,4.2-14.4,4.2c-2.7,0-5.3-0.5-7.6-1.5c-2.3-0.9-4.2-2.4-5.8-4.2
			c-1.6-1.9-2.8-4.1-3.7-6.8c-0.8-2.7-1.3-5.8-1.3-9.2c0-3,0.4-6,1.4-8.6c0.9-2.6,2.2-4.9,3.9-6.8c1.7-1.9,3.7-3.5,5.9-4.5
			c2.3-1.1,4.8-1.7,7.5-1.7s5,0.4,7,1.4c2,0.9,3.8,2.2,5.1,4c1.4,1.7,2.4,3.8,3.2,6.3c0.7,2.5,1,5.3,1,8.3v2.6L525.8,369.9
			L525.8,369.9z M550.4,365.4c-0.1-4.3-1.2-7.7-3-10c-2-2.4-4.7-3.6-8.2-3.6c-1.8,0-3.4,0.3-4.8,0.9c-1.5,0.6-2.8,1.5-3.9,2.7
			c-1.2,1.2-2.1,2.6-2.8,4.3c-0.7,1.7-1.3,3.6-1.6,5.7h24.4V365.4z"/>
		<path fill="#01002A" d="M586.3,353.7c-1.3-0.8-2.7-1.4-4.7-1.4c-1.4,0-2.6,0.3-3.7,0.8c-1,0.5-2,1.3-2.7,2.1c-0.8,0.8-1.5,1.9-2,3
			c-0.5,1.2-0.9,2.4-1.4,3.7c-0.3,1.3-0.6,2.5-0.7,3.9c-0.1,1.3-0.2,2.5-0.2,3.7v20.2h-5.1v-41.3h5.1v8.8h0.2c0.5-1.5,1-2.8,1.8-4.1
			c0.7-1.2,1.6-2.2,2.5-3c0.9-0.8,2-1.5,3.1-1.9c1.2-0.4,2.3-0.6,3.6-0.6c0.8,0,1.6,0.1,2.2,0.2c0.6,0.1,1.3,0.3,1.8,0.5v5.4H586.3z
			"/>
		<path fill="#01002A" d="M644.4,389.7v-24.3c0-4.6-0.8-8.1-2.5-10.2c-1.7-2.2-4.3-3.3-7.8-3.3c-1.7,0-3.3,0.3-4.7,1.1
			c-1.5,0.6-2.8,1.7-4,2.9c-1.2,1.3-2,2.8-2.7,4.6c-0.6,1.8-1.1,3.9-1.1,6.2v23.1h-5.1v-61.1h5.1v27h0.2c3.3-5.4,7.9-8.1,13.9-8.1
			c4.6,0,8.1,1.4,10.4,4.2c2.3,2.8,3.5,7,3.5,12.5v25.5h-5.1V389.7z"/>
		<path fill="#01002A" d="M685.8,389.7v-7.4h-0.2c-1.4,2.6-3.2,4.7-5.5,6.1c-2.3,1.5-4.9,2.2-7.9,2.2c-2,0-3.8-0.3-5.4-0.8
			s-2.9-1.4-4.1-2.4c-1.2-1-2-2.3-2.6-3.8c-0.6-1.5-0.9-3-0.9-4.8c0-3.8,1.2-6.7,3.5-8.9c2.3-2.2,5.8-3.7,10.5-4.3l12.5-1.8
			c0-8-3-11.9-9.2-11.9c-4.8,0-9.2,1.8-13.4,5.3v-5.7c0.8-0.6,1.8-1.2,2.9-1.7c1.2-0.5,2.2-0.9,3.5-1.3s2.4-0.6,3.8-0.8
			c1.3-0.2,2.5-0.3,3.8-0.3c4.6,0,8.1,1.3,10.4,3.9s3.6,6.4,3.6,11.5v26.9L685.8,389.7L685.8,389.7z M675,369.6
			c-1.9,0.3-3.5,0.6-4.7,1c-1.4,0.4-2.4,0.9-3.3,1.7c-0.8,0.7-1.5,1.6-1.9,2.5c-0.4,1.1-0.6,2.2-0.6,3.8c0,1.2,0.2,2.1,0.6,3
			c0.4,0.9,0.9,1.8,1.7,2.4c0.7,0.7,1.7,1.3,2.7,1.6c1,0.4,2.3,0.5,3.6,0.5c1.8,0,3.5-0.3,5-1s2.8-1.7,4-2.9c1.2-1.3,2-2.7,2.6-4.4
			c0.6-1.7,0.9-3.6,0.9-5.6v-4.1L675,369.6z"/>
		<path fill="#01002A" d="M730.8,387.9c-3,1.9-6.8,2.8-11.1,2.8c-2.9,0-5.7-0.5-8-1.6c-2.4-1.1-4.4-2.5-6.1-4.4
			c-1.7-1.9-2.9-4.1-3.8-6.6c-0.8-2.5-1.4-5.4-1.4-8.3c0-3,0.4-6,1.4-8.7c0.9-2.7,2.3-5.1,4.1-7.1c1.8-2,4-3.7,6.6-4.8
			s5.6-1.8,8.9-1.8c3.5,0,6.5,0.6,9.3,2v5.5c-3-2-6.3-2.9-9.8-2.9c-2.4,0-4.6,0.4-6.5,1.4c-1.9,0.9-3.5,2.2-4.8,3.8
			c-1.3,1.6-2.3,3.5-2.9,5.6c-0.6,2.1-1.1,4.4-1.1,6.8c0,2.2,0.3,4.3,0.8,6.3c0.5,2,1.5,3.8,2.6,5.4s2.7,2.7,4.5,3.7
			c1.8,0.9,4,1.4,6.4,1.4c3.9,0,7.4-1.2,10.5-3.5v5.2H730.8z"/>
		<path fill="#01002A" d="M743.3,337.9c-0.9,0-1.9-0.3-2.6-1.1c-0.7-0.7-1.1-1.6-1.1-2.6c0-1,0.3-1.9,1.1-2.6c0.7-0.7,1.6-1,2.6-1
			c0.5,0,0.9,0.1,1.5,0.2c0.4,0.2,0.8,0.4,1.2,0.7c0.3,0.3,0.6,0.7,0.8,1.2s0.3,0.9,0.3,1.5c0,0.5-0.1,0.9-0.3,1.5
			c-0.2,0.4-0.4,0.8-0.8,1.2c-0.3,0.3-0.7,0.6-1.2,0.8C744.3,337.8,743.8,337.9,743.3,337.9z M740.8,389.7v-41.3h5.1v41.3H740.8z"/>
		<path fill="#01002A" d="M761.7,369.9c0,2.5,0.3,4.8,1,6.8c0.6,2,1.6,3.7,2.8,5.1c1.3,1.4,2.7,2.4,4.4,3.3c1.8,0.7,3.7,1.2,5.9,1.2
			c4.6,0,9-1.6,13.2-4.8v5c-4,2.8-8.7,4.2-14.4,4.2c-2.7,0-5.3-0.5-7.6-1.5c-2.3-0.9-4.2-2.4-5.8-4.2c-1.6-1.9-2.8-4.1-3.7-6.8
			c-0.8-2.7-1.3-5.8-1.3-9.2c0-3,0.4-6,1.4-8.6s2.2-4.9,3.9-6.8c1.7-1.9,3.7-3.5,5.9-4.5c2.3-1.1,4.8-1.7,7.5-1.7s5,0.4,7,1.4
			c2,0.9,3.8,2.2,5.1,4c1.4,1.7,2.4,3.8,3.2,6.3c0.7,2.5,1,5.3,1,8.3v2.6L761.7,369.9L761.7,369.9z M786.2,365.4
			c-0.1-4.3-1.2-7.7-3-10c-2-2.4-4.7-3.6-8.2-3.6c-1.8,0-3.4,0.3-4.8,0.9c-1.5,0.6-2.8,1.5-3.9,2.7c-1.2,1.2-2.1,2.6-2.8,4.3
			c-0.7,1.7-1.3,3.6-1.6,5.7h24.4V365.4z"/>
		<path fill="#01002A" d="M829.5,389.7v-23.8c0-9.3-3.4-14-10.2-14c-1.8,0-3.5,0.3-5,1c-1.6,0.7-2.8,1.7-4,2.9
			c-1.2,1.3-2,2.7-2.6,4.5c-0.6,1.8-0.9,3.6-0.9,5.7v23.6h-5.1v-41.3h5.1v7.1h0.2c3-5.5,7.7-8.2,13.9-8.2c4.5,0,8,1.5,10.3,4.4
			c2.3,2.9,3.6,7.1,3.6,12.7v25.2H829.5z"/>
		<path fill="#01002A" d="M876.1,389.7v-7.2h-0.2c-1.4,2.6-3.4,4.6-5.9,6.1c-2.5,1.5-5.5,2.2-8.6,2.2c-2.6,0-4.9-0.5-7-1.5
			c-2.1-0.9-3.9-2.3-5.5-4.1s-2.6-4-3.5-6.5c-0.8-2.5-1.3-5.5-1.3-8.7c0-3.4,0.4-6.4,1.4-9.1s2.2-5.1,3.8-7.1c1.7-2,3.7-3.5,6-4.6
			s4.9-1.7,7.8-1.7c6,0,10.2,2.4,12.8,7.1h0.2v-26h5.1v61.1h-5.1V389.7z M876.1,364.8c0-1.8-0.3-3.5-0.9-5c-0.6-1.6-1.5-2.9-2.6-4.1
			s-2.4-2.1-4-2.7s-3.3-1-5.1-1c-2,0-3.9,0.4-5.7,1.3c-1.7,0.8-3.1,2-4.4,3.5c-1.3,1.5-2.2,3.4-2.8,5.6c-0.7,2.2-1,4.6-1,7.5
			c0,2.6,0.3,4.9,0.9,7c0.6,2.1,1.5,3.8,2.6,5.3s2.5,2.5,4.1,3.3s3.4,1.2,5.3,1.2c2.1,0,4-0.4,5.7-1.2s3.2-1.8,4.3-3.1
			s2.1-2.8,2.7-4.6c0.6-1.8,0.9-3.7,0.9-5.7v-6.9H876.1z"/>
		<path fill="#01002A" d="M911.4,390.6c-3,0-5.8-0.5-8.3-1.6c-2.4-1.1-4.5-2.4-6.2-4.3c-1.7-1.9-3-4.1-4-6.7s-1.4-5.5-1.4-8.7
			c0-3.5,0.5-6.5,1.5-9.2c0.9-2.7,2.3-5,4.1-6.9c1.8-1.9,4-3.4,6.5-4.3c2.5-0.9,5.4-1.5,8.5-1.5c2.9,0,5.7,0.5,8.1,1.5
			c2.4,0.9,4.4,2.4,6.1,4.3c1.7,1.9,2.9,4.1,3.8,6.8c0.8,2.6,1.4,5.7,1.4,9c0,3.3-0.4,6.2-1.4,8.8c-0.9,2.6-2.2,4.9-4,6.8
			c-1.7,1.9-3.8,3.4-6.3,4.4C917.4,390.1,914.5,390.6,911.4,390.6z M911.8,351.9c-2.3,0-4.3,0.4-6.1,1.2c-1.8,0.7-3.4,1.9-4.7,3.4
			s-2.3,3.4-3,5.5c-0.7,2.1-1.1,4.6-1.1,7.4c0,2.6,0.3,4.9,1.1,6.9c0.7,2.1,1.7,3.9,2.9,5.4c1.3,1.5,2.8,2.6,4.6,3.4
			c1.8,0.8,3.9,1.2,6.1,1.2c2.3,0,4.3-0.4,6.1-1.2c1.8-0.7,3.3-1.9,4.5-3.4c1.3-1.5,2.2-3.3,2.8-5.4c0.6-2.1,0.9-4.5,0.9-7.2
			c0-5.6-1.3-9.9-3.7-12.8C920,353.4,916.4,351.9,911.8,351.9z"/>
		<path fill="#01002A" d="M944.3,390.5c-1,0-2-0.4-2.7-1.2s-1.2-1.7-1.2-2.7c0-1.1,0.4-2,1.2-2.8c0.7-0.7,1.7-1.2,2.7-1.2
			c0.5,0,1.1,0.1,1.5,0.3c0.4,0.2,0.8,0.4,1.3,0.8c0.4,0.4,0.6,0.7,0.8,1.3c0.2,0.5,0.3,1,0.3,1.6c0,0.5-0.1,1.1-0.3,1.5
			c-0.2,0.4-0.5,0.8-0.8,1.3c-0.3,0.3-0.7,0.6-1.3,0.8C945.2,390.4,944.8,390.5,944.3,390.5z"/>
	</g>
	<g>
		<circle fill="#3F5FFF" cx="136.6" cy="289.2" r="99.5"/>
		
			<linearGradient id="SVGID_1_" gradientUnits="userSpaceOnUse" x1="32.6487" y1="348.6272" x2="189.687" y2="348.6272" gradientTransform="matrix(1.0184 0.2558 0.2558 -1.0184 -82.4221 611.4481)">
			<stop  offset="0" style="stop-color:#FFFFFF;stop-opacity:0"/>
			<stop  offset="1" style="stop-color:#7FDBFF"/>
		</linearGradient>
		<path fill="url(#SVGID_1_)" d="M40,264.7C27.6,314.1,53.3,363,97.5,374.1s90-19.8,102.4-69.2s-13.3-98.3-57.5-109.4
			S52.4,215.4,40,264.7z"/>
		
			<linearGradient id="SVGID_2_" gradientUnits="userSpaceOnUse" x1="66.1173" y1="349.2943" x2="223.1313" y2="349.2943" gradientTransform="matrix(1.0184 0.2558 0.2558 -1.0184 -82.4221 611.4481)">
			<stop  offset="0" style="stop-color:#5558FF"/>
			<stop  offset="1" style="stop-color:#FFFFFF;stop-opacity:0"/>
		</linearGradient>
		<path fill="url(#SVGID_2_)" d="M176.5,204c44.2,11.1,70,59.7,57.6,108.8c-12.3,48.9-58.1,79.7-102.3,68.6
			c-44.1-11-69.9-59.7-57.6-108.7S132.3,193,176.5,204z"/>
		
			<ellipse transform="matrix(-0.2436 0.9699 -0.9699 -0.2436 450.2794 227.0878)" fill="#FFFFFF" cx="136.6" cy="289.1" rx="63" ry="64.2"/>
	</g>
</g>
</svg>
