<?xml version="1.0" encoding="utf-8"?>
<!-- Generator: Adobe Illustrator 18.0.0, SVG Export Plug-In . SVG Version: 6.00 Build 0)  -->
<!DOCTYPE svg PUBLIC "-//W3C//DTD SVG 1.1//EN" "http://www.w3.org/Graphics/SVG/1.1/DTD/svg11.dtd">
<svg version="1.1" id="Capa_1" xmlns="http://www.w3.org/2000/svg" xmlns:xlink="http://www.w3.org/1999/xlink" x="0px" y="0px"
	 viewBox="36.9 512.2 612 147.1" enable-background="new 36.9 512.2 612 147.1" xml:space="preserve">
<path fill="#3F5FFF" d="M103.9,512.2C67,512.2,37,542.1,37,579s29.9,66.8,66.8,66.8s66.8-29.9,66.8-66.8S140.8,512.2,103.9,512.2z
	 M145.7,589.5c-5.7,22.7-29,36.3-52.1,30.5c-23.1-5.8-37.2-28.9-31.5-51.5c5.7-22.7,29-36.3,52.1-30.5S151.4,566.8,145.7,589.5z"/>
<g>
	<path fill="#01002A" d="M188.9,586.3c1.1,0.9,2.2,1.6,3.4,2.3c1.3,0.6,2.6,1.2,3.8,1.7c1.3,0.5,2.6,0.9,4,1.1s2.6,0.3,3.8,0.3
		c8.3,0,12.5-3.1,12.5-9.4c0-1.4-0.3-2.7-0.9-3.7c-0.5-1.1-1.4-1.9-2.6-2.8c-1.1-0.9-2.4-1.6-4-2.4c-1.5-0.7-3.2-1.5-5.2-2.4
		c-2.6-1.1-4.8-2.1-6.7-3.2c-1.8-1.1-3.4-2.3-4.6-3.6c-1.2-1.3-2.1-2.8-2.7-4.3c-0.5-1.5-0.9-3.3-0.9-5.3c0-2.5,0.5-4.7,1.6-6.6
		c1.1-1.9,2.6-3.6,4.4-5s4-2.4,6.3-3.1c2.4-0.7,5-1.1,7.5-1.1c4.8,0,9.1,0.9,12.7,2.8v7.4c-4.2-2.7-8.7-4-13.6-4
		c-1.7,0-3.4,0.2-4.8,0.6c-1.4,0.4-2.7,1.1-3.7,1.8c-1.1,0.8-1.8,1.7-2.4,2.9c-0.5,1.1-0.9,2.4-0.9,3.7c0,1.4,0.2,2.6,0.6,3.7
		c0.4,1.1,1.1,1.9,2,2.8c0.9,0.9,2.1,1.6,3.6,2.4c1.5,0.8,3.2,1.6,5.4,2.5c2.7,1.1,5,2.2,7,3.2c1.9,1.1,3.6,2.3,4.8,3.6
		c1.3,1.3,2.3,2.7,2.8,4.2c0.6,1.5,0.9,3.4,0.9,5.4c0,2.6-0.5,4.8-1.5,6.8c-1.1,1.9-2.5,3.7-4.3,5s-4,2.4-6.5,3
		c-2.5,0.7-5.2,1.1-8.1,1.1c-5.6,0-10.4-1.2-14.3-3.6v-7.9h0.3V586.3z"/>
	<path fill="#01002A" d="M241.1,526.1c-1.3,0-2.6-0.5-3.6-1.4s-1.5-2.2-1.5-3.6s0.5-2.6,1.5-3.6c1-0.9,2.2-1.4,3.6-1.4
		c0.7,0,1.3,0.1,1.9,0.3s1.1,0.5,1.6,1c0.4,0.4,0.9,1,1.1,1.5c0.3,0.6,0.4,1.3,0.4,1.9s-0.1,1.3-0.3,1.9c-0.3,0.6-0.6,1.1-1.1,1.6
		c-0.5,0.4-1,0.9-1.6,1.1C242.5,526,241.9,526.1,241.1,526.1z M237.6,596.4v-56.1h7v56.1H237.6z"/>
	<path fill="#01002A" d="M333.3,596.4v-33c0-3.4-0.3-6.2-0.8-8.5s-1.3-4.2-2.4-5.6c-1.1-1.5-2.5-2.6-4.1-3.2c-1.7-0.6-3.7-1-5.9-1
		c-2,0-4,0.5-5.8,1.5c-1.8,1-3.4,2.4-4.8,4s-2.5,3.7-3.2,6c-0.7,2.3-1.2,4.8-1.2,7.5v32.4h-7v-33.7c0-11.8-4.5-17.7-13.6-17.7
		c-2.1,0-4,0.5-5.8,1.4c-1.7,0.9-3.4,2.3-4.6,4c-1.3,1.7-2.4,3.7-3.1,6c-0.8,2.4-1.1,4.9-1.1,7.9v32.2h-7v-56.1h7v8.9h0.2
		c4-6.9,9.7-10.4,17.3-10.4c1.9,0,3.8,0.3,5.6,0.9s3.3,1.4,4.7,2.6c1.4,1.1,2.6,2.4,3.6,3.9c1,1.5,1.7,3.2,2.3,5
		c1.9-4,4.5-7,7.7-9.1s6.7-3.1,10.7-3.1c12.3,0,18.5,7.6,18.5,22.8v34.7h-7.1V596.4z"/>
	<path fill="#01002A" d="M393.8,596.4v-9.5h-0.3c-3.8,7.3-9.7,10.9-17.7,10.9c-13.3,0-19.9-8.1-19.9-24.4v-33h7V572
		c0,6.7,1.2,11.7,3.6,14.9c2.4,3.2,6,4.8,11,4.8c2.4,0,4.6-0.5,6.6-1.4c1.9-0.9,3.8-2.3,5.2-4c1.4-1.7,2.6-3.8,3.4-6.1
		c0.8-2.4,1.2-5,1.2-7.9v-32h7v56.1L393.8,596.4L393.8,596.4L393.8,596.4z"/>
	<path fill="#01002A" d="M418.8,596.4v-83.1h7v83L418.8,596.4L418.8,596.4z"/>
	<path fill="#01002A" d="M476.2,596.4v-9.9H476c-1.8,3.6-4.3,6.4-7.5,8.3c-3.2,1.9-6.7,3-10.7,3c-2.7,0-5.2-0.3-7.3-1.1
		c-2.1-0.8-4-1.8-5.5-3.2c-1.5-1.4-2.7-3.1-3.6-5.1c-0.9-2-1.2-4.2-1.2-6.5c0-5.1,1.5-9.1,4.7-12.2c3.2-3,7.9-5,14.2-5.8l17.1-2.5
		c0-10.8-4.2-16.1-12.6-16.1c-6.6,0-12.6,2.4-18.2,7.2v-7.7c1.2-0.9,2.5-1.6,4-2.3c1.5-0.7,3-1.3,4.6-1.7c1.6-0.5,3.3-0.9,5.1-1.1
		c1.7-0.3,3.4-0.4,5.1-0.4c6.2,0,10.9,1.7,14.2,5.3c3.2,3.6,4.8,8.7,4.8,15.6v36.5h-7.1L476.2,596.4L476.2,596.4z M461.8,569.2
		c-2.6,0.3-4.6,0.9-6.5,1.3c-1.8,0.5-3.2,1.3-4.4,2.2c-1.2,0.9-2,2.1-2.6,3.4c-0.5,1.3-0.9,3-0.9,5.1c0,1.5,0.3,2.9,0.8,4.2
		c0.5,1.3,1.3,2.4,2.4,3.3c1,0.9,2.3,1.6,3.7,2.2c1.4,0.5,3.1,0.8,5,0.8c2.5,0,4.8-0.5,6.9-1.4c2.1-0.9,3.9-2.3,5.4-4
		c1.5-1.7,2.7-3.7,3.6-6c0.9-2.3,1.3-4.8,1.3-7.6v-5.5L461.8,569.2z"/>
	<path fill="#3F5FFF" d="M508.6,565.8v30.5h-7.3v-78.4h20.2c4.2,0,7.7,0.5,10.9,1.5c3.2,1.1,5.8,2.5,8.1,4.4c2.2,1.9,3.9,4.3,5,7.1
		c1.1,2.8,1.7,6,1.7,9.7s-0.6,7.1-1.9,10.1c-1.3,3.1-3.1,5.8-5.5,8c-2.4,2.3-5.3,4-8.7,5.3c-3.4,1.3-7.3,1.9-11.6,1.9L508.6,565.8
		L508.6,565.8L508.6,565.8z M508.6,524.5v34.7H519c6.8,0,11.9-1.5,15.4-4.7c3.4-3.2,5.3-7.5,5.3-13.3c0-11.1-6.5-16.6-19.4-16.6
		L508.6,524.5L508.6,524.5z"/>
	<path fill="#3F5FFF" d="M589.9,547.5c-1.6-1.2-3.8-1.8-6.3-1.8c-1.8,0-3.6,0.3-5,1.1c-1.4,0.7-2.7,1.7-3.8,2.9
		c-1.1,1.2-1.9,2.6-2.8,4.2c-0.8,1.6-1.3,3.2-1.8,5c-0.5,1.7-0.8,3.4-1,5.2c-0.2,1.7-0.3,3.4-0.3,5v27.3h-7v-56.1h7v12h0.2
		c0.6-2,1.5-3.9,2.5-5.5c1-1.6,2.2-3,3.4-4.1c1.3-1.1,2.8-1.9,4.3-2.6c1.5-0.5,3.2-0.9,5-0.9c1.1,0,2.1,0.1,3,0.2
		c0.9,0.1,1.7,0.3,2.5,0.6V547.5L589.9,547.5z"/>
	<path fill="#3F5FFF" d="M621.5,597.7c-4.2,0-7.9-0.7-11.2-2.1c-3.3-1.4-6.1-3.4-8.5-5.9c-2.4-2.6-4.2-5.6-5.4-9.1
		c-1.3-3.6-1.8-7.5-1.8-11.8c0-4.6,0.6-8.9,1.9-12.6s3.2-6.8,5.6-9.4c2.4-2.6,5.4-4.5,8.8-5.8s7.3-2,11.5-2c4,0,7.7,0.6,10.9,1.9
		c3.2,1.3,6,3.2,8.3,5.8s4,5.6,5.2,9.1c1.2,3.6,1.8,7.8,1.8,12.4c0,4.4-0.6,8.4-1.9,12c-1.3,3.6-3,6.7-5.4,9.3
		c-2.4,2.6-5.2,4.6-8.5,6C629.6,596.9,625.7,597.7,621.5,597.7z M622.1,545.1c-3,0-5.8,0.5-8.3,1.6c-2.5,1.1-4.6,2.6-6.4,4.6
		c-1.7,2-3.1,4.5-4.1,7.5c-0.9,3-1.4,6.2-1.4,10c0,3.6,0.5,6.7,1.4,9.5c0.9,2.8,2.3,5.2,4,7.3c1.7,1.9,3.8,3.6,6.3,4.6
		c2.5,1.1,5.3,1.6,8.3,1.6c3.2,0,5.9-0.5,8.3-1.5c2.4-1.1,4.4-2.6,6.1-4.5c1.7-1.9,3-4.4,3.8-7.3c0.9-2.9,1.3-6.2,1.3-9.9
		c0-7.5-1.7-13.3-5-17.3C633.1,547,628.3,545.1,622.1,545.1z"/>
</g>
<g>
	<path fill="#01002A" d="M213.3,646.5L209,635h-16.7l-4.2,11.5h-4l14.8-38.9h3.6l14.7,38.9H213.3z M201.4,614.4
		c-0.1-0.3-0.3-0.7-0.4-1.2c-0.1-0.4-0.3-1-0.3-1.5h-0.1c-0.1,0.5-0.2,1.1-0.3,1.5c-0.1,0.4-0.3,0.9-0.4,1.2l-6.2,17.3h14.2
		L201.4,614.4z"/>
	<path fill="#01002A" d="M226.3,642v17.2h-3.4v-40.5h3.4v5.3h0.1c1.1-1.9,2.4-3.4,4.2-4.4c1.7-1,3.7-1.5,5.8-1.5
		c1.7,0,3.4,0.3,4.7,1c1.4,0.6,2.6,1.5,3.6,2.8c1,1.2,1.7,2.6,2.3,4.3c0.5,1.7,0.8,3.6,0.8,5.6c0,2.4-0.3,4.4-0.9,6.2
		c-0.5,1.9-1.4,3.6-2.5,4.8c-1.1,1.3-2.4,2.4-4,3.2c-1.5,0.8-3.3,1.1-5.2,1.1c-3.9,0-6.8-1.7-8.7-5.2L226.3,642L226.3,642z
		 M226.3,635c0,1.3,0.2,2.5,0.6,3.6c0.4,1.1,1,2.1,1.7,3c0.7,0.9,1.7,1.5,2.8,1.9s2.3,0.7,3.6,0.7c1.4,0,2.7-0.3,3.8-0.9
		c1.1-0.5,2-1.4,2.9-2.6c0.8-1.1,1.4-2.4,1.8-4c0.4-1.5,0.6-3.2,0.6-5.2c0-1.6-0.2-3.1-0.5-4.4c-0.4-1.3-1-2.4-1.7-3.3
		c-0.7-0.9-1.6-1.6-2.7-2.1c-1.1-0.5-2.2-0.7-3.4-0.7c-1.4,0-2.8,0.3-3.9,0.8c-1.1,0.5-2.1,1.3-3,2.2c-0.9,0.9-1.4,1.9-1.9,3.2
		c-0.4,1.3-0.6,2.6-0.6,4v3.6H226.3L226.3,635z"/>
	<path fill="#01002A" d="M268.5,622.3c-0.9-0.5-1.8-0.9-3.2-0.9c-0.9,0-1.7,0.2-2.5,0.5c-0.7,0.3-1.3,0.9-1.8,1.4
		c-0.5,0.5-1,1.3-1.3,2c-0.3,0.7-0.6,1.6-0.9,2.5c-0.2,0.9-0.4,1.7-0.5,2.6c-0.1,0.9-0.1,1.7-0.1,2.5v13.6h-3.4v-27.7h3.4v5.9h0.1
		c0.3-1,0.7-1.9,1.2-2.8c0.5-0.8,1.1-1.5,1.7-2s1.3-1,2.1-1.3s1.5-0.4,2.4-0.4c0.5,0,1.1,0.1,1.5,0.1c0.4,0.1,0.9,0.2,1.2,0.3
		L268.5,622.3L268.5,622.3L268.5,622.3z"/>
	<path fill="#01002A" d="M274.4,633.2c0,1.7,0.2,3.2,0.7,4.6c0.5,1.3,1.1,2.5,1.9,3.4c0.9,0.9,1.8,1.6,3,2.2c1.2,0.5,2.5,0.8,4,0.8
		c3.1,0,6-1.1,8.9-3.2v3.4c-2.7,1.9-5.8,2.8-9.7,2.8c-1.8,0-3.6-0.3-5.1-1c-1.5-0.6-2.8-1.6-3.9-2.8c-1.1-1.3-1.9-2.8-2.5-4.6
		c-0.5-1.8-0.9-3.9-0.9-6.2c0-2,0.3-4,0.9-5.8c0.6-1.7,1.5-3.3,2.6-4.6s2.5-2.4,4-3c1.5-0.7,3.2-1.1,5-1.1c1.8,0,3.4,0.3,4.7,0.9
		c1.3,0.6,2.6,1.5,3.4,2.7c0.9,1.1,1.6,2.6,2.1,4.2c0.5,1.7,0.7,3.6,0.7,5.6v1.7L274.4,633.2L274.4,633.2z M290.9,630.2
		c-0.1-2.9-0.8-5.2-2-6.7c-1.3-1.6-3.2-2.4-5.5-2.4c-1.2,0-2.3,0.2-3.2,0.6c-1,0.4-1.9,1-2.6,1.8c-0.7,0.9-1.4,1.7-1.9,2.9
		c-0.5,1.1-0.9,2.4-1.1,3.8H290.9L290.9,630.2L290.9,630.2z"/>
	<path fill="#01002A" d="M319.9,646.5v-16c0-6.2-2.3-9.4-6.8-9.4c-1.2,0-2.4,0.2-3.4,0.7s-1.9,1.1-2.7,1.9c-0.8,0.9-1.3,1.8-1.7,3
		c-0.4,1.2-0.6,2.4-0.6,3.8v15.8h-3.4v-27.7h3.4v4.8h0.1c2-3.7,5.2-5.5,9.3-5.5c3,0,5.4,1,6.9,3c1.6,1.9,2.4,4.8,2.4,8.5v16.9h-3.6
		V646.5z"/>
	<path fill="#01002A" d="M351.2,646.5v-4.8h-0.1c-0.9,1.7-2.3,3.1-4,4.1s-3.7,1.5-5.8,1.5c-1.7,0-3.3-0.3-4.7-1
		c-1.4-0.6-2.6-1.5-3.7-2.8c-1.1-1.2-1.7-2.7-2.4-4.4c-0.5-1.7-0.9-3.7-0.9-5.8c0-2.3,0.3-4.3,0.9-6.1c0.6-1.8,1.5-3.4,2.6-4.8
		c1.1-1.3,2.5-2.4,4-3.1c1.5-0.8,3.3-1.1,5.2-1.1c4,0,6.9,1.6,8.6,4.8h0.1v-17.5h3.4v41H351.2L351.2,646.5L351.2,646.5z
		 M351.2,629.8c0-1.2-0.2-2.4-0.6-3.4c-0.4-1.1-1-1.9-1.7-2.8c-0.7-0.8-1.6-1.4-2.7-1.8s-2.2-0.7-3.4-0.7c-1.3,0-2.6,0.3-3.8,0.9
		c-1.1,0.5-2.1,1.3-3,2.4c-0.9,1-1.5,2.3-1.9,3.8c-0.5,1.5-0.7,3.1-0.7,5c0,1.7,0.2,3.3,0.6,4.7c0.4,1.4,1,2.6,1.7,3.6
		c0.7,1,1.7,1.7,2.8,2.2c1.1,0.5,2.3,0.8,3.6,0.8c1.4,0,2.7-0.3,3.8-0.8c1.1-0.5,2.1-1.2,2.9-2.1c0.8-0.9,1.4-1.9,1.8-3.1
		c0.4-1.2,0.6-2.5,0.6-3.8V630h0.1V629.8z"/>
	<path fill="#01002A" d="M365.2,633.2c0,1.7,0.2,3.2,0.7,4.6c0.4,1.3,1.1,2.5,1.9,3.4c0.9,0.9,1.8,1.6,3,2.2c1.2,0.5,2.5,0.8,4,0.8
		c3.1,0,6-1.1,8.9-3.2v3.4c-2.7,1.9-5.8,2.8-9.7,2.8c-1.8,0-3.6-0.3-5.1-1c-1.5-0.6-2.8-1.6-3.9-2.8c-1.1-1.3-1.9-2.8-2.5-4.6
		c-0.5-1.8-0.9-3.9-0.9-6.2c0-2,0.3-4,0.9-5.8c0.6-1.7,1.5-3.3,2.6-4.6s2.5-2.4,4-3c1.5-0.7,3.2-1.1,5-1.1s3.4,0.3,4.7,0.9
		c1.3,0.6,2.6,1.5,3.4,2.7c0.9,1.1,1.6,2.6,2.1,4.2c0.5,1.7,0.7,3.6,0.7,5.6v1.7L365.2,633.2L365.2,633.2z M381.8,630.2
		c-0.1-2.9-0.8-5.2-2-6.7c-1.3-1.6-3.2-2.4-5.5-2.4c-1.2,0-2.3,0.2-3.2,0.6c-1,0.4-1.9,1-2.6,1.8c-0.8,0.8-1.4,1.7-1.9,2.9
		c-0.5,1.1-0.9,2.4-1.1,3.8H381.8L381.8,630.2L381.8,630.2z"/>
	<path fill="#01002A" d="M405.9,622.3c-0.9-0.5-1.8-0.9-3.2-0.9c-0.9,0-1.7,0.2-2.5,0.5c-0.7,0.3-1.3,0.9-1.8,1.4
		c-0.5,0.5-1,1.3-1.3,2c-0.3,0.8-0.6,1.6-0.9,2.5c-0.2,0.9-0.4,1.7-0.5,2.6c-0.1,0.9-0.1,1.7-0.1,2.5v13.6h-3.4v-27.7h3.4v5.9h0.1
		c0.3-1,0.7-1.9,1.2-2.8c0.5-0.8,1.1-1.5,1.7-2c0.6-0.5,1.3-1,2.1-1.3c0.8-0.3,1.5-0.4,2.4-0.4c0.5,0,1.1,0.1,1.5,0.1
		c0.4,0.1,0.9,0.2,1.2,0.3v3.6L405.9,622.3L405.9,622.3z"/>
	<path fill="#01002A" d="M444.9,646.5v-16.3c0-3.1-0.5-5.4-1.7-6.8c-1.1-1.5-2.9-2.2-5.2-2.2c-1.1,0-2.2,0.2-3.2,0.7
		c-1,0.4-1.9,1.1-2.7,1.9c-0.8,0.9-1.3,1.9-1.8,3.1c-0.4,1.2-0.7,2.6-0.7,4.2v15.5h-3.4v-41h3.4v18.1h0.1c2.2-3.6,5.3-5.4,9.3-5.4
		c3.1,0,5.4,0.9,7,2.8c1.5,1.9,2.4,4.7,2.4,8.4v17.1L444.9,646.5L444.9,646.5L444.9,646.5z"/>
	<path fill="#01002A" d="M472.7,646.5v-5h-0.1c-0.9,1.7-2.1,3.2-3.7,4.1c-1.5,1-3.3,1.5-5.3,1.5c-1.3,0-2.6-0.2-3.6-0.5
		c-1.1-0.3-1.9-0.9-2.8-1.6s-1.3-1.5-1.7-2.6c-0.4-1-0.6-2-0.6-3.2c0-2.6,0.8-4.5,2.4-6c1.5-1.5,3.9-2.5,7.1-2.9l8.4-1.2
		c0-5.4-2-8-6.2-8c-3.2,0-6.2,1.2-9,3.6v-3.8c0.5-0.4,1.2-0.8,1.9-1.1c0.8-0.3,1.5-0.6,2.4-0.9c0.9-0.3,1.6-0.4,2.6-0.5
		c0.9-0.1,1.7-0.2,2.6-0.2c3.1,0,5.4,0.9,7,2.6c1.5,1.7,2.4,4.3,2.4,7.7v18.1L472.7,646.5L472.7,646.5z M465.4,633
		c-1.3,0.2-2.4,0.4-3.2,0.7c-0.9,0.3-1.6,0.6-2.2,1.1c-0.5,0.5-1,1.1-1.3,1.7c-0.3,0.7-0.4,1.5-0.4,2.6c0,0.8,0.1,1.4,0.4,2
		c0.3,0.6,0.6,1.2,1.1,1.6c0.5,0.5,1.1,0.9,1.8,1.1c0.7,0.3,1.5,0.3,2.4,0.3c1.2,0,2.4-0.2,3.4-0.7c1-0.5,1.9-1.1,2.7-1.9
		c0.8-0.9,1.3-1.8,1.7-3s0.6-2.4,0.6-3.8V632L465.4,633z"/>
	<path fill="#01002A" d="M502.9,645.3c-2,1.3-4.6,1.9-7.5,1.9c-1.9,0-3.8-0.3-5.4-1.1c-1.6-0.7-3-1.7-4.1-3
		c-1.1-1.3-1.9-2.8-2.6-4.4c-0.5-1.7-0.9-3.6-0.9-5.6c0-2,0.3-4,0.9-5.8c0.6-1.8,1.5-3.4,2.8-4.8c1.2-1.3,2.7-2.5,4.4-3.2
		c1.7-0.7,3.8-1.2,6-1.2c2.4,0,4.4,0.4,6.2,1.3v3.7c-2-1.3-4.2-1.9-6.6-1.9c-1.6,0-3.1,0.3-4.4,0.9c-1.3,0.6-2.4,1.5-3.2,2.6
		c-0.9,1.1-1.5,2.4-1.9,3.8c-0.4,1.4-0.7,3-0.7,4.6c0,1.5,0.2,2.9,0.5,4.2s1,2.6,1.7,3.6s1.8,1.8,3,2.5c1.2,0.6,2.7,0.9,4.3,0.9
		c2.6,0,5-0.8,7.1-2.4v3.5h0.3V645.3z"/>
	<path fill="#01002A" d="M511.3,611.7c-0.6,0-1.3-0.2-1.7-0.7c-0.5-0.5-0.7-1.1-0.7-1.7s0.2-1.3,0.7-1.7c0.5-0.5,1.1-0.7,1.7-0.7
		c0.3,0,0.6,0.1,1,0.1c0.3,0.1,0.5,0.3,0.8,0.5c0.2,0.2,0.4,0.5,0.5,0.8c0.1,0.3,0.2,0.6,0.2,1c0,0.3-0.1,0.6-0.2,1
		c-0.1,0.3-0.3,0.5-0.5,0.8c-0.2,0.2-0.5,0.4-0.8,0.5C512,611.6,511.6,611.7,511.3,611.7z M509.6,646.5v-27.7h3.4v27.7H509.6z"/>
	<path fill="#01002A" d="M523.7,633.2c0,1.7,0.2,3.2,0.7,4.6c0.4,1.3,1.1,2.5,1.9,3.4c0.9,0.9,1.8,1.6,3,2.2c1.2,0.5,2.5,0.8,4,0.8
		c3.1,0,6-1.1,8.9-3.2v3.4c-2.7,1.9-5.8,2.8-9.7,2.8c-1.8,0-3.6-0.3-5.1-1c-1.5-0.6-2.8-1.6-3.9-2.8c-1.1-1.3-1.9-2.8-2.5-4.6
		c-0.5-1.8-0.9-3.9-0.9-6.2c0-2,0.3-4,0.9-5.8s1.5-3.3,2.6-4.6s2.5-2.4,4-3c1.5-0.7,3.2-1.1,5-1.1s3.4,0.3,4.7,0.9
		c1.3,0.6,2.6,1.5,3.4,2.7c0.9,1.1,1.6,2.6,2.1,4.2c0.5,1.7,0.7,3.6,0.7,5.6v1.7L523.7,633.2L523.7,633.2z M540.1,630.2
		c-0.1-2.9-0.8-5.2-2-6.7c-1.3-1.6-3.2-2.4-5.5-2.4c-1.2,0-2.3,0.2-3.2,0.6c-1,0.4-1.9,1-2.6,1.8c-0.8,0.8-1.4,1.7-1.9,2.9
		s-0.9,2.4-1.1,3.8H540.1L540.1,630.2L540.1,630.2z"/>
	<path fill="#01002A" d="M569.2,646.5v-16c0-6.2-2.3-9.4-6.8-9.4c-1.2,0-2.4,0.2-3.4,0.7c-1.1,0.5-1.9,1.1-2.7,1.9
		c-0.8,0.9-1.3,1.8-1.7,3c-0.4,1.2-0.6,2.4-0.6,3.8v15.8h-3.4v-27.7h3.4v4.8h0.1c2-3.7,5.2-5.5,9.3-5.5c3,0,5.4,1,6.9,3
		c1.5,1.9,2.4,4.8,2.4,8.5v16.9h-3.6V646.5z"/>
	<path fill="#01002A" d="M600.5,646.5v-4.8h-0.1c-0.9,1.7-2.3,3.1-4,4.1c-1.7,1-3.7,1.5-5.8,1.5c-1.7,0-3.3-0.3-4.7-1
		c-1.4-0.6-2.6-1.5-3.7-2.8c-1.1-1.2-1.7-2.7-2.4-4.4c-0.5-1.7-0.9-3.7-0.9-5.8c0-2.3,0.3-4.3,0.9-6.1c0.7-1.8,1.5-3.4,2.6-4.8
		c1.1-1.3,2.5-2.4,4-3.1c1.5-0.7,3.3-1.1,5.2-1.1c4,0,6.8,1.6,8.6,4.8h0.1v-17.5h3.4v41H600.5L600.5,646.5z M600.5,629.8
		c0-1.2-0.2-2.4-0.6-3.4c-0.4-1.1-1-1.9-1.7-2.8s-1.6-1.4-2.7-1.8c-1.1-0.4-2.2-0.7-3.4-0.7c-1.3,0-2.6,0.3-3.8,0.9
		c-1.1,0.5-2.1,1.3-3,2.4s-1.5,2.3-1.9,3.8c-0.5,1.5-0.7,3.1-0.7,5c0,1.7,0.2,3.3,0.6,4.7c0.4,1.4,1,2.6,1.7,3.6
		c0.7,1,1.7,1.7,2.8,2.2c1.1,0.5,2.3,0.8,3.6,0.8c1.4,0,2.7-0.3,3.8-0.8c1.1-0.5,2.1-1.2,2.9-2.1s1.4-1.9,1.8-3.1
		c0.4-1.2,0.6-2.5,0.6-3.8V630l0,0V629.8z"/>
	<path fill="#01002A" d="M624.2,647.1c-2,0-3.9-0.3-5.6-1.1c-1.6-0.7-3-1.6-4.2-2.9c-1.1-1.3-2-2.8-2.7-4.5
		c-0.7-1.7-0.9-3.7-0.9-5.8c0-2.4,0.3-4.4,1-6.2c0.6-1.8,1.5-3.4,2.8-4.6c1.2-1.3,2.7-2.3,4.4-2.9c1.7-0.6,3.6-1,5.7-1
		c1.9,0,3.8,0.3,5.4,1c1.6,0.6,3,1.6,4.1,2.9c1.1,1.3,1.9,2.8,2.6,4.6c0.5,1.7,0.9,3.8,0.9,6c0,2.2-0.3,4.2-0.9,5.9
		c-0.6,1.7-1.5,3.3-2.7,4.6c-1.1,1.3-2.6,2.3-4.2,3C628.2,646.7,626.3,647.1,624.2,647.1z M624.5,621.1c-1.5,0-2.9,0.3-4.1,0.8
		c-1.2,0.5-2.3,1.3-3.2,2.3c-0.9,1-1.5,2.3-2,3.7c-0.5,1.4-0.7,3.1-0.7,5c0,1.7,0.2,3.3,0.7,4.6c0.5,1.4,1.1,2.6,1.9,3.6
		c0.9,1,1.9,1.7,3.1,2.3c1.2,0.5,2.6,0.8,4.1,0.8c1.5,0,2.9-0.3,4.1-0.8c1.2-0.5,2.2-1.3,3-2.3c0.9-1,1.5-2.2,1.9-3.6
		c0.4-1.4,0.6-3,0.6-4.8c0-3.8-0.9-6.6-2.5-8.6C630,622.1,627.5,621.1,624.5,621.1z"/>
	<path fill="#01002A" d="M646.3,647c-0.7,0-1.3-0.3-1.8-0.8c-0.5-0.5-0.8-1.1-0.8-1.8c0-0.7,0.3-1.3,0.8-1.9
		c0.5-0.5,1.1-0.8,1.8-0.8c0.3,0,0.7,0.1,1,0.2c0.3,0.1,0.5,0.3,0.9,0.5c0.3,0.3,0.4,0.5,0.5,0.9c0.1,0.3,0.2,0.7,0.2,1.1
		c0,0.3-0.1,0.7-0.2,1c-0.1,0.3-0.3,0.5-0.5,0.9c-0.2,0.2-0.5,0.4-0.9,0.5C646.9,646.9,646.6,647,646.3,647z"/>
</g>
<linearGradient id="SVGID_1_" gradientUnits="userSpaceOnUse" x1="36.8545" y1="576.2844" x2="148.2791" y2="576.2844">
	<stop  offset="0" style="stop-color:#FFFFFF;stop-opacity:0"/>
	<stop  offset="1" style="stop-color:#7FDBFF"/>
</linearGradient>
<path fill="url(#SVGID_1_)" d="M107.6,516.3c-12-3-24.1-1.4-34.9,3.7c-21.3,11.2-35.8,33.5-35.8,59.2c0,11.5,2.9,22.3,8,31.7
	c0.1,0.2,0.2,0.3,0.3,0.5c0,0.1,0.1,0.2,0.1,0.2c7.1,12,18.3,21.1,32.2,24.6c29.7,7.5,60.4-13.3,68.8-46.5S137.3,523.8,107.6,516.3z
	 M145.7,589.4c-5.7,22.7-29,36.3-52.1,30.5c-23.1-5.8-37.2-28.9-31.5-51.5c5.7-22.7,29-36.3,52.1-30.5S151.4,566.7,145.7,589.4z"/>
<linearGradient id="SVGID_2_" gradientUnits="userSpaceOnUse" x1="59.8897" y1="581.3452" x2="170.6764" y2="581.3452">
	<stop  offset="0" style="stop-color:#5558FF"/>
	<stop  offset="1" style="stop-color:#FFFFFF;stop-opacity:0"/>
</linearGradient>
<path fill="url(#SVGID_2_)" d="M154.5,535.5c-6.5-6.5-14.6-11.4-23.9-13.7c-29.7-7.4-60.4,13.2-68.7,46.1
	c-8.3,32.9,9.1,65.6,38.7,73c16.2,4.1,32.8-0.3,45.8-10.4c14.8-12.3,24.3-30.8,24.3-51.5C170.7,562.4,164.6,547.2,154.5,535.5z
	 M145.7,589.5c-5.7,22.7-29,36.3-52.1,30.5c-23.1-5.8-37.2-28.9-31.5-51.5c5.7-22.7,29-36.3,52.1-30.5S151.4,566.8,145.7,589.5z"/>
</svg>
