<?xml version="1.0" encoding="UTF-8" standalone="no"?>
<!-- Created with Inkscape (http://www.inkscape.org/) -->

<svg
   xmlns:dc="http://purl.org/dc/elements/1.1/"
   xmlns:cc="http://creativecommons.org/ns#"
   xmlns:rdf="http://www.w3.org/1999/02/22-rdf-syntax-ns#"
   xmlns:svg="http://www.w3.org/2000/svg"
   xmlns="http://www.w3.org/2000/svg"
   xmlns:sodipodi="http://sodipodi.sourceforge.net/DTD/sodipodi-0.dtd"
   xmlns:inkscape="http://www.inkscape.org/namespaces/inkscape"
   width="48.333702mm"
   height="16.233164mm"
   viewBox="0 0 171.26115 57.519084"
   id="svg2"
   version="1.1"
   inkscape:version="0.91 r13725"
   sodipodi:docname="social-system.svg">
  <defs
     id="defs4" />
  <sodipodi:namedview
     id="base"
     pagecolor="#ffffff"
     bordercolor="#666666"
     borderopacity="1.0"
     inkscape:pageopacity="0.0"
     inkscape:pageshadow="2"
     inkscape:zoom="3.959798"
     inkscape:cx="-39.68878"
     inkscape:cy="59.499431"
     inkscape:document-units="px"
     inkscape:current-layer="layer1"
     showgrid="false"
     inkscape:window-width="1280"
     inkscape:window-height="971"
     inkscape:window-x="-8"
     inkscape:window-y="-8"
     inkscape:window-maximized="1"
     fit-margin-top="0"
     fit-margin-left="0"
     fit-margin-right="0"
     fit-margin-bottom="0" />
  <metadata
     id="metadata7">
    <rdf:RDF>
      <cc:Work
         rdf:about="">
        <dc:format>image/svg+xml</dc:format>
        <dc:type
           rdf:resource="http://purl.org/dc/dcmitype/StillImage" />
        <dc:title></dc:title>
      </cc:Work>
    </rdf:RDF>
  </metadata>
  <g
     inkscape:label="Capa 1"
     inkscape:groupmode="layer"
     id="layer1"
     transform="translate(60.714287,-453.79077)">
    <text
       xml:space="preserve"
       style="font-style:normal;font-weight:normal;font-size:43.83781052px;line-height:125%;font-family:sans-serif;letter-spacing:0px;word-spacing:0px;fill:#000000;fill-opacity:1;stroke:none;stroke-width:1px;stroke-linecap:butt;stroke-linejoin:miter;stroke-opacity:1"
       x="0.11972401"
       y="486.763"
       id="text3336"
       sodipodi:linespacing="125%"><tspan
         sodipodi:role="line"
         id="tspan3338"
         x="0.11972401"
         y="486.763"
         style="font-style:normal;font-variant:normal;font-weight:normal;font-stretch:normal;font-family:Kelvetica;-inkscape-font-specification:Kelvetica">social</tspan><tspan
         sodipodi:role="line"
         x="0.11972401"
         y="541.56024"
         id="tspan3340" /></text>
    <text
       xml:space="preserve"
       style="font-style:normal;font-weight:normal;font-size:30.30827332px;line-height:125%;font-family:sans-serif;letter-spacing:0px;word-spacing:0px;fill:#000000;fill-opacity:1;stroke:none;stroke-width:1px;stroke-linecap:butt;stroke-linejoin:miter;stroke-opacity:1"
       x="0.26500651"
       y="504.50919"
       id="text3342"
       sodipodi:linespacing="125%"><tspan
         sodipodi:role="line"
         id="tspan3344"
         x="0.26500651"
         y="504.50919"
         style="font-style:normal;font-variant:normal;font-weight:normal;font-stretch:normal;font-family:Kelvetica;-inkscape-font-specification:Kelvetica">systems</tspan></text>
    <rect
       style="opacity:1;fill:#87decd;fill-opacity:1;stroke:none;stroke-opacity:1"
       id="rect3350"
       width="57.5"
       height="57.5"
       x="-60.714287"
       y="453.79077"
       ry="9.2964077" />
    <g
       transform="matrix(0.86065455,-0.50312022,0.49689913,0.87142978,0,0)"
       style="font-style:normal;font-variant:normal;font-weight:normal;font-stretch:normal;font-size:112.03193665px;line-height:125%;font-family:Kelvetica;-inkscape-font-specification:Kelvetica;letter-spacing:0px;word-spacing:0px;fill:#ffffff;fill-opacity:1;stroke:none;stroke-width:1px;stroke-linecap:butt;stroke-linejoin:miter;stroke-opacity:1"
       id="text3352">
      <path
         d="m -252.13617,422.79906 q -3.17278,2.24283 -6.29086,3.00867 -3.88392,1.14877 -8.47898,1.20347 -2.29753,0 -2.46164,-0.0547 -7.33021,-0.32822 -12.25349,-2.84456 -4.48565,-2.24283 -7.82254,-6.67378 -0.49233,-0.76584 -1.64109,-2.62575 l -0.0547,-0.10941 q 1.6958,-1.14876 4.97798,-2.51634 4.37625,-1.8052 7.33022,-1.8599 l 0.0547,0.16411 q 3.00867,4.97798 11.10473,5.63441 0.60173,0.0547 1.20347,0.0547 1.64109,0 2.89926,-0.43763 1.20347,-0.38292 2.62575,-1.36757 1.20347,-0.82055 1.7505,-2.18813 0.38292,-0.92995 0.38292,-1.8599 l 0,-0.43763 q -0.27351,-2.46164 -4.04803,-4.26684 -0.76584,-0.32822 -6.07204,-2.13342 -0.27352,-0.0547 -4.86858,-1.47698 -3.6104,-1.09407 -4.81387,-1.6411 -4.97798,-2.02401 -7.33021,-5.85323 -1.96931,-3.17278 -1.96931,-7.27551 0,-7.22081 5.08738,-11.70646 3.11808,-2.73516 7.38492,-3.99333 3.39159,-0.98465 8.26017,-0.98465 0.87525,0 1.7505,0.0547 11.48765,0.38292 17.61439,10.33888 0.27352,0.43763 0.32822,0.54704 -1.58639,1.03935 -4.48565,2.13342 -3.4463,1.25817 -5.90794,1.25817 l -0.21881,0 q 0,-0.0547 -0.0547,-0.21881 -0.71114,-1.6411 -3.17278,-2.73516 -2.24283,-0.98466 -5.3062,-1.20347 -0.82055,-0.0547 -1.58639,-0.0547 -3.5557,0 -5.3609,1.09406 -1.20347,0.71114 -1.80521,1.8052 -0.54703,1.09407 -0.54703,2.24283 0.10941,2.95397 4.37625,5.08739 1.8052,0.87525 6.56437,2.29753 5.41561,1.58639 10.12007,3.99332 5.74383,3.00867 7.87725,8.15076 1.14876,2.68046 1.14876,5.68913 0,7.27551 -6.29085,11.76116 z"
         id="path3357"
         inkscape:connector-curvature="0" />
    </g>
  </g>
</svg>
