<svg xmlns="http://www.w3.org/2000/svg" viewBox="-14 -14 128 128"><path fill="#EFC75E" d="M20 35l30-15 30 15v2L50 52 20 37v-2z"/><path fill="#E7BF55" d="M20 35l30 15 30-15v30L49.9 80 20 65V35z"/><path fill="#DBB551" d="M50 79.9V50L20 35v30l29.9 15 .1-.1z"/><path fill="#F1D999" d="M62 44v8.8l2.7.2 1.7-2 1.6.3V41l-6 3z"/><path fill="#F7E3AF" d="M32 29l30.5 15.3L68 41 38 26l-6 3z"/><path fill="#F2F2F2" d="M44 63.1l-10-5c-.6-.3-1 .1-1 .8v6.3c0 .7.4 1.5 1 1.8l10 5c.6.3 1-.1 1-.8v-6.3c0-.7-.5-1.5-1-1.8zm-2.5 5l-6-3c-.3-.1-.5-.5-.5-.9s.2-.5.5-.4l6 3c.3.1.5.5.5.9s-.2.6-.5.4zm1-2l-7-3.5c-.3-.1-.5-.5-.5-.9s.2-.5.5-.4l7 3.5c.3.1.5.5.5.9s-.2.6-.5.4z"/></svg>