<svg xmlns="http://www.w3.org/2000/svg" viewBox="0 0 127.4 127.3"><path fill="#F07F1D" d="M44.7 75.6V57.9c0-3.3 1.7-6.3 4.5-7.9 1.4-.9 3.1-1.3 4.8-1.3h19.4c1.7 0 3.3.5 4.8 1.3l.7.4c2.8 1.7 4.5 4.7 4.5 8v17.4"/><path fill="#FBC02E" d="M63.6 66.6c-8.1.1-8.7.2-10.4-8.1-.5-2.5-1.4-5-2.1-7.5-.5-1.6-.3-2.7 1.6-3.1 2.4-.4 4.5-1.2 4.9-4.1.1-.9 1.2-1.2 1.9-1.2 2.6-.1 5.2-.1 7.8 0 .7 0 1.8.3 1.9 1.3.4 3 2.7 3.5 5 3.9 2.2.4 2.6 1.5 1.9 3.6-1.1 3.2-1.9 6.5-2.7 9.8-1.1 4.6-2 5.3-6.5 5.3-1.1.1-2.2.1-3.3.1z"/><path fill="#FBC02E" d="M63.7 75.6l34.9 3.2c-.7-1-1-2.4-1.2-3.9-1.4-8.7-5.7-15.7-12.7-21.2-1.6-1.3-2.3-1.3-2.9.9-1.3 4.7-2.7 9.4-4.2 14.1-1.3 4.3-4.4 6.7-8.8 6.9-2.7.1-5.4 0-8.2 0-6.9 0-9.6-2.1-11.5-8.6-1.4-4.8-2.5-9.8-4.5-14.5-8.5 5.7-13.6 13.8-14.8 23.9-.1.9-.2 1.7-.6 2.3l34.5-3.1z"/><path fill="#FBC02E" d="M101.1 80l-37.2-2.8h-.2L26.3 80c-.8.1-1.3.7-1.3 1.4v1.9c0 .8.6 1.4 1.4 1.4h74.5c.8 0 1.4-.6 1.4-1.4v-1.9c.1-.7-.5-1.3-1.2-1.4z"/><path fill="none" d="M25 83.3v1.4h1.4c-.8.1-1.4-.6-1.4-1.4z"/><path fill="#F7A827" d="M59.6 42.6c-.8 0-1.8.4-1.9 1.2-.4 2.9-2.5 3.6-4.9 4.1-1.9.3-2.1 1.5-1.6 3.1.7 2.5 1.6 5 2.1 7.5 1.6 8.3 2.3 8.3 10.4 8.1h.1V42.5c-1.5 0-2.9 0-4.2.1z"/><path fill="#F7A827" d="M49.2 67c-1.4-4.8-2.5-9.8-4.5-14.5C36 58.2 31 66.3 29.8 76.4c-.1.9-.2 1.7-.6 2.3l34.5-3.1h-3c-6.9 0-9.6-2.1-11.5-8.6zm14.4 10.2L26.3 80c-.7.1-1.3.7-1.3 1.4v1.9c0 .8.7 1.4 1.4 1.4h37.2v-7.6c.1.1 0 .1 0 .1z"/></svg>