<svg xmlns="http://www.w3.org/2000/svg" xmlns:xlink="http://www.w3.org/1999/xlink" width="128" height="128" viewBox="0 0 128 128"><g transform="translate(16.451 -1458.278) scale(1.48585)"><use xlink:href="#a" transform="translate(0 19.06)" width="100%" height="100%"/><use height="100%" width="100%" transform="translate(0 19.06)" xlink:href="#a"/><path id="a" d="M32.001 999.021L4.35 1014.986 32 1030.952l27.653-15.966z" fill="#c83737" fill-rule="evenodd"/><path d="M4.349 1014.986v19.06L32 1050.013v-19.06z" fill="#a02c2c" fill-rule="evenodd"/><path d="M59.654 1014.986v19.06L32 1050.013v-19.06z" fill="#501616" fill-rule="evenodd"/><g transform="translate(-.295 -2.47)"><path d="M16.76 1013.817a4.943 3.046 0 0 0-3.451.826h-1.57v2.47h.025a4.943 3.046 0 0 0 1.43 1.903 4.943 3.046 0 0 0 6.988 0 4.943 3.046 0 0 0 1.425-1.904h.016v-.148a4.943 3.046 0 0 0 0-.159v-2.162h-1.555a4.943 3.046 0 0 0-3.308-.826z" fill="#782121"/><ellipse cx="-957.167" cy="976.77" rx="4.105" ry="4.105" transform="matrix(.8513 -.52469 .8513 .52469 0 0)" fill="#a02c2c" fill-opacity=".713"/><ellipse cx="-1002.032" cy="1021.321" rx="3.859" ry="3.859" transform="matrix(.86516 -.5015 .86516 .5015 0 0)" fill="#c83737" fill-opacity=".713"/></g><g transform="translate(1.834 -.155)"><path d="M30.658 1020.874a4.943 3.046 0 0 0-3.451.826h-1.57v2.469h.025a4.943 3.046 0 0 0 1.43 1.904 4.943 3.046 0 0 0 6.988 0 4.943 3.046 0 0 0 1.426-1.904h.015v-.149a4.943 3.046 0 0 0 0-.158v-2.162h-1.554a4.943 3.046 0 0 0-3.309-.826z" fill="#782121"/><ellipse cx="-955.729" cy="991.657" rx="4.105" ry="4.105" transform="matrix(.8513 -.52469 .8513 .52469 0 0)" fill="#a02c2c" fill-opacity=".713"/><ellipse cx="-1001.035" cy="1036.388" rx="3.859" ry="3.859" transform="matrix(.86516 -.5015 .86516 .5015 0 0)" fill="#c83737" fill-opacity=".713"/></g><g transform="translate(15.25 -11.342)"><path d="M16.76 1013.817a4.943 3.046 0 0 0-3.451.826h-1.57v2.47h.025a4.943 3.046 0 0 0 1.43 1.903 4.943 3.046 0 0 0 6.988 0 4.943 3.046 0 0 0 1.425-1.904h.016v-.148a4.943 3.046 0 0 0 0-.159v-2.162h-1.555a4.943 3.046 0 0 0-3.308-.826z" fill="#782121"/><ellipse cx="-957.167" cy="976.77" rx="4.105" ry="4.105" transform="matrix(.8513 -.52469 .8513 .52469 0 0)" fill="#a02c2c" fill-opacity=".713"/><ellipse cx="-1002.032" cy="1021.321" rx="3.859" ry="3.859" transform="matrix(.86516 -.5015 .86516 .5015 0 0)" fill="#c83737" fill-opacity=".713"/></g><g transform="translate(17.38 -9.027)"><path d="M30.658 1020.874a4.943 3.046 0 0 0-3.451.826h-1.57v2.469h.025a4.943 3.046 0 0 0 1.43 1.904 4.943 3.046 0 0 0 6.988 0 4.943 3.046 0 0 0 1.426-1.904h.015v-.149a4.943 3.046 0 0 0 0-.158v-2.162h-1.554a4.943 3.046 0 0 0-3.309-.826z" fill="#782121"/><ellipse cx="-955.729" cy="991.657" rx="4.105" ry="4.105" transform="matrix(.8513 -.52469 .8513 .52469 0 0)" fill="#a02c2c" fill-opacity=".713"/><ellipse cx="-1001.035" cy="1036.388" rx="3.859" ry="3.859" transform="matrix(.86516 -.5015 .86516 .5015 0 0)" fill="#c83737" fill-opacity=".713"/></g></g><path d="M23.622 49.45l-.71.39-.003.909L64 74.472v-.91l.844-.5z" fill="#942828" fill-rule="evenodd" fill-opacity=".823"/><path d="M104.378 49.45l.71.39.003.909L64 74.472v-.91l-.844-.5z" fill="#942828" fill-opacity=".68" fill-rule="evenodd"/><path d="M64.844 73.063h-1.688v28.332l.844.487.86-.483z" fill="#942828" fill-opacity=".657" fill-rule="evenodd"/></svg>