<svg xmlns="http://www.w3.org/2000/svg" viewBox="13 11.2 39.8 39.8"><g fill="#546E7A" stroke="#FFF" stroke-width="3" stroke-linecap="round" stroke-linejoin="round" stroke-miterlimit="10"><path d="M31.3 24.2L16.2 41.7c-.7.7-.7 1.8 0 2.4l.8.8-2 2c-.6.6-.6 1.5 0 2.1.3.3.7.4 1.1.4s.8-.1 1.1-.4l2-2 .6.6c.7.7 1.8.7 2.4 0l17.7-14.9c-2.1-.5-4-1.5-5.5-3-1.7-1.5-2.7-3.5-3.1-5.5z"/><path d="M50.2 26.3c0-.1.1-.2.1-.3.1-.2.2-.3.2-.5 0-.1.1-.2.1-.2.1-.2.2-.4.2-.6 0 0 0-.1.1-.1 1-3.1.2-6.7-2.3-9.2-1.8-1.8-4.1-2.7-6.5-2.7-.6 0-1.2.1-1.8.2h-.1c-.2 0-.5.1-.7.2-.1 0-.2.1-.3.1-.2.1-.4.1-.6.2-.1.1-.2.1-.4.2-.1.1-.2.1-.4.2-.9.5-1.8 1.1-2.5 1.8l-.2.2c-.1.1-.3.3-.4.5-.1.1-.1.2-.2.2-.1.2-.2.3-.3.5-.1.1-.1.2-.2.3-.1.2-.2.3-.3.5 0 .1-.1.2-.1.2l-.3.6c0 .1-.1.1-.1.2-.1.2-.1.4-.2.6v.2c-.1.2-.1.4-.2.7v.2c0 .2-.1.5-.1.7v.8c0 1.2.2 2.4.7 3.5.1.2.2.5.3.7 0 0 0 .1.1.1.1.2.3.5.4.7v.1c.5.8 1.1 1.5 1.9 2 .2.2.5.4.7.5.1 0 .1.1.2.1l.6.3h.5l.6.3c.1 0 .2.1.3.1.2.1.4.1.6.2.1 0 .2 0 .3.1.2.1.4.1.6.1.1 0 .2 0 .3.1.2 0 .4.1.5.1h2.1c.2 0 .4-.1.6-.1.1 0 .2 0 .3-.1.2 0 .3-.1.5-.1.1 0 .2-.1.3-.1.2-.1.3-.1.5-.2.1 0 .2-.1.3-.1.2-.1.3-.2.5-.2.1 0 .2-.1.3-.1.2-.1.4-.2.5-.3.1 0 .1-.1.2-.1.2-.1.4-.3.6-.5h.1c.8-.7 1.5-1.5 2-2.4 0-.3 0-.3.1-.4z"/></g><circle fill="#F44336" cx="42.2" cy="21.8" r="9.2"/><path d="M31.3 24.2L16.2 41.7c-.7.7-.7 1.8 0 2.4l.8.8-2 2c-.6.6-.6 1.5 0 2.1.3.3.7.4 1.1.4s.8-.1 1.1-.4l2-2 .6.6c.7.7 1.8.7 2.4 0l17.7-14.9c-2.1-.5-4-1.5-5.5-3-1.7-1.5-2.7-3.5-3.1-5.5zm4.3-8.7c-3.4 3.6-3.4 9.3.1 12.8 1.8 1.8 4.1 2.7 6.5 2.7 2.1 0 4.2-.7 5.9-2.1-2.8-.9-5.4-2.5-7.6-4.6-2.5-2.6-4.1-5.6-4.9-8.8zm13.1-.2c-1.8-1.8-4.1-2.7-6.5-2.7-1.4 0-2.8.3-4.1 1 .6 3.2 2 6.2 4.5 8.6 2.2 2.2 4.8 3.6 7.6 4.2 1.9-3.4 1.5-8-1.5-11.1z" fill="#546E7A"/></svg>