<svg xmlns="http://www.w3.org/2000/svg" width="128" height="128" viewBox="-9 -9 128 128"><path fill="#4CAF50" d="M23 69h64v18H23z"/><path fill="#A5D6A7" d="M23 69l8-16h48l8 16z"/><path fill="#43A047" d="M28 67l6-12h42l6 12z"/><circle fill="#C2F8F0" cx="71" cy="61" r="1"/><circle fill="#C2F8F0" cx="39" cy="61" r="1"/><ellipse fill="#C8E6C9" cx="55" cy="61" rx="6" ry="5"/><path fill="#388E3C" d="M55 57.5c.3 0 .5.2.5.4v.1c.5.1 1 .2 1.4.4.2.1.3.2.3.5s-.3.5-.6.5c-.1 0-.2 0-.3-.1-.3-.1-.5-.2-.8-.3v1.2c1.4.3 2 .8 2 1.7 0 .9-.8 1.4-2 1.5v.4c0 .2-.2.4-.5.4s-.5-.2-.5-.4v-.4c-.7-.1-1.3-.3-1.8-.5-.2-.1-.3-.3-.3-.5 0-.3.3-.5.6-.5.1 0 .3 0 .4.1.4.2.8.4 1.2.4v-1.2c-1.4-.3-2-.7-2-1.7 0-.9.8-1.4 2-1.5v-.1c-.1-.2.1-.4.4-.4zm-.5 2.5v-1c-.5.1-.6.2-.6.5 0 .2.1.4.6.5zm.9 1.4v1.1c.4-.1.7-.2.7-.5s-.2-.4-.7-.6z"/><path fill="#C8E6C9" d="M23 71h64v2H23zm0 4h64v2H23zm0 4h64v2H23zm0 4h64v2H23z"/><path fill="#A5D6A7" d="M23 71h21.5l2-2H23zm0 4h17.5l2-2H23zm0 10v2h5.5l2-2zm0-6h13.5l2-2H23zm0 4h9.5l2-2H23z"/><path fill="#C8E6C9" d="M23 69h23.5l2-2H28l6-12h26.5l2-2H31z"/><path fill="#4CAF50" d="M49 61c0-2.8 2.7-5 6-5 1.3 0 2.6.4 3.6 1l2-2H34l-6 12h20.5l2.4-2.4c-1.2-.9-1.9-2.2-1.9-3.6zm-10 1c-.6 0-1-.4-1-1s.4-1 1-1 1 .4 1 1-.4 1-1 1z"/><circle fill="#FFF" cx="39" cy="61" r="1"/><path fill="#FFF" d="M49 61c0 1.4.7 2.7 1.9 3.6l1.7-1.7c-.2-.1-.3-.3-.3-.5 0-.3.3-.5.6-.5.1 0 .3 0 .4.1 0 0 .1 0 .1.1l.9-.9c-1.2-.3-1.8-.7-1.8-1.6 0-.9.8-1.4 2-1.5V58c0-.2.2-.4.5-.4s.5.2.5.4c.5.1 1 .2 1.4.4.1 0 .1.1.2.1l1.6-1.6c-1-.6-2.2-1-3.6-1-3.4.1-6.1 2.3-6.1 5.1z"/><path fill="#FFF" d="M55.4 59.1v1.1l.8-.8c-.3-.2-.5-.3-.8-.3zm-1.5.4c0 .2.1.4.6.6V59c-.4 0-.6.2-.6.5zM23 73h19.5l2-2H23zm0 4h15.5l2-2H23zm0 4h11.5l2-2H23zm0 4h7.5l2-2H23z"/><path fill="#F44336" d="M69.7 28.6l4.2 4.3-8.9 8.8-10-10L33.8 53h8.4L55 40.2l10 10 13.1-13.1 4.3 4.2L87 24z"/></svg>