<svg xmlns="http://www.w3.org/2000/svg" viewBox="-9 -9 128 128"><path fill="#0484AB" d="M87 29v52c0 3.3-2.7 6-6 6H29c-3.3 0-6-2.7-6-6V29c0-3.3 2.7-6 6-6h52c3.3 0 6 2.7 6 6z"/><path fill="#059BBF" d="M87 31.9v49c0 3.3-2.7 6-6 6H29c-3.3 0-6-2.7-6-6V67.2L34.2 60l17 3 15.5-10.3 9-15.9L87 31.9z"/><path fill="#21B2D1" d="M87 40v-2h-7v-4h-2v4h-5v2h5v6h-6v-3h-2v3h-1v2h1v6h-8v8h-6v-2h-2v2h-6v-1h-2v1h-6v-2h-2v2h-6v-1h-2v1h-2.2v2H30v6h-7v2h7v6h-7v2h7v7h2v-7h6v7h2v-7h6v7h2v-7h6v7h2v-7h6v7h2v-7h6v7h2v-7h6v7h2v-7h7v-2h-7v-6h7v-2h-7v-6h7v-2h-7v-6h7v-2h-7v-6h7v-2h-7v-6h7zM64 56h6v6h-6v-6zm6 8v6h-6v-6h6zm-8 0v6h-6v-6h6zm-8 0v6h-6v-6h6zm-8 0v6h-6v-6h6zm-14 0h6v6h-6v-6zm0 14v-6h6v6h-6zm8 0v-6h6v6h-6zm8 0v-6h6v6h-6zm8 0v-6h6v6h-6zm8 0v-6h6v6h-6zm14 0h-6v-6h6v6zm0-8h-6v-6h6v6zm0-8h-6v-6h6v6zm0-8h-6v-6h6v6z"/><path fill="#FFF" d="M87 29.8l-10.7 4.6c-2.7-1.3-5.4 1.6-3.9 4.2L66.5 49c-2.1-.4-3.9 1.6-3.4 3.7l-10.3 6.9c-.5-.4-1.1-.6-1.8-.6-1.1 0-2.1.6-2.6 1.5l-11.5-2c-.7-4.1-6.8-2.8-5.9 1.2l-8 5.2v2.4l9.2-5.9c1.5 1.2 3.5.7 4.4-.9l11.5 2c.2 1.4 1.5 2.5 3 2.5 1.9 0 3.4-1.8 2.9-3.7l10.3-6.9c2.9 2.1 6.4-1.7 4-4.4L74 39.8c2.5.9 4.7-1.6 3.8-3.9l9.2-4v-2.1z"/><path fill="#FFF" d="M59 48l-8 6-8-6V30h16z"/><path fill="#F37A10" d="M51 34.1c.4 0 .8.3.8.8v.2c.8.1 1.5.4 2.2.7.3.2.5.5.5.9 0 .6-.5 1-1 1-.2 0-.4 0-.5-.1-.4-.2-.8-.4-1.3-.5v2.3C54 40 55 41 55 42.7s-1.3 2.8-3.2 3v.8c0 .4-.3.8-.8.8-.4 0-.8-.3-.8-.8v-.8c-1.1-.1-2.1-.5-3-1.1-.3-.2-.5-.5-.5-.9 0-.6.5-1 1-1 .2 0 .4.1.6.2.6.4 1.2.7 1.9.8v-2.4c-2.2-.6-3.3-1.4-3.3-3.2 0-1.7 1.3-2.8 3.2-3v-.2c.1-.4.5-.8.9-.8zm-.7 4.9v-2c-.7.1-1 .5-1 1 0 .4.2.7 1 1zm1.4 2.7v2.1c.7-.1 1.1-.4 1.1-1 0-.5-.2-.8-1.1-1.1z"/></svg>