<svg xmlns="http://www.w3.org/2000/svg" width="128.7" height="128.7" viewBox="-9.3 -9.3 128.7 128.7"><path fill="#E2E4E5" d="M67 68l-2-1H45l-2 1 12 19z"/><path fill="#F8E1C2" d="M70 45c-1 0-1 1.1-1 1.1V45c0-1.1 0-2.1-.1-3.1C64.9 38 55 38 55 38s-9.9 0-13.9 3.9c0 1-.1 2-.1 3.1v8l4 10 5.1 4c.6.6 1.4 1 2.2 1h5.4c.9 0 1.7-.4 2.2-1l5.1-4 3.2-8c2.8-.2 3.8-4.5 3.8-7.8 0-1.1-1-2.2-2-2.2z"/><path fill="#FCF1E2" d="M41 45v1.1s0-1.1-1-1.1-2 1.1-2 2.2c0 3.3 1 7.6 3.8 7.8l3.2 8 5.1 4c.6.6 1.4 1 2.2 1H55V38s-9.9 0-13.9 3.9c-.1 1-.1 2-.1 3.1z"/><path fill="#F79392" d="M50 57h10s0 3-5 3-5-3-5-3z"/><path fill="#3E3E3F" d="M61 47.3c1.2 0 2.2.3 3 .7.1-.6-.2-1.2-.7-1.6-1-.8-2.7-.8-3.7 0-.5.4-.7.8-.8 1.3.6-.2 1.4-.4 2.2-.4zM49 47.3c-1.2 0-2.2.3-3 .7-.1-.6.2-1.2.7-1.6 1-.8 2.7-.8 3.7 0 .5.4.7.8.8 1.3-.6-.2-1.4-.4-2.2-.4z"/><path fill="#F4D0A1" d="M57.7 68h-5.4c-.9 0-1.7-.4-2.2-1L45 63v4.5S45 75 55 75s10-7.5 10-7.5V63l-5.1 4c-.6.6-1.4 1-2.2 1z"/><g fill="#3E3E3F"><path d="M55 38s-.8 0-1.9.1v5.6c3.7 0 6-2.7 7.3-5.2-3-.5-5.4-.5-5.4-.5zM45.9 39.3c-1.9.6-3.7 1.5-4.9 2.7 0 3.5 2.3 5.3 2.3 5.3-.3-3-.3-4.9 2.6-8zM46.9 39.1v4.6c2.9 0 5.1-4.1 5.9-5.6-1.6.1-3.8.4-5.9 1zM66.3 40.2v7c2.5 0 2.6-4.7 2.7-5.3-.7-.6-1.6-1.2-2.7-1.7zM61.9 38.8v4.9c3.4 0 4.3-3.2 4.4-3.5-1.3-.6-2.9-1.1-4.4-1.4z"/></g><path fill="#F8E1C2" d="M50.1 67L45 63v4.5S45 75 55 75v-7h-2.7c-.8 0-1.6-.4-2.2-1z"/><path fill="#FA5655" d="M34.5 53.4V33.8c-.7-.2-1.4-.5-2-.7v20.3c-2.6 1.7-1 6.8-1 9.6h4c0-2.7 1.6-7.8-1-9.6z"/><path fill="#3E3E3F" d="M82 31c0-1-25-8-27-8s-27 7-27 8c0 .6 7.4 3.2 13 5.1V42c4-4 14-4 14-4s10 0 14 4v-5.9c5.6-1.9 13-4.5 13-5.1z"/><path fill="#FFF" d="M67 68.1V68l-2-1-10 5 5.8 5.8z"/><path fill="#DF2C2C" d="M59 87l-2.8-10.2L58 75l-3-3-3 3 1.8 1.8L51 87z"/><path fill="#FA5655" d="M55 87V72l-3 3 1.8 1.8L51 87z"/><path fill="#FFF" d="M43 68.1V68l2-1 10 5-5.8 5.8z"/><path fill="#3E3E3F" d="M23 87l4-11c.6-1.3 1.7-2.4 3-3l13-5 12 19H23zM87 87l-4-11c-.6-1.3-1.7-2.4-3-3l-13-5-12 19h32z"/><path fill="#9E9FA0" d="M55 87L43 68l-9 3 17 16z"/><g><path fill="#9E9FA0" d="M55 87l12-19 9 3-17 16z"/></g></svg>