<svg xmlns="http://www.w3.org/2000/svg" width="128" height="128" viewBox="0 0 128 128"><path fill="#81D4FA" d="M41.7 93h22.5V36H41.7c1.9 8 10 19.3 15.7 25.5 1.6 1.8 1.6 3.7 0 5.5-5.7 6.2-13.9 18-15.7 26zm22.5 0H40c-.9 0-1.3.7-1.3 1.6v1.7c0 .9.4 1.8 1.3 1.8h24.2V93z"/><path fill="#81D4FA" d="M64.2 31H40.3c-.9 0-1.7.7-1.7 1.7v1.7c0 .9.7 1.7 1.7 1.7h23.8V31z"/><path fill="#81D4FA" d="M70.6 61.3C76.3 55.2 84.4 44 86.3 36H64v57h22.3c-1.9-8-10-19.6-15.7-25.8-1.6-1.8-1.6-4.1 0-5.9zM88 93H64v5h24c.9 0 1.7-.8 1.7-1.8v-1.7c0-.8-.8-1.5-1.7-1.5zm0-62H64v5h24c.9 0 1.7-.7 1.7-1.7v-1.7c0-.9-.8-1.6-1.7-1.6z"/><path fill="#EAD57D" d="M64.4 76.3c-.1-.1-.3-.1-.4-.1-1.9 0-12.2 8.5-16.8 16.7h17.1V76.3z"/><path fill="#D6C169" d="M64 92.9h16.7c-4.6-8.1-15-16.6-16.7-16.6v16.6z"/><path fill="#EAD57D" d="M73.2 50H54.8c2.4 4.2 7.9 8.7 8.9 9.2v-.1l.3-.1h-.3v.1c1 0 7-4.6 9.5-9.1z"/><path fill="#D6C169" d="M64 50v9c1.5-.6 6.9-4.8 9.3-9H64z"/></svg>