<svg xmlns="http://www.w3.org/2000/svg" viewBox="-14 -14 128 128"><path fill="#58656A" d="M74 38.3c-.6-.1-1.2.1-1.7.5L58.1 53.3c-1.4 1.4-6.3.4-9.5-.9-1.3-3.2-2.3-8.1-.9-9.5l14.6-14.2c.4-.4.6-1.1.5-1.7-.1-.6-.5-1.1-1.1-1.3-9.1-3.6-19.4-1.5-26.3 5.4-6.1 6.1-8.4 14.6-6.6 22.6-.2 3.9-3.8 8.6-5.7 10.4L8.9 78.4c3.6 5.3 8.3 9.8 13.6 13.3l13.6-13.5c1.9-1.9 7-5.4 10.9-5.8.6 0 1.8.1 2.1.2 7.6 1.1 15.3-1.4 20.8-6.9 6.9-6.9 9-17.2 5.4-26.3-.2-.6-.7-1-1.3-1.1z"/><path fill="#D2D2D1" d="M74 37.3c-.6-.1-1.2.1-1.7.5L58.1 52.3c-1.4 1.4-6.3.4-9.5-.9-1.3-3.2-2.3-8.1-.9-9.5l14.6-14.2c.4-.4.6-1.1.5-1.7-.1-.6-.5-1.1-1.1-1.3-9.1-3.6-19.4-1.5-26.3 5.4-6.1 6.1-8.4 14.6-6.6 22.6-.2 3.9-3.8 8.6-5.7 10.4L8.5 77.8c3.6 5.3 8.1 9.9 13.4 13.5l14.2-14.1c1.9-1.9 7-5.4 10.9-5.8.6 0 1.8.1 2.1.2 7.6 1.1 15.3-1.4 20.8-6.9 6.9-6.9 9-17.2 5.4-26.3-.2-.6-.7-1-1.3-1.1z"/><path fill="#A5A59B" d="M76.9 44.6c.1 1.1.2 2.2.2 3.3-.1-2.8-.6-5.7-1.7-8.4-.2-.6-.7-1-1.3-1.1-.6-.1-1.2.1-1.7.5L58.1 53.3c-1.4 1.4-6.3.4-9.5-.9l-.3-.9-33.8 33.7c2.2 2.3 4.7 4.3 7.4 6.1l14.2-14.1c1.9-1.9 7-5.4 10.9-5.8.6 0 1.8.1 2.1.2 7.6 1.1 15.3-1.4 20.8-6.9 5.4-5.4 7.8-12.8 7-20.1zm-.9-4.2l-.1-.5.1.5zm.8 3.7c0-.3-.1-.6-.1-.9 0 .3.1.6.1.9zm-.3-1.8l-.2-.8.2.8zM35.3 31.2c6.9-6.9 17.2-9 26.3-5.4.5.2.9.7 1.1 1.2.1-.3.1-.6 0-.9-.1-.6-.5-1.1-1.1-1.3-9.1-3.6-19.4-1.5-26.3 5.4-4.8 4.8-7.2 11.2-7.2 17.5.3-6 2.7-12 7.2-16.5zm-12.2 32L8.5 77.8l.4.6 14.2-14.2c1.9-1.9 5.4-6.5 5.7-10.4l-.1-.4c-.5 3.8-3.8 8-5.6 9.8z"/><path fill="#CCD0D2" d="M28.7 67.7L12.9 83.5c1.1 1.2 2.3 2.4 3.5 3.5l15.8-15.8c1-1 1-2.6 0-3.5s-2.5-1-3.5 0z"/><path fill="#B8BCBE" d="M28.7 67.7L12.9 83.5l.5.5 15.3-15.3c1-1 2.6-1 3.5 0 .4.4.6.8.7 1.3.2-.8-.1-1.7-.7-2.3-.9-1-2.5-1-3.5 0z"/></svg>