<svg xmlns="http://www.w3.org/2000/svg" viewBox="36.9 512.2 848.82696 146.9777" width="848.827" height="146.978"><path d="M110.609 512.2c-40.595 0-73.599 32.894-73.599 73.489 0 40.595 32.894 73.489 73.489 73.489 40.595 0 73.489-32.894 73.489-73.49 0-40.594-32.784-73.488-73.38-73.488zm45.985 85.04c-6.27 24.973-31.903 39.935-57.316 33.554-25.414-6.38-40.925-31.794-34.655-56.657 6.271-24.973 31.904-39.934 57.317-33.554 25.413 6.381 40.925 31.684 34.654 56.657z" fill="#3f5fff"/><linearGradient id="a" gradientUnits="userSpaceOnUse" x1="36.855" y1="576.284" x2="148.279" y2="576.284" gradientTransform="translate(-3.695 -51.288) scale(1.10013)"><stop offset="0" stop-color="#fff" stop-opacity="0"/><stop offset="1" stop-color="#7fdbff"/></linearGradient><path d="M114.68 516.71c-13.202-3.3-26.514-1.54-38.395 4.071C52.852 533.103 36.9 557.635 36.9 585.909c0 12.651 3.19 24.533 8.801 34.874.11.22.22.33.33.55 0 .11.11.22.11.22 7.811 13.202 20.133 23.213 35.424 27.063 32.674 8.251 66.448-14.631 75.69-51.156 9.24-36.524-9.902-72.498-42.576-80.75zm41.914 80.42c-6.27 24.973-31.903 39.935-57.316 33.554-25.414-6.38-40.925-31.794-34.655-56.657 6.271-24.973 31.904-39.934 57.317-33.554 25.413 6.381 40.925 31.684 34.654 56.657z" fill="url(#a)"/><linearGradient id="b" gradientUnits="userSpaceOnUse" x1="59.89" y1="581.345" x2="170.676" y2="581.345" gradientTransform="translate(-3.695 -51.288) scale(1.10013)"><stop offset="0" stop-color="#5558ff"/><stop offset="1" stop-color="#fff" stop-opacity="0"/></linearGradient><path d="M166.276 537.833c-7.151-7.15-16.062-12.541-26.294-15.072-32.674-8.14-66.448 14.522-75.579 50.716-9.13 36.195 10.012 72.17 42.575 80.31 17.823 4.51 36.085-.33 50.387-11.441 16.281-13.532 26.733-33.884 26.733-56.657 0-18.262-6.711-34.984-17.822-47.856zm-9.682 59.407c-6.27 24.973-31.903 39.935-57.316 33.554-25.414-6.38-40.925-31.794-34.655-56.657 6.271-24.973 31.904-39.934 57.317-33.554 25.413 6.381 40.925 31.684 34.654 56.657z" fill="url(#b)"/><g style="line-height:125%;-inkscape-font-specification:'Small Fonts'" font-weight="400" font-size="93.301" font-family="Small Fonts" letter-spacing="0" word-spacing="0" fill="#3f5fff"><path d="M234.313 581.118l5.314 2.858q-2.612 5.254-6.035 8.48-3.422 3.227-7.7 4.932-4.278 1.66-9.681 1.66-11.979 0-18.733-8.02-6.755-8.066-6.755-18.206 0-9.54 5.72-17.007 7.249-9.494 19.407-9.494 12.519 0 19.994 9.725 5.314 6.867 5.404 17.145h-44.04q.18 8.757 5.448 14.38 5.269 5.577 13.014 5.577 3.738 0 7.25-1.337 3.558-1.336 6.034-3.549 2.477-2.212 5.359-7.144zm0-13.504q-1.26-5.162-3.693-8.25-2.386-3.088-6.349-4.978-3.963-1.89-8.33-1.89-7.206 0-12.384 4.748-3.783 3.457-5.719 10.37h36.475zm43.364-14.518l-4.052 4.286q-5.044-5.024-9.862-5.024-3.062 0-5.269 2.074-2.161 2.074-2.161 4.84 0 2.443 1.801 4.655 1.801 2.258 7.565 5.3 7.025 3.733 9.547 7.19 2.476 3.503 2.476 7.882 0 6.176-4.232 10.462-4.233 4.286-10.583 4.286-4.232 0-8.105-1.89-3.828-1.89-6.35-5.208l3.963-4.608q4.819 5.576 10.222 5.576 3.783 0 6.44-2.488 2.656-2.49 2.656-5.854 0-2.765-1.756-4.931-1.756-2.12-7.925-5.347-6.62-3.503-9.006-6.913-2.387-3.411-2.387-7.79 0-5.715 3.783-9.494 3.827-3.78 9.636-3.78 6.755 0 13.6 6.776zm12.203-23.137h13.195q11.348 0 15.31 1.014 5.674 1.428 9.277 5.9 3.602 4.424 3.602 11.153 0 6.775-3.512 11.2-3.513 4.378-9.682 5.9-4.503 1.105-16.841 1.105H296.5v31.526h-6.62v-67.798zm6.62 6.59v23.045l11.213.139q6.8 0 9.952-1.245 3.152-1.29 4.953-4.102 1.801-2.857 1.801-6.36 0-3.41-1.8-6.222-1.802-2.858-4.774-4.056-2.927-1.198-9.637-1.198H296.5zm44.58 11.062h6.44v7.328q2.882-4.332 6.08-6.452 3.196-2.166 6.664-2.166 2.612 0 5.584 1.705l-3.288 5.439q-1.981-.876-3.332-.876-3.152 0-6.08 2.673-2.926 2.627-4.457 8.204-1.17 4.286-1.17 17.33v16.96h-6.44v-50.145zm78.94 0v50.146h-6.215v-8.619q-3.962 4.932-8.916 7.42-4.908 2.49-10.762 2.49-10.402 0-17.787-7.698-7.34-7.743-7.34-18.804 0-10.831 7.43-18.528 7.43-7.697 17.877-7.697 6.034 0 10.897 2.627 4.909 2.627 8.601 7.881v-9.218h6.214zm-25.218 4.932q-5.268 0-9.726 2.673-4.458 2.627-7.115 7.42-2.612 4.794-2.612 10.14 0 5.3 2.657 10.14 2.657 4.84 7.115 7.559 4.503 2.673 9.636 2.673 5.179 0 9.817-2.673 4.638-2.674 7.115-7.236 2.522-4.563 2.522-10.279 0-8.71-5.63-14.564-5.583-5.853-13.779-5.853zm87 5.484l-4.999 3.18q-6.484-8.803-17.697-8.803-8.961 0-14.905 5.9-5.899 5.9-5.899 14.334 0 5.485 2.702 10.324 2.747 4.84 7.475 7.513 4.773 2.673 10.672 2.673 10.808 0 17.652-8.803l4.999 3.364q-3.513 5.393-9.457 8.389-5.899 2.95-13.464 2.95-11.618 0-19.273-7.56-7.655-7.558-7.655-18.39 0-7.281 3.557-13.504 3.603-6.268 9.862-9.77 6.259-3.503 14.004-3.503 4.864 0 9.367 1.52 4.548 1.522 7.7 3.964 3.152 2.443 5.359 6.222zm17.562-29.037h6.349v18.621h9.997v5.53h-9.997v44.616h-6.35v-44.615h-8.6v-5.53h8.6V528.99zm28.234-2.027q2.161 0 3.692 1.567 1.531 1.567 1.531 3.78 0 2.166-1.53 3.733-1.532 1.567-3.693 1.567-2.117 0-3.648-1.567-1.53-1.567-1.53-3.734 0-2.212 1.53-3.779 1.531-1.567 3.648-1.567zm-3.152 20.648h6.349v50.146h-6.35V547.61zm67.231 10.416l-4.999 3.18q-6.484-8.803-17.697-8.803-8.961 0-14.905 5.9-5.9 5.9-5.9 14.334 0 5.485 2.703 10.324 2.747 4.84 7.475 7.513 4.773 2.673 10.672 2.673 10.807 0 17.652-8.803l4.999 3.364q-3.513 5.393-9.457 8.389-5.899 2.95-13.464 2.95-11.618 0-19.273-7.56-7.655-7.558-7.655-18.39 0-7.281 3.557-13.504 3.602-6.268 9.862-9.77 6.259-3.503 14.004-3.503 4.864 0 9.367 1.52 4.548 1.522 7.7 3.964 3.152 2.443 5.359 6.222zm60.881-10.416v50.146h-6.214v-8.619q-3.963 4.932-8.916 7.42-4.909 2.49-10.763 2.49-10.402 0-17.787-7.698-7.34-7.743-7.34-18.804 0-10.831 7.43-18.528 7.43-7.697 17.877-7.697 6.035 0 10.898 2.627 4.908 2.627 8.6 7.881v-9.218h6.215zm-25.217 4.932q-5.269 0-9.727 2.673-4.458 2.627-7.115 7.42-2.611 4.794-2.611 10.14 0 5.3 2.656 10.14 2.657 4.84 7.115 7.559 4.503 2.673 9.637 2.673 5.178 0 9.816-2.673 4.639-2.674 7.115-7.236 2.522-4.563 2.522-10.279 0-8.71-5.629-14.564-5.584-5.853-13.78-5.853z" fill="#000"/><path d="M673.722 587.617q2.297 0 3.918 1.66 1.621 1.659 1.621 4.055 0 2.35-1.62 4.056-1.622 1.66-3.919 1.66-2.296 0-3.917-1.66-1.621-1.705-1.621-4.056 0-2.396 1.62-4.056 1.622-1.659 3.918-1.659z"/><path d="M740.098 558.027l-4.999 3.18q-6.484-8.803-17.697-8.803-8.96 0-14.905 5.9-5.899 5.9-5.899 14.334 0 5.485 2.702 10.324 2.747 4.84 7.475 7.513 4.773 2.673 10.672 2.673 10.808 0 17.652-8.803l4.999 3.364q-3.513 5.393-9.457 8.389-5.899 2.95-13.464 2.95-11.618 0-19.273-7.56-7.655-7.558-7.655-18.39 0-7.281 3.557-13.504 3.603-6.268 9.862-9.77 6.26-3.503 14.004-3.503 4.864 0 9.367 1.52 4.548 1.522 7.7 3.964 3.152 2.443 5.359 6.222zm35.259-11.707q11.302 0 18.732 8.389 6.755 7.65 6.755 18.113 0 10.509-7.16 18.39-7.115 7.835-18.327 7.835-11.258 0-18.418-7.835-7.115-7.881-7.115-18.39 0-10.416 6.755-18.067 7.43-8.434 18.778-8.434zm0 6.315q-7.836 0-13.465 5.945-5.628 5.946-5.628 14.38 0 5.44 2.566 10.14 2.567 4.701 6.935 7.282 4.368 2.535 9.592 2.535 5.223 0 9.591-2.535 4.368-2.58 6.935-7.282 2.567-4.7 2.567-10.14 0-8.434-5.674-14.38-5.629-5.945-13.42-5.945zm37.105-5.024h6.26v8.665q3.287-4.793 6.754-7.006 4.773-2.95 10.042-2.95 3.557 0 6.754 1.43 3.198 1.428 5.224 3.825 2.026 2.35 3.512 6.775 3.152-5.9 7.88-8.941 4.729-3.088 10.178-3.088 5.088 0 8.96 2.627 3.918 2.627 5.81 7.328 1.89 4.701 1.89 14.103v27.378h-6.438v-27.378q0-8.065-1.126-11.061-1.126-3.042-3.873-4.886-2.702-1.843-6.484-1.843-4.593 0-8.421 2.765-3.783 2.766-5.539 7.375-1.756 4.609-1.756 15.394v19.634h-6.26v-25.672q0-9.08-1.125-12.306-1.08-3.273-3.828-5.208-2.746-1.982-6.53-1.982-4.367 0-8.195 2.72-3.782 2.672-5.628 7.235-1.802 4.563-1.802 13.965v21.248h-6.259V547.61z" style="-inkscape-font-specification:'Century Gothic'" font-family="Century Gothic"/></g><path d="M194.987 617.12h2.669v3.93q1.593-2.24 3.667-3.36 2.074-1.12 4.628-1.12 4.454 0 7.622 3.281 3.169 3.282 3.169 7.9 0 4.717-3.15 8.019-3.13 3.282-7.565 3.282-2.496 0-4.589-1.062-2.092-1.06-3.782-3.164v11.497h-2.67v-29.204zm10.752 2.102q-3.494 0-5.894 2.496-2.381 2.496-2.381 6.21 0 2.437 1.056 4.383 1.075 1.945 3.053 3.085 1.997 1.14 4.205 1.14 2.17 0 4.07-1.14 1.92-1.16 3.053-3.223 1.133-2.063 1.133-4.323 0-2.28-1.133-4.324-1.113-2.044-3.014-3.164-1.901-1.14-4.148-1.14zm25.903-2.652q4.819 0 7.987 3.576 2.88 3.262 2.88 7.723 0 4.481-3.053 7.842-3.033 3.34-7.814 3.34-4.8 0-7.854-3.34-3.033-3.36-3.033-7.842 0-4.441 2.88-7.703 3.168-3.597 8.007-3.597zm0 2.691q-3.341 0-5.742 2.536-2.4 2.535-2.4 6.131 0 2.32 1.095 4.324 1.094 2.004 2.957 3.105 1.862 1.08 4.09 1.08 2.227 0 4.09-1.08 1.862-1.1 2.956-3.105 1.095-2.005 1.095-4.324 0-3.596-2.42-6.131-2.4-2.536-5.721-2.536zm14.823-2.141h2.745v3.124q1.23-1.847 2.593-2.751 1.363-.924 2.841-.924 1.114 0 2.381.727l-1.401 2.32q-.845-.374-1.421-.374-1.344 0-2.592 1.14-1.249 1.12-1.901 3.498-.5 1.828-.5 7.39v7.231h-2.745V617.12zm15.188-7.94h2.707v7.94h4.263v2.358h-4.263V638.5h-2.707v-19.023h-3.668v-2.359h3.668v-7.94zm31.912 7.94v21.38h-2.65v-3.675q-1.69 2.103-3.802 3.164-2.093 1.062-4.589 1.062-4.435 0-7.584-3.282-3.13-3.302-3.13-8.019 0-4.618 3.168-7.9t7.623-3.282q2.573 0 4.646 1.12 2.093 1.12 3.668 3.36v-3.93h2.65zm-10.753 2.102q-2.246 0-4.147 1.14-1.901 1.12-3.034 3.164-1.114 2.044-1.114 4.324 0 2.26 1.133 4.323 1.133 2.064 3.034 3.223 1.92 1.14 4.109 1.14 2.208 0 4.186-1.14 1.977-1.14 3.033-3.085 1.076-1.946 1.076-4.383 0-3.714-2.4-6.21-2.381-2.496-5.876-2.496zm16.417-10.357h2.688v29.636h-2.688v-29.636zm40.072 0v29.636h-2.65v-3.675q-1.69 2.103-3.801 3.164-2.093 1.062-4.59 1.062-4.435 0-7.584-3.282-3.13-3.302-3.13-8.019 0-4.618 3.169-7.9 3.168-3.282 7.623-3.282 2.572 0 4.646 1.12 2.093 1.12 3.668 3.36v-12.184h2.65zm-10.752 10.357q-2.247 0-4.148 1.14-1.9 1.12-3.033 3.164-1.114 2.044-1.114 4.324 0 2.26 1.133 4.323 1.133 2.064 3.034 3.223 1.92 1.14 4.109 1.14 2.208 0 4.185-1.14 1.978-1.14 3.034-3.085 1.075-1.946 1.075-4.383 0-3.714-2.4-6.21-2.38-2.496-5.875-2.496zm34.446 12.185l2.266 1.218q-1.114 2.24-2.573 3.616-1.46 1.376-3.283 2.103-1.824.708-4.129.708-5.107 0-7.987-3.42-2.88-3.44-2.88-7.763 0-4.068 2.438-7.251 3.092-4.049 8.276-4.049 5.338 0 8.525 4.147 2.266 2.928 2.304 7.31h-18.778q.076 3.735 2.323 6.132 2.247 2.378 5.55 2.378 1.593 0 3.09-.57 1.517-.57 2.573-1.513t2.285-3.046zm0-5.758q-.537-2.202-1.574-3.518-1.018-1.317-2.708-2.123-1.69-.805-3.552-.805-3.072 0-5.28 2.024-1.613 1.474-2.439 4.422h15.553zm17.876-8.529h2.746v3.124q1.229-1.847 2.592-2.751 1.364-.924 2.842-.924 1.114 0 2.38.727l-1.4 2.32q-.846-.374-1.422-.374-1.344 0-2.592 1.14-1.248 1.12-1.9 3.498-.5 1.828-.5 7.39v7.231h-2.746V617.12zm30.434 14.287l2.266 1.218q-1.114 2.24-2.573 3.616-1.46 1.376-3.284 2.103-1.824.708-4.128.708-5.107 0-7.988-3.42-2.88-3.44-2.88-7.763 0-4.068 2.439-7.251 3.091-4.049 8.275-4.049 5.338 0 8.526 4.147 2.265 2.928 2.304 7.31h-18.779q.077 3.735 2.324 6.132 2.246 2.378 5.549 2.378 1.593 0 3.091-.57 1.517-.57 2.573-1.513t2.285-3.046zm0-5.758q-.538-2.202-1.575-3.518-1.017-1.317-2.707-2.123-1.69-.805-3.552-.805-3.072 0-5.28 2.024-1.613 1.474-2.439 4.422h15.553zm28.264-4.089l-2.132 1.357q-2.765-3.754-7.546-3.754-3.82 0-6.355 2.516-2.515 2.515-2.515 6.112 0 2.338 1.152 4.402 1.17 2.063 3.187 3.203 2.035 1.14 4.55 1.14 4.609 0 7.527-3.754l2.132 1.435q-1.498 2.3-4.033 3.577-2.515 1.258-5.74 1.258-4.954 0-8.219-3.223-3.264-3.223-3.264-7.842 0-3.105 1.517-5.758 1.536-2.673 4.205-4.166 2.669-1.494 5.972-1.494 2.073 0 3.993.649 1.94.648 3.284 1.69 1.344 1.041 2.285 2.653zm4.8-4.44h2.707v9.983q0 3.655.384 5.03.576 1.966 2.19 3.106 1.631 1.14 3.878 1.14 2.246 0 3.802-1.1 1.574-1.12 2.17-2.929.403-1.238.403-5.247v-9.984h2.745v10.495q0 4.422-1.017 6.662-.999 2.24-3.034 3.518-2.016 1.258-5.07 1.258-3.052 0-5.107-1.258-2.035-1.278-3.053-3.538-.998-2.28-.998-6.839V617.12zm23.214 0h2.746v3.124q1.228-1.847 2.592-2.751 1.363-.924 2.841-.924 1.114 0 2.381.727l-1.401 2.32q-.845-.374-1.421-.374-1.344 0-2.592 1.14-1.248 1.12-1.901 3.498-.5 1.828-.5 7.39v7.231h-2.745V617.12zm23.348 2.338l-1.728 1.828q-2.15-2.142-4.205-2.142-1.306 0-2.246.884-.922.884-.922 2.063 0 1.042.768 1.985.768.963 3.226 2.26 2.995 1.592 4.07 3.066 1.056 1.494 1.056 3.36 0 2.634-1.804 4.462-1.805 1.828-4.513 1.828-1.805 0-3.456-.806-1.632-.806-2.707-2.22l1.69-1.966q2.054 2.378 4.358 2.378 1.613 0 2.746-1.061 1.133-1.062 1.133-2.496 0-1.18-.75-2.103-.748-.904-3.378-2.28-2.823-1.493-3.84-2.948-1.018-1.454-1.018-3.321 0-2.437 1.613-4.048 1.632-1.612 4.109-1.612 2.88 0 5.798 2.889zm14.669-2.888q4.82 0 7.988 3.576 2.88 3.262 2.88 7.723 0 4.481-3.052 7.842-3.034 3.34-7.815 3.34-4.8 0-7.853-3.34-3.034-3.36-3.034-7.842 0-4.441 2.88-7.703 3.168-3.597 8.007-3.597zm0 2.691q-3.34 0-5.74 2.536-2.4 2.535-2.4 6.131 0 2.32 1.094 4.324t2.957 3.105q1.862 1.08 4.09 1.08 2.227 0 4.09-1.08 1.862-1.1 2.957-3.105 1.094-2.005 1.094-4.324 0-3.596-2.42-6.131-2.4-2.536-5.721-2.536zm26.344.197l-1.728 1.828q-2.15-2.142-4.205-2.142-1.305 0-2.246.884-.922.884-.922 2.063 0 1.042.768 1.985.768.963 3.226 2.26 2.995 1.592 4.07 3.066 1.057 1.494 1.057 3.36 0 2.634-1.805 4.462-1.805 1.828-4.512 1.828-1.805 0-3.457-.806-1.632-.806-2.707-2.22l1.69-1.966q2.054 2.378 4.358 2.378 1.613 0 2.746-1.061 1.133-1.062 1.133-2.496 0-1.18-.749-2.103-.749-.904-3.38-2.28-2.822-1.493-3.84-2.948-1.017-1.454-1.017-3.321 0-2.437 1.613-4.048 1.632-1.612 4.109-1.612 2.88 0 5.798 2.889zm15.726-2.338h2.669v3.93q1.594-2.24 3.667-3.36 2.074-1.12 4.628-1.12 4.454 0 7.623 3.281 3.168 3.282 3.168 7.9 0 4.717-3.15 8.019-3.129 3.282-7.564 3.282-2.496 0-4.59-1.062-2.092-1.06-3.782-3.164v11.497h-2.669v-29.204zm10.753 2.102q-3.495 0-5.895 2.496-2.381 2.496-2.381 6.21 0 2.437 1.056 4.383 1.075 1.945 3.053 3.085 1.997 1.14 4.205 1.14 2.17 0 4.07-1.14 1.92-1.16 3.054-3.223 1.132-2.063 1.132-4.323 0-2.28-1.132-4.324-1.114-2.044-3.015-3.164-1.9-1.14-4.147-1.14zm36.827-2.102v21.38h-2.65v-3.675q-1.69 2.103-3.801 3.164-2.093 1.062-4.59 1.062-4.435 0-7.584-3.282-3.13-3.302-3.13-8.019 0-4.618 3.169-7.9 3.168-3.282 7.622-3.282 2.573 0 4.647 1.12 2.093 1.12 3.667 3.36v-3.93h2.65zm-10.752 2.102q-2.247 0-4.148 1.14-1.9 1.12-3.034 3.164-1.113 2.044-1.113 4.324 0 2.26 1.133 4.323 1.132 2.064 3.033 3.223 1.92 1.14 4.11 1.14 2.207 0 4.185-1.14 1.978-1.14 3.034-3.085 1.075-1.946 1.075-4.383 0-3.714-2.4-6.21-2.38-2.496-5.875-2.496zm15.802-2.102h2.746v3.124q1.229-1.847 2.592-2.751 1.363-.924 2.842-.924 1.113 0 2.38.727l-1.401 2.32q-.845-.374-1.421-.374-1.344 0-2.592 1.14-1.248 1.12-1.901 3.498-.5 1.828-.5 7.39v7.231H600.3V617.12zm33.66 0v21.38h-2.65v-3.675q-1.69 2.103-3.802 3.164-2.093 1.062-4.59 1.062-4.435 0-7.584-3.282-3.13-3.302-3.13-8.019 0-4.618 3.169-7.9 3.168-3.282 7.622-3.282 2.573 0 4.647 1.12 2.093 1.12 3.667 3.36v-3.93h2.65zm-10.753 2.102q-2.247 0-4.148 1.14-1.9 1.12-3.034 3.164-1.113 2.044-1.113 4.324 0 2.26 1.133 4.323 1.133 2.064 3.033 3.223 1.92 1.14 4.11 1.14 2.208 0 4.185-1.14 1.978-1.14 3.034-3.085 1.075-1.946 1.075-4.383 0-3.714-2.4-6.21-2.38-2.496-5.875-2.496zm27.38-2.102h2.708v9.983q0 3.655.384 5.03.576 1.966 2.188 3.106 1.633 1.14 3.88 1.14 2.246 0 3.8-1.1 1.575-1.12 2.17-2.929.404-1.238.404-5.247v-9.984h2.746v10.495q0 4.422-1.018 6.662-.999 2.24-3.034 3.518-2.016 1.258-5.069 1.258t-5.107-1.258q-2.036-1.278-3.053-3.538-.999-2.28-.999-6.839V617.12zm24.232 0h2.688v3.832q1.613-2.201 3.571-3.282 1.959-1.1 4.263-1.1 2.342 0 4.147 1.218 1.824 1.218 2.689 3.282.864 2.063.864 6.426V638.5h-2.67v-10.2q0-3.694-.307-4.932-.48-2.123-1.804-3.184-1.325-1.08-3.457-1.08-2.438 0-4.377 1.65-1.92 1.65-2.535 4.088-.384 1.592-.384 5.817v7.841h-2.688v-21.38zm24.903-8.805q.922 0 1.575.668.653.668.653 1.612 0 .923-.653 1.592-.653.668-1.575.668-.902 0-1.555-.668-.653-.669-.653-1.592 0-.944.653-1.612.653-.668 1.555-.668zm-1.344 8.804h2.708v21.382h-2.708V617.12zm6.414.001h2.86l6.99 15.564 6.931-15.565h2.88l-9.562 21.382h-.48l-9.62-21.382zm41.454 14.287l2.266 1.218q-1.114 2.24-2.573 3.616-1.46 1.376-3.283 2.103-1.824.708-4.128.708-5.108 0-7.988-3.42-2.88-3.44-2.88-7.763 0-4.068 2.438-7.251 3.092-4.049 8.276-4.049 5.338 0 8.525 4.147 2.266 2.928 2.304 7.31h-18.778q.077 3.735 2.323 6.132 2.247 2.378 5.55 2.378 1.593 0 3.09-.57 1.517-.57 2.573-1.513 1.057-.943 2.285-3.046zm0-5.758q-.537-2.202-1.574-3.518-1.018-1.317-2.707-2.123-1.69-.805-3.553-.805-3.072 0-5.28 2.024-1.613 1.474-2.438 4.422h15.552zm6.97-8.529h2.746v3.124q1.229-1.847 2.592-2.751 1.363-.924 2.842-.924 1.114 0 2.38.727l-1.4 2.32q-.846-.374-1.422-.374-1.344 0-2.592 1.14-1.248 1.12-1.9 3.498-.5 1.828-.5 7.39v7.231h-2.746V617.12zm23.349 2.338l-1.728 1.828q-2.15-2.142-4.205-2.142-1.306 0-2.247.884-.922.884-.922 2.063 0 1.042.768 1.985.769.963 3.226 2.26 2.996 1.592 4.07 3.066 1.057 1.494 1.057 3.36 0 2.634-1.805 4.462-1.805 1.828-4.512 1.828-1.805 0-3.456-.806-1.632-.806-2.708-2.22l1.69-1.966q2.054 2.378 4.359 2.378 1.612 0 2.745-1.061 1.133-1.062 1.133-2.496 0-1.18-.749-2.103-.749-.904-3.379-2.28-2.823-1.493-3.84-2.948-1.018-1.454-1.018-3.321 0-2.437 1.613-4.048 1.632-1.612 4.109-1.612 2.88 0 5.799 2.889zm5.722-11.143q.921 0 1.574.668t.653 1.612q0 .923-.653 1.592-.653.668-1.574.668-.903 0-1.556-.668-.653-.669-.653-1.592 0-.944.653-1.612.653-.668 1.556-.668zm-1.344 8.804h2.707v21.382h-2.707V617.12zm10.733-7.939h2.707v7.94h4.263v2.358h-4.263V638.5h-2.707v-19.023h-3.668v-2.359h3.668v-7.94zm31.912 7.94v21.38h-2.65v-3.675q-1.69 2.103-3.802 3.164-2.093 1.062-4.589 1.062-4.435 0-7.584-3.282-3.13-3.302-3.13-8.019 0-4.618 3.168-7.9 3.169-3.282 7.623-3.282 2.573 0 4.647 1.12 2.093 1.12 3.667 3.36v-3.93h2.65zm-10.753 2.102q-2.246 0-4.147 1.14-1.901 1.12-3.034 3.164-1.113 2.044-1.113 4.324 0 2.26 1.132 4.323 1.133 2.064 3.034 3.223 1.92 1.14 4.11 1.14 2.207 0 4.185-1.14 1.978-1.14 3.034-3.085 1.075-1.946 1.075-4.383 0-3.714-2.4-6.21-2.381-2.496-5.876-2.496zm15.803-2.102h2.745v3.124q1.23-1.847 2.593-2.751 1.363-.924 2.841-.924 1.114 0 2.381.727l-1.401 2.32q-.845-.374-1.421-.374-1.344 0-2.592 1.14-1.248 1.12-1.901 3.498-.5 1.828-.5 7.39v7.231h-2.745V617.12zm13.786-8.805q.922 0 1.574.668.653.668.653 1.612 0 .923-.653 1.592-.652.668-1.574.668-.902 0-1.555-.668-.653-.669-.653-1.592 0-.944.653-1.612.653-.668 1.555-.668zm-1.344 8.804h2.707v21.382h-2.707V617.12zm18.28-.549q4.819 0 7.987 3.576 2.88 3.262 2.88 7.723 0 4.481-3.053 7.842-3.034 3.34-7.815 3.34-4.8 0-7.853-3.34-3.034-3.36-3.034-7.842 0-4.441 2.88-7.703 3.169-3.597 8.007-3.597zm0 2.691q-3.342 0-5.742 2.536-2.4 2.535-2.4 6.131 0 2.32 1.095 4.324 1.094 2.004 2.956 3.105 1.863 1.08 4.09 1.08 2.228 0 4.09-1.08 1.863-1.1 2.957-3.105 1.094-2.005 1.094-4.324 0-3.596-2.419-6.131-2.4-2.536-5.722-2.536zm26.343.197l-1.728 1.828q-2.15-2.142-4.205-2.142-1.306 0-2.247.884-.921.884-.921 2.063 0 1.042.768 1.985.768.963 3.226 2.26 2.995 1.592 4.07 3.066 1.056 1.494 1.056 3.36 0 2.634-1.805 4.462-1.805 1.828-4.512 1.828-1.805 0-3.456-.806-1.632-.806-2.707-2.22l1.69-1.966q2.054 2.378 4.358 2.378 1.613 0 2.746-1.061 1.132-1.062 1.132-2.496 0-1.18-.748-2.103-.75-.904-3.38-2.28-2.822-1.493-3.84-2.948-1.018-1.454-1.018-3.321 0-2.437 1.613-4.048 1.632-1.612 4.11-1.612 2.88 0 5.798 2.889z" style="-inkscape-font-specification:'Century Gothic'" font-weight="400" font-size="39.783" font-family="Century Gothic" letter-spacing="0" word-spacing="0"/></svg>