<svg xmlns="http://www.w3.org/2000/svg" width="595.3" height="333.8" viewBox="34 23 595.3 333.8"><path fill="#E0E0E0" d="M199.8 101.4h338.4v216.3H199.8z"/><path fill="#FFF" d="M202.7 104.3h332v213.4h-332z"/><path d="M230.6 129.8h-5.2v4.8h5.8v1.5h-7.5v-13.3h7.2v1.5h-5.5v4.2h5.2v1.3zm2.5 4.5c.5.3 1.4.7 2.3.7 1.3 0 1.9-.7 1.9-1.4 0-.8-.5-1.3-1.8-1.8-1.7-.7-2.5-1.5-2.5-2.7 0-1.5 1.2-2.8 3.3-2.8 1 0 1.8.2 2.4.6l-.4 1.3c-.4-.2-1.1-.6-2-.6-1.1 0-1.6.6-1.6 1.3 0 .8.6 1.1 1.8 1.6 1.6.7 2.5 1.5 2.5 2.8 0 1.7-1.3 2.8-3.6 2.8-1.1 0-2-.2-2.7-.7l.4-1.1zm10.2-10.5v2.8h2.5v1.3h-2.5v5.1c0 1.2.3 1.9 1.3 1.9.5 0 .8-.1 1-.1l.1 1.3c-.3.2-.9.2-1.5.2-.8 0-1.5-.2-1.9-.7-.5-.5-.7-1.4-.7-2.5v-5.2h-1.5v-1.3h1.5v-2.3l1.7-.5zm9.8 12.3l-.2-1.2h-.1c-.6.7-1.5 1.4-2.9 1.4-2 0-2.9-1.4-2.9-2.8 0-2.3 2-3.6 5.8-3.6v-.2c0-.8-.2-2.2-2.2-2.2-.9 0-1.8.2-2.5.7l-.4-1.1c.8-.5 2-.8 3.2-.8 2.9 0 3.7 2 3.7 3.9v3.6c0 .8 0 1.6.2 2.3h-1.7zm-.3-4.9c-1.9 0-4.1.3-4.1 2.1 0 1.1.7 1.6 1.6 1.6 1.2 0 2-.8 2.3-1.6.1-.2.1-.4.1-.6l.1-1.5zm12.7-9.1v11.6c0 .8 0 1.8.1 2.4h-1.5l-.1-1.6c-.6 1.1-1.7 1.9-3.3 1.9-2.3 0-4.1-2-4.1-4.9 0-3.2 2-5.1 4.3-5.1 1.5 0 2.4.7 2.8 1.5v-5.7h1.8zm-1.7 8.3c0-.2 0-.5-.1-.7-.2-1.1-1.2-2-2.5-2-1.8 0-2.8 1.5-2.8 3.7 0 2 1 3.5 2.8 3.5 1.1 0 2.2-.7 2.5-2 .1-.2.1-.5.1-.7v-1.8zm6.5-6.5c0 .6-.4 1.1-1.1 1.1-.7 0-1.1-.5-1.1-1.1 0-.7.5-1.1 1.1-1.1.7 0 1.1.4 1.1 1.1zm-1.8 12.2v-9.6h1.7v9.6h-1.7zm4.3-1.8c.5.3 1.4.7 2.3.7 1.3 0 1.9-.7 1.9-1.4 0-.8-.5-1.3-1.8-1.8-1.7-.7-2.5-1.5-2.5-2.7 0-1.5 1.2-2.8 3.3-2.8 1 0 1.8.2 2.4.6l-.4 1.3c-.4-.2-1.1-.6-2-.6-1.1 0-1.6.6-1.6 1.3 0 .8.6 1.1 1.8 1.6 1.6.7 2.5 1.5 2.5 2.8 0 1.7-1.3 2.8-3.6 2.8-1.1 0-2-.2-2.7-.7l.4-1.1zm10.1-10.5v2.8h2.5v1.3h-2.5v5.1c0 1.2.3 1.9 1.3 1.9.5 0 .8-.1 1-.1l.1 1.3c-.3.2-.9.2-1.5.2-.8 0-1.5-.2-1.9-.7-.5-.5-.7-1.4-.7-2.5v-5.2h-1.5v-1.3h1.5v-2.3l1.7-.5zm6.5.1c0 .6-.4 1.1-1.1 1.1-.7 0-1.1-.5-1.1-1.1 0-.7.5-1.1 1.1-1.1.7 0 1.1.4 1.1 1.1zm-2 12.2v-9.6h1.7v9.6h-1.7zm11.4-.3c-.5.2-1.5.6-2.8.6-2.8 0-4.8-2-4.8-4.9 0-2.9 2-5 5.1-5 1.1 0 2 .2 2.4.5l-.4 1.4c-.4-.2-1.1-.5-2-.5-2.2 0-3.4 1.6-3.4 3.6 0 2.2 1.4 3.6 3.3 3.6 1 0 1.6-.2 2.1-.5l.5 1.2zm7.3.3l-.2-1.2h-.1c-.6.7-1.5 1.4-2.9 1.4-2 0-2.9-1.4-2.9-2.8 0-2.3 2-3.6 5.8-3.6v-.2c0-.8-.2-2.2-2.2-2.2-.9 0-1.8.2-2.5.7l-.4-1.1c.8-.5 2-.8 3.2-.8 2.9 0 3.7 2 3.7 3.9v3.6c0 .8 0 1.6.2 2.3h-1.7zm-.2-4.9c-1.9 0-4.1.3-4.1 2.1 0 1.1.7 1.6 1.6 1.6 1.2 0 2-.8 2.3-1.6.1-.2.1-.4.1-.6l.1-1.5zm4.3 3.1c.5.3 1.4.7 2.3.7 1.3 0 1.9-.7 1.9-1.4 0-.8-.5-1.3-1.8-1.8-1.7-.7-2.5-1.5-2.5-2.7 0-1.5 1.2-2.8 3.3-2.8 1 0 1.8.2 2.4.6l-.4 1.3c-.4-.2-1.1-.6-2-.6-1.1 0-1.6.6-1.6 1.3 0 .8.6 1.1 1.8 1.6 1.6.7 2.5 1.5 2.5 2.8 0 1.7-1.3 2.8-3.6 2.8-1.1 0-2-.2-2.7-.7l.4-1.1zm7.7-6.2c0-.7.5-1.2 1.2-1.2s1.1.5 1.1 1.2-.5 1.2-1.2 1.2-1.1-.5-1.1-1.2zm0 7c0-.7.5-1.2 1.2-1.2s1.1.5 1.1 1.2-.5 1.2-1.2 1.2-1.1-.5-1.1-1.2zm24.4 36.9l-2.5-7.6h1.1l1.2 3.8c.3 1.1.7 2 .8 2.8.2-.9.6-1.9.9-2.8l1.3-3.8h1.1l-2.8 7.6h-1.1zm7.4 0l-.1-.7c-.3.4-.9.8-1.7.8-1.1 0-1.7-.8-1.7-1.5 0-1.3 1.2-2 3.3-2v-.1c0-.5-.2-1.3-1.2-1.3-.5 0-1.1.2-1.5.4l-.2-.7c.5-.3 1.1-.5 1.8-.5 1.7 0 2.1 1.1 2.1 2.3v2c0 .5 0 1 .1 1.3h-.9zm-.2-2.8c-1.1 0-2.4.2-2.4 1.2 0 .7.4 1 1 1 .7 0 1.1-.5 1.3-.9 0-.1.1-.2.1-.3v-1zm2.6-5.3h1v8.1h-1v-8.1zm7.7 5.3c0 2-1.4 2.9-2.8 2.9-1.5 0-2.7-1.1-2.7-2.8 0-1.9 1.2-2.9 2.8-2.9s2.7 1.1 2.7 2.8zm-4.4.1c0 1.2.7 2.1 1.7 2.1s1.7-.9 1.7-2.1c0-.9-.5-2.1-1.6-2.1-1.3-.1-1.8 1-1.8 2.1zm5.7-1.1c0-.7 0-1.2-.1-1.7h.9v1.1h.1c.2-.7.9-1.2 1.5-1.2h.2v1h-.3c-.7 0-1.2.6-1.4 1.3 0 .2-.1.3-.1.5v2.9h-1l.2-3.9zm-36.7 100.9c.5-.1 1.1-.2 1.9-.2 1 0 1.7.2 2.1.7.4.3.7.9.7 1.6 0 .7-.2 1.2-.6 1.6-.5.6-1.4.8-2.4.8-.3 0-.6 0-.8-.1v3.1h-1l.1-7.5zm.9 3.7c.2.1.5.1.8.1 1.2 0 2-.6 2-1.6s-.7-1.5-1.8-1.5c-.4 0-.7 0-.9.1l-.1 2.9zm5.3 1.3c0 1.4.9 2 1.9 2 .7 0 1.1-.2 1.5-.2l.2.7c-.3.2-1 .3-1.9.3-1.7 0-2.7-1.1-2.7-2.8s1-3 2.6-3c1.8 0 2.3 1.5 2.3 2.6v.5l-3.9-.1zm3-.7c0-.7-.2-1.6-1.4-1.6-1 0-1.5.9-1.5 1.6h2.9zm2.2-.5c0-.7 0-1.2-.1-1.7h.9v1.1h.1c.2-.7.9-1.2 1.5-1.2h.3v1h-.3c-.7 0-1.2.6-1.4 1.3 0 .2-.1.3-.1.5v2.9h-1l.1-3.9zm3.6 2.7c.3.2.8.4 1.3.4.7 0 1.1-.3 1.1-.8s-.3-.7-1.1-1c-1-.3-1.5-.9-1.5-1.5 0-.9.7-1.6 1.9-1.6.6 0 1.1.2 1.4.3l-.2.7c-.2-.2-.7-.3-1.1-.3-.6 0-.9.3-.9.7 0 .5.3.7 1.1.9 1 .3 1.5.8 1.5 1.6 0 1-.7 1.6-2 1.6-.6 0-1.1-.2-1.5-.4v-.6zm9.6-1.7c0 2-1.4 2.9-2.8 2.9-1.5 0-2.7-1.1-2.7-2.8 0-1.9 1.2-2.9 2.8-2.9 1.7 0 2.7 1.1 2.7 2.8zm-4.4 0c0 1.2.7 2.1 1.7 2.1s1.7-.9 1.7-2.1c0-.9-.5-2.1-1.6-2.1-1.2 0-1.8 1.1-1.8 2.1zm5.7-1.2c0-.6 0-1.1-.1-1.5h.9l.1.9c.2-.5.9-1.1 1.8-1.1.7 0 2 .5 2 2.4v3.3h-1v-3.2c0-.9-.3-1.6-1.3-1.6-.7 0-1.1.5-1.4 1.1-.1.2-.1.3-.1.5v3.3h-1l.1-4.1zm9.4 4l-.1-.7c-.3.4-.9.8-1.7.8-1.1 0-1.7-.8-1.7-1.5 0-1.3 1.2-2 3.3-2v-.1c0-.5-.2-1.3-1.2-1.3-.5 0-1.1.2-1.5.4l-.2-.7c.5-.3 1.1-.5 1.8-.5 1.7 0 2.1 1.1 2.1 2.3v2c0 .5 0 1 .1 1.3h-.9zm-.2-2.8c-1.1 0-2.4.2-2.4 1.2 0 .7.4 1 1 1 .7 0 1.1-.5 1.3-.9 0-.1.1-.2.1-.3v-1zm2.6-5.3h1v8.1h-1v-8.1zm-47.4-51.1h-2.4v-.8h5.7v.8h-2.4v6.8h-1v-6.8zm3.9 4.3c0 1.4.9 2 1.9 2 .7 0 1.1-.2 1.5-.3l.2.7c-.3.2-1 .3-1.9.3-1.7 0-2.7-1.1-2.7-2.8 0-1.6 1-3 2.6-3 1.8 0 2.3 1.5 2.3 2.6v.5h-3.9zm2.9-.8c0-.7-.2-1.6-1.4-1.6-1 0-1.5.9-1.5 1.6h2.9zm6.1 3.1c-.2.2-.8.3-1.5.3-1.6 0-2.8-1.1-2.8-2.8 0-1.7 1.1-2.9 2.9-2.9.6 0 1.1.2 1.4.3l-.2.8c-.2-.2-.7-.2-1.1-.2-1.3 0-2 .9-2 2.1 0 1.3.8 2 2 2 .6 0 1-.2 1.2-.2l.1.6zm1.2-3.8c0-.6 0-1.1-.1-1.5h.9l.1.9c.2-.5.9-1.1 1.8-1.1.7 0 2 .5 2 2.4v3.3h-1v-3.1c0-.9-.3-1.6-1.3-1.6-.7 0-1.1.5-1.4 1.1-.1.2-.1.3-.1.5v3.3h-.9v-4.2zm11.3 1.2c0 2-1.4 2.9-2.8 2.9-1.5 0-2.7-1.1-2.7-2.8 0-1.9 1.2-2.9 2.8-2.9 1.7 0 2.7 1.2 2.7 2.8zm-4.3.1c0 1.2.7 2.1 1.7 2.1s1.7-.9 1.7-2.1c0-.9-.5-2.1-1.6-2.1-1.4 0-1.8 1.1-1.8 2.1zm5.6-5.4h1v8.1h-1v-8.1zm7.7 5.3c0 2-1.4 2.9-2.8 2.9-1.5 0-2.7-1.1-2.7-2.8 0-1.9 1.2-2.9 2.8-2.9 1.6 0 2.7 1.2 2.7 2.8zm-4.4.1c0 1.2.7 2.1 1.7 2.1s1.7-.9 1.7-2.1c0-.9-.5-2.1-1.6-2.1-1.3 0-1.8 1.1-1.8 2.1zm10.4-2.8c0 .4-.1.8-.1 1.5v3.2c0 1.3-.2 2-.8 2.5-.6.5-1.3.7-2 .7s-1.4-.2-1.9-.5l.2-.7c.3.2.9.4 1.6.4 1.1 0 1.8-.6 1.8-2v-.7c-.3.5-.9.9-1.8.9-1.4 0-2.4-1.1-2.4-2.7 0-1.9 1.2-2.9 2.5-2.9 1 0 1.5.5 1.7 1l.1-.8 1.1.1zm-1 2.2c0-.2 0-.3-.1-.5-.2-.6-.7-1.1-1.4-1.1-1 0-1.6.8-1.6 2.1 0 1.1.6 2 1.6 2 .7 0 1.1-.4 1.4-1.1.1-.2.1-.3.1-.6v-.8zm3.6-3.7c0 .3-.2.7-.7.7-.3 0-.6-.2-.6-.7 0-.3.2-.7.7-.7.4.1.6.4.6.7zm-1 7.1v-5.5h1v5.5h-1zm5.7 0l-.1-.7c-.3.4-.9.8-1.7.8-1.1 0-1.7-.8-1.7-1.5 0-1.3 1.2-2 3.3-2v-.1c0-.5-.2-1.3-1.2-1.3-.5 0-1.1.2-1.5.4l-.2-.7c.5-.3 1.1-.5 1.8-.5 1.7 0 2.1 1.1 2.1 2.3v2c0 .5 0 1 .1 1.3h-.9zm-.2-2.9c-1.1 0-2.4.2-2.4 1.2 0 .7.4 1 1 1 .7 0 1.1-.5 1.3-.9 0-.1.1-.2.1-.3v-1zm-44.5-23.3l-2.5-7.6h1.1l1.2 3.8c.3 1.1.7 2 .8 2.8.2-.9.6-1.9.9-2.8l1.3-3.8h1.1l-2.8 7.6h-1.1zm5.5-7.1c0 .3-.2.7-.7.7-.3 0-.6-.2-.6-.7 0-.3.2-.7.7-.7.4.1.6.4.6.7zm-1.1 7.1v-5.5h1v5.5h-1zm2.5-1.1c.3.2.8.4 1.3.4.7 0 1.1-.3 1.1-.8s-.3-.7-1.1-1c-1-.3-1.5-.9-1.5-1.5 0-.9.7-1.6 1.9-1.6.6 0 1.1.2 1.4.3l-.2.7c-.2-.2-.7-.3-1.1-.3-.6 0-.9.3-.9.7 0 .5.3.7 1.1.9 1 .3 1.5.8 1.5 1.6 0 1-.7 1.6-2 1.6-.6 0-1.1-.2-1.5-.4v-.6zm5.8-6c0 .3-.2.7-.7.7-.3 0-.6-.2-.6-.7 0-.3.2-.7.7-.7.3.1.6.4.6.7zm-1.1 7.1v-5.5h1v5.5h-1zm2.6 0c0-.4.1-.9.1-1.5V190h1v3.5c.3-.7 1-1 1.9-1 1.4 0 2.4 1.1 2.4 2.8 0 2-1.2 2.9-2.4 2.9-.8 0-1.5-.3-1.9-1.1l-.1.9-1 .2zm1.1-2.2c0 .2 0 .2.1.3.2.7.8 1.1 1.5 1.1 1.1 0 1.7-.8 1.7-2.1 0-1.1-.6-2-1.6-2-.7 0-1.3.5-1.5 1.2 0 .1-.1.2-.1.4v1.1zm6.6-4.9c0 .3-.2.7-.7.7-.3 0-.6-.2-.6-.7 0-.3.2-.7.7-.7.3.1.6.4.6.7zm-1.2 7.1v-5.5h1v5.5h-1zm2.7-8.1h1v8.1h-1v-8.1zm3.9 1c0 .3-.2.7-.7.7-.3 0-.6-.2-.6-.7 0-.3.2-.7.7-.7.3.1.6.4.6.7zm-1.2 7.1v-5.5h1v5.5h-1zm7.4-8.1v6.7c0 .5 0 1.1.1 1.5h-.9l-.1-1c-.3.7-1 1.1-1.9 1.1-1.3 0-2.4-1.1-2.4-2.8 0-1.9 1.1-2.9 2.4-2.9.8 0 1.4.4 1.6.8v-3.3l1.2-.1zm-1 4.8c0-.2 0-.3-.1-.4-.2-.7-.7-1.1-1.5-1.1-1.1 0-1.6.9-1.6 2.1 0 1.1.6 2 1.6 2 .7 0 1.3-.4 1.5-1.2 0-.2.1-.2.1-.4v-1zm5.7 3.3l-.1-.7c-.3.4-.9.8-1.7.8-1.1 0-1.7-.8-1.7-1.5 0-1.3 1.2-2 3.3-2v-.1c0-.5-.2-1.3-1.2-1.3-.5 0-1.1.2-1.5.4l-.2-.7c.5-.3 1.1-.5 1.8-.5 1.7 0 2.1 1.1 2.1 2.3v2c0 .5 0 1 .1 1.3h-.9zm-.1-2.8c-1.1 0-2.4.2-2.4 1.2 0 .7.4 1 1 1 .7 0 1.1-.5 1.3-.9 0-.1.1-.2.1-.3v-1zm7.4-5.3v6.7c0 .5 0 1.1.1 1.5h-.9l-.1-1c-.3.7-1 1.1-1.9 1.1-1.3 0-2.4-1.1-2.4-2.8 0-1.9 1.1-2.9 2.4-2.9.8 0 1.4.4 1.6.8v-3.3l1.2-.1zm-1.1 4.8c0-.2 0-.3-.1-.4-.2-.7-.7-1.1-1.5-1.1-1.1 0-1.6.9-1.6 2.1 0 1.1.6 2 1.6 2 .7 0 1.3-.4 1.5-1.2 0-.2.1-.2.1-.4v-1zM334 250.2c-.4.2-1.3.4-2.4.4-1.1 0-2.1-.3-2.8-1-.7-.7-1.1-1.6-1.1-2.8 0-2.3 1.5-4 4.1-4 .9 0 1.5.2 2 .3l-.2.8c-.4-.2-.9-.3-1.7-.3-1.9 0-3.1 1.1-3.1 3.1s1.1 3.1 2.9 3.1c.7 0 1.1-.1 1.3-.2v-2.3h-1.5v-.8h2.5v3.7zm2.2-2.2c0 1.4.9 2 1.9 2 .7 0 1.1-.2 1.5-.3l.2.7c-.3.2-1 .3-1.9.3-1.7 0-2.7-1.1-2.7-2.8 0-1.6 1-3 2.6-3 1.8 0 2.3 1.5 2.3 2.6v.5h-3.9zm2.9-.8c0-.7-.2-1.6-1.4-1.6-1 0-1.5.9-1.5 1.6h2.9zm2 2.3c.3.2.8.4 1.3.4.7 0 1.1-.3 1.1-.8s-.2-.7-1.1-1c-1-.3-1.5-.9-1.5-1.5 0-.9.7-1.6 1.9-1.6.6 0 1.1.2 1.4.3l-.2.7c-.2-.2-.7-.3-1.1-.3-.6 0-.9.3-.9.7 0 .5.3.7 1.1.9 1 .3 1.5.8 1.5 1.6 0 1-.7 1.6-2 1.6-.6 0-1.1-.2-1.5-.4v-.6zm5.9-6.1v1.5h1.5v.7H347v3c0 .7.2 1.1.7 1.1.2 0 .5 0 .6-.1l.1.7c-.2.1-.5.2-.9.2-.5 0-.8-.2-1.1-.4-.3-.3-.4-.8-.4-1.5v-3h-.9v-.6h.9v-1.3l1-.3zm3.6.1c0 .3-.2.7-.7.7-.3 0-.6-.2-.6-.7 0-.3.2-.7.7-.7.4.1.6.3.6.7zm-1 7V245h1v5.5h-1zm7.6-2.8c0 2-1.4 2.9-2.8 2.9-1.5 0-2.7-1.1-2.7-2.8 0-1.9 1.2-2.9 2.8-2.9 1.7 0 2.7 1.1 2.7 2.8zm-4.4.1c0 1.2.7 2.1 1.7 2.1s1.7-.9 1.7-2.1c0-.9-.5-2.1-1.6-2.1-1.3-.1-1.8 1.1-1.8 2.1zm5.7-1.3c0-.6 0-1.1-.1-1.5h.9l.1.9c.2-.5.9-1.1 1.8-1.1.7 0 2 .5 2 2.4v3.3h-.9v-3.2c0-.9-.3-1.6-1.3-1.6-.7 0-1.1.5-1.4 1.1-.1.2-.1.3-.1.5v3.3h-1v-4.1z"/><path fill="#4FB050" d="M366.5 267.4H419v12.3h-52.5zm0-27.6h86.1v12.3h-86.1zm0-24.5h130.6v12.3H366.5zm0-27.5h60.6v12.3h-60.6zm0-27.5h111.6v12.3H366.5z"/><path fill="#FFF" d="M214.7 159h89.5v121.6h-89.5v-25.7c1 1 1.9 2.3 3.3 2.7.3.8.7 1.6 1.4 2.3.9.8 1.6 1.9 2.7 2.4 1.1.6 2.2 1 3.2 1.7.7.6 1.5 1.1 2.3 1.5 1.1.6 2.1 1.5 3.3 1.7 1 .2 1.9.5 2.7 1.1 1.2.9 2.8.7 4.1 1.5 1.1.6 2.4 1 3.6 1.1 2.6.4 5.1 1.2 7.6 1.8 2.9.7 5.8 1.4 8.7 2 1.5.2 3 .8 4.6 1 2 .2 3.8.7 5.8 1 1.1.2 2.3.1 3.4.5.6.2 1.1.5 1.7.4.8-.2 1.6-.4 2.5-.4 1.1-.1 2 .1 3.1.1.7 0 1.2-.4 1.8-.7.9-.5 1.6.4 2.4.7.6.3 1.1 0 1.6-.3 1.1-.7 2.4-1.3 3.4-2.2.1-.1.3-.2.5-.3l.2.2c.2.2.4.3.7.5.1.1.2.2.3.2.2-.1.5-.1.7-.2 1.4-.8 2.8-1.5 4.1-2.4.7-.3.4-1.1.4-1.7 1.1-.7 2.4-1.4 3.5-2.1 0-1.1.1-2.1.1-3.2.9-.5 2.4-.8 2.3-2.1-.1-24.9 0-49.7 0-74.6-1-.7-2-1.3-3-1.9-9.8-5.6-19.5-11.2-29.3-16.9-.8-.4-1.5-1-2.4-1.3-.7-.4-1.5.2-2.1.6-1.1.6-2.1 1.5-3.4 1.8-1.1-.4-2-1.2-3.2-1.3 0-2.3 0-4.5.1-6.8l-.9-.6c-.3-.2-.8-.5-1.2-.3-.5.2-1 .6-1.4.9-.1 3.1 0 6.2 0 9.3-.8.3-1.6 0-2.3-.5-1.6 1.1-3.3 1.9-4.9 3v1.4c-.2.2-.6.3-.9.5-.8.4-1.5.9-2.4 1.4-.2.1-.3.2-.5.3-.1 1-.1 2 0 2.9-.8.4-1.6.8-2.3 1.5v47.7c-.3 2.2.1 4.4-.4 6.6-.1.7-.9 1-1.5 1.1-1 .2-2-.2-3-.1-1 .2-1.9.7-2.8.6-2.2-.3-4.3.7-6.5.7-1.1 0-2.3.4-3.4.5-1.6.1-3.3.2-4.9.7-1.1.4-2.2 1-3.3 1.3v-83h-.1z"/><path fill="#E2E1E1" d="M255.4 162.1c.4-.2.8.1 1.2.3.2.7.5 1.3.6 2-.4-.2-.8-.3-1.2-.4.3.8.7 1.6 1.1 2.4-.3-.2-.7-.2-1.1-.4l.8.8c-.3.1-.7.1-1 .1 0-1.1 0-2.1-.2-3.1-.1.6-.2 1.1-.3 1.7-.3-.2-.7-.3-1-.6.2-.2.6-.5.8-.7-.4-.4-.8-.8-1.1-1.2.4-.4.8-.7 1.4-.9z"/><path fill="#CBCBCB" d="M257.1 164.4c-.1-.7-.3-1.4-.6-2l.9.6c-.1 2.3-.1 4.5-.1 6.8 1.2.1 2.1.9 3.2 1.3 1.2-.3 2.3-1.2 3.4-1.8.7-.3 1.4-1 2.1-.6.8.4 1.5.9 2.4 1.3 9.8 5.6 19.5 11.3 29.3 16.9 1.1.6 2.1 1.1 3 1.9-1.6.9-3.3 1.8-4.8 2.8.8.6 1.7 1 2.4 1.7-1.6.8-3.2 1.8-4.8 2.7.4.2.8.5 1.1.7 0 .5 0 1 .1 1.5-.5-.7-1-1.4-1.5-2-.8.7-1.3 1.8-2 2.6-.2.3-.6.6-.7.9-.1.7-.1 1.5-.2 2.3-.1-.8-.2-1.6-.4-2.4-.2-.7-1-.8-1.5-1.1.2.2.2.3.4.5-.1 0-.2.1-.3.1-1.8.7-3.3 1.9-5.1 2.7-.4-.2-.7-.5-1.1-.7.4-.2.9-.3 1.3-.6 1.5-.8 2.9-1.7 4.4-2.6.8-.5 1.6.4 2.4 0 .7-.2 1.3-.7 2-1-.2-.2-.6-.4-.8-.6 1.3-.7 2.6-1.3 4-2-.2-.2-.4-.3-.6-.5.3-.2.7-.4 1-.6-.8-.6-1.6-1.1-2.4-1.5 1.1-.7 2.4-1.5 3.5-2.1.4-.2.9-.5 1.3-.8-10.3-5.9-20.6-11.9-30.9-17.8-.7-.3-1.2-.9-2-.9-1.8.7-3.2 2-5 2.6-1.1-.3-1.9-1.4-3.1-1.3v1.4c-.1 2.6-.1 5.3 0 7.9.5.3 1 .7 1.5 1-1.1.6-2.1 1.2-3 2-.1-.1-.2-.2-.3-.2-.9-.7-1.9-1.2-2.8-1.7.2-.2.3-.2.5-.4.9.4 1.8.9 2.6 1.3 0-4.5-.1-9 0-13.4h.7l.6 1.5c.2-.9.2-1.8.1-2.6 0-.3-.1-.7-.1-1-.4.2-.8.3-1.2.4v-.6c.3 0 .7 0 1-.1.1 0 .3-.1.4-.2-.2-.8-.2-1.6-.3-2.3z"/><path fill="#968D8F" d="M253.9 162.9c.4.4.8.8 1.1 1.2-.2.2-.6.5-.8.7.3.2.7.3 1 .6.2-.6.2-1.1.3-1.7.2 1.1.2 2.1.2 3.1v2.2c-.1 4.5 0 9 0 13.4-.9-.5-1.7-1-2.6-1.3.4-.3.8-.7 1.2-.9-1.8-1-3.7-1.7-5.6-2.3.7-.4 1.2-.7 1.9-1.1 0-.5.1-1.1.1-1.5.3-.2.7-.4 1-.6.6.2 1.2.9 1.9.6.7-.2.4-1.1.5-1.5v-1.4c-.2-3.3-.3-6.4-.2-9.5z"/><path fill="#797879" d="M255.9 163.9c.4.2.8.3 1.2.4 0 .7 0 1.5.1 2.2-.1 0-.3.1-.4.2-.2-.2-.6-.5-.8-.8.3.1.7.2 1.1.4-.6-.7-.9-1.5-1.2-2.4z"/><path fill="#F4F4F4" d="M256.1 164.2c.3.2.6.2.9.4l-.3.6c-.2-.2-.4-.5-.6-1z"/><path fill="#FFF" d="M254.1 165.2c.4.2.8.3 1.2.6-.2.2-.4.3-.7.5.2.1.5.2.7.3v.5c-.4-.2-.8-.5-1.1-.8-.1-.3 0-.7-.1-1.1zm1.7 2.2c.4-.2.8-.3 1.2-.4 0 .3.1.7.1 1l-1.2-.3c.2.5.3.9.6 1.4h-.7v-1.7zm-1.2-.1c.7.1.8.8.9 1.4-.4.2-.9.2-1.3-.1.2-.3.5-.5.8-.7 0-.2-.2-.4-.4-.6z"/><path fill="#797879" d="M255.9 167.7l1.2.3c.2.9.1 1.8-.1 2.6-.2-.6-.3-1.1-.6-1.5-.2-.5-.4-.9-.5-1.4z"/><path fill="#FFF" d="M256.1 168c.3.2.7.3.9.4l-.3.6c-.2-.4-.4-.7-.6-1zm-2 1c.4.2.8.4 1.2.7-.2.2-.4.3-.7.5.2.1.5.2.7.3v.5c-.4-.2-.8-.5-1.1-.8-.1-.4 0-.9-.1-1.2z"/><path fill="#635E5F" d="M260.5 172.5c1.8-.6 3.2-2 5-2.6.7 0 1.3.6 2 .9 10.3 5.9 20.6 11.9 30.9 17.8-.5.2-.9.5-1.3.8-.9-.7-1.8-1.2-2.8-1.7-8.8-5-17.6-10.1-26.3-15.1-.7-.4-1.4-.9-2.1-1.1-.3-.1-.7.1-1.1.2-1.1.7-2.2 1.4-3.3 2-.3.2-.7.4-1.1.2-.9-.4-1.7-1.1-2.8-1.2v-1.4c1-.1 1.8.8 2.9 1.2z"/><path fill="#FCFCFC" d="M254.8 171.2c.3-.1.5 0 .3.3-.3.1-.5 0-.3-.3z"/><path fill="#888989" d="M255.9 171.3c.4.2.9.4 1.3.6-.1.2-.2.3-.3.5-.3.2-.7.4-1 .6v-1.7z"/><path fill="#968D8F" d="M264.7 171.7c.3-.2.7-.4 1.1-.2.7.2 1.5.7 2.1 1.1 8.8 5 17.5 10.2 26.3 15.1 1 .5 1.9 1.1 2.8 1.7-1.2.7-2.4 1.4-3.5 2.1l-.2.1v-.2c0 .5 0 1-.1 1.5-1.1-.6-2.2-1.1-3.3-1.6-.1.7-.1 1.4-.2 2V187c-5-2.8-10-5.7-15.1-8.5-.9-.6-1.8-1.1-2.7-1.5-3.1 1.7-6.1 3.5-9.2 5.3-.8.5-1.7.9-2.4 1.5 0 2-.1 4.1 0 6.1 1.5.9 3.2 1.8 4.7 2.7.7.3 1.3.7 2 .9.3.2.7.2 1 .4.5.7 1.1 1 1.9 1.2.2.1.5.2.7.3.6.5 1.1 1 1.8 1.3l5.4 3 .2.1c.2-2.1 0-4.1.2-6.3.1 2.1-.2 4.2.2 6.3v.2c-.8.4-1.5.9-2.4 1.4-10.4-6-20.9-12-31.3-18.1.9-.7 2-1.2 3-1.9.6-.3.7-1 .9-1.5 1.1.7 2.4 1 3.4 1.9 1.1.9 2.4 1.6 3.7 2v-.2c0-.1 0-.3-.1-.4.1.1.2.2.3.2.9-.8 2-1.4 3-2-.5-.3-1-.7-1.5-1v-7.9c1.1.1 1.9.7 2.8 1.2.4.2.8 0 1.1-.2 1.1-.5 2.3-1.3 3.4-1.8z"/><path fill="#CDCDCD" d="M246.7 174.7c1.5-1.1 3.3-2 4.9-3 .7.5 1.5.8 2.3.5v1.4c-.3.1-.7.2-1 .2-.5-.1-.9-.4-1.3-.6-.8.4-1.6.9-2.4 1.5.4.2.8.5 1.2.7-1.4.8-2.8 1.7-4.2 2.4l.7-.7c-.3-.2-.7-.3-1-.4.3-.2.6-.3.9-.5.4-.2.8-.5 1.2-.7-.4-.3-.9-.6-1.3-.8z"/><path fill="#DDD" d="M254.5 171.8c.2.3.4.7.7 1-.5-.3-1.1-.4-.7-1z"/><path fill="#8F8B8C" d="M255.9 173c.3-.2.7-.3 1-.6.2.5.2 1.1.3 1.5-.4.2-.8.5-1.2.7-.1-.5-.1-1.1-.1-1.6z"/><path fill="#323232" d="M254.1 173.8c.2-.5.7-.7 1.1-.8-.2.4-.7.6-1.1.8z"/><path fill="#635D5E" d="M249.2 174.7l2.4-1.5c.4.2.8.5 1.3.6.3 0 .7-.2 1-.2 0 .6.2 1.3-.5 1.5-.7.3-1.3-.3-1.9-.6-.3.2-.7.4-1 .6 0 .5-.1 1.1-.1 1.5-.7.4-1.2.7-1.9 1.1-.7.4-1.3.7-2 1.1-.3-.2-.7-.4-1-.6.1-.2.2-.5.4-.7 1.5-.7 2.8-1.5 4.2-2.4-.1.1-.5-.2-.9-.4z"/><path fill="#8E8889" d="M255.9 175c.4-.2.8-.4 1.1-.7v3.3c-.4.2-.8.5-1.1.7V175z"/><path fill="#5B5B5B" d="M246.7 174.7c.4.2.8.5 1.2.7-.4.2-.8.5-1.2.7v-1.4z"/><path fill="#A3A3A2" d="M243.6 178c.7-.5 1.5-.9 2.4-1.4.3.2.7.3 1 .4l-.7.7c-.2.2-.4.4-.4.7.3.2.7.4 1 .6.4.2.9.5 1.3.8l-.2.1c-1.6-.6-3.1-1-4.4-1.9z"/><path fill="#624F59" d="M262.8 182.2c3.1-1.8 6.1-3.6 9.2-5.3l2.7 1.5c5 2.8 10 5.7 15.1 8.5-3.9 2.2-7.7 4.5-11.6 6.7-.2 2.1.1 4.1-.2 6.3l-.2-.1c-.1-2 0-4.1 0-6.1-4.6-2.7-9.3-5.3-13.8-8-1.2-.7-2.4-1.4-3.6-2 .6-.6 1.5-1 2.4-1.5z"/><path fill="#CDCCCC" d="M243.1 178.2c.2-.1.3-.2.5-.3 1.3 1 2.8 1.4 4.3 1.9-1.5 1-3.2 1.8-4.6 2.8.5.2.9.5 1.4.8 10.4 6 20.9 12 31.3 18.1.8-.4 1.6-.9 2.4-1.4.1 0 .2-.1.3-.2.5.1 1.1.2 1.5.3-1.4 1-2.8 1.6-4.1 2.6-1-.5-1.9-1-2.8-1.6-.4-.4-.8-.8-1.4-1.1-2.2-1.2-4.3-2.6-6.5-3.7-2.4-1.3-4.6-2.8-7-4.1-1.1-.7-2.2-1.5-3.5-1.8-1.5-.7-3-1.7-4.6-2.5-.2-.1-.4-.2-.7-.3-1.4-1-2.9-1.7-4.4-2.6-1.5-.8-3-1.8-4.6-2.5.7-.7 1.5-1.1 2.3-1.5.9-.4 1.7-.9 2.5-1.5-.7-.3-1.5-.9-2.3-1.4z"/><path fill="#81797B" d="M246.7 179c.7-.3 1.3-.7 2-1.1 2 .7 3.8 1.4 5.6 2.3l-1.2.9c-.2.2-.3.2-.5.4l-.2.2c1.1.7 2.2 1.1 3.2 1.9v.2c-1.4-.3-2.7-1.1-3.7-2-1-.9-2.4-1.1-3.4-1.9-.2-.1-.2-.2-.4-.2-.5-.2-1-.5-1.4-.7z"/><path fill="#8E878A" d="M255.9 179.3c-.2-.7.7-1 1.2-1.3 0 1-.1 2 0 3 .2.7-.7.7-1.1 1 0-.3 0-.7.1-1.1.3.1.7.2 1 .3-.4-.5-1-1.2-1.2-1.9z"/><path fill="#656565" d="M243.1 181.3c-.1-1-.1-2 0-2.9l2.4 1.5c-.8.4-1.6.9-2.4 1.4z"/><path fill="#635D5E" d="M248 179.8c.2.1.2.2.4.2-.2.6-.3 1.2-.9 1.5-1 .6-2 1.1-3 1.9-.5-.2-.9-.5-1.4-.8 1.5-1 3.2-1.8 4.6-2.8h.3z"/><path fill="#C2C1C1" d="M254.5 180.3c.2.2.5.3.7.5.1.3.1.7.1 1.1-.4-.2-.8-.6-1.2-.9.2-.2.4-.5.4-.7z"/><path fill="#AAADAB" d="M269.8 184.7c2.4-1.4 4.8-2.8 7.2-4.1.1.1.3.2.5.3-2.3 1.5-4.8 2.7-7.1 4.2-.1-.2-.3-.3-.6-.4z"/><path fill="#858786" d="M277.6 180.8c.2.5.2 1 .2 1.5-.3.2-.6.3-.9.5-.4-.2-.9-.4-1.3-.2-1.5.8-3 1.7-4.5 2.5 0 .4.1.8.1 1.3-.2.2-.3.2-.5.4-.1 0-.2-.1-.3-.1-.1-.6 0-1.2.1-1.8 2.3-1.4 4.8-2.4 7.1-4.1z"/><path fill="#323232" d="M252.4 181.7l.2-.2c1 .5 2 1.1 2.8 1.7 0 .1 0 .3.1.4-1-.7-2.1-1.2-3.1-1.9z"/><path fill="#ACB0AE" d="M277.8 182.4c.4-.2.7-.4 1.1-.7.2.2.6.2.5.5-2.4 1.1-4.8 2.6-7.1 4-.2-.1-.4-.2-.7-.2 1.6-1.2 3.6-2 5.3-3.1.4-.2.7-.3.9-.5z"/><path fill="#878788" d="M272.4 186.3c2.4-1.4 4.6-2.8 7.1-4 .1.5.2.9.2 1.4-.3.2-.7.3-1 .6-.2-.2-.5-.2-.7-.4-1.6.8-3.3 1.7-4.9 2.8l-.2.2c.1.3.2.7.2 1.1l-.2.2c-.1.1-.3.2-.4.2-.1 0-.2-.1-.2-.2-.1-.8 0-1.3.1-1.9z"/><path fill="#59444F" d="M275.6 182.8c.4-.3.9 0 1.3.2-1.7 1.1-3.6 2-5.3 3.1-.2.7-.2 1.5.2 2.2-.7-.1-1.2-.5-1.6-1 .2-.2.3-.2.5-.4s.3-.2.5-.4c0-.4-.1-.8-.1-1.3 1.6-.8 3.1-1.6 4.5-2.4z"/><path fill="#1E1E1E" d="M240.7 182.7c1.5.8 3 1.7 4.6 2.5 1.5.8 2.9 1.6 4.4 2.6-1.2-.2-2.2-1-3.3-1.5-1.9-1-3.7-2.1-5.6-3.2-.1-.1-.1-.3-.1-.4z"/><path fill="#AAACAB" d="M279.8 183.7c.5-.3 1.2-.8 1.7-.2-2.4 1.3-4.9 2.7-7.2 4.1l-.6-.3c1.5-1 3.2-1.8 4.7-2.8.1-.1.3-.2.5-.2.2-.3.5-.4.9-.6z"/><path fill="#323232" d="M240.7 183.1c1.9 1.1 3.7 2.2 5.6 3.2 1.1.6 2 1.5 3.3 1.5.2.1.4.2.7.3.2.8 1.1 1 1.7 1.4 2.3 1.4 4.6 2.6 6.9 4 2.4 1.5 5 2.8 7.4 4.2 1.9 1.1 3.7 2.3 5.7 3.3 1.3.7 2.4 1.5 3.8 2.1-.1 1.2 0 2.4.1 3.7-.9-.4-1.7-.9-2.5-1.4-10.9-6.3-21.8-12.5-32.7-18.9v-3.4z"/><path fill="#848785" d="M281.4 183.5c.2.6.2 1.3.2 2-.7.2-1.3-.2-2-.2-.5 0-.8.3-1.2.5-1.2.7-2.5 1.4-3.7 2.2.1.2.2.5.2.7.1.5-.6.7-.9.8v-1.9c2.6-1.5 5-2.8 7.4-4.1z"/><path fill="#797879" d="M260.2 183.8c1.2.6 2.4 1.3 3.6 2 4.6 2.7 9.3 5.2 13.8 8 0 2-.1 4.1 0 6.1l-5.4-3c-.7-.3-1.2-.8-1.8-1.3.2-.7.2-1.5.2-2.1-.4-.2-.8-.3-1.1-.5 0 .8 0 1.5.2 2.4-.7-.2-1.4-.7-1.9-1.2 0-.7.2-1.5-.1-2.1-.3-.3-.7-.5-1.1-.7 0 .8.1 1.6.2 2.4-.7-.2-1.3-.6-2-.9-1.5-.9-3.2-1.8-4.7-2.7.1-2.4.1-4.4.1-6.4z"/><path fill="#323232" d="M273.3 186.5c1.5-1.1 3.2-2 4.9-2.8.2.2.5.2.7.4-.1.1-.3.2-.5.2-2 .1-3.4 1.8-5.1 2.2zm5.3-.8c.4-.2.7-.5 1.2-.5.7.1 1.3.4 2 .2.1 0 .2 0 .4-.1-.2.2-.6.6-.9.6-.6-.1-1.1-.3-1.5-.3-.7.2-1.4.7-2.1 1.1-.9.5-2 .8-2.4 2-.1-.2-.2-.5-.2-.7.9-.9 2.2-1.5 3.5-2.3z"/><path fill="#403239" d="M268.4 186c.5-.2.9-.4 1.4-.6-.1.3-.2.6-.2.9.2.2.3.4.5.7-.7-.2-1.3-.5-1.7-1z"/><path fill="#664F38" d="M240.7 186.7c10.9 6.3 21.8 12.5 32.7 18.9.8.5 1.6 1 2.5 1.4 0 .7-.1 1.3-.1 2-1.4-.9-2.8-1.6-4.1-2.4-.1-.1-.3-.2-.4-.2-1.1-.7-2.3-1.3-3.4-2-.2-.1-.3-.2-.5-.3-1.1-.7-2.3-1.3-3.4-2-.2-.1-.3-.2-.5-.3-1.1-.7-2.3-1.3-3.4-2-.2-.1-.3-.2-.5-.3-1.1-.7-2.3-1.3-3.4-2-.2-.1-.3-.2-.5-.3-1.1-.7-2.2-1.3-3.4-2-.1-.1-.3-.2-.4-.2-1.1-.7-2.2-1.4-3.4-2-.2-.1-.3-.2-.6-.3-1.1-.7-2.3-1.3-3.4-2-.2-.1-.3-.2-.5-.3-1.1-.7-2.3-1.3-3.3-2v-1.7z"/><path fill="#CAC9C9" d="M278.1 193.7c3.9-2.2 7.7-4.5 11.6-6.7v6.3c-2.8 1.5-5.5 3.2-8.2 4.7-1.1.7-2.2 1.1-3.2 2-.5-2.1-.2-4.3-.2-6.3z"/><path fill="#152335" d="M261.2 187.5c.5.2 1.1.5 1.5.9.1.2.1.6.1.8-.5-.2-1-.4-1.5-.7 0-.3-.1-.7-.1-1z"/><path fill="#3F3138" d="M272.6 188.3c.1-.1.3-.2.4-.2.2 0 .4-.1.6-.2-.2.7-.1 1.2.4 1.6-.7-.1-1.3-.4-1.7-1 0-.1.2-.2.3-.2z"/><path fill="#1E1E1E" d="M252 189.6c-.6-.4-1.5-.6-1.7-1.4 1.5.7 3 1.8 4.6 2.5 2 1.3 4.1 2.4 6.2 3.7 4.1 2.3 8.1 4.8 12.3 7 .9.7 1.8 1.1 2.8 1.6 0 .1-.1.2-.2.3-1.3-.6-2.5-1.4-3.8-2.1-2-1.1-3.8-2.2-5.7-3.3-2.5-1.4-5-2.8-7.4-4.2-2.4-1.5-4.8-2.7-7.1-4.1z"/><path fill="#2C4258" d="M240.7 188.6c1.1.7 2.3 1.3 3.3 2 0 .9 0 1.8-.1 2.7-1.1-.7-2.2-1.3-3.3-1.9.1-.9.1-1.9.1-2.8z"/><path fill="#8C8C8C" d="M295.9 191.5c1.5-1 3.2-1.9 4.8-2.8.1 24.9 0 49.7 0 74.6.2 1.3-1.4 1.6-2.3 2.1-.2-2.3-.1-4.6-.1-6.8v-63.2c0-.7 0-1.5-.1-2.2-.5-.8-1.5-1.2-2.3-1.7z"/><path fill="#122135" d="M263.7 188.9c.5.2 1.1.5 1.5.9v.8c-.5-.2-1-.5-1.5-.8.1-.2.1-.6 0-.9z"/><path fill="#231E17" d="M244.1 190.5c.2.1.3.2.5.3 0 .8-.2 1.6 0 2.4 0 .3.3.5.6.7.9.6 1.8 1 2.7 1.5 0-.9.1-1.8.1-2.6.2.1.3.2.6.3 0 .9-.2 1.7 0 2.6.9.9 2.2 1.4 3.3 2 .1-.9.1-1.8.1-2.6.1.1.3.2.4.2 0 .9 0 1.9.1 2.8 1.1.7 2.2 1.3 3.3 1.9v-2.7c.2.1.3.2.5.3 0 .9-.2 1.9.1 2.8 1 .8 2.2 1.3 3.3 1.9v-2.7c.2.1.3.2.5.3-.1.9-.1 1.8-.1 2.7 1.1.7 2.3 1.4 3.5 2v-2.7c.2.1.3.2.5.3-.1.9-.1 1.8-.1 2.7 1.1.7 2.3 1.4 3.4 2v-2.7c.2.1.3.2.5.3-.1.9-.1 1.8-.1 2.7 1.1.7 2.3 1.3 3.4 2v-2.7c.1.1.3.2.4.2 0 .9 0 1.9.1 2.8 1.4.8 2.8 1.5 4.1 2.4v.4c-.6-.3-1.2-.7-1.8-1-11.1-6.4-22.2-12.8-33.4-19.3v-.4c1.1.6 2.2 1.2 3.3 1.9.2-1.2.2-2.1.2-3z"/><path fill="#FFF" d="M254.9 190.7c1.3.2 2.4 1.1 3.5 1.8 2.4 1.3 4.7 2.7 7 4.1 2.2 1.1 4.3 2.5 6.5 3.7.5.2 1 .7 1.4 1.1-4.1-2.2-8.1-4.7-12.3-7-2.1-1.3-4.2-2.4-6.1-3.7z"/><path fill="#2F4758" d="M244.6 190.9c1.1.7 2.3 1.2 3.4 2 0 .9-.1 1.7-.1 2.6-.9-.5-1.8-.9-2.7-1.5-.2-.2-.6-.3-.6-.7-.1-.8 0-1.6 0-2.4z"/><path fill="#1E2238" d="M266.8 191.1c.4.2.8.4 1.1.7.2.7.1 1.4.1 2.1-.3-.2-.7-.2-1-.4-.2-.8-.2-1.6-.2-2.4z"/><path fill="#7B7375" d="M289.8 191.3c1.1.6 2.2 1.1 3.3 1.6 0-.5.1-1 .1-1.5v.2c.1.4.1.8.2 1.2.2.5.7.7 1.1 1.1-1.1.7-2.4 1.4-3.5 2 .2.1.2.2.4.3.2.2.6.4.8.6-.7.3-1.2.7-2 1-.8.4-1.7-.6-2.4 0-1.5.8-2.9 1.7-4.4 2.6-.9-.5-1.6-1.3-2.7-1.5-.8.2-1.5.9-2.2 1.2-.1.1-.2.1-.3.2v-.2c1-.8 2.1-1.3 3.2-2 2.8-1.5 5.5-3.2 8.2-4.7.1-.8.2-1.5.2-2.1z"/><path fill="#21375C" d="M286.3 192.2c.3-.5 1-.7 1.5-.9 0 .3 0 .7-.1 1-.5.2-.9.5-1.4.7v-.8z"/><path fill="#625C5D" d="M293.2 191.6l.2-.1c.9.4 1.7 1 2.4 1.5-.3.2-.7.4-1 .6-.1.1-.2.2-.3.2-.4-.3-.9-.6-1.1-1.1-.1-.3-.1-.7-.2-1.1z"/><path fill="#664F38" d="M240.8 191.8c11.1 6.4 22.2 12.9 33.4 19.3.6.3 1.1.7 1.8 1v2c-1.4-.9-2.8-1.6-4.1-2.4-.1-.1-.3-.2-.4-.2-1.1-.7-2.3-1.3-3.4-2-.2-.1-.3-.2-.5-.3-1.1-.7-2.3-1.3-3.4-2-.2-.1-.3-.2-.5-.3-1.1-.7-2.3-1.3-3.4-2-.2-.1-.3-.2-.5-.3-1.1-.7-2.3-1.3-3.4-2-.2-.1-.3-.2-.5-.3-1.1-.7-2.3-1.3-3.4-2-.1-.1-.3-.2-.4-.2-1.1-.7-2.2-1.4-3.4-2-.2-.1-.3-.2-.6-.3-1.1-.7-2.2-1.3-3.3-2-.2-.1-.3-.2-.5-.3-1.1-.7-2.3-1.3-3.3-2-.3-.4-.2-1.1-.2-1.7z"/><path fill="#1E2238" d="M269.6 192.8c.4.2.8.3 1.1.5.1.7 0 1.5-.2 2.1-.2-.1-.5-.2-.7-.3-.2-.7-.2-1.5-.2-2.3z"/><path fill="#283D55" d="M248.5 193.1c1.1.7 2.3 1.3 3.4 2 0 .9 0 1.8-.1 2.6-1.1-.6-2.4-1.1-3.3-2-.1-.9 0-1.8 0-2.6z"/><path fill="#223B59" d="M283.1 193.9c.5-.2 1.1-.5 1.5-.7-.1.3-.1.7-.2 1-.4.3-.8.6-1.3.7v-1z"/><path fill="#A1A0A0" d="M293.5 195.8c1.5-.9 3.2-1.9 4.8-2.7.1.7.1 1.5.1 2.2v63.2c0 2.3-.1 4.6.1 6.8 0 1.1-.1 2.1-.1 3.2-1.1.7-2.4 1.4-3.5 2.1-.2-1.8-.2-3.6-.2-5.4 0-3.2.1-6.3 0-9.4.1-2.5 0-5 0-7.6v-46.6c.1-1.2 0-2.4 0-3.7 0-.5 0-1-.1-1.5-.3 0-.7-.3-1.1-.6z"/><path fill="#2C4258" d="M240.7 193.7c1.1.7 2.3 1.3 3.3 2 0 .9 0 1.8-.1 2.7-1.1-.7-2.2-1.3-3.3-1.9.1-.9.1-1.9.1-2.8z"/><path fill="#A8A9A9" d="M294.6 193.8c.1-.1.2-.2.3-.2.2.2.4.3.6.5-1.3.7-2.6 1.3-4 2-.2-.1-.2-.2-.4-.3 1.1-.6 2.3-1.3 3.5-2z"/><path fill="#142134" d="M272.4 194.1c.6.2 1.1.5 1.6.8 0 .3 0 .6-.1.9-.5-.2-1.1-.5-1.5-.7v-1z"/><path fill="#1C3559" d="M279.9 195.9c.5-.3 1.1-.6 1.5-.9 0 .3-.1.7-.2 1-.4.3-.9.5-1.3.7v-.8z"/><path fill="#304660" d="M252.4 195.3c1.1.6 2.3 1.3 3.4 2v2.7c-1.1-.6-2.3-1.2-3.3-1.9-.1-1-.1-1.9-.1-2.8z"/><path fill="#131F33" d="M275.1 195.5c.5.2 1 .4 1.4.7.1.3.1.7.1 1-.5-.2-1.1-.5-1.5-.8-.1-.3-.1-.6 0-.9z"/><path fill="#231E17" d="M244.1 195.7c.2.1.3.2.5.3-.1.8-.2 1.6 0 2.4 0 .3.3.5.6.7.9.6 1.8 1 2.7 1.5 0-.9.1-1.7.1-2.6.2.1.3.2.6.3 0 .9-.2 1.7 0 2.6.9.9 2.2 1.4 3.3 2 .1-.9.1-1.8.1-2.6.1.1.3.2.4.2 0 .8-.1 1.7.1 2.5.1.3.3.5.6.7.9.6 1.8 1 2.7 1.5v-2.7c.2.1.3.2.5.3 0 .8-.2 1.6 0 2.5 0 .2.3.4.5.6.9.7 2 1.1 2.9 1.6v-2.7c.2.1.3.2.5.3-.1.9-.1 1.8-.1 2.7 1.1.7 2.3 1.4 3.5 2v-2.7c.2.1.3.2.5.3-.1.9-.1 1.8-.1 2.7 1.1.7 2.3 1.3 3.4 2v-2.7c.2.1.3.2.5.3-.1.9-.1 1.8-.1 2.7 1.1.7 2.3 1.3 3.4 2 0-.9 0-1.8.1-2.7.1.1.3.2.4.2v2.8c1.4.8 2.8 1.5 4.1 2.4v.4c-1.1-.6-2.2-1.2-3.3-1.9l-31.8-18.3v-.4c1.1.6 2.2 1.2 3.3 1.9.1-1.4.1-2.2.1-3.1z"/><path fill="#2F4758" d="M244.6 196c1.1.7 2.3 1.2 3.3 2 0 .9-.1 1.7-.1 2.6-.9-.5-1.8-.9-2.7-1.5-.2-.2-.6-.3-.6-.7 0-.8.1-1.6.1-2.4z"/><path fill="#C8C7C7" d="M291.2 198.6c.7-.8 1.2-1.8 2-2.6.5.7 1 1.4 1.5 2 .1 1.2.1 2.4 0 3.7v46.6c-.1 2.5.1 5 0 7.6.1 3.2 0 6.3 0 9.4 0 1.8-.1 3.6.2 5.4 0 .6.2 1.4-.4 1.7-1.3.9-2.8 1.6-4.1 2.4-.2-.9-.2-1.8-.2-2.7.1-1.6-.1-3.3 0-4.9.1-1.1.1-2 0-3.1-.2-1.8.1-3.7 0-5.5-.1-1.1-.1-2.3 0-3.3.1-1.7-.2-3.4 0-5.1.1-2-.1-4 0-5.9.2-2.2-.2-4.4 0-6.6.1-1.9-.1-3.7 0-5.5.1-1.5-.1-3-.1-4.6.1-1.5.1-3 0-4.5s.2-3.2 0-4.7c-.2-2.2.2-4.4 0-6.6-.1-1.6.2-3.3 0-5-.1-1.7-.1-3.5.1-5.3.1-.7.1-1.5.2-2.3.3 0 .6-.3.8-.6z"/><path fill="#664F38" d="M240.8 197l31.8 18.3c1.1.7 2.2 1.3 3.3 1.9v1.9c-1.5-.7-2.8-1.5-4.1-2.3-.1-.1-.3-.2-.4-.2-1.1-.7-2.3-1.4-3.5-2-.1-.1-.3-.2-.4-.2-1.1-.7-2.3-1.3-3.4-2-.2-.1-.3-.2-.5-.3-1.1-.7-2.3-1.3-3.4-2-.2-.1-.3-.2-.5-.3-1.1-.7-2.3-1.3-3.4-2-.2-.1-.3-.2-.5-.3-1.1-.7-2.3-1.3-3.4-2-.1-.1-.3-.2-.4-.2-1.1-.7-2.2-1.4-3.4-2-.2-.1-.3-.2-.5-.3-1.1-.7-2.2-1.3-3.4-2-.2-.1-.3-.2-.5-.3-1.1-.7-2.3-1.3-3.4-2-.1-.5 0-1.2 0-1.7z"/><path fill="#0B0C0F" d="M296.5 197.1c.1-.1.3-.2.4-.2.1 1.1 0 2.2 0 3.3-.5.3-1.1.7-1.6.9 0-.1.1-.3.2-.4.4-.2.8-.4 1.1-.8.1-.9-.1-1.9-.1-2.8z"/><path fill="#4D6F85" d="M295.3 197.7c.3-.2.7-.4 1.1-.7.1.9.2 1.9 0 2.8-.2.4-.7.6-1.1.8 0-.9-.1-1.8 0-2.9z"/><path fill="#2B4158" d="M256.3 197.5c1.1.7 2.3 1.2 3.4 2v2.7c-1.1-.6-2.3-1.1-3.3-1.9-.4-.9-.1-1.9-.1-2.8z"/><path fill="#283D55" d="M248.5 198.2c1.1.6 2.3 1.3 3.4 2 0 .9 0 1.8-.1 2.6-1.1-.6-2.4-1.1-3.3-2-.1-.8 0-1.7 0-2.6z"/><path fill="#D6D7D7" d="M288.4 198.3c.6.2 1.4.3 1.5 1.1.2.8.3 1.6.4 2.4-.2 1.7-.2 3.5-.1 5.3.1 1.6-.2 3.3 0 5 .2 2.2-.2 4.4 0 6.6.1 1.5-.1 3.2 0 4.7s0 3 0 4.5c-.1 1.5.2 3 .1 4.6-.2 1.9.1 3.7 0 5.5-.2 2.2.2 4.4 0 6.6-.1 2 .1 4 0 5.9-.1 1.7.2 3.4 0 5.1-.1 1.1 0 2.3 0 3.3.1 1.8-.2 3.7 0 5.5.1 1.1.1 2 0 3.1-.1 1.6.1 3.3 0 4.9-.1.9 0 1.8.2 2.7-.2.1-.5.2-.7.2.1-1.1.1-2.3.1-3.4v-72.2c-.3-.2-.7-.5-1-.7-.3-.4-.4-.6-.5-.7z"/><path fill="#A7A6A6" d="M280.8 198.8c1 .2 1.8 1 2.7 1.5-.4.2-.9.4-1.3.6-.5-.3-1.1-.7-1.6-.6-.1 0-.2.1-.4.1-.5-.1-1.1-.2-1.5-.3.7-.5 1.3-1 2.1-1.3z"/><path fill="#2C4258" d="M240.7 198.8c1.1.7 2.3 1.3 3.4 2 0 .9 0 1.8-.1 2.6l-3.3-1.8v-2.8z"/><path fill="#A2A1A1" d="M283.4 201.5c1.7-.8 3.3-2 5.1-2.7v70.8c0 1.5-.1 3.1 0 4.6-.1.1-.3.2-.5.3-1.5.7-3 1.7-4.6 2.4-.1-4.6 0-9-.1-13.6V205c0-1.1 0-2-.1-3.1.2 0 .2-.1.2-.4z"/><path fill="#393838" d="M288.5 198.9c.1 0 .2-.1.3-.1.3.2.7.5 1 .7.1 24.1 0 48.2 0 72.2 0 1.1 0 2.3-.1 3.4-.1-.1-.2-.2-.3-.2-.1-9.9 0-19.9 0-29.9v-41.5c0-1.4.1-2.7-.1-4.1-.4.8-.2 1.7-.3 2.6 0 1.1-.2 2.4-.1 3.5.2 3.3.2 6.7 0 9.9 0 2.3.1 4.6.1 6.9 0 2.1-.2 4.2-.1 6.3 0 2.9.2 5.9.1 8.8-.2 2 .1 4.1 0 6 0 2 .2 3.8 0 5.8-.2 3.7.2 7.6 0 11.3-.2 4.6.4 9.2-.2 13.7l-.2-.2c-.1-1.5 0-3.1 0-4.6-.1-23.4-.1-46.9-.1-70.5z"/><path fill="#464545" d="M289 202.1c0-.9-.1-1.8.3-2.6.2 1.3.1 2.7.1 4.1v41.5c0 9.9-.1 19.9 0 29.9-.2-.2-.4-.3-.7-.5.7-4.6-.1-9.1.2-13.7.2-3.7-.2-7.6 0-11.3.2-2 0-3.8 0-5.8.1-2-.2-4.1 0-6 .2-2.9 0-5.9-.1-8.8-.1-2.1.2-4.2.1-6.3 0-2.3-.2-4.6-.1-6.9.2-3.3.1-6.7 0-9.9 0-1.4.1-2.5.2-3.7z"/><path fill="#283D54" d="M260.2 199.7c1.1.7 2.3 1.3 3.4 2v2.7c-1.2-.6-2.4-1.2-3.5-2 0-.8 0-1.7.1-2.7z"/><path fill="#323131" d="M280.6 200.3c.7-.1 1.1.3 1.6.6.4.2.7.5 1.1.7v.5c-.1 7 0 14-.1 21V273c0 1.2.1 2.4-.2 3.6-.2-1.2-.2-2.4-.1-3.6v-67.9c0-1.1.2-2.1-.2-3.2-.5-.6-1.2-.7-1.9-1 0-.3-.1-.4-.2-.6z"/><path fill="#646464" d="M280.2 200.4c.1 0 .2-.1.4-.1.2.2.3.3.4.6-.1 1.1-.2 2.1-.1 3.2-1.5 1.1-3.3 2-5 2.9 0-1.2-.2-2.4-.1-3.7 0-.1.1-.2.2-.3 1.3-1 2.9-1.7 4.2-2.6z"/><path fill="#304660" d="M252.4 200.4c1.1.6 2.3 1.3 3.4 2v2.7c-.9-.5-1.8-.9-2.7-1.5-.2-.2-.6-.3-.6-.7-.2-.8-.1-1.7-.1-2.5z"/><path fill="#231D17" d="M244.1 200.8c.2.1.3.2.5.3-.1.9-.1 1.9 0 2.8 1.1.6 2.1 1.2 3.3 1.8 0-.9.1-1.7.1-2.6.2.1.3.2.5.3-.1.9-.1 1.8-.1 2.7 1.1.7 2.2 1.4 3.3 2 .1-.9.1-1.8.1-2.6.1.1.3.2.4.2 0 .9-.2 2 .2 2.8.9.8 2.1 1.3 3.2 1.9v-2.7c.2.1.3.2.5.3 0 .8-.2 1.6 0 2.5 0 .2.2.4.5.6.9.6 2 1.1 2.9 1.6V210c.2.1.3.2.5.3-.1.9-.1 1.8-.1 2.7 1.1.7 2.3 1.4 3.5 2v-2.7c.2.1.3.2.5.3-.1.9-.1 1.8-.1 2.7 1.1.7 2.3 1.3 3.4 2v-2.7c.1.1.3.2.4.2 0 .9 0 1.9.1 2.8 1.1.7 2.2 1.4 3.4 2 0-.9 0-1.8.1-2.7.1.1.3.2.4.2v2.8c1.4.8 2.8 1.5 4.1 2.4v.4c-4.8-2.7-9.6-5.5-14.4-8.2l-20.7-12v-.4l3.3 1.8c.2-1.3.2-2.2.2-3.1z"/><path fill="#474646" d="M281 200.8c.7.2 1.5.4 1.9 1 .3 1.1.1 2.1.2 3.2v67.9c0 1.2-.1 2.4.1 3.6.2-1.2.2-2.4.2-3.6V223c0-7-.1-14 .1-21 .1 1.1.1 2 .1 3.1v58.3c0 4.6-.1 9 .1 13.6-.8-.5-1.7-1-2.5-1.5 0-2.7 0-5.3-.1-7.9 0-.1.1-.3.2-.4.4-1.1.2-2.4.2-3.5v-56.2c0-1.1.2-2.3-.3-3.3l-.1-.2c-.2-1.1-.2-2.2-.1-3.2z"/><path fill="#2F4758" d="M244.6 201.1c1.1.6 2.3 1.2 3.4 2 0 .9-.1 1.7-.1 2.6-1.1-.5-2.2-1.1-3.3-1.8-.1-.9-.1-1.9 0-2.8z"/><path fill="#664F38" d="M240.8 202.1l20.7 12c4.8 2.8 9.5 5.5 14.4 8.2v1.9c-1.5-.7-2.8-1.5-4.1-2.3-.1-.1-.3-.2-.4-.2-1.1-.7-2.3-1.4-3.5-2-.1-.1-.3-.2-.4-.2-1.1-.7-2.3-1.4-3.5-2-.1-.1-.3-.2-.4-.2-1.1-.7-2.3-1.3-3.4-2-.2-.1-.3-.2-.5-.3-1.1-.7-2.3-1.3-3.4-2-.2-.1-.3-.2-.5-.3-1.1-.7-2.3-1.3-3.4-2-.2-.1-.3-.2-.5-.3-1.1-.7-2.2-1.3-3.3-1.9-.2-.1-.3-.2-.6-.3-1.1-.7-2.2-1.3-3.3-2-.2-.1-.3-.2-.5-.3-1.1-.7-2.3-1.4-3.4-2-.1-.6 0-1.2 0-1.8z"/><path fill="#2F4758" d="M264.1 202c1.1.7 2.3 1.2 3.4 2v2.7c-1.2-.6-2.3-1.2-3.4-2-.1-.9-.1-1.8 0-2.7z"/><path fill="#0B0F13" d="M286.4 202.3c.1-.1.2-.2.4-.3 0 1.1.2 2.4-.1 3.5-.5.4-1.1.7-1.6.8l.2-.2c.3-.3.8-.6 1.1-1 0-.9-.1-1.8 0-2.8z"/><path fill="#395566" d="M285.1 203c.4-.2.8-.4 1.2-.7-.1.9.1 1.9-.1 2.8-.2.4-.7.7-1.1 1V203z"/><path fill="#2B4158" d="M256.3 202.7c1.1.7 2.3 1.2 3.4 2v2.7c-1-.5-2-1-2.9-1.6-.2-.2-.5-.2-.5-.6-.2-.9-.1-1.7 0-2.5z"/><path fill="#090B0D" d="M296.5 203.1c.1-.1.3-.2.4-.2 0 1.1.2 2.2 0 3.3-.4.5-1.1.7-1.6 1 .1-.1.2-.3.2-.4.4-.2.8-.4 1.1-.8.1-1.1-.1-2-.1-2.9z"/><path fill="#4C7085" d="M295.3 203.8c.2-.4.7-.5 1.1-.7.1.9.2 1.9 0 2.8-.2.3-.7.6-1.1.8 0-1-.1-1.9 0-2.9z"/><path fill="#283D55" d="M248.5 203.3c1.1.6 2.3 1.3 3.4 2 0 .9 0 1.8-.1 2.6-1.1-.6-2.3-1.2-3.3-2-.1-.8 0-1.7 0-2.6z"/><path fill="#2C4258" d="M240.7 204c1.1.7 2.3 1.3 3.4 2 0 .9 0 1.8-.1 2.6l-3.3-1.8V204z"/><path fill="#C89B6D" d="M275.9 206.9c1.6-1 3.4-1.8 5-2.9l.1.2v1.8c-1.7 1-3.3 2-5 2.9-.1-.7-.1-1.4-.1-2z"/><path fill="#323232" d="M281 204.2c.5 1.1.2 2.2.3 3.3v56.2c0 1.1.2 2.4-.2 3.5 0-.5-.1-1-.1-1.5-.1-1.1-.1-2.2-.1-3.3v-20.9c0-.7 0-1.3.1-1.9v-34.5c-.1.2 0-.3 0-.9z"/><path fill="#283D54" d="M267.9 204.3c1.1.7 2.3 1.3 3.4 2v2.7c-1.1-.6-2.3-1.2-3.4-2-.1-.9-.1-1.8 0-2.7zm-7.7.6c1.1.7 2.3 1.3 3.4 2v2.7c-1.2-.6-2.4-1.3-3.5-2 0-.9 0-1.8.1-2.7z"/><path fill="#304660" d="M252.4 205.5c1.1.6 2.3 1.3 3.4 2v2.7c-1.1-.6-2.3-1.1-3.2-1.9-.4-.8-.2-1.8-.2-2.8z"/><path fill="#231D17" d="M244.1 205.9c.2.1.3.2.5.3-.1.8-.2 1.6 0 2.4 0 .3.3.5.6.7.9.6 1.8 1 2.7 1.5 0-.9.1-1.7.1-2.6.2.1.3.2.6.3 0 .9-.2 1.8 0 2.6.9.9 2.2 1.4 3.3 2 .1-.9.1-1.8 0-2.7.2.1.3.2.5.3 0 .9-.2 2 .2 2.8.9.8 2.1 1.3 3.2 1.9v-2.7c.2.1.3.2.5.3 0 .9-.1 1.8-.1 2.7 1.1.7 2.3 1.4 3.4 2V215c.2.1.3.2.5.3-.1.9-.1 1.8-.1 2.7 1.1.7 2.3 1.4 3.5 2v-2.7c.1.1.3.2.4.2v2.8c1.1.7 2.3 1.3 3.4 2v-2.7c.1.1.3.2.4.2v2.8c1.1.7 2.3 1.3 3.4 2 0-.9 0-1.8.1-2.7.1.1.3.2.4.2v2.8c1.4.8 2.8 1.5 4.1 2.4v.4c-4.8-2.7-9.6-5.5-14.4-8.2l-20.7-12v-.4l3.3 1.8c.2-1.2.2-2.1.2-3z"/><path fill="#5685AF" d="M275.9 208.8c1.7-1 3.3-2 5-2.9v3.3c-1.7 1-3.4 1.9-5 2.9v-3.3z"/><path fill="#304758" d="M244.6 206.2c1.1.6 2.3 1.2 3.3 2 0 .9-.1 1.7-.1 2.6-.9-.5-1.8-.9-2.7-1.5-.2-.2-.6-.3-.6-.7 0-.7.1-1.6.1-2.4z"/><path fill="#2A4057" d="M271.7 206.5c1.4.8 2.8 1.5 4.1 2.4v2.7c-1.3-.8-2.8-1.5-4.1-2.4v-2.7z"/><path fill="#664F38" d="M240.8 207.2l20.7 12c4.8 2.8 9.5 5.5 14.4 8.2v1.9c-1.4-.7-2.8-1.5-4.1-2.3-.1-.1-.3-.2-.4-.2-1.1-.7-2.3-1.4-3.5-2-.1-.1-.3-.2-.4-.2-1.1-.7-2.3-1.4-3.5-2-.1-.1-.3-.2-.4-.2-1.1-.7-2.3-1.3-3.4-2-.2-.1-.3-.2-.5-.3-1.1-.7-2.3-1.3-3.4-2-.2-.1-.3-.2-.5-.3-1.1-.7-2.3-1.3-3.4-2-.2-.1-.3-.2-.5-.3-1.1-.7-2.2-1.3-3.3-1.9-.2-.1-.3-.2-.5-.3-1.1-.7-2.2-1.3-3.3-2-.2-.1-.3-.2-.5-.3-1.1-.7-2.3-1.4-3.4-2-.2-.6-.1-1.2-.1-1.8z"/><path fill="#2F4758" d="M264.1 207.1c1.1.7 2.3 1.2 3.4 2v2.7c-1.1-.6-2.3-1.2-3.4-2-.1-.9-.1-1.8 0-2.7z"/><path fill="#2B4158" d="M256.3 207.8c1.1.7 2.3 1.3 3.4 2v2.7c-1-.5-2-1-2.9-1.6-.2-.2-.4-.2-.5-.6-.2-.9-.1-1.7 0-2.5z"/><path fill="#0B0E13" d="M286.3 208.3c.1-.1.3-.2.4-.2v3.5c-.6.3-1.1.7-1.7.8.1-.1.2-.2.2-.3.3-.3.8-.6 1.1-1 .1-1 .1-1.9 0-2.8z"/><path fill="#3A5667" d="M285.1 208.9c.4-.2.7-.4 1.1-.7 0 .9.2 1.9-.1 2.8-.2.4-.7.7-1.1 1 .1-1 .1-2 .1-3.1z"/><path fill="#283D55" d="M248.5 208.4c1.1.6 2.2 1.2 3.3 1.9.1.9.1 1.8 0 2.7-1.1-.7-2.4-1.1-3.3-2-.1-.8 0-1.7 0-2.6z"/><path fill="#0A0C0F" d="M296.5 209c.1-.1.3-.2.4-.2 0 1.1.2 2.2 0 3.3-.4.5-1.1.7-1.6.9.1-.1.2-.3.2-.4.4-.2.8-.4 1.1-.8 0-.8-.1-1.8-.1-2.8z"/><path fill="#2C4258" d="M240.7 209.1c1.1.7 2.3 1.3 3.4 2 0 .9 0 1.8-.1 2.6l-3.3-1.8v-2.8z"/><path fill="#4B6F85" d="M295.3 209.7c.3-.3.7-.5 1.1-.7.1.9.2 1.9 0 2.8-.2.3-.7.6-1.1.8 0-.9-.1-1.9 0-2.9z"/><path fill="#C89B6B" d="M275.9 212.2c1.6-1.1 3.3-2 5-2.9v1.9c-1.7 1-3.3 2-5 2.9v-1.9z"/><path fill="#283D54" d="M267.9 209.4c1.1.7 2.3 1.2 3.4 2 0 .9 0 1.8-.1 2.7-1.1-.6-2.3-1.2-3.4-2 0-.9 0-1.8.1-2.7zm-7.7.7c1.1.7 2.3 1.3 3.4 2v2.7c-1.2-.6-2.4-1.3-3.5-2 0-.9 0-1.8.1-2.7z"/><path fill="#304660" d="M252.4 210.6c1.1.7 2.3 1.3 3.4 2v2.7c-1.1-.6-2.2-1.1-3.2-1.9-.4-.8-.2-1.8-.2-2.8z"/><path fill="#231D17" d="M244.1 211c.2.1.3.2.5.3-.1.8-.2 1.6 0 2.4 0 .3.3.5.6.7.9.6 1.8 1 2.7 1.5 0-.9.1-1.7.1-2.6.2.1.3.2.5.3-.1.9-.1 1.8 0 2.7 1.1.7 2.2 1.4 3.3 2 .1-.9.1-1.8 0-2.7.2.1.3.2.5.3 0 .9-.2 2 .2 2.8.9.8 2.1 1.3 3.2 1.9v-2.7c.2.1.3.2.5.3 0 .9-.1 1.8-.1 2.7 1.1.7 2.3 1.4 3.4 2v-2.7c.2.1.3.2.5.3-.1.9-.1 1.8-.1 2.7 1.1.7 2.3 1.4 3.5 2v-2.7c.1.1.3.2.4.2v2.8c1.1.7 2.3 1.3 3.4 2v-2.7c.1.1.3.2.4.2v2.8c1.1.7 2.3 1.3 3.4 2 0-.9 0-1.8.1-2.7.1.1.3.2.4.2v2.8c1.4.8 2.8 1.5 4.1 2.4v.4c-3.9-2.1-7.6-4.4-11.6-6.6-7.9-4.6-15.7-9-23.6-13.6v-.4l3.3 1.8c.4-1.3.4-2.2.4-3.1z"/><path fill="#5685AF" d="M275.9 214c1.7-1 3.3-2 5-2.9v3.3c-1.7 1-3.4 1.9-5 2.9V214z"/><path fill="#304758" d="M244.6 211.4c1.1.7 2.3 1.2 3.3 2 0 .9-.1 1.7-.1 2.6-.9-.5-1.8-.9-2.7-1.5-.2-.2-.6-.3-.6-.7 0-.8.1-1.6.1-2.4z"/><path fill="#2A4057" d="M271.7 211.6c1.4.8 2.8 1.5 4.1 2.4v2.8c-1.3-.9-2.8-1.5-4.1-2.4v-2.8z"/><path fill="#664F38" d="M240.8 212.3c7.9 4.6 15.7 9 23.6 13.6 3.8 2.2 7.6 4.5 11.6 6.6v1.8c-1.4-.7-2.8-1.5-4.1-2.3-.1-.1-.3-.2-.4-.2-1.1-.7-2.3-1.4-3.5-2-.1-.1-.3-.2-.4-.2-1.1-.7-2.3-1.4-3.5-2-.1-.1-.3-.2-.4-.2-1.1-.7-2.3-1.3-3.4-2-.2-.1-.3-.2-.5-.3-1.1-.7-2.3-1.3-3.4-2-.2-.1-.3-.2-.5-.3-1.1-.7-2.3-1.3-3.4-2-.2-.1-.3-.2-.5-.3-1.1-.7-2.2-1.3-3.3-1.9-.2-.1-.3-.2-.5-.3-1.1-.7-2.2-1.3-3.3-2-.2-.1-.3-.2-.5-.3-1.1-.7-2.2-1.4-3.4-2-.3-.4-.2-1.1-.2-1.7z"/><path fill="#2F4758" d="M264.1 212.3c1.1.7 2.3 1.2 3.4 2v2.7c-1.1-.6-2.3-1.2-3.4-2-.1-1-.1-1.8 0-2.7z"/><path fill="#2B4158" d="M256.3 212.9c1.1.7 2.3 1.2 3.4 2v2.7c-1.1-.6-2.3-1.2-3.4-2-.1-.9-.1-1.8 0-2.7z"/><path fill="#283D55" d="M248.5 213.6c1.1.6 2.2 1.2 3.3 1.9.1.9.1 1.8 0 2.7-1.2-.6-2.3-1.2-3.3-2-.1-.9 0-1.7 0-2.6z"/><path fill="#080B0F" d="M286.3 214.2c.1-.1.3-.2.4-.2v3.5c-.5.2-1 .5-1.4.8 0-.1.1-.2.1-.3.2-.3.6-.6.9-.9.2-1 .1-1.9 0-2.9z"/><path fill="#2C4258" d="M240.7 214.2c1.1.7 2.3 1.3 3.4 2 0 .9 0 1.8-.1 2.6l-3.3-1.8v-2.8z"/><path fill="#395364" d="M285.1 214.9c.4-.2.7-.4 1.1-.7 0 .9.2 1.9-.1 2.8-.2.3-.6.6-.9.9 0 .1-.1.2-.1.3l-.1.2c.1-1.2.2-2.3.1-3.5z"/><path fill="#283D54" d="M267.8 214.5c1.1.7 2.4 1.3 3.5 2 0 .9 0 1.8-.1 2.7-1.1-.6-2.3-1.2-3.4-2v-2.7z"/><path fill="#C99A6A" d="M275.9 217.3c1.6-1.1 3.3-2 5-2.9v1.9c-1.7 1-3.4 1.9-5 2.9v-1.9z"/><path fill="#090B0D" d="M296.5 215c.1-.1.3-.2.4-.2 0 1.1.2 2.2 0 3.3-.3.6-1.1.7-1.6.9.1-.1.2-.3.2-.4.4-.2.8-.4 1.1-.8.1-.9-.1-1.9-.1-2.8z"/><path fill="#4A6D82" d="M295.3 215.8c.2-.4.7-.5 1.1-.7.1.9.2 1.9 0 2.8-.2.3-.7.6-1.1.8 0-1.1-.1-2 0-2.9z"/><path fill="#283D54" d="M260.2 215.2c1.1.7 2.3 1.3 3.4 2v2.7c-1.2-.6-2.4-1.3-3.5-2 0-.9 0-1.8.1-2.7z"/><path fill="#304660" d="M252.4 215.8c1.1.7 2.3 1.3 3.4 2v2.7c-1.1-.6-2.3-1.1-3.2-1.9-.5-.9-.2-1.9-.2-2.8z"/><path fill="#231E17" d="M244.1 216.2c.2.1.3.2.5.3 0 .9-.2 1.8.1 2.6.9.9 2.1 1.3 3.3 2 0-.9.1-1.7.1-2.6.2.1.3.2.5.3-.1.9-.1 1.8-.1 2.7 1.1.7 2.2 1.4 3.4 2 .1-.9 0-1.8 0-2.7.2.1.3.2.5.3 0 .9-.2 2 .2 2.8.9.8 2.1 1.2 3.2 1.9v-2.7c.2.1.3.2.5.3 0 .9-.1 1.8 0 2.7 1.1.7 2.2 1.4 3.4 2v-2.7c.2.1.3.2.5.3-.1.9-.1 1.8-.1 2.7 1.1.7 2.3 1.4 3.4 2v-2.8c.1.1.3.2.4.2v2.8c1.1.7 2.3 1.3 3.4 2v-2.7c.1.1.3.2.4.2v2.8c1.1.7 2.2 1.3 3.4 2 0-.9 0-1.8.1-2.7.1.1.3.2.4.2v2.8c1.4.8 2.8 1.5 4.1 2.4v.4c-5-2.8-9.8-5.6-14.6-8.4-6.8-3.9-13.7-7.9-20.4-11.8v-.4l3.3 1.8c.1-1.2.1-2.1.1-3z"/><path fill="#5685AF" d="M275.9 219.2c1.6-1.1 3.3-2 5-2.9v3.3c-1.7.9-3.4 1.9-5 2.9v-3.3z"/><path fill="#304758" d="M244.6 216.5c1.1.6 2.3 1.2 3.3 2 0 .9-.1 1.7-.1 2.6-1.1-.7-2.4-1.1-3.3-2 0-.9.1-1.8.1-2.6z"/><path fill="#2A4057" d="M271.7 216.7c1.4.7 2.7 1.6 4.1 2.3v2.9c-1.3-.9-2.8-1.5-4.1-2.4v-2.8z"/><path fill="#2F4758" d="M264 217.3c1.1.7 2.4 1.3 3.5 2v2.7c-1.1-.6-2.3-1.2-3.4-2-.1-.8-.1-1.7-.1-2.7z"/><path fill="#664F38" d="M240.8 217.5c6.8 3.9 13.7 7.9 20.4 11.8 4.9 2.8 9.8 5.7 14.6 8.4v1.8c-1.4-.7-2.8-1.5-4.1-2.3-.1-.1-.3-.2-.4-.2-1.1-.7-2.3-1.4-3.5-2-.1-.1-.3-.2-.4-.2-1.1-.7-2.3-1.4-3.5-2-.1-.1-.3-.2-.4-.2-1.1-.7-2.3-1.3-3.4-2-.2-.1-.3-.2-.5-.3-1.1-.7-2.3-1.3-3.4-2-.2-.1-.3-.2-.5-.3-1.1-.7-2.3-1.3-3.4-2-.2-.1-.3-.2-.5-.3-1.1-.7-2.2-1.3-3.3-1.9-.2-.1-.3-.2-.5-.3-1.1-.7-2.2-1.3-3.4-2-.2-.1-.3-.2-.5-.3-1.1-.7-2.2-1.4-3.4-2 0-.5.1-1.2.1-1.7z"/><path fill="#2B4158" d="M256.3 218c1.1.7 2.3 1.2 3.4 2v2.7c-1.1-.6-2.3-1.2-3.4-2-.1-.9-.1-1.8 0-2.7z"/><path fill="#283D55" d="M248.5 218.8c1.1.6 2.2 1.2 3.3 1.9.1.9.1 1.8 0 2.7-1.2-.6-2.3-1.2-3.4-2 0-.9.1-1.8.1-2.6z"/><path fill="#2C4258" d="M240.7 219.3c1.1.7 2.3 1.3 3.4 2 0 .9 0 1.8-.1 2.6l-3.3-1.8v-2.8z"/><path fill="#283D54" d="M267.8 219.6c1.1.7 2.4 1.3 3.5 2 0 .9 0 1.8-.1 2.7-1.1-.6-2.3-1.2-3.4-2v-2.7z"/><path fill="#C89B6B" d="M275.9 222.4c1.6-1.1 3.3-2 5-2.9v1.9c-1.7 1-3.4 1.9-5 2.9v-1.9z"/><path fill="#0B0E12" d="M286.3 220.2c.1-.1.3-.2.4-.2v3.5c-.6.3-1.1.7-1.7.8.1-.1.2-.2.2-.3.3-.3.8-.6 1.1-1 .1-1 .1-1.9 0-2.8z"/><path fill="#395464" d="M285.1 220.8c.4-.2.7-.4 1.1-.7 0 .9.2 1.9 0 2.8-.2.4-.7.7-1.1 1v-3.1z"/><path fill="#283D54" d="M260.2 220.3c1.1.7 2.3 1.3 3.4 2v2.7c-1.2-.6-2.4-1.3-3.5-2 0-.9 0-1.8.1-2.7z"/><path fill="#4B6F84" d="M295.3 221.6c.4-.2.9-.6 1.4-.7-.2 1 0 2-.2 2.9-.2.3-.7.6-1.1.8-.2-1-.1-2-.1-3z"/><path fill="#080A0C" d="M296.6 220.8l.1-.2c.2 1.1.2 2.3.1 3.4-.4.5-1.1.7-1.6 1 .1-.1.2-.3.2-.4.4-.2.8-.4 1.1-.8.1-1 0-2 .1-3z"/><path fill="#304660" d="M252.4 220.9c1.1.7 2.3 1.2 3.4 2v2.7c-1.1-.6-2.2-1.1-3.2-1.9-.5-.9-.2-1.8-.2-2.8z"/><path fill="#231D17" d="M244.1 221.3c.2.1.3.2.5.3-.1.9-.1 1.8 0 2.7 1.1.7 2.2 1.4 3.3 1.9 0-.9.1-1.7.1-2.6.2.1.3.2.5.3-.1.9-.1 1.8-.1 2.7 1.1.7 2.2 1.4 3.4 2 .1-.9.1-1.8 0-2.7.2.1.3.2.5.3 0 .9-.2 2 .2 2.8.9.8 2.1 1.2 3.2 1.9v-2.7c.2.1.3.2.5.3 0 .8-.2 1.6 0 2.5 0 .2.3.4.5.5.9.7 2 1.1 2.9 1.6v-2.7c.2.1.3.2.5.3-.1.9-.1 1.8-.1 2.7 1.1.7 2.3 1.4 3.4 2v-2.8c.1.1.3.2.4.2 0 .9 0 1.9.1 2.8 1.1.7 2.2 1.3 3.4 2v-2.7c.1.1.3.2.4.2v2.8c1.1.7 2.2 1.3 3.4 2 0-.9 0-1.8.1-2.7.1.1.3.2.4.2v2.8c1.4.8 2.8 1.5 4.1 2.4v.4c-4.6-2.5-9-5.2-13.6-7.8-7.2-4.1-14.3-8.3-21.5-12.4v-.4l3.3 1.8c.2-1.1.2-2 .2-2.9z"/><path fill="#5685AF" d="M275.9 224.3c1.6-1.1 3.3-2 5-2.9v3.3c-1.7.9-3.4 1.9-5 2.9v-3.3z"/><path fill="#304758" d="M244.6 221.6c1.1.6 2.3 1.2 3.4 2 0 .9-.1 1.7-.1 2.6-1.1-.6-2.3-1.2-3.3-1.9-.1-.9 0-1.8 0-2.7z"/><path fill="#2A4057" d="M271.7 221.9c1.4.7 2.7 1.6 4.1 2.3v2.9c-1.3-.9-2.8-1.5-4.1-2.4v-2.8z"/><path fill="#2F4758" d="M264 222.4c1.1.7 2.4 1.3 3.5 2v2.7c-1.1-.6-2.3-1.2-3.4-2-.1-.8-.1-1.7-.1-2.7z"/><path fill="#664F38" d="M240.8 222.6c7.2 4.1 14.3 8.3 21.5 12.4 4.6 2.6 9 5.3 13.6 7.8v1.9c-1.4-.7-2.8-1.5-4.1-2.4-.1-.1-.3-.2-.4-.2-1.1-.7-2.3-1.4-3.5-2-.1-.1-.3-.2-.4-.2-1.1-.7-2.3-1.4-3.5-2-.1-.1-.3-.2-.4-.2-1.1-.7-2.3-1.3-3.4-2-.2-.1-.3-.2-.5-.3-1.1-.7-2.3-1.4-3.5-2-.1-.1-.3-.2-.4-.2-1.1-.7-2.3-1.3-3.4-2-.2-.1-.3-.2-.5-.3-1.1-.7-2.2-1.3-3.3-1.9-.2-.1-.3-.2-.5-.3-1.1-.7-2.2-1.3-3.3-2l-.6-.3c-1.1-.7-2.2-1.3-3.3-1.9-.2-.7-.1-1.3-.1-1.9z"/><path fill="#2B4158" d="M256.3 223.2c1.1.7 2.3 1.2 3.4 2v2.7c-1.1-.6-2.3-1.2-3.4-2-.1-.9-.1-1.8 0-2.7z"/><path fill="#283D55" d="M248.5 223.9c1.1.6 2.2 1.2 3.3 1.9.1.9.1 1.8 0 2.7-1.1-.6-2.3-1.2-3.4-2 0-.9 0-1.8.1-2.6z"/><path fill="#2C4258" d="M240.7 224.5c1.1.7 2.2 1.2 3.3 1.9.1.9.1 1.8 0 2.7l-3.3-1.8v-2.8z"/><path fill="#283D54" d="M267.8 224.7c1.1.7 2.4 1.3 3.5 2 0 .9 0 1.8-.1 2.7-1.1-.6-2.3-1.3-3.4-2v-2.7z"/><path fill="#C89A6A" d="M275.9 227.6c1.6-1.1 3.3-2 5-2.9v1.9c-1.7.9-3.4 1.9-5 2.9v-1.9z"/><path fill="#283D54" d="M260.2 225.4c1.1.7 2.3 1.3 3.4 2v2.8c-1.2-.6-2.3-1.3-3.4-2-.1-1-.1-1.9 0-2.8z"/><path fill="#0B0E12" d="M286.3 226.2c.1-.1.3-.2.4-.2v3.5c-.6.3-1.1.7-1.7.8.1-.1.2-.2.2-.3.3-.3.8-.6 1.1-1 .1-1 .1-1.9 0-2.8z"/><path fill="#304660" d="M252.4 226c1.1.7 2.3 1.2 3.4 2v2.7c-1.1-.6-2.2-1.1-3.2-1.9-.4-.8-.2-1.8-.2-2.8z"/><path fill="#395564" d="M285.1 226.8c.4-.2.7-.4 1.1-.7 0 .9.2 1.9 0 2.8-.2.4-.7.7-1.1 1v-3.1z"/><path fill="#231E17" d="M244.1 226.3l.6.3c-.1.9-.1 1.8-.1 2.7 1.1.7 2.2 1.3 3.3 1.9 0-.9.1-1.7.1-2.6.2.1.3.2.5.3-.1.9-.1 1.8 0 2.7 1.1.7 2.2 1.4 3.3 2 .1-.9.1-1.8 0-2.7.2.1.3.2.5.3 0 .8-.1 1.7.1 2.5.1.3.4.5.7.7.9.6 1.8 1 2.7 1.5v-2.7c.1.1.3.2.4.2 0 .9.1 1.9.1 2.8 1.1.7 2.2 1.3 3.4 2v-2.7c.2.1.3.2.5.3-.1.9-.1 1.8-.1 2.7 1.1.7 2.3 1.4 3.4 2 0-.9.1-1.8 0-2.8.1.1.3.2.4.2 0 .9 0 1.9.1 2.8 1.1.7 2.2 1.3 3.4 2 0-.9 0-1.8.1-2.7.1.1.3.2.4.2v2.8c1.1.7 2.2 1.3 3.4 2 0-.9 0-1.8.1-2.7.1.1.3.2.4.2v2.8c1.4.8 2.8 1.5 4.1 2.4v.4c-11.7-6.8-23.4-13.5-35.2-20.3v-.4l3.3 1.8c.1-1 .1-1.9.1-2.9z"/><path fill="#5685AF" d="M275.9 229.4c1.6-1.1 3.3-2 5-2.9v3.3c-1.7.9-3.4 1.9-5 2.9v-3.3z"/><path fill="#2F4758" d="M244.6 226.7c1.1.7 2.3 1.3 3.3 2 0 .9-.1 1.7-.1 2.6-1.1-.6-2.3-1.2-3.3-1.9 0-.9.1-1.8.1-2.7z"/><path fill="#4C6E84" d="M295.2 227.6c.5-.3.9-.6 1.4-.8-.2 1 0 2-.2 2.9-.2.4-.7.6-1.1.8 0-1-.1-1.9-.1-2.9z"/><path fill="#0B0C0F" d="M296.6 226.8l.1-.2c.2 1.1.2 2.3.1 3.4-.3.6-1.1.7-1.6 1 .1-.1.2-.3.2-.4.3-.2.8-.4 1.1-.8.1-1 0-2.1.1-3z"/><path fill="#2A4057" d="M271.7 227c1.4.7 2.7 1.6 4.1 2.3v2.9c-1.3-.9-2.8-1.5-4.1-2.4V227z"/><path fill="#2F4758" d="M264 227.6c1.1.7 2.4 1.3 3.5 2v2.7c-1.1-.6-2.3-1.2-3.4-2-.1-.9-.1-1.8-.1-2.7z"/><path fill="#664F38" d="M240.8 227.7c11.7 6.8 23.4 13.5 35.2 20.3v1.9c-1.4-.7-2.8-1.5-4.1-2.4-.1-.1-.3-.2-.4-.2-1.1-.7-2.3-1.4-3.5-2-.1-.1-.3-.2-.4-.2-1.1-.7-2.3-1.4-3.5-2-.1-.1-.3-.2-.4-.2-1.1-.7-2.4-1.4-3.5-2-.1-.1-.3-.2-.4-.2-1.1-.7-2.3-1.4-3.5-2-.1-.1-.3-.2-.4-.2-1.1-.7-2.3-1.3-3.4-2-.2-.1-.3-.2-.5-.3-1.1-.7-2.2-1.3-3.3-1.9l-.6-.3c-1.1-.7-2.2-1.3-3.3-1.9l-.6-.3c-1.1-.7-2.2-1.3-3.3-1.9-.1-1-.1-1.5-.1-2.2z"/><path fill="#2B4158" d="M256.3 228.3c1.1.7 2.3 1.2 3.4 2v2.7c-1-.6-2-1-2.9-1.6-.2-.2-.4-.2-.5-.5-.2-.9-.1-1.8 0-2.6z"/><path fill="#283D55" d="M248.5 229c1.1.6 2.2 1.2 3.3 1.9.1.9.1 1.8 0 2.7-1.1-.6-2.3-1.2-3.3-2-.1-.9-.1-1.7 0-2.6z"/><path fill="#2C4258" d="M240.7 229.6c1.1.6 2.2 1.2 3.3 1.9.1.9.1 1.8 0 2.7-1.1-.6-2.3-1.2-3.3-1.9 0-.6 0-1.1-.1-1.7.1-.4.1-.7.1-1z"/><path fill="#283D54" d="M267.8 229.8c1.1.7 2.4 1.3 3.5 2 0 .9 0 1.8-.1 2.7-1.1-.6-2.3-1.3-3.4-2v-2.7z"/><path fill="#C99A6A" d="M275.9 232.7c1.6-1.1 3.3-2 5-2.9v1.9c-1.7.9-3.4 1.9-5 2.9v-1.9z"/><path fill="#F4F4F4" d="M240.3 237.2c.5-2.2.1-4.4.4-6.6 0 .6 0 1.1.1 1.7v10.3c-.2.6-.4 1.1-.7 1.7-2.2.2-4.4.5-6.5 1-2.4.2-4.6 1.1-6.8 1.8-.9.2-.9 1.4-1.5 2-.4.4-1.1.5-1.2 1.1-.4 1.4.7 2.6 1.5 3.7.7 1.2 1.8 2.2 2.7 3.3.7.8 1.5 1.3 2.3 2 1.2 1.3 2.8 2.2 4.1 3.3 1.5 1.1 3.2 2 4.7 3.1 1.5 1 3.3 1.5 4.8 2.4 1.2.7 2.5 1.2 3.7 1.8 1.5.7 3.2 1 4.7 1.6 1.7.7 3.6 1.1 5.4 1.5 4.6 1.1 9.2 2.1 13.8 3 .1.3.2.7.2 1.1h1.3c.1-.3.2-.7.2-1.1 1.7-.1 3.5 0 5 .7.7-.4 1.5-.7 2.2-1.1.8.5 1.7 1 2.5 1.5 1.5-.7 3-1.7 4.6-2.4-1 .9-2.3 1.5-3.4 2.2-.5.2-1.1.7-1.6.3-.8-.2-1.5-1.1-2.4-.7-.6.2-1.1.6-1.8.7-1.1 0-2-.2-3.1-.1-.8 0-1.7.2-2.5.4-.6.1-1.1-.2-1.7-.4-1.1-.4-2.3-.3-3.4-.5-2-.2-3.8-.7-5.8-1-1.5-.2-3-.7-4.6-1-2.9-.5-5.9-1.3-8.7-2-2.5-.6-5-1.4-7.6-1.8-1.2-.2-2.4-.6-3.6-1.1-1.3-.7-2.9-.6-4.1-1.5-.8-.6-1.7-.9-2.7-1.1-1.3-.2-2.3-1.1-3.3-1.7-.8-.4-1.5-.9-2.3-1.5-1-.7-2.1-1.1-3.2-1.7-1.1-.6-1.8-1.6-2.7-2.4-.7-.6-1.1-1.5-1.4-2.3-1.4-.4-2.3-1.7-3.3-2.7v-12.9c1.1-.3 2.2-.9 3.3-1.3 1.5-.5 3.3-.6 4.9-.7 1.1-.1 2.3-.5 3.4-.5 2.2 0 4.3-1 6.5-.7 1 .2 2-.3 2.8-.6 1-.1 2 .3 3 .1.8 0 1.6-.2 1.8-.9z"/><path fill="#283D54" d="M260.2 230.6c1.1.7 2.3 1.3 3.4 2v2.8c-1.2-.6-2.3-1.3-3.4-2-.1-1-.1-1.9 0-2.8z"/><path fill="#304660" d="M252.4 231.1c1.1.7 2.3 1.3 3.4 2v2.7c-.9-.5-1.8-.9-2.7-1.5-.2-.2-.6-.3-.7-.7-.1-.8 0-1.6 0-2.5z"/><path fill="#231D17" d="M244.1 231.5l.6.3c-.1.9-.1 1.8 0 2.7 1.1.7 2.2 1.4 3.3 1.9v-2.7l.6.3c-.1.9-.1 1.8 0 2.7 1.1.7 2.2 1.4 3.3 2 .1-.9.1-1.8 0-2.8.2.1.3.2.5.3 0 .9-.2 1.8.2 2.7.9.9 2.1 1.4 3.3 2v-2.7c.1.1.3.2.4.2 0 .9 0 1.9.1 2.8 1.1.7 2.3 1.3 3.4 2v-2.7c.1.1.3.2.4.2v2.8c1.1.7 2.3 1.4 3.4 2 0-.9.1-1.8 0-2.8.1.1.3.2.4.2v2.8c1.1.7 2.2 1.3 3.4 2 0-.9 0-1.8.1-2.7.1.1.3.2.4.2v2.8c1.1.7 2.2 1.3 3.4 2 0-.9 0-1.8.1-2.7.1.1.3.2.4.2v2.8c1.4.7 2.7 1.6 4.1 2.2v.7c-7.5-4.4-15-8.6-22.5-12.9-4.2-2.4-8.4-4.9-12.7-7.2v-.6c1.1.7 2.2 1.4 3.3 1.9.1-1.1.1-2 .1-2.9z"/><path fill="#5685AF" d="M275.9 234.6c1.6-1.1 3.3-2 5-2.9v3.3c-1.7.9-3.4 1.9-5 2.9v-3.3z"/><path fill="#304758" d="M244.6 231.9c1.1.7 2.2 1.2 3.3 1.9v2.7c-1.1-.6-2.3-1.2-3.3-1.9-.1-.9 0-1.8 0-2.7z"/><path fill="#0A0E12" d="M286.4 232.1c.1-.1.3-.2.4-.2v3.5c-.6.3-1.1.7-1.7.8.1-.1.1-.2.2-.3.3-.3.7-.5 1.1-.7v-3.1z"/><path fill="#2A4057" d="M271.7 232.1c1.4.7 2.7 1.6 4.1 2.3v2.9c-1.3-.9-2.8-1.5-4.1-2.4v-2.8z"/><path fill="#395566" d="M285.1 232.8c.4-.2.7-.4 1.1-.7.1 1 .1 2 0 2.9-.4.2-.7.5-1.1.7v-2.9z"/><path fill="#2F4758" d="M264 232.7c1.1.7 2.4 1.3 3.5 2v2.7c-1.1-.6-2.3-1.2-3.4-2-.1-.8-.1-1.7-.1-2.7z"/><path fill="#0B0E10" d="M296.5 232.8c.1-.1.3-.2.4-.2 0 1.1.2 2.2 0 3.3-.3.6-1.1.7-1.6 1 0-.1.1-.3.2-.5.4-.2.7-.4 1.1-.6-.1-.9-.1-2-.1-3z"/><path fill="#664F38" d="M240.8 232.8c4.2 2.4 8.5 4.9 12.7 7.2l22.5 12.9v1.9c-1.4-.7-2.8-1.5-4.1-2.4-.1-.1-.3-.2-.4-.2-1.1-.7-2.3-1.4-3.5-2-.1-.1-.3-.2-.4-.2-1.1-.7-2.3-1.4-3.5-2-.1-.1-.3-.2-.4-.2-1.1-.7-2.4-1.4-3.5-2-.1-.1-.3-.2-.4-.2-1.1-.7-2.3-1.4-3.5-2-.1-.1-.3-.2-.4-.2-1.1-.7-2.3-1.3-3.4-2-.2-.1-.3-.2-.5-.3-1.1-.7-2.2-1.3-3.3-1.9l-.6-.3c-1.1-.7-2.2-1.3-3.3-1.9l-.6-.3c-1.1-.7-2.2-1.3-3.3-1.9-.2-.7-.1-1.3-.1-2z"/><path fill="#4B6F84" d="M295.3 233.6c.2-.4.7-.5 1.1-.7.1 1 .1 2 0 3-.4.2-.7.4-1.1.6 0-1.1-.1-1.9 0-2.9z"/><path fill="#2B4158" d="M256.2 233.3c1.1.7 2.4 1.3 3.5 2v2.7c-1.1-.6-2.3-1.2-3.4-2-.1-.8-.1-1.7-.1-2.7z"/><path fill="#283D55" d="M248.5 234.1c1.1.7 2.2 1.2 3.3 1.9.1.9.1 1.8 0 2.8-1.1-.6-2.3-1.2-3.3-2-.1-.9-.1-1.8 0-2.7z"/><path fill="#2C4258" d="M240.7 234.7c1.1.7 2.2 1.2 3.3 1.9.1.9.1 1.8 0 2.7l-3.3-1.8v-2.8z"/><path fill="#283D54" d="M267.8 235c1.1.7 2.4 1.3 3.5 2 0 .9 0 1.8-.1 2.7-1.1-.6-2.3-1.3-3.4-2V235z"/><path fill="#C89A6A" d="M275.9 237.8c1.6-1.1 3.3-2 5-2.9v1.9c-1.7.9-3.4 1.9-5 2.9v-1.9z"/><path fill="#283D54" d="M260.2 235.7c1.1.7 2.3 1.3 3.4 2v2.8c-1.2-.6-2.3-1.3-3.4-2-.1-1-.1-1.9 0-2.8z"/><path fill="#304660" d="M252.4 236.3c1.1.7 2.3 1.3 3.4 2v2.7c-1.1-.7-2.4-1.1-3.3-2-.3-.9-.1-1.8-.1-2.7z"/><path fill="#231E17" d="M244.1 236.7l.6.3c-.1.9-.1 1.8-.1 2.7 1.1.7 2.2 1.4 3.3 1.9v-2.7l.6.3c-.1.9-.1 1.8 0 2.7 1.1.7 2.2 1.4 3.3 2 .1-.9 0-1.8 0-2.7.2.1.3.2.5.3 0 .9-.2 1.8.2 2.7.9.9 2.1 1.4 3.3 2v-2.7c.1.1.3.2.4.2 0 .9.1 1.9.1 2.8 1.1.7 2.2 1.4 3.4 2v-2.7c.1.1.3.2.4.2v2.8c1.1.7 2.3 1.4 3.4 2 0-.9.1-1.8 0-2.8.1.1.3.2.4.2v2.8c1.1.7 2.2 1.3 3.4 2 0-.9 0-1.8.1-2.7.1.1.3.2.4.2v2.8c1.1.7 2.3 1.3 3.4 2 0-.9 0-1.8.1-2.7.1.1.3.2.4.2v2.8c1.4.7 2.7 1.5 4.1 2.2v.7c-11.7-6.8-23.4-13.5-35.1-20.3v-.4l3.3 1.8c.1-1.1.1-2 .1-2.9z"/><path fill="#5685AF" d="M275.9 239.7c1.6-1.1 3.3-2 5-2.9v3.3c-1.7 1-3.4 1.9-5 2.9v-3.3z"/><path fill="#304758" d="M244.6 237c1.1.7 2.2 1.2 3.3 1.9v2.7c-1.1-.6-2.3-1.2-3.3-1.9-.1-.9 0-1.8 0-2.7z"/><path fill="#2A4057" d="M271.7 237.2c1.4.7 2.7 1.6 4.1 2.3v2.9c-1.3-.9-2.8-1.5-4.1-2.4v-2.8z"/><path fill="#2F4758" d="M264 237.9c1.1.7 2.3 1.3 3.5 2 0 .9 0 1.8-.1 2.7-1.1-.6-2.3-1.2-3.4-2v-2.7z"/><path fill="#080B0E" d="M286.3 238.1c.1-.1.3-.2.4-.2v3.5c-.5.2-.9.5-1.4.8 0-.1.1-.2.1-.3.3-.3.7-.6.9-.9.2-1.1.1-2.1 0-2.9z"/><path fill="#664F38" d="M240.8 238c11.7 6.8 23.4 13.5 35.1 20.3v1.9c-1.4-.7-2.8-1.5-4.1-2.4-.1-.1-.3-.2-.4-.2-1.1-.7-2.3-1.4-3.5-2-.1-.1-.3-.2-.4-.2-1.1-.7-2.3-1.4-3.5-2-.1-.1-.3-.2-.4-.2-1.1-.7-2.4-1.4-3.5-2-.1-.1-.3-.2-.4-.2-1.1-.7-2.3-1.4-3.5-2-.1-.1-.3-.2-.4-.2-1.1-.7-2.3-1.3-3.4-2-.2-.1-.3-.2-.5-.3-1.1-.7-2.2-1.3-3.3-1.9l-.6-.3c-1.1-.7-2.2-1.3-3.3-1.9l-.6-.3c-1.1-.7-2.2-1.3-3.3-1.9-.1-1 0-1.6 0-2.2z"/><path fill="#385464" d="M285.1 238.7c.4-.2.7-.4 1.1-.7 0 .9.2 1.9 0 2.8-.2.3-.6.7-.9.9 0 .1-.1.2-.1.3l-.1.2c0-1.1.1-2.3 0-3.5z"/><path fill="#2B4158" d="M256.2 238.5c1.1.7 2.4 1.3 3.5 2v2.7c-1.1-.6-2.3-1.2-3.4-2-.1-.9-.1-1.8-.1-2.7z"/><path fill="#0A0C0F" d="M296.5 238.9c.1-.1.2-.2.4-.2 0 1.1.2 2.2 0 3.3-.3.6-1.1.7-1.6 1 .1-.2.2-.3.2-.5.4-.2.7-.4 1.1-.6-.1-1.1-.1-2.1-.1-3z"/><path fill="#4B6C80" d="M295.3 239.6c.2-.3.7-.5 1.1-.7.1 1 .1 2 0 2.9-.4.2-.7.4-1.1.6 0-.9-.1-1.9 0-2.8z"/><path fill="#283D55" d="M248.5 239.2c1.1.7 2.2 1.2 3.3 1.9.1.9.1 1.8 0 2.7-1.1-.6-2.3-1.2-3.3-2-.1-.7-.1-1.7 0-2.6z"/><path fill="#2C4258" d="M240.7 239.8c1.1.6 2.2 1.2 3.3 1.9.1.9.1 1.8 0 2.7-1.1-.6-2.3-1.2-3.3-2 .1-.8 0-1.7 0-2.6z"/><path fill="#283D54" d="M267.8 240.1c1.1.7 2.4 1.3 3.5 2 0 .9 0 1.8-.1 2.7-1.1-.6-2.3-1.3-3.4-2v-2.7z"/><path fill="#C99A6A" d="M275.9 242.9c1.6-1.1 3.3-2 5-2.9 0 .7 0 1.3-.1 1.9-1.7.9-3.3 2-5 2.8.1-.5.1-1.2.1-1.8z"/><path fill="#283D54" d="M260.1 240.7c1.1.7 2.4 1.4 3.5 2v2.8c-1.1-.6-2.3-1.3-3.4-2-.1-.9-.1-1.9-.1-2.8z"/><path fill="#304660" d="M252.4 241.5c1.1.7 2.3 1.3 3.4 2v2.7c-1.1-.7-2.4-1.1-3.3-2-.3-.9-.1-1.9-.1-2.7z"/><path fill="#231E17" d="M244.1 241.8l.6.3c-.1.9-.1 1.8-.1 2.7 1.1.7 2.2 1.4 3.3 1.9V244l.6.3c-.1.9-.1 1.8 0 2.7 1.1.7 2.2 1.4 3.3 2 .1-.9 0-1.8 0-2.7.2.1.3.2.5.3 0 .9-.1 1.8.2 2.7.9.9 2.1 1.4 3.3 2v-2.7c.1.1.3.2.4.2 0 .9 0 1.9.1 2.8 1.1.7 2.2 1.3 3.4 2 0-.9 0-1.8.1-2.7.1.1.3.2.4.2v2.8c1.1.7 2.3 1.3 3.4 2 0-.9.1-1.8 0-2.8.1.1.3.2.4.2v2.8c1.1.7 2.2 1.3 3.4 2 0-.9 0-1.8.1-2.7.1.1.3.2.4.2v2.8c1.1.7 2.3 1.3 3.4 2 0-.9 0-1.8.1-2.7.1.1.3.2.4.2 0 .8-.1 1.6 0 2.4 0 .4.4.6.7.7 1.1.7 2.3 1.2 3.4 1.8v.7c-6.3-3.7-12.5-7.2-18.8-10.9-5.5-3.1-10.8-6.3-16.4-9.4v-.6c1.1.7 2.2 1.4 3.3 2 .1-1 .1-1.9.1-2.8z"/><path fill="#5784AF" d="M275.9 244.7c1.7-.8 3.3-1.9 5-2.8v3.2c-1.6 1-3.3 2-5 2.8v-3.2z"/><path fill="#304758" d="M244.6 242.1c1.1.7 2.2 1.2 3.3 1.9v2.7c-1.1-.6-2.3-1.2-3.3-1.9-.1-.9 0-1.8 0-2.7z"/><path fill="#2A4057" d="M271.7 242.4c1.4.7 2.8 1.5 4.1 2.4v2.8c-1.3-.9-2.8-1.5-4.1-2.4v-2.8z"/><path fill="#E6E6E6" d="M240.1 244.2c.2-.6.5-1.1.7-1.7v2.7c-.3.6-.7 1.4-1.5 1.5-1.1.1-2.1.2-3.1.7-1.5.8-3.3.8-4.7 1.6-.7.4-1.3.7-1.7 1.3-.3.8-.3 1.6-.5 2.5.7 1.3 1.1 2.8 2.1 4.1.8 1.1 2 1.8 3.1 2.7 1.2 1 2.5 1.9 3.6 2.9 3.3 2.8 7.1 5 11.1 6.5 1.7.7 3.4 1.4 5.1 2 2.5 1 5.2 1.5 7.7 2.3 1.7.6 3.6.8 5.3 1.2 1.5.4 3 .6 4.6 1.1 0 .1 0 .2.1.4-4.6-.9-9.3-1.9-13.8-3-1.8-.6-3.7-.8-5.4-1.5-1.5-.7-3.2-1-4.7-1.6-1.3-.6-2.5-1.1-3.7-1.8-1.5-.8-3.3-1.4-4.8-2.4-1.5-1.1-3.3-2-4.7-3.1-1.4-1.1-2.9-2-4.1-3.3-.7-.7-1.6-1.2-2.3-2-.9-1.1-2-2-2.7-3.3-.7-1.1-1.8-2.3-1.5-3.7.1-.7.8-.8 1.2-1.1.6-.7.5-1.8 1.5-2 2.2-.7 4.4-1.6 6.8-1.8 1.9-.7 4.1-1 6.3-1.2z"/><path fill="#2F4758" d="M264 243c1.1.7 2.4 1.3 3.5 2 0 .9 0 1.8-.1 2.7-1.1-.6-2.3-1.2-3.4-2V243z"/><path fill="#664F38" d="M240.7 243.1c5.5 3.1 10.9 6.3 16.4 9.4 6.3 3.7 12.5 7.2 18.8 10.9v1.9c-1.4-.7-2.8-1.5-4.1-2.4-.1-.1-.3-.2-.4-.2-1.1-.7-2.3-1.4-3.5-2-.1-.1-.3-.2-.4-.2-1.1-.7-2.3-1.4-3.5-2-.1-.1-.3-.2-.4-.2-1.1-.7-2.4-1.4-3.5-2-.1-.1-.3-.2-.4-.2-1.1-.7-2.3-1.4-3.5-2-.1-.1-.3-.2-.4-.2-1.1-.7-2.2-1.3-3.3-2l-.6-.3c-1.1-.7-2.2-1.3-3.3-1.9l-.6-.3c-1.1-.7-2.2-1.3-3.3-1.9l-.6-.3c-1.1-.7-2.2-1.3-3.3-1.9 0-.9 0-1.6-.1-2.2z"/><path fill="#2B4158" d="M256.2 243.6c1.1.7 2.4 1.3 3.5 2v2.7c-1.1-.6-2.3-1.2-3.4-2-.1-.8-.1-1.7-.1-2.7z"/><path fill="#070A0D" d="M286.3 244c.1-.1.3-.2.5-.2v3.5c-.5.2-1 .5-1.4.8 0-.1.1-.2.1-.3.3-.3.7-.6.9-.9.2-.9.1-1.8 0-2.6l-.1-.3z"/><path fill="#3C5767" d="M285.1 244.6c.4-.2.7-.3 1.1-.5 0 .9.2 1.8 0 2.6-.2.3-.6.7-.9.9 0 .1-.1.2-.1.3l-.1.2c0-1.1.1-2.2 0-3.5z"/><path fill="#283D55" d="M248.5 244.4c1.1.7 2.2 1.2 3.3 1.9.1.9.1 1.8 0 2.7-1.1-.6-2.3-1.2-3.3-2-.1-.8-.1-1.7 0-2.6z"/><path fill="#0A0C0F" d="M296.5 244.8c.1-.1.2-.2.4-.2 0 1.1.2 2.2 0 3.3-.3.6-1.1.7-1.7.9.1-.1.2-.3.3-.4.3-.2.7-.4 1.1-.7-.1-.9-.1-1.9-.1-2.9z"/><path fill="#4C6D83" d="M295.3 245.5c.3-.3.7-.5 1.1-.7.1 1 .1 2 0 2.9-.3.2-.7.4-1.1.7 0-1-.1-2 0-2.9z"/><path fill="#2C4258" d="M240.7 245c1.1.7 2.2 1.2 3.3 1.9.1.9.1 1.8 0 2.7-1.1-.6-2.3-1.2-3.3-1.9V245z"/><path fill="#DDD" d="M239.3 246.6c.8 0 1.1-.8 1.5-1.5v3.7c-.2.6-.4 1.1-.7 1.7-1.1.2-2.4.7-3.1 1.6-.7.8-1.4 1.9-1.1 3 .2 1.5 1.4 2.7 2.3 3.9.8 1.3 2.4 1.9 3.3 3.1 1 1.1 2.3 1.6 3.4 2.5 1.7 1.3 3.7 2.1 5.5 3.1 3.6 2 7.4 3.5 11.4 4.6 3.3 1.1 6.8 1.9 10.2 2.6v.6c-1.5-.5-3-.7-4.6-1.1-1.8-.5-3.6-.7-5.3-1.2-2.5-.8-5.2-1.3-7.7-2.3-1.7-.7-3.4-1.4-5.1-2-4.1-1.5-7.8-3.7-11.1-6.5-1.1-1.1-2.4-2-3.6-2.9-1.1-.8-2.3-1.5-3.1-2.7-1-1.1-1.4-2.7-2.1-4.1.1-.8.1-1.7.5-2.5.4-.6 1.1-1 1.7-1.3 1.5-.9 3.3-.8 4.7-1.6.9-.5 2-.5 3-.7z"/><path fill="#283D54" d="M267.8 245.2c1.1.7 2.4 1.3 3.5 2 0 .9-.1 1.8-.1 2.7-1.1-.6-2.3-1.3-3.4-2v-2.7z"/><path fill="#C89A6A" d="M275.9 248c1.7-.9 3.3-1.9 5-2.8v2c-1.6.9-3.3 2-5 2.8v-2z"/><path fill="#283D54" d="M260.1 245.9c1.1.7 2.4 1.3 3.5 2v2.8c-1.1-.6-2.3-1.3-3.4-2-.1-1-.1-1.9-.1-2.8z"/><path fill="#304660" d="M252.4 246.6c1.1.7 2.3 1.3 3.4 2v2.7c-1.1-.7-2.4-1.1-3.3-2-.3-.9-.1-1.8-.1-2.7z"/><path fill="#231D17" d="M244.1 246.9l.6.3c-.1.9-.1 1.8-.1 2.7 1.1.7 2.2 1.3 3.3 1.9v-2.7l.6.3c-.1.9-.1 1.8 0 2.7 1.1.7 2.2 1.4 3.3 2 .1-.9.1-1.8 0-2.8.2.1.3.2.6.3-.1.9-.2 1.8.1 2.7.9.9 2.1 1.3 3.3 2v-2.7c.1.1.3.2.4.2 0 .9 0 1.9.1 2.8 1.1.7 2.3 1.3 3.4 2 0-.9 0-1.8.1-2.7.1.1.3.2.4.2v2.8c1.1.7 2.3 1.4 3.4 2 0-.9.1-1.8 0-2.8.1.1.3.2.4.2v2.8c1.1.7 2.3 1.3 3.4 2 0-.9 0-1.8.1-2.7.1.1.3.2.4.2v2.8c1.1.7 2.3 1.3 3.4 2 0-.9 0-1.8.1-2.7.1.1.3.2.4.2v2.8c1.4.7 2.7 1.5 4.1 2.2v.7c-7.3-4.3-14.7-8.5-22.1-12.8-4.4-2.4-8.7-5-13.1-7.5v-.6c1.1.7 2.2 1.4 3.3 1.9.1-.9.1-1.8.1-2.7z"/><path fill="#5784AF" d="M275.9 249.9c1.7-.8 3.3-1.9 5-2.8v3.3c-1.6 1-3.3 2-5 2.8v-3.3z"/><path fill="#304758" d="M244.6 247.2c1.1.7 2.2 1.2 3.3 1.9v2.7c-1.1-.6-2.3-1.2-3.3-1.9-.1-.9 0-1.8 0-2.7z"/><path fill="#294057" d="M271.7 247.5c1.4.7 2.8 1.5 4.1 2.4v2.7c-1.5-.6-2.8-1.5-4.1-2.2v-2.9z"/><path fill="#2F4758" d="M264 248.1c1.1.7 2.3 1.3 3.5 2 0 .9 0 1.8-.1 2.7-1.1-.6-2.3-1.2-3.4-2v-2.7z"/><path fill="#665038" d="M240.7 248.2c4.4 2.4 8.7 5 13.1 7.5 7.3 4.2 14.7 8.5 22.1 12.8v1.8c-11.7-6.7-23.4-13.5-35.2-20.2v-1.9z"/><path fill="#2B4158" d="M256.2 248.7c1.1.7 2.4 1.3 3.5 2 0 .9 0 1.8-.1 2.7-1.1-.6-2.3-1.2-3.4-2v-2.7z"/><path fill="#D0D0D0" d="M240.1 250.6c.2-.6.5-1.1.7-1.7v5.9c.7.4 1.3.8 2 1.2 0 1.2-.1 2.5.2 3.7.1.1.2.2.2.3.2.1.3.2.5.2.8.2 1.6.6 2.1 1.3.8 1 2 1.6 3 2.4 1.5 1.1 3 2.2 4.7 3.1 1.7.7 3.3 1.7 5 2.4 2.1.8 4 2.1 6.3 2.6 0 .1.1.2.2.3.1.1.2.3.3.5 1 .1 2-.4 2.9-.1 1.3.4 2.7.9 4.1 1.1v1.1c-3.4-.7-6.8-1.5-10.2-2.6-4-1.1-7.8-2.7-11.4-4.6-1.9-1-3.8-1.9-5.5-3.1-1.1-.8-2.5-1.5-3.4-2.5-1-1.1-2.4-1.8-3.3-3.1-.8-1.2-2-2.4-2.3-3.9-.2-1.1.5-2.2 1.1-3 .4-.9 1.6-1.3 2.8-1.5z"/><path fill="#283D55" d="M248.5 249.5c1.1.7 2.2 1.2 3.3 1.9.1.9 0 1.8 0 2.8-1.1-.6-2.3-1.2-3.3-2-.1-.9-.1-1.8 0-2.7z"/><path fill="#090C10" d="M286.4 249.9c.1-.1.3-.2.4-.2v3.5c-.6.3-1.1.7-1.7.8.1-.1.2-.2.2-.3.3-.3.7-.5 1.1-.7v-3.1z"/><path fill="#3A5465" d="M285.1 250.6c.4-.2.8-.4 1.1-.7.1 1 .1 2 0 2.9-.4.2-.7.5-1.1.7v-2.9z"/><path fill="#323232" d="M240.7 250.1c11.7 6.7 23.4 13.5 35.2 20.2 0 1.5.2 3.2-.2 4.7-.6-.3-1.2-.7-1.7-1-.8-.6-1.7-1.1-2.6-1.5-1.5-.7-2.9-1.5-4.3-2.4-.7-.5-1.5-.9-2.2-1.3-1.9-1.1-3.7-2.2-5.6-3.3-.6-.3-1.2-.7-1.8-1-1.9-1.1-3.7-2.2-5.6-3.3-.1.2-.2.3-.2.5-.2-.8-.8-1.2-1.5-1.5-1.9-1-3.6-2.1-5.5-3.1-.6-.3-1.1-.7-1.7-1 0 1.2-.2 2.4-.1 3.7-.2-1.2-.1-2.5-.2-3.7-.7-.4-1.3-.8-2-1.2 0-1.6.1-3.2 0-4.8z"/><path fill="#283D54" d="M267.8 250.3c1.2.7 2.4 1.3 3.5 2 0 .9-.1 1.8-.1 2.7-1.1-.6-2.3-1.3-3.4-2v-2.7z"/><path fill="#C89A6A" d="M275.9 253.1c1.7-.9 3.3-1.9 5-2.8v2c-1.6.9-3.3 2-5 2.8v-2z"/><path fill="#4A6E83" d="M295.3 251.4c.4-.2.9-.6 1.4-.7-.2 1 0 2-.2 2.9-.2.4-.7.6-1 .8-.3-1.1-.3-2-.2-3z"/><path fill="#0A0C0E" d="M296.7 250.6l.1-.2c.2 1 .2 2 .2 3 0 .9-1.1 1.1-1.8 1.3l.3-.3c.3-.3.7-.5 1-.8.1-1.1 0-2 .2-3z"/><path fill="#283D54" d="M260.1 251c1.1.7 2.4 1.3 3.5 2v2.8c-1.1-.7-2.3-1.3-3.4-2-.1-.9-.1-1.9-.1-2.8z"/><path fill="#304660" d="M252.5 254.3c-.3-.8-.2-1.8-.1-2.7 1.1.7 2.2 1.3 3.3 2v2.7c-1.1-.6-2.3-1-3.2-2z"/><path fill="#5784AF" d="M275.9 255c1.7-.8 3.3-1.9 5-2.8v3.2c-1.6 1-3.3 2-5 2.8V255z"/><path fill="#294057" d="M271.7 252.6c1.4.7 2.8 1.5 4.1 2.4v2.7c-1.5-.7-2.8-1.5-4.1-2.2v-2.9z"/><path fill="#2F4758" d="M264 253.3c1.1.7 2.4 1.3 3.5 2 0 .9 0 1.8-.1 2.7-1.1-.6-2.3-1.2-3.4-2v-2.7z"/><path fill="#2B4158" d="M256.2 253.8c1.1.7 2.4 1.3 3.5 2 0 .9 0 1.8-.1 2.7-1.1-.7-2.3-1.2-3.4-2v-2.7z"/><path fill="#283D54" d="M267.9 255.5c1.2.7 2.4 1.3 3.5 2 0 .9-.1 1.8-.1 2.7-1.1-.7-2.3-1.3-3.4-2-.1-.9-.1-1.8 0-2.7z"/><path fill="#C99A6A" d="M275.9 258.2c1.7-.9 3.3-1.9 5-2.8v2c-1.7.9-3.3 2-5 2.8v-2z"/><path fill="#090D10" d="M286.4 256c.1-.1.3-.2.4-.2v3.5c-.6.3-1.1.7-1.7.8.1-.1.2-.2.2-.3.3-.3.7-.6 1.1-.7V256z"/><path fill="#3A5465" d="M285.1 256.6c.4-.2.7-.4 1.1-.7.1 1 .1 2 0 2.9-.4.2-.7.5-1.1.7v-2.9z"/><path fill="#727272" d="M242.9 256.1c.6.3 1.1.7 1.7 1-.2.9-.2 1.8-.2 2.8-.1.1-.3.2-.4.2-.1-.8-.1-1.5-.2-2.4-.2 0-.4 0-.5.1 0 .8-.1 1.6-.3 2.4-.1-.1-.2-.2-.2-.3 0-1.3 0-2.6.1-3.8z"/><path fill="#283D54" d="M260.1 256.1c1.1.7 2.4 1.4 3.5 2v2.8c-1.1-.6-2.3-1.3-3.4-2-.1-.9-.1-1.9-.1-2.8z"/><path fill="#4A6E83" d="M295.3 257.3c.4-.2.9-.6 1.4-.7-.2 1-.2 2-.2 3.1-.4.2-.7.4-1.1.7-.2-1.1-.2-2.1-.1-3.1z"/><path fill="#090B0D" d="M296.7 256.6l.1-.2c.2.9.2 1.9.2 2.8.1.9-.9 1.2-1.5 1.5-.2-.1-.2-.3 0-.5.3-.2.7-.4 1.1-.7-.1-.9-.1-1.9.1-2.9z"/><path fill="#BFBFBF" d="M244.4 259.8c0-.9.1-1.9.2-2.8 1.8 1.1 3.6 2.1 5.5 3.1 0 1.3 0 2.7.1 4 .2 0 .4.1.5.1 0-.7 0-1.5.1-2.2h.5c0 .7 0 1.5.1 2.3.2 0 .4-.1.5-.1v-1c.5 0 1-.2 1.4.2.8.6 1.5 1.3 2.4 1.8.7.5 1.5 1.1 1.9 1.9.1.6.2 1.1.2 1.6.4.2.8.2 1.2-.1l.2-.1c.3-.2.6-.3.9-.4.8.2 1.4.7 2.1 1.1.8.5 1.7.7 2.5 1.2.2.6.1 1.1.2 1.7-2.2-.5-4.1-1.8-6.3-2.6-1.7-.7-3.3-1.7-5-2.4-1.6-.9-3.3-2-4.7-3.1-1.1-.7-2.2-1.3-3-2.4-.6-.7-1.3-1.1-2.1-1.3.2-.1.3-.2.6-.3-.3 0-.1-.1 0-.2z"/><path fill="#5784AF" d="M275.9 260.1c1.7-.8 3.3-1.9 5-2.8v3.2c-1.6 1-3.3 2-5 2.8v-3.2z"/><path fill="#ABABAB" d="M243.3 257.8c.2 0 .4 0 .5-.1.1.8.1 1.5.2 2.4-.2.1-.3.2-.6.3-.2-.1-.3-.2-.5-.2.3-.8.4-1.6.4-2.4z"/><path fill="#2A4057" d="M271.7 257.7c1.4.7 2.8 1.5 4.1 2.4v2.7c-1.1-.6-2.3-1.1-3.4-1.8-.2-.2-.7-.4-.7-.7-.1-.9 0-1.7 0-2.6z"/><path fill="#2F4758" d="M264 258.4c1.1.7 2.4 1.3 3.5 2 0 .9 0 1.8-.1 2.7-1.1-.6-2.3-1.3-3.4-2v-2.7z"/><path fill="#666" d="M250 260.2c.7.3 1.4.7 1.5 1.5.1-.2.2-.3.2-.5v3c-.2 0-.4.1-.5.1 0-.7 0-1.5-.1-2.3h-.5c0 .7 0 1.5-.1 2.2-.2 0-.4-.1-.5-.1.1-1.2 0-2.6 0-3.9z"/><path fill="#283D54" d="M267.9 260.6c1.2.7 2.4 1.3 3.5 2 0 .9-.1 1.8-.1 2.7-1.1-.7-2.3-1.3-3.4-2-.1-.8-.1-1.7 0-2.7z"/><path fill="#C89A6A" d="M275.9 263.4c1.7-.9 3.3-1.9 5-2.8v2c-1.7.9-3.3 2-5 2.8v-2z"/><path fill="#B3B2B2" d="M251.8 261.2c1.9 1.1 3.7 2.2 5.6 3.3 0 .8-.1 1.7-.1 2.5-.4-.8-1.1-1.4-1.9-1.9-.8-.5-1.5-1.2-2.4-1.8-.4-.3-.9-.2-1.4-.2.2-.6.2-1.2.2-1.9z"/><path fill="#090D10" d="M286.3 261.8c.1-.1.3-.2.4-.2v3.5c-.6.3-1.1.7-1.7.8.1-.1.2-.2.2-.3.3-.3.7-.6 1.1-.8.1-1 .1-1.9 0-2.8v-.2z"/><path fill="#395466" d="M285.1 262.5c.4-.2.7-.3 1.1-.5.1 1 .1 1.9 0 2.8-.4.2-.7.5-1.1.8v-3.1z"/><path fill="#5784AF" d="M275.9 265.2c1.7-.8 3.3-1.9 5-2.8 0 1.1 0 2.2.1 3.3-1.7.8-3.3 1.9-5 2.8v-.7c-.1-.8-.1-1.7-.1-2.6z"/><path fill="#2A4057" d="M271.7 262.9c1.4.7 2.8 1.5 4.1 2.4v2.7c-1.4-.7-2.8-1.5-4.1-2.2v-2.9z"/><path fill="#656565" d="M257.4 264.5c.6.3 1.2.7 1.8 1-.2 1-.2 2-.2 2.9l-.2.1c-.1-.8-.2-1.5-.2-2.4-.2 0-.4.1-.6.1-.1.8-.2 1.5-.3 2.4-.1-.6-.2-1.1-.2-1.6-.2-.8-.1-1.7-.1-2.5z"/><path fill="#B2B2B2" d="M258.9 268.5c.1-1 .1-2 .2-2.9 1.9 1.1 3.7 2.1 5.6 3.3-.1 1.2-.1 2.4-.1 3.7 0-.1-.1-.2-.2-.3-.1-.6 0-1.1-.2-1.7-.8-.5-1.7-.7-2.5-1.2-.7-.4-1.3-.9-2.1-1.1-.1-.1-.3 0-.7.2z"/><path fill="#C89B6D" d="M275.9 268.5c1.7-.9 3.3-2 5-2.8 0 .5.1 1 .1 1.5 0 .1-.1.3-.2.4-1.7.7-3.3 1.9-5 2.7.1-.6.1-1.2.1-1.8z"/><path fill="#A8A8A8" d="M258 266.3c.2 0 .4-.1.6-.1.1.8.2 1.5.2 2.4-.3.2-.8.2-1.2.1.2-.9.3-1.7.4-2.4z"/><path fill="#656565" d="M275.9 270.4c1.7-.8 3.3-2 5-2.7.1 2.6.1 5.3.1 7.9-.7.4-1.5.7-2.2 1.1v-.2c.2-1.1.2-2.2.1-3.3-1 .6-2 1.2-2.8 2-.2-.1-.2-.2-.4-.2.3-1.6.2-3.1.2-4.6z"/><path fill="#676767" d="M264.8 268.7c.7.4 1.5.8 2.2 1.3-.2-.1-.3-.2-.6-.2 0 .9-.1 1.9-.2 2.8-.1 0-.3.1-.5.1 0-.7 0-1.5-.1-2.3h-.6c0 .8-.1 1.6-.2 2.4-.1-.1-.2-.3-.3-.5.1-1.1.2-2.4.3-3.6z"/><path fill="#B5B4B4" d="M266.5 269.9c.2.1.3.2.6.2 1.4.9 2.8 1.7 4.3 2.4.5.3.7.9.7 1.5-1.4-.2-2.7-.7-4.1-1.1-1-.3-2 .2-2.9.1.2-.8.2-1.5.2-2.4h.6c0 .7.1 1.5.1 2.3.1 0 .3-.1.5-.1-.1-1.1-.1-2 0-2.9z"/><path fill="#656565" d="M271.3 272.6c.9.4 1.8 1 2.6 1.5-.1.7-.2 1.3-.2 2-.1.3-.1.7-.2 1.1-.3-.9-.2-1.9-.7-2.7-.2.9-.2 1.8-.6 2.7-.1-.3-.2-.7-.2-1.1 0-.1 0-.2-.1-.4V274c.1-.6-.1-1.1-.6-1.4z"/><path fill="#141414" d="M276.1 275.2c.8-.8 1.8-1.5 2.8-2 .1 1.1 0 2.2-.1 3.3-.9-.4-1.8-.9-2.7-1.3z"/><path fill="#D3D3D3" d="M273.8 276c.1-.7.2-1.3.2-2 .6.3 1.1.7 1.7 1 .2.1.2.2.4.2.9.4 1.8.8 2.7 1.3v.2c-1.6-.6-3.3-.8-5-.7z"/><path fill="#B0B0B0" d="M272.8 274.4c.5.8.4 1.8.7 2.7h-1.3c.3-.9.4-1.8.6-2.7z"/></svg>