<?xml version="1.0" encoding="utf-8"?>
<!-- Generator: Adobe Illustrator 18.0.0, SVG Export Plug-In . SVG Version: 6.00 Build 0)  -->
<!DOCTYPE svg PUBLIC "-//W3C//DTD SVG 1.1//EN" "http://www.w3.org/Graphics/SVG/1.1/DTD/svg11.dtd" [
	<!ENTITY ns_flows "http://ns.adobe.com/Flows/1.0/">
	<!ENTITY ns_extend "http://ns.adobe.com/Extensibility/1.0/"> 
	<!ENTITY ns_ai "http://ns.adobe.com/AdobeIllustrator/10.0/" >
	<!ENTITY ns_graphs "http://ns.adobe.com/Graphs/1.0/">
]>
<svg version="1.1" id="Capa_1" xmlns:x="&ns_extend;" xmlns:i="&ns_ai;" xmlns:graph="&ns_graphs;"
	 xmlns="http://www.w3.org/2000/svg" xmlns:xlink="http://www.w3.org/1999/xlink" xmlns:a="http://ns.adobe.com/AdobeSVGViewerExtensions/3.0/"
	 x="0px" y="0px" width="663.6px" height="380px" viewBox="0 0 663.6 380" enable-background="new 0 0 663.6 380"
	 xml:space="preserve">
<path fill="#221A16" d="M67.2,0h523.1c10.5,0,19,8.7,19,19.4v325.7c0,10.7-8.5,19.4-19,19.4H67.2c-10.5,0-19-8.7-19-19.4V19.4
	C48.2,8.7,56.7,0,67.2,0z"/>
<path opacity="0.4" fill="#FFFFFF" enable-background="new    " d="M69.5,5h518.7c9.1,0,16.4,7.5,16.4,16.7v321.2
	c0,9.2-7.3,16.7-16.4,16.7H69.5c-9.1,0-16.4-7.5-16.4-16.7V21.7C53.1,12.5,60.4,5,69.5,5z"/>
<path fill="#221A16" d="M69.3,6.2h519c8.3,0,15,6.9,15,15.3v321.6c0,8.5-6.7,15.3-15,15.3h-519c-8.3,0-15-6.9-15-15.3V21.5
	C54.2,13,61,6.2,69.3,6.2z"/>
<defs>
	<filter id="Adobe_OpacityMaskFilter" filterUnits="userSpaceOnUse" x="76" y="28.4" width="505.5" height="307.8">
		<feColorMatrix  type="matrix" values="1 0 0 0 0  0 1 0 0 0  0 0 1 0 0  0 0 0 1 0"/>
	</filter>
</defs>  
<mask maskUnits="userSpaceOnUse" x="76" y="28.4" width="505.5" height="307.8" id="id6_1_">
	<path fill="#1B1B1B" filter="url(#Adobe_OpacityMaskFilter)" d="M328.8,182.3l-83.3,288.2l3.5,1L328.8,182.3"/>
	<path fill="#010202" d="M328.8,182.3L412-105.9l-3.5-1L328.8,182.3"/>
	<path fill="#1B1B1B" d="M328.8,182.3L249,471.4l3.5,1L328.8,182.3"/>
	<path fill="#010202" d="M328.8,182.3l79.8-289.2l-3.5-1L328.8,182.3"/>
	<path fill="#1B1B1B" d="M328.8,182.3l-76.3,290.1l3.5,1L328.8,182.3"/>
	<path fill="#010202" d="M328.8,182.3l76.3-290.2l-3.5-0.9L328.8,182.3"/>
	<path fill="#1B1B1B" d="M328.8,182.3L256,473.4l3.5,0.9L328.8,182.3"/>
	<path fill="#010202" d="M328.8,182.3l72.8-291.1l-3.5-0.9L328.8,182.3"/>
	<path fill="#1B1B1B" d="M328.8,182.3l-69.3,292l3.5,0.8L328.8,182.3"/>
	<path fill="#010202" d="M328.8,182.3l69.3-292l-3.5-0.8L328.8,182.3"/>
	<path fill="#1A1A1A" d="M328.8,182.3L263,475.1l3.5,0.8L328.8,182.3"/>
	<path fill="#020303" d="M328.8,182.3l65.7-292.8l-3.5-0.8L328.8,182.3"/>
	<path fill="#1A1A1A" d="M328.8,182.3l-62.2,293.7l3.5,0.8L328.8,182.3"/>
	<path fill="#020303" d="M328.8,182.3L391-111.4l-3.5-0.8L328.8,182.3"/>
	<path fill="#1A1A1A" d="M328.8,182.3l-58.7,294.4l3.5,0.7L328.8,182.3"/>
	<path fill="#020303" d="M328.8,182.3l58.7-294.4l-3.6-0.7L328.8,182.3"/>
	<path fill="#1A1A1A" d="M328.8,182.3l-55.1,295.1l3.6,0.7L328.8,182.3"/>
	<path fill="#020303" d="M328.8,182.3l55.1-295.1l-3.5-0.7L328.8,182.3"/>
	<path fill="#1A1A1A" d="M328.8,182.3l-51.5,295.8l3.6,0.6L328.8,182.3"/>
	<path fill="#020303" d="M328.8,182.3l51.5-295.8l-3.6-0.6L328.8,182.3"/>
	<path fill="#1A1A1A" d="M328.8,182.3l-48,296.4l3.6,0.6L328.8,182.3"/>
	<path fill="#020303" d="M328.8,182.3l48-296.4l-3.6-0.6L328.8,182.3"/>
	<path fill="#1A1A1A" d="M328.8,182.3l-44.4,297l3.6,0.5L328.8,182.3"/>
	<path fill="#020303" d="M328.8,182.3l44.4-297l-3.6-0.5L328.8,182.3"/>
	<path fill="#1A1A1A" d="M328.8,182.3L288,479.8l3.6,0.5L328.8,182.3"/>
	<path fill="#020303" d="M328.8,182.3l40.8-297.5l-3.6-0.5L328.8,182.3"/>
	<path fill="#1A1A1A" d="M328.8,182.3l-37.2,298l3.6,0.4L328.8,182.3"/>
	<path fill="#020303" d="M328.8,182.3l37.2-298l-3.6-0.4L328.8,182.3"/>
	<path fill="#1A1A1A" d="M328.8,182.3l-33.6,298.5l3.6,0.4L328.8,182.3"/>
	<path fill="#020303" d="M328.8,182.3l33.6-298.5l-3.6-0.4L328.8,182.3"/>
	<path fill="#181819" d="M328.8,182.3l-30,298.9l3.6,0.3L328.8,182.3"/>
	<path fill="#020304" d="M328.8,182.3l30-298.9l-3.6-0.3L328.8,182.3"/>
	<path fill="#181819" d="M328.8,182.3l-26.4,299.2l3.6,0.3L328.8,182.3"/>
	<path fill="#020304" d="M328.8,182.3l26.4-299.2l-3.6-0.3L328.8,182.3"/>
	<path fill="#181819" d="M328.8,182.3L306,481.8l3.6,0.3L328.8,182.3"/>
	<path fill="#020304" d="M328.8,182.3l22.7-299.5l-3.6-0.3L328.8,182.3"/>
	<path fill="#181819" d="M328.8,182.3l-19.2,299.8l3.6,0.2L328.8,182.3"/>
	<path fill="#020304" d="M328.8,182.3l19.1-299.8l-3.6-0.2L328.8,182.3"/>
	<path fill="#181819" d="M328.8,182.3l-15.5,300l3.6,0.2L328.8,182.3"/>
	<path fill="#020304" d="M328.8,182.3l15.5-300l-3.6-0.2L328.8,182.3"/>
	<path fill="#181819" d="M328.8,182.3l-11.9,300.2l3.6,0.1L328.8,182.3"/>
	<path fill="#020304" d="M328.8,182.3l11.9-300.2L337-118L328.8,182.3"/>
	<path fill="#181819" d="M328.8,182.3l-8.3,300.3l3.6,0.1L328.8,182.3"/>
	<path fill="#020304" d="M328.8,182.3L337-118l-3.6-0.1L328.8,182.3"/>
	<path fill="#181819" d="M328.8,182.3l-4.7,300.4l3.6,0L328.8,182.3"/>
	<path fill="#020304" d="M328.8,182.3l4.6-300.4l-3.6,0L328.8,182.3"/>
	<path fill="#181819" d="M328.8,182.3l-1,300.4h3.6L328.8,182.3"/>
	<path fill="#020304" d="M328.8,182.3l1-300.4h-3.6L328.8,182.3"/>
	<path fill="#181819" d="M328.8,182.3l2.6,300.4l3.6-0.1L328.8,182.3"/>
	<path fill="#020304" d="M328.8,182.3l-2.6-300.4l-3.6,0.1L328.8,182.3"/>
	<path fill="#171717" d="M328.8,182.3l6.2,300.4l3.6-0.1L328.8,182.3"/>
	<path fill="#030405" d="M328.8,182.3l-6.2-300.4l-3.6,0.1L328.8,182.3"/>
	<path fill="#171717" d="M328.8,182.3l9.8,300.2l3.6-0.1L328.8,182.3"/>
	<path fill="#030405" d="M328.8,182.3L318.9-118l-3.6,0.1L328.8,182.3"/>
	<path fill="#171717" d="M328.8,182.3l13.4,300.1l3.6-0.2L328.8,182.3"/>
	<path fill="#030405" d="M328.8,182.3l-13.5-300.1l-3.6,0.2L328.8,182.3"/>
	<path fill="#171717" d="M328.8,182.3l17.1,299.9l3.6-0.2L328.8,182.3"/>
	<path fill="#030405" d="M328.8,182.3l-17.1-299.9l-3.6,0.2L328.8,182.3"/>
	<path fill="#171717" d="M328.8,182.3L349.5,482l3.6-0.3L328.8,182.3"/>
	<path fill="#030405" d="M328.8,182.3l-20.7-299.7l-3.6,0.3L328.8,182.3"/>
	<path fill="#171717" d="M328.8,182.3l24.3,299.4l3.6-0.3L328.8,182.3"/>
	<path fill="#030405" d="M328.8,182.3l-24.3-299.4l-3.6,0.3L328.8,182.3"/>
	<path fill="#171717" d="M328.8,182.3l27.9,299.1l3.6-0.4L328.8,182.3"/>
	<path fill="#030405" d="M328.8,182.3l-27.9-299.1l-3.6,0.4L328.8,182.3"/>
	<path fill="#171717" d="M328.8,182.3L360.3,481l3.6-0.4L328.8,182.3"/>
	<path fill="#030405" d="M328.8,182.3l-31.5-298.7l-3.6,0.4L328.8,182.3"/>
	<path fill="#171717" d="M328.8,182.3l35.1,298.3l3.6-0.5L328.8,182.3"/>
	<path fill="#030405" d="M328.8,182.3L293.6-116l-3.6,0.5L328.8,182.3"/>
	<path fill="#171717" d="M328.8,182.3l38.7,297.8l3.6-0.5L328.8,182.3"/>
	<path fill="#030405" d="M328.8,182.3L290-115.5l-3.6,0.5L328.8,182.3"/>
	<path fill="#161617" d="M328.8,182.3l42.3,297.3l3.6-0.6L328.8,182.3"/>
	<path fill="#040505" d="M328.8,182.3L286.4-115l-3.6,0.6L328.8,182.3"/>
	<path fill="#161617" d="M328.8,182.3L374.7,479l3.6-0.6L328.8,182.3"/>
	<path fill="#040505" d="M328.8,182.3l-45.9-296.7l-3.6,0.6L328.8,182.3"/>
	<path fill="#161617" d="M328.8,182.3l49.5,296.2l3.5-0.6L328.8,182.3"/>
	<path fill="#040505" d="M328.8,182.3l-49.5-296.2l-3.6,0.6L328.8,182.3"/>
	<path fill="#161617" d="M328.8,182.3l53,295.5l3.6-0.7L328.8,182.3"/>
	<path fill="#040505" d="M328.8,182.3l-53.1-295.5l-3.6,0.7L328.8,182.3"/>
	<path fill="#161617" d="M328.8,182.3l56.6,294.8l3.5-0.7L328.8,182.3"/>
	<path fill="#040505" d="M328.8,182.3l-56.7-294.8l-3.5,0.7L328.8,182.3"/>
	<path fill="#161617" d="M328.8,182.3l60.2,294.1l3.5-0.8L328.8,182.3"/>
	<path fill="#040505" d="M328.8,182.3l-60.2-294.1L265-111L328.8,182.3"/>
	<path fill="#161617" d="M328.8,182.3l63.7,293.3l3.5-0.8L328.8,182.3"/>
	<path fill="#040505" d="M328.8,182.3L265-111l-3.5,0.8L328.8,182.3"/>
	<path fill="#161617" d="M328.8,182.3L396,474.8l3.5-0.9L328.8,182.3"/>
	<path fill="#040505" d="M328.8,182.3l-67.3-292.5l-3.5,0.9L328.8,182.3"/>
	<path fill="#161617" d="M328.8,182.3l70.8,291.6l3.5-0.9L328.8,182.3"/>
	<path fill="#040505" d="M328.8,182.3L258-109.3l-3.5,0.9L328.8,182.3"/>
	<path fill="#161617" d="M328.8,182.3L403.1,473l3.5-1L328.8,182.3"/>
	<path fill="#040505" d="M328.8,182.3l-74.3-290.7l-3.5,1L328.8,182.3"/>
	<path fill="#151515" d="M328.8,182.3L406.6,472l3.5-1L328.8,182.3"/>
	<path fill="#050606" d="M328.8,182.3l-77.8-289.8l-3.5,1L328.8,182.3"/>
	<path fill="#151515" d="M328.8,182.3L410.1,471l3.5-1L328.8,182.3"/>
	<path fill="#050606" d="M328.8,182.3l-81.3-288.7l-3.5,1L328.8,182.3"/>
	<path fill="#151515" d="M328.8,182.3L413.6,470l3.5-1.1L328.8,182.3"/>
	<path fill="#050606" d="M328.8,182.3L244-105.4l-3.5,1.1L328.8,182.3"/>
	<path fill="#151515" d="M328.8,182.3L417,468.9l3.4-1.1L328.8,182.3"/>
	<path fill="#050606" d="M328.8,182.3l-88.2-286.6l-3.5,1.1L328.8,182.3"/>
	<path fill="#151515" d="M328.8,182.3l91.7,285.5l3.4-1.2L328.8,182.3"/>
	<path fill="#050606" d="M328.8,182.3l-91.7-285.5l-3.4,1.2L328.8,182.3"/>
	<path fill="#151515" d="M328.8,182.3l95.1,284.3l3.4-1.2L328.8,182.3"/>
	<path fill="#050606" d="M328.8,182.3L233.6-102l-3.4,1.2L328.8,182.3"/>
	<path fill="#151515" d="M328.8,182.3l98.6,283.1l3.4-1.3L328.8,182.3"/>
	<path fill="#050606" d="M328.8,182.3l-98.6-283.1l-3.4,1.2L328.8,182.3"/>
	<path fill="#151515" d="M328.8,182.3l102,281.8l3.4-1.3L328.8,182.3"/>
	<path fill="#050606" d="M328.8,182.3l-102-281.8l-3.4,1.3L328.8,182.3"/>
	<path fill="#151515" d="M328.8,182.3l105.4,280.5l3.4-1.3L328.8,182.3"/>
	<path fill="#050606" d="M328.8,182.3L223.4-98.2l-3.4,1.3L328.8,182.3"/>
	<path fill="#141414" d="M328.8,182.3l108.7,279.2l3.4-1.4L328.8,182.3"/>
	<path fill="#060607" d="M328.8,182.3L220-96.9l-3.4,1.4L328.8,182.3"/>
	<path fill="#141414" d="M328.8,182.3l112.1,277.8l3.4-1.4L328.8,182.3"/>
	<path fill="#060607" d="M328.8,182.3L216.7-95.5l-3.4,1.4L328.8,182.3"/>
	<path fill="#141414" d="M328.8,182.3l115.4,276.4l3.3-1.5L328.8,182.3"/>
	<path fill="#060607" d="M328.8,182.3L213.3-94.1l-3.3,1.5L328.8,182.3"/>
	<path fill="#141414" d="M328.8,182.3l118.8,274.9l3.3-1.5L328.8,182.3"/>
	<path fill="#060607" d="M328.8,182.3L210-92.6l-3.3,1.5L328.8,182.3"/>
	<path fill="#141414" d="M328.8,182.3l122.1,273.4l3.3-1.5L328.8,182.3"/>
	<path fill="#060607" d="M328.8,182.3L206.7-91.1l-3.3,1.5L328.8,182.3"/>
	<path fill="#141414" d="M328.8,182.3l125.4,271.8l3.3-1.6L328.8,182.3"/>
	<path fill="#060607" d="M328.8,182.3L203.4-89.5l-3.3,1.6L328.8,182.3"/>
	<path fill="#141414" d="M328.8,182.3l128.6,270.2l3.2-1.7L328.8,182.3"/>
	<path fill="#060607" d="M328.8,182.3L200.1-87.9l-3.3,1.6L328.8,182.3"/>
	<path fill="#141414" d="M328.8,182.3l131.9,268.6l3.2-1.7L328.8,182.3"/>
	<path fill="#060607" d="M328.8,182.3L196.9-86.3l-3.2,1.7L328.8,182.3"/>
	<path fill="#141414" d="M328.8,182.3l135.1,266.9l3.2-1.7L328.8,182.3"/>
	<path fill="#060607" d="M328.8,182.3L193.6-84.6l-3.2,1.7L328.8,182.3"/>
	<path fill="#141414" d="M328.8,182.3l138.3,265.2l3.2-1.7L328.8,182.3"/>
	<path fill="#060607" d="M328.8,182.3L190.4-82.9l-3.2,1.8L328.8,182.3"/>
	<path fill="#131313" d="M328.8,182.3l141.5,263.4l3.2-1.8L328.8,182.3"/>
	<path fill="#070708" d="M328.8,182.3L187.2-81.1l-3.2,1.8L328.8,182.3"/>
	<path fill="#131313" d="M328.8,182.3l144.7,261.6l3.2-1.9L328.8,182.3"/>
	<path fill="#070708" d="M328.8,182.3L184.1-79.3l-3.2,1.9L328.8,182.3"/>
	<path fill="#131313" d="M328.8,182.3l147.8,259.8l3.1-1.9L328.8,182.3"/>
	<path fill="#070708" d="M328.8,182.3L180.9-77.5l-3.1,1.9L328.8,182.3"/>
	<path fill="#131313" d="M328.8,182.3l151,257.9l3.1-1.9L328.8,182.3"/>
	<path fill="#070708" d="M328.8,182.3l-151-257.9l-3.1,1.9L328.8,182.3"/>
	<path fill="#131313" d="M328.8,182.3l154.1,256l3.1-2L328.8,182.3"/>
	<path fill="#070708" d="M328.8,182.3l-154.1-256l-3.1,2L328.8,182.3"/>
	<path fill="#131313" d="M328.8,182.3l157.1,254l3.1-2L328.8,182.3"/>
	<path fill="#070708" d="M328.8,182.3l-157.2-254l-3.1,2L328.8,182.3"/>
	<path fill="#131313" d="M328.8,182.3l160.2,252l3-2L328.8,182.3"/>
	<path fill="#070708" d="M328.8,182.3l-160.2-252l-3,2L328.8,182.3"/>
	<path fill="#131313" d="M328.8,182.3l163.2,250l3-2.1L328.8,182.3"/>
	<path fill="#070708" d="M328.8,182.3l-163.2-250l-3,2.1L328.8,182.3"/>
	<path fill="#131313" d="M328.8,182.3L495,430.2l3-2.1L328.8,182.3"/>
	<path fill="#070708" d="M328.8,182.3L162.5-65.7l-3,2.1L328.8,182.3"/>
	<path fill="#131313" d="M328.8,182.3L498,428.1l3-2.2L328.8,182.3"/>
	<path fill="#070708" d="M328.8,182.3L159.5-63.5l-2.9,2.2L328.8,182.3"/>
	<path fill="#121212" d="M328.8,182.3L501,425.9l2.9-2.2L328.8,182.3"/>
	<path fill="#080809" d="M328.8,182.3L156.6-61.4l-2.9,2.2L328.8,182.3"/>
	<path fill="#121212" d="M328.8,182.3l175.1,241.5l2.9-2.2L328.8,182.3"/>
	<path fill="#080809" d="M328.8,182.3L153.6-59.2l-2.9,2.2L328.8,182.3"/>
	<path fill="#121212" d="M328.8,182.3l178,239.3l2.9-2.2L328.8,182.3"/>
	<path fill="#080809" d="M328.8,182.3L150.8-57l-2.9,2.2L328.8,182.3"/>
	<path fill="#121212" d="M328.8,182.3l180.9,237l2.9-2.3L328.8,182.3"/>
	<path fill="#080809" d="M328.8,182.3l-180.9-237l-2.8,2.3L328.8,182.3"/>
	<path fill="#121212" d="M328.8,182.3L512.5,417l2.8-2.3L328.8,182.3"/>
	<path fill="#080809" d="M328.8,182.3L145-52.4l-2.8,2.3L328.8,182.3"/>
	<path fill="#121212" d="M328.8,182.3l186.5,232.4l2.8-2.4L328.8,182.3"/>
	<path fill="#080809" d="M328.8,182.3L142.2-50.1l-2.8,2.4L328.8,182.3"/>
	<path fill="#121212" d="M328.8,182.3l189.3,230l2.8-2.4L328.8,182.3"/>
	<path fill="#080809" d="M328.8,182.3l-189.3-230l-2.8,2.4L328.8,182.3"/>
	<path fill="#121212" d="M328.8,182.3l192.1,227.6l2.7-2.4L328.8,182.3"/>
	<path fill="#080809" d="M328.8,182.3L136.7-45.4l-2.7,2.4L328.8,182.3"/>
	<path fill="#121212" d="M328.8,182.3l194.8,225.2l2.7-2.5L328.8,182.3"/>
	<path fill="#080809" d="M328.8,182.3L133.9-42.9l-2.7,2.5L328.8,182.3"/>
	<path fill="#121212" d="M328.8,182.3L526.3,405l2.7-2.5L328.8,182.3"/>
	<path fill="#080809" d="M328.8,182.3L131.2-40.4l-2.7,2.5L328.8,182.3"/>
	<path fill="#111111" d="M328.8,182.3L529,402.5l2.6-2.5L328.8,182.3"/>
	<path fill="#08090A" d="M328.8,182.3L128.5-37.9l-2.6,2.5L328.8,182.3"/>
	<path fill="#111111" d="M328.8,182.3L531.6,400l2.6-2.6L328.8,182.3"/>
	<path fill="#08090A" d="M328.8,182.3L125.9-35.4l-2.6,2.6L328.8,182.3"/>
	<path fill="#111111" d="M328.8,182.3l205.5,215.1l2.6-2.6L328.8,182.3"/>
	<path fill="#08090A" d="M328.8,182.3L123.3-32.8l-2.6,2.6L328.8,182.3"/>
	<path fill="#111111" d="M328.8,182.3l208,212.5l2.6-2.6L328.8,182.3"/>
	<path fill="#08090A" d="M328.8,182.3L120.7-30.3l-2.5,2.6L328.8,182.3"/>
	<path fill="#111111" d="M328.8,182.3l210.6,209.9l2.5-2.7L328.8,182.3"/>
	<path fill="#08090A" d="M328.8,182.3L118.2-27.6l-2.5,2.7L328.8,182.3"/>
	<path fill="#111111" d="M328.8,182.3l213.1,207.2l2.5-2.7L328.8,182.3"/>
	<path fill="#08090A" d="M328.8,182.3L115.6-25l-2.5,2.7L328.8,182.3"/>
	<path fill="#111111" d="M328.8,182.3l215.6,204.5l2.5-2.7L328.8,182.3"/>
	<path fill="#08090A" d="M328.8,182.3L113.2-22.3l-2.4,2.7L328.8,182.3"/>
	<path fill="#111111" d="M328.8,182.3l218.1,201.8l2.4-2.8L328.8,182.3"/>
	<path fill="#08090A" d="M328.8,182.3L110.7-19.5l-2.4,2.8L328.8,182.3"/>
	<path fill="#111111" d="M328.8,182.3l220.5,199l2.4-2.8L328.8,182.3"/>
	<path fill="#08090A" d="M328.8,182.3L108.3-16.8l-2.4,2.8L328.8,182.3"/>
	<path fill="#111111" d="M328.8,182.3l222.8,196.3l2.4-2.8L328.8,182.3"/>
	<path fill="#08090A" d="M328.8,182.3L105.9-14l-2.4,2.8L328.8,182.3"/>
	<path fill="#101010" d="M328.8,182.3L554,375.7l2.3-2.9L328.8,182.3"/>
	<path fill="#090A0B" d="M328.8,182.3L103.5-11.2l-2.3,2.8L328.8,182.3"/>
	<path fill="#101010" d="M328.8,182.3l227.5,190.6l2.3-2.9L328.8,182.3"/>
	<path fill="#090A0B" d="M328.8,182.3L101.2-8.3l-2.3,2.9L328.8,182.3"/>
	<path fill="#101010" d="M328.8,182.3L558.6,370l2.3-2.9L328.8,182.3"/>
	<path fill="#090A0B" d="M328.8,182.3L98.9-5.4l-2.3,2.9L328.8,182.3"/>
	<path fill="#101010" d="M328.8,182.3l232,184.8l2.2-2.9L328.8,182.3"/>
	<path fill="#090A0B" d="M328.8,182.3L96.7-2.6l-2.2,2.9L328.8,182.3"/>
	<path fill="#101010" d="M328.8,182.3L563,364.2l2.2-2.9L328.8,182.3"/>
	<path fill="#090A0B" d="M328.8,182.3L94.5,0.4l-2.2,2.9L328.8,182.3"/>
	<path fill="#101010" d="M328.8,182.3l236.4,178.9l2.1-3L328.8,182.3"/>
	<path fill="#090A0B" d="M328.8,182.3L92.3,3.3l-2.1,3L328.8,182.3"/>
	<path fill="#101010" d="M328.8,182.3l238.6,175.9l2.1-3L328.8,182.3"/>
	<path fill="#090A0B" d="M328.8,182.3L90.2,6.3l-2.1,3L328.8,182.3"/>
	<path fill="#101010" d="M328.8,182.3l240.7,172.9l2.1-3L328.8,182.3"/>
	<path fill="#090A0B" d="M328.8,182.3L88.1,9.3l-2.1,3L328.8,182.3"/>
	<path fill="#101010" d="M328.8,182.3l242.7,169.9l2-3.1L328.8,182.3"/>
	<path fill="#090A0B" d="M328.8,182.3L86,12.4l-2,3.1L328.8,182.3"/>
	<path fill="#0F0F0F" d="M328.8,182.3l244.8,166.8l2-3.1L328.8,182.3"/>
	<path fill="#0B0C0C" d="M328.8,182.3L84,15.5l-2,3.1L328.8,182.3"/>
	<path fill="#0F0F0F" d="M328.8,182.3L575.6,346l2-3.1L328.8,182.3"/>
	<path fill="#0B0C0C" d="M328.8,182.3L82,18.6l-2,3.1L328.8,182.3"/>
	<path fill="#0F0F0F" d="M328.8,182.3l248.7,160.6l1.9-3.1L328.8,182.3"/>
	<path fill="#0B0C0C" d="M328.8,182.3L80,21.7l-1.9,3.1L328.8,182.3"/>
	<path fill="#0F0F0F" d="M328.8,182.3l250.7,157.5l1.9-3.1L328.8,182.3"/>
	<path fill="#0B0C0C" d="M328.8,182.3L78.1,24.8L76.2,28L328.8,182.3"/>
	<path fill="#0F0F0F" d="M328.8,182.3l252.5,154.3l1.8-3.2L328.8,182.3"/>
	<path fill="#0B0C0C" d="M328.8,182.3L76.2,28l-1.8,3.2L328.8,182.3"/>
	<path fill="#0F0F0F" d="M328.8,182.3l254.4,151.1l1.8-3.2L328.8,182.3"/>
	<path fill="#0B0C0C" d="M328.8,182.3L74.4,31.2l-1.8,3.2L328.8,182.3"/>
	<path fill="#0F0F0F" d="M328.8,182.3L585,330.2l1.8-3.2L328.8,182.3"/>
	<path fill="#0B0C0C" d="M328.8,182.3L72.5,34.4l-1.8,3.2L328.8,182.3"/>
	<path fill="#0F0F0F" d="M328.8,182.3l258,144.7l1.7-3.3L328.8,182.3"/>
	<path fill="#0B0C0C" d="M328.8,182.3L70.8,37.6l-1.7,3.3L328.8,182.3"/>
	<path fill="#0F0F0F" d="M328.8,182.3l259.7,141.4l1.7-3.3L328.8,182.3"/>
	<path fill="#0B0C0C" d="M328.8,182.3L69.1,40.8l-1.7,3.3L328.8,182.3"/>
	<path fill="#0F0F0F" d="M328.8,182.3l261.4,138.2l1.7-3.3L328.8,182.3"/>
	<path fill="#0B0C0C" d="M328.8,182.3L67.4,44.1l-1.7,3.3L328.8,182.3"/>
	<path fill="#0D0E0E" d="M328.8,182.3l263,134.8l1.6-3.3L328.8,182.3"/>
	<path fill="#0B0C0C" d="M328.8,182.3L65.7,47.4l-1.6,3.3L328.8,182.3"/>
	<path fill="#0D0E0E" d="M328.8,182.3l264.6,131.5l1.6-3.3L328.8,182.3"/>
	<path fill="#0B0C0C" d="M328.8,182.3L64.1,50.7l-1.6,3.3L328.8,182.3"/>
	<path fill="#0D0E0E" d="M328.8,182.3L595,310.5l1.5-3.3L328.8,182.3"/>
	<path fill="#0B0C0C" d="M328.8,182.3L62.6,54.1L61,57.4L328.8,182.3"/>
	<path fill="#0D0E0E" d="M328.8,182.3l267.7,124.8l1.5-3.4L328.8,182.3"/>
	<path fill="#0B0C0C" d="M328.8,182.3L61,57.4l-1.5,3.4L328.8,182.3"/>
	<path fill="#0D0E0E" d="M328.8,182.3L598,303.7l1.5-3.4L328.8,182.3"/>
	<path fill="#0B0C0C" d="M328.8,182.3L59.5,60.8l-1.4,3.4L328.8,182.3"/>
	<path fill="#0D0E0E" d="M328.8,182.3l270.7,118.1l1.4-3.4L328.8,182.3"/>
	<path fill="#0B0C0C" d="M328.8,182.3L58.1,64.2l-1.4,3.4L328.8,182.3"/>
	<path fill="#0D0E0E" d="M328.8,182.3l272.1,114.7l1.3-3.4L328.8,182.3"/>
	<path fill="#0B0C0C" d="M328.8,182.3L56.7,67.6L55.3,71L328.8,182.3"/>
	<path fill="#0D0E0E" d="M328.8,182.3l273.4,111.2l1.3-3.5L328.8,182.3"/>
	<path fill="#0B0C0C" d="M328.8,182.3L55.3,71L54,74.5L328.8,182.3"/>
	<path fill="#0D0E0E" d="M328.8,182.3l274.7,107.8l1.3-3.5L328.8,182.3"/>
	<path fill="#0B0C0C" d="M328.8,182.3L54,74.5l-1.3,3.5L328.8,182.3"/>
	<path fill="#0D0E0E" d="M328.8,182.3l276,104.3l1.2-3.5L328.8,182.3"/>
	<path fill="#0B0C0C" d="M328.8,182.3L52.7,77.9l-1.2,3.5L328.8,182.3"/>
	<path fill="#0C0D0D" d="M328.8,182.3L606,283.1l1.2-3.5L328.8,182.3"/>
	<path fill="#0C0D0D" d="M328.8,182.3L51.5,81.4l-1.2,3.5L328.8,182.3"/>
	<path fill="#0C0D0D" d="M328.8,182.3l278.5,97.3l1.1-3.5L328.8,182.3"/>
	<path fill="#0C0D0D" d="M328.8,182.3L50.3,84.9l-1.2,3.5L328.8,182.3"/>
	<path fill="#0C0D0D" d="M328.8,182.3l279.6,93.8l1.1-3.5L328.8,182.3"/>
	<path fill="#0C0D0D" d="M328.8,182.3L49.1,88.4L48,92L328.8,182.3"/>
	<path fill="#0C0D0D" d="M328.8,182.3l280.7,90.3l1.1-3.5L328.8,182.3"/>
	<path fill="#0C0D0D" d="M328.8,182.3L48,92l-1.1,3.5L328.8,182.3"/>
	<path fill="#0C0D0D" d="M328.8,182.3l281.8,86.8l1-3.6L328.8,182.3"/>
	<path fill="#0C0D0D" d="M328.8,182.3L46.9,95.5l-1,3.6L328.8,182.3"/>
	<path fill="#0C0D0D" d="M328.8,182.3l282.8,83.2l1-3.6L328.8,182.3"/>
	<path fill="#0C0D0D" d="M328.8,182.3L45.9,99.1l-1,3.6L328.8,182.3"/>
	<path fill="#0C0D0D" d="M328.8,182.3l283.8,79.7l0.9-3.6L328.8,182.3"/>
	<path fill="#0C0D0D" d="M328.8,182.3L44.9,102.6l-0.9,3.6L328.8,182.3"/>
	<path fill="#0C0D0D" d="M328.8,182.3l284.7,76.1l0.9-3.6L328.8,182.3"/>
	<path fill="#0C0D0D" d="M328.8,182.3L44,106.2l-0.9,3.6L328.8,182.3"/>
	<path fill="#0C0D0D" d="M328.8,182.3l285.6,72.5l0.9-3.6L328.8,182.3"/>
	<path fill="#0C0D0D" d="M328.8,182.3L43.1,109.8l-0.9,3.6L328.8,182.3"/>
	<path fill="#0C0D0D" d="M328.8,182.3l286.5,68.9l0.8-3.6L328.8,182.3"/>
	<path fill="#0C0D0D" d="M328.8,182.3L42.3,113.4l-0.8,3.6L328.8,182.3"/>
	<path fill="#0B0C0C" d="M328.8,182.3l287.3,65.3l0.8-3.6L328.8,182.3"/>
	<path fill="#0D0E0E" d="M328.8,182.3L41.4,117l-0.8,3.6L328.8,182.3"/>
	<path fill="#0B0C0C" d="M328.8,182.3l288.1,61.7l0.7-3.6L328.8,182.3"/>
	<path fill="#0D0E0E" d="M328.8,182.3L40.7,120.6l-0.7,3.6L328.8,182.3"/>
	<path fill="#0B0C0C" d="M328.8,182.3l288.8,58l0.7-3.6L328.8,182.3"/>
	<path fill="#0D0E0E" d="M328.8,182.3L40,124.2l-0.7,3.6L328.8,182.3"/>
	<path fill="#0B0C0C" d="M328.8,182.3l289.5,54.4l0.6-3.6L328.8,182.3"/>
	<path fill="#0D0E0E" d="M328.8,182.3L39.3,127.9l-0.6,3.6L328.8,182.3"/>
	<path fill="#0B0C0C" d="M328.8,182.3l290.1,50.8l0.6-3.6L328.8,182.3"/>
	<path fill="#0D0E0E" d="M328.8,182.3L38.6,131.5l-0.6,3.6L328.8,182.3"/>
	<path fill="#0B0C0C" d="M328.8,182.3l290.7,47.1l0.5-3.7L328.8,182.3"/>
	<path fill="#0D0E0E" d="M328.8,182.3L38.1,135.1l-0.6,3.6L328.8,182.3"/>
	<path fill="#0B0C0C" d="M328.8,182.3L620,225.7l0.5-3.6L328.8,182.3"/>
	<path fill="#0D0E0E" d="M328.8,182.3L37.5,138.8l-0.5,3.7L328.8,182.3"/>
	<path fill="#0B0C0C" d="M328.8,182.3l291.8,39.8l0.4-3.7L328.8,182.3"/>
	<path fill="#0D0E0E" d="M328.8,182.3L37,142.5l-0.5,3.7L328.8,182.3"/>
	<path fill="#0B0C0C" d="M328.8,182.3L621,218.4l0.4-3.7L328.8,182.3"/>
	<path fill="#0D0E0E" d="M328.8,182.3L36.6,146.2l-0.4,3.7L328.8,182.3"/>
	<path fill="#0B0C0C" d="M328.8,182.3l292.6,32.4l0.4-3.7L328.8,182.3"/>
	<path fill="#0D0E0E" d="M328.8,182.3L36.1,149.8l-0.4,3.7L328.8,182.3"/>
	<path fill="#0B0C0C" d="M328.8,182.3l293,28.8l0.3-3.7L328.8,182.3"/>
	<path fill="#0F0F0F" d="M328.8,182.3l-293-28.8l-0.3,3.7L328.8,182.3"/>
	<path fill="#0B0C0C" d="M328.8,182.3l293.3,25.1l0.3-3.7L328.8,182.3"/>
	<path fill="#0F0F0F" d="M328.8,182.3L35.5,157.2l-0.3,3.7L328.8,182.3"/>
	<path fill="#0B0C0C" d="M328.8,182.3l293.6,21.4l0.2-3.7L328.8,182.3"/>
	<path fill="#0F0F0F" d="M328.8,182.3L35.1,160.9l-0.2,3.7L328.8,182.3"/>
	<path fill="#0B0C0C" d="M328.8,182.3L622.6,200l0.2-3.7L328.8,182.3"/>
	<path fill="#0F0F0F" d="M328.8,182.3L34.9,164.6l-0.2,3.7L328.8,182.3"/>
	<path fill="#0B0C0C" d="M328.8,182.3l294,14l0.2-3.7L328.8,182.3"/>
	<path fill="#0F0F0F" d="M328.8,182.3l-294-14l-0.1,3.7L328.8,182.3"/>
	<path fill="#0B0C0C" d="M328.8,182.3l294.2,10.3l0.1-3.7L328.8,182.3"/>
	<path fill="#0F0F0F" d="M328.8,182.3L34.6,172l-0.1,3.7L328.8,182.3"/>
	<path fill="#0B0C0C" d="M328.8,182.3l294.3,6.6l0.1-3.7L328.8,182.3"/>
	<path fill="#0F0F0F" d="M328.8,182.3l-294.3-6.6l-0.1,3.7L328.8,182.3"/>
	<path fill="#0B0C0C" d="M328.8,182.3l294.3,2.9v-3.7L328.8,182.3"/>
	<path fill="#0F0F0F" d="M328.8,182.3l-294.3-2.9l0,3.7L328.8,182.3"/>
	<path fill="#0B0C0C" d="M328.8,182.3l294.3-0.8l0-3.7L328.8,182.3"/>
	<path fill="#0F0F0F" d="M328.8,182.3l-294.4,0.8l0,3.7L328.8,182.3"/>
	<path fill="#0B0C0C" d="M328.8,182.3l294.3-4.5l-0.1-3.7L328.8,182.3"/>
	<path fill="#0F0F0F" d="M328.8,182.3l-294.3,4.5l0.1,3.7L328.8,182.3"/>
	<path fill="#090A0B" d="M328.8,182.3l294.2-8.2l-0.1-3.7L328.8,182.3"/>
	<path fill="#101010" d="M328.8,182.3l-294.3,8.2l0.1,3.7L328.8,182.3"/>
	<path fill="#090A0B" d="M328.8,182.3l294.1-11.9l-0.2-3.7L328.8,182.3"/>
	<path fill="#101010" d="M328.8,182.3L34.7,194.2l0.2,3.7L328.8,182.3"/>
	<path fill="#090A0B" d="M328.8,182.3l294-15.6l-0.2-3.7L328.8,182.3"/>
	<path fill="#101010" d="M328.8,182.3l-294,15.6l0.2,3.7L328.8,182.3"/>
	<path fill="#090A0B" d="M328.8,182.3L622.5,163l-0.2-3.7L328.8,182.3"/>
	<path fill="#101010" d="M328.8,182.3L35,201.6l0.3,3.7L328.8,182.3"/>
	<path fill="#090A0B" d="M328.8,182.3l293.5-23l-0.3-3.7L328.8,182.3"/>
	<path fill="#101010" d="M328.8,182.3l-293.5,23l0.3,3.7L328.8,182.3"/>
	<path fill="#090A0B" d="M328.8,182.3L622,155.6l-0.4-3.7L328.8,182.3"/>
	<path fill="#101010" d="M328.8,182.3L35.6,208.9l0.3,3.7L328.8,182.3"/>
	<path fill="#090A0B" d="M328.8,182.3l292.8-30.4l-0.4-3.7L328.8,182.3"/>
	<path fill="#101010" d="M328.8,182.3L35.9,212.6l0.4,3.7L328.8,182.3"/>
	<path fill="#090A0B" d="M328.8,182.3l292.4-34l-0.4-3.7L328.8,182.3"/>
	<path fill="#101010" d="M328.8,182.3l-292.5,34l0.4,3.6L328.8,182.3"/>
	<path fill="#090A0B" d="M328.8,182.3l292-37.7l-0.5-3.6L328.8,182.3"/>
	<path fill="#101010" d="M328.8,182.3L36.7,220l0.5,3.7L328.8,182.3"/>
	<path fill="#08090A" d="M328.8,182.3l291.5-41.4l-0.5-3.7L328.8,182.3"/>
	<path fill="#111111" d="M328.8,182.3L37.2,223.7l0.5,3.7L328.8,182.3"/>
	<path fill="#08090A" d="M328.8,182.3l291-45l-0.6-3.6L328.8,182.3"/>
	<path fill="#111111" d="M328.8,182.3l-291,45.1l0.6,3.6L328.8,182.3"/>
	<path fill="#08090A" d="M328.8,182.3l290.4-48.7l-0.6-3.6L328.8,182.3"/>
	<path fill="#111111" d="M328.8,182.3L38.3,231l0.6,3.6L328.8,182.3"/>
	<path fill="#08090A" d="M328.8,182.3l289.8-52.3l-0.7-3.6L328.8,182.3"/>
	<path fill="#111111" d="M328.8,182.3L38.9,234.6l0.7,3.6L328.8,182.3"/>
	<path fill="#08090A" d="M328.8,182.3l289.2-56l-0.7-3.6L328.8,182.3"/>
	<path fill="#111111" d="M328.8,182.3l-289.2,56l0.7,3.6L328.8,182.3"/>
	<path fill="#08090A" d="M328.8,182.3l288.5-59.6l-0.7-3.6L328.8,182.3"/>
	<path fill="#111111" d="M328.8,182.3L40.3,241.9l0.7,3.6L328.8,182.3"/>
	<path fill="#08090A" d="M328.8,182.3L616.5,119l-0.8-3.6L328.8,182.3"/>
	<path fill="#111111" d="M328.8,182.3L41,245.5l0.8,3.6L328.8,182.3"/>
	<path fill="#08090A" d="M328.8,182.3l287-66.9l-0.9-3.6L328.8,182.3"/>
	<path fill="#111111" d="M328.8,182.3l-287,66.9l0.8,3.6L328.8,182.3"/>
	<path fill="#08090A" d="M328.8,182.3l286.1-70.5l-0.9-3.6L328.8,182.3"/>
	<path fill="#111111" d="M328.8,182.3L42.6,252.7l0.9,3.6L328.8,182.3"/>
	<path fill="#08090A" d="M328.8,182.3l285.3-74l-0.9-3.6L328.8,182.3"/>
	<path fill="#111111" d="M328.8,182.3l-285.3,74l0.9,3.6L328.8,182.3"/>
	<path fill="#080809" d="M328.8,182.3l284.3-77.6l-0.9-3.6L328.8,182.3"/>
	<path fill="#121212" d="M328.8,182.3L44.4,259.9l1,3.6L328.8,182.3"/>
	<path fill="#080809" d="M328.8,182.3l283.4-81.2l-1-3.6L328.8,182.3"/>
	<path fill="#121212" d="M328.8,182.3L45.4,263.5l1,3.6L328.8,182.3"/>
	<path fill="#080809" d="M328.8,182.3l282.4-84.8l-1-3.5L328.8,182.3"/>
	<path fill="#121212" d="M328.8,182.3L46.4,267l1,3.5L328.8,182.3"/>
	<path fill="#080809" d="M328.8,182.3L610.1,94l-1.1-3.5L328.8,182.3"/>
	<path fill="#121212" d="M328.8,182.3L47.4,270.6l1.1,3.5L328.8,182.3"/>
	<path fill="#080809" d="M328.8,182.3L609,90.4l-1.1-3.5L328.8,182.3"/>
	<path fill="#121212" d="M328.8,182.3L48.5,274.1l1.1,3.5L328.8,182.3"/>
	<path fill="#080809" d="M328.8,182.3l279.1-95.3l-1.2-3.5L328.8,182.3"/>
	<path fill="#121212" d="M328.8,182.3L49.6,277.6l1.2,3.5L328.8,182.3"/>
	<path fill="#080809" d="M328.8,182.3l277.9-98.9l-1.2-3.5L328.8,182.3"/>
	<path fill="#121212" d="M328.8,182.3l-278,98.9l1.2,3.5L328.8,182.3"/>
	<path fill="#080809" d="M328.8,182.3L605.5,79.9l-1.3-3.5L328.8,182.3"/>
	<path fill="#121212" d="M328.8,182.3L52,284.6l1.3,3.5L328.8,182.3"/>
	<path fill="#080809" d="M328.8,182.3L604.2,76.5L603,73L328.8,182.3"/>
	<path fill="#121212" d="M328.8,182.3L53.3,288.1l1.3,3.5L328.8,182.3"/>
	<path fill="#080809" d="M328.8,182.3L603,73l-1.3-3.5L328.8,182.3"/>
	<path fill="#121212" d="M328.8,182.3L54.6,291.5l1.3,3.4L328.8,182.3"/>
	<path fill="#070708" d="M328.8,182.3L601.6,69.6l-1.4-3.4L328.8,182.3"/>
	<path fill="#131313" d="M328.8,182.3L55.9,295l1.4,3.4L328.8,182.3"/>
	<path fill="#070708" d="M328.8,182.3L600.2,66.1l-1.4-3.4L328.8,182.3"/>
	<path fill="#131313" d="M328.8,182.3L57.3,298.4l1.4,3.4L328.8,182.3"/>
	<path fill="#070708" d="M328.8,182.3l270-119.5l-1.5-3.4L328.8,182.3"/>
	<path fill="#131313" d="M328.8,182.3L58.7,301.8l1.5,3.4L328.8,182.3"/>
	<path fill="#070708" d="M328.8,182.3L597.3,59.4l-1.5-3.4L328.8,182.3"/>
	<path fill="#131313" d="M328.8,182.3L60.2,305.2l1.5,3.4L328.8,182.3"/>
	<path fill="#070708" d="M328.8,182.3L595.8,56l-1.5-3.4L328.8,182.3"/>
	<path fill="#131313" d="M328.8,182.3L61.7,308.6l1.5,3.4L328.8,182.3"/>
	<path fill="#070708" d="M328.8,182.3L594.3,52.6l-1.6-3.3L328.8,182.3"/>
	<path fill="#131313" d="M328.8,182.3L63.2,311.9l1.6,3.3L328.8,182.3"/>
	<path fill="#070708" d="M328.8,182.3l263.9-133l-1.7-3.3L328.8,182.3"/>
	<path fill="#131313" d="M328.8,182.3l-263.9,133l1.6,3.3L328.8,182.3"/>
	<path fill="#070708" d="M328.8,182.3L591.1,46l-1.7-3.3L328.8,182.3"/>
	<path fill="#131313" d="M328.8,182.3L66.4,318.6l1.7,3.3L328.8,182.3"/>
	<path fill="#070708" d="M328.8,182.3L589.4,42.7l-1.7-3.3L328.8,182.3"/>
	<path fill="#131313" d="M328.8,182.3L68.1,321.8l1.7,3.3L328.8,182.3"/>
	<path fill="#070708" d="M328.8,182.3L587.7,39.4l-1.7-3.2L328.8,182.3"/>
	<path fill="#131313" d="M328.8,182.3l-259,142.8l1.8,3.2L328.8,182.3"/>
	<path fill="#060607" d="M328.8,182.3L586,36.2l-1.8-3.2L328.8,182.3"/>
	<path fill="#141414" d="M328.8,182.3L71.6,328.3l1.8,3.2L328.8,182.3"/>
	<path fill="#060607" d="M328.8,182.3L584.2,33l-1.8-3.2L328.8,182.3"/>
	<path fill="#141414" d="M328.8,182.3L73.3,331.6l1.8,3.2L328.8,182.3"/>
	<path fill="#060607" d="M328.8,182.3L582.4,29.8l-1.8-3.2L328.8,182.3"/>
	<path fill="#141414" d="M328.8,182.3L75.2,334.8l1.8,3.2L328.8,182.3"/>
	<path fill="#060607" d="M328.8,182.3L580.5,26.6l-1.9-3.2L328.8,182.3"/>
	<path fill="#141414" d="M328.8,182.3L77,337.9l1.9,3.2L328.8,182.3"/>
	<path fill="#060607" d="M328.8,182.3L578.6,23.4l-2-3.1L328.8,182.3"/>
	<path fill="#141414" d="M328.8,182.3L78.9,341.1l2,3.1L328.8,182.3"/>
	<path fill="#060607" d="M328.8,182.3l247.9-162l-2-3.1L328.8,182.3"/>
	<path fill="#141414" d="M328.8,182.3l-247.9,162l2,3.1L328.8,182.3"/>
	<path fill="#060607" d="M328.8,182.3L574.7,17.2l-2-3.1L328.8,182.3"/>
	<path fill="#141414" d="M328.8,182.3L82.8,347.3l2,3.1L328.8,182.3"/>
	<path fill="#060607" d="M328.8,182.3L572.7,14.1l-2.1-3L328.8,182.3"/>
	<path fill="#141414" d="M328.8,182.3L84.8,350.4l2,3L328.8,182.3"/>
	<path fill="#060607" d="M328.8,182.3L570.6,11.1l-2.1-3L328.8,182.3"/>
	<path fill="#141414" d="M328.8,182.3L86.9,353.5l2.1,3L328.8,182.3"/>
	<path fill="#060607" d="M328.8,182.3L568.5,8.1l-2.1-3L328.8,182.3"/>
	<path fill="#141414" d="M328.8,182.3L89,356.5l2.1,3L328.8,182.3"/>
	<path fill="#050606" d="M328.8,182.3L566.4,5.1l-2.1-3L328.8,182.3"/>
	<path fill="#151515" d="M328.8,182.3L91.1,359.5l2.2,3L328.8,182.3"/>
	<path fill="#050606" d="M328.8,182.3L564.3,2.1l-2.2-2.9L328.8,182.3"/>
	<path fill="#151515" d="M328.8,182.3L93.3,362.5l2.2,2.9L328.8,182.3"/>
	<path fill="#050606" d="M328.8,182.3L562.1-0.9l-2.2-2.9L328.8,182.3"/>
	<path fill="#151515" d="M328.8,182.3L95.4,365.4l2.2,2.9L328.8,182.3"/>
	<path fill="#050606" d="M328.8,182.3L559.9-3.8l-2.3-2.9L328.8,182.3"/>
	<path fill="#151515" d="M328.8,182.3L97.7,368.3l2.3,2.9L328.8,182.3"/>
	<path fill="#050606" d="M328.8,182.3l228.8-189l-2.3-2.9L328.8,182.3"/>
	<path fill="#151515" d="M328.8,182.3l-228.8,189l2.3,2.9L328.8,182.3"/>
	<path fill="#050606" d="M328.8,182.3L555.3-9.5l-2.3-2.8L328.8,182.3"/>
	<path fill="#151515" d="M328.8,182.3L102.2,374.1l2.3,2.8L328.8,182.3"/>
	<path fill="#050606" d="M328.8,182.3L553-12.4l-2.4-2.8L328.8,182.3"/>
	<path fill="#151515" d="M328.8,182.3L104.6,376.9l2.4,2.8L328.8,182.3"/>
	<path fill="#050606" d="M328.8,182.3L550.6-15.2l-2.4-2.8L328.8,182.3"/>
	<path fill="#151515" d="M328.8,182.3L106.9,379.7l2.4,2.8L328.8,182.3"/>
	<path fill="#050606" d="M328.8,182.3L548.2-18l-2.4-2.8L328.8,182.3"/>
	<path fill="#151515" d="M328.8,182.3L109.3,382.5l2.4,2.8L328.8,182.3"/>
	<path fill="#040505" d="M328.8,182.3l217-203l-2.4-2.7L328.8,182.3"/>
	<path fill="#161617" d="M328.8,182.3l-217,203l2.5,2.7L328.8,182.3"/>
	<path fill="#040505" d="M328.8,182.3L543.3-23.4l-2.5-2.7L328.8,182.3"/>
	<path fill="#161617" d="M328.8,182.3L114.2,388l2.5,2.7L328.8,182.3"/>
	<path fill="#040505" d="M328.8,182.3l212-208.4l-2.5-2.6L328.8,182.3"/>
	<path fill="#161617" d="M328.8,182.3L116.7,390.7l2.6,2.6L328.8,182.3"/>
	<path fill="#040505" d="M328.8,182.3l209.5-211l-2.6-2.6L328.8,182.3"/>
	<path fill="#161617" d="M328.8,182.3l-209.5,211l2.6,2.6L328.8,182.3"/>
	<path fill="#040505" d="M328.8,182.3L535.7-31.4l-2.6-2.6L328.8,182.3"/>
	<path fill="#161617" d="M328.8,182.3L121.8,395.9l2.6,2.6L328.8,182.3"/>
	<path fill="#040505" d="M328.8,182.3L533.1-34l-2.6-2.6L328.8,182.3"/>
	<path fill="#161617" d="M328.8,182.3L124.4,398.5l2.6,2.6L328.8,182.3"/>
	<path fill="#040505" d="M328.8,182.3L530.5-36.5l-2.7-2.5L328.8,182.3"/>
	<path fill="#161617" d="M328.8,182.3L127.1,401.1l2.6,2.5L328.8,182.3"/>
	<path fill="#040505" d="M328.8,182.3L527.8-39l-2.7-2.5L328.8,182.3"/>
	<path fill="#161617" d="M328.8,182.3L129.7,403.6l2.7,2.5L328.8,182.3"/>
	<path fill="#040505" d="M328.8,182.3L525.1-41.5l-2.7-2.5L328.8,182.3"/>
	<path fill="#161617" d="M328.8,182.3L132.4,406.1l2.7,2.4L328.8,182.3"/>
	<path fill="#040505" d="M328.8,182.3L522.4-44l-2.8-2.4L328.8,182.3"/>
	<path fill="#161617" d="M328.8,182.3L135.1,408.5l2.7,2.4L328.8,182.3"/>
	<path fill="#030405" d="M328.8,182.3L519.7-46.4l-2.8-2.4L328.8,182.3"/>
	<path fill="#171717" d="M328.8,182.3L137.8,411l2.8,2.4L328.8,182.3"/>
	<path fill="#030405" d="M328.8,182.3L516.9-48.8l-2.8-2.3L328.8,182.3"/>
	<path fill="#171717" d="M328.8,182.3L140.6,413.3l2.8,2.3L328.8,182.3"/>
	<path fill="#030405" d="M328.8,182.3L514.1-51.1l-2.8-2.3L328.8,182.3"/>
	<path fill="#171717" d="M328.8,182.3L143.4,415.7l2.8,2.3L328.8,182.3"/>
	<path fill="#030405" d="M328.8,182.3L511.3-53.4l-2.9-2.3L328.8,182.3"/>
	<path fill="#171717" d="M328.8,182.3L146.3,418l2.9,2.3L328.8,182.3"/>
	<path fill="#030405" d="M328.8,182.3l179.6-238l-2.9-2.2L328.8,182.3"/>
	<path fill="#171717" d="M328.8,182.3l-179.7,238l2.9,2.2L328.8,182.3"/>
	<path fill="#030405" d="M328.8,182.3L505.5-58l-2.9-2.2L328.8,182.3"/>
	<path fill="#171717" d="M328.8,182.3L152,422.5l2.9,2.2L328.8,182.3"/>
	<path fill="#030405" d="M328.8,182.3L502.6-60.2l-2.9-2.2L328.8,182.3"/>
	<path fill="#171717" d="M328.8,182.3L154.9,424.7l2.9,2.2L328.8,182.3"/>
	<path fill="#030405" d="M328.8,182.3L499.7-62.3l-2.9-2.1L328.8,182.3"/>
	<path fill="#171717" d="M328.8,182.3L157.9,426.9l3,2.1L328.8,182.3"/>
	<path fill="#030405" d="M328.8,182.3L496.7-64.4l-3-2.1L328.8,182.3"/>
	<path fill="#171717" d="M328.8,182.3L160.8,429l3,2.1L328.8,182.3"/>
	<path fill="#030405" d="M328.8,182.3L493.7-66.6l-3-2L328.8,182.3"/>
	<path fill="#171717" d="M328.8,182.3L163.8,431.1l3,2L328.8,182.3"/>
	<path fill="#020304" d="M328.8,182.3L490.7-68.6l-3-2L328.8,182.3"/>
	<path fill="#181819" d="M328.8,182.3l-162,250.9l3.1,2L328.8,182.3"/>
	<path fill="#020304" d="M328.8,182.3L487.7-70.6l-3.1-2L328.8,182.3"/>
	<path fill="#181819" d="M328.8,182.3L169.9,435.2l3.1,2L328.8,182.3"/>
	<path fill="#020304" d="M328.8,182.3L484.6-72.6l-3.1-2L328.8,182.3"/>
	<path fill="#181819" d="M328.8,182.3L172.9,437.1l3.1,1.9L328.8,182.3"/>
	<path fill="#020304" d="M328.8,182.3L481.5-74.5l-3.1-1.9L328.8,182.3"/>
	<path fill="#181819" d="M328.8,182.3L176,439.1l3.1,1.9L328.8,182.3"/>
	<path fill="#020304" d="M328.8,182.3L478.4-76.4l-3.1-1.9L328.8,182.3"/>
	<path fill="#181819" d="M328.8,182.3L179.1,441l3.1,1.9L328.8,182.3"/>
	<path fill="#020304" d="M328.8,182.3L475.3-78.3l-3.2-1.8L328.8,182.3"/>
	<path fill="#181819" d="M328.8,182.3L182.3,442.9l3.1,1.8L328.8,182.3"/>
	<path fill="#020304" d="M328.8,182.3L472.1-80.1l-3.2-1.8L328.8,182.3"/>
	<path fill="#181819" d="M328.8,182.3L185.4,444.7l3.2,1.8L328.8,182.3"/>
	<path fill="#020304" d="M328.8,182.3L468.9-81.9l-3.2-1.7L328.8,182.3"/>
	<path fill="#181819" d="M328.8,182.3L188.6,446.5l3.2,1.7L328.8,182.3"/>
	<path fill="#020304" d="M328.8,182.3l137-265.9l-3.2-1.7L328.8,182.3"/>
	<path fill="#181819" d="M328.8,182.3l-137,265.9l3.2,1.7L328.8,182.3"/>
	<path fill="#020304" d="M328.8,182.3L462.5-85.4l-3.2-1.7L328.8,182.3"/>
	<path fill="#181819" d="M328.8,182.3L195,449.9l3.2,1.7L328.8,182.3"/>
	<path fill="#020303" d="M328.8,182.3L459.3-87l-3.2-1.6L328.8,182.3"/>
	<path fill="#1A1A1A" d="M328.8,182.3L198.3,451.6l3.3,1.6L328.8,182.3"/>
	<path fill="#020303" d="M328.8,182.3L456-88.6l-3.3-1.6L328.8,182.3"/>
	<path fill="#1A1A1A" d="M328.8,182.3L201.5,453.2l3.3,1.6L328.8,182.3"/>
	<path fill="#020303" d="M328.8,182.3L452.7-90.2l-3.3-1.5L328.8,182.3"/>
	<path fill="#1A1A1A" d="M328.8,182.3l-124,272.5l3.3,1.5L328.8,182.3"/>
	<path fill="#020303" d="M328.8,182.3l120.6-274l-3.3-1.5L328.8,182.3"/>
	<path fill="#1A1A1A" d="M328.8,182.3l-120.7,274l3.3,1.5L328.8,182.3"/>
	<path fill="#020303" d="M328.8,182.3L446.1-93.2l-3.4-1.5L328.8,182.3"/>
	<path fill="#1A1A1A" d="M328.8,182.3L211.4,457.8l3.3,1.5L328.8,182.3"/>
	<path fill="#020303" d="M328.8,182.3l114-277l-3.3-1.4L328.8,182.3"/>
	<path fill="#1A1A1A" d="M328.8,182.3l-114,277l3.4,1.4L328.8,182.3"/>
	<path fill="#020303" d="M328.8,182.3L439.4-96.1l-3.4-1.4L328.8,182.3"/>
	<path fill="#1A1A1A" d="M328.8,182.3L218.1,460.7l3.4,1.4L328.8,182.3"/>
	<path fill="#020303" d="M328.8,182.3L436.1-97.5l-3.4-1.3L328.8,182.3"/>
	<path fill="#1A1A1A" d="M328.8,182.3L221.5,462l3.4,1.3L328.8,182.3"/>
	<path fill="#020303" d="M328.8,182.3L432.7-98.8l-3.4-1.3L328.8,182.3"/>
	<path fill="#1A1A1A" d="M328.8,182.3L224.8,463.4l3.4,1.3L328.8,182.3"/>
	<path fill="#020303" d="M328.8,182.3l100.5-282.4l-3.4-1.2L328.8,182.3"/>
	<path fill="#1A1A1A" d="M328.8,182.3L228.3,464.6l3.4,1.2L328.8,182.3"/>
	<path fill="#010202" d="M328.8,182.3l97.1-283.6l-3.4-1.2L328.8,182.3"/>
	<path fill="#1B1B1B" d="M328.8,182.3l-97.1,283.6l3.4,1.2L328.8,182.3"/>
	<path fill="#010202" d="M328.8,182.3l93.6-284.8l-3.4-1.2L328.8,182.3"/>
	<path fill="#1B1B1B" d="M328.8,182.3l-93.7,284.8l3.4,1.2L328.8,182.3"/>
	<path fill="#010202" d="M328.8,182.3l90.2-286l-3.5-1.1L328.8,182.3"/>
	<path fill="#1B1B1B" d="M328.8,182.3l-90.2,286l3.5,1.1L328.8,182.3"/>
	<path fill="#010202" d="M328.8,182.3l86.7-287.1l-3.5-1.1L328.8,182.3"/>
	<path fill="#1B1B1B" d="M328.8,182.3L242,469.4l3.5,1.1L328.8,182.3"/>
</mask>
<polygon mask="url(#id6_1_)" fill="#35679A" points="76,28.4 581.5,28.4 581.5,336.2 76,336.2 "/>
<polygon fill="#FFFFFF" points="583.1,26.8 583.1,337.7 74.5,337.7 77,336.2 581.5,336.2 581.5,28.4 580.5,28.4 "/>
<path fill="#CDCCCC" d="M0,353.3c0.2,14.7,12,26.7,26.5,26.7h610.6c14.4,0,26.3-12,26.5-26.7L0,353.3L0,353.3z"/>
<linearGradient id="SVGID_1_" gradientUnits="userSpaceOnUse" x1="361.7581" y1="196.6626" x2="361.7581" y2="216.1015" gradientTransform="matrix(0.8938 0 0 -0.8938 8.5346 555.7361)">
	<stop  offset="0" style="stop-color:#676767"/>
	<stop  offset="1" style="stop-color:#676767;stop-opacity:0.25"/>
	<a:midPointStop  offset="0" style="stop-color:#676767"/>
	<a:midPointStop  offset="0.5" style="stop-color:#676767"/>
	<a:midPointStop  offset="1" style="stop-color:#676767;stop-opacity:0.25"/>
</linearGradient>
<path opacity="0.74" fill="url(#SVGID_1_)" enable-background="new    " d="M662.1,362.6c-3.9,10.1-13.7,17.4-25,17.4H26.6
	c-11.3,0-21-7.2-25-17.4H662.1z"/>
<path fill="#F5F5F5" d="M74.5,26.8h508.6v310.9H74.5V26.8z M76,28.4h505.5v307.8H76V28.4z"/>
<rect x="74.5" y="26.8" fill="#4FB050" width="508.6" height="49.4"/>
<rect x="184.7" y="91.4" fill="#E0E0E0" width="377.7" height="246.3"/>
<rect x="88.4" y="40.3" opacity="0.2" fill="#010202" enable-background="new    " width="153.3" height="22.4"/>
<rect x="188" y="94.7" fill="#FFFFFF" width="370.5" height="243"/>
<rect x="198" y="106.6" opacity="0.1" fill="#010202" enable-background="new    " width="153.3" height="22.4"/>
<rect x="80.9" y="91.4" fill="#A6D2A7" width="96.6" height="25.3"/>
<rect x="80.9" y="129" fill="#A6D2A7" width="96.6" height="25.3"/>
<rect x="80.9" y="163.6" fill="#A6D2A7" width="96.6" height="25.3"/>
<rect x="80.9" y="201.2" fill="#A6D2A7" width="96.6" height="25.3"/>
<path opacity="0.4" fill="#FFFFFF" enable-background="new    " d="M341.6,22.6H316c-3.1,0-5.7-2.6-5.7-5.8l0,0
	c0-3.2,2.5-5.8,5.7-5.8h25.5c3.1,0,5.7,2.6,5.7,5.8l0,0C347.2,20,344.7,22.6,341.6,22.6z"/>
<ellipse fill="#010202" cx="341.2" cy="16.8" rx="4.7" ry="4.8"/>
<path opacity="0.15" fill="#FFFFFF" enable-background="new    " d="M344.5,0h245.8c10.5,0,19,8.7,19,19.4v217.2"/>
<g>
	<path d="M93.3,45.5h-5v-1.8h12.1v1.8h-5v14.6h-2.1V45.5z"/>
	<path d="M104.4,43.7v9.7c0,3.7,1.6,5.2,3.8,5.2c2.4,0,4-1.6,4-5.2v-9.7h2.1v9.5c0,5-2.6,7.1-6.2,7.1c-3.4,0-5.9-1.9-5.9-7v-9.6
		H104.4z"/>
	<path d="M131.6,52.4h-6.4v5.9h7.1v1.8h-9.2V43.7h8.8v1.8h-6.7v5.2h6.4V52.4z"/>
	<path d="M148.9,52.9c-0.1-2.3-0.3-5-0.2-7.1h-0.1c-0.6,1.9-1.2,4-2.1,6.2l-2.9,7.9H142l-2.6-7.8c-0.8-2.3-1.4-4.4-1.9-6.4h0
		c0,2-0.2,4.8-0.3,7.2l-0.4,7h-2l1.1-16.4h2.7l2.8,7.9c0.7,2,1.2,3.8,1.7,5.5h0.1c0.4-1.7,1-3.4,1.7-5.5l2.9-7.9h2.7l1,16.4h-2.1
		L148.9,52.9z"/>
	<path d="M154.6,43.9c1-0.2,2.4-0.3,4.1-0.3c2.1,0,3.6,0.5,4.6,1.4c0.9,0.8,1.4,2,1.4,3.4c0,1.5-0.4,2.6-1.3,3.5
		c-1.1,1.2-2.9,1.8-5,1.8c-0.6,0-1.2,0-1.7-0.1v6.6h-2.1V43.9z M156.7,51.8c0.5,0.1,1,0.2,1.7,0.2c2.5,0,4.1-1.2,4.1-3.5
		c0-2.2-1.5-3.2-3.9-3.2c-0.9,0-1.6,0.1-2,0.2V51.8z"/>
	<path d="M167.5,43.9c1.1-0.2,2.6-0.3,4.1-0.3c2.3,0,3.7,0.4,4.7,1.3c0.8,0.7,1.3,1.8,1.3,3.1c0,2.2-1.4,3.6-3.1,4.2v0.1
		c1.3,0.4,2,1.6,2.4,3.3c0.5,2.3,0.9,3.9,1.3,4.5H176c-0.3-0.5-0.6-1.9-1.1-3.9c-0.5-2.3-1.4-3.1-3.3-3.2h-2v7.1h-2.1V43.9z
		 M169.6,51.4h2.2c2.3,0,3.7-1.2,3.7-3.1c0-2.1-1.5-3-3.8-3.1c-1,0-1.7,0.1-2.1,0.2V51.4z"/>
	<path d="M189,52.4h-6.4v5.9h7.1v1.8h-9.2V43.7h8.8v1.8h-6.7v5.2h6.4V52.4z"/>
	<path d="M192.2,57.5c0.9,0.6,2.3,1.1,3.8,1.1c2.2,0,3.4-1.1,3.4-2.8c0-1.5-0.9-2.4-3.1-3.3c-2.7-0.9-4.3-2.3-4.3-4.6
		c0-2.5,2.1-4.4,5.3-4.4c1.7,0,2.9,0.4,3.6,0.8l-0.6,1.7c-0.5-0.3-1.6-0.8-3.1-0.8c-2.2,0-3.1,1.3-3.1,2.5c0,1.5,1,2.3,3.3,3.2
		c2.8,1.1,4.2,2.4,4.2,4.8c0,2.5-1.9,4.7-5.7,4.7c-1.6,0-3.3-0.5-4.2-1L192.2,57.5z"/>
	<path d="M207.1,54.9l-1.7,5.1h-2.2l5.6-16.4h2.5l5.6,16.4h-2.3l-1.7-5.1H207.1z M212.5,53.3l-1.6-4.7c-0.4-1.1-0.6-2-0.8-3h0
		c-0.2,1-0.5,2-0.8,3l-1.6,4.7H212.5z"/>
</g>
<g>
	<path d="M199.8,110.3c0.9-0.2,2.4-0.3,3.9-0.3c2.1,0,3.5,0.4,4.5,1.2c0.8,0.6,1.4,1.6,1.4,2.9c0,1.6-1,3-2.8,3.6v0
		c1.6,0.4,3.4,1.7,3.4,4.1c0,1.4-0.6,2.5-1.4,3.3c-1.1,1-3,1.5-5.7,1.5c-1.5,0-2.6-0.1-3.3-0.2V110.3z M201.9,117h1.9
		c2.2,0,3.5-1.2,3.5-2.7c0-1.9-1.5-2.7-3.6-2.7c-1,0-1.5,0.1-1.9,0.1V117z M201.9,124.8c0.4,0.1,1,0.1,1.8,0.1
		c2.2,0,4.2-0.8,4.2-3.2c0-2.2-1.9-3.2-4.2-3.2h-1.7V124.8z"/>
	<path d="M219.4,126.4l-0.2-1.5h-0.1c-0.7,0.9-1.9,1.7-3.6,1.7c-2.4,0-3.6-1.7-3.6-3.4c0-2.8,2.5-4.4,7.1-4.4v-0.2
		c0-1-0.3-2.7-2.7-2.7c-1.1,0-2.2,0.3-3.1,0.9l-0.5-1.4c1-0.6,2.4-1,3.9-1c3.6,0,4.5,2.5,4.5,4.8v4.4c0,1,0,2,0.2,2.8H219.4z
		 M219.1,120.4c-2.3,0-5,0.4-5,2.6c0,1.4,0.9,2,2,2c1.5,0,2.5-1,2.8-2c0.1-0.2,0.1-0.5,0.1-0.7V120.4z"/>
	<path d="M224.6,109.2h2.1v17.2h-2.1V109.2z"/>
	<path d="M236.9,126.4l-0.2-1.5h-0.1c-0.7,0.9-1.9,1.7-3.6,1.7c-2.4,0-3.6-1.7-3.6-3.4c0-2.8,2.5-4.4,7.1-4.4v-0.2
		c0-1-0.3-2.7-2.7-2.7c-1.1,0-2.2,0.3-3.1,0.9l-0.5-1.4c1-0.6,2.4-1,3.9-1c3.6,0,4.5,2.5,4.5,4.8v4.4c0,1,0,2,0.2,2.8H236.9z
		 M236.5,120.4c-2.3,0-5,0.4-5,2.6c0,1.4,0.9,2,2,2c1.5,0,2.5-1,2.8-2c0.1-0.2,0.1-0.5,0.1-0.7V120.4z"/>
	<path d="M242.1,117.8c0-1.2,0-2.2-0.1-3.2h1.9l0.1,1.9h0c0.6-1.1,1.9-2.2,3.9-2.2c1.6,0,4.2,1,4.2,5v7h-2.1v-6.8
		c0-1.9-0.7-3.5-2.7-3.5c-1.4,0-2.5,1-2.9,2.2c-0.1,0.3-0.1,0.6-0.1,1v7.1h-2.1V117.8z"/>
	<path d="M263.9,126c-0.6,0.3-1.8,0.7-3.4,0.7c-3.5,0-5.9-2.4-5.9-6c0-3.6,2.5-6.2,6.3-6.2c1.3,0,2.4,0.3,3,0.6l-0.5,1.7
		c-0.5-0.3-1.3-0.6-2.5-0.6c-2.7,0-4.2,2-4.2,4.4c0,2.7,1.7,4.4,4.1,4.4c1.2,0,2-0.3,2.6-0.6L263.9,126z"/>
	<path d="M267.4,120.9c0,2.9,1.9,4.1,4,4.1c1.5,0,2.5-0.3,3.3-0.6l0.4,1.5c-0.8,0.3-2,0.7-3.9,0.7c-3.6,0-5.8-2.4-5.8-5.9
		s2.1-6.3,5.5-6.3c3.8,0,4.9,3.4,4.9,5.5c0,0.4,0,0.8-0.1,1H267.4z M273.7,119.4c0-1.4-0.6-3.5-3-3.5c-2.2,0-3.1,2-3.3,3.5H273.7z"
		/>
	<path d="M277.9,116.6c0-0.9,0.6-1.5,1.5-1.5c0.9,0,1.4,0.6,1.4,1.5c0,0.8-0.6,1.5-1.5,1.5C278.5,118.1,277.9,117.4,277.9,116.6z
		 M277.9,125.2c0-0.9,0.6-1.5,1.5-1.5c0.9,0,1.4,0.6,1.4,1.5c0,0.9-0.6,1.5-1.5,1.5C278.5,126.7,277.9,126,277.9,125.2z"/>
</g>
<rect x="198" y="139" fill="#A6D2A7" width="352.1" height="24.6"/>
<rect x="197.2" y="188.9" opacity="0.1" fill="#010202" enable-background="new    " width="352.1" height="24.6"/>
<rect x="197.2" y="238.8" opacity="0.1" fill="#010202" enable-background="new    " width="352.1" height="24.6"/>
<rect x="198" y="291.2" opacity="0.1" fill="#010202" enable-background="new    " width="352.1" height="24.6"/>
<rect x="197.2" y="333.8" opacity="0.1" fill="#010202" enable-background="new    " width="352.1" height="14.6"/>
<rect x="297" y="139.3" fill="#A6D2A7" width="6.1" height="198.6"/>
<g>
	<path d="M207,178.1l-1.4,4.2h-1.8l4.6-13.5h2.1l4.6,13.5h-1.9l-1.4-4.2H207z M211.4,176.7l-1.3-3.9c-0.3-0.9-0.5-1.7-0.7-2.5h0
		c-0.2,0.8-0.4,1.6-0.7,2.4l-1.3,3.9H211.4z"/>
	<path d="M223.7,181.9c-0.5,0.2-1.5,0.6-2.8,0.6c-2.9,0-4.8-2-4.8-4.9c0-3,2-5.1,5.2-5.1c1,0,2,0.3,2.4,0.5l-0.4,1.4
		c-0.4-0.2-1.1-0.5-2-0.5c-2.2,0-3.4,1.6-3.4,3.7c0,2.2,1.4,3.6,3.4,3.6c1,0,1.7-0.3,2.2-0.5L223.7,181.9z"/>
	<path d="M228.1,169.8v2.8h2.5v1.3h-2.5v5.2c0,1.2,0.3,1.9,1.3,1.9c0.5,0,0.8-0.1,1-0.1l0.1,1.3c-0.3,0.1-0.9,0.2-1.6,0.2
		c-0.8,0-1.5-0.3-1.9-0.7c-0.5-0.5-0.7-1.4-0.7-2.5V174h-1.5v-1.3h1.5v-2.3L228.1,169.8z"/>
	<path d="M234.6,169.9c0,0.6-0.4,1.1-1.1,1.1c-0.6,0-1.1-0.5-1.1-1.1c0-0.6,0.5-1.1,1.1-1.1C234.2,168.8,234.6,169.3,234.6,169.9z
		 M232.6,182.3v-9.7h1.8v9.7H232.6z"/>
	<path d="M238,172.6l1.9,5.4c0.3,0.9,0.6,1.7,0.8,2.5h0.1c0.2-0.8,0.5-1.6,0.8-2.5l1.9-5.4h1.8l-3.8,9.7h-1.7l-3.7-9.7H238z"/>
	<path d="M255.5,177.4c0,3.6-2.5,5.1-4.8,5.1c-2.6,0-4.6-1.9-4.6-5c0-3.2,2.1-5.1,4.8-5.1C253.6,172.4,255.5,174.4,255.5,177.4z
		 M247.8,177.5c0,2.1,1.2,3.7,2.9,3.7c1.7,0,2.9-1.6,2.9-3.8c0-1.6-0.8-3.7-2.9-3.7C248.7,173.7,247.8,175.6,247.8,177.5z"/>
	<path d="M257.5,180.5c0.5,0.3,1.4,0.7,2.3,0.7c1.3,0,1.9-0.6,1.9-1.4c0-0.8-0.5-1.3-1.8-1.8c-1.7-0.6-2.6-1.6-2.6-2.7
		c0-1.6,1.3-2.8,3.3-2.8c1,0,1.8,0.3,2.4,0.6l-0.4,1.3c-0.4-0.2-1.1-0.6-2-0.6c-1,0-1.6,0.6-1.6,1.3c0,0.8,0.6,1.2,1.8,1.6
		c1.7,0.6,2.5,1.5,2.5,2.9c0,1.7-1.3,2.9-3.6,2.9c-1.1,0-2-0.3-2.7-0.7L257.5,180.5z"/>
</g>
<g opacity="0.6">
	<path d="M204.8,196c0.8-0.2,2-0.3,3.2-0.3c1.7,0,2.9,0.3,3.7,1c0.7,0.5,1.1,1.3,1.1,2.4c0,1.3-0.9,2.4-2.3,3v0
		c1.3,0.3,2.8,1.4,2.8,3.4c0,1.2-0.5,2-1.1,2.7c-0.9,0.9-2.5,1.3-4.7,1.3c-1.2,0-2.1-0.1-2.7-0.2V196z M206.6,201.5h1.6
		c1.8,0,2.9-1,2.9-2.3c0-1.6-1.2-2.2-3-2.2c-0.8,0-1.3,0.1-1.5,0.1V201.5z M206.6,208c0.3,0.1,0.8,0.1,1.5,0.1
		c1.8,0,3.5-0.7,3.5-2.6c0-1.8-1.6-2.6-3.5-2.6h-1.4V208z"/>
	<path d="M221,209.3l-0.1-1.2h-0.1c-0.5,0.8-1.6,1.4-3,1.4c-2,0-3-1.4-3-2.8c0-2.3,2.1-3.6,5.8-3.6v-0.2c0-0.8-0.2-2.2-2.2-2.2
		c-0.9,0-1.8,0.3-2.5,0.7l-0.4-1.2c0.8-0.5,2-0.9,3.2-0.9c3,0,3.7,2,3.7,4v3.6c0,0.8,0,1.7,0.2,2.3H221z M220.7,204.4
		c-1.9,0-4.1,0.3-4.1,2.2c0,1.1,0.8,1.7,1.7,1.7c1.3,0,2.1-0.8,2.3-1.6c0.1-0.2,0.1-0.4,0.1-0.6V204.4z"/>
	<path d="M225.3,202.2c0-1,0-1.8-0.1-2.6h1.6l0.1,1.6h0c0.5-0.9,1.6-1.8,3.2-1.8c1.3,0,3.4,0.8,3.4,4.1v5.8h-1.8v-5.6
		c0-1.6-0.6-2.9-2.2-2.9c-1.2,0-2.1,0.8-2.4,1.8c-0.1,0.2-0.1,0.5-0.1,0.8v5.8h-1.8V202.2z"/>
	<path d="M243.3,208.9c-0.5,0.2-1.5,0.6-2.8,0.6c-2.9,0-4.8-2-4.8-4.9c0-3,2-5.1,5.2-5.1c1,0,2,0.3,2.4,0.5l-0.4,1.4
		c-0.4-0.2-1.1-0.5-2-0.5c-2.2,0-3.4,1.6-3.4,3.7c0,2.2,1.4,3.6,3.4,3.6c1,0,1.7-0.3,2.2-0.5L243.3,208.9z"/>
	<path d="M254,204.4c0,3.6-2.5,5.1-4.8,5.1c-2.6,0-4.6-1.9-4.6-5c0-3.2,2.1-5.1,4.8-5.1C252.1,199.4,254,201.4,254,204.4z
		 M246.3,204.5c0,2.1,1.2,3.7,2.9,3.7c1.7,0,2.9-1.6,2.9-3.8c0-1.6-0.8-3.7-2.9-3.7C247.2,200.7,246.3,202.6,246.3,204.5z"/>
	<path d="M255.9,207.5c0.5,0.3,1.4,0.7,2.3,0.7c1.3,0,1.9-0.6,1.9-1.4c0-0.8-0.5-1.3-1.8-1.8c-1.7-0.6-2.6-1.6-2.6-2.7
		c0-1.6,1.3-2.8,3.3-2.8c1,0,1.8,0.3,2.4,0.6l-0.4,1.3c-0.4-0.2-1.1-0.6-2-0.6c-1,0-1.6,0.6-1.6,1.3c0,0.8,0.6,1.2,1.8,1.6
		c1.7,0.6,2.5,1.5,2.5,2.9c0,1.7-1.3,2.9-3.6,2.9c-1.1,0-2-0.3-2.7-0.7L255.9,207.5z"/>
</g>
<g opacity="0.6">
	<path d="M214.3,232.9c-0.6,0.3-1.9,0.6-3.6,0.6c-3.8,0-6.7-2.4-6.7-6.8c0-4.2,2.9-7.1,7-7.1c1.7,0,2.7,0.4,3.2,0.6l-0.4,1.4
		c-0.7-0.3-1.6-0.6-2.7-0.6c-3.2,0-5.3,2-5.3,5.6c0,3.3,1.9,5.4,5.2,5.4c1.1,0,2.1-0.2,2.8-0.6L214.3,232.9z"/>
	<path d="M218.5,220.8v2.8h2.5v1.3h-2.5v5.2c0,1.2,0.3,1.9,1.3,1.9c0.5,0,0.8-0.1,1-0.1l0.1,1.3c-0.3,0.1-0.9,0.2-1.6,0.2
		c-0.8,0-1.5-0.3-1.9-0.7c-0.5-0.5-0.7-1.4-0.7-2.5V225h-1.5v-1.3h1.5v-2.3L218.5,220.8z"/>
	<path d="M228.4,233.3l-0.1-1.2h-0.1c-0.5,0.8-1.6,1.4-3,1.4c-2,0-3-1.4-3-2.8c0-2.3,2.1-3.6,5.8-3.6v-0.2c0-0.8-0.2-2.2-2.2-2.2
		c-0.9,0-1.8,0.3-2.5,0.7l-0.4-1.2c0.8-0.5,2-0.9,3.2-0.9c3,0,3.7,2,3.7,4v3.6c0,0.8,0,1.7,0.2,2.3H228.4z M228.1,228.4
		c-1.9,0-4.1,0.3-4.1,2.2c0,1.1,0.8,1.7,1.7,1.7c1.3,0,2.1-0.8,2.3-1.6c0.1-0.2,0.1-0.4,0.1-0.6V228.4z"/>
	<path d="M232.4,231.5c0.5,0.3,1.4,0.7,2.3,0.7c1.3,0,1.9-0.6,1.9-1.4c0-0.8-0.5-1.3-1.8-1.8c-1.7-0.6-2.6-1.6-2.6-2.7
		c0-1.6,1.3-2.8,3.3-2.8c1,0,1.8,0.3,2.4,0.6l-0.4,1.3c-0.4-0.2-1.1-0.6-2-0.6c-1,0-1.6,0.6-1.6,1.3c0,0.8,0.6,1.2,1.8,1.6
		c1.7,0.6,2.5,1.5,2.5,2.9c0,1.7-1.3,2.9-3.6,2.9c-1.1,0-2-0.3-2.7-0.7L232.4,231.5z"/>
	<path d="M245.6,223.6l1.4,2.1c0.4,0.5,0.7,1,1,1.6h0.1c0.3-0.6,0.6-1.1,1-1.6l1.4-2.1h1.9l-3.3,4.7l3.4,5h-2l-1.4-2.2
		c-0.4-0.6-0.7-1.1-1-1.7h0c-0.3,0.6-0.7,1.1-1,1.7l-1.4,2.2h-1.9l3.4-4.9l-3.3-4.7H245.6z"/>
	<path d="M267.8,232.9c-0.6,0.3-1.9,0.6-3.6,0.6c-3.8,0-6.7-2.4-6.7-6.8c0-4.2,2.9-7.1,7-7.1c1.7,0,2.7,0.4,3.2,0.6l-0.4,1.4
		c-0.7-0.3-1.6-0.6-2.7-0.6c-3.2,0-5.3,2-5.3,5.6c0,3.3,1.9,5.4,5.2,5.4c1.1,0,2.1-0.2,2.8-0.6L267.8,232.9z"/>
	<path d="M269.8,233.3c0-0.7,0.1-1.6,0.1-2.5v-11.7h1.7v6.1h0c0.6-1.1,1.7-1.8,3.3-1.8c2.4,0,4.1,2,4.1,4.9c0,3.5-2.2,5.2-4.3,5.2
		c-1.4,0-2.5-0.5-3.2-1.8h-0.1l-0.1,1.6H269.8z M271.6,229.4c0,0.2,0,0.4,0.1,0.6c0.3,1.2,1.4,2.1,2.6,2.1c1.8,0,2.9-1.5,2.9-3.7
		c0-1.9-1-3.6-2.9-3.6c-1.2,0-2.3,0.8-2.7,2.2c0,0.2-0.1,0.4-0.1,0.7V229.4z"/>
	<path d="M281.3,226.6c0-1.1,0-2.1-0.1-3h1.5l0.1,1.9h0.1c0.4-1.3,1.5-2.1,2.7-2.1c0.2,0,0.3,0,0.5,0.1v1.7c-0.2,0-0.4-0.1-0.6-0.1
		c-1.2,0-2.1,0.9-2.4,2.3c0,0.2-0.1,0.5-0.1,0.8v5.2h-1.7V226.6z"/>
</g>
<g opacity="0.6">
	<path d="M206.6,244.9v13.5h-1.7v-13.5H206.6z"/>
	<path d="M209.8,251.3c0-1,0-1.8-0.1-2.6h1.6l0.1,1.6h0c0.5-0.9,1.6-1.8,3.2-1.8c1.3,0,3.4,0.8,3.4,4.1v5.8h-1.8v-5.6
		c0-1.6-0.6-2.9-2.2-2.9c-1.2,0-2.1,0.8-2.4,1.8c-0.1,0.2-0.1,0.5-0.1,0.8v5.8h-1.8V251.3z"/>
	<path d="M221.3,248.7l1.9,5.4c0.3,0.9,0.6,1.7,0.8,2.5h0.1c0.2-0.8,0.5-1.6,0.8-2.5l1.9-5.4h1.8l-3.8,9.7h-1.7l-3.7-9.7H221.3z"/>
	<path d="M231,253.9c0,2.4,1.6,3.4,3.3,3.4c1.3,0,2-0.2,2.7-0.5l0.3,1.3c-0.6,0.3-1.7,0.6-3.2,0.6c-3,0-4.8-2-4.8-4.9
		s1.7-5.2,4.5-5.2c3.2,0,4,2.8,4,4.6c0,0.4,0,0.6-0.1,0.8H231z M236.2,252.6c0-1.1-0.5-2.9-2.4-2.9c-1.8,0-2.6,1.6-2.7,2.9H236.2z"
		/>
	<path d="M240,251.3c0-1,0-1.8-0.1-2.6h1.6l0.1,1.6h0c0.5-0.9,1.6-1.8,3.2-1.8c1.3,0,3.4,0.8,3.4,4.1v5.8h-1.8v-5.6
		c0-1.6-0.6-2.9-2.2-2.9c-1.2,0-2.1,0.8-2.4,1.8c-0.1,0.2-0.1,0.5-0.1,0.8v5.8H240V251.3z"/>
	<path d="M253.2,245.9v2.8h2.5v1.3h-2.5v5.2c0,1.2,0.3,1.9,1.3,1.9c0.5,0,0.8-0.1,1-0.1l0.1,1.3c-0.3,0.1-0.9,0.2-1.6,0.2
		c-0.8,0-1.5-0.3-1.9-0.7c-0.5-0.5-0.7-1.4-0.7-2.5v-5.3H250v-1.3h1.5v-2.3L253.2,245.9z"/>
	<path d="M263,258.4l-0.1-1.2h-0.1c-0.5,0.8-1.6,1.4-3,1.4c-2,0-3-1.4-3-2.8c0-2.3,2.1-3.6,5.8-3.6V252c0-0.8-0.2-2.2-2.2-2.2
		c-0.9,0-1.8,0.3-2.5,0.7l-0.4-1.2c0.8-0.5,2-0.9,3.2-0.9c3,0,3.7,2,3.7,4v3.6c0,0.8,0,1.7,0.2,2.3H263z M262.8,253.5
		c-1.9,0-4.1,0.3-4.1,2.2c0,1.1,0.8,1.7,1.7,1.7c1.3,0,2.1-0.8,2.3-1.6c0.1-0.2,0.1-0.4,0.1-0.6V253.5z"/>
	<path d="M267.3,251.7c0-1.1,0-2.1-0.1-3h1.5l0.1,1.9h0.1c0.4-1.3,1.5-2.1,2.7-2.1c0.2,0,0.3,0,0.5,0.1v1.7c-0.2,0-0.4-0.1-0.6-0.1
		c-1.2,0-2.1,0.9-2.4,2.3c0,0.2-0.1,0.5-0.1,0.8v5.2h-1.7V251.7z"/>
	<path d="M275.9,246c0,0.6-0.4,1.1-1.1,1.1c-0.6,0-1.1-0.5-1.1-1.1c0-0.6,0.5-1.1,1.1-1.1C275.5,244.9,275.9,245.4,275.9,246z
		 M273.9,258.4v-9.7h1.8v9.7H273.9z"/>
	<path d="M287.4,253.5c0,3.6-2.5,5.1-4.8,5.1c-2.6,0-4.6-1.9-4.6-5c0-3.2,2.1-5.1,4.8-5.1C285.5,248.5,287.4,250.5,287.4,253.5z
		 M279.7,253.6c0,2.1,1.2,3.7,2.9,3.7c1.7,0,2.9-1.6,2.9-3.8c0-1.6-0.8-3.7-2.9-3.7C280.6,249.8,279.7,251.7,279.7,253.6z"/>
	<path d="M289.4,256.6c0.5,0.3,1.4,0.7,2.3,0.7c1.3,0,1.9-0.6,1.9-1.4c0-0.8-0.5-1.3-1.8-1.8c-1.7-0.6-2.6-1.6-2.6-2.7
		c0-1.6,1.3-2.8,3.3-2.8c1,0,1.8,0.3,2.4,0.6l-0.4,1.3c-0.4-0.2-1.1-0.6-2-0.6c-1,0-1.6,0.6-1.6,1.3c0,0.8,0.6,1.2,1.8,1.6
		c1.7,0.6,2.5,1.5,2.5,2.9c0,1.7-1.3,2.9-3.6,2.9c-1.1,0-2-0.3-2.7-0.7L289.4,256.6z"/>
</g>
<g opacity="0.6">
	<path d="M204.8,285.4v-13.5h1.9l4.3,6.8c1,1.6,1.8,3,2.4,4.4l0,0c-0.2-1.8-0.2-3.4-0.2-5.5v-5.6h1.6v13.5h-1.8l-4.3-6.8
		c-0.9-1.5-1.8-3-2.5-4.5l-0.1,0c0.1,1.7,0.1,3.3,0.1,5.6v5.8H204.8z"/>
	<path d="M226.7,280.5c0,3.6-2.5,5.1-4.8,5.1c-2.6,0-4.6-1.9-4.6-5c0-3.2,2.1-5.1,4.8-5.1C224.8,275.5,226.7,277.5,226.7,280.5z
		 M219,280.6c0,2.1,1.2,3.7,2.9,3.7c1.7,0,2.9-1.6,2.9-3.8c0-1.6-0.8-3.7-2.9-3.7C219.9,276.8,219,278.7,219,280.6z"/>
	<path d="M240.1,285c-0.5,0.2-1.5,0.6-2.8,0.6c-2.9,0-4.8-2-4.8-4.9c0-3,2-5.1,5.2-5.1c1,0,2,0.3,2.4,0.5l-0.4,1.4
		c-0.4-0.2-1.1-0.5-2-0.5c-2.2,0-3.4,1.6-3.4,3.7c0,2.2,1.4,3.6,3.4,3.6c1,0,1.7-0.3,2.2-0.5L240.1,285z"/>
	<path d="M250.8,280.5c0,3.6-2.5,5.1-4.8,5.1c-2.6,0-4.6-1.9-4.6-5c0-3.2,2.1-5.1,4.8-5.1C248.9,275.5,250.8,277.5,250.8,280.5z
		 M243.1,280.6c0,2.1,1.2,3.7,2.9,3.7c1.7,0,2.9-1.6,2.9-3.8c0-1.6-0.8-3.7-2.9-3.7C244,276.8,243.1,278.7,243.1,280.6z"/>
	<path d="M253,278.7c0-1.1,0-2.1-0.1-3h1.5l0.1,1.9h0.1c0.4-1.3,1.5-2.1,2.7-2.1c0.2,0,0.3,0,0.5,0.1v1.7c-0.2,0-0.4-0.1-0.6-0.1
		c-1.2,0-2.1,0.9-2.4,2.3c0,0.2-0.1,0.5-0.1,0.8v5.2H253V278.7z"/>
	<path d="M259.6,278.7c0-1.1,0-2.1-0.1-3h1.5l0.1,1.9h0.1c0.4-1.3,1.5-2.1,2.7-2.1c0.2,0,0.3,0,0.5,0.1v1.7c-0.2,0-0.4-0.1-0.6-0.1
		c-1.2,0-2.1,0.9-2.4,2.3c0,0.2-0.1,0.5-0.1,0.8v5.2h-1.7V278.7z"/>
	<path d="M266.2,278.3c0-1,0-1.8-0.1-2.6h1.6l0.1,1.6h0c0.5-0.9,1.6-1.8,3.2-1.8c1.3,0,3.4,0.8,3.4,4.1v5.8h-1.8v-5.6
		c0-1.6-0.6-2.9-2.2-2.9c-1.2,0-2.1,0.8-2.4,1.8c-0.1,0.2-0.1,0.5-0.1,0.8v5.8h-1.8V278.3z"/>
	<path d="M279.4,272.9v2.8h2.5v1.3h-2.5v5.2c0,1.2,0.3,1.9,1.3,1.9c0.5,0,0.8-0.1,1-0.1l0.1,1.3c-0.3,0.1-0.9,0.2-1.6,0.2
		c-0.8,0-1.5-0.3-1.9-0.7c-0.5-0.5-0.7-1.4-0.7-2.5v-5.3h-1.5v-1.3h1.5v-2.3L279.4,272.9z"/>
	<path d="M283.6,283.6c0.5,0.3,1.4,0.7,2.3,0.7c1.3,0,1.9-0.6,1.9-1.4c0-0.8-0.5-1.3-1.8-1.8c-1.7-0.6-2.6-1.6-2.6-2.7
		c0-1.6,1.3-2.8,3.3-2.8c1,0,1.8,0.3,2.4,0.6l-0.4,1.3c-0.4-0.2-1.1-0.6-2-0.6c-1,0-1.6,0.6-1.6,1.3c0,0.8,0.6,1.2,1.8,1.6
		c1.7,0.6,2.5,1.5,2.5,2.9c0,1.7-1.3,2.9-3.6,2.9c-1.1,0-2-0.3-2.7-0.7L283.6,283.6z"/>
</g>
<g>
	<path opacity="0.6" d="M211.8,303.1h-5.2v4.9h5.8v1.5h-7.6v-13.5h7.3v1.5h-5.5v4.3h5.2V303.1z"/>
	<path opacity="0.6" d="M222.9,295.2v11.7c0,0.9,0,1.8,0.1,2.5h-1.6l-0.1-1.7h0c-0.5,1.1-1.7,1.9-3.3,1.9c-2.3,0-4.1-2-4.1-4.9
		c0-3.2,2-5.2,4.3-5.2c1.5,0,2.5,0.7,2.9,1.5h0v-5.8H222.9z M221.1,303.7c0-0.2,0-0.5-0.1-0.7c-0.3-1.1-1.2-2-2.5-2
		c-1.8,0-2.9,1.6-2.9,3.7c0,2,1,3.6,2.9,3.6c1.2,0,2.3-0.8,2.6-2.1c0.1-0.2,0.1-0.5,0.1-0.8V303.7z"/>
	<path opacity="0.6" d="M227.8,297c0,0.6-0.4,1.1-1.1,1.1c-0.6,0-1.1-0.5-1.1-1.1c0-0.6,0.5-1.1,1.1-1.1
		C227.4,295.9,227.8,296.4,227.8,297z M225.8,309.4v-9.7h1.8v9.7H225.8z"/>
	<path opacity="0.6" d="M230.7,309.4v-8.3h-1.4v-1.3h1.4v-0.5c0-2.6,1.5-4.2,4.2-4.2c0.9,0,2,0.3,2.5,0.6l-0.5,1.3
		c-0.4-0.3-1.2-0.6-2-0.6c-1.9,0-2.4,1.3-2.4,2.8v0.5h5.6v9.7h-1.7v-8.3h-3.9v8.3H230.7z"/>
	<path opacity="0.6" d="M247.9,309c-0.5,0.2-1.5,0.6-2.8,0.6c-2.9,0-4.8-2-4.8-4.9c0-3,2-5.1,5.2-5.1c1,0,2,0.3,2.4,0.5l-0.4,1.4
		c-0.4-0.2-1.1-0.5-2-0.5c-2.2,0-3.4,1.6-3.4,3.7c0,2.2,1.4,3.6,3.4,3.6c1,0,1.7-0.3,2.2-0.5L247.9,309z"/>
	<path opacity="0.6" d="M251.9,297c0,0.6-0.4,1.1-1.1,1.1c-0.6,0-1.1-0.5-1.1-1.1c0-0.6,0.5-1.1,1.1-1.1
		C251.5,295.9,251.9,296.4,251.9,297z M249.9,309.4v-9.7h1.8v9.7H249.9z"/>
	<path opacity="0.6" d="M263.4,304.5c0,3.6-2.5,5.1-4.8,5.1c-2.6,0-4.6-1.9-4.6-5c0-3.2,2.1-5.1,4.8-5.1
		C261.5,299.5,263.4,301.5,263.4,304.5z M255.7,304.6c0,2.1,1.2,3.7,2.9,3.7c1.7,0,2.9-1.6,2.9-3.8c0-1.6-0.8-3.7-2.9-3.7
		C256.6,300.8,255.7,302.7,255.7,304.6z"/>
	<path opacity="0.6" d="M265.3,307.6c0.5,0.3,1.4,0.7,2.3,0.7c1.3,0,1.9-0.6,1.9-1.4c0-0.8-0.5-1.3-1.8-1.8
		c-1.7-0.6-2.6-1.6-2.6-2.7c0-1.6,1.3-2.8,3.3-2.8c1,0,1.8,0.3,2.4,0.6l-0.4,1.3c-0.4-0.2-1.1-0.6-2-0.6c-1,0-1.6,0.6-1.6,1.3
		c0,0.8,0.6,1.2,1.8,1.6c1.7,0.6,2.5,1.5,2.5,2.9c0,1.7-1.3,2.9-3.6,2.9c-1.1,0-2-0.3-2.7-0.7L265.3,307.6z"/>
</g>
<rect x="400" y="139.1" fill="#A6D2A7" width="6.1" height="198.6"/>
<g>
</g>
<g>
</g>
<g>
</g>
<g>
</g>
<g>
</g>
<g>
</g>
</svg>
