<svg xmlns="http://www.w3.org/2000/svg" width="595.3" height="333.8" viewBox="34 23 595.3 333.8"><path fill="#E0E0E0" d="M199.8 101.4h338.4v216.3H199.8z"/><path fill="#FFF" d="M202.7 104.3h332v213.4h-332z"/><path opacity=".1" fill="#010202" d="M221.7 119.5h123.8v18H221.7z"/><path d="M223.1 122.5c.7-.2 1.9-.2 3.1-.2 1.7 0 2.8.3 3.6 1 .6.5 1.1 1.3 1.1 2.3 0 1.3-.8 2.4-2.3 2.9 1.3.3 2.7 1.4 2.7 3.3 0 1.1-.5 2-1.1 2.7-.9.8-2.4 1.2-4.6 1.2-1.2 0-2.1-.1-2.7-.2v-13h.2zm1.7 5.4h1.5c1.8 0 2.8-1 2.8-2.2 0-1.5-1.2-2.2-2.9-2.2-.8 0-1.2.1-1.5.1l.1 4.3zm0 6.3c.3.1.8.1 1.5.1 1.8 0 3.4-.6 3.4-2.6 0-1.8-1.5-2.6-3.4-2.6h-1.4l-.1 5.1zm14.1 1.3l-.2-1.2h-.1c-.6.7-1.5 1.4-2.9 1.4-1.9 0-2.9-1.4-2.9-2.7 0-2.3 2-3.5 5.7-3.5v-.2c0-.8-.2-2.2-2.2-2.2-.9 0-1.8.2-2.5.7l-.4-1.1c.8-.5 1.9-.8 3.1-.8 2.9 0 3.6 2 3.6 3.9v3.5c0 .8 0 1.6.2 2.3.2-.1-1.4-.1-1.4-.1zm-.2-4.9c-1.9 0-4 .3-4 2.1 0 1.1.7 1.6 1.6 1.6 1.2 0 2-.8 2.3-1.6.1-.2.1-.4.1-.6v-1.5zm4.4-9h1.7v13.8h-1.7v-13.8zm10 13.9l-.2-1.2h-.1c-.6.7-1.5 1.4-2.9 1.4-1.9 0-2.9-1.4-2.9-2.7 0-2.3 2-3.5 5.7-3.5v-.2c0-.8-.2-2.2-2.2-2.2-.9 0-1.8.2-2.5.7l-.4-1.1c.8-.5 1.9-.8 3.1-.8 2.9 0 3.6 2 3.6 3.9v3.5c0 .8 0 1.6.2 2.3.1-.1-1.4-.1-1.4-.1zm-.4-4.9c-1.9 0-4 .3-4 2.1 0 1.1.7 1.6 1.6 1.6 1.2 0 2-.8 2.3-1.6.1-.2.1-.4.1-.6v-1.5zm4.6-2c0-1 0-1.8-.1-2.6h1.5l.1 1.5c.5-.9 1.5-1.8 3.1-1.8 1.3 0 3.4.8 3.4 4v5.6h-1.7v-5.5c0-1.5-.6-2.8-2.2-2.8-1.1 0-2 .8-2.3 1.8-.1.2-.1.5-.1.8v5.7h-1.7v-6.7zm17.6 6.5c-.5.2-1.5.6-2.7.6-2.8 0-4.8-1.9-4.8-4.8s2-5 5.1-5c1 0 1.9.2 2.4.5l-.4 1.4c-.4-.2-1-.5-2-.5-2.2 0-3.4 1.6-3.4 3.5 0 2.2 1.4 3.5 3.3 3.5 1 0 1.6-.2 2.1-.5l.4 1.3zm2.8-4.1c0 2.3 1.5 3.3 3.2 3.3 1.2 0 2-.2 2.7-.5l.3 1.2c-.6.2-1.6.6-3.1.6-2.9 0-4.7-1.9-4.7-4.7s1.7-5.1 4.4-5.1c3.1 0 4 2.7 4 4.4 0 .3 0 .6-.1.8h-6.7zm5.1-1.2c0-1.1-.5-2.8-2.4-2.8-1.8 0-2.5 1.6-2.7 2.8h5.1zm3.4-2.2c0-.7.5-1.2 1.2-1.2s1.1.5 1.1 1.2c0 .6-.5 1.2-1.2 1.2s-1.1-.6-1.1-1.2zm0 6.9c0-.7.5-1.2 1.2-1.2s1.1.5 1.1 1.2-.5 1.2-1.2 1.2-1.1-.6-1.1-1.2z"/><path fill="#A6D2A7" d="M221.7 145.6H506v19.8H221.7z"/><path opacity=".1" fill="#010202" d="M221 185.7h284.3v19.8H221zm0 40.2h284.3v19.8H221zm.7 42.1H506v19.8H221.7z"/><path fill="#A6D2A7" d="M301.6 145.8h4.9v159.8h-4.9z"/><path d="M228.9 177.1l-1.1 3.4h-1.5l3.7-10.9h1.7l3.7 10.9h-1.5l-1.1-3.4h-3.9zm3.6-1.2l-1-3.1c-.2-.7-.4-1.4-.6-2-.2.6-.3 1.3-.6 1.9l-1 3.1 3.2.1zm9.9 4.2c-.4.2-1.2.5-2.3.5-2.3 0-3.9-1.6-3.9-3.9 0-2.4 1.6-4.1 4.2-4.1.8 0 1.6.2 1.9.4l-.3 1.1c-.3-.2-.9-.4-1.6-.4-1.8 0-2.7 1.3-2.7 3 0 1.8 1.1 2.9 2.7 2.9.8 0 1.4-.2 1.8-.4l.2.9zm3.6-9.7v2.3h2v1h-2v4.2c0 1 .2 1.5 1 1.5.4 0 .6-.1.8-.1l.1 1c-.2.1-.7.2-1.3.2-.6 0-1.2-.2-1.5-.6-.4-.4-.6-1.1-.6-2v-4.2h-1.2v-1h1.2v-1.9l1.5-.4zm5.2.1c0 .5-.3.9-.9.9-.5 0-.9-.4-.9-.9s.4-.9.9-.9c.6 0 .9.4.9.9zm-1.6 9.9v-7.8h1.5v7.8h-1.5zm4.3-7.8l1.5 4.3c.2.7.5 1.4.6 2h.1c.2-.6.4-1.3.6-2l1.5-4.3h1.5l-3.1 7.8h-1.4l-3-7.8h1.7zm14.2 3.9c0 2.9-2 4.1-3.9 4.1-2.1 0-3.7-1.5-3.7-4 0-2.6 1.7-4.1 3.9-4.1s3.7 1.6 3.7 4zm-6.2.1c0 1.7 1 3 2.3 3 1.4 0 2.3-1.3 2.3-3.1 0-1.3-.6-3-2.3-3-1.6 0-2.3 1.5-2.3 3.1zm7.8 2.4c.4.2 1.1.6 1.9.6 1 0 1.5-.5 1.5-1.1s-.4-1-1.5-1.4c-1.4-.5-2.1-1.3-2.1-2.2 0-1.3 1-2.3 2.7-2.3.8 0 1.5.2 1.9.5l-.3 1c-.3-.2-.9-.5-1.6-.5-.8 0-1.3.5-1.3 1 0 .6.5 1 1.5 1.3 1.4.5 2 1.2 2 2.3 0 1.4-1 2.3-2.9 2.3-.9 0-1.6-.2-2.2-.6l.4-.9z"/><path d="M227.1 191.5c.6-.2 1.6-.2 2.6-.2 1.4 0 2.3.2 3 .8.6.4.9 1 .9 1.9 0 1-.7 1.9-1.9 2.4 1 .2 2.3 1.1 2.3 2.7 0 1-.4 1.6-.9 2.2-.7.7-2 1-3.8 1-1 0-1.7-.1-2.2-.2v-10.6zm1.5 4.4h1.3c1.5 0 2.3-.8 2.3-1.9 0-1.3-1-1.8-2.4-1.8-.6 0-1 .1-1.2.1v3.6zm0 5.2c.2.1.6.1 1.2.1 1.5 0 2.8-.6 2.8-2.1 0-1.4-1.3-2.1-2.8-2.1h-1.1l-.1 4.1zm11.6 1.1l-.1-1h-.1c-.4.6-1.3 1.1-2.4 1.1-1.6 0-2.4-1.1-2.4-2.3 0-1.9 1.7-2.9 4.7-2.9v-.1c0-.6-.2-1.8-1.8-1.8-.7 0-1.5.2-2 .6l-.3-1c.6-.4 1.6-.7 2.6-.7 2.4 0 3 1.6 3 3.2v2.9c0 .6 0 1.4.2 1.9l-1.4.1zm-.2-4c-1.5 0-3.3.2-3.3 1.8 0 .9.6 1.4 1.4 1.4 1 0 1.7-.6 1.9-1.3.1-.2.1-.3.1-.5v-1.4zm3.7-1.8c0-.8 0-1.4-.1-2.1h1.3l.1 1.3c.4-.7 1.3-1.4 2.6-1.4 1 0 2.7.6 2.7 3.3v4.7h-1.5v-4.5c0-1.3-.5-2.3-1.8-2.3-1 0-1.7.6-1.9 1.4-.1.2-.1.4-.1.6v4.7h-1.5l.2-5.7zm14.5 5.4c-.4.2-1.2.5-2.3.5-2.3 0-3.9-1.6-3.9-3.9 0-2.4 1.6-4.1 4.2-4.1.8 0 1.6.2 1.9.4l-.3 1.1c-.3-.2-.9-.4-1.6-.4-1.8 0-2.7 1.3-2.7 3 0 1.8 1.1 2.9 2.7 2.9.8 0 1.4-.2 1.8-.4l.2.9zm8.7-3.6c0 2.9-2 4.1-3.9 4.1-2.1 0-3.7-1.5-3.7-4 0-2.6 1.7-4.1 3.9-4.1s3.7 1.6 3.7 4zm-6.3.1c0 1.7 1 3 2.3 3 1.4 0 2.3-1.3 2.3-3.1 0-1.3-.6-3-2.3-3-1.5 0-2.3 1.6-2.3 3.1zm7.8 2.4c.4.2 1.1.6 1.9.6 1 0 1.5-.5 1.5-1.1s-.4-1-1.5-1.4c-1.4-.5-2.1-1.3-2.1-2.2 0-1.3 1-2.3 2.7-2.3.8 0 1.5.2 1.9.5l-.3 1c-.3-.2-.9-.5-1.6-.5-.8 0-1.3.5-1.3 1 0 .6.5 1 1.5 1.3 1.4.5 2 1.2 2 2.3 0 1.4-1 2.3-2.9 2.3-.9 0-1.6-.2-2.2-.6l.4-.9zm-33.6 20.4c-.5.2-1.5.5-2.9.5-3.1 0-5.4-1.9-5.4-5.5 0-3.4 2.3-5.7 5.7-5.7 1.4 0 2.2.3 2.6.5l-.3 1.1c-.6-.2-1.3-.5-2.2-.5-2.6 0-4.3 1.6-4.3 4.5 0 2.7 1.5 4.3 4.2 4.3.9 0 1.7-.2 2.3-.5l.3 1.3zm3.4-9.7v2.3h2v1h-2v4.2c0 1 .2 1.5 1 1.5.4 0 .6-.1.8-.1l.1 1c-.2.1-.7.2-1.3.2-.6 0-1.2-.2-1.5-.6-.4-.4-.6-1.1-.6-2v-4.2h-1.2v-1h1.2v-1.9l1.5-.4zm8 10.1l-.1-1h-.1c-.4.6-1.3 1.1-2.4 1.1-1.6 0-2.4-1.1-2.4-2.3 0-1.9 1.7-2.9 4.7-2.9v-.2c0-.6-.2-1.8-1.8-1.8-.7 0-1.5.2-2 .6l-.3-1c.6-.4 1.6-.7 2.6-.7 2.4 0 3 1.6 3 3.2v2.9c0 .6 0 1.4.2 1.9l-1.4.2zm-.2-4c-1.5 0-3.3.2-3.3 1.8 0 .9.6 1.4 1.4 1.4 1 0 1.7-.6 1.9-1.3.1-.2.1-.3.1-.5v-1.4zm3.4 2.5c.4.2 1.1.6 1.9.6 1 0 1.5-.5 1.5-1.1s-.4-1-1.5-1.4c-1.4-.5-2.1-1.3-2.1-2.2 0-1.3 1-2.3 2.7-2.3.8 0 1.5.2 1.9.5l-.3 1c-.3-.2-.9-.5-1.6-.5-.8 0-1.3.5-1.3 1 0 .6.5 1 1.5 1.3 1.4.5 2 1.2 2 2.3 0 1.4-1 2.3-2.9 2.3-.9 0-1.6-.2-2.2-.6l.4-.9zm10.7-6.3l1.1 1.7c.3.4.6.8.8 1.3h.1c.2-.5.5-.9.8-1.3l1.1-1.7h1.5l-2.7 3.8 2.7 4H264l-1.1-1.8c-.3-.5-.6-.9-.8-1.4-.2.5-.6.9-.8 1.4l-1.1 1.8h-1.5l2.7-3.9-2.7-3.8 1.4-.1zm17.9 7.4c-.5.2-1.5.5-2.9.5-3.1 0-5.4-1.9-5.4-5.5 0-3.4 2.3-5.7 5.7-5.7 1.4 0 2.2.3 2.6.5l-.3 1.1c-.6-.2-1.3-.5-2.2-.5-2.6 0-4.3 1.6-4.3 4.5 0 2.7 1.5 4.3 4.2 4.3.9 0 1.7-.2 2.3-.5l.3 1.3zm1.6.4c0-.6.1-1.3.1-2V210h1.4v4.9c.5-.9 1.4-1.4 2.7-1.4 1.9 0 3.3 1.6 3.3 3.9 0 2.8-1.8 4.2-3.5 4.2-1.1 0-2-.4-2.6-1.4h-.1l-.1 1.3h-1.2zm1.5-3.2c0 .2 0 .3.1.5.2 1 1.1 1.7 2.1 1.7 1.5 0 2.3-1.2 2.3-3 0-1.5-.8-2.9-2.3-2.9-1 0-1.9.6-2.2 1.8 0 .2-.1.3-.1.6l.1 1.3zm7.8-2.2c0-.9 0-1.7-.1-2.4h1.2l.1 1.5h.1c.3-1 1.2-1.7 2.2-1.7.2 0 .2 0 .4.1v1.4c-.2 0-.3-.1-.5-.1-1 0-1.7.7-1.9 1.9 0 .2-.1.4-.1.6v4.2h-1.4v-5.5zm-60.3 14.7v10.9h-1.4v-10.9h1.4zm2.6 5.1c0-.8 0-1.4-.1-2.1h1.3l.1 1.3c.4-.7 1.3-1.4 2.6-1.4 1 0 2.7.6 2.7 3.3v4.7h-1.5v-4.5c0-1.3-.5-2.3-1.8-2.3-1 0-1.7.6-1.9 1.4-.1.2-.1.4-.1.6v4.7H231l.2-5.7zm9.3-2l1.5 4.3c.2.7.5 1.4.6 2h.1c.2-.6.4-1.3.6-2l1.5-4.3h1.5l-3.1 7.8h-1.4l-3-7.8h1.7zm7.8 4.1c0 1.9 1.3 2.7 2.7 2.7 1 0 1.6-.2 2.2-.4l.2 1c-.5.2-1.4.5-2.6.5-2.4 0-3.9-1.6-3.9-3.9s1.4-4.2 3.6-4.2c2.6 0 3.2 2.3 3.2 3.7 0 .3 0 .5-.1.6h-5.3zm4.2-1c0-.9-.4-2.3-1.9-2.3s-2.1 1.3-2.2 2.3h4.1zm3.1-1.1c0-.8 0-1.4-.1-2.1h1.3l.1 1.3c.4-.7 1.3-1.4 2.6-1.4 1 0 2.7.6 2.7 3.3v4.7h-1.5v-4.5c0-1.3-.5-2.3-1.8-2.3-1 0-1.7.6-1.9 1.4-.1.2-.1.4-.1.6v4.7h-1.4v-5.7zm10.6-4.3v2.3h2v1h-2v4.2c0 1 .2 1.5 1 1.5.4 0 .6-.1.8-.1l.1 1c-.2.1-.7.2-1.3.2-.6 0-1.2-.2-1.5-.6-.4-.4-.6-1.1-.6-2v-4.3h-1.1v-1h1.2V232l1.4-.4zm7.9 10.1l-.1-1c-.4.6-1.3 1.1-2.4 1.1-1.6 0-2.4-1.1-2.4-2.3 0-1.9 1.7-2.9 4.7-2.9v-.2c0-.6-.2-1.8-1.8-1.8-.7 0-1.5.2-2 .6l-.3-1c.6-.4 1.6-.7 2.6-.7 2.4 0 3 1.6 3 3.2v2.9c0 .6 0 1.4.2 1.9l-1.5.2zm-.1-4c-1.5 0-3.3.2-3.3 1.8 0 .9.6 1.4 1.4 1.4 1 0 1.7-.6 1.9-1.3.1-.2.1-.3.1-.5v-1.4zm3.6-1.4c0-.9 0-1.7-.1-2.4h1.2l.1 1.5h.1c.3-1 1.2-1.7 2.2-1.7.2 0 .2 0 .4.1v1.4c-.2 0-.3-.1-.5-.1-1 0-1.7.7-1.9 1.9 0 .2-.1.4-.1.6v4.2h-1.4v-5.5zm6.9-4.6c0 .5-.3.9-.9.9-.5 0-.9-.4-.9-.9s.4-.9.9-.9c.6 0 .9.4.9.9zm-1.6 10v-7.8h1.5v7.8h-1.5zm10.9-4c0 2.9-2 4.1-3.9 4.1-2.1 0-3.7-1.5-3.7-4 0-2.6 1.7-4.1 3.9-4.1s3.7 1.6 3.7 4zm-6.2.1c0 1.7 1 3 2.3 3 1.4 0 2.3-1.3 2.3-3.1 0-1.3-.6-3-2.3-3-1.6 0-2.3 1.6-2.3 3.1zm7.8 2.4c.4.2 1.1.6 1.9.6 1 0 1.5-.5 1.5-1.1s-.4-1-1.5-1.4c-1.4-.5-2.1-1.3-2.1-2.2 0-1.3 1-2.3 2.7-2.3.8 0 1.5.2 1.9.5l-.3 1c-.3-.2-.9-.5-1.6-.5-.8 0-1.3.5-1.3 1 0 .6.5 1 1.5 1.3 1.4.5 2 1.2 2 2.3 0 1.4-1 2.3-2.9 2.3-.9 0-1.6-.2-2.2-.6l.4-.9zm-68.3 23.2v-10.9h1.5l3.5 5.5c.8 1.3 1.5 2.4 1.9 3.5-.2-1.4-.2-2.7-.2-4.4v-4.5h1.3v10.9h-1.5l-3.5-5.5c-.7-1.2-1.5-2.4-2-3.6h-.1c.1 1.4.1 2.7.1 4.5v4.7H227v-.2zm17.7-4c0 2.9-2 4.1-3.9 4.1-2.1 0-3.7-1.5-3.7-4 0-2.6 1.7-4.1 3.9-4.1s3.7 1.6 3.7 4zm-6.2.1c0 1.7 1 3 2.3 3s2.3-1.3 2.3-3.1c0-1.3-.6-3-2.3-3-1.6.1-2.3 1.6-2.3 3.1zm17 3.6c-.4.2-1.2.5-2.3.5-2.3 0-3.9-1.6-3.9-3.9 0-2.4 1.6-4.1 4.2-4.1.8 0 1.6.2 1.9.4l-.3 1.1c-.3-.2-.9-.4-1.6-.4-1.8 0-2.7 1.3-2.7 3 0 1.8 1.1 2.9 2.7 2.9.8 0 1.4-.2 1.8-.4l.2.9zm8.7-3.7c0 2.9-2 4.1-3.9 4.1-2.1 0-3.7-1.5-3.7-4 0-2.6 1.7-4.1 3.9-4.1 2.1 0 3.7 1.6 3.7 4zm-6.2.1c0 1.7 1 3 2.3 3 1.4 0 2.3-1.3 2.3-3.1 0-1.3-.6-3-2.3-3-1.6.1-2.3 1.6-2.3 3.1zm8-1.5c0-.9 0-1.7-.1-2.4h1.2l.1 1.5h.1c.3-1 1.2-1.7 2.2-1.7.2 0 .2 0 .4.1v1.4c-.2 0-.3-.1-.5-.1-1 0-1.7.7-1.9 1.9 0 .2-.1.4-.1.6v4.2h-1.4V258zm5.3 0c0-.9 0-1.7-.1-2.4h1.2l.1 1.5h.1c.3-1 1.2-1.7 2.2-1.7.2 0 .2 0 .4.1v1.4c-.2 0-.3-.1-.5-.1-1 0-1.7.7-1.9 1.9 0 .2-.1.4-.1.6v4.2h-1.4V258zm5.3-.3c0-.8 0-1.4-.1-2.1h1.3l.1 1.3c.4-.7 1.3-1.4 2.6-1.4 1 0 2.7.6 2.7 3.3v4.7h-1.5V259c0-1.3-.5-2.3-1.8-2.3-1 0-1.7.6-1.9 1.4-.1.2-.1.4-.1.6v4.7h-1.5l.2-5.7zm10.7-4.4v2.3h2v1h-2v4.2c0 1 .2 1.5 1 1.5.4 0 .6-.1.8-.1l.1 1c-.2.1-.7.2-1.3.2-.6 0-1.2-.2-1.5-.6-.4-.4-.6-1.1-.6-2v-4.3h-1.2v-1h1.2v-1.9l1.5-.3zm3.4 8.6c.4.2 1.1.6 1.9.6 1 0 1.5-.5 1.5-1.1s-.4-1-1.5-1.4c-1.4-.5-2.1-1.3-2.1-2.2 0-1.3 1-2.3 2.7-2.3.8 0 1.5.2 1.9.5l-.3 1c-.3-.2-.9-.5-1.6-.5-.8 0-1.3.5-1.3 1 0 .6.5 1 1.5 1.3 1.4.5 2 1.2 2 2.3 0 1.4-1 2.3-2.9 2.3-.9 0-1.6-.2-2.2-.6l.4-.9zm-58 15.7h-4.2v3.9h4.7v1.2h-6.1v-10.9h5.9v1.2h-4.4v3.5h4.2v1.1zm9-6.3v9.4c0 .7 0 1.4.1 2h-1.3l-.1-1.4c-.4.9-1.4 1.5-2.7 1.5-1.9 0-3.3-1.6-3.3-3.9 0-2.6 1.6-4.2 3.5-4.2 1.2 0 2 .6 2.3 1.2v-4.7h1.5zm-1.5 6.8c0-.2 0-.4-.1-.6-.2-.9-1-1.6-2-1.6-1.5 0-2.3 1.3-2.3 3 0 1.6.8 2.9 2.3 2.9 1 0 1.9-.6 2.1-1.7.1-.2.1-.4.1-.6l-.1-1.4zm5.4-5.4c0 .5-.3.9-.9.9-.5 0-.9-.4-.9-.9s.4-.9.9-.9c.6 0 .9.4.9.9zm-1.6 10v-7.8h1.5v7.8h-1.5zm4 0V276H247v-1h1.1v-.4c0-2.1 1.2-3.4 3.4-3.4.7 0 1.6.2 2 .5l-.4 1c-.3-.2-1-.5-1.6-.5-1.5 0-1.9 1-1.9 2.3v.4h4.5v7.8h-1.4V276h-3.1v6.7h-1.5zm13.8-.3c-.4.2-1.2.5-2.3.5-2.3 0-3.9-1.6-3.9-3.9 0-2.4 1.6-4.1 4.2-4.1.8 0 1.6.2 1.9.4l-.3 1.1c-.3-.2-.9-.4-1.6-.4-1.8 0-2.7 1.3-2.7 3 0 1.8 1.1 2.9 2.7 2.9.8 0 1.4-.2 1.8-.4l.2.9zm3.3-9.7c0 .5-.3.9-.9.9-.5 0-.9-.4-.9-.9s.4-.9.9-.9.9.4.9.9zm-1.6 10v-7.8h1.5v7.8h-1.5zm10.9-4c0 2.9-2 4.1-3.9 4.1-2.1 0-3.7-1.5-3.7-4 0-2.6 1.7-4.1 3.9-4.1 2.1 0 3.7 1.6 3.7 4zm-6.3.1c0 1.7 1 3 2.3 3s2.3-1.3 2.3-3.1c0-1.3-.6-3-2.3-3-1.5.1-2.3 1.6-2.3 3.1zm7.8 2.4c.4.2 1.1.6 1.9.6 1 0 1.5-.5 1.5-1.1 0-.6-.4-1-1.5-1.4-1.4-.5-2.1-1.3-2.1-2.2 0-1.3 1-2.3 2.7-2.3.8 0 1.5.2 1.9.5l-.3 1c-.3-.2-.9-.5-1.6-.5-.8 0-1.3.5-1.3 1 0 .6.5 1 1.5 1.3 1.4.5 2 1.2 2 2.3 0 1.4-1 2.3-2.9 2.3-.9 0-1.6-.2-2.2-.6l.4-.9z" opacity=".6"/><path fill="#A6D2A7" d="M384.7 145.7h4.9v159.8h-4.9z"/></svg>