<svg xmlns="http://www.w3.org/2000/svg" viewBox="36.9 512.2 848.82696 146.9777" width="848.827" height="146.978"><path d="M110.609 512.2c-40.595 0-73.599 32.894-73.599 73.489 0 40.595 32.894 73.489 73.489 73.489 40.595 0 73.489-32.894 73.489-73.49 0-40.594-32.784-73.488-73.38-73.488zm45.985 85.04c-6.27 24.973-31.903 39.935-57.316 33.554-25.414-6.38-40.925-31.794-34.655-56.657 6.271-24.973 31.904-39.934 57.317-33.554 25.413 6.381 40.925 31.684 34.654 56.657z" fill="#3f5fff"/><linearGradient id="a" gradientUnits="userSpaceOnUse" x1="36.855" y1="576.284" x2="148.279" y2="576.284" gradientTransform="translate(-3.695 -51.288) scale(1.10013)"><stop offset="0" stop-color="#fff" stop-opacity="0"/><stop offset="1" stop-color="#7fdbff"/></linearGradient><path d="M114.68 516.71c-13.202-3.3-26.514-1.54-38.395 4.071C52.852 533.103 36.9 557.635 36.9 585.909c0 12.651 3.19 24.533 8.801 34.874.11.22.22.33.33.55 0 .11.11.22.11.22 7.811 13.202 20.133 23.213 35.424 27.063 32.674 8.251 66.448-14.631 75.69-51.156 9.24-36.524-9.902-72.498-42.576-80.75zm41.914 80.42c-6.27 24.973-31.903 39.935-57.316 33.554-25.414-6.38-40.925-31.794-34.655-56.657 6.271-24.973 31.904-39.934 57.317-33.554 25.413 6.381 40.925 31.684 34.654 56.657z" fill="url(#a)"/><linearGradient id="b" gradientUnits="userSpaceOnUse" x1="59.89" y1="581.345" x2="170.676" y2="581.345" gradientTransform="translate(-3.695 -51.288) scale(1.10013)"><stop offset="0" stop-color="#5558ff"/><stop offset="1" stop-color="#fff" stop-opacity="0"/></linearGradient><path d="M166.276 537.833c-7.151-7.15-16.062-12.541-26.294-15.072-32.674-8.14-66.448 14.522-75.579 50.716-9.13 36.195 10.012 72.17 42.575 80.31 17.823 4.51 36.085-.33 50.387-11.441 16.281-13.532 26.733-33.884 26.733-56.657 0-18.262-6.711-34.984-17.822-47.856zm-9.682 59.407c-6.27 24.973-31.903 39.935-57.316 33.554-25.414-6.38-40.925-31.794-34.655-56.657 6.271-24.973 31.904-39.934 57.317-33.554 25.413 6.381 40.925 31.684 34.654 56.657z" fill="url(#b)"/><text style="line-height:125%;-inkscape-font-specification:'Small Fonts'" x="188.215" y="590.849" transform="scale(.98844 1.0117)" font-weight="400" font-size="93.301" font-family="Small Fonts" letter-spacing="0" word-spacing="0" fill="#3f5fff"><tspan x="188.215" y="590.849" style="-inkscape-font-specification:'Century Gothic'" font-family="Century Gothic"><tspan><tspan fill="#000">esPractica</tspan>.</tspan>com</tspan></text><text style="line-height:125%;-inkscape-font-specification:'Small Fonts'" x="194.197" y="631.123" transform="scale(.98844 1.0117)" font-weight="400" font-size="39.783" font-family="Small Fonts" letter-spacing="0" word-spacing="0"><tspan x="194.197" y="631.123" style="-inkscape-font-specification:'Century Gothic'" font-family="Century Gothic">portal de recursos para universitarios</tspan></text></svg>