<svg xmlns="http://www.w3.org/2000/svg" viewBox="36.9 512.2 612 147.1"><path fill="#3F5FFF" d="M103.9 512.2C67 512.2 37 542.1 37 579s29.9 66.8 66.8 66.8 66.8-29.9 66.8-66.8-29.8-66.8-66.7-66.8zm41.8 77.3c-5.7 22.7-29 36.3-52.1 30.5-23.1-5.8-37.2-28.9-31.5-51.5 5.7-22.7 29-36.3 52.1-30.5s37.2 28.8 31.5 51.5z"/><path fill="#01002A" d="M188.9 586.3c1.1.9 2.2 1.6 3.4 2.3 1.3.6 2.6 1.2 3.8 1.7 1.3.5 2.6.9 4 1.1s2.6.3 3.8.3c8.3 0 12.5-3.1 12.5-9.4 0-1.4-.3-2.7-.9-3.7-.5-1.1-1.4-1.9-2.6-2.8-1.1-.9-2.4-1.6-4-2.4-1.5-.7-3.2-1.5-5.2-2.4-2.6-1.1-4.8-2.1-6.7-3.2-1.8-1.1-3.4-2.3-4.6-3.6-1.2-1.3-2.1-2.8-2.7-4.3-.5-1.5-.9-3.3-.9-5.3 0-2.5.5-4.7 1.6-6.6 1.1-1.9 2.6-3.6 4.4-5s4-2.4 6.3-3.1c2.4-.7 5-1.1 7.5-1.1 4.8 0 9.1.9 12.7 2.8v7.4c-4.2-2.7-8.7-4-13.6-4-1.7 0-3.4.2-4.8.6-1.4.4-2.7 1.1-3.7 1.8-1.1.8-1.8 1.7-2.4 2.9-.5 1.1-.9 2.4-.9 3.7 0 1.4.2 2.6.6 3.7.4 1.1 1.1 1.9 2 2.8.9.9 2.1 1.6 3.6 2.4 1.5.8 3.2 1.6 5.4 2.5 2.7 1.1 5 2.2 7 3.2 1.9 1.1 3.6 2.3 4.8 3.6 1.3 1.3 2.3 2.7 2.8 4.2.6 1.5.9 3.4.9 5.4 0 2.6-.5 4.8-1.5 6.8-1.1 1.9-2.5 3.7-4.3 5s-4 2.4-6.5 3c-2.5.7-5.2 1.1-8.1 1.1-5.6 0-10.4-1.2-14.3-3.6v-7.9h.3v.1zm52.2-60.2c-1.3 0-2.6-.5-3.6-1.4s-1.5-2.2-1.5-3.6.5-2.6 1.5-3.6c1-.9 2.2-1.4 3.6-1.4.7 0 1.3.1 1.9.3s1.1.5 1.6 1c.4.4.9 1 1.1 1.5.3.6.4 1.3.4 1.9s-.1 1.3-.3 1.9c-.3.6-.6 1.1-1.1 1.6-.5.4-1 .9-1.6 1.1-.6.6-1.2.7-2 .7zm-3.5 70.3v-56.1h7v56.1h-7zm95.7 0v-33c0-3.4-.3-6.2-.8-8.5s-1.3-4.2-2.4-5.6c-1.1-1.5-2.5-2.6-4.1-3.2-1.7-.6-3.7-1-5.9-1-2 0-4 .5-5.8 1.5-1.8 1-3.4 2.4-4.8 4s-2.5 3.7-3.2 6c-.7 2.3-1.2 4.8-1.2 7.5v32.4h-7v-33.7c0-11.8-4.5-17.7-13.6-17.7-2.1 0-4 .5-5.8 1.4-1.7.9-3.4 2.3-4.6 4-1.3 1.7-2.4 3.7-3.1 6-.8 2.4-1.1 4.9-1.1 7.9v32.2h-7v-56.1h7v8.9h.2c4-6.9 9.7-10.4 17.3-10.4 1.9 0 3.8.3 5.6.9s3.3 1.4 4.7 2.6c1.4 1.1 2.6 2.4 3.6 3.9s1.7 3.2 2.3 5c1.9-4 4.5-7 7.7-9.1s6.7-3.1 10.7-3.1c12.3 0 18.5 7.6 18.5 22.8v34.7h-7.1v-.3zm60.5 0v-9.5h-.3c-3.8 7.3-9.7 10.9-17.7 10.9-13.3 0-19.9-8.1-19.9-24.4v-33h7V572c0 6.7 1.2 11.7 3.6 14.9 2.4 3.2 6 4.8 11 4.8 2.4 0 4.6-.5 6.6-1.4 1.9-.9 3.8-2.3 5.2-4 1.4-1.7 2.6-3.8 3.4-6.1.8-2.4 1.2-5 1.2-7.9v-32h7v56.1h-7.1zm25 0v-83.1h7v83l-7 .1zm57.4 0v-9.9h-.2c-1.8 3.6-4.3 6.4-7.5 8.3-3.2 1.9-6.7 3-10.7 3-2.7 0-5.2-.3-7.3-1.1-2.1-.8-4-1.8-5.5-3.2-1.5-1.4-2.7-3.1-3.6-5.1-.9-2-1.2-4.2-1.2-6.5 0-5.1 1.5-9.1 4.7-12.2 3.2-3 7.9-5 14.2-5.8l17.1-2.5c0-10.8-4.2-16.1-12.6-16.1-6.6 0-12.6 2.4-18.2 7.2v-7.7c1.2-.9 2.5-1.6 4-2.3 1.5-.7 3-1.3 4.6-1.7 1.6-.5 3.3-.9 5.1-1.1 1.7-.3 3.4-.4 5.1-.4 6.2 0 10.9 1.7 14.2 5.3 3.2 3.6 4.8 8.7 4.8 15.6v36.5h-7.1l.1-.3zm-14.4-27.2c-2.6.3-4.6.9-6.5 1.3-1.8.5-3.2 1.3-4.4 2.2-1.2.9-2 2.1-2.6 3.4-.5 1.3-.9 3-.9 5.1 0 1.5.3 2.9.8 4.2.5 1.3 1.3 2.4 2.4 3.3 1 .9 2.3 1.6 3.7 2.2 1.4.5 3.1.8 5 .8 2.5 0 4.8-.5 6.9-1.4 2.1-.9 3.9-2.3 5.4-4 1.5-1.7 2.7-3.7 3.6-6 .9-2.3 1.3-4.8 1.3-7.6v-5.5l-14.7 2z"/><path fill="#3F5FFF" d="M508.6 565.8v30.5h-7.3v-78.4h20.2c4.2 0 7.7.5 10.9 1.5 3.2 1.1 5.8 2.5 8.1 4.4 2.2 1.9 3.9 4.3 5 7.1s1.7 6 1.7 9.7-.6 7.1-1.9 10.1c-1.3 3.1-3.1 5.8-5.5 8-2.4 2.3-5.3 4-8.7 5.3-3.4 1.3-7.3 1.9-11.6 1.9l-10.9-.1zm0-41.3v34.7H519c6.8 0 11.9-1.5 15.4-4.7 3.4-3.2 5.3-7.5 5.3-13.3 0-11.1-6.5-16.6-19.4-16.6l-11.7-.1zm81.3 23c-1.6-1.2-3.8-1.8-6.3-1.8-1.8 0-3.6.3-5 1.1-1.4.7-2.7 1.7-3.8 2.9-1.1 1.2-1.9 2.6-2.8 4.2-.8 1.6-1.3 3.2-1.8 5-.5 1.7-.8 3.4-1 5.2-.2 1.7-.3 3.4-.3 5v27.3h-7v-56.1h7v12h.2c.6-2 1.5-3.9 2.5-5.5s2.2-3 3.4-4.1c1.3-1.1 2.8-1.9 4.3-2.6 1.5-.5 3.2-.9 5-.9 1.1 0 2.1.1 3 .2.9.1 1.7.3 2.5.6v7.5h.1zm31.6 50.2c-4.2 0-7.9-.7-11.2-2.1-3.3-1.4-6.1-3.4-8.5-5.9-2.4-2.6-4.2-5.6-5.4-9.1-1.3-3.6-1.8-7.5-1.8-11.8 0-4.6.6-8.9 1.9-12.6s3.2-6.8 5.6-9.4c2.4-2.6 5.4-4.5 8.8-5.8s7.3-2 11.5-2c4 0 7.7.6 10.9 1.9 3.2 1.3 6 3.2 8.3 5.8s4 5.6 5.2 9.1c1.2 3.6 1.8 7.8 1.8 12.4 0 4.4-.6 8.4-1.9 12-1.3 3.6-3 6.7-5.4 9.3-2.4 2.6-5.2 4.6-8.5 6-3.2 1.4-7.1 2.2-11.3 2.2zm.6-52.6c-3 0-5.8.5-8.3 1.6-2.5 1.1-4.6 2.6-6.4 4.6-1.7 2-3.1 4.5-4.1 7.5-.9 3-1.4 6.2-1.4 10 0 3.6.5 6.7 1.4 9.5.9 2.8 2.3 5.2 4 7.3 1.7 1.9 3.8 3.6 6.3 4.6 2.5 1.1 5.3 1.6 8.3 1.6 3.2 0 5.9-.5 8.3-1.5 2.4-1.1 4.4-2.6 6.1-4.5 1.7-1.9 3-4.4 3.8-7.3.9-2.9 1.3-6.2 1.3-9.9 0-7.5-1.7-13.3-5-17.3-3.3-4.3-8.1-6.2-14.3-6.2z"/><path d="M213.3 646.5L209 635h-16.7l-4.2 11.5h-4l14.8-38.9h3.6l14.7 38.9h-3.9zm-11.9-32.1c-.1-.3-.3-.7-.4-1.2-.1-.4-.3-1-.3-1.5h-.1c-.1.5-.2 1.1-.3 1.5-.1.4-.3.9-.4 1.2l-6.2 17.3h14.2l-6.5-17.3zm24.9 27.6v17.2h-3.4v-40.5h3.4v5.3h.1c1.1-1.9 2.4-3.4 4.2-4.4 1.7-1 3.7-1.5 5.8-1.5 1.7 0 3.4.3 4.7 1 1.4.6 2.6 1.5 3.6 2.8 1 1.2 1.7 2.6 2.3 4.3.5 1.7.8 3.6.8 5.6 0 2.4-.3 4.4-.9 6.2-.5 1.9-1.4 3.6-2.5 4.8-1.1 1.3-2.4 2.4-4 3.2-1.5.8-3.3 1.1-5.2 1.1-3.9 0-6.8-1.7-8.7-5.2l-.2.1zm0-7c0 1.3.2 2.5.6 3.6.4 1.1 1 2.1 1.7 3 .7.9 1.7 1.5 2.8 1.9s2.3.7 3.6.7c1.4 0 2.7-.3 3.8-.9 1.1-.5 2-1.4 2.9-2.6.8-1.1 1.4-2.4 1.8-4 .4-1.5.6-3.2.6-5.2 0-1.6-.2-3.1-.5-4.4-.4-1.3-1-2.4-1.7-3.3-.7-.9-1.6-1.6-2.7-2.1s-2.2-.7-3.4-.7c-1.4 0-2.8.3-3.9.8s-2.1 1.3-3 2.2c-.9.9-1.4 1.9-1.9 3.2-.4 1.3-.6 2.6-.6 4v3.6h-.1v.2zm42.2-12.7c-.9-.5-1.8-.9-3.2-.9-.9 0-1.7.2-2.5.5-.7.3-1.3.9-1.8 1.4-.5.5-1 1.3-1.3 2-.3.7-.6 1.6-.9 2.5-.2.9-.4 1.7-.5 2.6-.1.9-.1 1.7-.1 2.5v13.6h-3.4v-27.7h3.4v5.9h.1c.3-1 .7-1.9 1.2-2.8.5-.8 1.1-1.5 1.7-2s1.3-1 2.1-1.3 1.5-.4 2.4-.4c.5 0 1.1.1 1.5.1.4.1.9.2 1.2.3l.1 3.7zm5.9 10.9c0 1.7.2 3.2.7 4.6.5 1.3 1.1 2.5 1.9 3.4.9.9 1.8 1.6 3 2.2 1.2.5 2.5.8 4 .8 3.1 0 6-1.1 8.9-3.2v3.4c-2.7 1.9-5.8 2.8-9.7 2.8-1.8 0-3.6-.3-5.1-1-1.5-.6-2.8-1.6-3.9-2.8-1.1-1.3-1.9-2.8-2.5-4.6-.5-1.8-.9-3.9-.9-6.2 0-2 .3-4 .9-5.8.6-1.7 1.5-3.3 2.6-4.6s2.5-2.4 4-3c1.5-.7 3.2-1.1 5-1.1 1.8 0 3.4.3 4.7.9 1.3.6 2.6 1.5 3.4 2.7.9 1.1 1.6 2.6 2.1 4.2.5 1.7.7 3.6.7 5.6v1.7h-19.8zm16.5-3c-.1-2.9-.8-5.2-2-6.7-1.3-1.6-3.2-2.4-5.5-2.4-1.2 0-2.3.2-3.2.6-1 .4-1.9 1-2.6 1.8-.7.9-1.4 1.7-1.9 2.9-.5 1.1-.9 2.4-1.1 3.8h16.3zm29 16.3v-16c0-6.2-2.3-9.4-6.8-9.4-1.2 0-2.4.2-3.4.7s-1.9 1.1-2.7 1.9c-.8.9-1.3 1.8-1.7 3-.4 1.2-.6 2.4-.6 3.8v15.8h-3.4v-27.7h3.4v4.8h.1c2-3.7 5.2-5.5 9.3-5.5 3 0 5.4 1 6.9 3 1.6 1.9 2.4 4.8 2.4 8.5v16.9h-3.6v.2zm31.3 0v-4.8h-.1c-.9 1.7-2.3 3.1-4 4.1s-3.7 1.5-5.8 1.5c-1.7 0-3.3-.3-4.7-1-1.4-.6-2.6-1.5-3.7-2.8-1.1-1.2-1.7-2.7-2.4-4.4-.5-1.7-.9-3.7-.9-5.8 0-2.3.3-4.3.9-6.1.6-1.8 1.5-3.4 2.6-4.8 1.1-1.3 2.5-2.4 4-3.1 1.5-.8 3.3-1.1 5.2-1.1 4 0 6.9 1.6 8.6 4.8h.1v-17.5h3.4v41h-3.2zm0-16.7c0-1.2-.2-2.4-.6-3.4-.4-1.1-1-1.9-1.7-2.8-.7-.8-1.6-1.4-2.7-1.8s-2.2-.7-3.4-.7c-1.3 0-2.6.3-3.8.9-1.1.5-2.1 1.3-3 2.4-.9 1-1.5 2.3-1.9 3.8-.5 1.5-.7 3.1-.7 5 0 1.7.2 3.3.6 4.7.4 1.4 1 2.6 1.7 3.6s1.7 1.7 2.8 2.2c1.1.5 2.3.8 3.6.8 1.4 0 2.7-.3 3.8-.8 1.1-.5 2.1-1.2 2.9-2.1.8-.9 1.4-1.9 1.8-3.1.4-1.2.6-2.5.6-3.8V630h.1v-.2zm14 3.4c0 1.7.2 3.2.7 4.6.4 1.3 1.1 2.5 1.9 3.4.9.9 1.8 1.6 3 2.2 1.2.5 2.5.8 4 .8 3.1 0 6-1.1 8.9-3.2v3.4c-2.7 1.9-5.8 2.8-9.7 2.8-1.8 0-3.6-.3-5.1-1-1.5-.6-2.8-1.6-3.9-2.8-1.1-1.3-1.9-2.8-2.5-4.6-.5-1.8-.9-3.9-.9-6.2 0-2 .3-4 .9-5.8.6-1.7 1.5-3.3 2.6-4.6s2.5-2.4 4-3c1.5-.7 3.2-1.1 5-1.1s3.4.3 4.7.9c1.3.6 2.6 1.5 3.4 2.7.9 1.1 1.6 2.6 2.1 4.2.5 1.7.7 3.6.7 5.6v1.7h-19.8zm16.6-3c-.1-2.9-.8-5.2-2-6.7-1.3-1.6-3.2-2.4-5.5-2.4-1.2 0-2.3.2-3.2.6-1 .4-1.9 1-2.6 1.8-.8.8-1.4 1.7-1.9 2.9-.5 1.1-.9 2.4-1.1 3.8h16.3zm24.1-7.9c-.9-.5-1.8-.9-3.2-.9-.9 0-1.7.2-2.5.5-.7.3-1.3.9-1.8 1.4-.5.5-1 1.3-1.3 2-.3.8-.6 1.6-.9 2.5-.2.9-.4 1.7-.5 2.6-.1.9-.1 1.7-.1 2.5v13.6h-3.4v-27.7h3.4v5.9h.1c.3-1 .7-1.9 1.2-2.8.5-.8 1.1-1.5 1.7-2 .6-.5 1.3-1 2.1-1.3.8-.3 1.5-.4 2.4-.4.5 0 1.1.1 1.5.1.4.1.9.2 1.2.3v3.6l.1.1zm39 24.2v-16.3c0-3.1-.5-5.4-1.7-6.8-1.1-1.5-2.9-2.2-5.2-2.2-1.1 0-2.2.2-3.2.7-1 .4-1.9 1.1-2.7 1.9-.8.9-1.3 1.9-1.8 3.1-.4 1.2-.7 2.6-.7 4.2v15.5h-3.4v-41h3.4v18.1h.1c2.2-3.6 5.3-5.4 9.3-5.4 3.1 0 5.4.9 7 2.8 1.5 1.9 2.4 4.7 2.4 8.4v17.1l-3.5-.1zm27.8 0v-5h-.1c-.9 1.7-2.1 3.2-3.7 4.1-1.5 1-3.3 1.5-5.3 1.5-1.3 0-2.6-.2-3.6-.5-1.1-.3-1.9-.9-2.8-1.6s-1.3-1.5-1.7-2.6c-.4-1-.6-2-.6-3.2 0-2.6.8-4.5 2.4-6 1.5-1.5 3.9-2.5 7.1-2.9l8.4-1.2c0-5.4-2-8-6.2-8-3.2 0-6.2 1.2-9 3.6v-3.8c.5-.4 1.2-.8 1.9-1.1.8-.3 1.5-.6 2.4-.9.9-.3 1.6-.4 2.6-.5.9-.1 1.7-.2 2.6-.2 3.1 0 5.4.9 7 2.6 1.5 1.7 2.4 4.3 2.4 7.7v18.1l-3.8-.1zm-7.3-13.5c-1.3.2-2.4.4-3.2.7-.9.3-1.6.6-2.2 1.1-.5.5-1 1.1-1.3 1.7-.3.7-.4 1.5-.4 2.6 0 .8.1 1.4.4 2 .3.6.6 1.2 1.1 1.6.5.5 1.1.9 1.8 1.1.7.3 1.5.3 2.4.3 1.2 0 2.4-.2 3.4-.7 1-.5 1.9-1.1 2.7-1.9.8-.9 1.3-1.8 1.7-3s.6-2.4.6-3.8V632l-7 1zm37.5 12.3c-2 1.3-4.6 1.9-7.5 1.9-1.9 0-3.8-.3-5.4-1.1-1.6-.7-3-1.7-4.1-3-1.1-1.3-1.9-2.8-2.6-4.4-.5-1.7-.9-3.6-.9-5.6 0-2 .3-4 .9-5.8.6-1.8 1.5-3.4 2.8-4.8 1.2-1.3 2.7-2.5 4.4-3.2 1.7-.7 3.8-1.2 6-1.2 2.4 0 4.4.4 6.2 1.3v3.7c-2-1.3-4.2-1.9-6.6-1.9-1.6 0-3.1.3-4.4.9-1.3.6-2.4 1.5-3.2 2.6-.9 1.1-1.5 2.4-1.9 3.8-.4 1.4-.7 3-.7 4.6 0 1.5.2 2.9.5 4.2s1 2.6 1.7 3.6 1.8 1.8 3 2.5c1.2.6 2.7.9 4.3.9 2.6 0 5-.8 7.1-2.4v3.5h.3v-.1zm8.4-33.6c-.6 0-1.3-.2-1.7-.7-.5-.5-.7-1.1-.7-1.7s.2-1.3.7-1.7c.5-.5 1.1-.7 1.7-.7.3 0 .6.1 1 .1.3.1.5.3.8.5.2.2.4.5.5.8.1.3.2.6.2 1 0 .3-.1.6-.2 1-.1.3-.3.5-.5.8-.2.2-.5.4-.8.5-.3 0-.7.1-1 .1zm-1.7 34.8v-27.7h3.4v27.7h-3.4zm14.1-13.3c0 1.7.2 3.2.7 4.6.4 1.3 1.1 2.5 1.9 3.4.9.9 1.8 1.6 3 2.2 1.2.5 2.5.8 4 .8 3.1 0 6-1.1 8.9-3.2v3.4c-2.7 1.9-5.8 2.8-9.7 2.8-1.8 0-3.6-.3-5.1-1-1.5-.6-2.8-1.6-3.9-2.8-1.1-1.3-1.9-2.8-2.5-4.6-.5-1.8-.9-3.9-.9-6.2 0-2 .3-4 .9-5.8s1.5-3.3 2.6-4.6 2.5-2.4 4-3c1.5-.7 3.2-1.1 5-1.1s3.4.3 4.7.9c1.3.6 2.6 1.5 3.4 2.7.9 1.1 1.6 2.6 2.1 4.2.5 1.7.7 3.6.7 5.6v1.7h-19.8zm16.4-3c-.1-2.9-.8-5.2-2-6.7-1.3-1.6-3.2-2.4-5.5-2.4-1.2 0-2.3.2-3.2.6-1 .4-1.9 1-2.6 1.8-.8.8-1.4 1.7-1.9 2.9s-.9 2.4-1.1 3.8h16.3zm29.1 16.3v-16c0-6.2-2.3-9.4-6.8-9.4-1.2 0-2.4.2-3.4.7-1.1.5-1.9 1.1-2.7 1.9-.8.9-1.3 1.8-1.7 3-.4 1.2-.6 2.4-.6 3.8v15.8h-3.4v-27.7h3.4v4.8h.1c2-3.7 5.2-5.5 9.3-5.5 3 0 5.4 1 6.9 3 1.5 1.9 2.4 4.8 2.4 8.5v16.9h-3.6v.2zm31.3 0v-4.8h-.1c-.9 1.7-2.3 3.1-4 4.1-1.7 1-3.7 1.5-5.8 1.5-1.7 0-3.3-.3-4.7-1-1.4-.6-2.6-1.5-3.7-2.8-1.1-1.2-1.7-2.7-2.4-4.4-.5-1.7-.9-3.7-.9-5.8 0-2.3.3-4.3.9-6.1.7-1.8 1.5-3.4 2.6-4.8 1.1-1.3 2.5-2.4 4-3.1 1.5-.7 3.3-1.1 5.2-1.1 4 0 6.8 1.6 8.6 4.8h.1v-17.5h3.4v41h-3.2zm0-16.7c0-1.2-.2-2.4-.6-3.4-.4-1.1-1-1.9-1.7-2.8s-1.6-1.4-2.7-1.8c-1.1-.4-2.2-.7-3.4-.7-1.3 0-2.6.3-3.8.9-1.1.5-2.1 1.3-3 2.4s-1.5 2.3-1.9 3.8c-.5 1.5-.7 3.1-.7 5 0 1.7.2 3.3.6 4.7.4 1.4 1 2.6 1.7 3.6s1.7 1.7 2.8 2.2c1.1.5 2.3.8 3.6.8 1.4 0 2.7-.3 3.8-.8 1.1-.5 2.1-1.2 2.9-2.1s1.4-1.9 1.8-3.1c.4-1.2.6-2.5.6-3.8v-4.9zm23.7 17.3c-2 0-3.9-.3-5.6-1.1-1.6-.7-3-1.6-4.2-2.9-1.1-1.3-2-2.8-2.7-4.5-.7-1.7-.9-3.7-.9-5.8 0-2.4.3-4.4 1-6.2.6-1.8 1.5-3.4 2.8-4.6 1.2-1.3 2.7-2.3 4.4-2.9 1.7-.6 3.6-1 5.7-1 1.9 0 3.8.3 5.4 1 1.6.6 3 1.6 4.1 2.9 1.1 1.3 1.9 2.8 2.6 4.6.5 1.7.9 3.8.9 6s-.3 4.2-.9 5.9c-.6 1.7-1.5 3.3-2.7 4.6-1.1 1.3-2.6 2.3-4.2 3-1.7.6-3.6 1-5.7 1zm.3-26c-1.5 0-2.9.3-4.1.8-1.2.5-2.3 1.3-3.2 2.3-.9 1-1.5 2.3-2 3.7-.5 1.4-.7 3.1-.7 5 0 1.7.2 3.3.7 4.6.5 1.4 1.1 2.6 1.9 3.6.9 1 1.9 1.7 3.1 2.3 1.2.5 2.6.8 4.1.8 1.5 0 2.9-.3 4.1-.8 1.2-.5 2.2-1.3 3-2.3.9-1 1.5-2.2 1.9-3.6.4-1.4.6-3 .6-4.8 0-3.8-.9-6.6-2.5-8.6-1.4-2-3.9-3-6.9-3zm21.8 25.9c-.7 0-1.3-.3-1.8-.8s-.8-1.1-.8-1.8.3-1.3.8-1.9c.5-.5 1.1-.8 1.8-.8.3 0 .7.1 1 .2.3.1.5.3.9.5.3.3.4.5.5.9.1.3.2.7.2 1.1 0 .3-.1.7-.2 1-.1.3-.3.5-.5.9-.2.2-.5.4-.9.5-.4.1-.7.2-1 .2z" fill="#01002A"/><linearGradient id="a" gradientUnits="userSpaceOnUse" x1="36.855" y1="576.284" x2="148.279" y2="576.284"><stop offset="0" stop-color="#fff" stop-opacity="0"/><stop offset="1" stop-color="#7fdbff"/></linearGradient><path fill="url(#a)" d="M107.6 516.3c-12-3-24.1-1.4-34.9 3.7-21.3 11.2-35.8 33.5-35.8 59.2 0 11.5 2.9 22.3 8 31.7.1.2.2.3.3.5 0 .1.1.2.1.2 7.1 12 18.3 21.1 32.2 24.6 29.7 7.5 60.4-13.3 68.8-46.5s-9-65.9-38.7-73.4zm38.1 73.1c-5.7 22.7-29 36.3-52.1 30.5-23.1-5.8-37.2-28.9-31.5-51.5 5.7-22.7 29-36.3 52.1-30.5s37.2 28.8 31.5 51.5z"/><linearGradient id="b" gradientUnits="userSpaceOnUse" x1="59.89" y1="581.345" x2="170.676" y2="581.345"><stop offset="0" stop-color="#5558ff"/><stop offset="1" stop-color="#fff" stop-opacity="0"/></linearGradient><path fill="url(#b)" d="M154.5 535.5c-6.5-6.5-14.6-11.4-23.9-13.7-29.7-7.4-60.4 13.2-68.7 46.1-8.3 32.9 9.1 65.6 38.7 73 16.2 4.1 32.8-.3 45.8-10.4 14.8-12.3 24.3-30.8 24.3-51.5 0-16.6-6.1-31.8-16.2-43.5zm-8.8 54c-5.7 22.7-29 36.3-52.1 30.5-23.1-5.8-37.2-28.9-31.5-51.5 5.7-22.7 29-36.3 52.1-30.5s37.2 28.8 31.5 51.5z"/></svg>