<svg xmlns="http://www.w3.org/2000/svg" width="253.783" height="240.472" viewBox="0 0 237.92148 225.4422"><path d="M117.396 224.242c-1.605-2.597 2.088-14.388 8.813-28.135 11.87-24.267 22.152-36.77 60.703-73.82 15.844-15.227 22.855-28.95 24.837-48.614.906-8.983 1.392-10.317 4.906-13.456 5.298-4.734 10.412-4.625 15.364.326 3.726 3.726 3.797 4.026 3.204 13.438-1.484 23.556-14.059 42.65-41.898 63.615-17.496 13.176-37.158 31.795-48.019 45.473-9.422 11.866-19.234 28.351-21.525 36.163-1.601 5.46-4.635 7.841-6.385 5.01zm-7.558-31.882c-6.24-13.19-17.008-22.846-53.06-47.578C20.328 119.777 4.332 99.296.677 72.95c-2.868-20.67 3.447-40.082 17.638-54.22C31.723 5.375 46.858-.056 70.515 0c22.77.056 39.828 6.098 50.073 17.737l4.896 5.561 7.988-7.473c10.952-10.245 25.295-17.08 28.284-13.479 1.061 1.279-.701 3.73-7.785 10.832-10.526 10.55-18.41 24.51-24.188 42.823-5.11 16.195-13.379 26.335-26.353 32.315-7.74 3.568-24.568 3.815-32.29.474-9.665-4.182-18.125-10.002-18.125-12.468 0-2.776 1.596-2.575 13.125 1.655 16.084 5.901 29.53 1.428 37.31-12.413 3.245-5.775 3.895-8.42 4.336-17.646.466-9.734.171-11.628-2.858-18.378-3.83-8.533-8.747-13.77-16.913-18.011-4.85-2.52-7.431-2.922-18.75-2.922-11.584 0-13.953.389-20.185 3.31-9.616 4.509-16.673 11.964-22.12 23.37-4.535 9.498-4.57 9.692-4.566 25.82.003 13.771.43 17.381 2.798 23.665 6.757 17.932 18.258 31.467 44.687 52.598 29.526 23.605 44.537 41.895 46.52 56.68 1.051 7.834-2.487 6.922-6.561-1.69zM216.04 28.2c-11.99-7.54-6.508-25.217 7.82-25.217 4.804 0 6.318.664 10.063 4.409 4.063 4.063 4.358 4.859 3.762 10.147-.855 7.584-4.982 11.775-12.336 12.525-3.97.404-6.51-.104-9.31-1.864z" fill="#fff"/></svg>