<svg xmlns="http://www.w3.org/2000/svg" width="182.679" height="61.354" viewBox="0 0 171.26115 57.519084"><g transform="translate(60.714 -453.79)"><text style="line-height:125%" x=".12" y="486.763" font-weight="400" font-size="43.838" font-family="sans-serif" letter-spacing="0" word-spacing="0"><tspan x=".12" y="486.763" style="-inkscape-font-specification:Kelvetica" font-family="Kelvetica">social</tspan></text><text style="line-height:125%" x=".265" y="504.509" font-weight="400" font-size="30.308" font-family="sans-serif" letter-spacing="0" word-spacing="0"><tspan x=".265" y="504.509" style="-inkscape-font-specification:Kelvetica" font-family="Kelvetica">systems</tspan></text><rect width="57.5" height="57.5" x="-60.714" y="453.791" ry="9.296" fill="#87decd"/><path d="M-6.914 495.294q-1.616 3.551-3.919 5.787-2.772 2.956-6.7 5.315-1.977 1.156-2.145 1.19-6.472 3.403-11.96 3.687-4.975.302-10.048-1.88-.805-.42-2.718-1.462l-.1-.068q.888-1.855 3.033-4.698 2.87-3.775 5.385-5.308l.128.115q5.063 2.824 12.357-.677.545-.255 1.063-.558 1.413-.825 2.278-1.84.846-.939 1.58-2.513.628-1.32.42-2.787-.133-1.003-.595-1.814l-.217-.38q-1.459-2.008-5.605-1.683-.822.1-6.286 1.196-.262.09-4.924 1.163-3.65.863-4.958.992-5.29.74-9.217-1.413-3.272-1.774-5.31-5.35-3.589-6.292-1.439-12.76 1.325-3.953 4.372-7.196 2.43-2.564 6.62-5.014.753-.44 1.533-.833 10.077-5.446 20.298.148.452.243.554.311-.849 1.704-2.8 4.116-2.342 2.83-4.46 4.07l-.188.11q-.028-.048-.156-.164-1.428-1.072-4.09-.787-2.42.27-5.165 1.62-.733.366-1.392.751-3.06 1.79-4.07 3.65-.683 1.226-.657 2.482.073 1.229.643 2.23 1.562 2.519 6.295 2.231 1.988-.145 6.791-1.3 5.45-1.342 10.694-1.612 6.439-.268 10.83 3.14 2.32 1.758 3.815 4.38 3.616 6.34.43 13.413z" style="line-height:125%;-inkscape-font-specification:Kelvetica" font-weight="400" font-size="112.032" font-family="Kelvetica" letter-spacing="0" word-spacing="0" fill="#fff"/></g></svg>